<svg width="328" height="369" viewBox="0 0 328 369" fill="none" xmlns="http://www.w3.org/2000/svg">
<g clip-path="url(#clip0_19_2432)">
<path d="M270.2 0.164662C270.42 0.259924 273.442 3.6547 273.399 3.90584C272.944 4.10503 271.88 5.57725 271.779 5.62921C271.492 5.76778 268.25 5.9583 267.448 6.23542C264.983 7.08412 258.221 12.0377 255.934 13.8996C254.195 15.3113 252.591 16.8874 251.206 18.7926C250.987 19.3815 251.282 23.7722 251.451 24.4564C251.696 25.4523 252.321 25.5908 252.793 26.1451C253.266 26.6993 252.312 27.6953 254.6 27.089L265.447 22.3779L266.359 23.1487V21.5292C269.103 22.4645 271.66 19.0698 274.269 19.9011L273.864 19.0957C274.252 19.0871 274.699 19.0611 275.054 18.8966C277.291 17.7967 281.031 16.134 283.344 15.2247C290.156 12.5487 310.576 6.52121 317.878 7.04082C318.123 7.05814 320.782 7.48248 320.926 7.55176C321.542 7.84621 321.534 8.74686 321.694 8.95471C322.082 9.43968 322.015 7.43918 322.868 8.14931C322.943 8.20994 323.999 9.59556 324.041 9.69082C325.645 13.1809 322.893 13.5359 320.715 14.35C317.11 15.701 313.067 14.8523 309.732 15.9434C309.15 16.134 308.88 16.8528 308.373 16.9913C307.107 17.3464 305.638 16.9653 303.916 18.0825C303.469 18.3683 303.291 20.4381 302.557 18.2903C301.586 18.273 301.063 19.4508 300.961 19.4421C297.602 19.1217 296.597 21.2261 293.778 23.0881C291.971 24.2832 291.051 24.2832 289.498 26.3962C288.856 27.2622 287.455 29.5485 287.176 30.5444C286.72 32.1899 287.868 33.8959 286.518 34.2943C286.805 34.6493 287.109 35.0131 287.142 35.498C287.176 36.0956 287.159 38.8495 286.704 38.9621C285.446 39.2739 279.081 35.9224 277.207 36.1909C276.489 37.4812 275.079 38.0614 273.855 38.6763C272.454 39.3778 273.408 39.3951 272.851 39.8195C272.218 40.2958 271.146 39.3778 269.981 41.2397C269.314 42.3136 268.613 44.0976 268.199 44.9463C268.149 45.0502 267.693 45.0155 267.6 45.3186C267.558 45.4486 267.229 47.9167 267.246 48.0726C267.414 50.0384 268.318 52.6365 269.938 53.7536C270.816 54.3598 272.083 54.0308 272.31 54.204C273.746 55.3211 276.227 57.4255 277.705 58.9411C278.017 59.2615 277.983 60.3353 278.625 60.6644L277.848 60.8723V61.6777L278.946 61.9201C279.283 63.4357 278.988 67.7311 276.717 66.4148C276.54 66.3108 276.894 65.5574 276.261 65.7393V66.5447C275.518 66.1117 273.686 65.1504 272.893 65.1157C270.808 65.0291 265.87 67.3501 264.764 69.186C264.029 70.3984 264.865 71.7581 265.101 72.9445C265.321 74.0097 264.941 74.9363 266.486 75.9842C267.558 76.8416 267.119 78.0107 267.288 78.6342C267.305 78.7122 267.862 78.6948 267.938 78.9806C268.275 80.2796 266.807 82.0983 265.422 81.9857C265.236 81.9684 265.236 81.189 264.333 80.9984C263.033 80.7213 262.197 81.7865 261.809 80.3229C260.18 81.3708 258.061 80.8252 256.896 81.3968C255.655 82.0117 254.608 83.302 253.317 83.8736C252.768 87.1385 251.341 90.8623 253.899 93.5556C254.634 94.3264 255.461 94.5689 256.179 94.9586C257.149 95.4869 261.851 99.9468 262.341 101.125C262.51 101.523 261.97 102.034 262.071 102.198C262.172 102.363 262.89 102.294 263.067 102.831C263.118 102.987 263.455 105.758 263.464 106.122C263.506 107.871 263.489 109.603 261.826 110.356L261.573 109.655C259.943 110.391 260.028 108.72 259.589 108.416C259.091 108.07 256.677 109.326 256.693 107.923C256.457 108.183 256.187 108.572 255.841 108.633C255.453 108.702 253.646 108.746 253.401 108.823C253.359 108.841 253.317 109.343 253.013 109.499C251.35 110.365 249.484 111.733 248.877 113.716C248.792 113.985 248.539 118.35 248.589 118.583C248.64 118.791 249.906 119.943 249.974 120.056C250.219 120.437 249.619 121.13 249.771 121.294C251.265 120.359 251.012 121.762 251.628 122.125C252.169 122.446 256.871 123.892 254.127 125.122C253.806 125.26 253.393 124.905 253.047 125.044C252.54 125.252 252.127 126.802 252.042 126.863C251.772 127.088 251.24 126.889 251.029 127.01C250.894 127.088 250.404 129.798 250.388 130.145C250.177 134.284 252.751 134.769 254.904 136.926C255.334 137.359 255.317 138.562 255.377 138.64C255.68 139.013 256.947 139.203 257.31 139.827C257.833 140.736 258.373 143.914 258.568 144.321C258.601 144.399 259.175 144.399 259.369 144.902C259.521 145.283 259.699 148.184 259.631 148.625C259.378 150.358 257.909 150.799 256.356 150.487C256.052 150.427 256.06 149.855 255.79 149.673C252.684 147.673 250.168 144.806 246.454 147.3C245.559 147.907 244.825 149.266 244.529 149.569C244.326 149.777 243.71 149.569 243.541 149.743C243.33 149.942 241.861 154.913 242.106 155.354C243.001 155.675 243.761 157.242 244.352 157.606C245.044 158.048 246.69 157.814 247.897 158.585C248.117 158.732 249.4 160.083 249.408 160.412C248.328 162.343 246.454 161.962 244.841 163.859C243.449 165.504 243.702 167.158 242.663 168.925L243.465 169.367L243.136 170.137C243.153 170.388 243.719 170.293 243.938 170.917C244.436 172.354 243.145 172.978 245.019 172.805C244.841 173.316 244.816 173.567 245.196 174C245.939 174.866 247.847 175.533 248.471 176.13C248.725 176.373 249.189 177.853 249.923 178.304C251.358 179.178 253.79 179.889 255.377 180.936C255.799 181.214 257.512 182.495 257.622 182.599C257.732 182.703 259.049 185.05 259.108 185.327C259.319 186.427 259.429 188.912 258.28 189.397C257.977 188.358 257.242 188.497 256.516 187.96C255.967 187.553 256.474 186.531 255.166 187.371C254.482 185.319 252.447 188.15 251.983 186.159C250.565 187.059 248.48 186.955 247.695 188.696C247.289 189.597 248.184 190.74 246.665 191.684C247.517 193.173 247.188 194.585 248.632 195.633C249.045 195.927 249.687 195.849 250.16 196.126C250.447 196.291 250.497 196.871 250.886 197.096C251.696 197.555 257.065 197.347 257.816 196.741C258.399 196.265 258.196 194.161 259.977 194.767C261.607 196.481 261.48 199.868 260.29 201.799C259.749 202.673 258.061 203.288 258.762 204.691C259.538 206.267 261.995 207.029 263.54 207.523C264.578 207.852 266.216 207.333 265.996 208.441L266.604 207.61C268.757 209.056 268.486 206.259 270.344 206.207C271.601 206.796 272.378 210.234 271.888 211.36C271.736 211.706 270.791 211.879 271.12 212.901L270.335 212.096C269.896 212.633 272.133 215.075 272.412 215.248C272.707 215.421 278.836 215.404 279.165 215.309C279.452 215.231 279.385 214.642 279.689 214.581C283.774 213.706 284.711 213.992 288.071 211.022C290.215 209.125 292.241 206.674 293.6 204.146C294.191 203.046 294.259 201.418 295.238 200.959L294.444 199.729L295.23 199.53C295.449 198.473 295.019 198.915 294.444 198.525C296.741 195.702 294.048 191.138 294.183 187.761C291.752 184.175 290.663 182.79 286.855 180.85C286.484 180.659 286.459 180.096 286.045 179.941C285.674 179.793 283.884 179.785 283.394 179.845C282.263 179.967 279.537 180.642 279.427 181.699L278.65 180.893L278.026 182.928C276.388 182.4 275.054 181.932 274.404 180.174C274.049 179.23 273.957 173.298 274.117 172.181C274.412 170.155 275.864 169.185 276.962 167.782C277.181 167.496 277.004 166.907 277.105 166.743C277.232 166.535 280.212 166.197 281.411 164.863C281.782 164.456 281.723 163.703 281.9 163.556C282.246 163.252 284.002 163.547 284.188 162.248L283.403 162.04L284.205 160.828C283.074 160.49 282.297 157.511 281.74 157.078C281.613 156.974 280.972 157.277 280.507 157C279.992 156.679 280.685 155.77 278.887 156.61L278.262 155.761L278.059 156.576L276.683 155.761L276.489 156.576C275.341 155.051 270.133 158.195 269.609 155.883C269.238 154.263 272.032 151.951 272.462 150.6C274.024 149.734 279.072 147.638 280.668 147.846C281.301 147.933 282.66 148.747 283.437 149.033C284.441 149.405 285.716 150.176 286.45 150.358C287.041 150.505 287.759 149.5 287.818 150.817L288.341 150.894C289.008 150.661 289.979 148.53 290.013 147.794C290.063 146.53 288.383 145.066 290.122 144.616C288.493 142.312 288.392 138.597 287.725 135.808C286.433 130.396 285.311 125.416 284.036 119.597C283.833 118.687 284.551 117.908 283.411 118.055L284.196 116.851C282.314 116.496 283.04 112.608 282.812 110.98C282.744 110.512 282.162 110.053 282.018 109.334C281.79 108.217 282.728 106.884 282.516 105.689C282.5 105.585 281.436 104.822 281.622 103.844C281.782 103.004 283.074 101.575 283.031 100.839C281.436 100.051 282.778 96.0584 282.972 94.3091L282.289 93.954C282.229 92.3779 283.226 89.6672 282.947 88.2383C282.879 87.8833 282.364 88.1431 282.229 88.0478V87.6494C283.428 87.8486 282.939 85.7788 283.133 85.1207C284.137 81.6739 285.783 81.2063 287.235 78.5996C288.426 76.4605 288.409 74.1916 289.65 71.9486C290.165 71.0133 291.059 70.3811 291.583 69.4371C293.237 66.4407 294.571 63.0633 296.319 60.5778C296.825 59.8677 297.939 59.452 298.032 58.4561C298.193 58.3695 299.273 59.504 299.721 59.7551C301.417 60.7077 301.89 60.6644 303.266 60.9848C305.148 61.4265 304.693 62.0587 306.727 60.2747C308.339 58.8631 310.045 57.1571 311.302 55.8754C313.742 53.3899 319.364 45.2061 319.879 41.8546C320.014 40.9886 319.643 39.5597 319.845 38.7802C319.904 38.5637 320.546 38.6244 320.555 38.3559C320.58 37.8103 320.031 36.4766 319.989 35.524C319.913 33.8699 320.774 32.7701 320.149 31.2892C321.289 30.8389 321.255 31.9647 321.593 32.0513C321.779 32.1033 322.209 31.8175 322.513 31.9474C323.517 32.3977 326.472 33.7833 325.679 34.9265C327.544 34.5108 326.835 36.7538 327.654 37.9575L326.472 38.5897C327.131 39.6376 327.84 39.6289 327.257 41.0146L326.472 40.6075V41.4129C327.131 41.3956 327.916 42.2876 328.051 42.8505C328.118 43.145 327.401 42.9631 327.308 43.2402C327.257 43.4134 327.62 45.9249 327.536 46.5744C327.35 48.0553 325.552 57.668 325.054 58.4734C324.387 59.5473 324.547 58.6293 323.948 60.1881C323.138 62.2925 322.429 61.4352 322.125 61.7036C322.057 61.7643 322.783 62.3705 321.973 63.3404C321.213 64.2497 317.423 67.3501 316.317 68.1901C315.979 68.4499 315.439 68.5538 315.017 68.5971L315.802 69.8009C314.46 69.7143 315.025 72.0439 314.62 73.0484C317.938 73.0051 320.419 73.8365 323.273 75.5512C323.121 76.1834 323.29 77.3006 323.053 77.8115C322.859 78.2445 319.33 80.219 318.773 80.3836C317.288 80.8339 317.659 80.5135 316.317 81.1457C314.882 81.8298 313.548 81.4488 313.455 81.57C313.362 81.6913 313.48 82.3408 313.202 82.7478C312.214 84.1681 312.856 83.4406 312.434 84.3586C311.919 85.4757 310.062 87.4243 312.164 88.4288C312.721 88.6973 316.013 89.7365 315.422 88.4635H316.19C316.173 90.2128 319.043 88.3769 319.955 90.0656L320.546 89.4594C320.554 91.0875 321.154 90.1436 321.635 90.5679C321.719 90.6458 322.707 92.3519 322.741 92.4558C323.087 93.5297 323.45 98.9076 322.327 98.9769C321.112 98.3967 320.082 97.4441 318.925 96.7859C318.241 96.3962 317.448 96.9071 317.186 95.738L316.958 96.5001C315.397 95.9199 311.606 97.0197 310.205 97.8078C309.766 98.0589 309.336 98.8297 308.922 99.228C308.508 99.6264 307.934 98.9596 307.605 100.492C307.082 102.891 308.517 102.008 308.93 103.42C309.699 106.044 306.28 105.134 305.334 105.256C304.769 105.325 301.291 107.533 300.911 108.009C300.311 108.772 299.822 112.807 300.092 113.673C300.582 115.241 302.397 115.682 302.776 116.808C303.671 116.185 303.756 115.708 304.549 116.808L304.98 115.985C306.305 116.869 305.782 115.76 306.339 115.405C307.917 114.375 313.396 113.465 315.38 113.708C316.714 113.872 319.153 114.903 318.191 116.401C320.158 115.7 319.381 117.813 319.466 117.951C320.293 119.363 321.145 120.142 321.821 122.229C321.998 122.792 322.496 124.221 322.513 124.342C322.572 124.741 322.513 127.244 321.871 127.287L319.027 126.88C319.592 125.07 316.941 123.693 315.54 124.394C315.304 124.507 313.025 126.083 312.797 126.282C311.741 127.192 310.551 129.183 310.045 130.482C309.859 130.95 310.72 131.348 309.099 132.007L309.884 132.604C307.487 132.985 308.93 134.865 308.103 136.432C308.086 139.602 309.58 143.031 309.58 145.516L310.281 145.82C310.517 149.717 312.29 154.54 314.223 157.987C313.32 159.364 314.679 158.784 314.958 159.615C315.397 160.932 315.515 163.573 315.903 164.837C316.106 165.504 317.093 167.279 317.456 168.414C318.047 170.241 318.106 172.155 319.356 173.757L318.174 174.355L319.398 174.597C319.972 175.342 319.39 176.217 319.423 176.598C319.449 176.849 320.048 176.745 320.124 177.048C320.267 177.62 319.719 180.278 319.964 181.3C320.116 181.924 320.858 182.365 320.934 183.102C321.044 184.123 320.09 184.834 320.116 185.5C320.116 185.717 320.791 185.656 320.85 185.899C320.909 186.141 320.816 189.285 320.766 189.77C320.403 193.156 320.774 195.408 319.769 198.586C319.626 199.036 318.917 201.539 318.925 201.704C318.934 201.937 320.09 201.807 319.753 202.933C319.677 203.193 319.018 203.228 318.807 203.557C317.718 205.246 318.334 206.588 318.073 208.216C318.047 208.354 316.663 210.104 316.638 210.234C316.587 210.494 317.026 211.23 316.857 211.784C316.629 212.546 315.515 213.611 315.481 213.732C315.346 214.2 316.477 215.075 315 214.902L315.785 215.499C315 216.4 314.789 217.898 313.421 218.14L314.181 219.102C313.683 219.838 313.43 220.713 313.016 221.492C312.864 221.778 312.223 221.752 312.223 222.012C312.223 222.54 312.83 223.163 312.594 223.951C312.476 224.358 309.521 226.619 310.256 227.45L309.074 227.052V228.671L308.28 228.256C308.466 229.026 307.791 229.788 307.242 230.273C306.305 231.096 301.468 235.435 300.134 235.946C298.91 236.413 296.994 237.072 295.846 237.704C295.542 237.868 294.343 239.081 294.124 239.176C292.334 239.903 293.161 239.297 291.414 240.371C290.139 241.15 284.542 241.523 284.239 241.739C283.158 242.51 282.643 242.96 280.811 243.09C280.685 243.099 279.587 242.268 279.038 242.865L279.435 243.671C277.916 243.004 276.514 243.965 275.248 244.034C273.982 244.104 268.748 244.052 267.887 243.645C265.827 242.666 266.731 242.831 264.223 242.276C262.527 241.904 259.04 239.67 258.981 243.541C258.981 243.757 260.678 246.494 260.864 246.676C260.973 246.788 261.345 246.572 261.556 246.693C263.388 247.724 265.946 249.464 268.233 251.118C268.394 251.24 268.419 251.56 268.385 251.776L268.968 250.971L271.534 252.062C273.104 254.175 277.527 256.193 278.954 257.96C279.207 258.272 278.954 258.938 279.055 259.077C279.157 259.216 279.824 258.67 280.431 259.042C281.149 259.484 281.698 260.913 281.866 261.026C281.951 261.086 282.576 260.8 282.998 260.896C283.589 261.034 287.117 262.013 287.294 261.883C287.413 261.788 287.438 261.095 287.725 260.896C288.442 260.402 289.954 261.476 291.971 259.345C292.267 259.034 291.693 257.899 293.28 258.272L292.486 257.258L293.28 256.86C292.646 256.583 292.63 255.327 292.393 255.128C291.878 254.695 290.004 254.721 289.591 254.574C289.278 254.461 289.32 254.054 289.228 254.002C288.966 253.864 288.586 254.184 288.358 253.838C288.257 253.682 288.51 253.283 288.4 253.093C288.307 252.937 287.413 253.231 287.759 252.209C291.76 250.088 296.504 251.309 299.197 254.963C299.805 255.786 299.56 256.184 299.746 256.574C299.83 256.747 300.43 256.817 300.556 257.051C300.725 257.345 301.789 263.095 301.797 263.753C301.797 263.857 301.51 265.685 301.476 265.78C301.409 265.988 300.987 265.988 300.826 266.291C300.261 267.365 299.746 268.811 298.564 269.59C297.483 270.309 295.339 269.452 294.081 270.465C294.867 271.322 293.946 273.34 294.149 273.903C294.225 274.12 294.748 274.076 294.774 274.154C294.867 274.449 294.478 274.778 294.487 275.055C294.495 275.332 294.968 275.306 295.086 275.497C295.272 275.8 295.204 276.224 295.373 276.415C295.542 276.605 296.133 276.449 296.335 276.64C296.538 276.83 296.293 277.367 296.909 277.895C298.716 279.428 302.895 278.883 303.376 279.324C304.119 279.991 304.152 282.208 303.941 283.152C303.916 283.256 303.004 283.646 303.215 284.858C302.304 285.057 301.882 286.261 301.502 286.564C301.434 286.616 300.387 287.153 300.303 287.179C299.552 287.482 298.378 287.456 297.72 287.612C297.644 287.629 297.644 288.21 297.382 288.27C296.555 288.478 293.111 287.344 292.925 287.482C292.722 288.409 292.258 289.587 292.292 290.522C292.351 292.055 295.424 297.06 296.555 297.892C297.982 298.94 299.881 299.286 301.493 299.91C303.469 300.672 303.325 304.144 302.253 305.599C302.16 305.721 300.024 307.409 299.881 307.47C298.1 308.206 298.809 307.132 296.589 308.89C295.846 309.479 294.588 309.756 294.436 310.795C294.25 313.367 295.871 313.099 296.918 313.826C297.315 314.104 297.391 314.606 297.652 314.788C298.556 315.411 299.611 315.299 300.404 316.45C301.13 317.516 300.776 322.547 298.826 321.525C298.969 323.474 294.985 325.154 293.465 324.998C292.537 324.903 288.856 321.543 288.054 323.855L287.354 323.552L287.708 324.591L286.948 324.963C287.868 328.02 289.278 329.562 291.693 331.467L290.899 332.272L291.693 332.68C291.33 333.684 287.801 335.061 286.746 335.312C285.606 335.581 286.695 334.585 286.56 334.515C284.787 335.572 283.158 334.264 281.081 334.576C280.516 335.113 280.744 338.361 280.896 339.305C281.25 341.522 282.761 343.929 282.972 346.077C283.116 347.54 283.411 351.186 281.427 350.727L282.204 351.715C281.301 352.407 281.276 353.499 280.989 354.035C279.241 357.37 276.599 359.517 273.02 360.444C272.851 360.487 271.779 361.734 270.175 361.933C267.752 362.237 265.287 361.5 262.873 362.055L262.459 359.639L263.236 360.046C263.008 358.504 264.375 358.452 265.042 357.629C266.241 356.131 267.144 353.247 267.153 351.29C267.17 348.554 266.866 349.636 265.093 348.701C264.586 348.432 265.194 347.246 263.033 348.701L262.679 347.939C260.357 348.709 256.575 348.086 254.414 348.735C254.136 348.822 254.153 349.376 253.849 349.472C252.928 349.766 251.299 349.697 250.615 350.13C248.843 351.264 244.85 355.36 243.989 357.326C243.634 358.14 243.609 361.665 242.309 361.682C243.322 363.319 242.613 366.125 242.689 368.151C241.262 367.467 240.578 369.026 240.131 369.009C240.013 369.009 237.902 368.498 237.793 368.437C237.269 368.169 237.252 367.571 237.041 367.459C236.611 367.233 236.028 367.372 235.615 367.104C234.635 366.471 232.458 363.596 231.858 362.47C231.698 362.159 232.103 361.639 231.917 361.362C231.732 361.085 230.752 361.535 231.63 360.037H230.44C230.727 358.348 229.722 357.283 229.79 355.308C229.866 352.866 231.613 350.147 229.857 347.887C224.168 349.134 222.302 352.277 220.302 357.525C219.964 358.409 220.023 359.63 219.795 360.175C219.66 360.496 218.208 360.236 218.216 361.882L218.993 362.254C218.191 363.224 216.013 363.821 214.899 363.293C214.266 362.99 215.059 361.942 214.249 362.055L213.455 362.869L213.261 361.743L212.679 362.055C213.016 360.47 211.868 361.076 211.125 360.201C210.062 358.954 208.812 353.499 208.686 351.715C208.5 349.203 210.011 342.829 210.72 340.422C210.813 340.101 211.472 340.179 211.488 339.928C211.531 339.374 210.788 338.161 211.083 337.321C209.868 337.469 208.644 337.495 207.436 337.763C207.124 337.832 207.124 338.404 206.93 338.464C206.736 338.525 205.993 338.144 205.757 338.213C205.503 338.291 202.017 340.959 201.494 341.366C201.105 341.669 200.962 342.422 200.59 342.569L199.814 342.604C199.611 341.565 199.012 342.11 198.809 341.972C198.471 341.729 198.784 341.357 198.649 341.08C198.598 340.985 198.092 341.002 198.058 340.725C197.72 338.274 200.227 331.06 202.169 329.597C202.583 329.285 203.072 329.189 203.579 329.215L203.207 328.064C205.326 326.626 206.955 323.907 209.412 322.833C210.83 322.218 213.32 322.383 214.84 321.473L215.819 322.322L216.005 321.153L220.31 321.118L220.952 320.296L221.196 321.136C223.062 320.218 224.649 320.988 226.337 321.066C229.562 321.213 233.276 321.543 236.602 322.253C240.637 323.11 244.234 324.955 247.686 325.509C250.827 326.011 252.515 325.933 255.081 323.881C256.584 322.677 256.947 321.499 257.749 320.096C258.137 319.421 258.762 319.897 259.074 319.481C261.286 316.511 264.223 308.388 264.738 304.603C264.814 304.049 262.763 294.913 262.366 293.821C259.648 286.313 256.111 282.399 247.306 279.653C245.171 278.987 243.71 279.42 241.49 279.168C239.245 278.917 232.939 277.826 231.082 277.289C230.803 277.211 230.609 275.618 228.836 277.099C228.532 277.41 228.431 280.675 228.541 281.16C228.633 281.593 230.111 284.529 230.035 285.586C229.883 287.794 228.186 291.284 228.439 293.51C227.173 293.233 227.198 294.549 226.228 295.502C225.772 295.952 225.172 295.857 224.978 296.021C224.328 296.558 225.544 296.194 223.239 297.26C220.529 298.507 222.471 298.394 218.807 298.801C218.52 298.836 218.622 299.546 218.326 299.589C217.347 299.745 212.907 299.303 211.944 298.914C211.176 298.602 211.894 297.554 210.273 298.385V297.156L209.513 297.545C208.99 295.346 206.272 294.696 208.129 291.916C209.53 289.812 210.501 292.089 210.872 292.228C211.683 292.531 214.063 291.284 215.017 291.483L214.207 290.868C214.207 290.158 215.321 288.738 215.397 288.019C215.414 287.846 214.764 287.846 214.654 287.534C214.224 286.313 213.726 285.075 213.371 284.018C213.016 282.962 213.827 281.957 212.662 282.156V281.351L213.438 280.953C211.97 281.143 211.877 279.896 211.083 279.108C209.792 277.844 208.348 276.917 207.715 275.28C206.761 275.254 206.196 277.636 205.672 278.129C203.511 280.156 198.682 280.97 195.829 280.58C195.078 280.476 195.323 279.766 195.027 279.749C194.048 279.697 193.778 280.424 192.529 279.091C191.625 278.121 191.938 277.722 192.106 276.493L193.288 276.9C192.908 275.427 194.369 275.549 194.901 274.7C196.361 272.396 195.458 270.889 196.066 268.257C193.601 265.425 192.14 261.814 189.658 258.921C185.885 254.53 184.121 257.7 181.31 260.549C179.022 262.87 177.671 264.238 175.924 267.07C175.206 268.231 174.075 269.876 173.518 271.002C172.657 272.743 170.901 281.611 170.969 283.594C171.028 285.335 174.126 289.379 175.502 290.08C177.671 291.189 179.765 290.816 181.31 288.937C182.204 287.846 182.838 283.871 184.889 285.923C185.083 286.114 187.523 290.409 187.599 290.669C187.7 291.033 187.134 297.684 186.991 298.178C186.771 298.914 186.315 298.81 186.214 299.104C185.995 299.771 185.919 301.702 185.708 301.953C185.573 302.109 184.568 302.187 184.07 302.508C181.917 303.885 180.052 304.534 178.397 305.686C178.009 305.954 177.536 306.006 177.089 306.102C177.367 307.989 177.865 309.661 179.647 310.562C181.85 311.67 184.602 311.003 186.189 312.856C184.864 318.234 180.288 320.365 175.122 319.265C171.568 318.503 170.555 315.506 167.085 314.649C165.87 314.961 165.482 318.26 165.642 319.23C165.693 319.525 166.283 319.455 166.343 319.568C166.41 319.698 166.317 320.018 166.79 320.997C167.018 321.465 167.001 322.426 167.288 322.651C167.752 323.006 169.939 322.599 169.972 324.123C170.006 325.734 167.415 326.591 166.157 326.669C165.929 326.687 161.902 325.855 161.7 325.751C160.889 325.301 160.83 324.487 160.374 324.063C159.64 323.361 159.285 322.954 158.644 322.305C158.416 322.08 156.314 321.101 156.196 321.162C155.892 322.227 154.626 322.27 154.946 323.543L154.161 323.127C152.684 327.7 157.605 330.194 156.508 334.472C155.352 334.948 154.305 333.537 154.06 333.424C153.79 333.312 153.342 333.45 152.844 333.251C151.603 332.749 150.785 331.727 149.063 332.082L147.838 334.481C149.164 334.221 149.257 335.044 149.518 336.196C150.05 338.499 150.067 343.678 148.877 345.696C148.007 347.177 145.559 347.93 144.377 349.047C141.845 349.463 139.38 350.623 136.94 351.082C135.412 351.377 131.36 351.983 130.246 351.108C129.022 350.147 130.052 350.467 130.322 350.086C130.753 349.472 131.335 348.683 131.023 347.852C133.032 347.107 132.306 346.917 132.779 346.042C133.732 344.293 134.425 342.829 134.416 340.803C134.416 340.43 133.319 340.872 133.606 339.971L134.391 339.365C133.268 339.556 133.716 338.265 133.243 337.503C133.074 337.235 131.69 335.442 131.563 335.39C131.36 335.312 130.812 335.693 130.347 335.624C129.765 335.529 129.149 335.026 128.668 335.061C128.33 335.087 124.835 336.36 125.696 337.321L125.105 336.516C124.827 337.2 124.084 337.573 123.746 338.049C122.809 339.4 121.855 341.106 120.817 342.457C119.086 344.708 116.41 344.579 114.131 345.453C113.785 345.592 113.852 346.267 113.633 346.259C113.084 346.233 112.797 345.54 112.232 345.6C111.666 345.661 110.999 346.337 110.467 346.44C108.804 346.752 103.655 346.951 102.448 347.956C102.304 348.077 102.406 348.675 102.22 348.909C101.224 350.156 99.3413 350.961 98.5393 352.632C98.0328 353.689 97.8724 355.308 97.4166 355.975C97.0958 356.443 94.5548 357.248 93.7107 356.954C91.0093 356.019 93.0776 353.066 91.6847 351.307L92.4444 350.909C91.9379 348.354 92.8581 345.297 93.5672 342.795C92.2671 340.43 88.9496 341.27 87.0924 342.327C86.8307 342.474 83.4372 346.796 83.2937 347.151C82.956 347.965 82.1372 352.035 81.7826 352.277C79.1742 352.979 79.1995 351.507 77.9586 350.736C77.5449 350.485 76.3969 350.398 76.304 350.268C76.2449 350.182 76.7936 348.805 75.9072 348.276H77.0891L76.2618 347.263C77.0215 344.934 77.4774 342.552 78.0852 340.171C78.4904 338.594 78.6592 337.269 79.2501 335.693C79.9677 333.788 82.4748 330.939 80.2294 329.441C76.8358 327.18 71.5007 331.069 70.7747 330.428C70.8929 328.116 69.1539 328.445 70.1247 326.531C71.2137 324.383 74.7423 321.56 76.8865 319.871C77.4183 319.455 78.4651 318.529 78.8618 318.26C84.5684 314.381 94.6224 313.307 101.207 315.203C102.296 315.515 101.536 316.606 103.098 315.913L103.165 316.658L104.145 315.948C104.634 316.208 104.989 316.676 105.529 316.866C109.741 318.304 115.507 320.503 119.863 319.404C120.589 319.222 122.471 318.338 123.611 318.035C128.845 316.641 130.086 314.251 133.581 309.548C134.264 308.63 136.231 308.319 135.168 306.924H136.366L135.953 305.937L136.67 305.643C136.121 304.508 139.456 299.987 139.498 299.373C139.718 296.454 140.596 295.094 141.246 292.193C141.761 289.907 142.174 289.102 141.473 286.556C141.398 286.27 140.165 285.949 140.705 284.633L140.283 285.395C139.709 285.196 139.287 284.979 138.637 285.092C138.359 285.135 133.935 287.5 133.673 287.716C133.007 288.27 133.285 288.868 133.142 288.998C132.711 289.37 131.344 289.05 130.997 289.232C130.322 289.578 130.736 290.877 129.444 289.942L129.081 290.643C126.152 290.712 122.395 291.674 119.289 290.998C117.406 290.591 112.189 287.387 111.624 285.438C111.176 283.888 111.86 284.971 110.94 283.325C110.653 282.814 109.142 280.329 109.184 280.026C110.214 278.753 109.648 277.636 110.788 276.657C110.889 276.57 111.252 276.865 111.379 276.804C111.506 276.744 111.48 276.094 112.215 275.878C113.008 275.652 113.827 275.687 114.629 275.704C114.646 276.467 114.545 278.155 114.975 278.718C115.321 279.168 115.963 278.805 116.301 278.969C116.866 279.246 116.25 280.13 118.276 279.316C118.639 279.168 118.563 278.58 118.765 278.597L119.762 278.943L119.365 277.731C123.864 277.307 123.442 273.531 124.438 270.171C125.088 267.971 127.182 265.217 128.186 262.221C128.313 261.84 128.186 261.467 128.06 261.112L129.25 261.095L128.836 260.116L129.647 259.683C129.123 258.194 127.443 258.41 126.236 257.7C124.683 256.773 124.903 254.21 123.316 253.595L124.109 253.188L122.969 252.002C123.425 250.209 123.332 248.286 124.725 246.892C125.063 246.554 125.477 246.875 125.603 246.78C125.84 246.615 125.899 245.818 126.304 245.706C127.984 245.221 128.516 248.997 129.014 249.196C131.588 249.49 133.842 249.533 136.113 248.053C137.565 247.109 137.497 246.052 137.97 244.779C138.097 244.433 138.73 244.467 138.73 244.233C138.747 243.619 138.266 243.212 138.485 242.025C138.57 241.54 140.089 238.249 140.376 238.059L141.094 238.397L141.524 236.232C141.288 234.551 133.133 235.53 131.175 235.314C127.334 234.898 123.611 233.426 119.888 232.49C119.601 232.421 119.272 232.612 118.993 232.707L118.597 231.269C116.385 232.005 116.376 230.473 115.304 229.641C115.169 229.537 114.722 229.762 114.401 229.511C114.013 229.208 113.945 228.455 113.743 228.316C113.557 228.186 113.008 228.524 112.62 228.437C108.07 227.398 102.895 229.555 98.2101 229.087C97.2815 228.992 97.4081 228.143 97.1464 227.996C96.8256 227.814 95.5341 227.874 95.0529 227.06L92.6724 230.065C93.0016 233.322 95.8211 236.361 94.4282 239.592C92.2756 240.033 91.9464 238.786 90.5957 238.024C90.0217 237.704 88.9834 237.79 88.5275 237.383C88.0463 236.95 88.232 236.102 88.1223 235.963C88.0717 235.902 87.9028 236.024 87.0249 235.599C85.7333 234.976 84.8301 234.586 83.4034 235.158C83.2346 235.417 84.4333 241.003 84.5937 241.315C84.8892 241.904 86.7294 242.605 86.8898 243.515C86.9489 243.852 86.0541 245.966 85.7586 246.277C84.3489 247.775 84.1632 246.217 83.9015 246.113C82.8125 245.688 80.6261 245.455 79.7313 244.874C79.0644 244.441 78.7436 241.722 76.0676 242.172C75.5611 242.605 74.5735 244.554 74.5144 245.074C74.0754 248.624 80.8203 256.739 71.9397 253.794L72.3449 252.582C69.9981 252.738 69.0189 249.3 67.0013 250.529C66.6805 251.352 66.613 252.235 66.613 253.101C66.613 253.422 66.7987 255.821 66.8325 255.959C66.8662 256.098 67.9721 257.025 67.9468 258.488L67.1955 259.06C69.289 258.566 68.9091 262.558 68.7234 264.091C68.4617 266.3 65.8617 267.798 65.6675 269.911C65.5325 271.374 68.0059 272.743 64.7812 274.25C64.3928 274.431 63.9708 274.094 63.7091 274.189C63.5993 274.232 63.7428 275.168 62.637 274.873C62.4259 274.812 62.8565 273.591 60.7798 274.501C59.8935 274.89 58.2558 275.73 57.0149 275.99C56.5168 276.094 55.3518 276.259 54.9889 276.025L54.5415 273.643L55.3265 274.059C54.5583 272.5 55.5291 272.959 55.6304 272.647C56.1032 271.106 56.5928 269.634 57.648 268.517L57.8253 263.217C56.6772 262.428 56.4493 260.679 55.4363 259.865C53.2077 258.09 49.3752 258.124 46.8089 257.891L46.4459 258.661L45.4582 257.449C45.6693 259.441 44.1413 259.25 43.5926 259.657C42.5037 260.471 40.2244 261.952 39.4394 262.714C38.8147 263.32 38.6458 264.256 38.2322 264.628C37.8186 265.001 37.0166 264.983 36.814 265.2C36.7043 265.321 37.4471 267.547 35.3452 267.555C35.9361 268.958 34.8555 268.724 34.7796 269.079C34.5939 269.902 35.1257 273.245 35.3367 274.189C35.6491 275.592 37.253 277.203 35.3198 278.502C34.138 279.298 33.336 277.835 33.0237 279.342C32.2808 278.935 31.4536 278.536 30.6432 278.32C29.6808 278.06 28.1107 277.887 27.2749 277.471C26.2535 276.96 25.2743 276.085 24.2022 275.601C23.7885 272.76 22.1255 270.257 21.847 267.373C21.771 266.611 22.497 260.541 22.7165 259.848C23.0204 258.852 24.9113 258.852 22.9106 258.046C23.358 256.643 23.9827 255.344 23.2652 253.855C21.3574 253.872 20.7411 251.499 18.5885 253.396L18.2002 252.591C18.2508 254.019 16.2417 253.517 15.33 253.829C14.8742 253.985 14.5196 255.578 13.0761 254.617L12.8566 255.855C11.5313 256.037 10.5774 258.531 9.21827 259.605L8.25593 264.299L6.90526 265.174C5.12408 264.905 5.14096 263.658 4.6429 262.532C4.53316 262.29 4.06043 262.342 4.00978 262.056C3.80718 260.956 4.60914 255.925 4.89615 254.686C4.92148 254.591 5.95136 254.851 5.12408 253.24C6.33967 252.383 6.23837 249.655 7.00656 248.226C7.26825 247.741 7.9267 247.706 7.91826 247.49C7.90982 247.057 7.38644 246.476 7.53839 245.94C7.67345 245.455 8.42476 245.429 8.59359 245.212C8.66957 245.108 8.42476 244.156 8.76243 243.541C9.50529 242.19 11.928 239.903 12.8566 238.405C13.1858 237.868 13.6586 237.617 13.4391 236.777L12.4599 237.591C12.0969 237.505 12.5527 237.028 11.6832 236.734C10.1975 236.231 5.73188 236.89 4.17861 237.314C4.05199 237.349 3.30068 238.63 1.98379 237.998C2.18639 238.388 2.73509 239.02 1.78119 238.812C0.61624 238.552 -0.51494 236.924 0.793514 236.171L0 235.773C0.211041 234.638 1.28313 234.872 1.48573 234.647C2.92081 233.019 4.38121 230.447 6.76176 228.905C7.83384 228.212 12.3417 225.995 13.4138 225.614C15.2963 224.947 17.4404 225.822 18.7827 224.618L18.9853 225.424L19.9645 224.584C21.1041 224.419 20.8086 225.233 21.4924 225.493C24.734 226.731 27.7646 227.736 31.0146 229.113C33.699 230.247 32.3568 230.143 33.0237 230.706C35.3283 232.664 40.8829 233.278 43.6264 233.668C44.6732 233.815 46.5219 235.062 46.8342 233.53C47.0115 234.283 50.8271 234.24 51.0044 234.118C51.2239 233.971 51.2577 233.391 51.4603 233.261C52.7856 232.395 53.9083 231.486 55.2168 230.169C56.7954 228.585 59.7499 225.484 61.1344 223.683C61.5649 223.12 62.7974 220.366 62.9409 220.236C63.2279 219.985 63.8863 220.236 64.0214 220.15C64.0636 220.124 63.7428 219.561 63.7682 219.223C63.9792 216.893 65.3636 215.438 65.8617 213.854C67.2714 209.411 68.0059 204.57 68.5208 199.946C68.6643 198.638 67.8117 196.308 69.1539 196.04L68.3182 195.598L68.715 194.394C67.3896 194.031 68.6052 193.312 67.7526 192.221C66.5117 190.636 64.587 191.562 63.6247 190.272C62.7298 189.068 62.3837 184.695 62.4682 183.145C62.5188 182.201 63.1519 180.893 63.1772 180.2C63.1772 180.019 62.5272 180.096 62.4344 179.741C62.2233 178.901 62.2571 177.36 61.0331 176.797C59.809 176.234 60.1974 177.524 59.8259 177.966C59.2012 178.694 58.0194 179.516 57.4032 180.174C57.1752 180.417 57.5129 181.066 56.8207 181.378C54.9213 182.253 52.8025 181.629 51.8064 179.759L51.7726 179.04C51.9161 178.59 52.7012 178.538 52.8362 178.33C52.9544 178.148 54.0012 174.597 54.1194 174.112C54.5921 172.103 54.2966 169.834 55.1746 168.068L52.9629 165.227C52.372 164.742 49.8901 168.431 49.2908 168.812C47.8726 169.704 45.6355 169.54 44.4537 171.116L44.0907 170.336L42.6978 170.7L41.516 167.652C41.4907 167.401 43.6855 166.18 43.8881 165.963C44.9855 164.759 47.2648 158.351 47.6277 156.532C47.8726 155.294 48.2102 152.523 47.4251 151.665L48.607 151.258C48.1427 151.172 47.1044 151.57 47.0031 150.972C46.9271 150.557 47.3238 149.916 46.6401 150.046C46.8005 151.024 45.4245 150.765 44.5972 151.301C43.0946 152.263 41.8452 154.116 39.701 154.142C39.0004 154.142 39.1523 153.467 39.0426 153.415C38.8316 153.311 38.3166 153.692 37.6751 153.397C35.9952 152.618 35.2776 151.198 34.9231 149.37C34.2309 145.776 38.1984 147.404 39.5407 145.724C39.642 145.603 40.9673 143.014 41.0011 142.858C41.1783 142.104 41.2037 138.259 41.3218 137.038C41.3894 136.319 42.7232 135.072 40.4946 134.839C39.5575 134.735 38.9244 135.878 38.629 135.982C37.7257 136.311 36.1556 135.852 35.075 136.276C34.5601 136.484 35.0244 137.601 32.7282 136.623C30.8458 135.817 31.825 132.994 32.8971 131.894C33.277 131.504 33.9692 131.79 34.3828 131.539C36.89 130.032 35.7757 130.119 36.2315 128.24C37.1179 124.62 37.7679 121.744 37.1348 117.899C37.0082 117.12 34.94 114.271 34.349 113.37C33.8763 112.643 33.2516 111.595 32.551 110.781C30.1198 107.983 28.0094 106.165 24.4132 108.72C23.3665 109.464 22.8346 110.928 22.1002 111.716C21.2898 112.582 17.6093 113.985 16.4274 114.167C13.819 114.574 9.68256 113.604 7.35267 112.296C6.94747 112.071 6.84617 111.378 6.60981 111.24C6.22993 111.014 5.56304 111.257 5.25914 111.014C3.61302 109.75 1.58703 106.433 2.3721 104.234L1.58703 104.649C1.44352 102.744 1.54482 101.125 2.41431 99.4099C3.77341 98.9423 4.1364 100.267 4.63446 100.579C7.04033 102.103 8.40788 103.013 11.4722 102.415C14.1229 101.895 13.8696 101.081 15.3385 100.198C17.7781 98.7431 21.5684 99.228 23.8139 97.7472C25.1983 96.8378 24.3457 94.7334 23.7041 93.573C23.5859 93.3651 21.9314 91.7284 21.8385 91.5552C21.6022 91.1048 21.8807 90.3687 21.6613 90.1003C21.5431 89.953 20.9268 90.1002 20.7073 89.9011C18.1664 87.71 14.2579 84.8522 10.8306 84.4019C8.78775 84.1334 5.59681 85.2592 3.72276 85.1207C1.19871 84.9301 2.43119 84.3326 2.26236 84.0382L1.62924 83.787C1.62924 82.5399 2.64223 81.8471 2.676 81.7259C3.09808 80.0458 2.63379 80.2796 3.55393 78.3917C3.84095 77.7942 4.20394 76.4865 4.63446 76.2094C5.21693 75.837 6.21305 76.3653 6.31435 76.244C6.39032 76.1488 6.23837 75.5252 6.48318 75.2048C6.99812 74.512 10.5689 72.702 11.0248 73.0917L11.2696 73.8278C12.5105 71.351 13.4644 73.3515 13.6248 73.3515C14.3761 73.3775 19.0359 73.1524 19.3905 72.7886C19.8716 72.0006 20.0573 70.3984 19.8547 69.4718C19.6184 68.3979 18.8417 68.294 18.6898 68.0255C18.4619 67.6185 18.7067 67.0036 18.4788 66.6226C18.1495 66.0597 16.5541 66.155 17.7865 64.0938C15.7943 63.9986 15.5157 61.5564 13.8949 60.4826C11.4384 58.8718 9.15074 58.4994 6.32279 58.4041L6.61825 57.6853L5.57993 56.4296C7.43709 54.8621 9.1423 53.5891 11.5651 53.0002C15.0683 52.1428 16.267 52.4459 19.3736 53.6843C23.4087 55.2951 22.7671 56.1178 25.4093 57.8412C25.9749 58.2136 27.5451 57.694 27.2834 58.8198H27.6717C27.7899 57.5554 29.1321 55.962 30.4406 55.9879L29.6555 55.3904L31.099 52.1428C31.1075 51.5799 29.3009 49.9951 28.997 49.4062C28.9042 49.2157 29.2925 48.7654 29.2503 48.7307C29.1574 48.6441 28.4652 48.7048 28.1191 48.4796C25.5106 46.7389 30.4828 45.6391 32.7282 46.9554C34.8302 48.1765 34.9653 51.424 37.5569 51.961C36.7971 53.5025 37.7341 53.0089 37.9114 53.4852C38.9244 56.1958 39.8868 59.8244 40.1822 62.6303C40.292 63.7128 39.3296 64.8473 40.714 65.1331L39.9796 65.3755L39.8783 75.4386L39.1355 75.8716C40.3004 76.4519 41.1783 76.8329 42.5037 76.5904C42.7147 76.5558 42.5796 75.9582 42.8835 75.9323C44.5465 75.8197 43.3732 75.837 44.1751 75.4992C44.6056 75.3174 45.2303 75.4213 45.7368 75.1615C47.2394 74.3908 48.3453 69.9135 48.7843 68.2074C49.0291 67.2375 49.3161 66.8478 49.3245 66.7525C49.3752 66.4061 48.8265 65.592 49.4089 64.9252H48.2187L48.5732 63.8947C46.9102 63.453 48.2693 61.5824 49.4427 61.8595C51.7051 62.3965 52.5745 65.3669 53.0557 67.3414C54.4064 72.8579 54.0687 78.2705 52.3129 83.2501C51.4856 85.6056 50.92 87.9179 49.0122 89.8404C47.3154 91.5465 44.6056 92.17 42.9004 94.1186C42.6472 94.4043 42.0056 94.465 41.9465 94.5516C41.8705 94.6641 42.2757 95.2097 42.2589 95.5561C42.242 96.0238 41.9296 96.7859 41.9718 96.8811C42.0816 97.1236 45.416 99.9382 45.9647 100.328C47.5349 101.428 49.7466 102.883 50.996 104.822C53.9252 109.404 53.52 110.893 53.7479 115.76C53.7479 115.89 55.0142 116.306 54.2038 117.96L55.7317 118.428L55.335 119.224C59.2266 119.363 61.6156 122.299 63.1097 125.641C63.6331 126.802 63.1604 128.075 64.6292 128.551C66.3429 126.499 69.3903 124.36 70.9858 122.368C71.028 122.307 71.104 121.476 71.391 120.948C71.6189 120.515 72.328 120.428 72.3533 120.186C72.4462 119.302 71.5851 118.609 71.5767 117.813C71.5767 117.328 72.4377 113.838 72.7332 113.344C73.189 112.599 74.2105 111.439 75.0209 111.032L74.7001 110.304C76.8358 110.521 76.3547 109.291 76.7852 108.789C78.0092 107.377 85.8853 105.013 87.945 104.987C88.7048 104.987 89.3717 105.351 90.1145 105.429L90.5197 98.4486C92.0308 97.1323 94.023 95.5388 95.9477 94.9673C99.7802 93.8155 104.499 93.3132 108.509 92.5078C112.713 91.6677 118.132 88.9052 121.239 86.6708C123.375 85.1293 125.78 81.7172 128.44 81.5094L128.093 80.3749C129.064 79.9332 129.773 79.1625 129.9 78.054C129.782 77.3352 128.456 77.3006 127.95 77.0234C127.646 76.8589 127.655 76.3393 127.376 76.2613C127.232 76.2267 124.573 76.4259 124.438 76.4692C123.754 76.6684 123.24 77.4045 122.514 77.6643C121.256 78.1233 119.145 77.6037 119.339 78.6689H118.554L118.166 77.8721C118.293 79.1885 116.951 79.4569 116.832 80.9725L114.106 83.4493C111.489 83.9689 108.306 83.8736 106.28 81.7519C105.698 81.1457 105.63 80.3576 105.259 79.9419C104.381 78.9893 103.646 77.9241 103.005 77.162C101.367 75.2048 99.8731 73.3948 97.2393 72.6154C97.3237 73.8625 96.5049 72.5721 96.2178 73.8452C95.188 73.9404 94.8672 72.754 94.7743 72.7107C93.9639 72.321 94.3607 73.4555 92.1912 71.7754C91.4145 71.1692 90.3931 71.1259 89.9035 69.7316C89.4139 68.3373 90.6717 66.3628 92.0899 67.0989C92.5879 67.3587 92.7905 68.3287 93.3055 68.727C93.6263 68.9782 96.0068 69.3938 96.2432 69.2986C96.4795 69.2033 96.3445 68.5711 96.6737 68.5452C96.9185 68.5278 97.3068 68.9522 97.5601 68.8742C97.6951 68.8309 98.8601 66.8737 99.0711 66.5533C99.375 66.0943 100.861 64.3363 100.987 64.1025C101.325 63.5049 100.008 62.535 101.587 63.0633C101.612 62.2752 102.845 60.8636 103.495 60.4826C103.925 60.2314 108.973 58.5167 109.277 58.5687C109.665 58.6379 109.927 59.2009 110.467 59.2268C110.763 59.2442 110.577 58.5687 110.856 58.4821C112.164 58.101 114.756 59.071 115.575 58.8025L115.811 59.6165L116.419 58.7852C117.609 59.8244 119.154 58.2482 119.947 57.183C120.386 56.5942 120.403 55.7974 120.775 55.1739C121.053 54.7062 121.982 55.018 121.728 54.1607C121.365 53.5631 120.943 53.6151 120.361 53.5371C111.548 52.3767 100.515 56.2391 91.499 56.5595C87.8268 56.6894 83.7833 55.9793 80.0859 56.3777L79.6469 55.5636L79.2501 56.3777C78.693 55.7888 77.8742 55.5982 77.1566 55.3125C73.0624 53.6843 69.7702 51.0343 67.6682 46.7476C67.3643 46.1327 67.5585 45.284 67.3643 45.0155C67.1702 44.7471 66.5624 44.7038 66.4864 44.5739C66.3682 44.3747 66.9591 41.7247 67.0013 41.1964C67.2208 38.1827 67.0435 37.6371 68.639 35.2036C68.7487 35.0391 68.3773 34.3462 68.9935 34.0864L71.9059 35.576C70.7072 41.1704 70.4962 43.2749 75.2066 46.6696C75.4598 46.8515 75.5105 47.3798 75.578 47.4057C75.9157 47.5443 76.304 47.1113 76.4897 47.1286C76.7008 47.1459 79.5456 48.6008 80.0183 48.7567C84.3742 50.1683 90.5535 48.7567 94.7828 48.012C95.973 47.8041 97.3659 48.1592 98.6068 47.4404L98.8348 48.2631H99.6114L99.8562 47.4577C105.512 47.6569 111.936 45.9422 117.415 44.0023C117.803 43.8637 118.225 44.1755 118.495 44.0802C118.571 44.0543 118.841 43.0324 119.762 43.3961L119.778 42.201L111.708 40.5642L110.653 42.5734L109.741 42.201C109.286 43.4914 108.906 42.6513 108.298 42.8505C107.065 43.2489 104.651 44.9116 104.584 43.4134C103.275 44.8164 99.8562 43.0324 98.8854 41.9412C98.0834 41.0319 97.8049 38.2693 97.6445 36.9356C97.4503 36.8317 93.6685 38.0874 93.4152 38.2693C92.9678 38.5984 92.4951 39.9667 91.9717 40.469C91.3386 41.0838 91.7353 40.0619 91.0684 41.3869C89.9204 43.6386 87.7255 40.9106 87.5483 39.144C87.5314 38.9448 87.9366 38.6244 87.945 38.3646C88.0126 34.5887 90.1821 25.383 92.4951 22.5338C94.1074 20.5506 94.6899 20.9144 96.5724 20.2822C96.9269 20.1609 96.8341 19.4595 97.0536 19.4681C97.5685 19.5028 97.9062 20.0917 98.2185 20.109C98.9783 20.1523 99.9406 19.65 100.776 19.9271L100.802 21.1135L101.747 20.7065C102.245 21.8583 103.798 21.6245 104.845 21.9622C105.208 22.0748 105.158 22.5771 105.335 22.6291C107.099 23.166 106.956 22.1268 107.673 21.8497C108.602 21.4946 110.729 21.9103 111.902 21.6765C113.456 21.3647 119.356 18.1258 120.049 16.7142C120.648 15.4931 120.327 14.0815 121.745 13.2068L120.96 12.999C121.838 12.107 121.56 10.9465 121.078 9.85536C120.876 9.38771 120.361 9.46566 120.201 9.04997C118.63 5.04032 122.446 7.11876 123.138 6.86761C123.358 6.78967 123.299 6.12284 123.577 6.0882C124.143 6.01892 128.347 6.58183 128.963 6.95421C129.647 7.36124 128.701 8.36582 130.44 6.92823C130.204 7.70765 132.179 8.24458 132.821 8.38314C133.547 8.53902 135.345 8.1753 135.851 7.62971C136.552 6.87627 137.194 5.28281 138.519 4.46875C141.988 2.36434 143.339 8.09735 145.585 8.03673C147.146 7.99343 150.337 4.78918 151.612 3.67202C152.051 3.6547 154.507 4.66794 154.811 4.98836C155.368 5.56859 155.098 6.55585 155.47 7.1967C155.537 7.31794 157.04 9.24915 157.141 9.34441C157.217 9.42236 158.981 10.1758 159.083 10.1844C159.37 10.1844 159.226 9.5869 159.488 9.46566C163.337 7.72497 164.469 8.68624 168.031 8.3052C169.534 8.14065 170.437 6.70307 171.34 8.94605L172.505 7.71631C176.743 9.47432 181.858 8.98935 186.383 10.1325L186.721 9.39638C187.717 9.95928 191.465 8.88543 192.385 8.3918C193.119 7.99343 193.373 6.33934 195.154 6.18346C196.8 6.03624 196.167 8.25324 197.982 7.34392C198.463 9.24049 199.248 10.1844 198.59 12.1676C199.282 14.9129 198.134 18.0219 196.201 20.8278C195.492 21.867 194.318 23.2353 193.702 24.6902C191.659 29.5052 193.136 32.3371 197.458 34.6753C197.695 34.8052 197.518 35.5846 198.598 35.3162L225.08 19.0871L225.468 19.9011C226.506 17.6235 228.448 17.918 230.094 17.026C232.466 15.7443 234.847 14.2547 237.058 13.051C242.089 10.297 249.13 6.53853 254.423 4.53803C258.753 2.90127 262.78 1.97463 267.068 0.476428C267.955 0.164662 269.314 -0.242364 270.217 0.147342L270.2 0.164662ZM193.153 16.6103C193.229 16.4284 193.136 12.8085 193.077 12.6179C192.36 10.3577 189.329 12.0377 187.447 12.055C185.446 12.081 182.736 11.6394 180.812 11.6307C173.518 11.6047 163.008 10.6694 157.082 15.0601C156.263 15.6663 155.672 15.0601 155.495 16.6969C152.76 16.2292 149.983 15.8655 147.264 15.4152C143.905 14.8523 139.22 14.4106 135.64 13.0596C134.323 12.5573 131.994 12.4967 130.601 12.7045C130.364 12.7392 130.432 13.3021 130.356 13.3367C130.069 13.4493 129.697 12.973 129.318 13.1029C128.988 13.2155 128.423 14.8263 128.321 14.9302C128.068 15.19 127.232 15.1987 126.642 16.03C123.375 20.6286 122.606 20.8537 117.347 22.6204C116.562 22.8802 113.118 24.3698 112.806 24.3091C112.257 24.1966 112.502 23.0448 111.852 23.1747C112.147 24.4477 110.704 24.9933 109.691 25.1059C107.42 25.357 104.254 25.1059 101.924 25.4263C101.654 25.4609 97.2393 27.2449 96.8594 27.4528C94.6139 28.7258 92.8581 34.9958 97.3997 33.3157L103.157 35.3335L102.363 39.7848C102.608 40.1745 106.339 40.2265 106.728 39.9667C107.943 39.1526 107.192 36.8577 107.572 36.1995C108.028 35.4114 112.181 35.1776 113.253 34.8745L114.224 35.7319C113.616 35.143 115.811 34.684 116.005 34.6927C116.638 34.7273 116.993 35.4201 117.592 35.524C120.201 35.957 120.479 35.8791 122.809 36.875C123.29 37.0829 124.21 36.7884 124.455 37.0222C124.59 37.1521 124.388 37.8103 124.582 38.0528C124.751 38.252 127.013 39.144 127.511 39.5337C128.541 40.3391 133.251 45.4226 133.699 46.3752C135.193 49.5968 134.72 52.6538 133.142 55.7455C130.938 60.0582 126.996 62.076 122.522 63.1066C121.121 63.427 118.892 63.9293 117.913 64.1198C115.06 64.6827 108.728 63.4876 106.187 64.1458C105.909 64.2151 105.909 64.752 105.613 64.8819C104.676 65.3149 103.697 65.6873 102.769 66.1463L103.554 66.5533C103.208 67.3587 102.363 69.2553 102.321 70.0001C102.262 71.0306 102.769 71.3597 103.013 72.1218C103.098 72.3903 102.769 72.8666 102.845 72.9791C102.946 73.135 103.655 73.2043 103.976 73.6287C104.44 74.2782 105.039 75.8803 105.529 76.4865C105.799 76.8156 108.956 79.7514 109.184 79.8466C109.632 80.0458 110.062 79.6301 110.459 79.7167C111.413 79.9332 112.384 80.7733 113.65 79.9592C114.249 78.7641 113.143 74.6765 113.439 73.2996C113.506 72.9965 114.08 73.0138 114.106 72.9445C114.215 72.6154 113.717 72.243 114.19 71.5935C114.629 70.9873 116.132 70.0087 116.891 69.8961C119.686 69.4891 118.554 69.7229 118.977 71.1086C119.095 71.4983 119.795 71.377 119.778 71.6108C119.728 72.3383 118.411 72.9185 119.88 74.1223C121.349 75.326 123.324 74.0703 124.345 72.8492C124.725 72.3903 126.017 69.6363 126.177 69.4978C126.785 68.9695 128.229 69.186 128.955 68.9435C129.309 68.8223 129.267 68.1468 129.453 68.1381C131.825 68.0255 131.926 71.377 129.63 71.6108C129.951 72.1564 129.858 73.3515 130.128 73.7326C130.677 74.5207 134.011 74.8411 134.695 74.1223C134.855 73.9577 134.729 73.3256 134.897 73.1697C137.371 70.7795 135.953 71.1865 136.586 70.1819C136.645 70.0867 138.105 68.6664 138.207 68.6231C138.384 68.5625 141.718 68.2767 141.887 68.3373C143.035 68.7876 142.123 70.1992 142.284 71.0999C142.478 72.2171 145.027 72.6501 146.032 72.3903C146.817 72.1824 149.155 69.9568 149.231 69.1514C149.24 69.0561 148.851 67.4193 148.809 67.3414C148.235 66.2935 146.243 66.4494 147.332 63.7907C148.05 62.0501 149.409 62.3272 150.354 61.6084C151.19 60.9675 153.461 58.6639 154.018 57.8672C154.626 57.0012 156.035 54.2732 156.044 53.2773C156.044 52.775 155.605 52.4806 155.487 52.0303C155.411 51.7358 155.715 51.2941 155.647 51.1729C154.794 49.744 152.895 51.2595 152.059 51.043C148.97 48.9126 153.427 47.475 153.756 46.7476C154.98 44.0543 152.709 42.66 153.106 41.361C153.663 39.5423 155.748 40.8847 156.694 41.8026C156.804 41.9152 158.365 44.1582 158.424 44.3054C158.576 44.6865 158.087 45.0415 158.188 45.3706C158.213 45.4399 158.737 45.4052 158.796 45.6218C159.209 47.2066 158.078 47.1113 158.087 47.2585C158.12 48.7134 161.033 51.017 158.897 52.5239C158.762 52.8703 159.547 52.5585 159.674 52.9742C159.733 53.1821 158.956 57.0618 158.872 57.2783C158.585 58.0577 156.196 59.9197 156.93 60.8203C155.098 60.5259 156.229 61.4092 155.774 61.8335C155.352 62.2319 154.431 62.2752 154.22 62.5004C154.128 62.5956 153.976 65.0378 154.026 65.185C154.17 65.592 154.718 65.6353 154.82 65.8172C155.039 66.2242 154.904 66.8045 155.166 67.3068C155.326 67.6099 155.926 67.6358 156.035 67.7917C156.179 67.9909 156.356 72.1564 155.343 72.3816L156.128 72.78L153.072 75.4126C151.713 75.3174 149.788 75.1702 148.488 75.4213C148.185 75.4819 148.261 76.0189 148.024 76.1228C147.788 76.2267 147.298 75.9063 146.657 76.4086C146.462 76.5558 144.2 78.92 144.006 79.1885C143.786 79.4916 143.989 80.1671 143.736 80.5308C142.833 81.8298 140.562 85.6143 139.608 86.3158C139.329 86.5236 138.679 86.5236 138.24 86.7574C137.996 86.8873 138.046 87.355 137.413 87.6234C134.231 88.9831 129.723 88.5328 126.988 91.3127C126.701 93.2352 128.144 94.3177 128.473 96.0844C129.934 95.1145 129.52 96.2923 129.925 96.4914C130.837 96.9418 133.724 97.2708 132.297 98.8037C130.558 100.674 125.89 99.9295 123.898 100.709C122.438 101.28 121.425 104.545 121.847 106.026C122.058 106.771 122.421 105.429 122.193 108.07C122.184 108.174 123.501 108.564 123.273 109.612C122.218 111.066 121.138 111.465 119.559 111.881C119.128 111.993 118.63 111.543 118.377 111.543C118.259 111.543 117.752 112.695 116.385 112.66L115.836 111.889C115.811 112.21 115.701 112.747 115.456 112.92C115.321 113.015 113.169 113.24 112.603 113.535C111.902 113.898 110.467 115.431 109.8 115.804C109.623 115.899 109.167 115.509 109.134 115.552C109.049 115.665 109.21 116.185 109.066 116.401C108.492 117.258 108.222 117.276 108.323 118.783L107.538 118.376C107.378 119.666 107.589 121.008 108.517 121.944L113.059 122.03C113.354 122.463 111.185 125.139 111.008 125.208C110.813 125.278 109.134 125.364 108.484 125.633C108.18 125.754 103.9 129.157 103.739 129.426C103.435 129.92 103.604 131.34 103.469 131.643C103.385 131.825 101.401 134.024 101.241 134.25C101.528 135.54 100.447 136.657 101.148 138.467C99.2146 139.247 101.055 139.402 101.241 139.74C101.587 140.364 101.536 141.81 102.228 142.702C102.541 143.109 103.089 142.78 103.41 143.074C103.798 143.429 103.891 144.304 104.212 144.339C106.804 144.59 105.892 140.779 107.969 140.009L107.53 138.649C109.395 138.987 108.568 137.731 108.821 137.237C110.18 134.57 113.354 137.116 112.35 140.502C112.223 140.944 111.067 142.009 110.83 142.39C110.721 142.572 111.143 143.109 110.906 143.49C110.552 144.07 107.707 146.859 107.023 147.578C106.534 148.097 107.074 149.145 105.554 148.781L105.959 149.587C104.415 149.665 103.241 150.539 101.629 151.033C100.38 151.414 97.6529 151.683 96.5639 152.167C96.4373 152.228 94.3185 153.666 94.2172 153.77C94.0061 153.977 94.1328 154.549 93.9808 154.714C93.5081 155.233 92.9594 155.294 92.3685 156.125C91.1697 157.805 87.1262 169.401 86.8392 171.419C86.7294 172.198 87.16 173.012 87.008 173.662C86.9236 174.026 86.2314 173.896 86.2061 173.93C86.0625 174.156 86.7632 174.502 86.8138 174.909C86.9236 175.766 86.2398 178.581 86.2229 179.802C86.1638 184.963 87.5567 185.942 89.7262 189.995L90.5366 192.558H84.2138V194.186L83.4288 193.771C83.7411 194.689 83.4541 195.849 83.0151 196.698C82.1625 198.335 82.1541 197.893 81.656 199.842C80.4404 204.587 78.7605 208.935 76.2871 213.325C76.1183 213.62 75.8397 213.706 75.5274 213.646L76.3124 214.243C74.8098 214.616 75.3417 216.382 74.6241 217.179C74.278 217.56 73.5351 217.439 73.2397 217.785C73.0202 218.045 72.6403 219.604 72.0663 220.427C69.441 224.185 65.9799 228.42 62.4597 230.819C60.1636 232.378 58.1038 233.036 56.8123 235.53C56.5421 236.05 56.6097 236.794 56.0863 237.686C55.7739 238.223 54.1785 240.388 53.596 240.44C52.4733 240.241 51.1732 240.362 50.1096 240.232C49.1219 240.12 46.4712 238.977 46.0745 238.925C45.6355 238.873 43.7615 239.765 42.6219 239.522C39.4562 238.847 33.4711 235.66 30.3393 233.85C29.588 233.417 29.1574 232.508 28.4737 232.109C27.2581 231.399 21.8807 228.948 20.6989 228.723C18.7404 228.351 17.2969 229.494 15.4651 229.858C15.3131 231.529 17.3729 231.555 17.0521 233.097L18.2339 232.69C17.5755 234.058 18.7489 233.633 19.4495 234.118C19.821 234.378 19.3989 234.984 19.5002 235.062C19.6353 235.175 21.2561 235.773 21.6022 235.92L21.3996 237.141L22.1846 236.725V237.955L22.9697 237.539L24.16 240.181C23.0288 240.241 22.1087 241.774 21.2307 242.077C20.5554 242.311 19.5677 242.051 19.4918 242.103C19.3398 242.207 19.2469 242.874 18.7827 243.16C18.006 243.636 16.4865 244.164 15.98 244.571C15.4735 244.978 14.9839 247.187 15.119 247.819C15.1865 248.165 16.2755 249.014 16.8158 248.901C17.8541 248.676 17.8034 247.646 19.019 248.893C18.9177 247.49 19.8294 248.434 20.5892 248.321C22.8178 247.983 25.2996 247.446 27.5282 247.308C28.8029 247.23 30.373 248.234 30.7023 246.849C33.0237 247.646 35.1763 246.754 37.1939 248.494C36.4679 251.43 34.712 250.685 33.0153 251.482C32.8802 251.551 30.6094 252.876 30.525 253.006C29.4529 254.565 28.3892 255.353 27.4269 256.704C26.7262 257.691 25.8568 260.038 25.5191 261C25.3418 261.502 24.2275 264.152 24.2697 264.49C24.3204 264.923 24.9873 265.148 25.1223 265.477C25.2996 265.91 24.8269 266.438 25.021 267.027C25.0632 267.157 26.9795 268.69 27.3003 268.343L28.0347 266.932L27.697 265.918L28.8451 265.884C28.3892 264.585 30.2548 263.294 30.7191 262.576C31.2594 261.753 32.4328 258.999 32.9646 258.35C33.1841 258.081 37.7932 254.045 38.0971 253.89C39.0848 253.37 40.0472 253.855 40.4861 253.725C40.7816 253.638 40.7056 252.998 41.0179 252.937C42.5121 252.608 48.0498 253.214 48.8349 254.167C53.1401 252.625 58.1882 252.833 61.2272 248.624C61.5227 248.217 62.2487 246.615 62.4513 246.147C63.5234 243.705 63.1604 243.194 66.4188 242.571C67.4403 242.372 70.4286 242.805 70.7747 242.605C72.6825 241.471 71.8131 237.427 73.5436 235.703C75.004 234.248 80.1196 232.776 80.5502 232.161C81.2592 231.131 80.9891 229.061 81.1495 228.732C81.2086 228.619 81.6898 228.55 81.8417 228.325C82.095 227.926 82.5846 226.783 82.7365 226.697C82.9223 226.584 86.3074 225.744 86.9742 225.571C87.5061 225.432 88.1139 225.813 88.6626 225.692C89.1015 225.597 91.4399 224.35 91.7691 223.977L91.9886 223.155C90.6379 220.098 91.8957 217.534 95.3906 218.192C97.1633 218.522 99.4426 219.682 101.013 220.548C101.629 220.894 102.068 220.323 102.591 221.734C103.832 220.756 105.512 219.301 104.997 217.655C104.575 216.313 102.152 215.733 101.545 214.538L100.43 214.85C101.367 213.776 99.7211 211.741 99.738 211.394C99.7549 211.074 100.92 210.416 100.633 209.576L101.004 209.255C101.393 209.385 101.781 209.593 102.203 209.576C103.148 209.532 107.656 209.87 108.458 210.13C109.184 210.364 109.665 211.186 110.51 211.186C111.489 211.186 113.118 209.939 113.042 208.969C113.017 208.675 112.265 208.545 112.037 208.233C109.665 204.873 108.847 206.042 106.871 204.18C106.736 204.05 105.428 201.357 105.394 201.097C105.301 200.534 106.424 199.036 106.753 198.863C107.977 198.205 112.991 200.075 114.671 199.859L114.275 200.664C116.832 201.348 120.547 200.82 119.702 197.33C119.171 195.122 118.099 196.291 116.579 195.693C114.57 194.905 112.502 193.234 112.308 190.939C113.126 190.974 113.895 190.991 114.697 190.748C115.946 190.376 117.752 188.878 118.732 188.393C122.944 186.297 126.92 184.73 128.718 179.993C129.672 177.481 129.613 174.814 130.905 172.493L130.128 172.12C130.525 171.125 130.111 166.335 129.807 165.504C129.453 164.543 127.908 163.971 128.085 162.568C127.258 163.114 126.346 162.274 125.958 162.309C125.553 162.343 125.13 163.097 124.371 162.984C124.168 162.958 124.185 162.283 124.101 162.248C123.974 162.187 122.725 162.369 121.906 161.564C121.163 160.836 120.783 160.525 121.011 159.312C121.999 160.014 122.497 159.139 123.273 158.983C123.746 158.888 124.329 159.321 124.497 159.234C124.877 159.035 126.135 157.45 125.342 156.887H126.532C125.519 154.991 126.574 155.528 127.08 154.817C127.334 154.471 127.224 153.848 127.57 153.588C128.068 153.224 129.014 154.047 129.486 152.427H130.06C131.352 153.934 130.533 154.93 130.862 156.671C129.731 156.272 129.63 157.199 130.829 157.459C129.824 159.858 130.474 159.598 131.664 160.732C132.086 161.131 132.002 162.101 133.42 161.642C133.648 161.572 133.564 161.165 133.952 160.975C134.231 160.845 134.754 161.009 135.075 160.793C136.02 160.161 135.801 159.425 136.147 158.628C136.189 158.524 136.966 157.286 137.008 157.182C137.219 156.688 136.966 155.64 138.181 155.64C139.903 155.64 140.14 159.728 140.452 160.741C141.659 164.638 143.744 179.464 142.183 183.067C141.988 183.517 141.355 183.5 141.22 183.838C140.731 185.076 141.499 189.19 140.773 190.904C141.693 190.558 142.005 191.701 142.216 191.753C145.829 192.532 146.935 188.488 148.936 186.358C150.498 180.642 151.722 174.511 151.603 168.44C151.57 166.803 151.139 165.132 151.156 163.755C151.181 160.602 151.89 157.71 154.6 161.148C156.609 163.703 156.922 169.444 157.867 172.605C157.901 172.709 158.694 173.238 159.007 174.329C160.552 179.646 161.396 188.358 161.067 194.135C160.982 195.65 160.568 199.426 159.691 200.093L160.138 201.652L159.302 202.093L160.493 202.301C158.686 204.016 161.328 205.228 162.746 204.44C163.987 203.756 164.789 201.331 166.427 201.478C165.541 200.335 167.423 199.028 167.946 197.98C172.007 189.83 172.978 178.823 172.902 169.687C172.885 168.145 172.851 166.232 172.387 164.768L173.147 164.396C171.855 164.144 172.488 161.876 172.758 160.776C171.517 160.845 172.429 157.545 172.252 157.372L171.568 157.303V156.498L172.353 156.29C172.387 156.056 170.791 156.065 171.559 155.276C171.703 155.129 172.505 155.597 172.345 154.878C171.247 154.991 171.365 153.544 171.137 152.696C172.235 151.553 173.189 152.332 174.311 152.895L173.932 154.064C175.662 153.683 175.35 155.536 175.958 156.567C177.258 158.767 179.022 161.572 180.069 163.781C180.55 164.794 180.474 166.5 180.744 166.95C181.369 168.016 182.652 169.41 183.378 171.021C186.932 178.884 187.995 187.934 190.131 196.031C190.258 196.395 189.49 196.083 189.422 196.421C189.219 197.391 189.903 201.253 189.988 202.587C190.199 206.016 188.544 208.744 193.702 206.77C192.765 205.202 193.845 205.739 194.242 205.124C195.618 202.977 196.69 200.595 197.56 198.603C197.872 197.876 198.294 189.415 198.455 187.969C198.488 187.674 199.105 187.769 199.155 187.527C199.265 187.068 198.674 185.786 198.657 185.267C198.497 181.837 199.029 177.559 197.256 174.545L198.041 174.147C196.834 173.393 197.577 172.805 197.577 172.103C197.577 171.861 196.977 171.982 196.893 171.653C196.547 170.302 196.53 168.301 196.057 166.881L196.842 166.24C194.723 166.639 195.855 164.023 195.23 162.499C195.053 162.075 194.445 162.153 194.259 161.399C194.082 160.698 194.495 159.511 194.394 159.139C194.36 159.018 193.212 158.039 192.824 157.182C191.828 154.999 191.997 154.263 190.587 152.193C189.177 150.124 187.548 148.097 186.467 145.854C186.231 145.361 186.096 144.902 186.172 144.339C188.502 143.836 189.599 145.88 190.958 146.928C191.558 147.396 193.136 147.759 193.508 148.4C193.736 148.807 193.297 149.336 193.39 149.526C193.677 150.098 195.449 150.842 195.669 151.094C197.29 152.895 200.877 158.411 201.949 160.473C202.093 160.75 201.831 161.434 202.042 161.711C202.127 161.815 203.942 162.369 204.296 163.062C204.533 163.53 203.756 163.045 204.887 164.664C208.171 169.358 209.986 174.45 211.784 179.871C212.054 180.694 213.05 180.079 212.214 181.785C214.325 183.11 213.641 187.224 214.224 189.458C214.257 189.588 215.54 190.835 215.768 191.285C216.705 193.139 217.946 196.888 219.753 198.075C220.158 198.335 221.855 197.148 221.931 197.053C222.378 196.473 222.319 192.732 222.809 191.381C223.087 190.601 224.134 188.601 224.641 187.882C224.86 187.561 225.527 187.492 225.586 187.154C225.637 186.834 225.105 185.899 225.299 185.708C225.375 185.63 226.084 185.847 226.38 185.63C227.021 185.163 226.38 183.621 227.587 184.392C229.03 182.772 230.254 180.469 230.229 178.2C230.212 176.632 229.258 176.823 228.794 175.801C228.507 175.152 228.794 174.623 228.701 174.459C228.254 173.584 226.852 172.969 227.215 171.558L226.093 171.497C226.422 170.319 226.253 168.89 224.928 168.622C225.763 166.959 223.433 167.418 224.1 165.036L223.315 165.443C223.315 164.248 222.336 162.499 221.686 161.313C221.154 160.351 221.188 159.832 221.146 159.754C220.918 159.364 219.939 159.277 219.812 158.715C219.728 158.351 220.302 157.667 220.107 157.398C219.609 156.731 218.343 156.073 217.997 155.701C217.482 155.155 216.123 151.708 215.279 150.6C214.527 149.613 212.518 148.071 212.265 147.318C212.13 146.919 212.282 146.417 212.248 145.984C210.399 147.023 211.32 145.646 210.687 144.564C209.311 142.208 206.609 139.619 204.946 138.311C203.866 137.463 203.612 136.207 202.625 135.202C200.936 133.488 197.281 131.756 196.834 129.357C196.673 129.192 195.821 129.764 195.492 129.764C195.289 129.764 192.832 127.443 192.377 127.105C192.191 126.966 191.693 127.278 191.296 126.767C190.671 125.962 190.579 125.018 190.925 124.091C191.431 124.386 192.461 124.022 192.773 124.187C192.892 124.247 192.934 124.767 193.17 124.879C194.858 125.693 196.437 126.655 197.821 127.2C198.801 127.581 200.362 127.278 199.991 128.95L200.388 128.144C201.384 127.807 201.08 128.647 201.308 128.794C202.321 129.461 204.119 130.136 204.853 130.604C205.833 131.236 206.609 132.379 207.875 132.63L207.504 133.817C208.483 133.228 209.935 134.076 210.813 134.691C211.48 135.159 213.075 137.445 213.413 137.644C213.658 137.792 214.173 137.445 214.595 137.679C214.95 137.878 215.988 139.506 216.393 139.896L216.781 139.091C217.136 139.385 217.161 139.887 217.516 140.191C219.027 141.464 220.943 143.222 222.344 144.512C224.328 146.348 229.039 150.08 230.153 152.081C230.288 152.323 230.043 152.808 230.069 152.843C230.339 153.129 231.377 152.886 231.639 153.085C231.74 153.163 232.238 154.705 232.804 155.389C233.791 156.558 236.577 159.399 238.054 158.896C239.042 158.039 238.536 156.065 238.831 154.419C239.101 152.938 239.971 149.925 240.756 148.686C240.916 148.426 244.09 144.936 244.318 144.815C244.63 144.65 245.128 145.196 245.373 145.109C245.483 145.066 246.918 143.395 246.977 143.291C247.56 142.295 246.749 141.057 246.023 140.312C244.428 138.675 241.363 137.056 239.582 135.895C230.187 129.746 220.884 123.424 210.754 118.947C210.163 118.687 209.218 116.99 207.918 117.57C207.977 115.639 207.723 116.843 206.677 116.635C205.976 116.496 206.01 115.778 205.596 115.613C203.959 114.946 201.46 114.279 199.679 113.595C198.801 113.257 195.331 112.66 195.323 111.742L196.066 109.949C197.695 110.148 199.273 109.845 200.894 109.75C210.855 109.179 216.764 110.607 225.949 113.413C226.236 113.5 226.785 113.119 226.827 113.162L227.443 114.764L227.637 113.959H228.422C228.262 115.197 229.022 114.305 229.908 114.617C234.357 116.176 237.81 118.48 241.954 119.77C242.647 119.986 243.432 119.597 243.837 119.813C244.521 120.177 244.335 121.233 245.019 121.251L245.213 120.047C247.467 121.147 245.888 118.852 245.838 118.185C245.702 116.418 246.234 112.045 247.205 110.711C247.509 110.296 248.201 110.417 248.446 110.174C248.969 109.655 250.767 107.325 251.265 107.1C252.54 106.511 254.178 106.589 255.402 106.225C255.782 106.113 255.562 105.117 256.888 105.654L257.284 105.23C256.567 104.563 257.006 102.683 256.896 102.605C256.736 102.502 255.258 102.476 254.659 102.268C254.347 102.155 252.886 101.107 252.751 101.073C248.505 99.9642 240.747 99.2713 236.146 98.7691C233.918 98.5266 230.938 99.1934 229.022 97.7385L228.617 98.5872C227.806 98.3793 227.08 97.8771 226.228 97.7818C218.655 96.9331 209.496 96.3009 201.814 96.682C200.32 96.7599 197.534 98.2235 196.429 96.5347C197.872 96.7253 196.665 95.9372 196.876 95.3916C196.901 95.3137 197.957 94.3697 198.024 94.3351C198.868 93.9107 199.999 94.2658 200.582 93.2872L201.164 94.0926L203.342 91.6677L203.731 92.4731C205.351 90.3427 207.251 90.5592 209.454 89.7365C211.125 89.113 213.143 88.1084 214.477 87.6148C216.461 86.8873 218.124 87.2164 219.542 85.5797L220.124 86.385C220.217 84.8002 221.095 85.597 222.007 85.3112C227.477 83.5965 233.082 81.4834 238.35 80.4788C243.668 79.4569 248.058 79.1625 253.393 78.4524C255.731 78.1406 258.112 77.5257 260.458 77.2659C261.902 73.8452 258.593 69.7316 262.214 66.9257L262.797 67.7311C262.814 67.3414 262.788 66.8304 262.999 66.51C263.624 65.592 268.909 63.4703 270.192 63.02C270.555 62.8901 272.361 63.505 272.218 61.9288C272.049 60.0409 269.753 59.3827 268.123 59.4C265.287 59.4174 261.522 60.2834 258.643 60.9329C258.272 61.0195 257.706 61.1581 257.048 61.3053C254.296 61.9115 251.544 62.6563 248.792 63.3058L248.184 62.4744C248.159 62.9074 248.395 63.4357 247.923 63.7215C247.661 63.886 243.955 64.1804 243.119 64.3883C242.174 64.6221 241.085 65.4188 240.038 65.6527C238.493 65.9991 236.763 66.0597 235.716 66.1723L235.53 66.9257L234.754 66.1203C234.281 67.887 230.668 67.6532 229.216 68.0255C228.11 68.3113 227.494 69.3679 227.376 69.3765C226.776 69.4371 226.093 68.8742 225.51 68.9349C225.223 68.9608 221.466 70.8574 220.546 71.1519C220.192 71.2644 219.626 70.8834 219.424 71.0739L219.331 71.7927C218.115 72.1738 218.951 71.0393 218.157 70.9873C218.512 72.8839 217.026 72.1305 215.996 72.4336C211.868 73.6373 207.572 75.6725 204.009 77.5777C203.84 77.6643 203.815 78.2705 203.351 78.5043C202.371 79.0066 201.283 78.7641 200.227 78.6775L199.957 77.6729C203.731 74.6419 207.918 72.269 212.122 69.8702C216.258 67.5059 220.977 65.3322 224.708 62.9334C242.208 51.7272 259.175 40.9193 275.206 27.7472C275.78 27.2709 277.409 26.6907 277.806 25.9892C276.472 26.5435 275.054 25.9632 274.092 25.9892C273.864 25.9892 273.898 26.6301 273.56 26.7686C272.344 27.2709 271.222 26.4049 270.867 27.6173L269.913 27.2016V28.4314C269.457 28.3015 269.162 28.007 268.638 28.1023C267.575 28.3015 264.679 29.8343 263.286 30.3193C259.884 31.4971 256.398 32.5709 252.92 33.9912C249.695 35.3075 246.513 37.5592 243.035 37.7583L243.432 38.5637C241.701 38.5811 240.182 39.5077 238.611 40.2265C232.466 43.0324 226.683 46.0374 220.808 49.1378C220.378 49.3629 219.424 50.4368 219.061 50.6446C216.064 52.3593 212.307 54.4205 209.049 55.1912L209.395 55.936C207.631 56.6721 206.06 57.7806 204.397 58.7245C203.697 59.1229 202.718 59.1576 202.034 59.5473C201.299 59.9716 200.202 61.7902 199.881 61.9634C199.771 62.0241 198.716 61.7296 197.906 62.102C196.724 62.6389 191.701 68.0688 190.68 69.3679C190.325 69.8095 190.19 70.4244 190.055 70.97L189.312 70.5889C188.78 72.5288 187.759 74.3301 187.185 76.2613C186.864 77.3525 187.117 77.2053 186.552 78.6082C185.184 82.0203 187.025 94.794 184.669 99.2713C184.298 99.9815 183.8 99.739 183.775 99.7823C183.623 100.042 184.56 100.406 184.484 101.116C184.458 101.358 184.045 101.688 184.002 102.008C182.812 110.703 179.52 119.805 176.16 126.629C174.666 129.66 173.974 132.769 171.357 135.471C170.471 136.38 168.512 136.536 168.765 138.285L167.583 137.471L167.955 139.039C166.005 140.104 163.481 141.377 162.02 142.892C159.412 144.33 157.268 144.417 154.339 144.356C151.156 144.295 149.409 144.945 146.665 142.91C143.922 140.875 143.567 138.484 143.474 135.436L142.689 135.852C143.111 133.254 142.63 130.638 143.111 128.049C143.17 127.737 143.77 127.781 143.795 127.547C143.938 126.048 143.711 124.94 144.394 123.199C144.749 122.299 147.813 118.384 148.632 119.9C148.472 121.753 150.666 122.151 150.996 123.684C152.405 122.706 153.511 123.58 154.026 121.381L153.326 113.794L154.144 113.353C152.085 111.127 154.659 107.325 156.39 105.515L157.85 105.481L158.542 106.996L159.868 107.074L160.062 105.844C161.717 106.684 161.083 105.637 161.632 105.29C161.953 105.091 162.535 105.351 162.848 104.892C163.776 103.523 163.118 102.207 163.236 101.229C163.27 100.934 164.004 100.995 164.046 100.744C164.165 99.9295 163.295 99.254 163.405 98.5006C163.456 98.1109 165.068 96.5694 165.102 96.4395C165.22 96.0411 164.544 95.3137 165.861 94.4823C167.972 94.7854 169.078 96.1364 169.55 98.1455C170.293 98.2841 169.736 97.3574 170.006 97.011C170.2 96.7599 171.889 96.8465 172.513 95.6947C172.75 95.253 172.556 91.5119 171.922 91.0355L172.708 90.4467L171.5 90.1869C170.335 86.8873 170.386 83.6571 171.585 80.3663L173.079 80.3489L173.138 81.4834C174.43 80.8772 174.219 82.2975 174.759 82.8864C175.645 83.8476 177.013 84.4885 177.072 85.978L177.798 85.7788C177.266 84.7483 178.819 84.0382 178.912 83.8563C179.157 83.3367 179.427 80.3663 178.65 79.8986L179.436 79.6908C178.262 77.8115 177.536 74.9017 175.088 74.6159L175.4 73.4641C174.404 73.8971 175.215 69.7836 175.451 69.1514C175.611 68.7184 175.73 68.1901 176.27 68.1381L176.473 69.3592C177.072 67.0296 178.178 70.2339 178.743 70.4677C180.474 71.1865 182.584 69.3852 183.386 67.9303C182.128 67.5666 182.922 67.2201 182.745 66.484C182.086 63.6955 181.225 61.288 179.064 59.3567C179.309 57.9711 179.343 55.6329 180.736 55.0353C182.356 54.3425 182.854 56.2478 183.682 56.8193C184.239 57.2004 186.172 57.0618 186.746 57.9971C187.987 56.2911 187.675 54.6889 187.337 52.7317L186.552 53.1474C187.497 50.9997 183.817 50.3242 182.711 49.3543C182.635 49.2937 181.791 47.7695 181.765 47.6742C181.614 47.1546 181.36 44.7904 181.512 44.3401C182.66 43.3701 184.087 42.4521 185.353 43.8204C185.505 42.7293 185.378 42.8072 184.56 42.4002L185.353 41.3956C183.656 41.7247 183.775 39.6636 183.234 38.6417C182.745 37.715 180.955 35.1083 180.491 34.5887C180.069 34.1211 178.794 34.0085 179.03 32.8827C179.376 32.9087 179.748 32.9433 180.06 32.7355C184.188 29.9989 188.561 27.089 190.849 22.4039C191.819 20.4121 192.377 18.4722 193.17 16.6016L193.153 16.6103ZM249.746 28.4314C247.745 27.2623 246.563 25.9286 244.115 25.7207C240.004 25.3743 238.223 27.5913 235.606 30.0162C234.23 31.2892 232.39 31.4884 233.926 34.2856C233.985 34.3982 235.826 34.5454 236.079 34.4935C239.413 33.792 242.478 32.008 245.517 30.631C246.108 30.3626 247.002 30.3972 247.602 29.6611L248.564 30.4578L248.589 28.8557L249.746 28.44V28.4314ZM122.108 94.9153C121.847 94.6988 117.828 95.4262 117.136 95.6427C115.659 96.1104 113.346 97.3748 111.582 97.7212C106.601 98.6824 101.021 97.7991 96.5977 100.761C95.8211 101.28 95.7704 102.571 94.8419 101.8C94.96 102.822 94.9178 104.19 95.7451 104.926C96.7075 105.784 97.2646 104.745 98.1172 104.745C99.4172 104.745 100.844 105.377 102.161 105.403C103.309 105.42 114.131 104.06 114.621 103.653C114.95 103.376 114.84 102.614 115.102 102.328C115.482 101.904 119.238 100.51 119.871 98.9336L122.1 94.9153H122.108ZM108.213 108.33C106.93 108.893 105.276 108.59 104.128 108.78C103.883 108.823 103.967 109.421 103.68 109.49C103.072 109.638 101.333 108.936 100.726 108.91C97.7205 108.806 94.6393 109.542 91.862 109.412C89.6502 109.308 91.1613 108.806 88.7639 109.56C86.9405 110.131 84.7372 110.971 83.0067 111.136L82.9813 112.339C81.6729 111.603 80.5924 114.764 79.419 115.457C79.3008 117.631 79.8664 120.48 82.4411 120.723C84.695 120.939 83.9099 120.87 85.6489 121.632C88.232 122.758 87.3119 121.407 88.6795 120.792C89.1437 120.584 92.5204 120.212 93.297 120.142C94.3607 120.056 95.8633 120.116 96.8172 119.865C101.578 118.609 102.186 116.167 105.495 113.812C105.723 113.647 106.238 113.968 106.255 113.933C106.407 113.699 106.162 112.816 106.643 112.106C107.065 111.491 108.669 111.058 108.998 110.053L108.188 108.33H108.213ZM296.96 123.511C296.31 122.792 295.93 121.615 294.689 122.472C293.246 123.459 295.187 128.465 295.483 130.075C296.243 134.163 297.222 138.502 297.458 142.633C297.483 143.1 296.952 143.395 297.011 144.278C297.036 144.65 297.872 149.362 298.024 149.587C298.117 149.734 298.784 149.76 298.978 150.037C299.248 150.435 298.775 150.946 298.859 151.189C298.935 151.388 300.7 153.432 301.24 154.644C301.544 155.328 302.261 159.087 302.405 159.312C302.624 159.659 303.933 159.572 303.494 160.984L301.527 161.806C301.274 160.507 300.404 159.84 299.788 158.507C298.699 156.134 299.265 157.641 298.15 156.558C296.217 154.679 296.226 152.93 292.832 153.7C293.626 155.233 292.57 154.8 292.511 155.103C292.376 155.744 292.824 157.251 292.039 158.152L293.22 157.745C293.82 161.555 296.234 164.673 297.18 168.284C294.605 169.341 294.436 167.704 293.128 166.976C292.959 166.881 289.498 166.223 289.32 166.309C289.236 166.353 288.493 167.903 288.493 168.085C288.485 169.228 290.764 170.865 291.515 171.687C291.828 172.034 291.296 173.125 292.832 172.744L292.427 173.956C294.369 173.549 293.946 175.818 294.47 176.312C294.774 176.598 294.436 175.888 295.449 177.204C296.124 178.087 297.289 177.949 296.783 180.044L297.543 179.655C297.72 179.793 298.133 181.707 298.378 182.14C299.214 183.595 299.847 182.989 299.957 185.05C299.974 185.344 300.615 185.284 300.708 185.622C303.021 193.416 301.898 200.075 298.876 206.207C298.496 206.978 298.859 208.337 297.163 208.017C298.176 209.636 295.204 210.52 295.525 212.433L294.402 212.485L294.36 214.884C292.292 214.408 293.195 215.404 292.976 215.724C292.047 217.11 288.924 219.587 287.092 220.583C281.478 223.631 270.909 222.713 265.076 220.141C264.612 219.942 263.388 218.565 262.468 218.478L262.383 216.945L261.404 217.751C260.855 216.573 259.614 216.807 258.956 216.391C258.711 216.235 258.221 215.413 257.875 215.092C257.048 214.313 255.537 214.122 255.655 212.087L254.87 212.892V211.273C253.536 212.009 253.722 209.203 251.721 209.221L252.101 208.043C250.354 208.38 250.236 205.869 249.611 205.315C247.864 203.765 248.412 203.687 247.315 201.478C246.758 200.353 245.323 198.447 244.791 197.512C244.58 197.14 245.128 196.118 244.993 195.347C244.943 195.07 244.386 195.061 244.234 194.749C243.98 194.256 244.014 193.424 243.626 193.017C242.799 192.151 238.949 192.463 237.767 192.212C237.548 192.169 234.416 189.649 234.163 189.345C233.597 188.661 233.15 187.12 233.057 187.042C232.348 186.436 228.676 186.739 227.781 187.354C227.705 187.406 226.54 188.592 226.506 188.679C226.371 188.99 226.81 189.475 226.616 189.813C226.481 190.038 225.873 190.021 225.637 190.523C225.341 191.173 225.603 195.945 225.789 196.828C226.371 199.616 229.072 203.046 231.689 204.085C232.643 204.466 234.002 203.869 234.534 204.778C235.843 207.055 233.124 206.891 232.685 208.389L231.757 208.086C231.343 209.463 230.769 208.493 229.857 208.588C226.675 208.917 225.51 209.515 222.437 207.861C221.298 207.246 219.441 205.393 218.563 204.561C217.06 203.158 215.752 201.937 214.291 200.595C214.173 200.491 213.405 198.612 213.118 198.291C211.353 196.395 206.204 193.953 203.714 194.845C202.844 195.156 202.397 196.473 201.19 195.919C200.818 196.291 200.025 200.301 199.729 201.184C199.113 202.994 198.784 203.072 197.982 204.163C196.893 205.644 197.171 206.735 196.673 207.497C196.319 208.051 193.381 210.918 192.74 211.412C192.098 211.905 188.873 213.603 188.586 213.698C187.911 213.923 186.915 213.784 186.425 214.088C182.914 216.287 185.969 222.133 188.325 224.255C188.569 224.263 190.283 223.458 190.376 223.38C190.553 223.224 190.587 219.578 190.866 218.98C193.744 219.214 192.199 221.163 192.242 222.245C192.588 231.572 197.67 242.493 203.503 249.083C204.22 249.897 206.702 253.301 206.93 253.474C209.007 255.076 212.079 257.059 214.072 258.445C215.591 259.501 215.676 260.601 215.802 260.696C215.971 260.826 217.786 261.216 218.605 261.684C219.305 262.082 219.82 263.165 220.217 263.398C221.095 263.927 222.986 264.524 224.176 265.208C224.455 265.364 224.472 265.918 224.514 265.927C225.383 266.239 224.581 265.078 226.506 266.698C226.65 266.819 229.52 267.443 230.085 267.659C230.524 267.824 232.002 269.062 232.145 269.114C232.39 269.201 233.116 268.863 233.546 269.001C239.734 271.002 248.463 272.518 252.591 274.795C252.819 274.925 253.317 274.423 253.705 274.691C253.975 274.882 254.001 275.566 254.144 275.67C254.288 275.774 255.537 275.28 257.411 276.605C259.285 277.93 258.323 277.038 260.095 277.792C261.716 278.484 264.51 282.355 265.566 283.94C267.406 286.711 270.04 292.462 270.58 295.553C270.875 297.234 271.078 298.429 271.449 299.91C273.298 307.375 269.685 315.87 266.342 322.062C265.321 323.959 264.831 324.764 263.042 326.288C261.75 327.388 262.67 326.652 262.037 327.431C261.598 327.968 260.543 328.142 260.332 329.146C259.099 328.488 260.011 329.38 259.361 330.081C255.334 334.472 245.711 331.58 241.051 329.839C238.941 329.051 234.315 326.115 231.968 327.423C229.469 328.817 232.339 332.974 229.866 334.801L223.72 337.027C223.763 339.097 221.973 339.287 221.399 339.893C220.994 340.318 221.163 341.885 219.711 341.807C219.542 342.526 220.378 342.067 220.496 342.214C220.597 342.336 219.398 343.894 219.677 345.228L221.12 346.285C221.897 345.652 223.205 345.609 223.855 345.341C224.067 345.254 224.033 344.812 224.362 344.674C226.92 343.609 230.288 342.595 232.964 341.92C235.708 341.227 240.933 339.149 239.278 344.224C238.704 345.99 236.265 348.562 235.758 349.922C234.813 352.468 235.024 354.217 237.7 355.161L237.894 353.949L239.076 354.356L238.907 353.533L239.785 353.066L239.464 352.329H240.663C239.928 351.325 240.865 351.637 241.203 351.004C241.541 350.372 241.558 349.472 242.056 349.134C243.111 348.432 245.365 347.783 246.589 348.268L246.192 347.462C248.446 347.523 249.467 346.276 251.333 345.618C252.566 345.185 254.6 344.457 256.103 344.353C257.681 344.241 259.935 344.786 261.429 344.665C262.138 344.605 261.978 343.972 262.197 343.903C262.695 343.756 263.514 343.981 264.283 343.531C264.654 343.314 268.453 338.274 268.959 337.547C270.31 335.624 273.197 331.562 274.21 329.683C275.957 326.444 276.362 321.629 278.279 318.555C278.549 318.122 278.861 317.853 279.385 317.862L278.6 317.264C280.085 316.424 279.334 315.013 279.815 313.731C280.296 312.449 280.963 310.925 281.276 309.973C281.799 308.362 283.251 300.784 282.483 299.71C282.297 299.451 281.419 299.39 281.132 298.81C280.786 298.1 280.71 295.276 279.773 294.921L280.094 293.995L279.376 293.752C280.668 291.986 282.339 294.159 283.327 291.319L282.542 290.721L283.31 290.539C282.314 289.595 283.099 287.3 282.77 286.66C282.525 286.183 281.824 286.105 281.63 285.863C281.048 285.118 279.494 281.974 279.486 281.126C279.469 278.839 281.563 278.735 281.689 278.311C282.018 277.211 280.389 274.059 280.879 272.578C279.705 272.466 280.06 270.855 279.689 270.517C279.477 270.326 278.853 270.543 278.65 270.413C278.557 270.352 279.359 269.019 277.409 269.227L277.814 268.43C276.506 269.001 276.202 267.702 275.94 267.625C275.51 267.503 274.877 267.746 274.539 267.59C274.201 267.434 274.227 267.01 274.142 266.966C273.881 266.828 273.29 267.235 273.096 266.559C272.614 264.827 273.906 264.264 274.159 263.251C274.37 262.402 273.619 260.61 274.244 259.501C272.868 259.657 272.986 258.549 271.576 257.977C269.55 257.163 267.566 258.116 266.604 257.865C266.241 257.769 266.334 257.535 264.713 257.25C256.896 255.899 250.658 252.495 245.23 246.667C242.934 244.207 240.393 240.163 239.987 236.535C239.726 234.188 239.506 234.725 239.101 233.287C238.755 232.083 239.548 228.992 238.797 227.554C238.274 226.463 236.763 226.376 235.851 225.805C234.939 225.233 231.791 223.007 231.065 222.219C229.503 220.531 229.917 219.673 229.427 217.915C229.292 217.448 228.642 217.153 228.498 216.634C228.439 216.417 228.726 213.412 228.853 213.308L230.398 213.282C229.883 214.832 231.208 214.85 231.428 215.664C231.951 217.655 232.382 219.465 234.272 220.955C235.809 222.159 240.604 224.393 242.402 223.796C242.697 223.7 242.621 223.059 242.925 223.007C243.28 222.947 243.778 223.337 244.242 223.172C245.289 222.791 246.69 222.072 247.636 221.431L248.26 222.098L248.944 221.83C249.079 222.843 249.307 223.241 250.177 223.657L249.771 225.051L250.556 224.644C250.531 225.701 251.223 228.299 251.806 229.026C251.848 229.078 252.38 228.758 252.937 229.251C253.941 230.152 254.887 232.482 256.103 233.339C258.517 235.028 262.012 235.634 264.603 233.963C266.097 233.001 265.447 231.564 267.549 231.945L267.144 232.75C268.909 232.369 268.098 233.729 268.773 234.941C269.263 235.833 270.546 235.989 270.766 237.149C272.125 236.37 271.601 237.366 272.488 237.66C274.016 238.163 277.511 238.05 279.157 237.99L279.798 238.821C279.959 236.89 281.85 237.834 283.15 237.591C285.176 237.21 290.874 234.95 292.452 234.101C295.221 232.62 299.602 229.936 301.78 227.727C307.63 221.795 310.762 214.954 313.556 207.61C313.7 207.229 314.51 205.393 314.544 205.263C316.038 199.764 317.144 191.935 316.747 186.314C316.68 185.319 316.258 184.089 317.347 183.898C316.097 183.162 317.203 182.634 317.169 182.27C317.102 181.595 316.722 179.378 316.131 179.395L316.528 178.191L315.777 178.009V177.204L316.562 177.005C315.903 176.026 315.802 174.84 315.439 173.723C315.27 173.203 314.747 173.116 314.688 172.943C314.24 171.471 315.76 169.375 313.396 169.089L314.181 168.492C314.088 167.955 313.058 166.916 313.033 166.812C312.974 166.595 313.252 166.128 313.168 165.816C312.805 164.422 312.552 162.629 311.809 161.598L312.602 161.2L310.619 156.939L309.834 157.346C309.639 157.069 309.85 155.519 309.732 155.103C309.386 153.9 308.154 151.864 307.656 150.427C307.191 149.084 307.073 149.275 306.82 148.643C306.693 148.322 306.896 146.842 307.065 146.4L305.925 146.365C305.419 143.906 303.984 142.252 303.19 139.636C301.696 134.709 300.168 131.045 298.142 125.823C297.796 124.923 298.032 124.672 296.977 123.511H296.96ZM99.9913 125.321C99.4088 121.597 97.6529 123.693 95.9984 123.901C93.3139 124.247 89.6502 123.442 86.797 123.459C82.3398 123.476 77.0215 124.801 73.3157 127.339L72.7332 126.126C72.2436 129.417 69.4241 128.698 70.1416 132.656C70.665 135.54 74.5988 134.726 76.8021 134.821C78.7014 134.908 81.2508 135.228 83.032 135.246C84.8132 135.263 86.8476 134.18 88.7723 135.419C89.0593 134.059 89.608 135.072 90.258 134.899C92.5795 134.276 96.7075 130.725 98.2523 128.811C98.9614 127.936 99.2822 125.884 100.785 125.719L100.008 125.33L99.9913 125.321ZM80.1196 138.017C78.9716 137.515 76.7261 138.536 75.3248 137.48C72.1338 140.338 67.3305 141.316 65.2455 145.508C65.0597 145.88 63.7935 149.033 63.8273 149.232C64.1058 150.626 65.7604 150.548 66.6721 151.18C67.0604 151.449 69.3903 153.198 69.4832 153.354C70.0741 154.376 68.9682 154.532 68.9345 154.61C67.4909 157.719 65.2961 159.927 64.2747 163.919C63.8948 165.4 64.8909 166.266 63.6331 167.479L65.2117 168.093L64.4266 168.7C67.3305 168.284 70.7747 169.583 73.6196 168.613C74.9365 168.163 74.278 167.193 74.354 167.132C74.7845 166.786 77.6716 166.431 78.4397 165.842L78.8449 166.682C83.3528 165.114 84.1379 160.308 81.0398 156.827C80.9807 156.757 79.6047 155.805 79.5118 155.77C78.6339 155.467 77.7391 155.805 77.3339 155.692C77.1904 155.658 75.7215 154.081 74.9365 154.133C73.9741 151.89 77.241 150.912 78.904 150.652C81.9261 150.184 83.6904 151.301 86.8138 149.725C89.7937 148.227 88.3587 147.586 89.1775 145.707C89.4392 145.101 90.123 145.265 90.1145 144.988C90.1145 144.763 88.4346 141.247 88.1139 140.953C87.8691 140.719 86.5437 139.965 86.147 139.775C85.8515 139.636 85.3788 139.948 85.2184 139.896C84.7879 139.749 85.3281 138.822 83.8424 139.463L83.7664 138.718C82.4411 140.043 82.4326 138.926 81.4028 138.554C80.6261 138.277 80.6683 138.277 80.1196 138.034V138.017ZM77.0553 172.337C77.0047 172.285 76.2027 172.796 75.7047 172.753C75.0209 172.683 74.3962 171.878 73.5689 171.748C70.1501 171.202 68.428 175.983 67.5247 178.512C67.3981 178.858 66.9253 178.815 66.8747 179.04C66.765 179.525 66.7734 183.976 67.5247 183.89L67.1701 184.911L69.3565 185.604C71.9144 182.876 75.1644 182.686 78.6423 182.071L78.2456 181.274L79.8073 180.833C79.2164 179.707 80.1365 178.971 79.9508 177.706C79.5878 175.273 78.3891 174.952 77.2832 173.515C76.9878 173.134 77.106 172.389 77.0553 172.337ZM181.622 199.27C181.065 198.889 178.659 197.919 178.017 197.858C177.494 197.815 172.505 198.491 172.328 198.724C172.235 198.846 172.37 199.435 172.142 199.738C171.771 200.257 170.521 201.357 169.871 202.076C169.491 202.5 168.225 203.358 168.098 203.73C167.769 204.691 168.115 207.497 168.732 208.406L169.508 207.601L169.559 208.32C171.458 207.627 173.197 209.298 174.641 209.783C175.451 210.052 175.873 208.848 175.915 210.727L182.154 214.079C182.01 212.234 183.293 210.147 183.58 208.528C183.977 206.319 183.42 200.517 181.605 199.261L181.622 199.27ZM126.388 208.112C121.72 207.099 117.204 210.753 117.55 215.75L118.74 216.46C120.032 216.053 123.746 217.162 124.683 216.798C125.13 216.625 125.122 216.01 125.569 215.733C126.506 215.153 127.376 215.759 127.866 213.828C128.203 212.511 127.477 212.078 127.292 211.082C127.232 210.753 127.638 210.208 127.562 209.87C127.469 209.446 126.118 209.246 126.371 208.112H126.388ZM148.066 215.196C148.64 213.629 147.914 211.403 146.26 211.039C145.576 210.892 145.027 211.515 144.394 211.533C143.66 211.55 142.993 211.152 142.107 211.256C140.401 211.455 134.112 215.101 132.77 216.391C132.466 216.677 132.357 217.5 132.01 217.837C131.622 218.227 129.056 220.479 128.971 220.669C128.625 221.501 129.334 224.644 130.221 225.034C131.268 222.497 134.796 225.147 136.932 225.069C139.068 224.991 139.279 222.826 141.482 223.822L141.077 223.016C141.431 223.051 141.786 223.068 142.107 222.86C145.745 220.557 145.964 219.37 147.45 215.646C147.56 215.369 148.033 215.291 148.066 215.196ZM162.35 216.625C162.071 216.504 156.981 217.075 156.255 217.266C152.186 218.348 150.042 219.708 147.805 223.259C148.683 226.116 147.197 227.623 150.168 229.295C151.57 230.091 151.232 228.792 152 228.351C153.815 227.32 156.77 227.138 158.922 225.805C160.602 224.765 161.683 222.73 163.304 221.691C164.764 220.764 166.089 221.275 166.182 218.946C165.406 217.993 164.815 217.5 163.65 217.145C163.354 217.058 162.873 217.361 162.662 217.309C162.375 217.231 162.417 216.642 162.35 216.616V216.625ZM174.202 221.856C174.008 221.734 170.057 221.986 169.685 222.133C169.12 222.358 169.137 222.938 168.858 223.007C168.352 223.12 167.423 222.86 167.195 223.068C167.069 223.181 167.339 223.986 166.942 224.272C166.545 224.558 165.304 224.54 165.195 224.662C165.135 224.722 165.422 225.45 165.313 225.865C165.026 227.026 164.156 227.797 164.882 229.208C164.975 229.39 167.474 232.17 167.668 232.239C168.419 232.542 171.424 232.179 171.526 230.914L170.817 230.663C171.391 229.347 169.458 228.593 169.939 226.671L170.943 226.965C171.821 225.181 171.998 226.316 172.834 226.142C173.67 225.969 174.514 225.467 175.434 225.424C175.932 224.688 174.649 222.124 174.21 221.864L174.202 221.856Z" fill="black"/>
<path d="M186.121 19.1042C186.248 19.8144 185.944 20.2734 185.665 20.8623C184.399 23.4863 179.849 26.1016 177.46 27.4613C176.743 27.8683 176.667 29.4445 174.666 28.4226V29.6436C173.957 28.6824 171.424 30.9167 171.213 31.3324C171.129 31.4882 171.416 32.0425 171.331 32.4755C171.205 33.0904 170.842 33.5753 170.774 34.2941C170.53 36.7363 170.926 45.024 170.302 47.2151C170.217 47.5182 169.592 47.4316 169.55 47.726C169.398 48.7479 170.386 51.675 168.352 51.9435L169.154 53.3551C168.242 53.8228 168.098 56.0138 167.533 57.2955C167.423 57.5553 166.976 57.5899 166.908 57.7458C166.199 59.244 166.478 60.8288 164.013 60.8548C163.574 60.3871 166.013 54.8273 166.233 53.6928C166.393 52.8528 165.912 50.5059 165.988 50.1682C166.055 49.8737 166.756 49.9343 166.79 49.6486C167.06 47.6394 166.224 44.643 166.131 42.885C166.064 41.6033 166.503 37.9227 166.123 37.0307C165.718 36.0781 162.113 35.6798 162.797 32.7353L166.376 31.2544V30.8561C165.735 31.3757 165.363 29.1587 165.329 28.6217C165.279 27.799 165.532 25.4175 165.828 24.7593C165.929 24.5342 166.511 24.4822 166.629 24.283C166.722 24.1271 166.494 23.7288 166.629 23.5729C167.516 22.5163 169.66 21.2087 170.926 20.7237C174.117 19.5199 175.493 19.5892 178.49 19.8404C178.988 19.8837 179.376 19.1908 179.993 19.1562C182.01 19.0609 184.112 19.2774 186.121 19.0956V19.1042Z" fill="black"/>
<path d="M137.438 21.2346C137.658 21.503 137.438 22.1179 137.548 22.3171C137.574 22.3691 138.232 22.0746 138.603 22.2132C140.469 22.9493 143.753 25.4694 145.517 26.7338C145.694 26.855 146.547 26.5086 147.214 26.7598C149.924 27.773 149.544 29.7042 149.004 32.2763C148.244 32.588 147.459 32.8825 146.657 33.047C144.892 33.4107 142.782 33.4454 141.203 34.2508C141.018 34.346 139.718 35.7057 139.608 35.7317C136.721 36.3552 130.702 34.4759 127.942 33.2029C125.933 32.2763 126.279 31.7047 125.57 30.9946C125.316 30.7434 124.633 30.8733 124.286 30.475C124.185 30.3624 123.29 27.825 123.341 27.6864C123.358 27.6431 123.907 27.6258 124.075 27.34C124.877 26.0496 126.371 22.6462 127.477 21.9967C128.144 21.607 128.862 21.7369 129.292 21.529C130.077 21.1566 129.773 20.0828 131.783 19.9096C132.931 19.8057 136.729 20.3946 137.43 21.2519L137.438 21.2346ZM137.413 23.2697C136.122 21.962 133.733 22.0746 132.365 23.339C129.681 25.8331 132.205 26.5259 131.597 29.2106C133.885 29.9813 135.987 30.1459 138.232 29.1673C138.502 27.1928 138.975 24.8545 137.405 23.2611L137.413 23.2697ZM143.314 28.9767C142.892 28.691 141.414 27.9895 141.068 28.1973C140.326 30.2325 138.375 30.6308 137 31.7307C136.561 32.0771 136.181 32.1377 136.341 32.8738C137.751 33.125 139.422 33.6186 140.773 32.8652C141.229 32.614 141.313 31.8952 141.98 31.5402C142.774 31.1245 147.239 31.5921 143.314 28.9681V28.9767Z" fill="black"/>
<path d="M123.89 140.156C124.025 140.381 124.784 141.247 124.793 141.325C124.869 141.81 124.717 144.494 124.556 145.014C123.974 146.945 122.379 150.617 121.23 152.609C120.952 153.094 119.88 154.003 119.517 154.627C118.495 156.385 119.171 155.06 118.225 155.415C118.166 155.441 118.031 156.125 117.423 156.419C116.039 157.095 112.915 157.926 111.463 157.952C111.16 157.952 107.589 157.45 107.412 157.346C106.821 157 106.508 155.961 106.263 155.328L105.115 155.727C105.47 154.194 103.005 153.025 104.575 152.107C105.867 152.488 108.754 151.674 108.273 153.7C109.15 152.99 109.851 153.925 110.442 153.943C110.577 153.943 113.008 153.744 113.143 153.709C113.532 153.622 113.143 152.436 114.342 153.285C114.663 152.237 115.169 152.852 115.279 152.765C116.005 152.167 116.284 151.31 116.697 150.609C117.533 149.206 118.411 147.37 119.061 146.088C119.711 144.806 120.336 141.974 121.323 140.225C121.492 139.922 121.779 139.87 122.092 139.922L121.306 139.125L123.062 138.753C123.501 138.857 123.594 139.731 123.873 140.173L123.89 140.156Z" fill="black"/>
</g>
<defs>
<clipPath id="clip0_19_2432">
<rect width="328" height="369" fill="white"/>
</clipPath>
</defs>
</svg>
