<svg width="328" height="369" viewBox="0 0 328 369" fill="none" xmlns="http://www.w3.org/2000/svg">
<g clip-path="url(#clip0_19_2287)">
<path d="M151.959 214.3C152.606 215.701 154.454 216.515 155.193 217.587C155.648 218.245 155.401 218.839 155.494 218.98C156.102 219.896 158.166 221.031 158.882 222.056C159.968 221.32 158.536 221.117 158.751 220.099C158.805 219.849 159.853 218.346 159.984 218.339C161.501 219.372 163.372 220.084 164.612 221.492C164.897 221.813 164.674 222.33 164.943 222.651C165.436 223.245 166.522 222.979 165.998 224.255C164.427 225.515 164.243 224.771 162.879 224.443C162.594 224.372 162.14 224.677 161.87 224.607C161.508 224.513 160.361 222.69 159.614 222.447L159.013 223.879C156.849 224.521 156.379 223.136 154.993 222.275C154.5 221.97 152.513 221.273 152.428 220.671C152.367 220.24 152.752 219.802 152.521 219.168C152.167 218.174 150.611 217.556 150.272 216.155C150.118 215.521 150.542 214.825 150.203 214.199L151.951 214.308L151.959 214.3Z" fill="black"/>
<path d="M157.588 87.0928C158.728 85.8955 154.477 83.6182 153.614 83.086C153.26 82.8669 153.137 82.3739 153.075 82.3426C152.297 81.9278 150.98 83.5086 150.95 81.0983L155.124 81.1139L155.755 79.8227C154.007 79.5723 154.392 78.2419 154.261 78.0932C154.153 77.9758 153.568 78.3906 153.329 78.3436C152.937 78.2654 152.952 77.6706 152.667 77.4515C152.12 77.0367 151.365 77.9054 151.681 75.8472C154.007 75.6359 154.939 77.1071 156.849 77.9054C157.996 78.3906 160.245 79.0245 161.462 79.134C163.364 79.2984 166.545 78.0384 168.201 77.4358C168.817 77.2167 169.841 77.3106 170.149 77.1228C171.181 76.5046 171.744 74.2899 174.185 75.0959C173.6 76.6141 175.109 78.234 174.855 79.2984C174.77 79.6427 174.046 81.0513 173.808 81.5835C171.674 86.2867 163.611 90.7709 158.32 91.4439C157.542 91.5457 157.034 91.3813 156.294 91.217L156.11 91.9682C158.358 93.3534 160.553 95.2081 163.349 95.2159C164.797 95.2159 170.619 93.9716 172.059 93.4473C172.406 93.3221 172.398 92.8447 172.614 92.7352C174.347 91.89 176.288 91.0761 177.312 89.3466L178.174 92.1404C177.697 95.7324 177.836 100.608 177.05 104.075C176.757 105.366 175.648 106.665 174.971 107.565C174.123 108.692 169.734 113.794 168.54 114.342C167.77 114.694 166.36 114.499 165.613 114.843C165.143 115.062 165.151 115.798 164.728 115.923C164.458 116.009 159.514 115.782 159.098 115.712C158.135 115.547 155.917 113.113 154.253 114.092C154.238 115.023 154.893 115.672 155.131 116.33C155.301 116.799 155.185 117.692 155.855 118.427C158.836 121.706 160.977 121.847 164.982 122.489C165.69 122.606 166.784 123.303 166.984 123.303C167.677 123.303 170.011 121.964 170.781 121.69C171.212 121.534 172.845 121.041 173.068 121.205L173.438 124.21L172.699 124.023C173.5 125.932 172.606 125.462 172.36 125.995C170.935 128.992 167.723 134.486 164.674 136.09C162.325 137.334 157.303 136.833 154.9 135.816C152.143 134.65 149.964 133.797 147.792 131.347C146.883 130.322 146.798 130.228 145.882 129.36C145.79 129.274 145.042 127.145 145.042 126.996C145.05 125.001 147.099 126.855 147.615 127.035C148.862 127.474 151.088 128.389 152.336 128.608C152.975 128.718 153.622 128.734 154.269 128.702C153.868 127.051 150.896 126.198 150.318 125.596C150.125 125.392 150.172 124.868 149.971 124.633C148.932 123.428 147.869 122.262 146.883 121.017C146.868 120.931 148.192 120.117 148.47 120.157C149.163 120.251 152.105 122.958 152.405 121.385C152.405 119.515 151.265 119.757 150.665 119.218C150.58 119.139 150.11 117.942 149.409 117.332C149.14 117.097 148.547 117.159 148.423 117.018C148.177 116.745 148.5 114.757 147.622 114.272L152.043 114.835C152.182 113.614 152.105 113.622 150.942 113.708C151.281 112.675 150.88 110.453 150.495 109.467C150.195 108.692 148.577 108.582 149.479 106.587C150.21 107.056 150.857 106.352 151.335 106.391C152.582 106.508 154.485 107.432 155.925 107.362C156.233 107.346 160.168 106.25 160.161 106.023C158.636 104.756 156.379 104.106 154.816 102.838C154.038 102.204 153.745 101.398 153.129 100.804C152.421 100.115 149.771 99.5984 152.213 98.3384C154.323 98.9801 156.972 100.514 159.052 99.2853C158.643 98.2289 156.957 97.861 156.564 97.4776C156.402 97.3211 156.502 96.7889 156.333 96.6246C156.025 96.3115 154.839 95.4038 154.746 95.2238C153.414 92.5708 155.524 88.971 150.564 88.2197C150.364 87.9458 150.896 87.1006 151.119 87.1006H157.573L157.588 87.0928Z" fill="black"/>
<path d="M175.24 137.021C175.325 137.092 176.026 138.915 176.026 139.024C176.026 139.69 174.77 140.511 175.664 141.834H174.547C175.302 142.992 174.224 143.156 173.885 143.986C173.7 144.432 173.962 145.269 173.754 145.528C173.654 145.645 172.914 145.653 172.529 145.95C171.243 146.944 170.026 148.736 168.987 149.495C165.998 151.687 160.692 153.306 157.041 152.696C156.248 152.563 153.722 151.467 154.254 150.458L153.545 150.81C152.259 147.75 155.732 149.488 157.011 149.151L159.421 147.844C158.22 147.531 155.17 147.445 154.269 146.889C153.899 146.662 151.697 144.276 151.027 143.712C150.464 143.235 149.479 143.133 149.186 142.867C148.809 142.515 148.924 141.529 147.992 141.239L148.162 138.101C148.932 139.212 150.149 138.649 151.281 139.056C152.035 139.322 153.722 141.396 154.338 141.599C154.823 141.764 155.332 141.474 155.817 141.576C159.005 142.264 165.698 142.366 168.84 141.122C169.926 140.691 172.052 138.852 173.207 138.038C173.654 137.725 174.224 136.199 175.232 137.045L175.24 137.021Z" fill="black"/>
<path d="M145.32 71.4726C145.427 71.5352 145.412 72.1065 145.62 72.1143L146.883 71.723C147.376 72.8578 146.76 73.4134 146.613 74.2508C146.359 75.6907 145.89 77.0054 145.065 78.3123C142.901 81.7322 138.958 83.8999 135.916 86.6468C129.093 87.7815 121.329 88.1336 114.691 85.8798C113.836 85.5903 113.281 84.3538 111.733 84.8312L108.583 82.4208C108.46 81.5757 111.826 80.1122 112.38 79.5644C113.851 79.3688 113.605 80.2922 114.775 80.8244C116.562 81.6304 123.748 83.3991 125.673 83.3365C128.338 83.2582 130.217 82.3817 132.566 81.74C134.114 81.3174 136.471 81.8417 136.578 79.6271C137.017 79.3062 138.126 80.0105 138.342 79.9088C138.411 79.8775 139.066 79.0166 139.374 78.7036C140.552 77.4906 142.986 74.0238 144.057 72.0987C144.172 71.8952 144.041 71.5665 143.933 71.3631C144.411 71.3709 144.865 71.23 145.312 71.4804L145.32 71.4726Z" fill="black"/>
<path d="M150.787 155.49C153.013 157.204 151.781 156.1 153.183 156.257C156.048 156.57 159.66 157.681 162.478 157.11C163.965 156.812 165.39 155.513 166.737 155.419C168.085 155.326 169.548 155.646 170.873 155.529C170.634 157.032 170.719 158.675 170.257 160.146C169.972 161.062 167.577 164.756 166.799 165.249C166.214 165.624 161.631 167.409 161.1 167.377C160.299 167.322 159.952 166.751 159.513 166.657C158.836 166.509 158.281 166.939 157.834 166.845C157.519 166.775 155.986 166.321 155.655 166.196C155.193 166.031 155.116 165.178 154.638 164.896C154.623 164.623 159.328 163.394 159.898 163.887L162.748 162.463C161.208 162.87 159.806 162.173 158.142 162.103C157.426 162.071 156.779 162.517 155.948 162.455C153.021 162.228 152.089 160.17 150.464 158.824C148.939 157.548 146.798 156.906 146.22 154.707C145.758 152.954 147.191 154.379 147.853 154.488C149.524 154.77 148.816 153.987 150.787 155.506V155.49Z" fill="black"/>
<path d="M184.883 126.84C184.983 127.771 185.483 128.569 185.784 129.438C186.4 131.214 187.309 135.714 187.332 137.96C187.347 139.768 186.792 141.685 186.6 143.462C186.315 146.169 183.727 151.624 182.264 153.987C181.794 154.746 180.639 155.146 180.647 156.852L179.407 156.93L179.168 157.579C177.504 155.826 179.491 153.62 177.882 151.968C179.284 151.647 178.667 148.431 179.006 146.983C179.076 146.686 179.592 146.756 179.684 146.467C181.155 141.67 181.971 135.918 182.634 130.737C182.688 130.291 182.356 129.774 182.426 129.344C182.541 128.632 183.928 126.167 184.883 126.848V126.84Z" fill="black"/>
<path d="M139.512 64.6094C139.266 66.1902 137.264 65.9555 136.378 66.8711C135.2 68.0841 134.229 70.3457 132.697 71.3552C132.227 71.6683 131.272 72.1926 130.764 72.3256C130.394 72.4274 126.474 72.3648 126.181 72.2943C125.711 72.1848 125.242 71.4648 124.941 71.4726C124.687 71.4726 124.264 72.1926 123.855 72.1065C123.07 71.9343 121.452 68.4754 121.306 67.6458C120.482 63.0834 121.814 64.3042 124.371 62.8878C124.525 62.8017 126.343 60.8844 126.489 60.8531C126.782 60.7905 129.639 60.8687 130.017 60.9392C132.897 61.4478 136.424 64.3121 139.512 64.6094ZM128.068 67.2232C128.615 66.5111 128.345 64.3434 127.344 64.9851C127.313 65.0086 127.398 65.4781 127.067 65.7207C125.611 66.7772 124.31 66.8163 124.017 69.1014C125.134 68.6397 125.981 70.2205 126.112 70.244C127.46 70.4788 129.785 69.1014 129.924 67.6067L128.076 67.2232H128.068Z" fill="black"/>
<path d="M85.9486 73.2647C86.095 73.3664 86.1181 73.9847 86.3722 74.1569C87.127 74.6812 88.7982 73.9377 89.8841 73.9377C91.2858 73.9377 92.4641 74.7673 93.758 73.969L94.1277 75.8394L86.0565 75.5342C85.7099 77.3185 84.6394 76.1524 84.2158 76.2933C83.977 76.3715 82.4213 78.954 82.2057 79.1184C81.9901 79.2827 80.2187 79.5801 79.8567 79.5723C79.5718 79.5723 77.3768 78.5471 77.1689 78.2575C74.4965 74.6107 80.727 72.5056 83.592 72.8656C83.8923 72.9047 85.8408 73.1943 85.9409 73.2647H85.9486Z" fill="black"/>
<path d="M130.564 163.292C130.803 163.37 131.442 164.748 131.627 165.022C131.858 165.358 132.374 165.468 132.505 165.726C134.707 169.874 134.137 174.64 132.404 178.865C128.9 180.211 131.38 177.433 129.909 176.142L130.648 175.774C129.824 175.07 129.763 173.779 129.593 172.722C129.201 170.195 129.393 168.559 128.831 166.313C128.638 165.546 128.685 164.607 128.415 163.809C128.438 163.535 130.109 163.167 130.556 163.308L130.564 163.292Z" fill="black"/>
<path d="M185.16 84.1972C185.321 84.3538 187.293 87.9067 187.37 88.1336C188.186 90.5752 188.748 97.548 188.04 99.8566C187.693 100.976 186.915 101.703 186.723 102.838C185.968 103.582 185.722 101.422 185.668 101.109C184.928 96.6872 185.383 90.8961 183.904 86.7797C183.411 85.4259 181.64 85.4728 183.411 83.892C183.773 83.7199 184.905 83.9546 185.152 84.1972H185.16Z" fill="black"/>
<path d="M153.414 49.8892C152.382 51.7282 153.152 51.1961 152.975 52.8004C152.867 53.7786 151.558 55.9463 150.403 56.0011C150.172 55.195 149.201 54.882 148.947 54.4829C148.847 54.3264 148.069 51.1804 148.069 50.9222C148.015 47.9406 150.395 46.1093 151.858 43.9729C152.482 43.0573 152.128 41.9852 153.522 41.7347C152.736 43.1669 153.815 49.1692 153.414 49.8892Z" fill="black"/>
<path d="M126.105 57.3628C125.943 57.5897 124.387 59.5227 124.272 59.6166C123.879 59.9296 119.489 61.4087 119.25 61.1974L118.488 59.5384L121.93 57.5037C122.192 56.1029 122.893 56.2515 123.794 55.5629C124.526 54.9994 124.102 54.0916 125.273 54.8664L125.496 54.1151C126.628 54.882 126.906 56.2359 126.105 57.3706V57.3628Z" fill="black"/>
<path d="M112.211 72.0986V73.969C110.855 73.4603 109.87 74.9316 108.614 75.3933C107.159 75.9333 104.54 75.7768 105.31 73.6794C105.41 73.4055 108.345 71.2691 108.976 71.4178C109.862 71.6291 110.809 72.5838 112.211 72.0908V72.0986Z" fill="black"/>
<path d="M149.016 66.9415C149.609 67.278 150.01 68.937 149.509 69.6257C148.485 71.0343 144.141 67.4188 145.058 66.1119C145.62 65.3059 147.014 66.5345 147.553 66.7536C147.977 66.9258 148.631 66.7145 149.016 66.9336V66.9415Z" fill="black"/>
<path d="M268.798 368.304C267.219 366.559 267.705 368.233 267.312 368.304C266.896 368.374 264.601 367.779 263.638 367.756C259.102 367.67 255.043 367.302 250.807 367.099C247.326 366.926 239.671 366.942 236.359 367.873C235.628 368.077 235.913 368.601 235.273 368.679C229.413 369.415 224.499 367.192 219 366.426L212.554 362.951L207.756 358.741L207.972 351.651L213.578 343.41C213.948 343.621 213.979 344.208 214.287 344.286C214.772 344.396 216.62 343.872 216.875 343.433C217.106 343.042 216.921 342.369 217.314 341.821C219.277 339.051 220.425 338.206 221.85 335.005C222.366 333.855 227.587 329.574 228.735 328.674C230.76 327.078 232.008 327.43 234.041 326.647C235.551 326.06 238.97 323.775 240.495 323.345C241.496 323.063 241.766 323.986 243.137 322.687C246.287 319.69 247.519 317.068 249.937 313.289C250.107 313.023 250.73 312.937 250.923 312.616C253.426 308.499 254.181 303.209 252.741 298.467C252.664 298.201 252.209 298.169 252.155 298.036C251.863 297.363 251.508 295.97 250.931 295.352C250.476 294.867 245.232 291.478 244.631 291.236C242.197 290.25 241.288 290.171 238.616 288.724C238.277 288.536 237.692 288.724 237.43 288.45C236.891 287.902 236.968 287.025 236.86 286.924C236.775 286.838 236.19 287.151 235.797 287.033C233.379 286.329 231.338 283.285 228.681 283.997C226.193 284.67 224.176 286.227 222.296 287.8C221.811 288.207 219.324 290.156 219.262 290.344C219.2 290.531 219.716 291.627 219.578 292.339C219.501 292.738 218.684 292.292 218.43 292.77C218.361 292.903 217.614 295.438 217.56 295.735C216.936 299.194 219.978 304.688 218.823 309.133C218.723 309.509 217.706 309.407 217.552 311.215C217.444 312.522 218.307 313.719 218.307 314.087C218.307 314.337 217.776 314.76 217.729 315.222C217.645 316.051 217.876 317.108 217.714 317.757C217.645 318.031 215.488 319.854 214.926 319.878C214.71 318.853 213.856 319.283 213.316 318.939C212.277 318.281 210.49 315.762 208.973 317.757C207.548 319.635 209.158 320.308 209.219 320.535C209.342 321.044 209.127 321.709 209.319 322.241C209.704 323.298 211.06 324.62 211.36 325.826C211.661 327.031 210.559 328.048 211.822 328.33V329.058L208.503 332.438C207.255 331.969 207.425 332.947 207.132 333.025C206.3 333.244 205.369 332.61 204.598 332.626C202.966 332.673 201.279 333.589 199.639 332.642C199.253 334.974 199.993 334.152 200.694 334.747L199.893 338.996L197.713 340.327L196.62 345.867L194.871 350.524C194.871 350.524 188.325 353.85 189.203 354.734C190.081 355.618 190.512 360.274 190.512 360.274L187.023 363.154C183.026 362.035 187.185 363.154 183.234 363.413C180.277 363.608 180.315 362.74 177.204 363.726C174.093 364.712 171.035 366.402 167.885 365.455C163.919 364.266 159.483 364.062 155.262 362.912C153.714 362.489 151.427 361.026 149.995 361.088C149.301 361.12 149.64 361.832 148.924 361.918C147.207 362.121 145.358 361.354 143.733 361.339C141.7 361.323 139.513 362.34 137.826 362.067C137.41 361.996 137.11 361.409 136.925 361.527C136.887 361.55 136.987 362.207 136.671 362.278C136.07 362.419 135.377 361.988 134.869 362.067C128.769 362.974 106.104 368.992 106.104 368.992L94.7593 360.126L89.2373 352.151L90.1076 342.103C90.1076 342.103 101.159 336.492 102.03 335.897C102.9 335.303 108.137 334.716 108.137 334.716L118.195 329.934C119.689 328.267 121.892 327.633 123.471 326.499C126.451 324.339 127.799 322.343 131.434 320.606C131.719 320.473 131.757 319.995 131.796 319.988C132.042 319.901 132.558 320.34 133.005 320.269C137.557 319.518 142.178 319.909 147.076 319.181C154.184 318.125 165.213 316.349 171.066 312.24C171.882 311.669 171.875 310.902 172.306 310.338C173.007 309.423 173.785 308.828 174.493 307.584C175.24 306.261 175.502 304.32 176.696 303.146C176.418 301.965 176.395 300.603 176.187 299.476C175.756 297.128 173.931 291.056 172.837 288.825C171.466 286.039 170.134 283.473 169.048 280.616C167.916 277.642 167.1 274.567 165.675 271.71L167.184 269.856L166.052 268.345L166.784 267.602C165.921 266.858 165.382 265.426 165.667 264.299C165.783 263.846 166.93 263.877 166.807 263.11L165.659 260.856C166.907 260.574 166.137 259.534 166.599 258.774C166.761 258.501 167.385 258.493 167.485 258.36C167.7 258.07 167.007 257.358 167.2 256.982C167.462 256.474 169.957 255.034 170.473 254.478L169.741 253.915C169.764 253.312 170.781 253.359 170.873 252.913C170.966 252.467 170.311 250.127 170.026 249.884C169.626 249.548 168.532 249.697 168.008 249.313C167.454 248.898 167.254 247.372 167.092 247.239C166.83 247.036 166.152 247.302 165.79 247.067C164.674 246.339 162.825 244.086 161.277 243.585C160.161 243.225 158.975 243.569 157.835 243.334C155.386 242.826 151.512 241.526 148.916 240.775C137.872 237.59 121.923 231.635 114.621 222.385C113.42 220.859 110.686 215.725 109.13 215.044C108.46 214.747 107.251 215.028 106.751 214.449C105.834 213.409 104.694 211.319 103.832 210.09C102.969 208.862 101.121 206.616 100.512 205.465C100.374 205.199 100.173 203.525 99.9732 203.352C97.9477 202.695 97.863 205.176 97.0851 206.045C96.7309 206.436 96.0608 206.412 95.5525 206.835C95.1521 207.164 94.9595 207.993 94.767 208.095C94.6207 208.181 92.1485 209.128 91.6864 209.284C90.9778 209.527 87.9973 209.934 87.5045 209.637C86.9422 204.589 88.9831 201.576 85.2633 197.115C83.9386 195.527 82.768 195.761 81.0044 195.175L80.6193 195.394C80.5962 196.168 79.3947 196.998 79.4024 197.107C79.4487 199.338 79.3177 198.704 78.4783 200.684C78.3396 200.997 78.6323 201.474 78.4321 201.795C78.0162 202.468 75.0511 204.143 74.3811 204.824C73.9729 205.238 73.9883 206.052 73.4338 206.483C72.0321 207.563 67.596 209.01 65.8632 208.901C64.5308 208.815 64.4076 208.353 63.4834 207.586C63.6914 205.066 66.8413 204.135 66.641 201.623C66.4947 199.768 63.468 199.487 62.3821 198.947C62.1896 198.853 62.0894 198.258 61.7121 198.086C59.1398 196.943 55.9898 195.761 53.148 196.364C52.27 197.929 51.3689 199.44 51.3381 201.318C51.315 202.539 51.8772 202.695 52.0312 203.525C52.2315 204.581 51.9773 206.052 52.9015 207.32C53.1403 207.641 53.8719 207.797 54.2724 208.361C56.0745 210.85 53.9489 211.061 53.8642 211.429C53.3328 213.776 58.8086 217.65 59.0627 219.254C59.4709 221.845 55.5354 221.007 53.895 220.553L53.9489 223.12C54.7422 223.089 57.638 225.93 57.792 226.509C58.6392 229.835 55.9128 234.781 52.2392 234.037C50.4755 233.685 51.9157 229.803 48.7119 230.461C47.5567 231.987 48.1728 233.583 48.0265 234.984C47.9571 235.688 47.5721 236.009 47.3872 236.573C47.3102 236.815 47.6106 237.246 47.5413 237.363C47.472 237.481 46.8019 237.661 46.5016 237.966C44.9227 239.586 42.8664 242.27 41.0874 243.381C39.7396 244.219 36.5204 245.22 35.3344 246.026C33.6246 247.192 34.7798 247.325 31.9996 248.358C31.499 248.546 31.5144 249.18 31.0908 249.423C30.9137 249.524 27.5096 249.994 27.1322 250.025C26.6778 250.064 24.8372 249.094 24.0208 249.407C23.4278 248.194 24.6215 246.105 24.5984 245.486C24.5907 245.244 24.1209 244.915 24.1286 244.688C24.1672 243.389 24.7063 239.961 24.0362 239.077C22.9349 237.997 21.7104 239.202 20.147 239.273C19.3922 239.304 17.5824 239.547 17.1588 238.936C18.0059 236.346 16.9739 234.342 16.997 231.807L14.7867 232.55C14.8791 228.786 14.9561 224.826 15.9188 221.211C16.0112 220.859 16.5735 221.054 16.6582 220.389C16.997 217.752 15.6416 214.997 16.0498 213.056C16.4887 210.983 18.391 208.549 19.2228 206.498L25.7075 201.443L23.99 197.882C24.1209 196.81 25.7229 196.176 26.0463 195.417C26.2466 194.94 26.6547 189.673 26.6162 188.883C26.5315 187.325 25.6535 184.766 25.461 183.24C25.2839 181.824 26.0463 179.68 25.8538 178.177L26.5854 178.56C25.9077 176.854 27.6482 175.454 28.8112 174.311C29.1423 173.99 28.8343 174.882 29.6891 173.45C31.784 169.944 34.3486 167.26 37.8682 164.771C38.9156 164.85 40.3866 164.74 41.4186 164.576C44.9998 164.028 49.1971 163.676 52.9477 163.543C57.6611 163.386 63.6914 164.451 67.9195 163.441C69.2441 163.12 69.3982 163.081 70.384 162.447C71.1079 161.986 72.6251 161.477 72.3016 160.413L69.9527 158.339C68.5972 158.816 67.7886 160.013 66.2483 160.209C64.7079 160.405 63.8377 159.685 62.8596 159.583C62.0817 159.505 59.1089 159.685 58.7316 159.372L57.7304 156.797C59.5402 155.905 60.5645 154.903 62.0124 153.542C62.0509 152.195 61.7891 150.521 61.0266 149.402C60.2642 148.283 53.8488 141.779 52.6782 140.832C51.5075 139.886 50.2214 139.878 48.9814 139.565C48.6118 139.471 48.6041 138.806 48.3268 138.665C47.5798 138.289 46.6633 138.172 45.9316 137.679C44.0756 137.632 44.9613 142.186 44.7379 143.212C44.6609 143.579 43.4056 145.238 43.1745 145.356C42.0116 145.958 40.7562 144.949 39.4932 145.191C39.8089 145.864 38.9387 148.032 38.5613 148.58C38.3457 148.893 37.9144 148.611 37.7526 148.713C37.5447 148.846 37.6371 149.245 36.8747 149.449C35.5808 149.785 33.486 149.926 33.409 148.189C31.9842 149.284 32.7775 150.959 31.7455 152.501C31.0754 153.51 28.1103 155.263 26.9166 155.146C24.583 154.927 25.2608 151.624 23.99 150.059C22.9041 150.286 23.4817 151.812 23.2045 152.25C23.0889 152.438 22.0877 152.54 21.6873 152.759C21.2406 153.009 20.7939 153.643 20.4473 153.714C20.1624 153.768 15.0332 153.283 14.7559 153.205C14.2861 153.08 13.462 152.117 12.8228 151.843C8.71021 150.059 6.53838 148.142 3.19592 145.669C2.92636 145.473 2.43347 145.638 2.19472 145.317C1.70952 144.659 0.330953 139.854 0.746835 139.549L4.80554 138.806C3.96607 138.735 3.39616 138.148 3.32684 137.303L2.5952 138.047C2.14851 136.372 -0.416095 135.902 0.00748875 133.93C3.46547 134.055 8.40985 131.543 9.78842 128.272C10.2428 127.184 10.1504 124.571 10.7126 122.935C10.7819 122.732 11.3133 122.692 11.3518 122.614C11.4442 122.411 11.1824 120.431 11.7908 119.554C11.9294 119.359 15.4028 117.629 15.9881 117.355C16.8507 116.956 18.1985 117.089 18.9378 116.33C19.4307 115.821 19.708 113.896 19.9852 113.724C20.1624 113.615 23.8899 113.638 24.1595 113.693C24.8988 113.826 25.307 114.507 25.8384 114.655C27.9948 115.234 30.6133 114.781 32.5926 113.701C32.8776 113.544 32.97 112.926 33.2164 112.808C36.9286 111.032 39.963 111.509 43.7367 112.644C53.225 115.516 60.8649 121.918 69.4906 126.496C74.7969 129.305 86.588 132.576 92.8339 133.515C93.8428 133.664 96.3612 132.772 97.1467 132.068C97.6396 131.622 97.6319 130.902 98.1711 130.385C104.417 124.391 109.184 118.247 115.576 112.934C120.082 109.185 122.516 106.978 124.141 101.101C124.264 100.647 124.957 100.319 124.988 100.006C125.134 98.5421 121.33 98.1195 120.205 97.7908C117.448 96.9848 114.028 95.4666 110.994 94.7857C110.339 94.6371 106.643 94.1362 106.073 94.1597C104.648 94.2066 104.325 94.8249 103.308 95.1457C100.443 96.03 99.0259 97.2039 96.392 98.9569C95.4216 99.6064 95.8298 100.279 93.7119 99.6142C93.2113 100.835 93.3345 101.798 92.7184 103.089C92.5875 103.355 90.6467 105.037 90.5003 105.069C89.7687 105.225 86.38 104.74 85.6253 104.474C84.162 103.958 84.6087 102.784 83.7538 102.267C82.2212 101.352 80.4191 102.072 78.7863 100.569C77.5079 99.3873 76.6838 97.8221 77.2845 96.0535C77.7004 94.8249 78.5399 95.1457 79.1637 94.5823C80.6886 93.2049 81.0968 92.6571 83.0915 91.5381C84.4546 90.7711 86.0874 89.3782 88.2207 88.8069C90.0305 88.8225 91.6787 86.5374 92.9879 85.207L91.8866 85.5827L91.8712 84.4557C89.2142 84.667 87.027 84.1897 84.6395 85.7157C81.7283 87.5704 81.6359 88.5564 77.8621 90.2625C76.9226 90.685 76.5683 91.6007 75.5209 91.5694C74.6198 91.5381 71.054 90.3564 70.8692 89.4329C70.2761 86.5217 74.0268 85.2618 73.0718 82.2098C75.6518 82.2645 76.4682 84.2445 79.1714 84.1114C81.3201 84.0019 82.3983 82.7341 83.9309 82.1785C85.6715 81.5524 90.277 79.9403 91.8635 79.7681C92.4257 79.7055 93.6118 80.5116 94.3126 80.6524C95.4909 80.8872 97.5395 80.5977 98.3251 81.4663C100.081 83.4149 98.2327 85.3088 97.2777 87.1322C97.062 87.5469 97.1622 88.2669 96.9696 88.4938C96.8156 88.6817 96.0993 88.6425 95.7605 88.9399C93.1189 91.2172 88.5519 92.4067 85.3557 93.5649C84.7627 94.6292 81.4279 96.03 82.3444 97.5248C83.8847 98.3308 85.556 97.7908 87.0809 97.2978C90.6313 96.1474 94.7747 93.7058 97.4856 91.8276C99.4957 90.4268 101.229 89.2999 102.746 87.2026C105.472 87.6956 107.49 86.1148 108.553 89.6442L110.185 89.3625L110.347 90.0668H111.071C111.148 88.8303 112.049 88.8695 113.081 88.9321L113.651 90.2938C113.89 90.5051 115.453 90.1999 116 90.4425C116.447 90.6381 116.085 91.3424 116.454 91.6163C117.309 92.2424 119.658 91.898 120.482 92.1328C121.083 92.2972 121.16 92.9467 122.308 93.1032C127.206 93.7762 135.785 92.3441 139.944 90.4346C140.506 90.1764 141.146 88.7286 142.809 89.3312L142.486 88.6425C144.75 86.8896 149.201 86.7957 146.329 90.4816C146.098 90.7711 144.526 92.6337 144.411 92.7354C143.933 93.1502 142.285 93.3536 142.131 93.5336C141.854 93.8701 142.224 94.9814 141.423 95.7327C140.714 96.3979 139.443 96.4292 138.612 96.8909C136.032 98.3073 138.073 98.0413 134.515 98.7299C131.241 99.3638 133.221 102.15 132.751 103.12C132.674 103.277 130.918 104.591 130.748 104.834C129.716 106.266 129.231 109.412 126.574 108.833L127.013 111.009C127.683 111.486 129.678 110.625 129.516 112.206C128.007 111.736 127.937 112.589 127.36 112.91C125.165 114.139 123.078 115.555 120.829 116.69L120.298 118.584L122.508 118.216L122.446 119.656C121.422 119.711 120.952 120.446 120.19 120.916C117.463 122.598 115.715 124.07 113.582 126.363C113.258 126.715 111.864 126.504 111.264 127.224C110.586 128.03 111.125 129.313 110.701 130.213L113.459 129.837L113.643 130.581C111.849 131.301 110.971 132.968 109.608 134.173C109.169 134.564 108.56 134.595 108.26 134.861C107.043 135.941 106.312 137.264 104.794 137.913L105.819 140.457C104.224 142.875 101.444 144.526 102.576 147.837L105.341 146.717L106.604 148.705C106.312 149.989 105.187 150.122 104.894 150.568C104.602 151.014 104.486 152.344 104.001 153.142C103.123 154.59 101.829 155.827 101.105 157.4C103.054 157.126 102.761 158.91 102.091 160.092C101.421 161.273 96.315 164.545 94.8825 164.881C92.2717 165.484 90.123 166.423 87.258 166.603C86.4031 166.657 84.524 166.376 83.6306 166.603C81.2739 167.213 78.2549 167.636 75.4747 167.714C74.0807 167.753 67.8733 167.237 67.3727 167.401C66.8721 167.565 66.8182 168.512 66.6102 168.457L65.6937 168.058L65.8632 167.323C62.8288 167.174 59.6404 167.964 56.6522 168.09C49.9672 168.379 45.1692 166.845 39.6626 171.462C39.0003 172.018 35.034 175.508 34.6797 176.236C34.3255 176.964 34.5719 177.974 34.2947 178.647C34.1637 178.967 33.0085 179.953 32.6927 180.853C31.7223 183.561 33.0239 183.201 33.1471 184.438C33.1933 184.899 32.0997 186.206 32.0766 187.396C32.0535 188.585 33.0932 190.299 32.8314 191.833C32.7081 192.569 31.4297 195.065 31.3758 195.315C31.0754 196.669 31.6068 198.634 30.2591 199.753L31.0138 200.128C30.0511 202.28 30.3438 205.043 28.6648 206.96C28.2105 207.477 25.8692 208.212 25.3609 208.541C24.6292 209.026 24.5599 210.45 24.2442 210.716C24.0439 210.889 23.4894 210.717 23.3354 210.865C23.1043 211.092 23.1891 212.383 22.8733 212.837L25.0913 214.449C24.5599 215.756 25.1221 217.893 24.9373 218.863C24.7987 219.567 24.198 220.123 24.1209 220.796C23.7898 223.84 24.0054 226.72 26.0386 229.154C27.2709 230.625 29.1115 231.345 30.9984 231.048C29.7893 229.897 30.9522 229.811 30.9984 228.997C31.0292 228.395 30.3746 227.886 30.3053 227.401C30.1974 226.626 30.8675 226.282 30.8752 225.992C30.8752 225.656 29.7585 224.834 30.4285 223.903C32.5079 222.651 33.5322 224.271 35.1957 224.983C35.7425 224.873 37.2212 222.745 37.5524 222.142C38.5998 220.248 39.5471 217.267 40.2017 215.388C42.6816 208.298 42.3504 205.63 41.2337 198.36C40.2633 192.005 44.168 186.59 49.2664 183.436C51.238 182.215 54.3494 181.002 56.6522 180.822C57.353 180.767 58.901 180.65 59.4247 180.986C60.9188 181.949 57.0911 183.89 57.199 184.931L63.2986 184.899C64.3614 186.128 65.5012 185.471 67.003 186.026C70.6535 187.38 74.1654 193.054 73.8805 197.029C74.6352 197.577 74.1423 200.073 75.0896 199.933C76.9457 199.651 77.2075 194.173 76.9765 192.678C76.8147 191.637 75.2359 187.607 74.5197 186.997C73.9113 186.472 72.8485 186.785 72.756 186.707C72.5404 186.535 72.5327 185.878 71.932 185.51C69.9142 184.265 66.3561 183.882 66.048 180.806C66.7026 180.157 74.304 182.434 75.7057 182.802C81.2893 184.242 88.29 185.698 94.2895 184.954C95.1135 184.852 95.6835 184.187 96.1147 184.187C96.5922 184.187 97.0312 184.837 97.6088 184.923C102.492 185.658 107.39 185.611 111.872 183.405C116.531 181.112 120.182 178.334 123.332 174.358C123.702 173.896 123.586 173.505 124.518 173.677C125.327 173.826 126.359 180.932 126.189 181.683C126.128 181.949 125.565 181.902 125.473 182.223C124.926 184.179 124.664 186.418 123.833 188.343C122.908 190.503 122.569 188.906 121.722 192.975C121.445 194.314 120.513 195.535 121.021 197.319C121.36 196.787 122.369 196.896 122.423 196.841C122.893 196.395 122.993 194.799 123.34 194.408C123.424 194.314 125.496 193.171 125.619 193.195C126.043 193.265 126.074 195.542 126.112 196.059C126.197 197.139 126.012 198.438 126.181 199.565C127.437 198.806 128.184 201.56 127.652 202.562C129.254 202.844 128.538 200.136 129.347 199.964C130.648 199.69 130.795 200.801 131.234 201.067C131.765 201.388 132.474 201.365 133.02 201.803C134.599 203.071 134.091 205.708 134.669 207.438L136.863 207.054C136.987 206.866 136.609 205.528 137.426 205.943C138.358 206.42 137.88 208.228 138.127 208.784C138.589 209.817 140.16 210.497 140.614 210.975C141.122 211.515 140.121 213.933 142.047 213.44L141.785 214.113L142.416 214.363C140.576 218.292 140.029 215.858 137.972 214.387C137.41 213.98 136.733 213.995 136.278 213.675C135.778 213.322 135.084 211.843 134.499 211.914C133.036 212.172 133.313 213.471 133.013 214.559C130.633 213.166 130.548 210.059 128.892 208.165L126.921 208.181V210.435L125.119 210.372L123.601 207.617L124.349 207.258C122.67 205.685 122.338 204.174 122.5 201.819C121.507 201.631 121.407 202.711 120.891 203.204C120.683 203.407 120.151 203.165 119.912 203.564C119.073 204.972 120.521 207.101 118.626 208.181C117.802 207.571 117.671 206.412 117.209 205.685C117.032 205.411 116.277 205.278 116.247 205.012C116.231 204.824 117.587 202.476 116.963 201.443C113.559 200.089 113.266 206.577 113.659 208.737C114.021 210.716 116.316 211.671 117.209 212.814C118.488 214.449 117.848 214.316 119.728 216.054C125.196 221.101 136.001 226.736 143.156 229.389C150.826 232.229 159.283 231.783 167.693 232.19C171.767 232.386 175.394 233.247 179.869 232.934C182.487 232.746 184.913 231.525 187.539 231.431L191.498 236.205C192.715 239.586 194.586 243.436 193 247.02C191.868 249.579 190.928 249.024 188.849 248.264C188.541 248.155 186.893 247.529 186.785 247.474C186.531 247.341 185.545 245.674 184.597 245.392C183.843 245.173 181.224 245.197 180.654 245.651C180.331 245.901 180.554 246.519 180.346 246.715C179.607 247.411 178.436 248.217 177.751 249.532C176.141 252.6 176.418 253.758 175.625 256.661C175.541 256.975 174.978 256.912 174.917 257.186C174.354 259.581 175.71 273.495 176.827 275.795C179.037 280.327 181.332 286.783 182.996 291.705C183.442 293.02 185.268 297.692 185.275 298.733C185.275 298.999 184.366 302.857 184.236 303.334C183.442 306.167 180.431 310.988 178.775 313.163C178.382 313.68 177.843 313.187 177.304 313.516C175.356 314.697 174.324 315.73 172.152 316.889C166.206 320.066 155.47 323.799 149.24 324.354C147.199 324.534 144.411 323.791 143.017 324.041C139.628 324.659 134.653 325.411 131.611 327.093C129.655 328.181 124.526 331.413 123.247 332.939C122.685 333.612 119.743 337.768 119.473 338.409C119.135 339.208 119.034 342.4 118.75 342.69C117.379 344.083 114.737 340.648 112.565 342.972C112.088 343.488 112.126 344.224 111.764 344.78C109.97 347.519 108.637 350.602 105.98 352.582C104.633 354.976 112.65 354.867 113.836 354.742C113.967 354.726 116.324 354.123 116.447 354.069C118.742 352.997 119.473 349.913 122.469 350.704C123.509 352.37 122.03 353.028 121.753 354.546C122.677 355.516 124.287 355.986 125.596 355.767C126.012 355.696 126.505 355.18 127.098 355.063C131.419 354.241 137.641 352.621 135.046 346.72L135.785 346.352L135.439 345.014C136.871 344.553 138.75 344.709 140.052 343.887C143.417 341.767 145.451 336.359 150.203 336.766C149.463 337.768 148.855 339.928 150.464 340.436C152.682 341.133 151.851 339.654 152.074 339.427C152.906 339.215 153.961 339.583 154.754 339.38C155.039 339.309 154.993 338.636 155.216 338.628C156.679 338.566 157.234 339.38 156.733 340.788C156.703 340.867 155.624 341.61 155.416 341.876C154.939 342.471 154.292 343.199 153.915 343.692C152.628 345.366 152.79 346.955 154.069 348.778C155.309 350.547 157.919 349.608 157.966 347.636C160.369 348.027 159.621 351.001 161.285 353.083C162.409 354.491 166.691 356.103 167.123 353.724C167.292 352.793 167.015 350.696 167.184 349.772C167.223 349.585 168.925 347.19 169.287 346.752C169.503 346.486 169.233 345.844 169.61 345.734C170.866 345.766 172.629 345.507 173.577 346.493C173.9 346.83 173.723 347.339 174.07 347.652C174.978 348.481 181.232 350.625 181.948 349.882C181.733 348.786 182.01 347.354 181.917 346.345C181.786 344.913 181.27 342.487 181.224 341.078C181.201 340.241 182.449 339.012 182.356 337.932C183.935 336.57 187.925 341.524 189.611 341.907C190.851 342.189 192.137 341.939 193.385 342.009C193.185 339.059 192.638 335.357 192.984 332.438C193.077 331.687 193.785 331.89 194.132 330.967C194.594 329.746 194.756 327.625 194.532 326.334L195.996 325.677C196.658 326.952 202.981 328.494 202.966 326.827C202.604 326.444 202.165 326.115 201.941 325.606C201.171 323.861 200.601 320.794 200.101 318.845C199.631 317.053 201.487 317.037 201.988 316.043C202.673 314.666 202.45 312.725 202.788 311.262L203.166 310.902C205.368 312.318 206.508 311.755 207.194 309.415C207.348 308.875 206.578 308.155 207.779 308.265C206.223 306.801 207.833 305.721 209.335 306.418C209.743 306.605 209.612 307.505 210.729 307.145C210.39 305.886 211.229 304.32 211.098 303.24C211.021 302.63 210.421 302.082 210.236 301.464C209.735 299.821 209.936 299.054 208.334 297.778C207.856 299.468 207.502 299.727 205.769 299.656C202.681 299.531 203.104 297.035 201.664 295.188C200.848 294.139 197.213 292.073 200.047 290.829C200.647 290.563 203.251 292.613 203.705 293.106C203.967 293.388 204.46 295.415 205.022 294.405C205.191 294.1 205.646 291.611 205.584 291.275C205.538 291.009 204.914 291.071 204.837 290.766C204.152 287.972 204.537 289.952 203.543 288.786C203.251 288.442 203.251 287.659 202.989 287.158C202.804 286.814 201.795 286.845 202.257 285.398C203.928 285.437 205.145 286.219 204.467 288.019L206.223 288.105C207.109 289.976 208.195 291.643 210.374 290.649C209.743 289.584 210.505 288.458 210.305 287.558C210.167 286.939 209.281 286.329 209.088 285.75C208.78 284.85 208.572 282.737 207.733 281.72C207.633 281.602 205.153 281.813 207.055 279.935C209.443 280.647 210.76 282.4 212.077 284.427C212.608 285.249 211.876 285.719 214.04 285.366C214.633 284.787 213.848 281.68 213.486 280.921C212.947 279.818 212.154 278.464 211.622 277.509C210.744 275.913 209.373 275.639 210.382 273.017C211.561 274.144 213.994 275.193 213.401 277.079L216.235 278.308L216.289 280.131C218.846 279.567 217.93 278.644 218.23 277.04C218.307 276.625 218.831 276.226 218.869 276.007C217.367 275.991 216.074 275.498 216.651 273.761L215.612 273.706L215.173 271.883H216.828L216.644 272.626C217.984 271.335 219.031 274.997 218.862 275.999C220.525 276.015 221.149 275.318 221.095 273.549C221.056 272.117 217.652 267.954 219.963 267.007L222.335 270.044L222.566 271.124L223.683 270.959L223.968 270.505L223.69 267.156L224.399 266.812C223.968 266.334 222.25 263.564 222.204 263.36C222.042 262.687 222.119 261.67 222.366 260.997C222.774 260.23 224.807 262.374 225 262.64C225.932 263.963 225.716 266.084 227.88 265.52C228.049 265.489 228.45 263.18 228.404 263.063C228.334 262.852 227.765 262.938 227.711 262.633C227.626 262.124 228.157 261.717 227.695 260.88C227.272 260.113 226.286 259.894 226.07 259.526C225.97 259.354 226.17 257.405 225.878 256.888C226.309 257.108 226.802 257.17 227.21 257.421C227.349 257.507 229.451 259.581 229.551 259.714C230.275 260.668 229.59 262.061 231.43 261.592C231.43 260.754 232.247 260.16 232.385 259.651C232.524 259.142 231.862 255.816 231.685 255.3C231.538 254.869 230.676 252.6 230.591 252.459C230.306 251.982 227.872 251.027 228.45 249.031L228.889 249.681C232.085 249.697 233.194 252.835 235.451 254.282C235.466 253.453 235.797 252.483 235.566 251.669C234.742 248.734 231.3 248.155 232.509 244.907L235.304 246.034C234.912 247.474 235.72 247.388 236.922 247.944L236.567 249.024L238.092 248.797L238.801 245.518C237.63 244.665 237.438 243.209 236.344 241.941C235.589 241.065 233.995 240.744 234.326 239.132C234.403 238.748 235.92 238.427 236.313 238.506C236.544 238.553 239.101 242.262 240.002 240.313C240.272 239.727 239.371 236.588 239.04 236.017C238.893 235.767 236.814 232.887 236.598 232.699C235.643 231.846 233.98 231.94 234.411 229.811L235.096 228.958C236.213 228.371 237.299 229.89 237.977 230.25C238.439 230.5 240.803 231.361 240.911 231.494C241.096 231.729 240.973 232.433 241.188 232.879C241.373 233.262 241.951 233.513 242.051 233.928C242.159 234.374 241.704 234.984 241.789 235.117C241.905 235.282 243.429 236.643 243.514 236.901C243.737 237.559 244.084 241.738 243.93 242.403C243.868 242.669 243.306 242.638 243.229 242.943C242.875 244.453 243.106 246.519 242.829 247.662C242.744 248.022 241.627 247.638 242.428 249.36C240.919 249.634 241.82 250.323 241.635 250.808C241.581 250.949 240.364 252.326 240.072 253.171C239.733 254.134 239.532 256.583 239.186 257.068C238.909 257.452 238.285 257.194 238.085 257.319C237.961 257.397 237.407 259.291 237.053 259.909C235.358 262.883 233.048 265.653 230.645 268.236C229.074 269.926 226.64 270.81 226.987 273.385L229.551 273.612C230.337 272.352 231.531 271.71 232.616 270.732C232.863 270.505 232.878 269.856 233.256 269.488C234.927 267.915 238.416 267.164 239.617 264.284C239.871 263.666 239.532 263.032 239.571 262.961C239.702 262.75 240.996 262.445 241.25 262.046C241.835 261.122 242.482 258.321 243.037 257.303C243.414 256.615 244.369 256.247 244.592 255.503C245.686 251.849 246.872 244.892 247.234 240.947C247.604 236.964 246.949 234.202 244.677 230.954C242.944 228.473 239.64 226.305 239.016 222.69C238.855 221.766 239.194 221.211 239.063 220.46C238.886 219.466 237.923 218.855 237.684 218.37C237.553 218.096 237.753 217.431 237.553 216.883C237.461 216.633 234.01 214.88 233.348 214.05C232.624 213.135 232.578 210.936 232.023 210.145C231.692 209.683 229.151 207.484 228.573 207.085C218.192 199.956 205.638 197.264 194.971 190.432C193.824 187.85 190.366 186.895 188.356 184.97L187.493 184.915C187.362 185.032 187.94 186.738 188.094 187.114C188.417 187.928 190.281 191.708 190.813 192.216C191.221 192.608 192.037 192.616 192.214 192.866C192.461 193.218 192.353 194.674 192.946 195.229C192.938 195.347 191.367 196.826 191.259 196.881C189.796 197.624 185.16 199.001 183.666 198.798C183.419 198.767 183.481 198.109 183.18 198.039C177.204 196.513 175.04 197.162 169.325 193.515C165.567 191.121 166.976 191.199 164.789 188.296C163.996 187.247 162.433 186.66 162.363 184.711C162.34 184.062 162.987 184.258 163.118 183.882C163.48 182.849 163.395 180.533 163.873 179.296C161.239 178.772 158.089 179.507 155.517 178.216C153.822 177.363 149.609 174.241 151.173 172.151C152.151 171.963 152.428 173.004 153.083 173.208C155.555 173.959 164.273 173.176 166.653 172.19C168.686 171.345 169.764 170.14 171.243 168.943C172.375 168.019 174.431 166.603 174.208 169.279L170.504 174.561C169.61 176.8 168.894 179.296 168.678 181.652C168.748 181.933 169.341 181.879 169.402 182.16C169.595 183.06 170.226 186.472 170.758 187.153C171.181 187.693 174.378 190.698 174.955 191.074C177.05 192.428 184.143 195.143 184.112 190.964C183.504 190.73 183.096 190.487 182.672 189.963C180.377 187.106 177.72 180.18 177.913 176.494C178.105 172.809 181.432 168.41 181.602 164.302H182.51C182.487 163.378 182.888 162.541 183.327 161.759C184.482 159.693 186.631 157.314 187.747 155.553C188.41 154.512 189.473 150.145 188.21 149.848V149.104C188.248 148.963 188.749 148.94 188.81 148.783C190.05 145.786 192.692 141.678 191.899 138.289C191.822 137.96 191.128 138.172 191.136 137.499C191.144 136.7 191.575 135.918 191.544 134.869C191.46 131.622 189.149 126.363 189.311 122.88C189.319 122.638 189.981 122.849 190.081 122.129C190.297 120.556 189.542 118.772 189.68 117.637C190.042 114.734 192.261 110.75 192.584 107.064C192.854 103.997 191.621 100.655 193.192 97.9239C194.617 97.4856 198.121 103.574 199.731 104.396C201.171 105.131 203.559 106.235 205.176 106.736C205.746 106.916 209.034 107.839 209.235 107.667C209.319 106.204 208.056 106.892 207.263 106.524C205.815 105.851 198.73 101.445 198.26 100.475C198.175 100.303 198.53 99.8725 198.46 99.6455C198.252 98.949 195.88 96.6404 195.611 96.1083C194.964 94.8249 194.948 92.2111 194.394 91.0529C193.223 88.5877 191.945 85.6922 190.481 83.4384C189.657 82.155 186.731 78.6256 186.723 77.4908C189.403 76.7474 191.575 79.9012 193.77 81.2002C196.92 83.0706 201.656 83.2897 205.176 82.288C209.427 81.075 205.122 79.8073 203.097 79.5568C202.296 79.4551 201.718 79.9403 200.755 79.7525C197.351 79.1029 189.734 73.7814 187.077 71.4963C186.877 70.7607 184.636 69.7825 184.89 69.2347C185.398 68.1077 187.786 68.8747 188.648 69.1564C189.449 69.4147 190.135 70.6511 190.782 69.6025L185.922 63.514C184.705 63.7253 183.519 62.9662 182.726 62.0663L183.388 60.2037C185.629 61.1115 186.045 59.8985 187.362 59.3742C190.813 58.0047 193.023 57.4412 195.149 53.7944C195.865 52.5658 197.012 50.4528 194.679 50.2807C194.386 50.3198 193.085 52.6284 192.792 52.9336C192.499 53.2388 192.083 52.9649 191.983 53.0588C189.118 55.7665 190.127 54.3501 186.831 55.7039C186.754 55.7352 186.746 56.2517 186.477 56.2909C184.097 56.69 179.23 55.3126 177.142 54.2249C176.619 53.951 176.503 53.1371 175.995 52.7693C174.385 51.5954 168.671 49.5294 166.792 49.7016C166.407 49.7407 166.037 50.2494 165.582 50.2102C164.936 50.1476 163.973 49.2477 163.233 49.2477C162.71 49.2477 162.332 49.8424 161.793 49.9207C160.9 50.0537 159.976 49.3807 159.052 49.5451C159.283 50.0146 159.229 50.3198 159.036 50.7894C158.528 52.0258 157.596 51.8224 157.581 52.9101C158.836 53.2466 160.345 53.6614 161.531 54.1544C161.978 54.3422 161.762 54.5144 163.11 54.9448C166.329 55.9778 167.385 58.8029 169.372 61.0254C168.902 62.6767 169.726 64.4922 169.372 66.1513C169.341 66.3 167.693 67.9904 167.516 68.4834C165.482 68.726 166.414 69.2581 165.536 70.1894C164.512 71.2615 162.225 71.1911 160.877 71.4572C160.076 71.6137 159.121 72.185 158.512 72.2319C156.687 72.3884 155.309 71.0659 153.553 70.8781L153.576 69.4694C154.508 69.3912 157.018 67.8886 157.373 67.1608C157.673 66.5426 157.442 65.94 157.588 65.5565C157.727 65.2122 158.289 65.2905 158.32 65.0479C158.405 64.4296 157.095 60.7828 156.749 59.922C156.541 59.3977 155.894 59.429 155.732 58.9986C154.685 56.1656 155.655 53.6614 156.487 50.9537C156.579 50.6641 157.118 50.6876 157.188 50.3981C157.419 49.459 156.425 48.0034 156.425 47.1034C156.425 46.2035 157.065 45.6244 157.172 44.834C157.573 41.7037 156.549 37.9942 155.155 35.2944C154.323 35.0518 152.929 36.6639 152.267 37.0395C151.604 37.4151 150.495 37.6577 149.64 38.2838C146.359 40.6863 143.957 43.7227 143.679 47.9173C143.625 48.6999 144.449 50.2572 143.302 50.6328C142.077 50.6563 139.767 50.0303 140.583 48.4416C139.49 48.5121 139.297 47.5025 138.573 47.2599C134.384 45.8357 123.401 47.2678 119.966 50.1398C119.235 50.7502 119.058 51.8145 118.218 52.4875C114.46 55.477 104.402 61.8471 100.204 62.9584C94.1432 64.5627 87.6046 65.8696 81.8515 68.3269C78.0008 69.9703 76.4066 72.1067 71.1156 70.9094C70.823 70.8468 70.823 69.8764 69.5445 69.8138C66.4562 69.6572 67.9888 73.1084 70.3147 73.1632C71.2542 74.2979 66.0942 75.6596 65.609 75.91C64.8004 76.3326 63.6836 77.8117 62.5669 78.0543C61.5272 79.0951 62.4206 81.1689 63.7299 81.3333C64.1226 81.3802 66.0095 80.6603 66.9722 80.762C68.1043 80.8794 69.2518 81.1298 69.9142 82.155L69.7678 83.4227C69.2441 84.1271 66.5794 84.1584 66.4177 84.2523C66.2251 84.3618 66.1404 84.9566 65.9402 85.0349C64.4692 85.6609 61.766 86.9913 60.1564 86.4904C57.6842 85.7235 55.1119 82.155 55.8204 79.4473C56.1516 78.1795 57.9845 76.7083 58.2233 75.6753C58.6623 73.7971 54.8423 73.7032 55.8127 70.432C56.1208 69.3833 58.6392 68.4521 59.6481 68.3034C61.8199 67.9747 62.0201 69.6259 63.8531 67.2547C65.686 64.8835 66.1558 61.0567 70.3224 61.5185C73.3953 61.855 71.3698 65.3766 73.996 65.6739C75.8598 65.8852 75.7057 64.8366 76.3218 64.5549C78.7786 63.4436 81.5589 63.5375 83.9001 63.0445C84.2005 62.9819 84.162 62.348 84.6087 62.1837C93.3345 58.9673 104.586 57.723 110.879 49.5294C111.348 48.919 111.256 47.9643 112.196 48.0425L107.759 45.9922C107.236 43.5427 104.764 41.6254 105.557 39.0507C102.9 38.769 100.281 38.7142 98.1633 37.0082C94.6284 34.1675 95.1983 32.0545 94.7824 27.8755C94.3049 27.3982 91.0703 27.4451 90.4387 27.2417C90.1538 27.1556 87.697 25.9348 87.5815 25.8252C87.489 25.7391 86.2645 23.7592 86.2491 23.6262C86.1413 22.914 86.4185 22.3036 86.38 21.6384C86.3107 20.3941 85.6792 19.4472 86.38 18.0542C84.1389 18.1012 79.9878 16.2152 78.6169 14.5013C77.8776 13.5701 77.7235 10.9876 77.7235 9.82153C77.1536 8.46767 70.0143 6.34689 72.887 3.78005C74.0268 2.7627 76.8378 3.69396 76.8224 0.101941C80.0186 -0.469339 81.297 0.422797 82.3906 3.33398L88.9523 3.06008C89.4683 5.03999 91.2474 6.67557 91.1781 9.06243L91.8481 8.75723C92.6876 10.3146 94.6515 10.0172 96.6461 10.8311C97.0851 11.011 97.7475 10.8076 98.1094 11.0189C99.3417 11.731 100.42 17.1464 101.899 18.2577C102.191 18.4377 105.434 18.6959 106.05 18.8838C106.204 18.9307 108.761 20.3941 108.884 20.5037C109.076 20.668 111.626 24.5418 111.687 24.7922C111.918 25.8095 111.063 27.899 111.88 29.2685C113.058 29.0807 114.221 29.6363 115.345 29.6833C116.408 29.7302 117.471 28.5642 117.925 30.0042L118.811 29.6989C119.319 31.3658 121.484 31.9528 122.454 33.3301C123.871 35.3413 122.801 39.3011 124.849 40.4672C125.111 40.6159 125.635 40.2402 126.12 40.4515C127.252 40.9289 128.053 42.1184 129.509 41.6332C129.855 41.3906 130.702 36.1552 131.103 35.1848C131.288 34.7309 132.589 33.8231 133.02 32.6493C133.328 31.8041 133.236 30.4815 133.467 30.0511C133.852 29.339 134.669 29.1824 135.092 28.6503C136.186 27.273 136.309 24.1583 138.589 24.0253C141.377 23.8609 145.404 29.4172 145.905 32.1875L147.592 34.0031C149.74 33.8936 150.457 31.7962 151.674 30.6146C153.16 29.1668 154.885 27.8521 156.179 26.373C156.587 26.1852 157.742 26.7643 158.143 27.0538C159.152 27.7895 160.145 29.6989 160.299 30.7006C163.672 34.3944 162.209 39.262 162.386 43.9262C163.672 43.9496 165.297 43.5584 166.561 43.707C169.51 44.0749 171.998 45.1157 174.485 46.133C178.298 47.6904 181.155 49.1616 185.229 50.1398C187.378 50.6563 190.366 49.9755 192.006 48.4338C193.192 47.3147 194.301 44.474 195.095 43.081C195.179 42.9323 194.81 42.4628 194.848 42.4314C194.925 42.3767 195.434 42.5019 195.803 42.2828C195.965 42.1888 195.965 41.688 196.188 41.6567C196.843 41.5628 198.599 42.3219 199.562 42.1184C200.278 44.3096 202.504 45.8748 203.073 48.1051C203.374 49.2712 203.566 52.3076 203.312 53.3953C203.251 53.6692 202.681 53.6927 202.604 53.9588C201.133 58.8812 200.093 59.9768 197.174 63.921C196.704 64.5549 196.027 65.8383 195.595 66.5583C199.253 68.4364 204.082 74.6188 208.318 74.3136C209.135 74.251 209.535 73.6406 210.182 73.5545C210.698 73.484 212.808 73.5545 213.263 73.7266C215.311 74.4544 216.343 79.2125 215.581 81.2941C214.918 83.0862 210.367 86.8426 208.696 87.8052C208.403 87.9773 206.454 89.0808 206.323 89.1121C204.752 89.5581 203.12 88.7756 201.479 89.2764C201.279 89.4799 202.904 94.5588 203.058 94.8014C203.243 95.091 204.329 95.4118 204.768 95.8735C206.262 97.4387 207.987 100.444 210.159 101.101C210.898 101.328 215.203 101.101 215.981 100.882C216.366 100.772 216.058 100.092 216.705 100.186C217.252 100.264 219.493 101.352 219.817 101.751C220.533 102.635 220.163 105.538 219.732 106.509C219.054 108.035 213.886 112.167 212.184 112.707C208.873 113.763 203.212 112.769 200.278 111.024C199.97 110.836 199.862 110.202 199.646 110.077C199.2 109.835 198.56 110.813 197.975 109.146C197.035 109.076 197.028 112.652 197.182 113.38C197.297 113.912 197.867 114.248 197.998 114.749C198.137 115.274 197.836 115.782 198.06 116.51C198.768 118.795 200.27 118.881 201.441 120.259C202.057 120.979 201.911 121.894 202.55 122.458C203.72 123.483 207.286 125.048 208.696 124.931C208.819 124.923 209.073 125.885 210.906 125.815C213.016 125.737 216.32 122.426 217.868 125.283C219.624 128.53 216.243 134.65 213.401 136.466C208.896 139.346 205.045 137.46 200.555 137.593C199.916 137.608 199.315 137.538 198.915 138.18L202.704 143.869C204.675 144.401 206.639 145.966 208.68 146.209C210.96 146.483 212.177 145.395 214.479 146.342C215.126 146.608 216.882 147.907 217.152 148.502C218.084 150.568 216.004 151.217 214.68 152.242C212.154 154.199 207.533 156.977 203.921 156.351C202.889 156.171 200.832 154.958 200.016 154.708C199.631 154.59 199.207 154.88 198.822 154.755C198.083 154.52 197.374 153.862 196.481 153.878C196.096 153.933 195.426 154.864 195.364 155.216C195.341 155.334 195.903 157.384 195.957 157.486C195.988 157.54 196.681 157.087 197.197 157.486C197.806 157.955 197.644 158.597 197.898 158.871C198.198 159.192 200.44 159.935 201.071 160.334C204.606 162.549 207.078 164.192 211.422 164.826C212.084 164.92 212.631 164.599 213.278 164.607C213.802 165.163 212.331 169.35 211.915 170.124C211.83 170.281 209.835 172.746 209.704 172.863C207.494 174.929 203.443 174.483 200.54 174.327C199.669 174.28 197.205 174.068 196.481 173.896C196.365 173.865 195.595 172.222 194.833 174.155C196.35 176.228 196.712 178.028 199.153 179.507C203.859 182.348 208.934 184.336 213.825 186.198C214.179 186.331 214.903 185.909 215.25 186.05C215.819 186.277 215.835 187.028 216.235 187.278C216.928 187.709 220.433 188.593 221.719 189.203C225.516 191.011 230.083 193.335 233.525 195.175C234.049 195.456 235.659 196.192 235.913 196.45C236.244 196.794 236.074 197.397 236.213 197.514C236.436 197.694 237.237 197.593 237.83 197.945C238.547 198.367 238.986 199.596 239.71 200.167C240.326 200.653 242.906 201.537 243.083 201.803C243.283 202.108 243.114 202.797 243.36 203.188C244.3 204.683 246.079 206.029 247.157 207.594C250.492 212.43 252.255 217.556 255.929 222.479C256.422 223.136 256.668 224.161 257.392 224.944C257.454 225.006 258.686 225.945 258.763 225.977C259.271 226.211 266.049 227.644 266.58 227.62C268.444 227.558 268.898 226.454 269.984 226.172C270.839 225.953 271.686 226.243 272.418 226.078C272.557 226.047 273.381 224.639 274.882 225.335L274.505 224.592C277.978 223.926 279.141 218.879 278.949 215.795C278.787 213.229 277.393 207.907 275.637 206.084C275.291 205.731 274.69 205.943 274.474 205.614C273.242 203.697 273.327 203.259 271.009 201.717C264.732 197.546 257.508 196.701 250.923 191.762C250.022 191.089 249.675 190.127 249.021 189.571C246.957 187.834 246.294 188.546 244.87 185.588C244.485 184.782 243.029 180.587 242.582 179.985C242.205 179.476 239.486 177.872 238.847 177.222C236.436 174.812 235.374 170.703 234.688 167.354C234.149 164.732 233.818 160.671 234.319 158.057C234.511 157.047 235.843 156.594 234.295 156.171C236.398 154.222 234.835 151.014 235.481 148.744C235.628 148.22 236.344 147.805 236.59 147.25C240.087 139.314 241.743 137.992 247.912 132.498C248.397 132.068 249.637 130.393 249.899 130.221C250.538 129.79 252.148 129.986 252.833 129.728C253.249 129.571 253.264 128.969 253.511 128.843C258.37 126.394 261.721 126.214 266.673 125.478C272.926 124.547 278.41 121.37 284.771 120.822C285.187 120.783 285.487 120.65 285.78 121.096L285.734 124.531C283.77 124.868 281.991 126.05 280.127 126.613C279.434 126.824 278.818 126.824 277.917 127.075C276.477 127.482 275.183 127.153 273.989 127.49C273.18 127.717 272.372 128.483 272.041 128.538C271.517 128.624 271.093 127.983 270.408 128.03C269.453 128.1 262.999 130.221 261.628 130.706C255.613 132.842 250.53 135.472 247.165 140.762C246.687 141.521 245.563 141.271 246.094 143.227C246.895 142.64 247.935 142.546 248.782 142.124C249.105 141.959 249.113 141.294 249.637 141.083C250.777 140.621 254.181 140.332 254.935 140.042C255.69 139.753 256.368 138.461 257.146 138.156C258.763 137.53 261.798 137.514 263.199 137.115C263.661 136.982 265.171 135.057 265.279 136.661L261.228 138.923C259.479 138.626 258.309 139.713 256.899 140.144C256.337 140.316 255.19 140.081 254.982 140.277C254.866 140.386 255.105 141.028 254.72 141.38C254.335 141.732 252.764 142.038 252.117 142.413C251.316 142.875 247.542 145.817 247.165 146.397C246.833 146.913 247.349 147.484 246.679 148.11C244.846 149.824 244.423 148.04 243.306 151.851C242.998 152.915 242.813 153.612 242.189 154.825C241.897 155.396 240.326 156.406 242.02 156.343C243.037 153.377 246.279 152.767 248.743 151.444C249.752 150.904 251.4 150.372 251.531 150.286C251.739 150.145 251.801 149.425 252.448 149.112C253.203 148.736 253.911 149.331 254.666 149.175C255.043 149.096 258.316 147.383 258.625 147.727L258.37 148.846C257.762 148.87 257.138 148.956 256.576 149.206C250.345 152.031 245.162 155.435 242.251 162.345C242.028 162.885 242.005 165.883 242.944 166.094C242.844 164.771 243.583 164.779 243.845 164.294C244.253 163.535 243.329 162.854 245.709 162.713C246.957 164.865 244.184 165.797 244.046 167.017C243.799 169.224 244.069 172.981 244.692 175.18C244.954 176.103 246.341 177.371 246.425 177.621C246.687 178.396 246.394 179.421 247.026 180.313C249.799 184.218 258.524 189.908 262.545 192.647C266.857 195.597 271.378 196.278 275.029 200.214C276.33 201.615 279.311 202.476 280.474 204.808C281.721 207.304 281.144 209.308 281.575 211.264C281.621 211.483 282.168 211.413 282.23 211.703C282.907 215.036 283.208 216.883 281.845 220.162C281.714 220.467 281.221 220.483 281.028 220.921C279.95 223.355 278.841 226.853 276.43 228.356C276.022 228.606 275.46 228.317 275.306 228.434C275.006 228.653 275.098 229.209 274.128 229.647C272.256 230.492 264.093 232.018 262.16 231.666C261.513 231.549 261.027 231.04 260.342 230.891C258.301 230.437 257.2 230.007 255.521 229.381C254.697 229.076 250.684 228.544 251.231 230.39C252.278 230.625 251.608 231.197 252.009 231.823C252.941 233.278 256.892 235.336 258.524 235.743C263.176 236.894 270.03 237.614 274.567 236.103C291.279 230.523 296 209.613 283.208 196.614C279.372 193.985 275.352 189.876 271.301 187.521C267.45 185.291 265.109 184.805 261.736 181.112C261.305 180.642 261.289 179.828 261.127 179.68C260.735 179.343 258.162 179.116 257.631 178.357C257.292 177.88 257.408 176.995 257.084 176.463C256.653 175.759 255.036 174.358 254.689 173.857C254.265 173.255 254.127 172.409 253.488 171.885L254.181 171.189C253.672 170.351 253.819 169.545 253.934 168.63C253.988 168.207 255.636 163.441 255.783 163.198C256.083 162.713 259.248 161.015 260.018 160.593C262.968 158.949 265.825 158.3 269.507 158.605C269.961 158.644 273.666 159.63 274.197 159.833C275.537 160.342 279.049 162.001 280.166 162.792C281.59 163.801 284.502 167.127 285.572 168.528C287.243 170.719 286.65 175.015 287.567 177.747C288.66 178.341 290.347 178.607 290.008 177.011L291.448 176.956C291.448 175.477 292.165 174.139 292.226 172.66C292.45 167.761 290.871 165.617 288.36 161.939C286.897 159.802 286.697 158.769 284.425 156.938C283.431 156.132 281.775 155.498 280.99 154.872C280.635 154.59 280.689 153.8 280.759 153.722C281.606 152.845 287.474 156.672 288.375 157.603C289.153 158.409 289.631 159.638 290.54 160.483C291.895 161.751 296.038 163.738 297.818 164.615C298.095 164.748 298.095 165.264 298.364 165.327C298.857 165.444 300.336 165.452 300.813 165.335C301.098 165.264 301.052 164.591 301.276 164.584C302.716 164.513 305.242 165.382 307.082 164.959C307.391 164.889 307.367 164.325 307.591 164.216C308.53 163.738 309.601 163.918 309.747 162.338C307.398 160.264 304.31 161.015 301.414 160.295C300.621 160.099 297.941 159.153 297.379 158.769C296.816 158.386 296.886 157.54 296.539 157.18C294.829 155.443 291.479 152.43 289.431 150.724C288.645 150.067 287.043 149.621 286.304 148.658C286.219 147.649 290.478 148.478 290.894 148.486C297.163 148.596 305.303 148.627 310.487 145.121C311.603 144.362 316.979 139.447 317.657 138.438C318.373 137.373 318.943 135.456 319.551 134.157C319.867 133.468 321.169 131.402 321.33 130.651C321.4 130.315 321.638 128.577 320.984 128.609C320.961 129.571 319.959 129.743 319.536 130.33C318.666 131.543 318.827 131.301 318.011 132.232C316.34 134.149 315.431 135.973 312.928 137.186C306.828 140.144 298.441 139.917 291.61 140.191C291.002 140.214 287.967 140.191 287.759 140.042C287.259 139.69 287.39 139.252 287.397 138.72C287.636 138.477 291.656 138.453 292.365 138.328C294.537 137.937 294.598 137.35 297.201 137.553C297.371 137.569 297.294 136.927 297.617 136.849C298.079 136.732 298.696 137.006 299.135 136.771C299.289 136.685 300.906 134.353 301.276 133.891C302.539 132.31 303.994 130.088 304.818 128.116C306.189 124.813 306.782 121.98 305.673 118.474C305.303 117.3 304.117 116.322 303.871 115.821C302.677 113.419 301.946 110.516 299.935 108.622C294.105 103.136 286.157 101.727 279.85 107.221C279.241 107.753 277.655 109.827 277.524 110.492C277.347 111.423 278.24 113.356 277.27 114.718L275.653 114.788L275.429 115.461C274.297 114.632 272.31 113.09 272.318 111.517C272.318 111.048 272.834 110.641 272.88 110.226C274.451 97.3996 291.857 95.6779 301.722 99.6142C307.252 101.821 312.227 108.27 313.221 114.178C313.552 116.158 313.213 118.412 313.282 120.172C313.321 121.245 314.268 122.81 313.906 124.657C313.683 125.784 312.597 126.496 313.244 127.834C314.191 128.523 316.101 124.813 316.394 124.101C317.61 121.143 317.156 118.693 317.942 115.547C318.08 114.992 317.464 114.178 318.411 113.755C320.329 112.895 321.145 116.189 321.885 117.183C322.67 118.232 324.249 118.404 324.696 119.1C327.776 123.89 329.378 131.59 326.298 136.716C325.212 138.524 323.895 140.332 322.932 142.359C322.293 143.712 322.478 145.817 322.108 146.389C321.446 147.414 319.035 149.754 318.019 150.497C316.809 151.382 315.323 151.554 314.43 151.945C314.083 152.094 312.897 153.581 312.797 153.635C312.566 153.768 308.484 153.549 307.537 153.706C306.59 153.862 306.081 154.645 305.611 154.723C304.449 154.919 301.946 152.876 300.328 154.441C300.197 155.091 300.652 155.42 301.16 155.654C301.522 155.819 304.063 156.445 304.556 156.515C306.505 156.781 309.578 156.359 311.526 156.445C313.028 156.515 315.423 158.347 316.44 159.442C318.935 162.15 320.753 167.526 320.006 171.236C319.751 172.488 318.858 172.793 318.442 173.482C318.134 173.99 318.103 174.945 317.687 175.532C317.572 175.688 315.123 178.005 314.953 178.083C310.941 179.766 311.934 175.634 311.264 174.092C311.095 173.701 310.564 173.646 310.294 173.286C310.063 172.981 310.048 172.402 309.747 172.073C309.616 171.932 306.805 170.109 306.628 170.03C306.397 169.929 302.177 169.772 301.63 169.78C294.437 169.929 300.151 171.799 299.342 175.728C299.204 176.393 298.811 178.255 298.657 178.764C298.526 179.202 296.616 183.499 296.431 183.686C296.115 184.007 295.592 183.96 295.315 184.195C293.227 185.956 293.05 186.277 290.47 187.177C290.355 187.216 290.362 187.81 290.208 187.795C289.862 187.756 289.084 187.161 288.314 187.083C287.136 186.965 283.832 186.527 283.369 187.615C285.287 189.219 288.36 191.207 290.008 192.968C290.748 193.758 295.045 199.236 295.499 200.011C295.9 200.7 295.777 201.678 295.985 201.967C296.193 202.257 297.024 202.163 297.309 202.499C297.448 202.672 298.672 206.506 298.696 206.725C298.749 207.304 298.295 208.032 298.334 208.838C298.511 212.376 300.444 215.701 299.265 219.466C297.348 225.578 295.345 231.596 290.771 236.361C289.754 237.418 281.321 242.505 280.135 242.873C274.621 244.571 268.544 244.743 263.261 243.366C263.068 243.319 260.596 243.561 260.496 243.655C260.457 244.297 261.366 244.688 261.489 244.899C262.76 247.145 262.005 249.219 262.314 251.739C262.398 252.451 263.022 252.099 263.107 252.811C263.515 256.145 263.053 258.524 263.9 261.748C264.747 264.972 267.943 267.751 270.708 269.457C272.31 270.443 274.32 270.99 275.645 271.593C276.169 271.836 276.222 272.853 276.615 272.931C277.116 273.025 277.778 272.603 278.348 272.65C279.434 272.743 285.31 275.482 286.296 276.116C288.945 277.822 290.232 282.51 291.24 285.374C291.733 286.767 292.642 291.048 293.073 291.956C293.143 292.104 295.153 294.022 295.184 294.17C295.376 295.203 295.099 297.277 293.728 297.316L293.743 297.778C295.076 299.711 296.285 301.276 297.44 303.342C297.617 303.655 298.126 303.679 298.133 303.874C298.149 304.367 297.64 305.212 297.741 305.87L294.429 306.864C294.144 307.779 296.416 310.644 297.309 311.379L297.07 314.267L295.191 314.901C294.914 315.229 297.402 318.735 296.608 321.02C296.424 321.56 294.852 322.367 294.329 322.312C294.198 322.296 292.041 321.49 291.864 321.396C291.21 321.044 290.948 320.003 290.024 320.144V322.836L291.787 324.886C291.441 327.938 287.952 326.506 285.965 326.139C286.327 328.134 287.667 329.754 289.569 330.341C290.339 332.47 288.383 332.399 287.236 333.628L286.535 332.892L284.355 333.643C283.015 336.367 289.962 334.536 290.594 335.49C291.317 336.594 289.13 338.448 288.907 339.841L288.221 343.089L289.746 349.514L287.782 354.17L281.891 359.046L278.841 362.145L268.775 368.163L268.798 368.304ZM85.5329 8.4755C85.1632 8.15464 83.9849 8.09986 83.6152 7.26251C82.3675 8.25638 81.7052 9.45372 81.944 11.105C84.0619 12.3179 85.7331 14.6031 88.2207 14.7439C88.2207 14.2196 88.3208 13.6405 88.1514 13.1318C88.059 12.8501 85.7331 8.64767 85.5329 8.4755ZM96.6693 22.961C97.3624 22.2488 93.8351 15.2448 93.0264 14.5483C92.4103 14.024 92.8031 14.8222 92.5952 15.0022C92.495 15.0883 90.9162 14.8691 90.1769 15.5891C89.168 16.5673 89.2989 20.8324 90.2616 21.8575C90.4387 22.0454 94.8055 23.7044 95.0827 23.7514C95.6295 23.8375 95.7451 22.6323 96.677 22.961H96.6693ZM106.05 29.2529C105.403 28.3607 105.973 26.9052 105.357 25.6609C105.226 25.3948 104.086 23.8375 103.916 23.7044C103.038 23.0236 100.274 23.274 99.3956 23.8453C99.2801 23.9235 97.9708 26.06 97.9169 26.2713C97.3316 28.3529 98.2019 28.1886 98.5176 28.932C98.7641 29.5111 99.1183 30.7476 99.4264 31.1232C99.8577 31.6554 101.013 31.9841 101.606 32.3675C102.592 33.0092 101.991 32.8214 103.362 33.3771C104.186 33.7136 104.378 34.4883 105.58 34.097C106.781 33.7057 107.282 32.031 108.714 33.4944L108.16 34.6213H109.639L109.454 35.7561H108.545C108.044 36.6795 108.668 40.9367 109.269 41.8602C109.531 42.2593 109.993 42.0402 110.239 42.2436C110.601 42.5488 110.586 42.9871 111.256 43.2923C112.003 43.6288 113.143 43.6288 114.005 43.8792C114.822 44.114 115.238 44.8809 116.27 44.3722C116.847 45.9609 115.931 47.8703 117.556 48.8955C117.925 49.1303 120.244 49.7329 120.344 49.6233C120.398 49.5685 120.244 48.9738 120.467 48.6373C120.844 48.0816 122.585 46.5087 123.209 46.3365C124.78 45.9061 127.537 46.3208 126.258 43.4331C124.934 43.3705 122.862 42.1262 121.876 41.9463C120.598 41.7193 119.35 42.2202 117.771 41.1167C114.768 39.0116 115.569 36.2256 114.329 34.7387C114.229 34.6135 112.357 32.9936 112.234 32.9388C111.472 32.6023 110.563 32.931 110.101 32.6727C110.001 32.618 109.346 31.3658 108.73 30.8806C108.114 30.3954 106.389 29.7068 106.081 29.2685L106.05 29.2529ZM140.599 42.4628L140.922 36.0143C139.936 34.2144 139.366 31.9215 137.472 30.9354C137.279 30.9354 135 33.6353 134.884 33.8779C134.707 34.2614 135.038 34.6526 134.961 34.9031C134.938 34.9735 134.384 34.9735 134.33 35.2318C134.283 35.4431 134.476 39.2933 134.561 39.5203C135.269 41.4454 136.424 40.7411 137.88 41.3202C138.827 41.6958 139.313 42.8697 140.599 42.4628ZM47.1793 118.02C43.9678 116.635 39.7704 116.228 36.5127 117.512C35.2881 117.989 33.9404 119.069 33.0393 119.672C32.4309 120.079 31.5067 120.086 30.8829 120.509C28.2336 122.317 25.4071 126.41 21.9106 127.122C20.9787 127.31 17.4283 127.137 17.0818 127.31C16.9893 127.357 16.5504 128.562 15.5492 128.35C15.5029 128.718 15.4875 129.023 15.6493 129.376C16.1884 130.589 21.9414 133.523 22.7886 135.104C24.1903 135.073 26.5007 133.492 27.7176 134.126C28.7958 134.689 28.3568 136.074 28.5262 136.771C28.5724 136.967 29.1731 136.888 29.1808 137.17C29.1808 137.436 28.8882 137.773 28.8959 137.968C29.0653 140.253 32.5772 137.139 33.2626 136.787C34.2253 136.294 35.3729 136.09 36.3202 135.495C38.4843 136.583 37.7834 138.978 39.6934 139.948C41.742 137.452 40.271 132.295 44.5146 132.107C45.1153 132.083 48.6272 132.702 49.1894 132.928C50.8606 133.609 53.972 137.076 55.7588 137.913C56.1901 138.117 56.7985 137.671 56.8293 137.71C56.914 137.804 56.7446 138.54 57.2221 139.001C57.6226 139.4 59.3708 139.878 60.1795 140.496C61.2423 141.31 65.3549 147.077 66.4562 146.154C66.6102 144.824 67.6961 144.378 67.5498 143.204C69.0285 142.405 70.4764 145.661 69.1209 146.89C69.8295 147.837 71.3236 150.904 72.7098 150.263C74.2501 149.55 73.9575 147.657 74.5813 146.342C77.5002 146.404 75.6056 150.842 78.0547 152.321C81.0583 150.247 79.0097 144.346 77.5772 141.568C75.906 138.328 75.0588 137.507 72.24 135.613C70.8769 134.697 68.189 132.803 66.6795 131.645C65.6706 130.87 64.5924 129.172 63.5681 128.35C58.8317 124.547 52.6859 120.392 47.1639 118.013L47.1793 118.02ZM199.631 125.721L198.899 125.901C199.23 127.654 202.326 130.956 203.982 131.238C204.922 131.402 206.316 130.675 207.386 131.332V129.829C207.178 129.947 206.87 130.072 206.662 129.963C204.521 128.789 202.057 127.889 199.962 126.41C199.677 126.206 199.592 126.073 199.631 125.721ZM20.9864 136.685C20.0622 136.301 15.3566 137.593 14.3708 138.125C12.8998 138.915 12.6919 139.972 11.8293 140.872C11.3903 141.333 10.4507 141.545 10.1196 141.944C7.61659 144.902 15.4259 145.442 17.0124 145.731C17.7518 145.864 18.5604 146.772 19.5231 146.256C20.6322 144.37 22.9503 140.026 22.0877 137.976C22.0569 137.898 21.048 136.724 20.971 136.693L20.9864 136.685ZM207.394 148.588C205.091 148.455 203.351 147.555 201.841 145.778L197.806 145.019L203.705 150.278C204.629 149.863 206.077 149.793 206.932 149.394C207.409 149.175 207.525 149.402 207.394 148.58V148.588ZM280.304 169.357C278.648 167.659 278.587 166.728 275.953 166.078C274.289 165.664 273.881 166.235 272.533 166.211C271.54 166.196 269.93 165.405 269.229 165.452C269.022 165.468 269.029 166 268.891 166.055C268.005 166.446 266.773 166.791 266.18 167.816C265.687 168.669 265.194 173.294 265.533 174.084C265.617 174.288 267.82 177.481 268.028 177.684C268.459 178.107 269.53 178.42 269.668 178.662C269.861 179.007 269.63 179.617 269.83 179.977C270.054 180.368 276.561 184.625 277.285 184.97C280.736 186.621 280.119 185.259 281.683 183.569C283.832 181.253 284.093 181.769 284.155 178.02C284.194 175.438 284.155 174.108 282.807 171.862C282.322 171.048 280.982 170.046 280.304 169.357ZM87.697 190.362C85.3711 189.29 84.0542 188.843 81.582 190.01C83.5921 191.763 86.2491 191.692 88.3593 193.257C90.2154 194.635 91.1396 197.475 93.3807 198.446C93.7889 195.691 92.9494 194.901 91.3937 193.14C91.2012 192.921 91.2551 192.396 91.0625 192.185C90.9316 192.044 88.059 190.534 87.697 190.362ZM40.7485 234.554C41.3415 233.724 42.3504 234.264 42.1348 231.995C42.0732 231.345 41.0566 229.005 40.4636 228.935C39.1697 228.778 38.9156 230.163 38.2455 230.703C36.0198 232.464 33.9558 234.624 31.7609 236.135C31.4297 236.361 30.8521 235.97 30.467 236.275C29.1346 237.348 31.0292 239.179 30.6672 239.695L29.9279 239.507L30.7211 243.389C33.2703 244.093 34.0328 241.965 35.4961 240.666C38.415 238.083 38.5074 237.715 40.7485 234.569V234.554ZM249.714 269.832C249.052 269.402 248.79 269.089 248.304 268.768C247.373 268.142 246.187 267.688 245.232 267.046C244.947 267.946 242.883 269.605 242.644 270.051C242.39 270.537 242.536 271.264 242.374 271.468C242.266 271.609 239.617 272.532 239.117 272.673L239.417 273.346C237.661 273.737 235.628 277.666 236.999 278.934C237.199 279.121 237.746 279.035 237.984 279.239C238.393 279.583 238.277 280.178 238.639 280.546C240.541 282.447 248.397 286.446 250.307 286.548C250.854 286.579 251.786 288.34 251.886 288.426C252.417 288.896 254.119 289.287 254.951 290.109C255.405 290.555 256.976 292.981 257.331 293.654C258.363 295.634 258.686 297.919 259.279 300.298C260.119 303.655 261.32 304.477 259.695 308.39C259.518 308.82 259.11 309.078 258.632 310.205C256.899 314.306 256.699 315.91 253.857 319.307C247.881 326.428 242.205 327.704 234.041 331.366C228.165 333.996 227.765 337.728 223.998 342.565C222.373 344.646 219.624 347.339 217.876 349.271C216.543 350.751 215.034 351.823 214.764 353.998C218.176 355.689 222.689 355.657 225.308 352.527C226.478 351.126 226.278 349.021 229.182 350.868C228.912 352.504 229.212 353.998 228.134 355.313C229.089 357.355 230.275 355.962 231.492 356.236C231.754 356.299 231.708 356.878 231.985 356.972C233.102 357.324 236.406 355.775 237.445 355.109C238.138 354.663 239.101 353.403 239.209 353.349C239.702 353.09 240.372 353.349 241.173 352.903C242.374 352.222 242.544 350.461 243.168 349.405C243.453 348.927 244.515 348.732 244.592 347.753L243.506 345.421C241.735 345.359 237.345 344.913 239.093 342.174C239.532 341.86 241.234 341.947 241.866 342.025C243.406 342.236 244.639 342.58 246.294 342.393C249.152 342.072 249.791 340.968 251.955 339.787C252.486 339.497 255.367 337.924 255.559 337.885C255.744 337.846 257.847 337.979 257.939 338.057C257.939 339.841 258.763 339.435 259.04 339.771C259.241 340.021 255.906 344.404 256.46 345.006C258.671 345.343 260.265 347.072 262.491 347.691C264.539 348.254 267.389 347.808 268.844 348.317C270.577 348.919 272.526 352.112 274.713 351.776C277.409 351.361 273.712 346.908 273.596 345.961C273.535 345.46 273.935 344.803 273.804 344.146C273.75 343.887 273.188 343.934 273.088 343.606C272.788 342.643 273.08 340.671 272.972 340.561C272.757 340.334 271.463 340.374 273.589 339.364C275.991 338.214 275.09 340.554 276.538 340.115C276.977 339.982 277.47 338.887 277.493 338.417C277.501 338.151 276.5 333.753 276.361 333.291C276.169 332.634 275.46 331.014 275.214 329.895C274.798 328.025 273.989 323.806 274.536 322.046C274.651 321.678 275.291 321.56 275.653 321.216C275.899 320.981 275.914 320.301 276.222 320.246C277.678 319.995 278.61 322.727 279.188 322.867C282.422 323.658 280.312 314.486 279.973 313.062C279.65 311.716 278.125 310.479 279.58 309.008C281.352 308.695 282.707 309.634 284.124 310.518C284.594 307.959 281.436 305.33 281.028 303.788C280.682 302.466 282.415 299.523 280.435 298.717C281.999 297.528 280.435 296.002 282.245 295.352C280.982 293.654 282.191 292.621 282.499 291.017C282.63 290.336 281.691 285.828 281.429 285.484C281.267 285.28 277.824 282.126 277.593 282.009C277.439 281.931 275.198 281.305 275.067 281.289C273.381 281.117 270.932 281.273 269.26 280.773C267.058 280.107 265.617 278.965 263.715 278.519C260.804 277.83 252.756 271.789 249.714 269.824V269.832ZM288.36 300.259C288.067 299.86 287.636 299.069 287.22 298.975L285.849 299.758C285.179 301.284 286.789 303.303 288.368 303.06C289.947 302.818 288.93 302.027 288.768 301.323C288.714 301.104 288.968 300.76 288.845 300.517C288.791 300.4 288.453 300.384 288.36 300.267V300.259Z" fill="black"/>
<path d="M296.184 111.963C296.315 112.127 297.74 114.499 297.771 114.655C298.087 116.291 297.417 117.926 297.378 119.523C297.355 120.384 297.91 121.354 297.794 122.082C297.748 122.371 297.109 122.332 296.924 122.786C296.354 124.195 296.739 124.578 295.561 126.159C293.728 128.609 291.094 130.299 288.26 131.238C287.197 131.59 285.887 131.645 284.886 131.966C283.123 132.521 281.482 134.016 279.703 133.202L280.481 131.371C282.129 132.529 282.738 130.995 282.899 130.964C283.739 130.776 284.655 131.199 285.595 130.768C286.273 130.463 286.488 129.462 286.912 129.086C288.914 127.325 291.394 126.003 292.788 123.428C292.973 123.084 292.634 122.575 292.711 122.403C292.75 122.324 293.319 122.309 293.466 121.878C293.712 121.19 294.398 118.779 294.205 118.31C292.572 116.807 291.171 113.223 288.729 113.121C288.568 113.121 285.787 114.045 285.68 114.17C285.31 114.624 285.803 115.915 284.463 116.87C284.101 117.128 281.867 118.036 281.567 117.809C281.374 116.573 280.258 115.993 280.427 114.687C280.458 114.46 282.607 111.016 282.761 110.86C283.184 110.437 285.117 109.224 285.672 109.075C285.895 109.013 289.276 108.629 289.469 108.637C289.838 108.637 292.865 109.342 293.242 109.498C293.42 109.568 295.992 111.76 296.169 111.963H296.184Z" fill="black"/>
<path d="M104.455 172.198C104.347 172.323 103.562 171.908 103.716 172.574C106.165 173.286 106.088 171.869 107.112 171.353C108.268 170.766 109.199 171.345 110.355 171.462L109.246 173.325C109.461 173.614 112.919 173.794 113.404 173.63C113.951 173.442 114.229 172.746 114.598 172.707C114.798 172.683 116.631 173.207 116.631 173.873C116.631 174.256 115.969 175.743 115.638 175.978C115.376 176.158 112.388 177.715 112.01 177.856C110.67 178.372 109.115 178.2 107.859 177.559C106.011 176.604 106.427 177.019 104.54 176.565C103.616 176.346 98.8871 173.841 98.3865 173.301C98.1324 173.027 97.5778 172.3 98.194 172.034C99.9037 170.727 101.975 170.938 103.531 169.952C103.962 170.085 103.392 170.68 103.539 171.087C103.662 171.407 104.632 171.971 104.448 172.19L104.455 172.198Z" fill="black"/>
<path d="M170.018 221.43C170.219 221.547 170.303 222.134 170.75 222.353C171.474 222.705 173.33 223.574 174.015 223.598C175.402 223.644 178.305 222.15 180.238 222.447C180.462 222.478 184.266 223.887 184.443 224.036C184.513 224.091 185.283 225.538 185.252 225.617C184.898 226.556 183.357 225.468 182.487 225.429C181.948 225.405 181.409 225.828 181.032 225.828C180.793 225.828 180.978 225.045 180.284 225.022C179.314 224.983 178.89 225.562 178.12 225.703C177.173 225.867 176.241 225.155 175.794 225.147C175.263 225.147 174.917 225.726 174.385 225.757C173.03 225.828 170.773 225.319 169.772 224.826C165.344 222.627 167.138 219.763 170.018 221.445V221.43Z" fill="black"/>
<path d="M145.327 210.505C145.381 210.56 145.196 210.982 145.304 211.17C146.105 212.579 146.198 213.463 146.868 214.473C148.331 216.687 150.295 218.933 150.58 221.68C150.033 222.205 147.699 220.592 147.183 220.162C145.127 218.464 144.835 216.867 144.134 214.551C143.679 213.033 142.501 212.383 143.926 210.216C144.249 209.957 145.15 210.302 145.335 210.505H145.327Z" fill="black"/>
<path d="M197.598 306.629C198.406 307.732 197.744 307.677 198.152 308.39C198.414 308.843 199.3 308.507 198.899 310.33C198.699 311.246 197.405 312.279 196.55 312.013C195.572 311.708 195.942 310.056 195.703 309.407C195.272 308.233 194.232 307.341 194.502 305.705C196.327 304.884 196.566 305.228 197.598 306.629Z" fill="black"/>
<path d="M201.857 303.037C200.547 303.201 200.663 302.332 200.332 301.863C200.139 301.597 198.815 300.814 200.224 300.423C201.633 300.032 202.126 301.988 201.857 303.037Z" fill="black"/>
<path d="M171.027 329.112C171.181 329.269 171.589 329.292 171.597 329.504C171.112 332.853 171.181 337.447 166.807 337.157L166.437 334.911L167.569 334.708L167.23 331.976L170.688 328.533C170.95 328.424 170.804 328.885 171.035 329.112H171.027Z" fill="black"/>
<path d="M191.814 317.741C192.384 318.555 192.237 323.353 191.49 323.986C188.248 324.894 187.94 320.707 188.833 318.485C189.011 318.039 190.043 317.945 189.688 316.904C189.827 316.763 191.691 317.569 191.814 317.741Z" fill="black"/>
<path d="M182.302 324.026C182.78 325.982 183.311 327.657 182.672 329.652C180.208 329.417 181.27 326.256 180.477 324.417L182.302 324.026Z" fill="black"/>
<path d="M268.528 283.668C268.621 283.699 268.652 284.098 268.767 284.145C272.187 285.593 273.958 286.642 275.437 290.312C275.699 290.962 276.345 293.067 276.561 293.842C277.223 296.174 275.768 298.193 274.636 300.016C274.459 300.298 273.665 300.689 273.565 300.908C273.296 301.472 273.334 302.927 272.818 303.052C271.493 303.373 270.577 303.006 269.722 302.082C270.261 301.401 270.3 300.431 270.608 299.789C270.677 299.64 271.17 299.554 271.432 298.96C272.009 297.661 272.525 296.033 272.241 294.601C272.194 294.382 271.686 294.475 271.601 294.155C271.054 292.175 271.278 290.57 269.745 288.614C269.53 288.34 266.541 285.625 266.333 285.531C266.033 285.398 261.643 284.435 263.33 283.144C263.923 282.69 267.697 283.394 268.536 283.676L268.528 283.668Z" fill="black"/>
<path d="M130.579 336.852C132.189 338.746 127.46 342.416 126.89 344.224C125.257 343.707 123.386 345.452 121.961 343.903C122.354 340.303 125.126 338.386 128.145 337.11C128.484 336.969 128.453 336.414 128.677 336.39C128.931 336.359 130.487 336.742 130.579 336.852Z" fill="black"/>
<path d="M234.611 337.462C234.557 337.588 232.925 338.832 232.67 339.411C232.339 340.162 232.632 341.367 232.416 341.61C232.347 341.696 230.753 342.252 230.414 342.526C229.482 343.261 229.944 344.302 227.757 343.457C227.441 342.447 227.148 341.657 227.587 340.632C227.711 340.342 231.638 336.179 231.908 336.015C233.21 335.24 235.204 336.163 234.611 337.47V337.462Z" fill="black"/>
<path d="M268.506 312.193C269.753 312.975 269.437 314.204 269.961 315.026C270.408 315.73 272.01 315.91 269.938 317.585C268.113 316.841 265.664 313.946 267.343 312.036C267.859 311.449 268.013 311.88 268.506 312.185V312.193Z" fill="black"/>
<path d="M261.12 335.436C262.483 336.234 261.767 338.973 260.704 339.043C257.669 339.254 260.38 336.797 258.309 336.218L259.649 334.888C260.303 334.817 260.642 335.162 261.12 335.436Z" fill="black"/>
<path d="M266.849 323.939L266.788 322.899L265.686 323.274L265.671 321.279C267.75 319.416 270.307 322.359 268.289 324.205L266.857 323.939H266.849Z" fill="black"/>
<path d="M272.295 309.751L271.124 310.831C270.393 311.27 268.537 309.798 268.614 309.243C269.515 306.903 271.817 307.505 272.287 309.751H272.295Z" fill="black"/>
<path d="M264.532 330.349L261.628 329.644C260.72 328.619 266.542 324.855 264.532 330.349Z" fill="black"/>
</g>
<defs>
<clipPath id="clip0_19_2287">
<rect width="328" height="369" fill="white"/>
</clipPath>
</defs>
</svg>
