<svg width="329" height="371" viewBox="0 0 329 371" fill="none" xmlns="http://www.w3.org/2000/svg">
<path d="M220.443 6.58919C219.093 5.81792 212.964 5.83545 211.226 5.93186C209.178 6.05456 208.697 5.39723 207.177 6.37884C206.898 6.5629 206.44 6.06332 206.153 6.26491C205.912 6.43143 205.959 7.21146 205.548 7.33416C205.183 7.43934 204.438 6.96606 203.795 7.10629C202.181 7.4481 201.056 9.47268 200.187 10.1125C199.225 10.8312 196.588 10.9451 195.579 12.8032L195.866 13.5481L194.066 14.0214C194.152 14.705 193.624 18.7805 193.097 18.9558C191.871 19.3677 192.127 17.571 190.917 16.8698C187.635 14.968 183.826 13.031 180.196 12.9522C178.318 12.9171 178.303 12.4263 177.248 12.3124C176.48 12.2335 175.153 12.9171 174.215 12.8032L171.903 17.9041C172.252 18.5351 172.81 21.3485 173.004 21.6728C173.377 22.295 174.44 22.5842 174.517 22.9962C174.618 23.5045 174.346 24.4949 174.548 24.7491C174.649 24.8718 175.27 24.6614 175.51 24.8542C175.65 24.9682 176.767 27.4485 177.434 27.8955C177.768 28.1234 178.667 27.466 179.412 27.7377C179.862 27.9043 180.63 29.6133 181.041 29.736C182.158 30.0866 184.408 29.6133 184.936 29.7798C185.347 29.9025 185.277 30.814 185.758 30.9455C186.068 31.0331 186.689 30.4722 187.03 30.7702C187.372 31.0682 187.325 32.0498 187.759 32.4705C188.194 32.8912 189.28 32.9087 189.939 33.3382C190.653 33.8027 191.204 35.0648 191.817 35.3715C192.399 35.6695 193.112 35.4767 193.632 35.8185C195.238 36.8527 197.356 39.7274 198.923 41.2787C199.443 41.7871 201.32 42.8388 201.739 43.3033C202.003 43.5926 203.205 46.1956 203.197 46.625C203.19 47.3174 202.398 47.5804 202.615 48.5006C203.027 50.2973 204.384 50.534 205.075 51.2877C205.812 52.094 205.765 53.435 206.029 53.9083C206.781 55.2229 208.822 55.3982 207.953 58.01L204.71 59.351C205.051 60.1573 205.067 61.1389 205.416 61.9365C205.54 62.2257 206.859 64.5483 207.161 65.0391C207.627 65.8016 208.713 66.196 208.736 66.9848L208.015 68.6851L203.942 68.8867C203.756 70.5081 204.516 70.4555 204.687 70.8324C204.904 71.3144 204.881 71.8928 205.082 72.2872C205.431 72.9709 207.495 75.1532 206.89 75.9508C205.618 76.1524 204.314 76.5993 203.003 76.3978C202.499 76.3189 200.211 73.7509 199.706 75.9683C199.218 76.0472 196.89 74.6361 196.929 73.8824L194.004 74.6975L194.734 73.8736C191.918 72.4012 192.492 75.6878 191.77 77.7124C190.707 77.9315 190.948 80.4907 190.141 80.1051C189.334 79.7195 188.644 77.6861 188.318 76.8886C188.271 76.7659 187.767 76.7396 187.736 76.573C187.48 75.3373 189.047 75.5651 188.124 74.5485C187.767 74.1628 187.232 74.3819 187.085 74.1979C186.689 73.6896 187.612 72.8657 186.107 73.0585C185.463 73.1374 184.858 73.5406 184.431 74.084C184.106 74.899 185.23 74.6449 185.168 74.899C184.936 75.8281 184.036 76.0998 183.671 76.6519C183.384 77.0902 183.516 78.0104 183.229 78.3347C182.942 78.659 181.592 78.8167 181.305 80.0963C179.986 78.8956 180.63 77.1953 180.7 75.6966C180.723 75.2584 181.018 74.5923 180.39 74.7062C180.273 76.7045 179.156 75.2409 178.621 75.5914C178.38 75.7492 176.767 77.8088 176.325 78.1769C171.786 82.0245 164.657 83.6021 158.87 81.9456C157.427 81.5337 151.484 78.0893 150.437 76.8185C150.111 76.4241 150.189 76.0034 150.197 75.5301L149.654 76.3539C148.661 75.7755 148.389 74.3732 147.257 74.6975C147.039 74.8815 148.785 80.3418 146.527 80.1051C146.814 78.2909 145.015 78.2733 144.402 77.4933C143.967 76.9324 144.324 76.1874 144.216 76.0209C144.022 75.7404 142.594 75.4249 143.269 74.3206C143.378 74.1365 144.107 74.566 143.944 73.8648L139.894 73.0322C139.98 75.0305 139.701 76.985 139.15 78.8518C138.483 78.5188 136.241 77.9578 135.915 77.5371C135.806 77.3969 135.387 74.8377 134.418 74.5047L134.743 73.4529C133.293 73.225 132.866 74.0927 131.889 74.5923C131.206 74.9516 129.965 74.2943 129.949 75.942C128.235 73.2864 128.809 75.6002 127.769 75.7492L123.914 75.1006L122.603 76.9937C119.616 76.4766 123.099 72.7167 123.34 70.9551L124.061 71.3758L124.798 68.054C122.556 67.2389 120.741 69.6229 119.313 66.5378C119.166 65.5825 121.625 63.032 122.052 62.103C122.797 60.4728 122.378 59.0968 124.426 57.861C124.907 56.5025 121.625 57.6857 121.284 57.677C120.027 57.6507 119.523 56.7392 119.631 55.3719C121.268 55.2668 120.942 53.7768 121.625 52.8215C122.145 52.1028 123.541 50.5778 124.193 49.8766C124.387 49.6751 124.953 49.8591 125.194 49.4998C126.272 47.8521 124.239 45.6259 124.961 44.3375C125.388 43.5663 129.111 42.2779 129.841 41.7257C131.027 40.8142 132.587 38.702 134.123 37.8343C134.573 37.5802 135.224 37.8256 135.418 37.6152C135.558 37.4662 135.372 36.8089 135.558 36.546C136.241 35.6169 142.943 31.6467 144.192 31.0156C145.115 30.5511 147.388 30.3145 147.66 29.0086L148.715 29.3679C149.731 26.204 153.633 25.0821 155.356 21.6815C156.217 19.9812 158.11 15.6516 156.705 14.074C156.55 13.9075 156.038 14.0302 155.844 13.8461C155.55 13.5569 155.456 13.0223 155.123 12.7856C153.758 11.804 153.052 12.7681 151.919 12.6542C149.708 12.4263 151.228 11.7076 148.599 12.8295C147.28 13.3904 145.441 15.0731 145.24 15.1082C144.526 15.2221 143.735 14.4772 142.641 15.6691C142.315 14.5911 141.974 14.7489 140.981 14.8277C142.09 17.0627 140.453 16.5806 139.32 17.3168C138.56 17.8076 136.605 19.876 136.07 19.7446C134.317 19.3414 135.845 16.1599 135.651 15.6428C135.325 14.7839 133.735 13.9513 133.262 13.3466C132.858 12.8382 132.944 12.0231 132.858 11.9355C132.703 11.769 131.322 12.3474 130.609 11.918C130.213 11.6813 129.965 10.8136 129.336 10.2965C128.367 9.49898 127.156 9.22728 126.357 8.90299C126.272 8.86794 125.644 7.58833 125.341 7.4481C124.402 7.01865 122.401 7.36922 121.276 6.95729C120.655 6.72942 120.741 6.15097 120.508 6.10715C116.427 5.33588 109.096 6.35255 105.924 8.28072C105.326 8.64006 104.465 8.71894 103.829 9.05199C103.736 10.0511 104.263 11.8741 105.272 11.0766C105.008 13.5832 108.522 12.5753 109.143 14.4158C109.934 14.6086 109.523 13.8549 110.136 13.4342C110.904 12.9171 111.703 12.7155 112.425 12.2773C112.82 12.0407 112.913 11.1993 113.193 11.1467C113.945 11.0065 115.706 11.5674 116.652 11.0941C116.567 12.7593 117.692 13.1012 119.011 12.733C119.282 12.6542 119.236 12.0407 119.507 11.9442C121.183 11.3658 123.014 14.1003 124.232 13.1625C124.542 14.7664 125 14.1266 125.675 14.8628C127.257 16.5894 129.197 18.6315 129.235 21.2696C129.282 24.6001 125.907 28.6668 122.851 27.1943C121.935 26.7561 122.067 25.9936 121.773 25.7394C121.617 25.5992 118.662 25.6956 117.987 24.8016C117.079 25.4152 117.863 26.0725 117.622 26.8963C117.343 27.3609 116.513 26.5195 116.691 27.7114H115.962C116.296 26.09 115.194 26.6334 114.457 25.8884C113.72 25.1435 112.393 22.2337 112.137 21.1031C111.812 19.6745 112.673 16.5017 110.314 16.5806C110.136 16.5806 107.677 17.422 107.498 17.5359C106.397 18.2634 106.133 20.7612 106.024 22.0584L106.754 22.5141L106.024 23.5483C107.242 23.3993 106.412 24.3547 106.614 24.8016C107.126 25.9498 110.283 30.0778 111.276 30.516C112.013 30.8403 114.364 29.7272 114.666 31.4538C115.993 29.5607 117.863 31.0244 116.885 33.1278C116.249 34.5039 112.494 34.6616 112.316 34.8457C112.215 34.9508 112.339 35.5643 112.153 35.8623C110.904 37.8782 110.392 38.4829 109.275 40.7704C109.05 41.2262 108.406 41.2437 108.235 41.7608C108.01 42.4532 108.057 43.9344 107.855 44.7582C108.988 45.3104 109.678 43.6627 109.787 43.6101C110.089 43.4699 112.417 43.3121 112.603 43.5487C112.681 44.1184 112.719 44.7933 112.611 45.3542C112.192 47.6067 107.56 51.8662 107.669 54.7409L106.738 55.3632C107.281 56.6252 108.173 56.1432 107.475 57.6507L109.88 57.5893C110.19 56.0468 111.998 57.2913 111.897 58.6586C111.819 59.7366 109.965 61.4369 109.438 62.3659C109.166 62.848 109.244 63.7069 108.833 64.408C107.739 66.2836 104.737 68.2644 106.948 70.473C108.569 70.6045 109.709 69.5615 111.23 69.395C112.169 69.2986 113.751 69.4125 113.386 70.7622C112.137 72.2259 111.501 74.8465 110.555 76.3364C109.073 78.6765 107.925 79.2988 106.769 82.4715C106.715 82.6293 107.087 83.234 106.948 83.4619L105.629 83.8563L106.389 84.5136C106.273 85.653 104.504 90.0965 105.637 90.9116C106.513 91.5427 106.847 90.0702 106.932 90.0702C107.297 90.0702 107.855 90.5523 108.398 90.5348C109.787 90.5085 110.493 89.6846 111.369 88.9046C113.239 87.2481 114.418 85.1446 117.025 86.3454C117.188 87.0115 116.513 86.6434 116.427 86.8362C116.265 87.1868 116.241 88.1333 115.877 88.8871C115.341 89.9914 113.953 90.6399 114.829 91.9458L113.72 92.1649C113.565 92.9012 114.348 92.4366 114.457 92.5769C114.597 92.7609 113.821 93.5059 113.852 94.023C113.86 94.172 114.744 96.626 114.837 96.8276C116.187 99.6235 120.012 95.9599 121.749 95.4253C121.447 93.8389 123.495 92.9275 124.271 92.0247C124.914 91.271 125.147 89.3516 126.357 89.7109C127.552 90.0703 127.04 91.4901 127.172 92.349C127.397 93.7776 127.374 94.9608 127.56 96.1002C128.917 104.488 132.183 99.045 135.232 95.5568C137.009 95.513 138.878 99.0012 138.421 100.859C139.701 101.07 140.36 102.7 141.694 101.929C142.61 101.394 144.285 97.3447 145.876 98.0546C146.015 98.116 147.994 100.342 148.087 100.482C148.482 101.131 150.073 105.969 150.274 106.214C150.414 106.372 150.934 106.284 151.112 106.468C152.19 107.599 151.841 108.589 153.556 107.424C154.014 107.117 154.285 106.346 154.471 106.302C154.867 106.223 158.831 106.355 159.017 106.504C159.281 107.774 160.173 108.186 160.569 109.352C160.755 109.913 161.151 111.043 161.282 111.482C161.461 112.086 161.174 112.902 161.236 112.937C161.399 113.042 161.919 112.849 162.198 113.077C162.562 113.384 162.423 114.172 163.191 114.199C165.596 114.286 165.41 112.902 166.1 111.096C166.255 110.702 166.821 109.054 166.977 108.817C167.248 108.405 169.304 106.057 169.575 105.96C169.777 105.89 173.594 105.916 173.796 105.978C174.664 106.241 175.983 107.871 176.844 107.941C177.861 108.029 177.899 107.161 178.272 106.854C178.551 106.626 179.079 106.784 179.195 106.679C179.242 106.635 179.009 105.969 179.257 105.312C179.583 104.426 180.103 104.312 180.304 103.874C181.173 102.016 181.84 98.7207 183.943 98.0809C185.347 97.6515 185.649 99.3518 186.766 100.316C187.255 100.737 190.048 102.717 190.257 102.542C190.863 101.815 190.956 100.132 191.126 99.7199C191.258 99.4131 192.344 99.5008 191.933 97.5989C192.779 97.2133 192.569 95.4253 193.384 95.4954C195.184 95.6619 197.363 98.8259 199.132 99.8426C199.512 100.062 199.799 100.132 200.218 100.062C201.351 97.2746 201.576 95.399 201.692 92.3665C201.723 91.5953 200.901 90.4909 201.933 90.1316C203.841 89.4655 203.5 90.7802 204.043 91.604C204.547 92.3753 205.734 94.3999 205.858 94.5576C206.898 95.8811 212.049 100.035 213.406 99.1414C214.353 98.5191 214.081 93.1378 213.864 91.9371C213.717 91.122 213.205 91.3761 213.05 90.7539C212.809 89.7986 211.824 86.2665 212.351 85.7143C214.337 84.1981 213.942 85.6092 214.803 86.2753C216.098 87.2744 218.045 88.0018 218.239 89.8862L223.414 90.9116L222.677 90.2894C222.444 89.3603 223.313 89.8599 223.406 89.4129C223.84 87.362 222.343 86.8362 222.033 86.0562C221.746 85.3375 221.451 83.5583 221.513 82.6818L220.846 82.5942L221.575 81.9807C220.737 81.3584 220.551 80.4382 220.094 79.5792C219.163 77.8264 217.549 75.4424 216.54 73.7421C216.292 73.3215 216.246 72.7693 216.067 72.5239C215.4 71.5949 213.368 70.587 214.275 68.9392C215.555 66.6079 218.868 72.0156 219.248 72.1733C221.358 73.0585 221.467 67.5545 221.094 66.0557C221.079 65.9856 220.59 65.9243 220.505 65.6526C220.163 64.5483 220.016 63.3475 219.457 62.3221C218.806 61.1477 217.246 60.5166 217.146 58.6936C217.053 57.0284 219.504 58.7112 219.985 58.7813C221.979 59.0793 221.699 56.0994 221.389 54.7321C220.799 52.1554 219.31 50.2185 218.41 47.6943L215.672 44.9686L216.261 43.5224C217.96 44.1622 220.683 45.1351 221.575 42.8739C220.303 42.1114 220.047 40.0605 219.271 38.8072C218.146 37.0017 216.075 36.4233 214.461 35.1174C213.771 34.5564 211.7 32.8474 211.661 32.0849C211.529 29.7974 214.229 30.8228 215.493 30.6387C216.579 30.481 217.464 29.736 218.558 30.0603C219.046 28.4739 221.35 26.8613 221.738 25.608C222.111 24.3985 221.676 22.3126 223.049 22.2863C221.94 21.0067 222.84 21.1644 223.049 19.8059C221.234 18.9908 219.969 18.2722 217.898 18.1319C218.146 18.8331 217.223 20.7525 216.789 21.2433C216.44 21.6377 215.804 21.6289 215.447 22.0409C214.741 22.8559 211.808 26.7386 211.265 27.0453C209.9 27.8254 208.651 26.8963 207.41 26.8613C205.711 26.8175 204.423 27.2557 202.414 26.686C199.272 25.7833 199.567 19.727 201.025 17.1591C202.22 15.0556 203.259 14.1003 205.098 13.1099C205.377 12.9609 205.377 12.3649 205.641 12.3036C206.401 12.1283 207.231 12.6542 208.185 12.3912C209.241 12.102 209.721 11.2519 210.97 10.8925C212.631 10.4192 213.476 11.1554 214.694 11.357C215.26 11.4534 216.129 11.0766 216.696 11.3395C217.487 11.6988 217.208 12.5139 217.634 13.0135C218.744 14.3106 219.729 14.1879 221.187 14.372C221.149 13.3641 221.855 12.6542 222.064 11.804C222.211 11.2168 221.886 10.5682 222.017 10.1125C222.304 9.06952 224.104 8.3596 221.552 7.12382C220.939 6.82583 221.032 6.94853 220.396 6.58042L220.443 6.58919ZM164.13 16.1599C163.936 16.0548 162.089 16.7384 161.895 16.8786C160.988 17.5447 161.065 23.522 160.879 24.9769C160.716 26.2302 159.615 34.1095 159.382 34.5301C159.134 34.9684 158.497 34.9947 158.335 35.503C157.326 38.6757 158.482 42.8826 157.954 46.1255C157.9 46.441 157.419 46.4322 157.38 46.5199C157.07 47.2911 154.789 51.2088 154.254 51.612C153.998 51.8048 151.903 51.7259 151.322 52.2343L151.694 53.4788L150.965 53.0581C150.523 54.9162 149.607 56.2834 148.987 58.1678C148.35 60.1135 147.412 64.4431 147.396 66.5027C147.373 70.0523 148.125 68.913 148.847 70.6483C149.01 71.0339 148.738 71.6913 148.785 71.7263C148.94 71.8666 149.623 71.814 150.034 72.1733C154.355 75.9858 157.124 79.5968 162.896 80.1139C163.889 80.2015 167.698 79.9561 168.466 79.5354C169.118 79.1761 168.652 79.1936 169.831 78.694C173.493 77.1427 173.586 76.6081 176.208 73.6808C176.371 73.4967 176.286 72.892 176.433 72.7255C176.844 72.2697 178.714 72.3661 179.474 71.3495C180.103 70.5081 180.576 67.6684 180.638 66.4764C180.793 63.5404 179.777 60.6306 179.304 57.7997C179.172 57.0196 179.723 55.3632 178.83 54.4254C178.551 54.1274 175.487 53.6453 177.822 53.0581L177.139 52.6024L177.457 51.8223C176.255 52.4534 173.788 50.9371 173.059 49.9205C172.391 48.9914 172.585 47.9835 172.19 47.3612C171.988 47.037 171.298 46.9756 171.034 46.4322C170.413 45.1526 171.329 42.0763 170.437 40.7967C171.926 40.4549 170.095 38.5705 170.204 36.6862C170.243 36.099 170.863 34.907 170.793 34.8106C170.716 34.6967 170.126 34.6791 169.956 34.3636C167.14 29.2452 168.714 25.1347 168.164 20.1214C168.094 19.5079 167.582 17.273 167.318 16.8611C167.093 16.5017 166.387 17.124 166.216 16.046L164.386 16.9137L164.122 16.1687L164.13 16.1599ZM307.748 21.0067C307.267 18.6403 306.995 20.5071 306.871 20.5597C306.468 20.7087 302.822 20.5947 302.077 20.7262C301.697 21.2082 300.006 22.3388 299.509 22.5317C299.036 22.7157 298.027 22.295 297.826 22.4878C297.407 22.8822 297.593 23.82 296.941 24.2407C296.732 24.3722 294.816 24.0567 294.436 23.934C294.133 23.8376 294.156 23.1802 293.993 23.189C292.488 23.2591 290.968 24.9156 289.564 23.5483L288.819 25.2048C286.709 22.7683 283.668 25.2399 281.271 24.381V25.6343C280.41 25.5291 279.58 25.0558 278.718 25.0208C277.276 24.9506 271.729 27.3258 270.449 28.1759C269.502 28.7982 267.695 31.7956 266.446 32.5932C266.042 32.8474 265.352 32.5669 265.127 32.7597C265.011 32.8561 264.949 34.0043 264.661 34.5214C263.389 36.844 260.527 39.1928 259.642 40.674C259.572 40.7879 259.697 42.0588 259.091 43.2244C258.789 43.8117 258.161 43.9256 258.137 43.987C258.075 44.1272 258.525 44.9949 258.401 45.7048C258.098 47.4927 256.182 51.1562 256.601 52.8302C255.469 53.3912 256.531 55.0739 255.127 56.2133C257.059 56.9408 255.05 57.2475 254.763 57.9925C254.406 58.9303 254.817 60.578 254.67 61.1827C254.483 61.9628 251.109 67.4581 249.798 67.6246L249.937 68.4397C248.332 68.2819 249.224 68.9305 248.991 69.2986C248.153 70.6395 244.654 73.2426 244.484 73.523C244.375 73.7071 244.554 74.3206 244.36 74.5923C243.754 75.4337 239.635 76.2488 238.914 76.6169C237.401 77.3794 237.766 78.6853 235.151 77.5108C233.243 76.6519 230.83 75.1532 228.79 76.7922L228.402 75.9245L227.184 76.4241L227.316 78.063L228.611 78.0367L228.728 79.588L232.126 84.2945C231.8 86.2665 232.25 85.1359 232.995 85.7582C233.483 86.1613 233.631 86.9852 234.127 87.3971C233.126 87.7652 232.04 89.2113 231.257 89.632C229.48 90.5961 228.286 89.3077 230.559 91.7705C230.877 92.1124 230.807 92.5593 230.838 92.5856C231.831 93.4884 231.102 91.306 231.932 91.3411C231.614 93.2079 232.878 93.5585 232.677 95.5042C233.452 94.6102 236.005 97.1519 236.005 97.7829C236.005 99.6498 231.753 99.3605 231.009 98.414C230.186 100.368 227.657 97.6865 226.051 99.2378L225.485 97.9933C224.655 100.07 222.436 98.5805 220.885 98.8259C221.063 100.255 220.768 102.086 221.955 102.901C222.475 105.767 224.632 106.942 226.765 107.993L226.059 110.281C223.965 110.588 220.574 107.529 218.868 107.52C218.17 107.52 217.766 108.002 217.223 108.151C216.866 108.248 216.393 107.897 216.184 108.046C216.013 108.169 215.951 108.8 215.71 108.966C214.283 109.965 212.91 111.315 211.335 109.799C209.83 107.599 207.635 105.934 205.253 105.057C204.563 107.205 204.369 106.197 203.523 106.828C203.096 107.152 201.188 108.782 201.064 108.905C200.544 109.448 200.234 112.691 198.519 111.832C196.805 110.973 198.822 105.347 194.997 108.055C194.369 108.502 192.119 110.211 191.514 110.746C190.521 111.622 188.209 115.443 187.185 115.347C186.154 114.611 185.657 113.927 186.192 112.595C184.726 112.481 187.24 111.333 186.192 109.107C185.277 107.178 184.749 109.107 184.548 109.22C182.22 110.597 180.568 113.173 179.024 115.785C177.985 117.547 178.272 118.879 175.766 119.624L173.555 118.02L172.283 120.229L171.554 120.045C171.181 122.779 167.908 125.68 168.187 128.984C168.295 130.238 169.444 130.825 168.613 132.227C168.07 133.156 166.178 132.902 165.278 132.928L166.015 135.417C164.261 136.276 164.145 134.944 163.711 134.681C163.478 134.541 163.067 134.935 162.291 134.471C161.988 134.287 159.436 131.701 159.421 131.482C159.405 131.228 160.033 130.702 160.002 130.229C159.979 129.861 159.397 129.501 159.397 129.396C159.397 128.923 160.623 129.011 160.491 128.362C159.777 128.239 158.916 127.678 159.017 126.697L160.119 126.285C158.831 126.443 159.902 125.636 159.374 124.874C158.544 123.655 157.171 122.253 157.171 120.456L156.496 120.816C156.124 119.265 154.673 118.888 153.672 117.967C153.106 121.692 150.492 118.791 149.336 117.126C148.583 116.039 148.754 115.54 148.544 114.611C148.35 113.752 146.985 113.576 147.598 111.718C146.318 112.428 146.869 111.245 146.613 110.886C145.449 109.264 142.012 106.828 141.818 110.351C141.725 112.043 143.16 113.769 141.888 115.04C139.336 112.665 136.861 110.246 134.239 107.976C134.014 107.783 133.96 107.459 133.975 107.152C133.099 106.688 133.308 107.739 133.169 107.827C132.889 107.993 132.385 107.511 131.966 108.405L131.982 112.139L131.043 112.814C129.872 113.261 129.406 111.324 128.84 110.772C127.668 109.606 125.752 108.388 124.736 106.959C124.286 106.328 124.945 105.566 124.224 105.084L124.046 106.319C121.579 105.522 119.763 107.047 118.39 109.229L117.42 112.148L112.308 108.993L111.362 107.625C110.415 108.099 109.29 108.73 108.336 109.107C107.941 109.264 107.452 109.369 106.816 109.606C105.691 110.036 104.737 110.772 103.426 110.316C101.517 108.668 105.962 105.539 106.761 104.47C107.219 103.848 108.98 100.719 108.584 100.097L107.483 99.8952L108.22 98.8522H106.017L106.746 100.517C103.356 95.2851 98.9184 102.077 94.9464 99.0187C94.993 98.5542 95.3265 95.3815 95.4196 95.215C96.1333 93.9354 96.4747 93.7864 97.2194 92.1211C97.7314 90.973 98.2202 91.1746 98.5615 90.8503C98.9882 90.4471 99.4071 88.7468 99.0192 88.0369C95.0705 89.8073 93.3949 86.4593 97.1574 84.2682L96.8083 83.0587L97.9409 82.787L99.3761 79.9474C97.6228 78.6239 94.6671 79.1147 92.5803 78.5187C90.1832 77.8351 83.4495 74.566 81.8747 72.6729C80.5947 71.1391 76.8089 66.9234 76.2736 65.4773C76.0797 64.969 76.7158 64.2766 75.3194 63.2248C74.9859 62.9707 74.4118 63.1372 74.3575 63.0846C74.3032 63.032 74.6135 62.0416 74.5437 61.4018C74.5049 61.0513 73.7058 58.6674 73.5662 58.5709L72.8913 58.9303C72.7051 58.6411 72.5189 55.9942 72.4181 55.6787C70.8743 50.8933 69.059 44.9423 67.7247 40.1043C67.6238 39.7537 66.274 39.1578 66.9954 37.7379C65.1569 38.4741 66.018 35.0472 65.8551 34.8632C65.6146 34.5915 64.7612 34.6353 64.5052 34.3286C64.4509 34.2584 64.7069 33.7501 64.5828 33.5661C64.0398 32.7773 63.0002 33.1717 63.6984 31.4801C61.8598 32.0235 61.6969 30.0954 61.0375 29.5344C60.9289 29.438 58.9274 28.8157 58.4232 28.4739C54.6064 25.8884 51.4956 24.1268 46.7789 23.7149C46.0885 23.6535 45.4446 23.8989 44.7774 24.0216L44.3663 23.1539C44.149 24.565 43.1793 23.5045 42.5277 23.6623C42.3027 23.7149 42.4501 24.7228 40.34 24.3897C38.2066 24.0479 34.995 24.1268 33.4124 23.3468C33.0633 23.1715 32.5047 23.3906 32.2177 22.742L31.5195 23.5483C30.255 22.6719 28.3699 21.7604 26.958 21.8393L26.8882 21.0855L26.3451 21.9094C26.0736 20.3318 21.2173 20.3406 21.0078 20.6648C20.3717 21.6727 22.5671 22.2424 22.7378 22.444C22.9628 22.6982 22.9162 23.4519 23.3739 24.0041C24.1264 24.9068 27.9587 26.8525 28.0208 27.1505C28.5173 29.6308 25.6081 29.0524 24.3979 29.701C23.1024 30.3933 21.5974 33.8903 21.4035 35.4592C21.132 37.7116 21.9388 39.5784 21.4112 41.6381C21.5354 42.4356 24.3747 43.1543 24.5841 41.6731C23.3817 40.2708 22.1405 35.8273 23.3972 34.3899C24.0566 33.6362 27.2528 32.9 28.1139 33.1541C28.2613 33.198 29.968 35.2313 30.3093 35.503C30.6817 35.7922 31.3333 35.6345 32.0626 36.2304C34.5993 38.3076 32.6987 41.9536 30.1929 41.8835L30.5576 43.128L29.0914 42.7161L29.1301 44.3375C31.535 45.3367 33.5598 44.9773 35.9181 43.987C39.7892 42.348 42.7604 40.1569 47.2211 41.156C49.7423 41.7257 48.7959 41.9536 49.3467 43.2332C49.5251 43.6539 50.0992 43.54 50.0914 43.7678C50.0526 44.5479 48.8114 46.0028 49.7035 47.4664L48.9511 47.9222C50.2 49.5699 48.3382 50.8057 48.6563 52.9267L49.3389 53.3211C48.3072 54.2413 49.1217 56.5376 50.0759 57.0722L50.0604 57.6857L49.3312 57.8873L52.2713 63.6192C54.0556 64.6447 55.0021 66.2924 56.3519 67.7911C57.1044 68.6325 58.7257 68.7902 58.5473 70.771C58.5163 72.0769 50.7663 68.7815 50.3009 68.948C49.1372 69.3775 50.0914 71.6212 49.7191 72.6291C51.674 72.3574 51.6197 74.3995 52.5584 75.5739C53.7841 77.1077 56.507 79.4302 58.0198 80.7186C59.2455 81.7528 59.5248 82.7081 61.503 82.9097L61.4875 84.7327C59.9282 84.5837 58.4154 85.1534 56.8717 85.057C56.4062 85.0307 56.0338 84.5574 55.5684 84.5311C53.8849 84.4347 51.5344 84.0929 50.8129 86.1964C52.0309 86.4681 51.8369 87.9668 51.9145 88.0632C51.9533 88.1158 52.5894 87.5549 53.0161 87.8353C53.1945 87.9493 54.8547 90.0089 55.3667 90.3945C56.4683 91.2359 59.5558 93.3481 60.479 93.7864C61.4021 94.2246 67.1196 94.0405 67.3756 94.3035C66.7317 95.7233 66.8713 96.4595 67.0032 98.0371C64.001 98.712 60.7505 98.9924 58.1905 100.973L59.7187 102.928C60.6031 102.91 62.9537 105.215 63.9544 105.496C64.6371 105.688 68.4461 106.346 69.0357 106.267C69.1288 106.258 69.6486 105.031 70.5252 105.215L71.9836 106.784L77.4295 105.908L78.0269 106.977C76.7313 107.827 75.4048 108.756 74.086 109.545C72.9689 110.211 73.3257 110.114 71.7819 110.693C70.8743 111.035 70.2925 112.095 69.2141 111.333L69.1831 112.533C66.6696 113.156 66.3128 113.524 68.5392 115.128C68.834 115.338 68.8728 115.899 69.0823 115.925C69.571 115.978 70.1916 115.522 70.7812 115.592C71.7742 115.697 72.3715 116.495 73.2559 115.908V117.161L74.4506 116.442C77.3675 117.231 82.41 115.145 84.9545 116.057C85.6139 116.293 86.1259 117.704 85.0631 118.23C82.4876 119.054 80.6024 120.088 78.8259 122.437C78.0114 124.409 82.0376 125.242 83.209 125.321C83.9538 125.373 84.5278 124.532 85.4122 125.058L85.0398 124.234C86.8086 124.506 88.6317 123.524 90.1599 123.226C91.0288 123.06 92.4407 123.41 93.4337 123.103C95.2567 122.534 99.7329 119.361 101.525 120.991C103.286 122.586 99.7795 123.498 99.2442 123.875C98.8408 124.164 98.7399 124.821 98.3908 125.075C97.4211 125.785 94.6749 127.047 94.0543 127.976C93.4802 128.827 93.4259 130.553 92.7587 131.535C92.72 132.139 94 133.156 94.4266 133.209C94.7602 133.244 100.617 132.446 101.044 132.324C104.915 131.237 107.126 127.38 110.26 126.907C110.733 126.837 111.47 125.847 111.843 127.45C111.912 127.748 111.618 133.13 111.548 133.524C111.501 133.787 110.912 133.805 110.617 134.62C110.175 135.856 110.539 137.433 110.369 137.871C109.927 138.993 106.707 143.297 105.861 144.638C104.062 147.486 102.394 150.422 100.47 153.139L100.873 157.521C104.17 158.836 106.692 153.639 109.182 153.341C109.833 153.262 110.237 154.673 110.446 155.216L108.965 155.856C109.795 157.328 108.848 156.96 108.709 157.32C108.46 157.951 107.902 160.65 107.785 160.782C107.646 160.939 107.064 160.782 106.886 160.966C104.465 163.455 103.247 166.899 99.9191 168.722L96.2342 175.374C96.1799 175.979 97.4754 177.478 98.0417 177.416C99.6476 177.25 102.774 174.515 103.697 172.876C104.659 172.947 105.668 173.332 105.466 174.603C105.326 175.471 102.332 180.046 101.696 180.808C99.4847 183.438 98.546 184.779 96.5833 187.618C95.0085 189.906 93.7285 190.212 92.8674 191.326C92.6501 191.606 92.7044 192.316 92.4174 192.667C91.983 193.201 91.2305 193.403 90.9047 193.885C90.7805 194.078 89.2988 197.925 89.2368 198.267C89.0351 199.327 88.9264 202.264 90.2996 202.325C91.7347 202.386 91.7502 200.747 92.8131 199.801C93.6431 199.065 94.4577 198.854 95.1714 198.285C96.273 197.391 96.7152 195.436 99.027 195.787C99.4536 196.944 98.4994 197.908 98.4063 198.556C98.3288 199.108 98.7477 199.722 98.6003 200.458C98.096 202.965 91.502 209.775 89.3298 211.869C88.8101 212.369 87.3439 212.79 86.5448 213.526C85.0941 214.858 83.8452 217.338 82.1617 218.32L82.4643 219.074C82.1617 219.091 81.673 218.977 81.448 219.153C80.8352 219.643 80.2223 225.594 80.9903 226.558C81.3317 226.856 83.2478 224.849 83.6357 224.455C86.3276 221.756 88.1274 218.714 92.3553 219.1C92.976 219.573 92.6191 223.587 92.2312 224.49C91.8433 225.393 90.6176 226.515 90.1987 227.312C89.71 228.25 88.8877 231.922 88.748 232.141C88.4998 232.545 87.9024 232.229 87.5766 232.659C86.956 233.474 86.0328 236.69 85.0631 237.637C84.5123 238.18 83.6124 238.171 83.5504 238.233C83.4728 238.312 84.2098 238.978 82.8056 240.029C82.5884 240.196 82.1229 239.872 82.0997 239.907C82.0066 240.056 81.6575 242.448 81.2541 243.334C80.4938 244.99 79.0354 246.533 78.5467 248.908C78.4768 249.258 78.3605 254.307 78.4225 254.578C78.5777 255.201 79.1207 255.385 79.6405 255.271C80.874 253.36 81.704 251.967 83.1625 250.371C83.3797 250.135 83.3409 249.434 83.6357 249.136C84.5046 248.259 87.8326 246.682 88.686 248.443L88.4455 252.659C87.0879 255.7 84.3572 259.381 82.7746 262.852C82.5419 263.36 81.9678 262.852 82.2548 264.421H81.3317C82.0842 266.077 80.1059 267.225 79.881 268.058C79.3379 270.048 79.2759 273.22 78.9733 275.35C78.8647 276.104 78.2208 276.761 78.1976 277.953C78.1743 279.25 79.5784 281.213 79.5319 282.668L81.1222 282.738L84.0701 276.165C86.5448 273.58 89.9505 268.479 93.1156 272.94C93.3638 273.702 92.4872 273.431 92.3864 273.843C90.9822 279.645 88.267 284.965 87.98 291.669C87.9179 293.124 88.9109 296.244 87.5844 296.665C87.8093 298.059 88.2593 299.373 88.5774 300.311C89.2523 302.318 89.1281 303.028 91.6494 302.669C91.7425 301.485 91.7813 299.952 92.0528 298.83C92.1226 298.523 94.2715 293.887 94.6051 293.405C94.9154 292.949 95.4351 293.221 95.6213 293.01C95.8541 292.747 95.5515 292.134 95.9627 291.862C96.1411 291.739 98.1581 290.994 98.2512 291.073C99.4924 293.168 99.7252 295.438 99.2985 297.91C99.2597 298.155 98.7632 298.085 98.7089 298.322C98.2046 300.548 97.7547 304.667 98.9959 306.201L98.6313 307.419C99.9967 308.076 99.5545 309.987 100.035 311.424C100.183 311.871 101.688 315.097 101.851 315.219C102.673 315.859 104.837 315.316 105.093 313.931L106.017 314.343L105.675 315.526C107.343 315.912 106.606 317.445 106.94 318.471C107.064 318.857 107.739 319.172 107.816 319.602C107.902 320.084 106.792 320.732 107.607 322.117C107.762 322.38 108.398 322.415 108.553 322.932C108.763 323.633 108.189 324.624 108.608 325.649C109.632 328.138 112.743 332.441 114.255 334.983C114.465 335.334 115.481 335.973 115.504 336.052C115.69 336.675 115.279 337.192 115.341 337.761C115.411 338.498 115.753 339.164 115.76 339.926C115.776 341.311 114.077 343.572 112.805 343.844C108.972 344.65 103.332 344.913 99.9346 343.029C99.5312 344.615 97.7392 343.783 96.6453 343.423L96.2575 344.273C94.9852 342.669 95.5903 343.905 95.0938 344.282C94.1784 344.983 90.0979 344.44 88.717 344.896C87.4525 347.034 84.9467 348.068 83.3564 349.681C81.1843 351.898 81.8747 354.177 82.472 357.148C83.8219 356.614 84.9623 357.63 86.413 356.859C87.2042 356.438 87.9335 354.501 89.0661 354.046L88.3369 353.011C89.6557 351.881 91.2305 350.926 92.7277 349.856C93.1621 349.55 93.55 348.761 93.8603 348.621C94.4499 348.349 94.9697 348.919 95.4895 348.831C96.1256 348.717 97.6926 347.534 98.2279 348.48C99.5545 350.847 95.8463 351.557 94.8068 352.223C94.1939 352.608 94.4654 353.713 93.5733 353.117L89.8574 356.929L90.1909 359.234C93.3406 360.049 94.031 358.533 95.8618 356.298C96.4592 355.571 97.4754 355.667 97.1729 354.247C98.7167 355.097 98.0572 354.046 98.8097 353.599C99.1744 353.38 100.214 353.266 100.734 353.064C101.688 352.687 102.712 351.057 103.62 352.582L103.984 351.749L104.83 353.748C103.309 355.632 100.54 355.974 98.9028 357.148C98.546 357.402 98.6779 358.428 97.9021 358.673L98.8408 360.891L99.2054 360.058C99.4381 361.101 101.114 360.391 101.525 359.988C101.603 359.909 101.261 359.339 101.571 359.024C104.38 356.175 108.817 355.527 112.013 354.23C114.085 353.388 118.972 352.608 121.648 352.582C124.325 352.556 127.599 354.107 130.484 354.028C132.486 353.976 135.186 353.371 135.403 350.601C135.589 348.252 130.748 342.967 129.755 340.522C126.962 333.633 126.233 326.517 126.582 319.076C126.582 318.935 125.093 318.637 126.078 316.797C126.326 316.341 127.343 316.701 126.993 315.579C125.077 315.228 126.784 314.352 126.683 312.713L127.73 312.66C127.886 311.968 127.203 312.441 127.071 312.055C126.97 311.792 127.35 306.683 127.443 306.297C128.01 304.036 130.702 304.36 132.214 305.316C132.688 305.614 135.108 308.225 135.224 308.611C135.488 309.461 135.077 309.908 135.124 310.32C135.147 310.522 137.024 312.537 136.667 313.826L138.413 314.737C138.048 313.747 139.064 313.458 139.119 313.212C139.189 312.914 139.189 307.621 139.165 307.033C138.948 301.783 136.9 295.911 134.984 291.529C134.914 291.371 134.208 291.31 134.03 290.775C133.657 289.627 134.162 288.374 135.286 288.129C136.318 287.909 139.677 288.102 139.173 289.724C140.965 289.25 140.732 290.977 141.012 291.389C141.066 291.468 141.609 291.056 141.896 291.415C142.889 292.651 143.929 295.499 144.541 297.138C144.627 297.366 144.278 297.875 144.371 298.041C144.534 298.339 145.581 298.19 145.061 299.321L146.132 299.356L145.767 301.012C147.838 300.478 146.737 298.567 148.343 297.892L147.606 297.682L148.358 296.998L147.753 284.745C146.76 281.836 145.635 278.978 144.409 276.472C143.781 275.183 142.377 274.088 142.873 272.195C144.091 269.653 147.342 270.845 148.808 272.291C148.971 272.449 150.748 275.893 151.027 276.472C151.826 278.111 152.369 281.257 153.145 282.809C153.292 283.098 153.897 283.387 154.029 283.948C155.076 283.133 157.295 282.861 156.519 281.108L157.155 280.872C155.899 277.48 157.303 273.194 156.418 269.706C156.356 269.469 155.681 269.18 155.356 268.321C155.231 267.997 154.657 265.21 154.688 264.973C155.014 262.615 158.28 261.818 159.646 263.308C159.754 263.422 161.143 265.402 161.438 265.832C162.182 266.919 163.199 270.389 164.688 270.267L168.241 264.026L169.312 264.412L168.939 263.588C170.669 263.124 171.461 263.238 172.818 263.956C173.726 265.709 170.786 272.388 170.506 274.71C170.406 275.552 170.638 280.021 170.786 280.837C170.933 281.652 171.569 281.967 171.639 282.3C171.926 283.65 172.104 285.079 172.252 286.463C174.346 286.761 173.609 284.824 173.842 284.062C174.152 283.045 176.604 276.384 177.007 275.937C177.333 275.578 177.837 275.701 178 275.525C179.226 274.202 180.956 271.818 182.771 271.52C184.726 271.204 185.758 271.949 186.604 273.983L185.494 274.193C185.448 274.736 186.611 273.825 185.952 275.105C185.246 276.463 183.819 277.716 183.213 279.504C182.492 281.643 182.096 285.201 181.476 287.497C181.158 288.663 180.452 289.058 180.428 289.163C180.351 289.478 180.77 293.694 180.894 294.378C181.119 295.631 182.166 296.201 181.452 297.69C184.307 298.795 183.283 296.797 183.888 295.605C184.036 295.324 184.602 295.21 184.781 294.895C186.324 292.081 185.828 291.704 188.543 290.179C188.815 290.03 188.815 289.557 189.008 289.487C191.437 288.558 193.958 288.391 194.71 291.687C193.361 292.002 194.408 292.633 194.284 293.063C194.268 293.107 193.772 293.151 193.617 293.422C192.236 295.894 191.018 298.286 190.521 300.986C189.738 305.289 190.645 308.865 191.204 313.081C193.097 314.352 193.042 311.302 193.632 310.083C194.718 307.848 195.773 306.867 197.744 305.57C198.217 305.263 198.294 304.281 199.737 305.07C201.739 306.166 200.862 306.946 201.258 308.33C201.444 308.997 202.01 308.777 202.096 309.514C202.359 311.906 201.242 314.317 201.972 316.648L201.033 317.314C201.638 318.515 200.653 317.656 200.591 318.48L201.716 318.708C201.863 319.619 201.289 321.95 201.452 322.459C201.622 322.993 202.313 322.888 202.429 323.344C202.615 324.08 201.312 328.664 202.057 330.136L201.328 329.716C200.994 330.268 201.297 331.346 201.235 331.591C200.195 335.877 197.356 340.198 195.199 344.01C193.803 346.482 191.584 348.918 192.135 351.881C192.158 352.004 193.617 353.625 193.717 353.686C194.703 354.274 197.837 354.396 198.931 354.256C200.296 354.09 200.66 353.432 201.607 353.099C203.089 352.573 208.147 352.933 210.389 352.976C216.983 353.099 221.249 356.938 227.099 359.059C227.432 359.182 227.836 358.892 228.115 358.98C228.2 359.006 228.728 360.154 229.496 360.076C231.218 359.909 228.022 356.298 227.743 356.088C227.355 355.79 225.384 355.229 225.012 354.957C224.353 354.475 223.313 353.082 223.941 352.161C224.228 351.706 224.965 351.714 225.431 351.741C226.067 351.784 228.348 352.836 228.93 353.274C229.473 353.686 230.21 354.396 230.776 354.834C231.102 355.089 232.777 355.667 233.088 355.921C234.662 357.245 234.562 359.637 237.533 359.287C237.998 359.182 238.192 357.744 237.975 357.183C237.804 356.736 233.32 352.547 232.622 352.047C232.165 351.723 229.457 350.628 229.348 350.479C229.147 350.207 229.325 349.234 229.496 348.848C230.202 347.253 233.925 349.181 234.918 349.716C235.392 349.97 234.88 350.882 236.299 350.093L236.33 351.302C236.92 351.039 238.2 351.907 238.735 352.345C239.053 352.608 241.544 355.299 241.644 355.492C241.815 355.825 241.381 356.43 241.505 356.666C241.575 356.789 243.561 358.034 243.786 358.112C244.724 358.437 245.578 357.28 246.617 357.578C245.896 356.298 246.858 355.536 246.92 354.808C246.966 354.274 246.307 353.835 246.252 353.196C246.198 352.6 246.695 351.969 246.446 351.346C246.198 350.724 244.941 350.049 244.406 349.471C239.651 344.326 235.865 344.203 229.504 343.835C225.927 343.634 226.37 343.66 223.243 344.58C222.692 344.738 218.278 344.624 217.518 344.51C213.034 343.826 212.894 338.734 214.198 334.887C214.811 333.081 215.524 332.459 216.455 331.521C216.952 331.022 217.014 329.409 217.448 328.603C219.822 324.141 221.032 322.318 222.157 317.261C222.281 316.701 222.025 315.973 222.18 315.254C222.956 311.643 224.422 310.005 227.099 313.081C227.215 313.002 228.123 310.714 228.363 310.346C228.542 310.075 228.922 310.189 228.937 310.153C229.069 309.891 228.34 309.522 228.332 309.137C228.317 308.357 229.504 305.806 229.581 305.324C229.682 304.728 229.325 297.489 229.232 297.068C229.193 296.893 227.983 295.578 228.891 294.141L228.231 293.782C228.79 291.775 228.844 290.802 230.908 291.214C234.569 291.941 234.507 295.385 235.981 298.286C236.113 298.549 237.285 299.741 237.339 299.855C237.502 300.25 237.122 300.6 237.083 300.977C239.837 303.168 238.541 298.926 240.357 298.514L239.627 297.901C240.628 297.287 239.907 296.525 239.984 295.885C240.023 295.561 240.597 295.657 240.651 295.412C240.962 293.974 240.039 292.423 240.132 291.582C240.217 290.819 241.14 289.093 241.07 288.979C241.024 288.909 240.543 289.005 240.489 288.865C239.945 287.568 239.86 283.615 239.232 281.809C239.108 281.459 238.332 281.038 238.169 279.995L238.89 279.399C237.897 279.645 238.316 278.111 238.006 277.418C237.843 277.042 236.501 275.008 236.377 274.517C236.191 273.781 236.338 273.133 236.656 272.493L235.95 271.704C236.711 270.153 238.231 270.056 239.41 271.038C239.821 271.38 239.534 272.072 239.651 272.3C239.674 272.344 240.209 272.02 240.613 272.23C241.326 272.598 243.972 275.481 244.235 276.06C244.6 276.866 244.429 279.224 244.825 279.759C244.879 279.829 245.384 279.276 245.849 280.048C246.609 281.319 244.934 281.476 246.09 282.291L248.107 282.046C249.317 280.188 249.2 278.68 249.348 276.682C249.379 276.261 249.813 275.806 249.844 275.368C249.93 274 247.432 267.059 246.772 265.543C245.593 262.826 243.483 260.451 241.706 258.312C240.457 256.805 239.247 256.699 239.03 254.28C238.929 253.211 239.527 249.293 240.597 249.083C241.784 249.846 243.871 250.45 244.926 251.151C245.19 251.327 246.547 252.668 246.982 253.071C247.734 253.763 248.184 255.218 249.371 255.271C249.72 255.209 250.286 250.634 250.24 250.056C250.217 249.81 249.076 250.012 249.875 248.82C248.735 248.452 249.433 247.479 249.177 246.848C248.805 245.919 247.16 244.21 246.547 243.079C246.214 242.466 245.903 240.853 245.818 240.783C245.329 240.354 242.917 240.056 242.948 238.005C241.466 236.182 239.767 233.921 239.185 232.22C238.728 230.897 238.921 227.19 237.416 226.97C239.007 225.437 236.703 224.814 236.648 223.868C236.571 222.474 236.928 219.678 238.619 219.959C238.836 219.994 242.032 222.22 242.436 222.562C243.39 223.368 244.623 225.384 245.593 226.041C246.113 226.392 247.098 226.059 247.726 226.147C247.626 225.191 247.897 223.982 247.726 223.088C247.664 222.764 247.028 222.842 247.044 222.632C247.23 218.784 246.625 220.257 245.267 218.118C244.957 217.628 245.066 216.83 244.825 216.409C244.608 216.041 244.003 216.287 243.677 215.875C243.351 215.463 242.676 213.85 242.505 213.754C242.094 213.508 241.427 213.78 240.838 213.543C240.132 213.254 239.317 210.914 239.201 210.809C236.199 208.092 233.088 204.823 231.49 200.642C231.071 199.538 230.458 196.558 231.769 196.199C232.816 195.909 232.514 196.724 232.909 197.031C233.693 197.636 234.476 197.294 234.492 199.108L235.221 198.285C234.577 200.178 240.349 203.193 240.745 202.86C241.435 199.748 240.217 195.918 238.898 193.184C238.735 192.842 236.183 189.871 235.989 189.757C235.593 189.52 235.089 190.116 234.577 189.879C234.22 189.713 233.483 187.811 233.282 187.592C232.335 186.558 229.659 184.612 228.534 183.595C227.254 182.438 225.19 179.608 224.236 178.065C224.027 177.723 222.413 174.91 222.382 174.717C222.273 174.121 223.166 173.648 223.476 173.551C225.974 172.798 228.123 177.609 230.776 177.706C231.831 177.741 232.677 176.426 232.529 175.278C232.358 173.954 229.411 170.484 228.573 168.968C228.355 168.573 228.573 168.012 228.542 167.977C228.278 167.741 226.889 167.67 226.765 167.478C226.726 167.425 227.099 166.996 227.006 166.776C226.975 166.698 226.044 166.443 226.377 165.427L225.648 166.251C225.687 164.69 224.027 165.067 223.515 164.498C223.212 164.165 222.467 161.553 222.32 160.843L221.622 161.237C220.838 159.195 219.108 157.434 218.317 155.181C218.03 154.366 219.426 154.208 219.869 154.27C220.893 154.392 221.226 155.838 221.684 156.11C221.932 156.259 222.785 156.268 223.538 156.697C223.771 156.838 223.771 157.495 224.058 157.539C224.872 157.67 226.199 156.925 227.254 157.556C228.309 156.575 227.58 154.944 227.65 153.963C227.681 153.542 228.355 153.2 228.224 152.955C228.2 152.92 227.696 153.06 227.487 152.666C227.021 151.816 226.812 150.308 226.238 149.37C225.679 148.468 224.29 147.924 224.135 147.679C223.879 147.284 224.182 146.382 224.135 146.347C223.957 146.189 223.321 146.32 222.902 145.882C222.483 145.444 222.359 144.278 221.955 143.7C221.692 143.314 220.637 142.56 220.613 142.464C220.388 141.719 221.257 140.501 219.038 140.439L219.279 139.729C218.27 139.554 218.984 138.686 218.728 137.722C218.48 136.776 217.394 134.69 217.549 134.068C217.619 133.787 218.309 133.796 218.309 133.594C218.317 132.586 217.021 132.166 218.286 130.904C216.494 130.851 218.565 128.765 217.937 127.608C219.853 126.451 220.28 127.845 221.327 128.52C221.862 128.862 223.235 129.16 223.375 129.335C223.553 129.563 223.352 130.29 223.476 130.413C223.608 130.553 225.214 130.448 225.943 130.755C226.09 130.816 228.053 132.56 227.874 132.955H228.588C228.565 132.499 228.65 132.192 229.061 131.99C230.21 131.438 236.268 131.421 236.354 130.229C235.88 127.258 234.763 128.213 233.646 127.494C233.22 127.223 233.111 126.609 232.886 126.46C231.428 125.496 229.892 125.04 228.658 123.743C229.442 119.904 230.489 121.85 232.242 122.315C234.825 122.998 238.084 123.06 240.535 123.822C241.404 124.094 242.265 125.032 242.8 125.075C243.53 125.137 247.152 123.98 248.65 124.243C249.309 124.357 249.844 125.259 250.496 125.058C252.079 122.762 250.597 123.296 249.976 122.77C249.549 122.411 249.604 121.57 249.2 121.131C248.192 120.053 247.013 119.501 246.082 118.949C244.647 118.09 241.776 117.722 241.854 115.084C242.971 115.093 244.662 114.523 245.733 114.847C248.192 115.583 249.72 116.206 251.9 116.486C254.158 116.775 256.113 117.293 258.424 116.74L258.052 115.917L260.092 115.084C260.309 114.733 257.982 111.745 257.68 111.552C257.098 111.166 256.345 111.517 255.919 111.254C255.701 111.114 255.717 110.246 254.825 109.773C253.987 109.326 252.653 109.746 252.567 109.667C252.397 109.51 252.428 108.528 252.079 108.116C251.729 107.704 250.674 107.704 250.333 106.977C250.682 106.381 251.039 106.398 251.598 106.328C253.537 106.1 261.155 106.223 262.451 105.268C262.769 105.031 262.792 104.4 263.319 104.128C264.095 103.725 266.454 103.927 267.253 103.243C267.338 103.173 268.742 101.657 268.758 101.543C268.897 99.9828 267.392 99.7199 266.539 99.045C266.267 98.8259 266.205 98.1773 266.112 98.0985C266.004 98.0196 265.36 98.4841 264.925 98.414C263.366 98.1686 262.978 97.3447 261.745 97.4236C260.286 96.3806 263.87 94.0931 264.7 93.7688C267.074 92.831 269.913 92.6207 271.946 91.6654L277.547 85.5215L277.027 84.312L276.694 85.1096C275.088 84.873 272.38 84.6801 270.712 84.8467C269.456 84.9694 267.912 86.7924 267.245 83.7248C267.276 83.4005 267.966 83.3479 268.16 83.0412C269.58 80.8589 271.76 78.3435 273.296 76.538C275.204 74.2855 277.927 72.6115 277.563 68.9305C275.018 67.5632 273.49 69.7894 270.968 69.728C270.922 69.3775 270.782 69.0619 270.775 68.6938C270.736 67.0724 271.674 67.3616 271.907 67.0987C273.73 65.0654 277.787 61.4106 278.749 58.7725C279.254 57.4053 279.122 55.2142 279.805 53.7593L279.044 53.1195C280.394 53.2685 279.564 52.0677 279.502 51.1124C279.393 49.3946 279.083 47.221 278.858 45.0124C278.788 44.3375 278.036 43.4611 278.369 42.7862C280.076 41.8572 279.936 39.7537 282.147 39.78C283.761 39.7976 289.556 41.3752 291.278 41.9887C292.434 42.4006 293.466 43.4961 294.73 43.9168C295.32 44.1184 299.129 44.5566 299.292 44.3726V42.7249C297.112 42.8125 295.84 40.0693 294.024 39.3856C293.365 39.5346 294.668 37.3786 294.754 37.2909C295.227 36.7914 296.344 36.6687 296.615 36.3531C296.864 36.0552 296.763 35.3014 297.252 34.7931C297.531 34.5039 301.138 32.5406 301.619 32.4442C303.194 32.1199 304.777 33.3207 305.289 34.9508C305.614 36.0113 305.18 36.5197 305.18 37.4925C305.18 38.1586 305.669 38.9912 305.545 39.5522C305.42 40.1131 303.822 40.2533 304.466 41.0421C306.382 43.391 308.066 34.7756 306.77 33.2418L299.687 26.6948C299.959 26.1601 300.137 26.2653 300.518 26.1952C301.867 25.941 303.442 24.1268 304.738 23.1364C305.102 22.8559 305.676 23.1539 305.855 23.0049C306.39 22.558 306.817 21.1644 307.755 21.0417L307.748 21.0067ZM13.7156 28.7895C14.7862 29.2803 17.0824 29.8061 17.5712 28.2373C18.5331 25.1697 11.9779 24.4949 11.0547 27.2644C11.6133 27.7991 12.901 27.6851 13.2501 27.913C13.4829 28.062 13.5682 28.7193 13.7156 28.7807V28.7895ZM317.709 26.4494C315.102 25.3976 310.688 25.1435 310.354 29.3504C312.092 29.3942 313.302 29.7185 315.149 29.0524L317.716 26.4406L317.709 26.4494ZM18.4013 35.1612C19.8597 32.7685 12.5752 32.5932 11.4271 33.1103L12.1563 33.9342H9.95312L11.3262 36.0026C14.3052 36.3707 15.6938 37.0455 18.4013 35.1699V35.1612ZM316.956 33.5661C314.179 32.0673 311.658 32.304 310.727 36.0026L313.124 37.1156L316.917 35.1174L316.956 33.5661ZM150.142 39.4032C149.956 39.2629 147.373 39.8151 146.706 38.8773L145.946 39.7362L141.384 39.7537V40.9983L140.275 40.5776C140.507 43.0492 137.482 42.6898 136.698 44.0308C136.202 44.8809 136.272 47.6768 135.131 47.668V48.4831C136.256 48.3429 135.465 49.009 135.659 49.7276C136.287 52.0239 137.653 51.165 138.405 53.2772L136.217 54.9337L137.327 55.1441L136.59 56.3886C137.862 56.2834 138.289 57.1774 138.436 58.4658C138.863 58.3168 140.112 56.7304 140.267 56.6428C140.794 56.3448 142.416 56.2221 143.316 55.5647C144.782 54.4955 146.776 50.718 148.746 50.5603L148.389 49.7539C148.886 49.6049 149.545 49.5348 149.972 49.2368C150.398 48.9388 153.339 46.1255 153.564 45.8012C153.664 45.661 154.285 42.4795 154.215 42.3305C154.145 42.1902 152.206 40.4461 152.043 40.3935C151.492 40.227 150.926 40.6565 150.585 40.3935C150.352 40.2183 150.321 39.5434 150.142 39.4032ZM185.091 39.4645C184.563 39.2191 177.985 39.2717 177.527 39.4645C177.488 39.482 177.434 39.9378 177.155 40.1306C175.254 41.4014 174.121 42.646 175.169 45.4594C175.976 47.6417 176.937 47.2824 177.946 48.1413C179.862 49.7715 181.476 51.1387 182.973 52.5323C185.735 55.1178 188.015 59.0442 192.174 56.1958C191.235 55.4596 191.375 53.9521 190.878 53.0844C190.273 52.0415 188.303 51.1562 189.055 49.342C189.932 47.2473 191.918 49.3245 192.391 47.2648C192.763 45.6347 190.459 45.3016 191.437 43.093C189.839 44.0395 189.722 42.4356 188.783 41.7433C187.496 40.7879 186.798 40.7091 185.463 40.1569C185.215 40.0517 185.176 39.5259 185.083 39.482L185.091 39.4645ZM57.0734 128.765C55.1882 128.897 55.5296 130.448 54.6607 131.649C54.0634 132.472 52.7601 133.542 51.9921 134.269L51.9533 136.46C51.3482 136.811 49.1528 136.881 48.7649 136.267C47.9891 135.049 49.9751 133.34 48.7881 132.919L47.1901 134.83C46.7091 135.523 46.8254 136.977 45.6695 136.241C45.6695 137.354 46.0264 138.134 44.9791 138.52L45.3049 139.572C43.862 139.116 43.7612 141.912 43.2336 143.27C42.6751 144.708 40.9917 145.593 42.357 147.056H41.2477C41.9691 148.108 40.9218 148.59 40.8753 149.344C40.8598 149.598 41.5269 149.458 41.62 149.844C41.8605 150.816 41.4649 151.518 42.5432 152.464C44.6067 151.483 43.6836 149.87 44.5447 148.485C45.0334 147.705 47.4771 146.469 48.4235 146.224C49.6337 146.566 48.3304 151.544 48.3227 152.333C48.3227 152.876 48.8502 153.235 48.8502 153.507C48.8502 153.91 47.4848 154.997 49.2226 155.742C50.5026 156.285 49.882 155.041 50.1845 154.682C50.456 154.357 50.9758 154.305 51.2008 153.945C52.2636 152.254 52.9773 149.633 55.2425 149.142C54.9012 150.431 56.445 150.72 56.5381 151.842C56.6079 152.648 55.7545 155.058 55.9795 155.383C56.6389 155.041 57.3604 154.936 58.0198 154.568C60.1376 153.384 60.6031 150.869 63.3416 151.64L63.4347 155.278L65.2965 155.803C65.7077 155.085 66.5533 154.936 65.9171 154.138C67.8721 153.358 67.3911 154.524 67.8876 155.216C68.7332 156.391 69.7184 157.495 70.5174 158.713C71.0915 158.345 70.6881 157.732 71.0682 157.285C72.3017 155.838 72.6353 156.408 74.0317 154.024C75.1022 152.201 75.591 151.22 76.9486 149.23C78.0346 147.635 77.9493 146.049 79.1673 145.207C75.9013 142.841 71.8673 142.797 68.4927 140.834C68.3453 139.712 69.9744 138.669 69.9822 138.52C70.0132 137.906 69.1909 136.872 69.9744 135.856C68.7021 135.277 68.4927 136.601 68.2444 136.671C67.073 137.004 66.2662 136.697 64.9552 137.67C64.482 138.029 64.257 138.932 63.3105 139.361C62.6434 139.659 61.534 139.256 60.7738 140.01L60.4324 136.53L64.4509 130.448C61.472 129.878 60.9367 133.121 59.1447 134.865C58.9585 135.049 58.5163 134.979 58.3301 135.146C57.4845 135.917 57.2983 137.582 55.2425 136.057C54.0789 135.189 56.9182 130.018 57.0889 128.783L57.0734 128.765ZM67.5385 286.604C67.267 285.499 66.4446 285.131 66.4059 285.043C65.9094 283.659 65.1801 281.257 65.8706 279.907L65.1414 279.478C65.8395 278.181 64.6914 276.586 64.8698 275.35C64.9086 275.087 65.4129 275.219 65.4594 274.956C65.5525 274.439 65.2422 273.545 65.568 272.563C66.2274 270.565 67.6859 268.558 67.7479 266.253C67.7479 266.007 69.0745 266.209 68.2212 264.009C68.0272 263.509 67.4687 263.527 67.267 262.992C66.018 259.723 65.9792 253.071 66.7239 249.67C67.2825 247.137 69.3693 246.76 66.6541 243.404C66.2352 242.887 64.288 242.019 63.7838 241.589C62.721 240.687 61.1927 238.881 60.3161 238.233C60.0911 238.066 57.4069 238.645 58.5396 236.471C57.8646 236.506 57.2983 236.173 56.7708 235.752C53.722 233.333 50.8129 230.581 47.9658 228.136C47.6555 227.864 47.159 227.829 46.7789 227.707L47.1358 226.909C45.5454 227.26 46.0885 225.945 45.5144 224.972C44.7154 223.614 43.1793 221.843 42.4036 220.415C41.4338 218.627 39.9366 216.401 39.7659 214.429L38.6643 214.84C39.5177 213.061 37.8963 212.851 37.4076 211.492C37.1361 210.739 37.1981 209.88 36.9034 209.135C36.2362 207.435 34.7467 205.743 35.2665 203.666L34.6071 203.201H35.3363V202.369L34.6381 202.193L34.9717 200.292L33.8779 200.265C33.552 198.898 34.6536 196.663 34.6303 195.944C34.6226 195.69 33.9942 195.725 33.9477 195.515C33.4201 192.947 33.808 189.958 34.0485 187.364L32.3961 186.549C31.8376 185.576 33.5365 185.743 33.1331 185.313C32.815 184.971 31.8841 184.577 31.4419 183.893C30.0378 181.693 28.8897 174.121 28.7733 171.316C28.7267 170.221 29.3318 162.552 29.5413 161.816C29.7663 161.027 31.5273 159.572 31.8841 159.011C32.0238 158.801 31.76 158.143 31.985 157.74C32.2099 157.337 33.071 157.153 33.0943 156.82C33.1021 156.68 32.1712 154.655 32.1169 154.217C31.9462 152.815 31.7755 148.231 32.1169 146.943C32.7142 144.69 33.0323 142.604 33.5753 140.588C33.6761 140.22 34.5838 140.729 33.8546 139.133H34.9639L34.5916 138.134C35.6156 137.828 35.7397 135.198 36.2362 134.567C36.7327 133.936 37.4774 133.989 37.811 133.612C38.1446 133.235 38.1213 132.455 38.6643 131.877C39.347 131.158 42.5975 128.774 42.8613 128.283C43.9085 126.346 44.9015 120.754 46.4453 119.247C46.5151 119.177 46.8953 119.527 47.0039 119.431C47.5391 118.94 49.2458 117.31 49.5329 117.126C51.1698 116.118 53.7686 116.276 53.2255 113.725C52.9928 112.621 50.8672 111.701 50.0682 111.008C46.5617 107.958 43.1483 102.665 42.357 96.8714L43.063 96.5033C41.7519 95.0309 43.3655 92.2 42.9931 90.7451C42.7371 89.7372 41.2089 89.3253 40.6115 88.6504C39.0677 86.9151 36.6706 81.7265 36.8103 79.4565C36.849 78.7992 37.4309 78.1682 37.4076 77.7825C37.3921 77.4933 36.8801 77.02 36.8258 76.1524C36.7094 74.4521 38.2609 71.7702 37.7645 69.6404C37.555 68.7377 36.7947 68.65 36.4301 68.0979C35.9259 67.3354 34.1416 64.5658 33.9942 63.9698C33.4744 61.7962 34.3976 57.8961 34.2269 55.7576C34.2037 55.4771 33.552 55.5735 33.49 55.2317C33.4124 54.8461 33.3891 51.945 34.2269 52.5936V52.1904C31.3101 51.761 28.2846 49.6488 25.2978 50.1922C22.2491 50.7531 19.6425 51.6646 16.5316 50.683C15.8102 50.4551 15.1042 50.0432 14.3517 49.8942C13.2889 49.1755 15.7326 47.6592 15.8102 47.3087C16.2369 45.398 15.4533 46.3008 15.0965 46.0816C13.4984 45.1 11.7684 44.1359 10.2091 43.1894C9.7747 42.9265 8.76619 42.979 8.13006 42.3655C6.83453 41.121 7.78097 39.8852 7.54048 39.2542C7.12156 38.1586 3.15738 37.475 2.03252 37.0718C1.8696 37.0192 1.02402 35.9412 0 36.3444L0.349096 34.4863C1.40414 34.5477 1.87736 33.5836 2.08682 33.4609C2.71519 33.1103 7.61806 31.5064 6.02773 30.0954C4.4374 28.6843 -1.80754 27.2644 3.59957 24.8367C5.16662 24.1356 6.78798 23.9778 8.33952 23.3292C8.45589 23.2766 8.49468 22.7946 8.75068 22.6807C10.5737 21.8831 13.1338 21.7078 14.7163 19.9374C11.2642 15.1608 16.6247 14.7752 19.7201 14.3545L20.0304 15.1257C26.2365 14.8716 33.1409 18.8155 39.3315 19.5079C41.0227 19.692 43.5051 18.8156 45.2351 18.7454C55.0098 18.316 61.6659 21.6377 68.6246 28.7369C68.9814 29.0962 71.7044 31.4714 71.813 31.6817C72.1543 32.3215 71.813 33.0928 71.9992 33.4697C72.131 33.7413 72.7361 33.8553 72.8913 34.1796C75.0169 38.5442 74.6213 41.6556 75.847 46.0203C75.9401 46.3621 76.5297 46.3446 76.5762 46.625C76.7236 47.4927 76.0332 48.562 76.1806 49.4034C76.2349 49.7101 76.9253 49.64 76.9486 49.938C77.2356 53.2422 77.2666 55.591 78.7716 58.5184C79.3922 59.7366 79.9586 61.2791 80.4473 62.1468C80.936 63.0057 82.5186 63.5842 82.5031 65.4335L83.1935 65.0654C83.8141 65.8805 83.5659 67.7736 83.6279 67.9226C83.7365 68.1855 87.3051 71.6036 87.5223 71.7614C87.9567 72.0769 90.0668 72.3574 90.2996 72.5151C90.6642 72.7605 90.765 73.6019 91.3779 73.9174C92.5803 74.5222 95.6524 74.7763 97.1341 75.3285C97.8788 75.6002 98.3598 76.056 98.8485 76.722L99.0425 75.907H99.764C99.7096 77.0288 100.765 77.1252 101.61 77.134L100.664 76.3276L100.881 75.0568C99.4226 74.5835 95.5825 74.4521 96.1333 72.0156C97.0332 71.1391 98.1426 69.8946 99.0347 69.097C99.3993 68.7727 102.619 66.6956 102.751 66.4852C102.999 66.0733 102.89 65.2494 103.193 64.7849C103.627 64.1276 105.823 63.5842 105.66 61.7612L102.914 62.2082L102.557 61.3931C101.284 62.7779 96.5212 59.7804 97.5608 58.4395L101.137 56.3711C103.402 56.1169 103.317 53.7943 104.155 52.8741C104.558 52.4271 105.086 52.6988 105.264 52.5761C105.318 52.541 104.969 51.7522 105.249 51.2439C105.481 50.8144 108.003 49.4822 106.412 48.2202C105.799 47.7381 102.146 49.0966 100.501 47.0019C99.089 45.214 101.331 44.6793 102.355 43.6802C103.503 42.5496 106.257 39.4733 107.017 38.0973C107.498 37.2296 107.382 36.0113 108.235 35.1524C106.986 34.5126 103.232 30.9806 102.704 29.8499C102.324 29.0261 102.673 28.0883 102.378 27.5449C102.122 27.0716 101.215 26.9489 101.028 26.0287C100.904 25.4152 101.509 24.9506 101.486 24.5475C101.463 24.1443 100.803 23.671 100.695 23.1364C100.563 22.4703 101.036 21.7516 100.633 20.6736C100.346 19.9199 98.4994 19.9111 100.889 18.2196C101.354 16.1249 99.9579 16.1599 99.3838 15.2747C98.2977 13.6095 96.8471 10.7085 96.079 8.81535C95.9782 8.56118 95.4972 8.57871 95.4274 8.31578C95.3653 8.09667 95.7067 5.06418 95.8075 4.66978C97.1806 -0.650218 101.952 2.81173 104.737 2.49621C105.675 2.39103 107.793 1.43571 108.522 1.07637C110.136 0.287574 110.679 1.54089 110.803 1.44448C110.834 1.41818 110.718 0.673208 111.044 0.594329C111.68 0.427805 112.991 1.16402 113.953 1.08514C114.643 1.03255 114.31 0.27881 115.016 0.173637C117.203 -0.150647 126.598 1.05008 128.584 1.96158C130.228 2.71532 131.252 4.04751 132.633 5.03789C132.796 5.15182 133.401 4.42438 133.269 5.59881L133.812 5.61634L134.231 4.75743C137.055 5.49364 139.468 3.61805 142.47 2.84678C145.472 2.07551 148.917 0.629386 152.664 0.725795C155.86 0.813439 159.521 1.00626 162.95 1.79505C163.424 1.90023 163.447 2.53126 163.633 2.59262C164.983 3.06589 167.116 2.43486 168.233 1.45324L168.055 2.71532C169.335 1.42695 171.918 0.804675 173.563 0.804675C174.874 0.804675 178.411 2.16316 178.737 0.594329C179.66 0.506685 180.01 1.69865 180.196 1.77752C180.824 2.01416 182.461 1.70741 183.407 1.99664C185.215 2.54879 188.225 3.53041 189.955 4.24909C191.025 4.69608 192.655 6.32626 193.88 6.36131C194.423 6.37884 194.734 5.91433 195.106 5.83545C196.611 5.5287 195.827 5.56375 196.487 5.257C200.164 3.54794 202.74 1.63729 207.099 0.646915C212.219 -0.518752 215.641 0.0246417 220.737 1.2166C222.506 1.62853 224.065 1.99664 226.152 2.34721C228.131 2.68026 235.143 3.74075 233.538 7.29034C233.476 7.43057 232.358 8.34207 232.056 8.71018C231.497 9.38504 229.55 11.3658 229.333 11.7865C228.045 14.3194 227.51 19.2099 227.913 21.9795C228.014 22.6719 228.72 23.1276 228.588 23.934H227.479C228.386 25.9323 227.068 26.3267 227.068 28.062L226.005 28.0971C226.773 29.5432 225.989 29.14 225.788 29.5081C225.601 29.8499 225.695 30.4196 225.594 30.516C225.314 30.7877 224.508 30.3846 224.228 30.665C224.019 30.8754 223.584 32.9876 222.979 33.3557C222.816 33.4521 222.367 33.049 222.343 33.084C222.281 33.1804 222.429 33.8027 222.211 34.1708C221.963 34.5915 220.481 35.6958 220.466 35.8273C220.334 37.5802 224.283 39.7012 225.027 41.0859C225.493 41.9536 225.508 42.9528 225.749 43.3647C226.036 43.8642 227.952 45.363 228.418 45.9502C228.712 46.3183 229.193 46.9493 229.193 47.4314L228.425 48.7548C225.826 48.6847 223.74 46.6776 221.599 48.9038L221.777 49.6751L222.25 49.4034C223.616 50.5953 223.569 52.4008 224.298 53.7417C224.391 53.917 226.393 56.5201 226.602 56.7567C227.913 58.2817 230.776 59.237 229.643 61.7437L223.437 63.0496V64.2853L224.112 63.9172C224.57 66.5466 225.997 66.827 227.246 68.0891C228.425 69.2811 234.112 75.1006 235.384 74.9166C235.904 74.8377 236.509 73.9174 237.075 73.637C238.029 73.1637 240.411 73.2426 241.365 72.0594C241.559 71.814 241.412 71.2531 241.544 71.0515C241.668 70.8587 243.126 69.7982 243.778 68.7464C244.468 67.6246 246.035 63.7157 246.609 62.9356C247.121 62.2345 248.083 61.9365 248.588 60.9636C248.774 60.6043 248.58 59.9294 248.789 59.5964C249.053 59.1757 249.782 59.1056 249.899 58.6235C250.054 57.9925 249.48 57.23 249.534 56.6428C249.565 56.3711 250.232 56.4324 250.302 56.1081C250.418 55.5297 249.821 54.1975 249.999 53.733C250.201 53.2071 250.798 53.1984 251.023 52.7338C251.489 51.761 251.179 50.0169 251.489 49.4034C251.621 49.1404 252.505 49.044 252.722 48.0799C253.397 45.1439 254.096 41.2437 255.174 37.9833C256.035 35.3891 259.549 27.9481 261.496 26.4055C262.047 25.9673 262.714 26.1689 263.079 25.9147C263.444 25.6606 263.537 24.4511 264.212 23.9603C265.22 23.2153 267.338 22.9085 268.331 22.409C270.387 21.3835 272.714 19.6832 274.723 18.8857C277.113 17.9391 280.689 18.9908 282.877 18.4387C283.063 18.3949 282.923 17.7375 283.59 17.6674C286.375 17.3694 292.201 20.5772 295.397 20.4457C296.817 18.351 298.78 18.3072 300.355 17.4308C302.061 16.4842 301.891 15.9846 304.226 15.117C304.42 15.0469 304.35 14.4246 304.629 14.3895C305.886 14.1967 310.936 14.6086 312.177 14.9767C312.845 15.1783 312.782 15.7392 313.147 16.046C313.946 16.7296 314.924 16.4053 314.714 18.5351H313.884C312.86 19.2275 314.156 19.8059 314.194 19.8848C314.311 20.1039 314.016 20.6385 314.311 20.8314C315.094 21.3397 317.546 21.3835 318.647 21.7867C319.85 22.2337 326.56 25.6956 326.715 26.8175C326.948 28.5616 322.216 28.2198 322.433 30.3408C323.954 32.8561 329.555 32.3215 328.011 36.1779C327.693 36.6599 324.264 36.6424 323.449 36.9228C322.728 37.177 321.805 38.6845 320.61 38.5004L320.657 39.2892L321.355 39.596C322.107 42.8388 315.777 43.6714 314.35 45.7924C314.14 46.7653 317.228 48.1325 315.823 49.5173C315.653 49.6838 311.991 50.3762 311.425 50.4288C309.26 50.6304 306.119 49.4559 304.241 49.7539C303.31 49.9029 301.464 51.3578 300.432 51.6821C298.508 52.2956 296.22 52.0152 294.28 52.6199C294.141 52.8565 293.505 57.9311 293.528 58.2642C293.567 58.8076 294.063 59.3422 294.094 59.947C294.117 60.3414 294.133 64.1977 294.079 64.4168C294.009 64.6797 293.567 64.6184 293.388 65.0391C293.272 65.3283 293.427 65.8892 293.241 66.231C292.938 66.7744 291.581 67.8963 291.185 68.7727C290.696 69.842 291.247 71.1566 290.045 71.5598L290.06 72.1733L291.821 73.6194C290.619 75.5301 291.938 77.1252 291.93 79.0534C291.93 80.0613 290.906 84.4435 290.541 85.3988C290.223 86.2139 289.323 85.4251 290.06 87.1517C289.339 86.6434 286.492 90.4647 286.406 90.7451C286.174 91.5339 286.81 92.4016 286.74 93.1641C286.686 93.7601 286.104 94.1895 286.018 94.8644C285.755 96.9766 285.693 100.202 284.444 102.226C284.032 102.901 283.559 103.05 283.078 103.567C284.529 105.206 282.729 105.776 282.101 106.802C281.527 107.748 279.595 111.017 278.742 111.675C277.019 113.007 275.01 112.577 276.857 116.179C276.857 116.179 275.693 118.388 275.367 118.633C275.041 118.879 272.753 119.492 272.101 119.738C271.449 119.983 266.229 121.578 266.229 121.578L265.577 125.636C265.577 125.636 263.397 128.467 262.637 128.467C261.876 128.467 259.045 129.081 258.61 129.081C258.176 129.081 256.322 131.666 256.322 131.666C256.322 131.666 254.142 134.62 253.816 134.865C253.49 135.111 249.247 137.696 248.487 137.941C247.726 138.187 242.397 139.905 242.397 139.905L241.202 141.5L237.766 142.219C237.339 143.402 236.897 144.638 236.517 145.838C234.213 153.121 236.284 162.578 238.565 169.975C238.991 171.36 239.705 173.604 240.357 174.735L240.031 175.69L240.931 176.119L240.729 177.39C242.839 176.934 241.086 179.66 242.917 179.941L242.568 181.133L243.63 181.168C243.351 182.763 244.15 182.631 244.523 183.324C245.399 184.928 246.858 187.697 247.222 189.45C247.362 190.134 247.005 190.984 247.044 191.071C247.114 191.203 247.734 191.212 247.959 191.72C248.13 192.106 247.719 193.455 247.781 193.56C247.897 193.762 248.766 193.867 249.006 194.437C249.154 194.779 248.719 195.585 248.813 195.699V196.05L248.595 200.064L249.1 203.342L250.186 205.147L249.239 207.61L249.309 210.967L250.395 214.735L250.977 217.198L249.961 219.249L251.411 222.203C251.411 222.203 252.862 223.105 252.792 223.351C252.722 223.596 252.358 226.462 252.358 226.708C252.358 226.953 253.374 236.217 253.374 236.217C253.374 236.217 256.275 240.319 256.493 240.319C256.71 240.319 256.997 240.976 256.997 240.976L260.41 244.403C260.178 244.666 259.813 244.806 259.479 244.815L260.147 246.41C260.092 246.498 259.572 246.41 259.487 246.743C259.324 247.392 261.419 252.755 261.504 254.324C261.589 255.928 261.496 260.126 261.039 261.713C260.798 262.554 260.356 263.483 259.976 264.272C259.759 264.719 259.138 264.789 259.154 264.955C259.278 266.998 262.233 270.959 262.303 272.475C262.319 272.817 261.838 273.308 261.861 273.694C262.063 276.665 263.606 280.276 262.024 283.256C261.814 283.659 261.434 284.185 261.194 284.623C260.953 285.061 260.286 285.885 259.852 286.2L259.867 286.814L260.496 286.884L261.023 289.689C261.791 289.557 262.637 289.654 263.381 289.399C270.239 287.103 277.26 286.823 284.684 287.454L288.904 288.944L288.935 290.144L287.834 289.732C288.803 292.274 285.832 293.221 289.556 293.72C290.595 293.86 292.085 293.378 293.163 293.449C297.539 293.738 300.929 294.711 304.862 296.919C307.934 298.637 311.549 300.705 307.841 304.641L304.769 306.157C305.428 306.341 306.08 307.288 306.429 307.515C306.863 307.796 308.469 308.085 308.818 308.225C310.882 309.04 317.724 311.126 318.779 312.906C319.912 314.825 319.539 317.253 319.865 319.26L318.764 318.848C317.848 320.084 322.774 323.659 323.504 324.51C324.186 325.29 325.14 326.648 325.49 327.665C325.668 328.173 326.739 332.906 326.715 333.186C326.684 333.607 325.978 333.958 326.157 334.755C326.258 335.193 326.855 335.456 326.863 336.105C326.863 336.359 326.18 336.245 326.102 336.596C326.071 336.753 326.157 339.707 326.188 339.865C326.242 340.154 326.933 339.891 326.863 340.654C326.397 346.009 319.757 346.947 316.079 345.36C313.713 342.985 311.634 339.812 308.64 338.375C303.481 335.895 303.039 338.243 298.663 339.4C296.778 339.9 294.366 339.611 292.442 340.496L292.232 339.655H291.511L291.286 340.487L285.871 340.058C284.521 342.371 283.59 345.369 281.255 346.675C279.673 347.56 274.304 349.155 272.373 349.427C271.364 349.567 269.285 350.005 269.231 348.796L268.998 349.532L266.841 349.628L267.082 352.354C266.958 353.266 264.398 353.564 263.692 353.581C262.59 353.599 261.326 352.652 261.132 352.6C260.744 352.477 259.27 353.494 258.548 353.318C257.555 353.082 257.129 351.679 256.702 353.388C254.864 352.372 253.343 352.547 251.373 352.95C251.823 358.367 255.973 362.144 254.313 367.911C250.209 368.603 247.393 364.09 243.343 365.492C243.033 366.78 243.374 368.227 242.265 369.156C240.566 369.094 238.821 370.155 237.393 368.752L237.207 369.576L234.818 367.92C234.585 369.375 231.389 369.085 230.023 369.366C229.558 369.462 229.232 370.12 228.743 370.216C225.539 370.873 221.513 369.997 218.379 368.823C216.851 368.253 213.67 366.377 212.095 365.851C211.366 365.606 205.959 364.589 205.478 364.861C204.896 365.176 204.865 365.913 204.415 366.193C203.042 367.061 200.11 368.148 198.558 367.911C197.185 367.701 196.308 366.482 195.207 366.263C192.073 365.632 189.668 366.693 186.223 364.721C185.649 364.388 180.731 360.365 180.522 360.023C180.428 359.874 179.342 357.823 179.242 357.604C178.45 355.895 178.357 354.011 178.613 352.188C178.621 352.118 179.117 352.1 179.141 351.916C179.35 350.435 178.551 348.577 178.869 346.999C178.923 346.745 179.591 346.508 179.862 345.939C180.615 344.361 183.035 338.734 183.19 337.341C183.469 334.825 183.407 334.326 183.291 331.889C183.229 330.662 184.082 327.586 182.981 327.49C182.756 326.701 182.36 323.624 182.042 322.687C181.693 321.67 179.761 320.303 179.443 319.698C178.489 317.884 178.916 316.657 176.728 314.711C173.222 311.591 171.515 310.82 169.319 306.034C169.102 305.552 169.234 304.588 168.955 304.106C168.676 303.624 167.884 303.957 167.814 303.869C167.605 303.624 168.202 302.528 168.117 302.274C168.101 302.222 167.566 302.204 167.45 301.924C166.915 300.662 166.022 297.357 164.339 297.612C164.145 297.638 164.137 298.243 164.044 298.286C163.749 298.435 163.416 298.094 163.028 298.628C162.485 299.373 162.252 301.17 162.175 301.284C161.95 301.599 161.213 301.783 160.801 302.406C160.39 303.028 160.716 304.255 160.367 304.632C160.212 304.798 159.669 304.632 159.459 304.798C158.653 305.473 156.992 309.584 156.31 310.39C155.922 310.846 155.185 310.741 154.766 311.372C154.355 311.994 154.432 313.116 153.99 313.826C153.408 314.755 152.02 314.86 151.717 315.211C151.337 315.649 151.5 317.183 151.159 317.524C150.972 317.708 150.336 317.489 150.212 317.647C150.018 317.884 150.267 318.681 150.042 319.146C149.444 320.373 146.434 321.328 146.799 322.976L145.736 323.011C145.93 323.572 146.194 325.167 146.07 325.64C145.946 326.113 144.72 327.332 144.464 329.05C144.27 330.347 144.96 331.425 144.906 332.301C144.859 333.002 144.254 333.747 144.293 334.457C144.309 334.825 145.263 337.218 145.216 337.779C145.185 338.182 144.658 338.489 144.658 338.612C144.658 338.874 145.402 339.041 145.62 339.392C147.303 342.065 147.675 345.72 149.786 348.174C147.559 349.322 149.328 351.618 149.444 353.345L150.523 353.581C149.374 354.791 149.615 356.929 149.018 358.454C148.932 358.673 146.768 361.548 146.465 362.013C145.224 363.879 144.859 364.081 142.78 365.247C142.478 365.413 141.966 365.054 141.764 365.159C141.322 365.396 139.499 367.289 138.839 367.438C138.537 367.508 133.448 367.184 132.688 367.078C128.514 366.474 124.426 364.388 119.849 365.457C119.406 365.562 116.536 367.157 115.675 367.376C114.224 367.753 111.106 367.657 110.027 368.113C108.809 368.63 108.158 370.286 106.552 369.164L106.195 369.979C100.617 369.752 98.4762 369.699 93.55 367.56C91.2615 366.561 91.2925 368.06 89.8884 368.279C89.3143 368.367 88.8644 367.92 88.523 367.929C88.267 367.929 88.3369 368.612 88.1352 368.673C86.3276 369.243 84.8924 367.85 84.9933 365.86C80.7964 366.298 77.6545 370.935 74.3885 365.597L76.2581 353.914L76.4521 348.445L78.8492 343.038L82.1152 340.084L86.6845 341.556L91.6882 333.931L100.392 338.603L106.482 336.64L105.83 330.741L105.179 329.269L100.61 327.305L97.1263 322.634L94.512 318.208L90.1599 315.999L88.6394 309.119L81.4558 302.485L72.1 301.994L71.2311 295.605L70.5795 289.952L67.4764 286.665L67.5385 286.604ZM90.8969 142.569C89.8651 141.509 87.5456 144.05 87.6232 145.4L87.2663 144.576H86.5371C86.0716 146.504 83.4573 147.1 83.946 149.151L83.2711 148.801C83.0151 150.334 81.5954 151.018 80.9826 151.833C79.1052 154.34 77.4761 157.696 75.7306 160.659C75.5367 160.992 74.8695 161.053 74.5747 161.632C73.2249 164.279 73.7679 172.333 74.0937 175.427C74.2179 176.566 75.4125 177.96 74.3808 179.923C75.2574 179.318 76.0254 180.598 76.1728 181.483C76.359 182.64 75.7151 182.92 75.6608 183.464C75.5444 184.594 76.5219 185.594 76.5529 186.356C76.6383 188.162 75.5987 191.501 76.359 193.876C76.4986 194.305 78.0036 195.112 77.7011 196.558C78.7406 196.812 78.2131 196.085 78.6863 195.287C78.7794 195.129 79.3922 195.077 79.5086 194.639C79.6638 194.034 79.0974 193.28 79.1518 192.667C79.1673 192.518 80.1602 190.642 80.3852 190.221C82.1229 186.952 84.6985 184.673 85.8001 180.922L85.42 179.739C87.1189 177.32 88.7635 173.148 89.7643 170.273C89.8651 169.975 89.3454 169.432 89.5083 169.16C89.7488 168.757 91.1684 169.081 90.2142 167.232L90.9512 167.443L90.2375 166.014C90.8581 164.857 91.7037 162.605 91.9132 161.342C92.3786 158.582 92.7743 152.254 92.8131 149.344C92.8518 146.268 92.014 145.014 90.9047 142.569H90.8969ZM69.5865 164.533C68.3143 164.796 67.4066 165.479 67.7402 167.031C66.4214 166.189 66.592 169.616 64.7923 169.117L65.1646 169.94C61.8754 170.396 63.5821 165.891 61.2935 164.98C60.7815 165.032 58.3146 173.586 55.677 170.685C54.9012 169.826 56.3829 166.785 55.0486 166.627C54.8469 168.205 53.5358 168.258 53.3574 168.538C52.4032 170.037 52.2326 172.955 51.2008 174.331C49.8742 176.102 49.1372 174.384 48.5244 173.131C48.2839 172.649 47.8339 171.115 47.5779 170.493C47.384 170.028 47.0814 169.669 46.7634 169.327L47.5004 168.293C46.8177 167.714 44.3042 170.238 44.2344 170.449C44.0404 171.018 45.0722 171.457 43.862 171.816C44.6533 173.131 43.6758 172.727 43.3034 173.306C42.9311 173.884 43.0707 174.954 42.1553 174.962C40.6348 174.98 39.4246 169.73 40.1306 168.293C38.2997 168.223 38.9359 169.388 38.6333 170.037C37.7102 172.035 37.0585 176.023 38.6411 177.706L38.3385 178.486C39.2151 181.799 40.5417 184.98 41.5657 188.503C42.0467 190.142 41.8838 192.728 41.6666 194.437C42.1398 194.814 43.0009 195.822 43.3965 196.409C43.6525 196.777 43.7301 197.689 43.8465 197.776C46.0652 199.424 43.9706 195.331 43.9629 195.121C43.9473 194.831 44.63 193.026 44.7541 192.553C44.855 192.158 44.4981 191.597 44.7076 191.185C45.3592 189.923 47.415 189.555 48.2373 190.957C48.3227 192.412 49.913 197.242 51.5576 195.129C51.6507 195.007 52.5351 192.29 52.5506 192.132C52.6204 191.588 52.0153 191.238 51.9998 190.905C51.9765 190.072 52.3877 189.17 52.2636 188.267H54.8159L55.5684 193.666L58.5008 194.078C59.3541 191.983 58.687 185.953 62.3253 188.249C62.5891 188.416 62.6046 190.475 64.5595 189.958C65.0017 189.844 66.8325 180.87 69.2219 189.467L71.7664 189.082C71.2544 187.627 72.2474 186.566 72.5267 185.164L71.7664 184.524L72.4956 184.112C70.6726 183.823 71.5492 181.685 71.3863 180.615C71.2079 179.423 70.0209 177.127 69.7339 175.786C69.1133 172.929 69.7339 170.563 69.8736 168.1C69.9279 167.109 69.4314 165.637 69.5555 164.559L69.5865 164.533ZM74.0006 197.382C72.5112 197.478 72.0767 198.153 71.2777 199.31C71.1458 199.503 70.7347 199.441 70.7114 199.485C70.6338 199.625 71.8905 201.948 70.4321 202.386C68.547 202.947 66.018 199.906 65.5448 200.3C65.3353 201.378 65.0871 202.456 64.9009 203.543C64.8233 203.999 65.1336 204.525 65.1026 204.683C65.056 204.954 64.6449 204.867 64.5983 204.981C64.4664 205.314 64.8155 205.901 64.2182 206.094C62.7597 206.567 61.984 205.62 61.8443 204.051C60.1609 204.358 60.7893 205.857 61.3401 207.329C61.7668 208.451 62.3951 209.529 63.3416 210.116C61.7125 216.357 59.4782 211.317 57.9267 211.168C56.7087 211.045 57.2595 214.481 57.5078 215.393C57.756 216.304 59.2688 217.864 59.2843 218.031C59.3308 218.539 58.749 219.862 58.4154 220.143C55.9019 222.255 53.8462 215.796 52.4032 215.752C50.7663 215.708 52.2791 219.275 52.6825 220.353C53.2721 221.94 55.0641 224.21 56.2821 225.516C57.8414 227.172 59.1136 229.722 61.4875 229.845L61.1306 231.046C63.745 231.686 63.8536 236.401 66.8558 234.429C67.0653 234.061 66.7006 233.465 66.7782 233.035C67.1428 230.985 67.0497 231.107 68.035 229.766C68.1591 229.6 67.6781 228.399 67.7635 228.04C67.8333 227.75 68.3763 227.759 68.4461 227.444C68.9194 225.419 69.1211 224.061 69.7494 222.062C70.6726 219.118 70.0132 218.6 71.6811 216.032C72.069 215.436 72.4801 212.395 73.3723 211.641C75.5522 209.792 74.8462 208.863 76.1495 206.348C75.3582 205.112 76.4986 205.41 76.584 205.033C76.6538 204.735 75.9944 201.44 75.8315 201.063C75.5134 200.327 73.7446 198.916 73.9929 197.408L74.0006 197.382ZM273.909 296.797C274.506 296.104 279.292 296.77 280.192 296.612C281.247 296.428 284.025 294.684 282.473 293.562C279.828 291.643 277.78 290.565 274.483 290.986C273.086 291.161 272.792 291.266 271.155 291.345C268.478 291.477 262.295 294.544 259.984 295.911C259.464 296.218 258.339 296.428 258.184 296.551C257.974 296.718 256.283 298.874 256.244 299.084C257.711 299.505 257.711 302.09 257.005 303.273C256.943 303.379 255.507 304.912 255.414 304.982C255.313 305.061 255.026 304.755 254.864 304.833C254.778 304.877 254.77 305.447 254.514 305.508C252.862 305.868 250.527 305.175 249.821 308.015C249.573 309.005 250.651 311.731 251.45 312.388C246.858 314.799 244.235 315.929 248.456 321.46C247.114 324.948 242.591 323.44 242.42 327.963C242.374 329.164 244.267 329.847 244.926 330.469C245.492 331.004 245.624 332.196 246.679 332.152C245.911 333.66 245.965 334.685 244.135 334.676C243.941 334.93 244.142 336.307 244.267 336.762C244.383 337.183 246.283 339.549 246.602 338.901C248.634 342.599 252.342 344.396 254.095 348.296C256.547 348.375 258.502 349.444 260.666 347.525C260.922 347.139 259.689 345.851 259.417 345.623C258.354 344.72 256.5 343.791 255.213 343.309L255.151 341.714C256.818 342.407 256.462 341.635 257.718 340.671L253.653 336.517C254.173 334.343 256.369 335.29 257.718 334.194C256.741 331.574 252.179 330.32 256.074 327.989L256.981 328.813C256.78 327.691 257.78 328.138 258.029 327.937C258.114 327.866 257.819 327.288 257.92 327.148C258.525 326.333 260.736 326.815 260.961 326.631C261.039 326.56 262.086 324.922 262.109 324.808C262.42 323.037 257.773 323.23 256.857 322.581C255.833 320.548 258.905 320.495 259.813 319.943C259.953 319.856 260.007 319.4 260.209 319.277C261.589 318.427 263.048 317.779 264.343 316.753C264.786 315.885 259.766 314.036 259.239 313.799C258.618 310.636 262.117 310.469 263.979 310.942L263.606 310.118C265.026 310.802 265.98 309.856 267.299 309.461C268.183 309.189 269.44 310.057 269.502 308.041C267.881 307.954 265.429 307.472 265.538 305.21C265.988 304.991 266.399 304.632 266.849 304.422C267.889 303.931 271.938 302.73 273.048 302.651C274.622 302.537 276.213 303.563 277.811 302.248L277.904 300.627C276.546 299.286 273.358 299.18 273.924 296.814L273.909 296.797ZM301.441 309.82C298.842 309.461 295.979 309.286 293.412 309.882C292.659 310.197 294.211 311.538 294.288 311.6C295.599 312.66 295.467 311.705 296.507 313.677C296.685 314.01 297.926 313.817 296.445 314.983C293.598 317.218 290.208 314.027 287.174 315.561C286.957 315.903 287.756 318.05 287.989 318.278C288.679 318.962 291.387 319.33 290.58 321.644C290.44 322.047 287.392 323.177 286.895 323.256C285.545 323.475 283.125 322.538 281.977 324.115C280.673 325.894 284.42 327.174 285.119 327.998C285.724 328.708 285.297 330.049 286.779 329.654C287.376 330.25 285.755 331.013 285.375 331.179C284.304 331.653 283.078 331.74 281.992 332.161L282.302 332.915L281.255 334.01C282.039 335.167 282.365 335.386 283.637 335.474C285.173 335.579 290.634 334.755 292.209 334.335C294.467 333.73 300.634 330.618 301.953 329.514C302.566 328.997 303.931 328.866 303.248 327.656C303.186 327.542 302.69 327.463 302.472 327.113C301.767 325.982 301.045 324.825 300.393 323.642C300.649 322.336 306.553 322.362 307.755 321.337C307.298 320.294 305.894 321.065 306.282 319.26C305.568 320.145 303.597 318.392 303.683 317.428C305.42 315.824 307.709 315.614 309.749 314.711L309.959 313.861C308.267 312.713 306.925 310.767 304.854 310.346C304.102 310.189 302.542 310.627 301.735 310.495C301.495 310.46 301.479 309.847 301.425 309.838L301.441 309.82Z" fill="black"/>
<path d="M203.544 149.213C204.483 150.94 207.563 154.191 209.378 155.795C211.333 157.522 211.232 158.556 212.598 161.071C214.591 164.735 214.925 163.674 215.724 168.407C215.825 169.012 216.151 167.724 216.104 170.099C216.104 170.335 216.655 170.344 216.795 170.686C217.997 173.631 218.082 179.222 218.711 182.579C219.091 184.621 220.728 187.724 221.635 189.591C221.868 190.073 222.667 189.617 222.365 190.721H221.255L221.628 191.966L219.96 191.659C218.129 192.965 220.883 195.331 220.906 195.568C220.953 196.12 220.627 196.716 220.751 197.707C220.976 199.442 221.961 200.012 221.992 200.161C222.209 201.361 221.767 202.597 222.737 203.824L221.255 204.455L221.643 205.884L220.875 206.322L221.566 206.576C221.007 208.461 221.775 208.084 221.853 208.32C222.465 210.178 223.575 213.824 223.815 215.91C223.831 216.077 223.21 216.033 223.102 216.401C222.776 217.514 223.458 219.548 221.868 219.784C220.379 218.233 218.641 217.199 216.957 215.954C216.275 215.455 215.584 213.307 214.25 215.078L218.292 225.893C217.85 228.794 218.346 231.634 218.113 234.614C217.904 237.304 215.98 236.7 214.7 235.157C214.63 235.078 214.948 234.605 214.878 234.508C214.607 234.158 213.723 233.746 213.56 233.238C213.28 232.396 213.296 230.337 213.04 229.933C212.59 229.241 209.161 226.48 208.742 226.918C208.765 228.11 208.021 229.416 208.059 230.573C208.106 231.975 208.308 231.327 208.129 233.01C208.044 233.798 208.928 234.57 207.64 234.412L208.308 234.903C208.804 237.944 207.943 240.871 207.609 243.939C207.563 244.027 206.042 244.351 205.895 244.263C205.763 244.193 204.134 241.906 204.064 241.765C203.948 241.52 203.49 238.952 203.242 238.33C202.901 237.471 201.434 234.973 200.752 234.833C200.457 234.771 200.046 235.096 199.735 235.034C199.363 234.964 199.022 234.386 198.673 234.447C197.183 234.719 198.075 240.67 197.99 242.116C197.959 242.659 197.571 243.054 197.517 243.588C197.261 246.332 198.261 249.057 194.584 249.373C194.514 248.742 193.739 248.014 193.723 247.927C193.49 246.814 193.366 244.088 193.048 242.817C192.397 240.214 190.403 237.664 188.13 236.901C188.471 237.9 187.548 238.093 187.447 238.435C187.199 239.232 187.424 241.59 187.315 242.107C187.261 242.353 186.71 242.265 186.656 242.589C186.315 244.517 186.532 246.454 185.717 248.759C185.097 250.512 182.793 255.753 180.76 253.264C180.473 251.985 181.094 250.328 181.024 249.224C180.853 246.586 179.674 241.511 178.169 239.303C177.828 238.794 177.168 237.927 176.555 238.128C176.261 238.225 174.841 241.984 174.678 242.607C174.065 244.982 174.647 247.664 173.832 250.477C173.654 251.091 172.653 251.24 172.987 252.668L171.924 252.703L172.258 253.878C171.241 253.913 171.528 255.184 170.947 255.639C170.535 255.964 168.612 256.577 168.115 256.402C167.238 256.095 167.153 254.316 168.247 254.149C167.308 252.993 167.58 250.775 167.518 249.145C167.386 245.771 167.719 244.176 166.439 240.293C164.756 235.166 167.812 229.758 167.448 225.008C167.44 224.903 167.215 224.342 167.029 223.439C166.92 222.887 166.044 222.168 166.463 221.537C166.587 221.353 167.293 221.782 167.138 221.081L166.37 220.827L166.742 219.591C165.361 218.741 165.788 216.296 165.951 214.937C166.075 213.903 165.64 212.15 167.394 211.975C168.961 211.826 168.612 214.438 168.72 214.745C168.767 214.876 170.357 216.051 170.411 216.156C170.45 216.243 170.411 216.699 170.784 217.654C171.924 220.555 171.784 221.572 172.366 224.096C172.514 224.736 173.77 225.972 174.135 226.682L173.406 227.295C175.5 227.024 174.981 231.45 177.083 230.337C177.261 228.601 178.557 227.33 177.44 225.849L178.13 225.446C178.216 224.359 177.502 222.378 177.517 222.168C177.548 221.712 178.122 221.204 178.107 220.853C178.091 220.389 177.067 219.846 176.889 219.399C176.796 219.171 177.479 218.321 177.137 217.111C176.687 215.507 175.826 213.973 175.151 212.194C174.756 211.142 175.764 210.766 174.151 210.038L174.887 209.626C173.817 208.978 172.459 207.496 174.05 206.83L173.786 206.094C175.679 205.726 178.13 206.997 177.471 209.416L178.859 209.504C179.441 210.196 178.953 211.318 179.015 211.432C179.115 211.607 180.411 212.168 180.807 212.939C181.078 213.474 180.752 213.973 180.977 214.385C181.334 215.034 183.475 217.164 183.599 217.453C184.523 219.548 184.026 219.39 185.585 221.677C186.377 222.843 185.213 223.027 187.401 223.141C187.61 221.669 187.882 220.179 187.982 218.689C188.076 217.409 187.354 215.271 188.51 215.034C186.912 213.246 188.526 211.677 186.873 210.003C186.152 209.276 185.422 208.531 184.864 207.409C184.228 206.138 181.326 199.214 182.25 198.18C184.685 197.584 185.5 199.985 186.842 201.519C187.145 201.861 187.758 201.8 188.169 202.229C188.65 202.737 192.001 209.468 193.048 211.125C193.289 211.502 194.592 214.289 194.77 214.403L196.966 211.283C197.144 210.38 196.19 210.95 196.198 210.064C196.198 209.048 196.787 208.11 196.997 207.146L196.306 206.83C195.872 202.282 194.15 197.628 191.318 193.324C191.109 193.009 190.155 192.413 190.1 192.238C189.712 191.16 189.844 189.731 188.875 188.618C189.487 188.644 189.868 187.864 190.465 187.864C192.528 187.873 197.385 196.217 199.51 197.409L199.185 198.583L202.466 198.548C202.412 197.321 202.668 195.761 202.528 194.604C202.435 193.824 201.807 194.078 201.76 193.728C201.69 193.202 201.783 190.108 201.69 189.95C201.574 189.757 201.008 189.696 200.744 189.144C199.177 185.91 197.043 182.132 195.399 179.547C194.825 178.644 193.087 178.364 194.002 176.988L192.932 176.12L195.492 174.884C195.205 175.296 196.206 176.821 196.306 176.847C196.617 176.935 196.896 176.435 197.268 176.628C198.013 177.014 199.557 178.986 200.395 179.556C201.108 180.038 206.275 183.009 206.547 182.772C206.904 182.036 206.329 177.794 205.996 177.364C205.662 176.935 205.018 177.101 204.685 176.672C204.312 176.19 203.343 173.131 202.846 172.29C201.427 169.88 199.192 167.881 197.928 166.137C197.718 165.848 198.657 165.015 196.981 165.305L197.711 164.481L196.299 164.411C196.283 163.429 194.615 161.431 196.058 161.141C197.664 160.817 198.835 162.649 200.162 163.587C200.635 163.92 201.535 163.937 201.706 164.148C201.908 164.402 201.69 165.085 201.791 165.287C201.83 165.366 203.172 164.901 203.436 164.963C203.544 164.989 204.382 166.803 205.298 165.305C205.406 165.121 205.065 161.141 205.003 160.922C204.817 160.283 202.35 157.916 202.272 157.715C202.086 157.206 202.551 156.076 202.334 155.725C202.039 155.252 201.458 155.725 201.07 155.506C199.79 154.779 198.929 152.789 197.369 152.36L197.726 151.168C196.074 151.553 196.694 150.081 196.136 149.204C195.368 148.004 193.661 148.591 195.197 145.795C198.261 145.453 200.271 147.46 202.683 149.117C203.025 149.353 203.537 149.099 203.568 149.152L203.544 149.213Z" fill="black"/>
<path d="M134.153 146.978C134.199 147.084 134.571 147.057 134.742 147.075V147.688C134.602 148.065 131.453 150.896 130.933 151.676C129.188 154.253 127.008 157.531 125.301 159.538C124.991 159.906 123.649 161.001 123.563 161.203C123.385 161.615 122.819 165.454 122.974 165.787L125.208 165.612L125.743 164.095C127.923 164.867 127.031 164.095 127.985 163.342C128.893 162.623 130.312 162.509 130.887 161.194C134.044 163.035 131.926 163.771 130.84 165.471C128.629 168.933 125.922 173.342 123.323 176.488C122.904 176.997 123.338 178.215 121.872 177.847L121.624 181.817C122.206 182.983 123.587 182.764 124.533 182.378C124.975 182.203 124.603 181.046 125.922 182.001V180.739L126.814 181.16C126.744 180.397 128.311 180.266 128.412 180.178C128.932 179.714 129.444 178.513 129.987 178.048C131.112 177.084 132.617 176.365 133.656 175.147C134.602 175.191 135.89 175.752 135.65 176.997C135.456 177.978 134.711 178.416 134.525 178.776C131.755 184.315 128.435 186.471 126.511 193.78C126.054 195.525 125.278 196.234 125.953 198.294L127.039 199.88C126.891 198.154 128.551 197.917 129.475 196.822C131.732 194.122 134.028 190.52 136.495 188.522C136.767 188.303 136.844 187.531 137.147 187.488L139.56 188.872C139.692 189.223 138.986 188.872 138.838 189.372C136.55 196.971 130.173 203.719 131.624 212.317C131.817 213.492 131.205 214.237 132.756 215.28C133.788 213.851 134.16 212.116 135.347 210.713C136.123 209.802 135.766 210.801 136.596 209.25C139.117 204.552 140.188 203.868 143.097 200.196C143.198 200.073 142.895 199.451 143.221 199.258C143.857 198.881 144.656 199.407 144.912 198.215L146.03 198.645C146.107 199.837 146.185 201.029 145.455 201.966L146.192 202.378C144.804 202.457 145.106 204.026 144.641 204.99C141.569 211.371 140.188 210.967 140.599 219.127C140.653 220.179 140.11 221.967 141.142 223.054C142.352 224.324 144.951 220.95 144.765 219.469L145.774 219.399L145.657 218.592L146.557 218.181L145.836 217.585C145.991 216.585 146.658 216.279 146.798 215.989C148.256 212.948 149.404 211.835 151.095 209.013C151.39 208.522 151.84 206.419 152.166 206.208L154.664 206.121C154.447 206.725 155.036 208.391 154.966 208.548C154.92 208.654 153.376 209.749 153.299 209.968C153.027 210.74 153.19 213.097 152.732 213.527C152.499 213.746 151.84 213.509 151.724 213.614C151.615 213.719 151.949 214.35 151.887 214.613C151.01 218.102 150.738 221.055 150.987 224.605C151.049 225.525 151.382 229.671 151.949 229.837C153.733 230.372 156.099 225.096 156.378 223.29C156.479 222.659 156.091 221.678 156.215 221.344C156.409 220.827 157.014 220.819 157.232 220.337C157.922 218.812 158.209 217.804 158.985 216.209C159.574 214.999 160.187 213.877 160.529 212.536L161.654 212.352C161.591 213.544 162.74 215.402 162.74 216.305C162.74 216.866 162.026 218.847 161.886 219.644C161.374 222.466 161.111 223.702 161.087 226.726C161.064 230.495 164.004 236.77 162.383 240.731C162.181 241.231 161.599 241.178 161.436 241.66C160.94 243.124 161.832 250.583 161.584 252.914C161.529 253.431 160.932 255.99 160.699 256.06C158.993 256.551 157.488 255.193 156.596 253.65C154.804 250.583 154.54 247.208 154.222 243.878C154.206 243.711 153.617 241.503 153.492 240.959C153.392 240.521 152.205 238.663 151.879 238.584C151.53 238.584 149.939 240.39 149.885 240.521C149.497 241.389 149.691 242.37 149.489 242.826C149.226 243.422 148.178 244.623 147.93 245.639C147.643 246.831 147.907 252.73 147.635 253.072C146.557 254.421 143.307 251.371 142.919 250.293C142.577 249.338 142.903 248.444 142.81 247.909C142.709 247.313 141.46 244.351 141.429 244.123C141.243 242.695 141.732 240.205 141.096 238.733C140.653 237.708 139.668 237.804 139.94 236.472C139.086 238.26 137.868 236.971 136.976 238.742C136.402 239.89 137.108 240.95 135.541 240.652L134.789 249.873C133.78 251.152 133.369 250.442 132.609 249.513C132.267 249.093 130.258 243.054 130.437 242.756C130.499 242.651 130.995 242.773 131.042 242.511C131.112 242.116 130.289 234.824 130.002 234.579C128.621 234.333 127.45 234.43 126.147 234.938C125.891 235.043 126.077 235.911 125.254 235.254C124.812 235.937 124.929 237.401 124.805 237.857C124.711 238.198 124.192 238.093 124.122 238.426C123.835 239.759 124.347 244.588 121.717 242.747C119.017 240.863 120.049 233.317 120.274 230.24C120.352 229.18 119.591 228.75 120.817 228.356C120.274 227.322 120.119 226.875 120.429 225.657C118.226 225.104 117.877 226.577 116.605 228.005C116.403 228.233 115.852 228.04 115.619 228.409C114.968 229.416 114.758 232.484 114.456 233.054C114.332 233.282 113.688 233.343 113.424 233.755C113.3 233.948 112.361 236.156 112.152 236.06C111.857 235.639 111.236 235.262 111.05 234.807C109.778 231.608 110.321 228.926 109.398 225.876C109.576 225.464 110.29 225.42 110.414 225.192C110.6 224.868 110.748 220.258 110.887 219.697C110.965 219.39 111.539 219.478 111.585 219.171C111.647 218.75 111.213 217.225 111.329 216.734C111.384 216.507 113.548 214.386 111.229 214.622C108.606 214.894 109.142 216.682 107.226 217.996L105.108 216.734C104.937 215.849 105.596 214.438 105.565 213.816C105.534 213.194 105.061 212.72 105.069 211.563C105.077 210.021 106.209 208.636 106.302 207.812C106.465 206.41 105.418 205.095 107.187 204.867C105.542 202.79 107.288 202.212 107.412 201.353C107.466 200.985 107.016 200.1 107.195 199.889C107.233 199.845 107.807 199.986 108.281 199.591C109.561 198.504 109.382 195.752 111.236 195.305L109.956 194.061C105.627 198.338 106.171 196.103 106.683 191.572C107.148 187.47 107.086 185.84 109.32 182.755C109.444 182.588 109.173 179.223 109.405 178.933C111.686 175.875 111.36 169.994 112.803 166.453C113.067 165.813 113.688 165.883 113.765 165.734C113.866 165.559 113.354 165.033 113.517 164.63C115.232 160.388 118.04 156.628 121.042 153.149C122.089 151.93 123.199 150.852 124.58 149.818C127.396 147.723 128.396 147.215 131.608 146.654C131.717 146.637 131.926 145.567 133.509 145.822C134.657 146.006 134.028 146.602 134.199 146.978H134.153Z" fill="black"/>
<path d="M290.451 33.1545C290.823 33.7417 289.791 39.868 287.898 38.9302C287.565 36.4411 288.356 34.6795 289 32.6899L290.451 33.1545Z" fill="black"/>
<path d="M40.7821 34.8723C41.5268 35.775 41.1544 37.151 40.5028 37.9311C39.9908 38.5446 39.44 37.8084 39.215 38.9214C37.2834 38.1414 39.3779 33.1632 40.7743 34.8635L40.7821 34.8723Z" fill="black"/>
<path d="M171.516 56.8891C171.043 57.8444 171.578 59.7025 171.399 60.3423C171.252 60.8681 170.686 61.3677 170.375 61.9374C170.158 62.3318 170.22 63.1031 170.011 63.3748C169.894 63.5325 167.202 64.9787 166.776 64.7157C166.489 70.0533 172.78 71.7448 173.781 65.969L175.814 67.2048C176.031 69.6326 173.541 70.5002 172.788 71.5169C172.478 71.9376 172.191 73.5766 171.865 73.7869C171.469 74.0498 167.831 72.9718 166.652 73.1822C165.806 73.3311 165.092 74.1813 164.084 74.1638C163.231 74.1462 161.307 73.2961 160.376 73.4801C160.127 73.5327 160.143 74.1287 160.073 74.1462C158.188 74.5932 157.885 74.6283 156.621 72.8579C155.488 71.2715 155.931 71.5695 154.457 70.1497C153.099 68.8438 152.308 66.2232 154.519 66.0304C155.349 65.9603 156.458 69.7728 158.149 69.764C158.809 69.764 158.669 69.0541 158.762 69.0278C159.018 68.9402 159.406 69.282 159.755 69.0892C161.276 68.2653 161.012 66.9857 162.362 66.1881C161.524 64.6982 159.235 64.8121 159.778 62.6736L158.103 62.2617C157.73 60.0268 156.908 57.5201 158.32 55.4605C158.622 55.0223 160.663 54.1283 160.872 52.875C163.293 53.3746 165.938 52.5945 168.25 53.6989C169.848 54.4614 170.081 56.1003 171.508 56.8979L171.516 56.8891Z" fill="black"/>
<path d="M147.507 47.9669C147.236 48.5804 145.343 49.2552 145.793 50.5699L144.738 50.1755C144.288 52.6997 142.682 49.9389 142.294 51.8232L141.751 51.8057C141.906 50.754 140.812 51.0782 140.463 50.5787C138.532 47.8354 141.169 42.5329 144.202 42.3576C145.769 42.27 147.934 47.0116 147.507 47.9756V47.9669Z" fill="black"/>
<path d="M185.821 43.6371C186.209 44.2243 185.363 44.7151 186.845 44.7063L187.776 48.2384L183.959 50.9028L180.577 47.6862C180.778 46.2489 180.429 44.4171 181.663 43.4881C182.609 42.7694 185.053 42.5065 185.813 43.6458L185.821 43.6371Z" fill="black"/>
</svg>
