<svg width="329" height="371" viewBox="0 0 329 371" fill="none" xmlns="http://www.w3.org/2000/svg">
<path d="M165.241 64.6032C165.015 62.791 163.963 63.8218 162.71 63.8467C155.578 64.0046 152.387 63.5973 146.082 66.0579C144.378 66.7229 142.733 68.3356 140.636 68.1528L140.603 69.2833L139.843 68.9009C140.085 70.8794 138.206 70.3972 137.571 70.9292C137.463 71.0124 136.085 72.916 136.001 73.049C135.517 73.872 135.375 75.0773 134.74 75.892C137.655 76.2411 139.818 78.2113 142.716 78.2612C143.067 76.7316 144.545 76.7981 144.119 75.1189C143.852 74.8363 141.522 75.7257 141.78 74.537L144.603 71.3033C146.959 71.8187 149.264 70.8877 151.335 72.4089L154.108 69.275C155.678 69.7405 157.215 70.7297 158.81 69.674L158.584 68.5019C158.843 68.2858 163.32 68.6515 164.28 68.5268C165.241 68.4021 166.744 67.9366 168.573 67.7371C169.375 67.6457 169.893 66.9723 170.694 67.3298L168.247 64.4868L166.168 63.8467L165.992 64.5865L165.232 64.6032H165.241ZM98.3512 191.881L97.5912 192.031L97.207 193.402C96.1797 193.735 96.1964 192.355 96.0294 192.238C95.7371 192.039 94.6514 192.987 93.8997 193.053C92.9476 193.128 92.0289 192.588 91.2438 192.696C88.7216 193.045 85.1972 194.624 82.7417 195.48C81.1215 196.046 78.023 196.686 76.4528 197.475C76.1188 197.642 76.4695 198.273 76.3693 198.373C76.0185 198.756 74.3398 199.495 74.2313 199.712C73.6299 200.867 73.1121 203.66 72.6611 204.924C72.4857 205.431 71.993 205.464 71.9345 205.597C71.4668 206.703 71.1077 208.532 70.6317 209.471C70.5648 209.604 68.7274 211.516 68.5938 211.574C68.4017 211.657 67.8756 211.3 67.5331 211.499C66.1885 212.272 64.3929 213.029 65.1529 214.799C63.4241 214.459 64.1006 215.855 63.5159 216.886C63.232 217.393 62.4887 217.46 62.4052 217.8C62.2548 218.44 62.5555 219.272 62.4052 219.987C62.3467 220.253 61.7454 220.253 61.6618 220.56C59.9163 227.053 63.3823 230.976 63.9669 237.194C64.0839 238.458 63.6329 243.811 64.4346 244.318C66.13 244.751 67.3578 244.634 68.6523 243.387C69.0114 243.046 68.9613 242.456 69.1868 242.182C69.5376 241.758 70.331 241.766 70.5565 241.01C70.6651 240.652 70.949 238.092 70.9741 237.552C70.9741 237.369 70.3059 237.435 70.2391 237.128C69.905 235.623 69.3371 231.226 69.4624 229.812C69.4958 229.447 70.9323 226.105 71.2163 226.105C72.92 227.909 70.9156 229.488 71.4251 231.658C71.4919 231.94 72.1684 231.874 72.3271 232.763C72.5359 233.902 71.9512 235.532 72.16 236.779L73.3543 236.995L72.5609 237.626L72.1767 240.486H73.346C72.7363 237.535 75.9601 238.799 74.4818 235.349C74.3649 235.083 73.8888 235.058 73.7719 234.734C73.6132 234.268 72.9033 231.65 72.9367 231.4C72.9702 231.151 73.5631 231.184 73.7135 230.843C74.0642 230.012 73.6466 228.507 73.7385 228.432C73.8554 228.341 74.5152 228.549 74.7992 228.349C75.9768 227.543 74.5486 221.258 77.0458 223.378C77.7557 223.977 78.7913 228.141 79.4094 228.424L81.0046 226.121C81.7479 224.118 79.3175 222.713 79.6015 220.876C79.6683 220.419 80.5536 220.926 80.3782 220.261C77.8476 220.394 78.808 216.346 81.1549 218.507C79.4595 219.662 81.9149 220.577 82.2323 221.142C82.5496 221.707 81.9483 222.514 83.1259 222.788L82.3325 224.143C84.2534 223.653 82.8085 225.481 84.2868 225.307C83.627 224.243 84.5541 223.495 84.5541 222.464C84.5541 222.123 84.0112 219.214 83.9026 218.964C83.6771 218.449 82.7417 218.831 82.4077 218.066C82.2072 217.609 82.6582 214.251 82.7083 213.428C82.7417 212.912 82.3743 212.455 82.3743 212.247C82.3743 211.965 83.1009 212.015 83.3013 211.699C83.627 211.183 83.3932 210.493 83.5853 210.003C83.8108 209.421 84.7712 209.396 84.6877 208.581L85.4728 208.789C86.4583 210.327 84.9633 211.89 85.1721 213.336C85.1972 213.519 86.0323 216.346 86.6337 215.573C85.9989 214.134 87.3102 213.577 87.3853 213.328C87.8363 211.782 88.3708 209.379 87.4354 207.966L88.7884 206.62C90.2249 206.237 89.7155 210.975 89.3981 211.823L90.9348 212.455C90.4087 210.951 91.8869 210.286 92.079 209.82C92.3713 209.138 92.7305 206.927 92.9309 206.669C92.9643 206.628 93.4905 206.886 93.6575 206.761C94.5846 206.079 95.0523 204.857 96.3969 205.073C95.545 205.921 94.2254 210.576 94.4676 211.441C94.7265 212.364 96.4303 212.048 97.1736 212.073C95.5868 209.429 98.8273 209.512 98.7437 207.01L99.9046 207.409L100.28 206.004C101.6 206.595 101.4 205.132 102.444 205.464C103.93 205.946 101.859 207.168 101.842 207.276C101.759 207.9 101.659 209.936 101.6 210.784C101.525 211.84 102.026 212.863 101.466 214.01L102.978 213.935C103.128 213.012 103.772 212.314 104.214 211.491C104.398 211.15 104.248 210.601 104.289 210.576C104.498 210.435 105.008 210.518 105.333 210.277C105.659 210.036 105.709 209.521 105.859 209.421C106.043 209.305 107.622 209.596 108.106 209.338C107.789 210.177 108.799 211.175 108.716 211.699C108.632 212.264 107.739 213.295 107.496 214.018C107.237 214.791 107.847 215.564 106.937 216.337C109.994 218.291 109.735 214.999 111.23 214.251C111.664 214.035 112.975 214.251 113.585 214.001L112.808 212.838C114.37 213.17 113.777 212.189 114.111 211.815C114.512 211.358 116.049 210.286 116.207 210.02C116.349 209.787 116.358 204.782 114.595 205.447C114.019 205.589 114.161 206.628 113.86 206.902C113.677 207.068 113.075 206.919 112.917 207.11C112.641 207.443 110.762 211.549 109.676 210.502C110.386 208.822 110.737 207.01 111.263 205.339C111.413 204.874 112.416 205.381 111.605 203.743L112.833 202.147C111.48 201.84 112.449 200.809 112.224 199.637C112.04 198.731 110.77 197.351 110.044 196.719C109.618 196.353 107.521 195.339 107.43 195.223C107.212 194.965 107.43 194.325 107.304 194.209C107.07 193.984 106.16 194.267 105.659 194.142C105.367 194.076 105.442 193.519 105.091 193.402C103.295 192.829 101.667 193.253 100.564 192.987C100.239 192.912 100.473 191.64 98.5767 192.629L98.3178 191.848L98.3512 191.881ZM201.704 220.161C201.471 219.621 201.796 218.948 201.404 218.706C200.769 218.989 200.343 220.336 200.569 220.859C200.794 221.383 201.412 221.317 201.512 221.483C201.638 221.682 202.331 224.783 202.815 225.772C203.041 226.238 204.06 225.964 203.174 227.069L204.335 227.26L203.559 228.424L204.728 228.033C204.26 229.912 206.532 229.496 206.089 228.05C205.847 227.277 204.619 223.586 204.344 223.245C203.926 222.722 203.3 223.071 203.174 222.963C203.066 222.871 203.467 222.214 203.333 221.799C203.116 221.142 201.755 220.253 201.713 220.145L201.704 220.161ZM169.308 230.236C168.849 229.43 168.498 228.399 167.587 228.042C167.153 230.336 167.93 230.943 169.533 232.323C169.408 231.733 169.943 231.051 169.934 230.602C169.934 230.336 169.383 230.369 169.308 230.236ZM210.065 235.989C208.461 235.39 206.841 234.584 205.087 235.216L203.926 238.35C205.546 238.79 204.319 240.004 204.435 241.035C204.603 242.514 207.041 245.1 207.384 246.214C207.567 246.829 207.325 248.026 207.501 248.234C207.618 248.367 209.355 248.89 210.465 249.971C210.574 250.071 210.708 251.392 211.96 251.251C213.948 251.027 211.585 248.45 212.353 247.494C212.829 248.558 214.266 249.239 214.8 250.104C215.518 251.259 216.37 253.67 216.796 254.826C217.848 257.652 216.997 256.912 216.93 257.802C216.804 259.464 217.172 261.867 217.264 263.596L216.462 263.845C217.907 264.369 216.095 267.328 215.593 267.669C215.426 267.785 214.207 267.386 213.597 267.711C213.263 267.885 212.787 270.229 211.376 269.672L211.777 270.445C209.513 269.714 210.156 272.125 209.689 272.698C209.547 272.865 206.657 274.411 206.072 274.876C205.413 275.408 204.143 276.456 203.584 276.963C202.139 278.284 201.187 281.186 198.489 280.97L198.472 282.507C196.635 281.668 197.245 282.607 196.359 282.965C195.474 283.322 193.378 283.197 192.317 283.522C190.73 284.012 186.688 285.575 185.544 286.556C184.558 287.395 183.882 289.698 182.454 288.725C182.829 290.297 181.702 289.681 181.376 289.997C181.076 290.288 181.218 290.421 180.274 291.219C179.046 292.25 177.802 293.43 176.557 294.353C175.563 295.093 172.373 294.885 172.072 295.317C171.605 295.982 171.847 297.171 172.465 297.695C174.202 299.191 176.607 299.657 178.787 298.9C179.447 298.676 183.89 296.041 184.308 295.633C184.784 295.168 184.224 293.522 185.936 293.555C187.957 293.588 185.293 298.958 184.516 299.973C183.163 301.743 180.207 304.088 177.935 304.254C177.326 305.251 177.91 306.182 178.946 306.415C179.205 306.473 181.877 306.556 182.17 306.523C183.848 306.332 188.325 304.487 189.686 303.514C192.033 301.843 191.624 301.236 192.593 299.116C192.701 298.867 193.278 298.859 193.511 298.352C194.046 297.18 194.205 295.459 194.179 294.162C195.658 293.854 194.681 295.7 194.781 296.556C194.856 297.204 195.349 297.828 195.374 298.651C195.416 299.989 194.597 301.619 194.965 303.107C195.624 302.741 198.748 299.632 198.831 299.358C199.04 298.676 198.497 297.886 198.514 297.121C198.531 296.182 199.324 295.268 198.481 294.162L199.642 294.445C200.644 297.03 201.103 299.2 201.22 301.943C203.575 299.283 204.77 296.082 203.174 292.607C206.231 292.325 206.206 297.03 205.905 299.216H207.066C207.442 296.639 208.419 295.16 208.102 292.474C207.927 291.011 205.839 286.522 205.897 286.198C206.265 284.203 208.561 287.72 209.004 288.152C210.9 290.014 212.771 290.912 212.553 294.17H213.723C214.007 293.896 213.004 287.229 212.169 286.572C212.203 285.916 213.815 286.09 214.215 286.348C214.959 286.838 215.719 288.725 216.855 288.709C216.061 287.204 216.896 286.015 216.871 284.644C216.846 282.865 215.335 281.435 216.078 279.764L220.371 285.99C220.78 282.807 220.914 280.579 219.652 277.586C219.477 277.179 219.118 277.062 219.093 277.021C217.698 274.145 220.914 275.899 221.958 277.32C222.125 277.553 222.701 280.246 223.895 279.373C224.079 279.24 223.945 277.977 224.012 277.894C224.271 277.578 225.256 277.595 225.081 276.846C223.67 276.472 224.622 275.94 224.496 275.284C224.246 273.978 222.985 271.701 224.672 271.202C224.38 272.432 225.682 272.532 225.991 273.53C226.117 273.929 225.783 274.527 225.874 274.652C226.409 275.358 227.712 274.934 228.054 274.228C228.146 274.045 227.887 273.687 227.954 273.438C228.071 272.973 228.555 272.623 228.572 272.175C228.58 271.751 228.038 271.352 228.021 270.994C227.929 269.132 227.862 267.619 227.411 265.757L228.798 266.139C228.28 267.669 230.493 267.935 230.151 270.038C231.779 270.387 231.57 268.775 232.472 267.869L232.422 267.361L231.712 267.303C232.614 266.53 232.113 265.483 231.604 264.477C231.328 263.928 230.744 263.853 230.677 263.72C230.1 262.606 228.981 259.456 228.948 258.184C228.948 257.918 228.965 257.66 228.965 257.394C229.107 256.355 230.627 258.6 230.944 258.874C231.512 259.364 232.422 258.832 232.097 260.304H233.257L233.675 258.583L232.873 258.359C232.506 257.162 233.6 257.985 233.65 257.203L232.472 256.995L232.873 256.031L230.911 255.64L231.303 254.477C229.491 255.142 231.111 253.105 229.349 252.723L229.942 251.758C230.961 252.099 234.502 256.255 235.22 255.64V253.695L234.084 254.069C233.516 251.941 232.798 251.567 230.902 250.719L230.919 249.414L232.865 250.578C232.882 247.776 229.157 247.909 227.328 247.053C226.117 246.488 224.271 244.618 222.768 245.1C222.158 243.088 218.993 243.969 217.23 243.188C217.147 242.024 217.974 241.625 218.784 241.051L218.4 240.07L217.23 240.469C217.456 238.907 215.752 238.333 214.491 238.915V237.743C214.391 237.635 213.656 238.258 213.163 238.117C213.038 238.084 211.518 236.388 211.259 236.271C211.092 236.197 210.716 236.213 210.056 235.964L210.065 235.989ZM200.56 110.814C200.585 110.906 201.061 111.679 201.337 112.344C201.429 112.568 202.464 112.269 201.588 113.632H202.765C201.805 115.328 204.043 118.08 203.041 119.36C202.623 119.892 201.295 119.95 201.588 121.421L199.424 120.266C199.383 121.222 196.576 121.546 196.117 121.238C195.858 121.064 195.875 120.465 195.541 120.332C195.265 120.224 190.354 119.543 189.661 119.484C187.882 119.351 184.425 119.085 183.197 120.449C182.287 121.463 181.894 124.173 180.474 123.757L180.867 124.688C179.948 126.068 178.052 128.371 178.503 129.751L177.317 130.599L178.127 132.137L177.351 132.519L178.136 133.483L177.134 133.849L177.384 135.187L176.566 135.62C177.71 136.626 178.47 139.46 176.566 139.718L176.599 140.458L177.351 140.682C176.649 141.937 176.048 143.5 177.635 144.157L177.342 145.554L178.111 145.171L178.52 146.144L177.718 146.526C178.67 147.249 178.436 149.303 178.553 149.402C178.645 149.477 179.171 149.369 179.514 149.594C180.123 149.984 182.98 151.722 183.113 151.888C183.305 152.112 183.113 152.744 183.247 152.877C183.364 152.985 185.744 153.359 186.295 153.384L186.354 154.457C186.755 154.872 188.751 154.182 189.285 154.265C190.521 154.465 192.877 156.743 194.497 156.103C195.056 157.507 197.286 159.311 198.514 160.292C198.79 160.508 199.8 159.744 200.552 159.985C201.011 160.126 201.036 160.874 201.487 161.115C203.333 162.079 210.081 163.135 211.877 162.67C212.027 162.628 213.815 161.522 213.965 161.498C214.366 161.414 214.95 161.855 215.568 161.639C216.061 161.464 216.003 160.741 216.278 160.733C220.137 160.641 223.528 159.96 227.962 160.35C230.401 160.566 233.174 161.489 235.095 161.872C238.912 162.645 241.868 163.343 245.835 162.57C248.249 162.104 248.057 161.539 249.452 160.325C249.953 159.885 250.788 159.793 251.114 159.444C251.456 159.078 252.041 157.25 252.049 156.651C252.057 156.177 251.389 152.96 251.214 152.461C250.896 151.53 247.731 150.259 246.712 150.749C245.284 151.431 244.674 154.257 243.138 155.28C242.603 155.795 240.39 153.808 240.331 153.65C240.248 153.442 240.256 152.087 239.747 151.14C239.079 149.893 237.283 149.211 237.542 147.698L236.765 147.889C237.542 146.551 235.897 145.878 235.771 144.98C235.02 139.626 239.321 133.009 244.775 132.062C245.351 131.962 246.086 132.253 246.361 132.186C246.829 132.078 246.762 131.255 247.197 131.139C247.623 131.023 250.086 131.048 250.562 131.156C250.88 131.231 250.704 131.945 251.406 131.97C253.552 132.045 252.842 130.466 255.999 132.336C256.442 132.594 256.542 134.248 257.294 132.278L260.752 133.059L260.994 134.248L262.163 133.475L262.397 134.63C262.681 134.547 263.09 134.323 263.366 134.448C263.574 134.547 265.913 137.349 266.456 137.856C267.199 138.554 267.266 138.712 267.734 139.194C268.001 139.469 268.719 139.327 269.02 139.668C269.429 140.142 269.496 143.143 269.588 143.708C269.629 143.966 270.832 145.146 270.807 147.291C270.782 149.336 268.936 151.281 269.295 153.01C269.813 155.537 270.699 155.072 272.16 156.202C272.912 156.792 273.538 157.732 274.599 158.073L274.29 167.325L273.162 167.549C273.555 168.58 273.204 169.636 272.728 170.567C272.653 170.716 271.776 171.947 271.676 172.204C271.375 172.936 271.542 174.432 270.389 173.551C270.231 175.555 265.946 177.317 264.936 178.913C264.677 179.32 264.435 179.644 264.527 180.168C265.003 180.185 265.562 180.235 265.98 180.467L268.402 183.95L267.633 185.788L267.174 190.235L268.101 192.995L269.337 194.832L271.651 197.135L270.882 199.279L271.5 202.496L270.415 206.827C270.172 207.941 271.108 206.911 271.183 207.01C271.793 207.825 270.389 207.792 270.389 207.991C270.406 208.581 271.116 209.072 271.3 209.82C271.383 210.144 271.55 212.896 271.5 213.054C271.4 213.378 270.807 213.345 270.632 213.644C270.189 214.425 270.615 215.564 269.237 215.597L270.005 217.526L268.836 217.135C267.942 218.108 269.696 220.086 269.604 220.236C269.579 220.278 268.911 220.136 268.702 220.735C268.544 221.2 268.869 221.716 268.803 221.948C268.761 222.106 267.4 222.705 268.043 224.151L267.349 223.869L267.024 224.567L265.312 224.151C266.23 226.313 263.558 226.321 263.449 228.308C263.449 228.89 265.328 231.267 265.846 231.791C267.266 233.254 270.314 235.399 271.993 236.762C272.753 237.377 272.494 238.566 273.521 237.759L273.597 238.865L274.682 238.956C274.549 240.985 275.476 243.038 275.81 245.083C275.935 245.856 276.277 247.145 276.294 247.278C276.436 248.433 275.927 249.339 275.91 250.054C275.91 250.22 276.954 251.7 277.021 252.781C277.096 254.028 276.428 255.183 276.445 255.84C276.47 256.663 277.088 257.635 277.054 258.167C277.046 258.392 276.336 258.35 276.261 258.65C275.743 260.778 276.211 265.292 275.15 267.578C274.975 267.952 274.056 269.49 273.78 269.947C273.02 271.202 270.999 271.95 272.31 273.796L271.542 274.195C272.327 276.871 272.461 279.523 272.377 282.308L271.175 282.524C272.502 284.785 270.156 287.188 271.175 289.523L270.039 289.557C270.548 290.612 269.153 290.637 268.819 291.676L269.621 292.441L267.642 294.81L268.043 296.14C266.531 295.808 266.272 298.277 265.429 299.549C264.602 300.787 258.789 304.827 257.478 305.301C257.06 305.451 256.484 305.102 256.375 305.176C256.191 305.301 256.183 306.091 255.682 306.232C255.256 306.357 254.646 305.933 254.162 305.958C252.968 306.024 249.61 306.008 248.758 306.332C248.282 306.515 246.762 308.543 246.069 309.092C243.639 310.995 238.302 312.55 235.354 312.841C232.289 313.14 230.268 313.739 227.587 312.093C225.382 310.738 223.26 306.498 222.834 306.232C222.225 305.85 221.231 306.049 220.613 305.8C220.07 305.584 220.078 304.927 219.652 304.711C218.141 303.921 216.136 305.368 216.053 301.61C217.79 302.092 219.226 301.12 220.83 300.405C221.289 300.205 220.93 299.158 222.3 300.047C222.434 299.607 222.542 298.377 222.793 298.169C223.269 297.77 224.455 298.767 223.478 296.938C224.471 296.922 226.484 295.858 226.818 294.977C227.052 294.378 226.584 293.979 226.609 293.663C226.635 293.381 227.353 293.489 227.378 293.198C227.737 289.839 228.121 291.203 229.374 289C229.691 288.443 229.633 287.537 229.825 287.296C230.652 286.298 236.181 285.168 237.784 283.937C239.538 282.599 238.494 282.449 238.978 281.078C239.647 279.216 242.979 277.287 244.081 276.198C245.334 274.951 244.983 273.771 245.059 273.646C245.175 273.471 245.977 273.455 246.119 272.964C246.253 272.524 245.802 271.909 245.835 271.451C246.061 268.392 247.205 263.097 246.528 260.246C246.462 259.963 245.869 260.005 245.785 259.68C245.351 258.043 245.935 255.881 243.614 255.665C240.716 255.391 241.258 257.195 240.933 258.932C240.824 259.539 239.388 260.42 241.066 260.362L240.29 261.518C241.743 261.385 241.684 267.12 241.359 267.661C241.267 267.819 240.624 267.985 240.34 268.376C239.363 269.731 237.784 270.753 237.625 270.978C237.458 271.219 237.642 271.842 237.492 271.967C237.275 272.15 236.556 271.925 236.089 272.141C235.646 272.341 235.187 274.053 234.017 273.588C234.961 275.217 234.001 274.909 233.767 275.292C233.541 275.674 233.675 276.223 233.608 276.298C233.483 276.447 232.806 275.849 232.239 276.264C231.428 276.855 230.201 279.033 229.491 279.772C228.288 281.019 227.779 281.186 226.86 282.424C226.234 283.272 225.724 284.245 224.647 284.103C224.764 284.453 225.106 284.868 224.856 285.251C223.11 287.894 219.953 291.153 218.408 294.112C218.124 294.644 218.183 295.825 217.899 296.082C217.698 296.257 217.005 296.049 216.88 296.19C216.637 296.448 217.013 297.338 216.771 297.645C216.679 297.761 215.877 297.803 215.468 298.102C214.666 298.692 212.595 300.546 212.077 300.746C211.802 300.854 211.125 300.272 210.967 300.43C210.783 300.613 209.705 303.281 208.695 303.921C208.486 304.054 204.36 305.675 204.051 305.709C203.366 305.783 202.122 305.442 201.838 305.526C201.42 305.642 199.274 306.839 198.213 306.947C197.587 307.005 196.167 306.349 195.766 306.723C195.649 306.831 195.75 307.604 195.34 308.028C194.998 308.385 194.179 308.435 193.795 308.834L188.567 308.502C188.567 308.502 186.028 308.152 185.444 308.152C184.859 308.152 179.088 309.416 178.628 309.416C178.169 309.416 174.235 310.106 173.893 310.222C173.551 310.339 172.624 306.889 172.624 306.889L174.703 304.586L178.979 301.369C178.979 301.369 175.162 301.602 174.82 301.602C174.478 301.602 170.427 301.718 170.085 301.718C169.742 301.718 168.581 299.299 168.581 299.299L168.698 293.78L171.237 293.09L173.2 289.873L177.359 287.686L181.401 286.423L183.715 283.896L187.005 281.319L187.673 281.41L188.099 280.587C189.519 281.726 189.661 280.737 191.089 280.454C192.067 280.263 193.445 280.238 194.347 280.005C196.602 279.415 197.186 279.074 199.015 277.628C199.942 276.896 201.078 276.489 201.821 275.957C204.385 274.136 205.596 271.41 208.052 269.307C208.57 268.858 210.173 267.869 210.582 267.486C210.983 267.104 211.71 266.638 211.752 266.58C212.428 265.632 210.816 266.048 210.975 265.425C213.138 265.865 212.261 264.701 212.629 264.344C212.812 264.169 213.372 264.344 213.597 264.144C214.107 263.704 214.516 262.249 214.107 261.526L214.884 261.925C215.468 259.722 213.196 258.242 211.626 257.004C207.041 253.388 204.644 252.299 201.345 247.918C199.817 245.889 199.299 244.775 198.506 242.556C198.055 241.292 197.971 239.563 197.245 238.25C193.378 237.784 189.987 239.455 186.513 240.852C186.028 241.051 185.953 241.533 185.652 241.65C184.892 241.932 181.385 242.215 181.251 242.706L177.793 242.149L173.175 242.839C173.175 242.839 170.786 241.766 170.552 241.766C170.318 241.766 166.702 241.226 166.468 241.226C166.234 241.226 163.537 242.913 163.537 242.913L160.071 244.227L157.515 240.91L152.604 240.145C152.295 240.203 152.337 240.735 152.128 240.794C150.291 241.351 149.105 241.949 147.368 242.606C147.159 242.689 147.518 243.595 146.082 242.855L146.057 243.994L144.511 244.027C144.236 246.33 143.685 248.89 143.108 251.21C141.48 257.818 140.97 259.905 137.22 265.591C136.602 266.522 135.525 269.357 134.347 268.542C134.706 270.08 133.562 269.539 132.978 270.088C132.543 270.504 132.485 271.526 132.36 271.626C132.31 271.659 131.666 271.327 131.199 271.426C130.447 271.593 130.447 272.274 130.364 272.316C130.013 272.49 127.457 272.108 125.987 273.172C125.62 273.438 125.879 274.078 125.662 274.286C125.461 274.477 124.893 274.303 124.676 274.452C124.584 274.51 123.966 276.381 123.933 276.564C123.782 277.329 124.818 278.193 123.523 278.351L123.791 279.016C121.703 279.157 122.588 279.989 122.12 280.87C121.719 281.626 120.116 281.46 121.068 282.931H119.89L120.108 284.12C119.932 284.469 118.379 284.453 118.02 284.635C117.928 284.685 116.625 285.999 116.516 286.015C116.408 286.032 114.395 286.057 114.286 286.04C114.011 286.007 114.019 285.4 113.718 285.276C113.435 285.151 107.847 284.536 107.547 284.611C107.045 284.735 107.146 285.583 106.711 285.675C106.269 285.766 105.651 285.367 105.216 285.442C103.346 285.741 104.381 286.772 103.897 287.412C103.187 288.351 100.272 289.449 99.0862 289.972C98.8022 290.097 98.7771 290.587 98.5015 290.671C98.0088 290.812 95.829 290.139 95.6452 290.33L95.5868 291.419C93.3151 292.749 91.4777 290.795 89.8909 290.812C89.1559 290.812 88.7049 291.477 88.0952 291.394C87.3937 291.302 83.9444 289.291 83.602 288.659C83.4349 288.36 84.0613 287.121 83.1343 286.589C82.558 286.34 81.9817 286.847 81.4138 286.772C76.5781 286.099 76.0353 283.721 74.131 279.814C75.4673 280.188 77.0375 278.9 77.9311 278.75C78.4072 278.675 78.7663 279.041 78.8164 279.033C78.7746 278.742 78.7245 278.135 78.8749 277.927C80.136 277.653 81.0213 276.763 82.0736 276.215C82.4327 276.023 83.0173 276.298 83.0675 276.248C83.1927 276.107 83.6688 274.419 84.0028 273.854C85.0635 272.025 86.2996 270.088 87.2851 268.384C87.5607 267.902 87.8363 266.522 88.3291 265.923C89.9326 265.208 91.4192 264.07 93.0896 263.463C94.8602 262.823 96.1296 262.64 97.8835 262.008C98.5433 261.775 99.8378 261.734 100.23 261.418C100.464 261.235 101.074 259.655 101.5 259.09C102.569 257.685 102.611 257.502 103.279 256.314C104.131 254.776 103.696 255.582 104.523 255.117C104.64 255.05 104.523 254.651 105.216 254.493C107.438 253.969 107.789 254.061 110.027 253.088C110.662 252.814 110.252 252.091 110.887 252.182L108.874 256.006L106.979 256.073C107.655 258.375 104.515 263.23 101.959 262.399L101.684 263.097C98.3679 262.232 96.3551 264.277 93.9832 265.815C92.839 266.555 92.7054 266.605 91.9704 267.569C90.6258 269.357 90.0412 269.805 89.2478 271.917C89.1726 272.125 88.2873 271.859 88.9972 273.588C87.5357 273.313 86.784 275.375 85.9071 276.156C85.122 276.855 83.9527 276.339 84.3035 277.877C82.8252 277.121 83.3013 278.068 82.8336 278.226C81.4556 278.692 80.1861 278.783 78.8331 279.041C79.1672 281.227 80.5536 281.227 82.1655 282.158L82.3576 281.385C83.3013 280.878 83.0675 282.15 83.3347 282.175C84.0446 282.241 84.3787 281.676 84.9048 281.568C86.2161 281.285 87.544 281.053 88.7634 280.379C89.1141 280.188 89.5902 280.246 89.6988 280.155C89.8073 280.072 89.0974 278.792 90.559 279.44C89.5234 277.353 91.1269 276.373 90.9599 274.386L94.0834 274.17L95.9793 276.921C94.4509 277.885 95.4865 279.149 94.952 280.496C94.8936 280.637 93.5823 283.023 93.4404 283.222C92.1542 285.059 89.8741 285.907 87.8363 286.057L87.853 287.986C89.49 288.767 90.5423 287.844 91.5946 287.728C92.1792 287.661 92.8474 288.135 93.4404 288.027C93.6241 287.994 95.8206 286.647 96.3217 286.498C97.0984 286.273 97.6664 286.855 98.1675 286.847C98.4013 286.847 98.3846 286.281 98.4848 286.223C98.6936 286.115 99.0695 286.331 99.1697 286.223C99.5622 285.824 99.5372 285.209 99.7961 284.926C102.343 282.291 102.953 281.585 104.598 278.334C104.916 277.711 105.826 273.829 107.187 275.541C108.023 276.589 107.079 279.083 107.379 280.404L108.156 280.595C108.499 278.999 110.303 278.925 109.334 277.096L110.52 276.846L110.896 272.815H112.065C111.43 274.286 112.791 274.868 112.833 275.034C112.942 275.475 113.059 277.162 113.042 277.694C113.017 278.609 111.589 280.978 113.618 280.986C113.284 279.98 114.278 279.864 114.478 279.274C114.729 278.534 114.428 277.869 114.554 277.378C115.105 275.225 115.99 273.355 115.573 270.878C116.759 269.498 117.093 275.267 116.976 275.932C116.759 277.162 115.071 278.85 116.934 279.689C117.443 279.565 118.162 279.407 118.537 279.066C118.98 278.667 120.225 276.298 120.241 275.683C120.308 273.671 118.796 272.565 119.732 269.764C120.3 268.051 121.719 268.608 122.58 267.436C123.64 265.998 123.39 264.011 123.39 262.316C124.885 263.272 124.425 265.175 124.167 266.588C128.484 266.946 126.856 262.897 126.705 260.379C126.68 259.921 127.148 259.589 127.123 259.398C127.073 258.899 126.054 258.342 126.697 257.627C127.816 256.472 127.624 257.91 128.058 258.192C128.267 258.325 128.752 258.026 128.802 258.084C128.894 258.192 129.871 260.487 129.904 260.62C130.055 261.268 129.796 263.454 129.637 264.236L131.199 264.643C131.533 263.272 131.099 261.991 131.199 260.562C131.382 258.118 131.984 256.413 131.341 253.737C131.249 253.371 129.286 250.96 131.583 251.617C133.07 252.041 132.527 252.93 132.794 253.421C133.362 254.452 134.08 256.239 134.18 257.453C134.214 257.918 133.387 258.55 133.546 259.19L135.107 259.581C134.548 258.334 135.333 257.369 135.4 256.58C135.517 255.233 134.848 253.845 135.892 252.581H134.715C135.625 250.004 134.189 248.026 133.938 245.574C134.155 245.332 135.759 246.737 135.809 246.837C135.943 247.128 135.567 247.643 135.734 247.909C136.268 248.766 137.346 249.464 137.471 250.628L138.456 250.237L138.239 245.416C136.536 244.884 138.791 243.886 137.053 243.404L137.454 240.004L139.417 238.366L138.615 237.959L139.033 236.23C139.693 235.623 142.089 238.774 142.248 239.447C142.449 240.303 141.822 241.051 142.741 241.666C146.825 240.004 146.825 234.592 144.511 231.359C144.253 230.585 145.038 230.694 145.472 230.785C147.334 231.201 146.29 232.132 146.624 233.113C146.741 233.462 148.011 236.363 148.136 236.504C148.437 236.837 149.756 237.186 149.965 236.986C149.614 236.122 150.667 235.781 150.683 235.648C150.809 234.634 150.266 231.957 150.358 231.034C150.383 230.777 150.984 230.777 151.126 230.477C151.794 229.056 150.692 226.637 150.759 224.949C153.256 225.074 153.381 227.967 154.467 229.63L153.498 235.448L154.851 235.473C154.851 234.601 155.711 234.285 155.745 234.21C155.862 233.902 155.745 233.844 156.095 232.996C157.206 230.353 158.133 225.415 157.716 222.414C157.691 222.256 156.521 220.535 156.346 219.629C156.171 218.698 157.465 218.299 155.544 218.266L152.32 212.497C154.6 212.231 154.367 213.436 155.06 214.143C155.385 214.467 157.398 216.454 157.415 216.637C157.54 218.374 158.426 219.588 159.403 221.516C159.536 221.79 160.472 223.162 160.505 223.287C160.923 224.783 161.106 227.476 160.889 228.989L161.708 229.422C160.388 229.613 160.53 231.874 161.507 231.94C161.967 231.974 161.816 230.984 161.958 230.777C163.979 227.817 164.263 223.112 163.645 219.313C163.495 218.391 161.875 217.46 164.046 217.16L165.809 220.66C167.379 218.565 165.324 216.379 165.992 214.284C164.673 214.276 165.775 211.458 165.583 211.35C165.399 211.242 164.798 211.441 164.531 211.25C164.238 211.042 164.305 210.294 163.913 209.887C162.167 208.074 159.779 206.495 157.415 205.722C156.906 205.556 156.279 206.295 156.137 205.215L155.444 205.489L155.419 204.167C155.519 203.76 157.975 203.502 158.317 203.569C158.609 203.619 158.584 204.184 158.86 204.292C161.04 205.148 164.121 205.689 164.439 208.598C166.118 208.864 164.739 206.304 164.422 205.772C163.595 204.383 164.188 205.048 163.971 204.383C163.921 204.225 161.499 203.053 162.075 201.998L161.315 202.372L160.505 200.052L159.344 200.269L158.96 198.88L161.816 198.498C162.267 199.412 162.919 199.03 163.779 199.728C165.257 200.917 167.395 205.788 167.754 205.896C167.947 205.955 168.757 206.029 168.74 205.664V203.943H170.678C171.053 205.788 170.97 208.066 171.663 209.803C172.206 211.175 174.01 211.483 173.033 214.06L171.087 213.677L171.07 215.04L172.264 215.24L171.964 215.938L173.818 217.8L175.196 217.26C176.34 217.568 176.557 220.086 175.58 220.294C174.787 220.46 174.837 219.396 174.528 219.222C174.127 218.997 171.813 218.698 171.095 218.357L171.154 220.652C172.674 220.427 172.064 221.4 172.356 221.741C172.599 222.023 173.434 221.89 173.86 222.397C175.004 223.744 175.004 226.155 174.21 227.693C172.064 227.643 172.64 225.265 171.504 224.043C171.162 223.669 170.577 223.894 170.394 223.702C169.976 223.237 170.636 222.406 168.356 222.239C168.498 223.129 168.289 223.278 167.562 223.603V224.176C169.049 224.642 170.227 226.803 171.312 227.676C171.989 228.225 173.275 227.875 173.659 229.23C173.734 229.488 173.801 231.342 173.734 231.475C173.668 231.6 173.166 231.625 173.041 231.849C172.766 232.348 172.807 233.179 172.557 233.437C172.148 233.844 170.669 233.412 171.095 235.083L175.029 234.916L177.167 232.738C177.827 230.112 179.748 226.936 180.366 223.877C180.491 223.27 179.906 221.167 180.675 221.092C181.719 220.992 182.111 223.054 182.245 223.794C182.679 226.088 183.406 230.278 182.796 232.456C182.704 232.772 182.103 232.747 182.103 232.921C182.103 233.246 182.671 235.507 183.022 235.465L183.673 234.384L184.375 234.692C184.826 233.171 185.402 231.816 186.103 230.17C186.153 230.045 186.596 229.995 186.696 229.721C187.381 227.759 186.788 224.401 187.916 222.248C188.818 221.35 188.993 224.675 189.118 225.057C189.219 225.357 189.745 225.332 189.837 225.648C190.48 227.776 189.812 231.242 189.862 233.528L191.574 233.171C192.601 231.3 194.731 228.383 194.864 226.23C194.94 224.941 193.428 223.121 195.14 221.874C195.8 222.173 195.332 222.746 195.466 222.946C196.802 224.966 198.848 227.435 198.639 230.22C198.581 230.951 197.103 231.965 199.633 231.982C198.882 230.403 200.051 230.236 200.301 229.397C200.519 228.665 200.243 226.462 199.992 225.664C199.391 223.736 198.715 221.125 197.879 218.956L199.491 212.721C199.525 211.674 198.347 211.657 197.921 210.992C197.529 210.385 198.197 208.631 198.088 207.867C199.75 208.133 200.694 209.654 201.412 210.976C201.713 210.826 201.805 209.911 201.788 209.612C201.771 209.346 200.527 205.664 200.418 205.447C200.184 204.957 198.873 204.259 198.598 203.851C198.355 203.486 198.264 202.97 197.696 202.139C197.453 201.782 197.445 201.05 197.253 200.917C196.76 200.56 195.441 201.474 195.741 200.094C197.211 199.279 197.587 200.343 198.514 200.643C199.182 200.859 199.449 200.643 200.318 201.125C200.443 201.191 202.339 202.979 202.398 203.103C202.915 204.201 202.281 207.966 205.028 205.672C204.519 204.6 205.204 204.907 205.454 204.433C205.93 203.544 206.523 201.69 207.459 201.64L206.682 199.895C207.768 198.648 209.396 202.804 209.43 203.427C209.488 204.467 208.536 204.932 208.327 205.805C207.868 207.734 207.267 212.339 207.233 214.284C207.225 214.999 207.985 216.628 207.86 217.593L209.221 216.046L210.591 217.792L209.463 218.59C210.106 219.787 209.296 221.824 209.605 222.855C209.814 223.553 210.549 223.719 210.8 224.234C210.85 224.343 211.058 226.088 211.142 226.271C211.493 227.044 211.66 227.992 212.545 227.718C211.643 226.313 212.771 226.67 212.854 226.363C212.971 225.939 212.428 223.553 212.545 223.436L214.725 223.811C214.85 223.993 214.566 227.585 214.616 228.233C214.641 228.599 215.301 229.031 215.31 229.837C215.31 230.394 214.892 230.951 214.892 231.375C214.892 231.6 217.648 233.337 216.846 235.108L218.408 234.135C218.542 233.803 217.723 234.102 217.623 233.694C217.573 233.495 217.322 229.812 217.356 229.521C217.414 228.94 218.149 227.585 218.801 227.335C219.619 230.103 220.053 233.453 219.978 236.28C220.888 236.537 220.638 236.047 220.872 235.789C221.866 234.692 222.141 233.919 221.932 232.389H223.494C222.943 234.343 224.071 234.16 224.438 234.709C224.563 234.892 224.613 236.787 224.906 237.078C225.382 237.552 226.493 237.444 226.818 238.607C227.871 238.117 226.718 236.87 227.194 236.28C229.516 233.412 228.455 241.833 230.535 240.561C229.675 241.567 231.245 243.662 232.297 244.052C233.759 244.601 231.763 241.459 231.712 241.101C231.562 240.087 232.055 239.198 232.097 238.217C234.084 238.4 234.31 240.004 234.051 241.7L235.22 241.716C234.143 244.775 237.241 243.711 236.389 240.935L237.985 241.118C238.06 243.146 240.34 244.376 241.35 245.723C241.676 246.164 241.684 246.654 242.595 247.776C242.862 248.109 242.829 248.799 243.138 249.015C243.706 249.414 244.441 248.433 244.257 250.611C245.81 250.362 245.142 251.509 245.61 251.858C245.902 252.074 246.746 252.033 246.888 252.249C247.105 252.581 246.804 253.396 246.921 253.861C247.021 254.26 247.714 254.244 247.89 254.551C248.6 255.807 248.533 256.339 248.583 257.444C248.884 264.128 247.89 269.282 246.194 275.383L246.946 276.115C246.261 277.245 246.219 279.606 245.267 280.496C243.146 282.458 242.135 283.422 239.429 285.284C237.316 286.739 233.85 288.842 232.063 290.629C231.687 291.003 230.643 292.649 230.234 293.073C229.616 293.705 226.793 295.683 226.71 295.891C226.476 296.481 226.944 297.861 226.509 298.983C226.2 299.773 223.402 302.234 225.298 302.757C226.033 302.965 227.846 302.159 228.956 302.782L228.564 301.619H229.741L229.34 300.446L230.485 300.422L230.568 298.917L231.621 298.809L231.696 297.712L233.274 297.919C233.199 296.116 235.437 296.182 235.897 295.642C236.097 295.409 237.266 293.48 237.4 293.389C238.227 292.815 239.196 293.497 239.713 291.485C241.292 291.676 239.262 293.846 239.221 294.062C238.72 296.631 238.953 297.387 237.417 299.906C235.78 302.583 233.792 305.243 230.334 304.719L230.526 305.492C229.182 305.027 227.261 304.977 226.676 306.523C226.067 308.128 227.06 307.629 227.628 307.978C229.182 308.951 228.873 308.285 230.251 308.601C230.735 308.709 231.278 311.361 232.673 308.618L233.45 309.765C234.226 309.699 235.588 308.377 235.721 308.319C236.097 308.161 236.565 308.552 237.058 308.319C239.505 307.155 243.413 303.398 245.668 303.24C246.637 303.173 247.572 303.755 248.625 303.547C248.859 303.497 251.69 300.538 251.932 300.164C253.076 298.435 253.719 295.342 254.571 293.414L255.933 293.43C256.041 295.567 255.164 298.285 255.139 300.23C255.131 301.028 254.914 301.369 255.933 301.211L256.425 299.333L257.511 299.266L257.085 297.944L257.929 297.479C257.319 295.035 258.338 292.757 258.313 290.114C258.304 288.942 257.119 285.176 258.922 284.901C259.891 284.76 260.81 288.601 260.935 289.449C261.395 292.516 261.127 296.165 261.027 299.274C261.57 299.873 262.656 297.82 262.865 297.412C263.708 295.766 264.042 294.287 264.334 292.857C264.476 292.175 264.961 291.718 264.927 290.953C264.844 288.95 263.29 285.924 262.547 284.037C261.929 282.466 261.052 280.238 260.125 278.376C260.017 278.151 259.298 278.11 259.131 277.636C258.881 276.929 259.14 275.924 259.073 275.151C262.038 274.943 262.714 278.9 264.785 280.379C266.456 282.516 266.005 284.868 267.667 287.03C267.876 287.312 268.811 286.256 268.819 286.19C268.844 286.024 268.502 283.147 268.427 282.84C267.909 280.612 265.462 274.602 264.159 272.316C264.017 272.066 262.397 270.537 262.23 270.188C261.912 269.539 261.461 268.168 262.397 267.918C263.032 267.536 264.886 269.406 265.328 269.988C265.596 270.337 265.529 271.002 265.754 271.335C267.934 274.594 267.358 269.265 268.853 268.741C268.018 268.201 265.679 264.577 265.236 264.377C265.069 264.302 264.577 264.693 264.552 264.651C264.919 263.247 263.182 263.429 262.472 262.299L261.812 260.761C263.299 260.171 263.691 261.351 264.084 261.493C266.506 262.349 267.817 262.823 269.437 265.042C269.98 265.159 270.314 264.693 270.331 264.153C270.331 263.97 269.028 261.385 268.836 261.044C268.293 260.121 264.284 253.978 263.908 253.72C263.215 253.238 261.027 253.196 261.411 251.417C261.62 251.201 264.46 252.215 264.919 252.481C266.523 253.404 267.767 255.757 269.387 257.12C269.972 257.61 270.807 256.704 270.406 259.198H272.369C272.711 258.857 271.475 253.737 271.133 253.429C271.066 253.371 270.548 253.67 270.406 253.546C270.039 253.23 270.072 252.565 269.763 252.232C268.185 250.586 264.81 249.106 263.892 247.776C263.708 247.51 263.783 247.07 263.767 246.737L262.798 247.519L262.597 246.355C262.748 246.205 266.088 246.654 266.673 246.87C266.873 246.945 267.976 248.009 268.193 248.109C268.978 248.483 272.018 249.954 272.519 249.871C273.221 249.422 273.045 247.635 272.753 247.045C272.519 246.563 271.926 246.579 271.793 246.363C271.6 246.056 272.018 245.615 271.884 245.291C271.834 245.174 270.08 243.878 269.888 243.77C267.065 242.157 264.385 241.642 261.303 241.301C261.136 241.284 260.785 240.079 259.866 240.511L260.526 239.331L267.884 239.821C267.951 240.819 270.815 240.91 270.423 239.937C270.239 239.497 268.368 237.011 267.942 236.762C266.589 235.956 264.952 236.579 264.343 235.108C262.631 235.49 261.161 234.102 259.282 233.545C258.856 233.42 258.371 232.863 258.096 232.863C257.728 232.863 257.428 233.753 256.743 233.512V232.339C255.841 232.83 254.855 232.589 253.92 232.306C253.636 232.223 253.678 231.766 253.352 231.608C253.252 231.558 251.59 232.231 252.057 230.594C252.316 229.696 255.966 230.785 255.131 228.316C254.889 227.585 252.951 227.028 252.441 226.304L253.218 225.34C250.429 225.498 250.796 224.983 249.969 223.212C249.627 222.472 249.376 221.633 249.101 221.076C248.466 219.82 247.364 218.881 246.579 217.742C246.219 216.57 249.552 217.476 249.652 217.609C249.836 217.85 249.568 218.573 249.811 218.997C250.153 219.596 251.932 220.743 252.341 221.741C252.684 222.564 252.6 223.661 252.458 224.534C253.369 224.21 253.661 225.274 253.886 225.323C256.016 225.797 255.256 225.722 256.709 226.313C257.185 226.512 259.649 227.077 259.858 226.886C259.524 226.446 259.808 225.116 259.749 225.016C259.682 224.908 259.181 224.825 258.931 224.517C258.497 223.977 258.981 223.054 257.511 223.387V222.613H258.288L255.557 218.923C256.784 217.318 257.628 219.854 258.279 220.402C259.691 221.583 260.476 221.125 262.171 221.425L262.597 220.477L261.804 220.053L262.138 219.313C260.676 218.815 262.171 217.235 260.618 217.75C260.092 216.229 258.639 215.29 257.845 213.877C257.494 213.253 257.845 212.813 257.812 212.696C257.686 212.347 256.008 211.823 258.288 210.552C259.023 212.663 262.48 212.621 264.151 213.885L264.936 213.469L263.007 209.255C260.852 208.066 259.9 205.78 258.739 203.71C258.046 202.471 256.701 201.474 257.127 199.662L260.117 202.322L266.698 205.896C267.792 204.591 265.896 203.236 266.297 201.599C264.836 201.208 265.37 200.169 265.287 200.102C264.669 199.587 262.581 200.269 263.182 198.872C262.18 197.692 260.476 197.733 260.309 197.658C260.05 197.525 258.563 195.838 259.474 195.389C258.772 195.672 257.895 195.023 257.912 194.416C257.945 193.011 262.163 195.248 262.405 195.248C263.249 195.248 263.833 193.394 264.936 193.834C265.554 193.178 262.789 189.961 261.42 191.116L261.386 189.994C258.689 189.512 255.59 187.417 255.949 184.108C257.586 184.882 261.086 185.571 262.205 183.726L261.211 183.352C261.72 182.637 260.417 181.157 259.841 180.8C259.499 180.584 258.973 180.95 258.672 180.767C258.438 180.625 258.471 180.06 257.97 179.852C257.135 179.487 255.707 179.104 254.772 179.046L255.164 178.273C253.268 177.724 250.579 176.826 251.448 174.374C252.391 174.781 253.243 175.388 254.354 175.355C255.081 175.33 255.448 174.682 256.208 174.49C256.918 174.316 258.054 174.923 258.797 174.765C259.098 174.698 259.023 174.067 259.34 173.992C259.875 173.859 260.593 174.116 261.136 173.9C261.253 173.859 263.098 172.911 263.182 172.836C264.067 172.063 263.416 171.49 263.357 170.484C262.723 170.317 263.132 170.999 262.881 171.157C262.514 171.39 261.946 171.157 261.545 171.398C261.278 171.556 260.05 172.786 259.95 172.803C258.371 173.136 256.216 172.196 254.763 172.429C254.655 168.447 258.254 169.918 260.334 169.295C261.219 169.029 262.873 167.159 263.048 167.1C263.29 167.017 263.767 167.391 264.134 167.2C264.385 167.067 267.391 162.919 266.489 162.312L267.658 162.695V160.749C265.829 162.246 263.792 163.734 261.411 163.867C260.434 160.949 262.881 161.423 263.675 160.666C263.967 160.384 263.9 159.727 264.117 159.444C264.293 159.22 265.98 158.738 266.097 158.123C266.264 157.266 265.938 155.08 265.128 154.523L264.894 155.23L263.767 154.905V156.078C263.349 156.593 261.762 154.822 262.33 153.825C262.405 153.692 262.948 153.6 263.115 153.318C263.8 152.129 264.343 150.957 264.944 149.727C265.053 149.502 265.545 149.452 265.579 149.369C266.072 148.189 265.905 145.587 265.554 144.356C265.287 143.425 265.178 144.149 264.81 142.328C264.426 140.408 262.748 138.047 260.643 137.789C261.336 139.71 262.238 141.622 262.505 143.816C262.798 146.219 261.963 147.108 261.228 149.078L259.891 148.654C260.292 147.416 260.125 146.11 259.415 145.03C259.14 144.614 258.538 144.556 258.313 144.09C257.895 143.201 258.313 141.971 258.004 141.031C257.586 139.784 254.588 137.573 253.26 136.95L253.611 136.227L252.441 137C252.542 135.844 251.464 136.16 250.78 135.811C250.496 135.67 250.47 135.187 250.379 135.154C249.777 134.888 247.038 135.861 246.27 136.11C245.793 136.268 245.869 136.892 245.535 136.975C245.075 137.091 243.906 136.609 243.154 137.108C242.778 137.357 242.611 138.421 242.144 138.828C241.81 139.111 241.008 138.978 240.707 139.535C241.676 140.483 242.169 139.693 242.946 139.493C243.221 139.419 243.63 139.701 243.764 139.626C243.923 139.535 244.95 137.823 245.601 137.856C245.885 137.864 246.211 138.604 246.562 138.737C246.946 138.887 247.923 139.311 248.007 139.336C250.496 139.917 253.218 138.654 254.396 142.253C254.521 142.877 254.396 142.885 253.828 142.819C252.55 142.661 251.13 142.561 250.663 141.264C249.134 142.461 247.531 142.079 245.869 142.719C242.72 143.933 242.444 146.219 241.484 149.062C242.645 149.319 242.403 147.981 242.77 147.623C242.879 147.515 245.326 146.393 245.618 146.352C246.019 146.293 250.638 146.634 250.988 146.726C251.339 146.817 251.932 148.638 253.602 147.515C252.817 149.086 254.078 148.754 254.304 149.145C254.555 149.577 254.271 150.242 254.396 150.732C254.479 151.065 255.047 150.973 255.139 151.264C255.264 151.672 254.889 153.309 254.88 153.916C254.838 155.828 255.072 158.812 253.861 160.608C253.043 161.822 249.627 164.798 248.449 165.313C248.199 165.421 247.798 164.956 247.43 165.08C247.33 165.114 246.462 166.61 246.194 166.743C245.819 166.934 245.292 166.535 244.9 166.643C244.324 166.801 244.106 167.558 243.246 167.732C242.495 167.882 239.396 167.873 238.628 167.732C237.542 167.533 235.788 166.859 233.942 166.577C233.717 166.543 230.51 165.039 230.293 164.997C223.87 163.95 216.938 166.427 210.415 166.593C209.196 166.627 208.829 165.704 208.411 166.984C207.066 166.336 204.577 167.075 203.701 166.444C203.183 166.07 204.21 165.38 202.214 166.577L202.005 165.421C200.276 166.178 198.773 164.083 198.197 163.875C197.203 163.534 195.725 163.875 194.772 162.761C192.701 164.058 194.689 166.676 194.981 168.522L195.733 168.139L196.125 169.494C195.265 170.492 193.62 169.611 193.202 168.522L192.225 169.295C192.484 168.056 191.223 167.649 190.872 166.934C190.638 166.46 190.638 164.449 190.572 164.332C190.488 164.191 188.383 162.071 188.233 162.013C187.941 161.897 186.629 162.354 186.053 161.788C185.586 161.323 185.201 158.846 183.623 159.951L184.015 158.788C180.858 158.796 181.677 160.251 183.005 162.129C183.247 162.47 184.249 163.069 184.274 163.143C184.684 164.174 184.007 165.321 182.704 165.022C182.596 164.997 181.142 163.559 181.084 163.459C181.017 163.343 180.716 161.614 180.458 161.04C180.207 160.475 179.372 161.057 180.098 159.561C178.328 160.068 178.086 156.078 178.537 154.889H177.359L177.76 153.725L176.348 153.343L175.998 151.83C174.018 151.83 174.611 152.578 174.119 153.193C172.882 154.731 173.392 154.099 172.657 155.77C172.465 156.211 171.521 155.861 171.93 156.801C173.977 157.549 173.217 160.026 173.542 161.315C173.601 161.556 174.202 161.464 174.252 161.755C174.286 162.005 174.127 165.521 173.267 165.006C172.64 164.474 172.899 163.31 171.897 163.443L172.674 162.869C172.373 162.478 171.755 162.412 171.488 162.005C171.095 161.406 169.851 157.324 169.943 156.659C170.135 155.346 170.469 153.501 170.277 151.971C170.151 150.965 168.882 147.515 168.932 146.917C168.974 146.46 169.7 145.82 169.767 145.188C169.817 144.731 168.849 143.5 169.542 142.436L167.629 142.494C167.554 142.794 167.638 143.209 167.462 143.45C166.878 144.232 164.957 145.687 164.472 146.626C164.071 147.391 164.263 148.945 163.888 149.461C163.37 150.167 161.816 148.978 162.794 152.154C163.094 153.135 164.03 153.883 164.055 153.991C164.489 156.053 164.397 158.58 163.721 160.55C163.528 161.115 163.854 161.215 162.902 161.107C163.077 159.735 160.789 157.998 160.622 156.95C160.555 156.543 161.123 156.136 161.148 155.629C161.349 151.614 161.557 151.065 162.451 147.266C162.844 145.578 162.852 143.176 163.295 141.522C163.378 141.214 163.804 141.231 164.071 141.256C162.409 139.976 164.355 138.621 164.33 137.956C164.322 137.681 163.712 137.307 163.662 136.808C163.645 136.642 166.118 135.52 165.241 134.265C163.879 134.406 164.806 135.537 162.902 134.655L163.295 135.819C161.758 135.428 161.791 136.409 161.19 136.867C160.154 137.656 158.183 139.203 157.473 140.824C156.906 142.112 156.12 144.714 158.183 144.406C157.949 145.844 158.233 147.79 157.791 149.136C157.724 149.336 156.388 150.973 156.329 151.098C156.129 151.489 156.789 152.038 156.647 152.171C155.644 153.102 155.427 151.206 155.36 151.14C155.093 150.84 154.567 150.749 154.342 150.392C153.097 148.446 154.884 144.223 155.36 142.137C155.87 139.876 156.146 137.997 156.413 136.002C156.463 135.653 157.682 134.215 157.782 133.974C158.459 132.253 158.676 129.751 160.179 128.579L159.787 127.498L159.002 127.265L158.801 128.454C157.941 128.562 156.137 130.183 155.603 130.906C155.335 131.272 155.669 132.785 154.291 131.763C153.456 131.147 152.93 123.175 153.924 121.82C154.968 122.46 154.826 124.206 156.48 124.148L157.34 123.516C156.722 122.444 157.774 122.66 157.816 122.361C157.991 121.105 157.565 116.899 156.571 116.101C156.446 116.001 155.978 116.351 155.703 116.01C155.461 115.71 154.717 113.599 155.878 113.84L155.102 112.477C155.82 112.227 156.713 112.901 157.223 112.867C157.331 112.867 157.724 111.512 159.019 112.078C159.419 109.825 156.73 110.457 155.753 110.083C155.536 110 154.342 108.911 153.623 108.886L153.932 101.57C156.221 101.728 155.561 102.593 155.97 103.042C156.171 103.258 156.847 103.008 157.098 103.358C157.223 103.54 158.167 106.076 158.284 106.176C158.584 106.425 159.444 106.051 159.745 106.3C159.837 106.375 159.762 106.99 160.071 107.389C160.697 108.196 162.869 109.193 163.812 110.108C164.222 110.507 164.105 111.197 164.481 111.488C165.884 112.552 174.394 115.045 176.34 115.586C176.699 115.686 176.582 116.384 176.808 116.375C177.768 116.351 179.614 114.073 179.948 116.774C181.602 116.625 183.356 116.908 184.993 116.733C185.711 116.658 187.916 115.777 188.843 115.702L198.497 115.968C199.149 115.27 196.092 111.878 196.936 110.532L195.766 110.515C195.9 109.8 196.059 109.218 195.741 108.503C195.349 107.589 192.133 102.826 190.997 102.443C190.714 102.352 190.321 102.817 189.979 102.684C189.611 102.535 188.375 100.772 189.043 100.099C186.429 98.5611 183.94 95.6433 180.95 95.2775L180.875 94.2218C179.155 94.4878 179.589 92.9416 178.027 93.8228C174.753 91.0629 164.556 91.5451 160.088 92.3265C159.085 92.501 158.325 93.3157 157.607 93.4071C156.513 93.5484 156.137 92.8252 155.678 92.7837C154.625 92.6839 153.69 93.7646 151.986 92.1935L152.304 91.1211C151.251 91.1959 151.435 89.7827 151.118 89.5749C150.817 89.3754 150.107 89.658 149.715 89.4419C149.414 89.2673 149.188 88.1035 148.712 87.7045C148.303 87.3554 146.14 87.0312 146.942 85.6928C147.635 84.529 148.938 85.5266 149.356 85.5349C151.694 85.5764 152.905 85.8425 155.102 87.0644C155.494 87.2806 155.294 88.4277 156.839 87.9539C157.298 86.6987 158.768 86.2165 156.697 85.6014L157.064 84.7036L156.287 84.3046C157.59 79.558 161.273 85.3603 163.503 85.2522L162.919 82.1432C163.863 81.9022 165.241 81.8772 165.942 82.6586C166.126 82.8665 165.875 83.3403 166.518 83.8474C167.295 84.4625 168.514 84.2131 169.358 84.8782C169.792 84.9364 170.06 82.9247 169.567 82.534L170.895 82.1848L174.845 85.2522L175.037 84.4792H175.822L176.006 85.2522L176.399 84.4708C176.808 85.7843 177.518 85.3104 177.768 85.4767C178.061 85.6679 178.061 86.2332 178.219 86.3662C178.495 86.5906 179.363 85.9339 179.881 85.9838C180.316 86.0337 179.839 86.973 180.499 86.7984L180.7 86.0253C181.552 87.4801 183.447 88.5441 185.193 88.3529L184.149 84.9364C183.322 84.7119 183.431 83.5731 183.272 83.4899C182.637 83.1491 181.167 82.667 180.474 82.3261L180.508 81.3618L178.979 81.3037C179.163 80.9711 176.165 77.912 175.923 77.8538C174.82 77.5961 171.905 77.3966 171.037 77.0558C168.581 76.0915 162.927 75.9169 159.954 76.2661C159.236 76.3492 159.444 76.956 159.202 77.0059C157.164 77.4299 156.12 76.9893 153.648 77.9868C153.423 78.0783 153.723 79.1091 152.354 78.2362L152.337 79.3751C149.94 78.7599 150.224 80.5555 149.497 81.2371C149.289 81.4367 148.754 81.3535 148.612 81.5032C147.384 82.8332 145.664 84.6122 145.706 86.4244C143.342 86.6322 142.248 84.4708 140.703 83.731C140.093 83.44 138.983 83.6229 138.398 83.1907C137.989 82.8914 137.863 81.9354 137.521 81.6195C136.31 80.4973 134.59 79.957 133.212 79.6161C132.66 79.4831 132.193 78.9096 131.499 79.001C131.282 79.0342 131.266 79.5413 131.09 79.6494C130.739 79.8655 130.138 79.6743 130.046 80.0152C129.921 80.4973 130.213 81.2621 130.071 81.8689C130.004 82.1599 129.345 82.1017 129.286 82.4009C129.161 83.0493 129.695 84.0469 129.295 84.8532C131.124 85.0777 132.251 82.9163 134.189 84.0718C134.681 85.1359 132.001 86.6737 133.42 89.126C133.921 89.9822 135.951 90.4644 135.55 91.8609C133.621 91.8609 131.925 90.3563 130.08 91.0879V89.9157L128.91 90.3148C129.219 88.8018 128.301 89.2424 127.633 88.7519C127.374 88.5607 127.399 88.1368 127.04 87.9955C126.021 87.5881 122.68 87.505 121.486 87.5882C121.527 86.9065 121.36 86.1168 121.494 85.4601C121.778 84.1134 122.797 84.5623 121.477 82.9247C120.425 84.6122 120.216 83.6479 119.239 83.9638C118.872 84.0801 116.124 86.4825 115.907 86.5574C115.322 86.7652 114.988 86.6488 114.453 86.4244C113.944 89.5749 116.383 89.9407 118.947 89.9241L119.139 90.6971C118.103 91.1627 117.953 91.6947 116.6 91.6614C115.138 91.6199 115.222 90.7387 114.971 90.6971C113.827 90.506 112.391 92.0355 112.09 89.9407C110.127 90.4228 111.071 91.171 110.845 91.7778C110.812 91.8609 109.543 92.6257 109.492 92.7504C108.883 94.1885 109.852 94.0472 110.111 94.5294C110.578 95.4188 110.72 97.0149 111.706 96.1587C111.472 97.4638 112.491 97.3308 112.892 98.0956C112.157 97.9459 112.048 98.8354 111.722 99.0266C111.43 99.1929 110.971 98.852 110.954 98.8853C110.837 99.0848 111.079 99.7997 110.837 100.34C110.787 100.456 109.384 101.836 109.133 102.161C104.473 108.212 101.742 115.045 98.4264 121.546C98.0004 122.377 95.8206 122.776 97.6497 124.688C98.4514 125.528 100.239 126.018 101.316 125.32C102.093 124.813 102.711 123.558 102.769 122.635C103.696 123.358 103.437 122.327 103.788 122.236C104.122 122.153 107.513 122.394 107.647 122.602L107.43 125.744L104.699 124.58C105.049 125.702 103.22 126.725 102.352 126.135C103.062 128.629 97.516 129.693 100.765 131.43L100.397 133.142C101.817 132.951 105.484 135.038 106.77 134.714C107.237 134.597 109.05 131.405 111.18 133.517C112.115 134.822 106.503 137.606 107.438 139.759C109.217 139.261 112.474 139.71 113.526 138.197C115.188 139.094 114.629 138.138 115.489 137.482C118.73 134.988 118.704 136.177 121.703 138.197C123.649 134.971 123.248 138.92 124.893 138.937C125.778 138.496 126.873 137.54 126.589 136.517C126.764 134.971 129.929 139.128 130.489 138.587L131.282 136.825L130.489 136.443L131.474 135.462C131.416 136.908 132.259 136.335 132.735 136.742C132.794 136.792 133.512 137.831 133.546 137.906C133.663 138.205 133.07 139.311 134.406 139.743C134.222 138.729 135.325 139.161 135.592 138.712C136.034 137.981 135.792 136.833 135.809 136.044C135.809 135.778 136.218 135.47 136.193 135.287C136.135 134.73 135.149 133.766 135.583 132.743C136.819 132.968 137.254 135.404 137.655 135.761C137.88 135.969 138.49 135.728 138.749 136.094C138.849 136.227 139.667 139.136 139.684 139.302C139.793 140.192 139.141 143.459 137.78 143.234C136.435 143.01 137.279 141.314 137.087 140.998C136.995 140.848 136.41 140.832 136.193 140.516C135.876 140.067 136.26 139.261 135.583 139.36C135.892 140.649 134.339 141.031 133.763 141.821C132.836 143.085 132.452 143.301 132.109 143.708C131.934 143.916 131.307 145.72 130.873 146.144C128.301 148.663 129.186 142.902 128.919 141.513C128.793 140.882 129.186 140.824 128.15 140.923C128.242 141.364 127.457 142.902 127.248 143.143C127.04 143.392 122.872 146.942 122.58 147.066C122.196 147.224 121.711 146.701 121.552 146.809C121.427 146.892 121.419 147.474 121.118 147.69C120.934 147.823 120.458 147.532 120.392 147.615C120.241 147.798 120.333 148.397 120.108 148.654C119.473 149.386 118.437 149.294 118.763 150.641C119.64 150.392 120.225 150.874 120.5 149.901L121.895 150.25L120.809 151.58L121.118 152.969C122.404 151.639 123.106 152.769 124.576 152.935L126.38 151.032C127.582 152.428 126.614 154.648 125.035 155.163C124.167 155.446 121.753 155.122 120.316 155.57C119.915 155.695 117.36 157.524 117.285 157.732C116.834 159.004 118.053 161.572 118.37 162.703C119.623 162.811 120.266 161.498 121.135 160.974C121.494 160.758 122.054 160.874 122.363 160.724C122.738 160.542 122.68 159.968 122.864 159.968C124.384 159.968 123.791 161.348 123.883 161.672C123.933 161.863 125.252 162.42 124.626 163.875C125.645 164.956 126.756 160.683 128.393 160.417C128.66 160.375 130.088 161.19 130.121 161.406C130.422 163.268 128.401 163.06 128.184 163.717C127.967 164.365 128.284 165.255 128.134 165.937C128.092 166.111 126.781 166.518 127.357 167.757C126.28 166.627 126.146 167.533 125.62 167.558C123.323 167.649 124.492 167.749 123.54 168.115C121.728 168.805 121.461 167.898 119.615 168.888C119.072 169.179 117.118 169.918 116.884 170.16C116.784 170.259 117.084 172.62 115.639 172.437V173.202C116.784 173.036 116.625 174.815 117.393 175.147H117.961C118.487 172.82 120.141 174.881 120.909 174.981C121.561 175.072 122.237 174.233 122.588 174.017C122.814 173.884 123.398 174.075 123.732 173.884C124.208 173.609 125.703 170.692 125.854 170.559C126.229 170.226 127.783 170.808 127.766 169.32L129.303 170.276L128.601 170.517C129.361 172.013 128.601 172.753 128.084 174.042C127.992 174.266 126.605 176.835 126.472 176.959C126.338 177.092 123.448 178.639 123.214 178.647C122.254 178.688 121.728 177.658 120.717 177.857C121.118 179.711 118.137 179.819 117.97 180.467C117.777 181.216 117.911 182.562 117.819 183.435C117.711 184.466 116.942 185.197 117.585 186.419C118.838 185.106 119.924 186.153 121.494 186.037L121.101 188.365C123.123 188.614 123.198 186.237 123.574 185.729C123.732 185.513 124.367 185.422 124.626 185.081C125.511 183.942 125.336 182.529 127.349 182.92V186.428L126.572 186.029C126.939 187.666 124.826 187.625 123.732 188.365C122.605 189.121 119.465 191.291 118.755 192.189C117.702 193.502 116.767 194.425 117.577 196.154L119.915 194.982C119.723 196.378 120.283 197.06 121.644 197.334L123.214 195.356C125.419 194.732 126.981 192.92 128.735 191.49L129.67 192.089C129.311 195.165 127.749 197.085 124.96 198.249C124.509 198.44 123.532 198.456 123.473 198.523C123.315 198.689 123.582 199.471 123.34 199.936C123.189 200.227 120.792 201.964 120.726 202.272C120.584 202.887 120.525 204.442 120.55 205.148C120.559 205.564 120.5 207.11 121.093 207.044C121.469 204.633 123.883 203.261 125.561 201.74C125.753 201.565 126.33 201.682 126.48 201.507C126.714 201.225 126.48 200.601 126.597 200.46C126.672 200.36 128.777 200.501 128.91 201.025L128.117 203.153L127.357 202.779C127.708 204.358 126.589 203.735 126.271 204.034C125.971 204.334 124.851 206.162 124.417 206.661C124.016 207.127 123.356 207.285 123.156 207.551C122.563 208.332 123.064 210.46 122.647 211.433C122.429 211.931 121.728 211.483 121.878 212.106C123.398 212.372 122.747 211.931 123.022 211.516C123.983 210.078 126.797 209.047 126.179 206.678C127.758 206.985 127.123 205.979 127.449 205.597C127.891 205.082 133.17 201.54 133.913 201.249C135.074 200.809 136.853 200.227 136.343 202.106C136.227 202.521 132.518 204.076 133.604 205.098L132.46 205.123L132.418 206.661L131.641 206.262C132.326 207.891 131.291 207.592 130.581 208.349C128.66 210.402 126.246 216.462 125.87 219.795C125.703 221.3 125.945 220.685 125.503 222.04C125.202 222.946 124.993 223.952 124.943 224.916L123.816 224.949L124.217 226.113L123.131 226.18C122.68 226.57 123.164 228.657 121.878 228.457L122.647 229.422C121.611 230.386 119.899 231.101 120.3 232.73L119.523 232.339C119.748 233.345 118.395 236.03 119.907 235.847L118.905 236.596L119.13 237.784C116.8 237.468 117.819 241.467 117.544 243.021C117.352 244.077 117.017 245.216 116.784 246.471C116.725 246.771 116.107 246.679 116.007 247.02C115.138 250.079 115.489 248.392 113.535 250.22C113.025 250.694 113.067 252.058 111.697 252.191C111.18 250.511 113.602 248.633 113.844 247.577C114.078 246.563 113.318 243.886 113.384 242.706C113.418 242.09 113.919 238.632 114.044 238.042C114.111 237.743 114.796 237.801 114.779 237.618C114.554 234.459 114.704 236.114 115.84 234.185C116.566 232.938 117.009 232.107 117.761 231.192C117.986 230.918 119.907 230.12 120.183 229.53C120.534 228.79 120.225 227.41 120.258 226.545C119.765 226.146 118.872 226.562 118.588 226.487C117.31 226.13 117.61 226.13 115.773 225.905C114.771 225.781 110.186 223.91 108.858 223.387C108.557 223.27 108.557 222.622 108.332 222.622C107.388 222.622 106.878 223.902 106.962 221.89C105.843 222.447 106.035 221.3 105.776 221.117C105.617 221.009 104.966 221.608 104.715 221.425C104.598 221.333 104.565 220.801 104.214 220.527C103.671 220.103 102.761 220.61 103.07 219.13L102.302 219.521V218.349C100.731 219.064 99.7627 217.917 98.2844 217.443C97.1068 217.069 95.7956 217.376 94.6681 216.013C94.6096 217.742 91.3942 218.873 90.7594 217.177C90.6008 218.258 89.1141 218.299 88.9889 218.607C88.4376 219.879 89.1977 223.503 88.9889 224.717C88.9304 225.033 88.2623 224.974 88.0952 225.44C87.9616 225.831 87.8447 228.183 87.6693 228.449C87.4605 228.765 86.809 228.856 86.6587 229.073C86.2328 229.688 85.8486 230.885 84.696 231.4C84.0112 231.708 83.5686 231.209 83.2178 231.284C82.9422 231.342 82.249 233.054 82.107 233.138C81.489 233.487 79.1254 233.844 78.5658 234.418C78.3988 234.592 78.5157 235.099 78.3403 235.324C77.7557 236.097 76.8454 235.59 77.7056 237.568C76.4779 237.942 77.3548 238.4 77.0625 239.281C75.9935 242.44 74.4735 242.606 72.5359 245.166L71.4752 244.859C70.022 247.502 65.6707 247.311 63.1067 247.693C62.497 247.785 61.7287 248.508 60.8935 248.541C60.2003 248.566 60.0917 247.884 59.4987 247.718C58.3796 247.402 56.8429 248.441 56.4086 248.308C56.0327 248.192 55.9743 247.51 55.6486 247.269C54.8969 246.696 54.1787 247.145 54.2121 245.017L55.3563 244.8C54.9303 243.42 56.0327 242.39 56.158 241.492C56.1831 241.292 56.2415 238.25 56.2165 238.009C56.1079 236.745 55.3813 234.093 55.3479 232.938C55.3312 232.206 56.133 232.572 56.2081 231.807C56.4002 229.796 55.4398 225.199 55.7655 223.287C55.8072 223.021 56.4587 223.096 56.5506 222.755C56.6591 222.339 57.3189 219.77 57.4525 219.604C58.0372 218.839 58.7554 219.529 58.129 217.202H59.3066C58.9726 215.498 58.3044 216.495 57.6363 216.071C57.6363 216.071 58.4798 211.574 58.7137 211.117C58.9475 210.66 64.4931 207.9 64.8355 207.783C65.1863 207.667 66.2219 205.597 66.3388 205.256C66.4558 204.915 67.8422 200.884 67.8422 200.884L66.2219 197.775L70.3811 193.178L74.1979 190.301C74.1979 190.301 78.357 189.728 79.0502 189.612C79.7434 189.495 85.1721 188.115 85.1721 188.115L89.9076 185.472L97.9921 187.084L101.917 188.007L107.004 189.271L109.893 186.627L108.507 184.1L107.78 181.016L107.379 180.243L110.904 179.844C111.455 179.196 109.067 177.225 108.557 176.926L109.334 175.962L108.173 175.372C109.526 174.532 108.524 173.418 108.716 172.421C108.849 171.722 109.576 171.681 109.618 171.598C109.701 171.423 109.351 170.234 109.718 169.594C109.952 169.179 110.57 169.453 110.787 169.245C111.205 168.854 111.113 167.217 112.858 167.383C113.092 167.084 110.695 165.122 110.628 164.972C110.545 164.789 110.82 163.418 110.486 162.62C110.319 162.212 108.599 161.747 110.536 160.957L109.409 158.945C110.06 158.114 109.91 157.117 110.152 156.385C110.269 156.028 110.862 156.111 110.912 155.828C111.063 154.98 110.069 154.157 111.697 153.534C110.779 151.979 111.864 152.353 112.056 151.913C112.457 150.965 112.599 149.86 113.209 148.953C112.349 147.058 110.077 146.21 110.511 144.032C109.526 143.558 109.86 144.78 109.492 144.839C109.342 144.864 106.878 144.722 106.486 144.681C105.734 144.598 104.841 143.342 103.488 144.423C103.947 143.658 101.959 142.012 101.926 141.804C101.859 141.422 102.251 140.981 102.093 140.516C102.051 140.408 100.982 138.612 100.89 138.546C100.13 138.005 98.6435 138.271 98.2009 138.105C97.967 138.022 98.0088 137.498 97.5327 137.299C96.7477 136.975 95.7204 136.925 94.9019 136.609C95.3195 133.616 94.9353 131.43 92.6219 129.443C92.4883 128.363 93.3151 126.816 93.3401 126.326C93.3568 126.06 92.6219 126.351 92.5133 125.578C92.1542 123.15 93.29 122.976 93.3401 122.751C93.4905 122.028 92.9727 121.247 93.1648 120.665C93.6157 119.351 96.2633 115.719 96.8228 114.522C98.7771 110.34 102.452 103.457 105.3 99.2677C105.676 98.719 106.736 99.2594 105.876 97.7298L106.628 97.3225C103.162 96.6658 105.55 95.0697 105.834 93.6066C106.135 92.0189 105.534 89.7744 105.859 88.2532C105.901 88.062 108.089 85.5931 108.432 85.2855C109.376 84.4459 109.893 84.4958 110.687 84.4708C110.979 84.4625 110.871 83.7809 111.188 83.7061C113.234 83.1824 114.378 84.3545 115.773 81.7525C115.831 81.6445 116.132 80.0152 116.333 79.5496C116.5 79.1589 117.519 76.8895 117.644 76.7981C117.752 76.7233 118.354 76.9477 118.855 76.715C119.49 76.424 118.73 75.6676 121.243 75.9668C121.686 76.0167 123.958 76.981 124.125 77.1805C124.509 77.6377 123.549 78.8431 125.845 77.8206C127.574 77.0475 128.81 73.1654 129.712 71.6525L130.464 72.0348C130.297 69.9151 132.084 70.5302 133.086 69.9566C139.509 66.299 145.196 64.013 152.579 61.7519C153.565 61.4526 155.244 61.4859 156.363 61.1035C156.655 61.0037 156.947 59.9397 158.175 60.3138L163.37 61.3529L169.993 61.6604L173.075 63.4976L176.774 66.8726L186.17 68.4105L189.711 74.3874L192.793 82.2097C192.793 82.2097 194.798 88.3446 195.257 88.3446C195.716 88.3446 200.343 91.7196 200.343 91.7196C200.343 91.7196 196.334 96.3166 197.261 96.7821C198.188 97.2393 199.416 104.297 200.193 104.447C200.961 104.596 200.594 110.856 200.594 110.856L200.56 110.814Z" fill="black"/>
<path d="M177.642 101.287C177.734 101.337 177.709 101.819 178.035 101.927C179.413 102.393 181.459 101.437 181.659 103.507L182.628 102.725L183.037 103.523C184.566 102.592 184.299 103.681 184.507 103.756C187.639 104.986 187.631 105.934 189.986 108.428C190.329 108.785 190.963 108.719 191.448 109.218C192.391 110.198 192.918 111.869 192.984 113.216C192.158 113.44 191.949 112.484 191.431 112.293C191.013 112.135 190.412 112.41 189.969 112.185C189.702 112.052 188.282 110.647 188.09 110.606C186.888 110.315 185.292 111.379 185.175 111.279C185.033 111.163 185.493 110.348 184.783 110.506L184.382 112.443L183.797 111.662L182.628 112.385C181.818 111.612 181.15 110.456 180.089 109.949C179.555 109.691 178.962 110.647 178.327 108.952C177.525 109.642 176.824 110.232 176.949 111.396C177.041 111.844 176.247 111.745 175.989 111.678C175.746 111.62 173.508 108.129 172.815 107.804L170.902 108.577L170.51 107.779L169.34 108.852C169.107 108.868 168.33 108.378 168.121 108.17C167.369 107.422 168.614 106.823 166.843 106.973C167.244 106.084 165.749 104.878 164.839 105.053L165.215 104.305L163.87 103.872L161.715 100.389C162.834 99.7825 163.578 100.697 164.229 100.73C166.326 100.838 176.331 100.581 177.642 101.279V101.287Z" fill="black"/>
<path d="M132.662 102.094C133.664 102.717 135.743 105.053 133.764 105.851C132.403 103.258 129.997 103.474 127.534 104.322C125.93 104.879 123.408 105.993 126.122 107.206C128.085 105.668 129.63 105.361 131.801 107.023C133.973 108.686 132.177 109.467 133.764 110.905L134.524 109.442C136.98 109.85 141.423 110.44 139.034 113.624C138.433 113.765 138.825 113.117 138.366 112.867C137.046 112.177 134.24 111.695 133.38 113.175L132.403 112.834C133.012 114.621 128.427 115.403 127.575 115.12C127.467 115.087 126.055 113.707 125.972 113.591C125.897 113.491 125.037 112.003 124.819 111.637C124.368 110.889 124.36 109.916 123.6 109.334C123.558 110.34 122.23 110.174 121.921 110.606C121.738 110.856 121.938 111.512 121.821 111.62C121.562 111.861 120.318 111.529 119.75 111.654C119.299 111.753 119.75 112.61 119.115 112.443C118.029 109.268 121.771 109.243 121.069 106.608L121.846 107.007C121.12 105.411 122.147 105.868 122.548 105.377C122.623 105.286 122.272 104.862 122.347 104.762C122.974 104.006 123.984 103.856 124.101 103.765C124.352 103.582 124.418 102.917 124.761 102.709C125.813 102.044 127.484 102.302 127.642 102.235C127.726 102.202 127.55 101.62 128.269 101.529C129.313 101.396 131.776 101.529 132.67 102.086L132.662 102.094Z" fill="black"/>
<path d="M146.249 125.918C146.726 126.367 149.031 129.376 149.039 129.942C149.039 130.682 148.346 130.798 148.12 131.413C147.527 133.059 148.204 132.319 146.976 133.99C146.517 134.614 147.511 135.412 145.489 134.68C145.139 133.749 145.414 132.818 145.197 131.829C145.147 131.588 144.537 129.992 144.136 129.967C144.721 131.571 143.518 131.787 143.293 132.452C142.792 133.924 142.541 135.47 142.165 136.966C140.913 137.315 141.121 135.969 139.877 136.168C139.543 133.799 142.566 132.544 141.005 129.975H142.575C142.575 127.747 141.806 126.292 143.585 124.513C145.072 124.705 145.339 125.045 146.258 125.91L146.249 125.918Z" fill="black"/>
<path d="M250.781 200.492C252.309 202.005 255.616 206.852 253.612 208.714C252.994 209.287 252.392 208.523 252.409 209.537C252.434 211.291 253.178 213.352 254.781 214.258C254.247 215.78 254.013 217.326 252.618 218.307C252.476 217.193 252.459 215.763 252 214.724C251.691 214.017 249.695 212.014 249.369 211.432C248.86 210.509 249.277 209.504 249.219 209.42C249.035 209.154 246.922 208.448 246.555 207.608C246.187 206.769 247.114 207.159 247.415 207.134C249.553 206.935 248.592 207.617 249.511 208.149C250.254 208.589 251.282 208.689 252.017 209.362C251.992 208.107 252.66 207.151 252.242 205.846C251.774 204.358 246.22 200.941 250.772 200.501L250.781 200.492Z" fill="black"/>
<path d="M139.7 160.458C142.657 163.102 137.838 167.058 137.47 169.669L136.702 169.278C136.71 170.409 136.401 171.057 135.132 170.841C135.015 170.076 135.015 168.663 134.731 168.031C134.447 167.399 133.202 167.183 133.595 165.246C133.653 164.955 134.221 165.063 134.322 164.748C134.372 164.581 134.079 164.141 134.213 163.841C135.307 161.289 135.766 160.259 137.687 163.052C138.873 162.187 138.322 161.165 138.272 159.951C138.806 159.885 139.324 160.126 139.708 160.466L139.7 160.458Z" fill="black"/>
<path d="M251.521 193.535C253.551 194.241 254.812 197.217 255.58 198.938C255.747 199.304 256.315 199.279 256.34 199.495C256.44 200.276 255.705 200.842 255.697 201.399C255.697 201.656 256.8 202.878 255.33 203.527C253.993 204.117 254.678 202.363 253.709 202.255C253.584 200.941 252.757 199.478 252.039 198.256C251.538 197.4 248.556 194.166 249.275 193.418C250.035 193.427 250.761 193.285 251.513 193.543L251.521 193.535Z" fill="black"/>
<path d="M144.476 146.359C145.019 148.263 146.113 149.477 145.495 151.605C145.236 152.503 144.443 153.093 144.284 153.708C144.101 154.406 144.844 155.936 142.956 156.06V154.888L141.787 155.279L140.977 150.458L141.779 149.984L141.453 149.244C142.698 148.82 141.996 147.856 142.23 146.767L144.485 146.368L144.476 146.359Z" fill="black"/>
<path d="M182.378 207.093C182.512 207.218 182.42 207.883 182.637 208.182C182.98 208.631 183.664 208.44 184.024 208.847C184.859 209.778 184.884 212.205 185.193 213.353C185.285 213.677 185.869 213.635 185.936 213.91C186.429 215.955 185.911 216.428 184.174 217.135L182.278 213.203C182.128 211.432 181.084 209.254 180.867 207.6C180.741 206.652 182.178 206.918 182.37 207.093H182.378Z" fill="black"/>
<path d="M208.928 178.738C209.045 178.804 209.003 179.378 209.254 179.395C212.21 179.602 213.931 179.112 216.144 182.022L216.837 181.731C216.42 182.853 218.566 183.676 218.408 184.64C218.299 185.305 217.497 185.205 216.938 184.956C216.704 184.848 212.895 182.312 212.745 182.113C212.52 181.805 212.545 181.332 212.536 180.949C211.283 181.83 210.749 180.683 209.73 180.442C208.252 180.093 206.189 179.769 204.727 179.777C203.583 178.58 208.419 178.439 208.928 178.73V178.738Z" fill="black"/>
<path d="M244.348 222.056C244.991 222.472 246.135 223.328 246.678 223.636C247.112 223.877 247.797 223.636 248.048 223.827C248.198 223.943 248.449 225.656 249.292 225.905L248.541 226.645L248.908 228.033C248.758 228.183 247.238 227.792 246.87 227.617C246.01 227.21 242.118 223.553 241.893 222.688C241.759 222.173 241.901 221.566 241.876 221.034C243.663 220.502 243.738 221.649 244.356 222.056H244.348Z" fill="black"/>
<path d="M117.416 127.747C117.416 127.747 117.542 128.163 117.884 128.379C118.368 128.686 119.02 127.938 118.402 129.127L119.488 129.775C118.811 130.881 117.617 130.748 116.656 131.164C116.122 131.396 116.322 132.793 114.41 131.139L114.209 132.302L111.286 130.557C111.996 129.077 113.165 127.473 114.994 127.415C115.12 127.415 117.291 127.705 117.408 127.739L117.416 127.747Z" fill="black"/>
<path d="M152.263 158.064C154.05 160.575 155.52 163.102 153.725 166.094C149.983 165.562 151.871 164.099 151.545 162.919C151.47 162.653 150.902 162.719 150.81 162.37C150.442 161.09 150.209 159.718 150.033 158.413L152.271 158.064H152.263Z" fill="black"/>
<path d="M148.421 218.315C148.496 218.423 147.828 220.593 147.669 220.784C147.252 221.308 145.782 220.926 146.049 222.58C143.727 221.624 143.502 225.348 140.988 224.533C140.311 223.91 143.092 219.645 143.969 219.13C144.846 218.615 145.256 219.08 145.59 218.964C145.64 218.947 145.606 218.457 146.258 218.274C146.984 218.066 147.694 218.132 148.413 218.324L148.421 218.315Z" fill="black"/>
<path d="M174.152 209.047L173.459 208.964V208.199L174.194 208.024L173.835 207.027C177.226 207.359 178.512 212.979 177.368 215.797C175.722 217.335 173.76 210.327 174.152 209.047Z" fill="black"/>
<path d="M144.469 169.719C145.221 170.01 146.548 173.351 146.423 174.465C146.139 177.034 145.262 175.945 144.678 176.66C144.419 176.976 145.212 178.289 143.934 178.223L142.289 175.895L143.734 171.406L142.957 170.641C143.366 170.259 143.792 169.453 144.469 169.719Z" fill="black"/>
<path d="M218.357 171.273L218.407 172.778C216.946 173.351 216.52 172.212 216.328 172.129C215.242 171.672 212.845 171.032 211.542 170.841C209.947 170.608 208.343 171.88 207.859 169.278C209.153 169.702 210.214 168.097 211.183 168.122C212.728 168.172 216.595 171.048 218.365 171.265L218.357 171.273Z" fill="black"/>
<path d="M193.653 207.558C194.062 207.991 195.465 210.551 195.607 211.233C195.874 212.455 195.348 213.968 195.34 215.198H194.17L194.563 214.425C193.978 214.932 192.233 212.746 192.208 212.588C192.116 211.973 192.55 211.324 192.475 210.776C192.325 209.695 190.93 204.657 193.653 207.558Z" fill="black"/>
<path d="M159.904 189.769C159.996 189.985 160.823 189.744 160.531 191.215L159.169 194.566L156.246 195.347C155.737 194.133 157.365 192.512 157.407 192.354C157.724 190.983 157.056 189.071 157.816 187.574C159.745 187.649 159.403 188.639 159.912 189.777L159.904 189.769Z" fill="black"/>
<path d="M253.092 189.229C253.192 189.295 254.696 190.883 254.746 190.991C255.213 191.93 255.138 193.526 254.178 194.175C252.95 193.859 252.708 192.304 252.315 191.955C251.012 190.791 246.745 191.166 249.092 187.965C249.877 188.954 252.157 188.622 253.092 189.229Z" fill="black"/>
<path d="M214.239 175.753C214.907 176.194 215.65 176.551 216.452 176.676C217.254 177.748 212.068 177.266 211.383 176.867C211.074 176.684 209.336 174.88 208.752 174.739C208.009 174.565 207.073 174.822 206.288 174.723V173.559C208.71 173.293 211.282 173.526 213.437 174.822C213.922 175.113 214.047 175.62 214.239 175.745V175.753Z" fill="black"/>
<path d="M155.436 181.78C154.935 182.894 156.012 183.485 155.87 184.615C155.778 185.33 155.093 185.762 154.851 186.394C154.676 186.868 154.409 187.533 154.3 187.857C154.008 188.688 154.868 189.52 153.181 189.021L152.922 188.339L151.945 189.121C151.761 187.441 152.889 185.929 153.323 184.441C153.54 183.692 153.757 183.268 153.807 183.094C153.866 182.886 153.532 181.847 153.899 181.34L155.436 181.78Z" fill="black"/>
<path d="M159.211 164.39C159.403 164.506 159.846 165.055 160.13 165.246C159.537 166.352 160.28 167.042 160.464 168.014C160.706 169.278 160.932 169.419 160.948 169.519C161.207 170.699 159.704 171.813 160.539 173.168C158.677 173.36 160.105 171.215 159.746 170.849C159.637 170.733 158.844 171.09 158.568 170.591C158.251 170.018 157.532 166.61 157.516 165.895C157.507 165.263 158.493 164.756 157.8 163.841C158.451 163.675 158.752 164.124 159.203 164.398L159.211 164.39Z" fill="black"/>
<path d="M147.551 137.498C147.777 137.756 148.988 140.158 149.004 140.516C149.038 141.605 148.528 144.315 147.059 143.99L145.313 140.723C145.338 138.986 146.031 138.213 146.666 136.991C146.875 137.299 147.326 137.24 147.551 137.498Z" fill="black"/>
<path d="M137.087 186.785L135.917 186.394C136.594 188.946 133.061 191.107 132.978 187.741C132.961 187.175 134.548 184.441 134.94 184.058C135.416 183.584 136.561 183.676 136.886 182.512C138.264 183.717 136.561 185.446 137.078 186.785H137.087Z" fill="black"/>
<path d="M210.824 194.341C212.018 195.33 213.38 196.843 213.321 198.464H212.144L212.545 199.237L211.025 199.196C211.025 196.835 210.382 197.575 209.396 196.336C208.411 195.097 208.945 193.385 206.673 193.792C207.884 192.022 209.605 193.335 210.824 194.341Z" fill="black"/>
<path d="M139.758 91.1292C140.752 92.6587 143.5 93.4401 143.341 95.7261C140.259 97.0063 135.073 92.2098 139.758 91.1292Z" fill="black"/>
<path d="M189.811 215.913C189.761 215.988 188.684 216.528 188.483 215.988C188.892 214.566 187.197 213.17 187.139 212.97C187.063 212.713 186.679 210.136 186.704 209.986C186.763 209.653 188.091 209.994 187.122 208.581C189.678 208.606 190.621 214.674 189.803 215.913H189.811Z" fill="black"/>
<path d="M136.302 174.74C135.793 175.745 136.135 176.967 135.91 177.965C135.835 178.281 135.183 178.165 135.192 178.414C135.2 178.647 135.601 178.971 135.467 179.312C135.292 179.761 132.845 181.357 132.009 180.55C131.45 179.752 133.354 177.94 133.438 177.741C133.58 177.416 133.145 176.585 133.713 175.629C133.864 175.38 134.782 174.848 134.999 174.316L136.311 174.74H136.302Z" fill="black"/>
<path d="M138.256 193.02C138.398 196.162 136.811 198.373 133.562 198.074C133.053 197.641 136.845 191.939 138.256 193.02Z" fill="black"/>
<path d="M166.962 172.628C167.028 172.753 167.446 172.819 167.563 173.085C168.273 174.731 167.279 175.488 167.58 177.034L166.485 177.1L166.227 178.214C165.057 176.194 164.982 172.512 165.834 170.434C166.561 170.982 166.594 171.888 166.97 172.62L166.962 172.628Z" fill="black"/>
<path d="M210.506 186.901C210.657 187.067 210.49 187.641 210.69 187.857C210.857 188.04 211.425 187.924 211.6 188.098C212.578 189.062 213.906 190.309 213.321 191.847L209.713 188.614L205.896 186.793C205.871 186.086 205.696 185.978 206.472 186.02C207.032 186.053 210.331 186.718 210.506 186.909V186.901Z" fill="black"/>
<path d="M135.132 155.662C134.881 156.31 135.224 158.114 135.107 158.521C135.032 158.796 134.497 158.787 134.464 158.887C134.38 159.203 134.355 161.863 133.378 161.497C132.184 160.89 131.841 158.571 132.392 157.532C132.601 157.141 133.119 157.108 133.311 156.834C133.771 156.202 133.061 155.587 135.132 155.662Z" fill="black"/>
<path d="M174.585 173.975L174.686 175.047L175.796 175.113L175.454 176.094C176.473 176.169 176.323 179.079 175.596 179.395C174.953 177.275 172.347 176.56 171.879 174.34L174.585 173.975Z" fill="black"/>
<path d="M134.164 151.239C133.754 152.312 133.195 151.971 132.869 152.245C132.719 152.37 132.802 153.75 131.324 154.024C129.57 154.348 130.481 152.794 130.063 151.796C130.514 151.829 132.017 151.098 132.268 150.882C132.46 150.724 132.31 150.117 132.493 149.942C132.777 149.685 133.554 149.918 133.746 149.036L134.665 149.668C134.707 150.267 134.339 150.732 134.147 151.239H134.164Z" fill="black"/>
<path d="M148.378 189.861C146.775 189.52 146.85 190.384 145.689 190.675C144.386 188.348 146.716 187.99 146.858 186.003C148.812 186.801 149.013 187.924 148.378 189.852V189.861Z" fill="black"/>
<path d="M150.292 175.571C150.45 175.804 150.5 179.503 149.005 179.386C147.502 177.89 148.312 176.402 148.822 174.723C149.122 174.981 150.216 175.446 150.292 175.562V175.571Z" fill="black"/>
</svg>
