<svg width="329" height="371" viewBox="0 0 329 371" fill="none" xmlns="http://www.w3.org/2000/svg">
<path d="M89.1872 140.809L88.4711 139.704C91.5961 140.709 92.9389 136.844 95.6327 138.124C96.2919 138.44 96.7802 139.454 97.1627 140.069L95.7466 140.111C95.9664 141.599 94.4282 141.807 94.6805 142.771C95.0305 144.101 95.9908 145.165 97.358 145.256C98.538 145.331 97.3092 144.317 97.5208 144.159C97.6266 144.084 98.2288 144.325 98.5218 144.068C98.9449 143.71 99.4088 141.374 100.215 140.792L103.82 140.111L104.398 140.975L103.681 145.073L104.406 144.891L104.039 146.37H105.13L104.406 147.11C106.432 146.769 105.569 147.584 105.928 148.116C106.636 149.172 108.662 148.182 109.272 148.199C109.557 148.199 109.297 149.429 110.2 148.955L109.94 148.29L110.517 148.049C109.736 146.753 110.672 147.501 110.924 146.744L110.208 146.57C110.9 145.556 111.103 144.068 109.842 143.594C110.509 141.94 114.961 142.912 113.83 144.874C114.871 145.09 116.019 145.547 116.279 146.636C116.515 147.625 115.889 148.448 117.085 148.773L117.069 149.321C114.871 149.845 116.808 151.848 115.628 153.394C116.523 153.519 116.556 153.428 116.873 152.696L117.801 153.029L117.435 152.297C119.201 151.549 118.965 152.522 120.324 152.68C119.323 154.167 121.488 156.562 121.439 157.285C121.431 157.459 120.739 157.443 120.698 157.692C120.544 158.739 121.146 161.084 119.998 162.397C119.649 162.796 118.957 162.655 118.68 163.012C118.469 163.286 118.81 163.877 118.68 164.151C118.306 164.957 116.759 165.398 116.418 165.656C116.361 165.697 116.54 166.695 115.994 167.069C117.012 168.008 118.151 167.717 119.47 167.152C119.575 167.11 121.276 165.971 121.341 165.88C121.488 165.672 121.325 165.115 121.496 164.949C121.708 164.749 122.236 164.949 122.432 164.824C122.521 164.766 122.489 162.946 122.692 162.663C122.896 162.38 123.579 162.372 123.604 162.064C123.636 161.707 123.075 160.959 123.197 160.311C123.262 159.995 123.994 159.911 124.271 159.471C124.963 158.39 125.248 155.697 127.079 157.933C127.152 158.025 126.908 158.357 126.973 158.473C127.575 159.496 128.487 160.136 128.511 161.74C128.535 163.253 126.395 168.099 124.304 166.72L125.728 169.488C128.259 169.762 127.998 168.274 128.828 167.451C129.178 167.102 129.813 167.185 130.008 166.994C130.489 166.52 130.008 165.281 130.179 164.957C130.236 164.849 130.7 164.808 130.814 164.591C131.302 163.636 131.538 162.605 132.458 161.898L134.395 164.192L134.468 169.064L133.728 169.463C134.615 170.618 134.257 171.799 134.021 173.12L129.789 176.769L130.106 178.183C131.343 177.343 130.936 178.324 131.709 178.582C132.955 178.997 134.273 178.681 135.534 178.914C133.329 176.952 135.689 175.556 136.348 174.001C136.592 173.419 136.275 172.272 137.154 171.541C137.325 170.444 137.78 163.636 138.122 163.419C139.953 162.272 141.231 164.999 142.045 166.163L141.329 166.877L142.061 168L141.369 168.332C141.353 169.754 142.427 170.086 142.411 170.203C142.346 170.701 141.833 172.788 141.378 172.788L141.703 173.735C140.8 173.079 141.133 174.076 140.263 174.109L140.979 174.658C139.603 175.173 140.238 175.689 140.132 175.872C139.962 176.188 139.107 176.703 139.465 177.75L136.999 178.548C136.112 179.82 140.051 179.787 140.718 179.637C140.873 179.604 143.217 177.925 143.323 177.809C144.967 175.947 145.113 171.774 145.748 169.355C146.977 168.872 147.75 169.305 148.897 169.712C148.49 171.15 149.426 173.769 149.231 174.932C148.971 176.495 144.967 181.882 143.616 182.522C142.916 182.854 141.939 182.846 141.085 183.278C140.092 183.777 139.229 185.34 138.082 184.833C137.439 187.327 140.027 187.534 141.882 187.451C144.682 187.318 146.96 185.273 149.459 184.475C150.142 185.564 150.867 186.121 150.582 187.426L149.67 187.052C149.906 189.288 149.377 188.191 148.499 188.54C148.157 188.681 148.222 189.205 147.97 189.263C147.099 189.479 144.804 188.881 143.681 188.964L143.437 189.513L142.818 189.28C142.997 190.818 141.882 190.469 141.459 190.859C141.158 191.134 141.109 191.632 140.808 191.89C140.637 192.04 139.148 191.99 139.253 193.528C139.359 195.066 143.656 194.525 144.706 194.816L144.967 195.739L142.419 196.67L142.794 197.401H141.695L142.061 198.133L139.538 199.272L139.807 199.912C138.554 200.427 138.627 202.505 137.878 203.686L138.798 204.426C138.684 203.096 139.465 204.085 140.002 203.943C140.751 203.744 141.125 203.229 142.24 203.145C142.647 203.112 145.422 203.029 144.958 204.06C143.99 203.312 143.738 205.19 142.81 205.398C142.183 205.539 141.557 205.19 141.394 205.249C141.28 205.29 140.067 206.894 139.872 207.185C139.156 208.241 139.669 209.247 138.049 209.463L138.082 211.45L138.798 210.718C138.725 212.231 141.402 211.192 142.533 211.192C142.956 211.192 145.186 211.192 144.95 211.99C144.787 212.605 142.313 214.609 141.679 214.949C140.263 215.714 137.683 215.257 137.349 218.116L136.641 217.751L136.242 220.103C138.562 221.732 140.539 217.352 143.16 218.491C143.323 221.117 140.995 220.86 140.621 222.929L140.263 222.19C139.66 221.674 139.034 226.67 138.456 226.82C139.603 226.745 138.407 228.008 139.367 227.751C140.824 227.36 141.426 225.689 143.144 226.654C143.371 229.447 141.581 229.505 140.092 230.702C139.026 231.558 138.318 232.705 136.999 233.112L137.715 233.661C136.755 233.628 136.812 234.941 136.267 235.515C137.715 235.797 138.961 235.448 138.456 237.493C138.236 238.383 136.56 237.668 136.137 237.792C134.826 238.175 134.957 240.452 134.444 241.558C134.338 241.782 133.776 241.782 133.72 242.073C133.581 242.788 133.866 243.686 134.143 244.359L135.542 244.592L132.385 249.43L135.127 251.3C135.38 253.329 133.825 254.509 134.069 256.454C134.118 256.862 135.306 257.643 134.997 258.873L135.925 259.031C135.974 260.544 134.973 261.4 134.924 261.625C134.777 262.256 135.184 263.786 134.509 264.609L135.38 265.872L135.738 265.133L135.925 266.612C136.014 266.712 137.398 266.039 137.748 266.887C137.805 267.02 138.334 269.605 138.318 269.746C138.277 270.095 137.732 270.37 137.797 270.794C137.894 271.367 139.034 271.991 138.139 273.113L138.83 273.495L138.545 274.326L139.205 274.584C138.22 275.989 139.791 277.244 139.473 278.649C139.4 278.957 138.879 278.757 138.83 278.824C138.285 279.58 139.449 279.53 139.481 279.73C139.514 279.912 139.49 283.213 139.441 283.387C139.253 284.06 136.438 287.918 135.681 288.366C133.361 289.746 132.051 288.865 130.383 289.314C129.878 289.455 129.512 289.996 129.04 290.145C128.479 290.328 128.096 289.996 127.404 290.278C126.322 290.736 123.01 294.784 123.417 295.839C124.182 297.801 125.541 297.286 126.867 298.067C126.745 297.369 128.658 294.875 129.146 294.626C129.805 294.293 131.107 294.734 131.18 294.667C131.343 294.509 130.969 293.844 131.579 294.002C131.571 295.557 133.5 294.277 134.11 295.291C133.809 296.721 132.214 296.87 131.677 297.452C131.286 297.868 130.822 299.987 129.406 299.555C130.277 300.902 129.13 300.544 129.04 300.91C128.959 301.251 129.341 304.476 129.488 304.842C129.772 305.54 131.579 306.322 131.587 307.319H131.937C131.718 305.981 133.231 307.153 134.021 306.488C134.533 306.056 134.623 304.41 134.948 304.077C135.201 303.82 136.975 303.246 137.211 302.132H137.927L138.269 302.83C140.1 301.916 139.49 303.329 140.141 304.252C140.881 305.316 142.224 305.366 141.369 307.319C147.318 308.741 146.35 304.46 147.172 300.287C147.79 300.603 149.215 300.486 149.622 300.744C149.996 300.985 149.939 302.24 151.086 301.891L151.51 302.506L151.445 300.827L150.793 300.295L151.461 300.129C151.314 299.164 151.095 297.369 151.2 296.455C151.363 295.141 152.21 294.202 151.868 293.08L152.592 293.263L152.226 292.157C153.87 292.739 152.844 290.42 154.22 291.043C155.204 291.492 154.741 295.083 156.759 295.474C157.809 295.374 158.989 288.217 157.353 287.535L157.67 286.604C156.181 287.336 156.1 283.578 156.173 282.706C156.23 282.016 156.816 282.182 156.848 282.099C156.954 281.841 156.246 280.677 157.304 279.954C156.018 279.987 156.45 278.907 156.181 278.391C155.855 277.784 154.749 277.518 155.839 276.03L157.304 275.881L157.337 276.945C158.028 276.197 159.656 279.397 159.811 279.854C160.283 281.234 160.201 282.656 160.201 283.803C160.201 284.027 160.747 283.977 160.836 284.202C161.186 285.091 161.536 286.371 161.674 287.344H163.839C163.204 285.914 164.588 282.573 164.14 281.242C164.108 281.143 163.359 280.403 163.041 279.447C161.992 276.247 158.655 271.201 156.368 269.081C156.051 268.79 155.131 267.917 155.131 267.527C155.847 266.629 155.855 265.557 157.141 265.548C158.81 265.54 158.272 266.762 158.452 266.92C158.663 267.103 159.33 266.853 159.762 267.069C159.925 267.153 162.276 269.463 162.342 269.638C162.456 269.971 162.081 270.311 162.097 270.494C162.097 270.586 163.001 271.4 163.025 271.475C163.18 271.891 162.667 271.567 163.334 272.689C163.693 273.296 163.277 273.894 164.58 273.636C163.636 275.041 165.996 276.238 166.761 274.833C166.94 274.119 166.989 273.146 166.72 272.456C166.598 272.148 166.15 272.099 166.061 271.858C165.507 270.286 165.646 268.69 164.571 267.527L165.296 267.178C165.166 266.546 164.246 264.642 164.23 264.185C164.181 263.054 164.824 260.428 164.759 259.38C164.669 258.009 163.497 256.321 163.302 255.307C163.237 254.966 163.652 254.226 163.473 254.044C163.326 253.894 161.91 254.135 162.032 252.913C160.803 252.73 161.829 254.077 160.209 253.487C160.006 253.412 158.264 252.506 158.15 252.414C158.028 252.315 158.061 251.849 157.898 251.583C157.662 251.201 156.588 251.126 157.857 249.921C159.754 248.108 162.325 252.772 164.034 253.279L164.254 252.606L165.06 252.888C166.565 251.766 165.467 251.716 165.475 250.511C165.475 249.862 165.988 247.926 165.931 247.793C165.914 247.751 165.393 247.701 165.32 247.452C164.62 245.049 165.361 245.39 162.773 244.193C163.05 241.666 165.263 243.013 166.093 244.675C167.225 244.102 166.443 244.758 166.858 245.365C167.493 246.296 170.643 248.034 170.854 248.549C171.806 250.835 169.674 251.724 169.17 253.653C168.226 257.211 170.887 256.621 172.018 258.474C172.23 258.823 171.847 259.247 171.937 259.497C171.961 259.571 172.449 259.555 172.514 259.804C172.636 260.261 172.156 261.849 172.343 262.182C172.531 262.514 173.133 262.223 173.287 262.365C173.532 262.589 174.549 264.493 175.159 265.008C175.289 265.116 175.77 264.734 175.998 265.108C176.046 265.183 176.242 265.931 176.51 266.513C176.86 267.269 176.03 267.793 177.91 268.158C178.024 270.245 178.504 269.198 178.976 269.63C179.285 269.921 179.139 271.367 180.718 271.317C181.833 269.422 182.964 269.472 184.811 270.345C184.868 271.542 184.648 273.412 184.941 274.476C185.267 275.665 187.554 276.629 186.675 278.067L189.23 277.493C190.052 279.879 191.753 279.206 191.224 282.165C190.866 284.185 189.067 283.986 187.497 283.337C186.512 282.93 181.898 278.99 181.116 278.1C180.71 277.635 180.937 277.036 180.872 276.961C180.84 276.92 180.278 277.352 179.814 277.153C178.659 276.671 177.747 274.966 177.055 274.368C176.502 273.894 174.321 272.988 173.532 272.68C170.171 271.375 171.009 274.642 170.708 277.094C170.569 278.2 169.625 278.449 170.732 279.538C169.357 279.422 170.252 281.558 170.008 282.631C169.975 282.764 168.982 284.119 168.86 284.484C167.729 287.793 167.143 288.192 165.157 290.494C162.797 293.238 160.95 296.829 158.818 299.297C158.403 299.78 157.353 299.115 157.695 300.644L156.979 300.27C156.783 300.935 156.995 303.603 156.808 303.969C156.376 304.809 155.147 304.26 155.725 305.831L154.439 306.38L155.164 306.746C153.813 308.633 152.616 309.688 150.427 310.411C149.662 310.661 149.231 310.977 149.15 310.985C148.352 311.11 145.919 310.594 145.194 310.694C144.975 310.727 145.072 311.268 144.796 311.342C143.591 311.667 142.094 310.278 141.117 309.971C140.596 309.805 136.779 309.115 136.543 309.14C136.307 309.165 136.137 310.278 134.981 310.544C134.468 310.669 130.879 310.686 130.432 310.544C129.984 310.403 129.716 309.83 129.439 309.755C128.601 309.522 126.997 309.489 126.379 308.766C125.948 308.267 125.777 307.427 125.443 306.82C125.313 306.588 124.767 306.579 124.719 306.297C124.572 305.465 125.085 304.751 125.052 304.127C125.052 304.002 124.344 301.916 124.271 301.816C124.092 301.592 122.049 300.935 121.862 300.794C121.26 300.353 119.242 298.125 118.965 297.435C118.534 296.38 118.729 294.933 118.452 294.044C118.428 293.969 117.85 293.977 117.826 293.745C117.785 293.337 118.216 292.855 118.119 292.564C118.086 292.456 116.751 291.193 116.678 290.719C114.57 291.434 113.797 288.857 112.381 287.527C111.445 286.646 109.858 286.679 110.599 285.083L109.883 285.457C110.566 284.077 109.696 284.41 109.647 284.26C109.573 284.06 109.818 283.794 109.744 283.703C108.947 282.647 108.141 283.163 107.783 282.789C107.482 282.473 106.489 280.361 106.196 279.979C106.139 279.904 105.659 280.154 105.537 280.029C104.617 278.998 103.47 277.809 103.779 276.363C103.909 275.74 104.219 275.582 104.446 275.091C103.388 275.474 102.876 273.853 102.485 272.897C102.396 272.672 102.656 272.182 102.607 272.157C102.428 272.04 101.891 272.315 101.517 271.899C100.63 270.918 101.305 268.674 100.084 267.502C101.452 267.136 100.499 266.396 100.638 265.648C100.866 264.409 102.9 262.123 103.999 261.492C105.464 260.644 110.664 258.981 112.129 259.571C112.389 259.671 112.373 260.137 112.601 260.195C113.602 260.461 115.97 259.547 117.313 260.644C117.842 261.076 118.192 262.015 118.265 262.065C118.395 262.148 118.989 261.616 119.502 262.082C119.803 262.356 121.203 264.584 121.113 265.091L121.83 264.36L124.833 269.064C126.477 269.613 128.519 270.486 129.707 271.849C129.789 271.941 129.488 272.315 129.553 272.414C130.025 273.121 131.547 273.503 130.537 275.091L131.62 274.717L133.077 278.425L133.475 277.743L134.159 278.059C133.785 276.862 134.859 276.346 135.087 275.648C135.282 275.05 134.623 273.661 135.249 272.88L134.167 273.254L134.135 272.173C133.101 272.705 133.296 271.658 133.036 271.45C132.857 271.301 130.285 273.104 131.245 269.372C131.587 268.05 132.523 267.136 132.214 265.706C131.986 264.659 129.992 263.229 129.878 261.891C129.813 261.134 130.855 260.818 131.099 260.278C131.457 259.505 130.944 258.665 131.197 257.851C131.433 257.103 132.043 257.56 131.994 256.961L129.13 256.928C128.031 254.293 130.57 252.514 130.399 250.103C130.326 249.073 128.967 248.482 128.885 247.909C128.837 247.593 129.048 244.326 129.121 243.836C129.309 242.639 131.538 240.918 131.644 239.347C131.652 239.156 130.944 236.421 130.839 236.304C130.684 236.122 130.106 236.205 129.862 236.022C128.812 235.282 130.122 234.966 130.334 234.384C130.668 233.445 130.839 232.057 131.311 230.968C131.547 230.436 132.238 231.009 131.701 229.621L132.369 229.555C131.245 228.981 131.335 227.127 131.229 227.019C131.001 226.77 130.017 226.77 129.854 226.554C129.691 226.338 129.789 221.45 130.562 221.225C128.91 220.685 130.635 218.748 130.79 217.202C130.806 217.011 130.611 213.686 130.562 213.503C130.497 213.229 129.87 213.22 129.829 213.087C129.561 212.04 130.375 212.223 130.448 212.09C130.554 211.874 130.131 211.45 130.521 210.851C131.034 210.053 131.97 210.136 132.287 209.82C132.442 209.663 132.336 209.18 132.491 208.964C132.719 208.648 133.272 208.648 133.418 208.216C133.874 206.878 132.352 205.249 132.548 204.351C132.58 204.193 133.654 201.782 133.85 201.342C134.069 200.851 135.152 199.712 135.502 199.114C135.665 198.831 134.598 198.274 136.348 198.465L135.624 197.734L136.373 197.526L135.966 196.454L136.706 196.246L135.274 194.558L135.99 193.844C134.493 193.677 135.412 190.793 135.258 190.701C135.119 190.618 134.493 190.843 134.257 190.635C134.078 190.477 134.021 189.529 133.776 189.072C133.199 188.033 131.327 185.523 133.085 185.14L132.914 184.775C132.1 183.785 131.278 184.376 130.546 184.176C129.138 183.794 128.413 183.195 127.388 182.547C126.647 182.081 125.134 181.558 124.654 181.092C124.173 180.627 124.035 179.255 123.571 178.956C123.246 178.74 122.595 178.873 122.033 178.49C120.991 177.784 120.161 176.321 119.632 175.938C119.502 175.847 118.241 176.645 117.663 176.628C117.28 176.62 115.628 174.384 115.311 173.852C114.432 172.372 114.928 171.408 114.603 169.853C114.538 169.554 113.984 169.554 113.887 169.338C113.057 167.368 113.415 165.572 112.902 163.769C112.845 163.561 111.478 162.123 111.372 161.89C110.9 160.876 110.656 158.349 110.55 158.182C110.208 157.634 108.084 156.861 107.466 156.528C107.246 156.404 107.189 155.697 106.847 155.639C106.473 155.581 105.692 155.988 104.731 155.83C102.811 155.506 102.868 153.478 100.841 153.677L101.557 152.946C100.442 152.63 98.4811 151.349 97.9277 150.352L97.3905 151.083C96.4791 150.676 95.2665 149.521 94.3224 149.413C93.8179 149.354 93.5249 149.911 93.0285 149.97C90.9532 150.227 90.1964 146.728 88.878 145.755L89.2361 140.718L89.1872 140.809ZM83.3277 137.01C82.9696 137.01 82.8313 135.406 82.8313 135.406C82.8313 135.406 81.5455 133.802 81.3339 133.585C81.1223 133.369 82.9045 130.452 82.9045 130.452L84.2636 126.586C84.2636 126.586 85.6878 124.691 85.761 124.184C85.8343 123.677 88.9024 121.557 89.114 121.341C89.3256 121.125 93.9644 120.543 93.9644 120.543L96.8209 119.961L102.526 117.833L113.065 121.274L113.105 122.33C114.253 121.491 115.449 123.511 116.548 124.084C116.971 124.309 119.209 124.915 119.592 125.107C120.487 125.539 121.862 127.559 122.578 128.565C123.547 127.559 124.035 130.876 124.377 131.158C124.694 131.424 125.663 131.009 126.086 131.266C126.289 131.391 126.403 132.821 127.038 133.012C127.412 132.264 128.381 132.746 128.584 132.621C128.755 132.513 128.828 131.981 129.064 131.815C130.529 130.792 131.53 129.828 132.841 128.623L133.378 129.363C133.394 128.955 133.231 128.515 133.606 128.199C134.249 127.659 138.773 128.398 139.652 128.182C140.434 127.991 141.54 126.054 142.802 126.403C143.013 127.792 141.483 127.118 141.085 127.6L140.271 129.354C141.662 129.329 141.915 132.189 141.003 132.879L142.989 134.541L143.526 133.81L144.275 134.749C144.145 135.921 140.149 139.039 139.343 138.914C138.041 137.617 137.138 135.988 136.641 134.167C134.843 134.94 133.492 134.583 133.752 137.135L134.468 136.761C133.744 138.307 134.655 137.609 134.948 138.324C135.616 139.928 136.112 143.469 135.616 145.148C135.477 145.622 135.038 145.63 134.948 145.855C134.68 146.512 134.574 149.438 133.142 147.201C132.792 146.661 131.994 145.888 131.97 145.797C131.742 144.965 133.068 143.561 131.359 142.364C129.74 141.233 129.878 142.48 129.504 142.679C126.558 144.259 126.908 142.58 125.703 139.97C125.077 138.615 124.914 138.955 124.54 138.265C124.352 137.925 124.711 136.827 124.222 136.137C123.628 135.281 121.073 134.142 120.658 133.644C120.495 133.452 120.471 131.981 119.876 131.324C119.697 131.125 119.177 131.283 118.884 130.967C118.176 130.186 117.459 128.091 116.385 128.598L116.361 127.517C114.725 128.523 114.953 127.201 114.285 126.769C112.235 125.422 109.712 125.422 107.514 124.899C106.408 124.633 104.137 123.585 103.12 123.461C102.973 123.444 102.99 124.067 102.68 124.159C99.8808 125.04 97.415 125.314 94.7945 126.121C94.6073 126.179 94.6887 126.661 94.3875 126.744C93.8586 126.885 92.1007 126.661 91.531 127.11C90.9288 127.584 89.822 130.003 89.0896 130.385C88.6013 130.643 87.9665 130.368 87.7224 130.485C87.6654 130.51 87.9665 131.166 87.7956 131.815C87.4782 133.012 86.8272 133.968 86.5667 134.708C86.5667 134.708 83.6614 137.043 83.3033 137.043L83.3277 137.01ZM101.142 116.752C101.272 116.636 100.849 115.863 101.5 116.013ZM249.966 133.303C248.786 132.605 249.591 134.633 248.232 134.525L248.948 135.447L247.899 136.054L248.24 137.293L247.15 137.484L247.866 138.398L246.417 138.59L246.702 139.255C245.286 139.562 245.815 141.399 245.49 142.255C244.708 144.275 242.283 146.512 240.721 147.451C237.335 149.487 236.261 149.562 232.493 149.679C232.273 149.679 232.314 150.402 232.062 150.452C231.476 150.568 230.751 150.078 230.019 150.136C227.952 150.302 225.624 152.015 225.405 154.134L224.697 153.777C224.949 154.808 223.72 155.614 223.622 155.905C222.45 159.463 224.623 163.71 222.808 167.044L222.141 166.728C222.841 168.307 222.068 167.626 221.628 168.191C221.449 168.424 221.661 169.022 221.392 169.438C220.497 170.809 217.909 173.669 217.047 174.284C216.746 174.5 216.339 174.508 215.981 174.508L216.347 175.232L212.359 175.98L213.458 183.544L212.717 183.935C214.589 184.716 212.717 185.282 212.742 185.39C212.798 185.88 213.303 186.628 213.36 187.36C213.441 188.332 212.969 188.997 213.45 190.219C213.93 191.441 215.468 191.383 216.282 194.018C216.599 195.041 216.713 195.34 217.03 196.254C217.454 197.476 217.234 199.613 218.52 199.671L217.795 200.036L218.536 201.342C218.715 201.965 217.893 201.815 217.812 202.123C217.779 202.248 217.795 204.683 217.869 204.791C217.983 204.966 218.813 205.049 219.089 205.598C219.35 206.105 218.943 206.695 219.089 207.086C219.268 207.568 220.326 208.075 220.497 208.532C220.741 209.189 219.236 212.032 221.01 212.78L220.684 216.462L219.976 217.052C221.197 216.861 220.098 218.308 221.165 219.172C221.588 219.521 223.256 219.754 223.232 220.203C223.232 220.319 222.483 220.71 222.572 221.242C222.613 221.516 223.142 221.89 223.224 222.439C223.435 223.811 223.175 227.061 224.68 227.427L223.964 228.524L224.721 228.748L224.298 230.178L225.022 230.544C224.265 232.206 223.614 234.517 225.405 235.382L224.68 235.93L225.339 236.005C225.486 238.225 225.901 239.405 224.314 241.317C226.365 242.148 223.989 244.118 224.005 244.999C224.021 246.088 225.974 248.466 224.322 248.532V248.89C225.6 248.715 224.859 250.835 224.322 251.475L225.038 251.666C223.956 252.298 224.933 253.312 224.64 254.21C224.469 254.75 223.02 254.758 223.582 256.296L222.865 255.922C222.686 256.122 222.117 260.81 222.198 261.292C222.247 261.567 222.898 261.558 223.15 262.099C223.98 263.877 223.834 266.546 225.396 267.959C223.769 268.724 225.462 270.752 225.828 271.982C226.129 272.98 225.787 274.709 225.95 275.715C226.047 276.338 226.747 276.961 226.764 277.651C226.78 278.175 226.088 280.112 225.372 280.203L225.755 281.467H224.664C225.128 282.298 225.055 282.888 224.941 283.778C224.876 284.26 224.094 285.864 223.818 286.538C223.761 286.679 223.158 286.646 223.215 286.82C223.305 287.111 223.834 287.469 223.826 287.942C223.826 288.524 222.613 289.447 222.849 290.353L221.767 289.979L222.125 291.085C220.473 290.76 219.342 292.307 217.771 292.764C217.291 292.905 216.746 292.531 216.713 292.573C216.64 292.656 216.713 293.529 216.176 294.085C216.07 294.194 213.677 295.407 213.531 295.449C213.067 295.59 212.676 295.191 211.871 295.557C211.065 295.923 209.73 297.095 209.804 298.109L209.087 297.377C209.291 298.292 208.266 297.984 208.078 298.209C207.875 298.45 208.078 299.065 207.964 299.173C207.859 299.273 205.629 299.721 205.482 299.605C205.637 301.151 203.83 301.982 203.277 302.822C202.927 303.354 202.927 304.285 202.52 304.925C202.373 305.158 200.819 306.671 200.778 306.87C200.681 307.427 201.389 308.924 200.949 309.597H199.672C200.331 311.218 199.468 311.043 199.436 311.16C199.37 311.367 199.615 311.633 199.541 311.725C198.988 312.448 198.02 313.155 197.132 312.556C197.922 315.524 193.739 315.599 192.079 314.426C192.461 315.798 189.409 314.543 189.515 313.67H189.165C189.344 314.884 187.733 314.485 187.407 314.867L187.334 315.881L183.241 316.288L183.005 315.532L182.646 316.006C181.768 316.87 181.084 315.756 181.198 314.784L180.286 315.108C179.985 314.352 179.733 314.31 178.911 314.435L178.659 313.304L177.943 314.036L177.568 312.564L176.852 313.296C176.177 311.293 174.736 311.949 173.393 310.345C172.986 309.855 172.091 308.051 171.701 307.868C171.53 307.785 171.082 308.092 170.724 307.918C169.609 307.386 168.641 305.781 168.307 304.601C167.762 302.656 169.178 299.697 168.828 297.544L168.152 297.203C169.015 296.363 169.137 294.194 169.715 293.42C170.048 292.972 171.644 292.332 172.221 291.833C175.216 289.214 174.337 289.214 178.056 288.084C178.382 287.984 178.179 287.336 178.821 287.344C179.635 287.344 182.386 288.674 182.622 289.439C182.793 290.021 180.604 292.406 180.002 292.664C179.066 293.063 177.137 292.589 175.949 293.653C174.427 295.017 172.449 297.46 172.197 299.406C172.181 299.539 172.189 301.958 172.238 302.074C172.254 302.115 172.62 302.232 172.824 302.498C173.361 303.221 172.986 304.027 174.793 303.678C175.591 303.371 175.867 301.168 175.965 301.06C176.225 300.761 177.088 300.636 177.666 299.954C178.008 299.555 178.024 298.849 178.284 298.666C178.952 298.2 183.029 297.643 182.288 299.605L183.005 299.231C183.428 300.702 183.265 302.024 182.655 303.421C182.549 303.662 182.004 303.662 181.979 303.712C181.792 304.052 183.143 305.066 181.206 304.784L182.296 305.15L181.214 306.438C182.191 306.97 181.483 307.677 181.572 308.217C181.621 308.475 182.06 308.483 182.15 308.641C182.329 308.965 182.264 309.422 182.524 309.613C185.706 312.066 186.113 306.945 187.253 304.867C187.44 304.526 187.822 304.476 187.953 304.318C188.042 304.202 187.847 303.795 187.953 303.678C188.962 302.465 190.581 303.404 191.216 304.584L190.622 307.926L191.175 307.81L191.346 308.491L190.63 308.857C192.258 310.395 193.796 310.245 195.228 308.4C195.301 308.308 195.033 307.984 195.098 307.851C195.147 307.743 195.627 307.727 195.773 307.244C196.091 306.18 195.92 303.637 196.457 302.814C196.758 302.357 197.36 302.182 197.661 301.8C199.24 299.813 198.695 299.497 201.869 299.979L201.56 299.297C203.114 298.94 202.105 298.092 202.194 296.829C202.26 295.964 203.041 295.058 202.968 294.061C203.659 294.169 204.815 294.717 204.839 293.803L205.49 294.061L205.873 291.675L205.132 291.284L206.223 290.544C204.245 290.569 205.108 287.676 206.939 287.768L207.118 288.882L210.202 287.585L209.494 287.169C209.494 285.066 209.193 283.786 209.568 281.65C209.6 281.45 210.105 281.525 210.145 281.292C210.349 280.07 209.071 276.912 210.91 276.604C210.235 275.099 211.155 275.681 211.423 275.183C211.822 274.451 211.618 273.113 212.75 272.772C210.487 271.201 212.457 269.414 211.879 267.934C211.708 267.502 211.195 267.518 211.065 267.319C210.642 266.654 210.642 266.745 210.251 266.23C210.04 265.956 210.691 265.357 210.495 264.9C210.463 264.833 210.105 264.817 210.007 264.65C209.348 263.545 206.5 261.5 206.288 261.059C206.198 260.868 206.67 260.436 206.524 260.087C205.759 258.25 202.935 257.427 202.422 256.679C202.186 256.33 202.341 255.689 202.113 255.315C201.47 254.285 199.704 254.584 200.07 252.606C200.412 252.14 202.74 253.013 203.228 253.262C204.131 253.719 205.336 254.891 206.174 255.465C206.646 255.789 207.224 255.59 207.256 255.631C207.338 255.731 208.526 257.643 208.575 257.768C208.713 258.117 208.29 258.782 208.412 258.882C208.518 258.973 209.144 258.749 209.397 258.965C209.592 259.131 209.576 259.813 209.844 260.178C210.674 261.301 211.269 261.425 211.277 263.146L214.931 263.503C215.004 262.248 213.629 261.168 213.58 261.026C213.466 260.677 213.93 259.322 213.36 258.25C213.124 257.801 211.57 256.803 211.146 256.271C210.17 255.058 209.267 253.769 208.282 252.539C207.216 251.209 207.842 250.743 205.14 251.093L205.507 250.361L202.325 249.904L200.062 244.434L199.354 244.8C199.029 243.079 199.126 241.782 198.231 240.195L198.98 239.621C197.425 239.92 197.792 238.565 197.434 238.225C197.141 237.95 196.123 238.541 196.441 237.036L195.733 237.402C195.806 235.656 193.023 235.182 192.396 233.412C191.509 234.26 191.33 231.757 191.362 230.918C191.444 229.255 193.112 229.297 193.942 230.552C194.178 230.91 193.926 231.4 193.967 231.425C194.317 231.708 196.254 231.907 196.717 232.331C196.799 232.406 197.466 234.002 197.653 234.293C197.849 234.6 198.483 234.659 198.589 235.041C198.801 235.797 198.671 236.762 199.436 238.05C199.745 238.565 200.909 238.191 200.062 239.995C201.079 239.929 202.316 240.835 201.511 241.849C202.08 241.525 204.123 243.478 204.31 243.811C204.88 244.792 205.433 246.022 206.719 246.886C208.038 247.776 209.494 247.394 210.178 249.073L211.651 248.865C211.187 248.216 211.382 246.604 211.244 246.163C211.171 245.906 209.755 244.65 210.137 243.387C208.095 243.237 205.425 243.071 203.887 241.475C203.789 241.375 203.985 241.026 203.887 240.835C203.838 240.743 203.366 240.768 203.326 240.486C203.22 239.771 203.423 237.751 203.35 237.277C203.334 237.144 201.967 235.972 201.804 235.398C201.527 234.384 202.17 232.339 200.453 232.946L199.696 230.361C198.671 231.151 197.604 229.92 198.247 228.881L197.523 229.064C197.604 228.058 197.84 226.87 199.143 227.019C199.354 227.044 199.338 227.601 199.598 227.784C200.542 228.466 200.86 229.039 201.804 229.338L201.877 230.378L202.959 230.004C202.878 231.001 203.334 231.874 203.781 232.705C205.165 235.249 207.159 236.836 210.088 237.543L212.75 240.369C213.596 240.103 213.23 238.457 213.344 237.767C213.384 237.526 213.946 237.269 213.824 237.053C213.808 237.019 213.352 237.161 213.132 236.762C212.676 235.939 212.798 234.551 212.701 234.484C212.571 234.393 212.058 234.534 211.789 234.326C209.991 232.946 208.835 232.564 207.175 231.417C205.515 230.27 205.026 228.457 204.229 227.136C203.114 225.299 201.413 222.522 199.826 221.192C197.751 219.446 195.423 218.283 193.462 216.928C192.73 216.421 191.029 216.246 191.371 215.016C192.925 213.702 195.781 214.234 197.32 215.24C197.751 215.523 197.816 216.279 198.133 216.329C198.679 216.421 199.859 215.689 200.689 216.404C201.226 216.861 201.486 218.607 201.625 218.815C202.235 219.729 205.726 222.032 206.15 222.663C206.215 222.763 205.865 223.171 205.922 223.27C206.06 223.47 207.069 223.711 207.305 224.268L206.223 224.816C208.168 224.609 206.882 225.323 206.947 226.08C206.963 226.271 207.411 226.288 207.517 226.462C208.355 227.809 208.257 227.111 208.664 227.51C208.884 227.718 208.648 228.299 208.974 228.557C210.031 229.38 212.742 229.014 212.75 227.601C212.75 227.452 210.821 225.989 211.293 225.191C210.666 226.088 209.071 224.268 208.656 223.619C207.606 221.957 207.826 219.787 207.663 219.663C207.541 219.571 206.955 219.804 206.679 219.563C206.003 218.989 205.954 216.811 205.531 216.105C204.807 214.908 201.649 214.6 202.968 212.622C201.69 212.589 199.509 212.422 199.688 210.776C198.679 210.677 193.95 210.103 193.275 209.796C192.803 209.579 192.778 209.039 192.469 208.798C192.233 208.615 190.776 208.582 191.045 207.293C191.249 206.321 195.887 205.822 196.807 206.113C197.474 206.329 203.366 209.089 203.619 209.388C203.798 209.613 203.684 210.095 203.7 210.394C205.067 209.804 206.084 212.298 207.118 213.004C207.81 213.478 208.868 213.046 208.786 214.077C209.844 213.486 210.845 212.863 210.959 211.516L211.659 211.882L211.846 210.386C211.032 208.914 207.826 209.455 207.696 209.272C207.598 209.147 207.818 208.54 207.598 208.266C207.46 208.1 206.915 208.199 206.752 208.042C204.807 206.088 205.694 207.135 203.985 206.321C203.326 206.005 201.722 203.943 201.633 203.137C201.397 201.134 202.935 201.408 204.27 200.801L204.782 201.516C204.815 200.652 204.392 199.521 205.507 199.662C203.749 198.698 205.075 196.878 203.008 196.188C202.032 195.864 199.191 195.348 198.654 195.049C195.855 193.478 193.723 190.319 190.329 189.513C189.849 189.396 189.36 189.754 188.872 189.671C188.579 188.923 188.254 187.576 189.124 187.077C190.068 186.537 195.309 187.26 196.603 187.418L197.173 185.606C195.847 186.545 195.423 184.425 194.903 184.226C194.504 184.068 193.877 184.409 193.128 184.11C192.689 183.935 191.533 182.622 191.151 182.347C190.532 181.898 189.58 181.408 188.84 181.167C189.499 180.095 189.824 179.421 188.84 178.39L189.556 177.842C188.441 177.36 188.595 178.706 187.977 178.548C186.61 178.191 186.952 177.252 186.545 176.828C186.382 176.661 185.869 176.803 185.552 176.487C185.153 176.088 184.071 173.012 183.908 172.297C183.485 170.385 183.558 165.024 186.105 165.024C187.708 165.024 186.984 166.429 187.155 167.102C187.83 169.695 188.954 171.516 189.662 173.486C190.077 174.641 190.223 175.531 190.077 176.753L191.192 177.06L191.362 178.582C192.73 177.784 193.137 179.222 193.405 179.297C193.674 179.371 194.601 179.055 195.155 179.13C195.814 179.222 196.392 179.853 197.157 179.687V178.573L196.441 178.947C196.18 178.041 195.904 177.06 195.594 176.179C195.285 175.298 195.147 174.883 194.829 173.727C194.512 172.572 193.487 171.848 194.138 170.427C194.78 170.094 195.529 167.684 196.245 167.833C196.473 167.875 198.483 171.183 198.768 171.749C199.118 172.439 199.346 173.652 199.68 174.226C199.908 174.617 202.805 178.008 203.041 178.091C204.351 178.523 206.223 177.875 207.655 178.573L206.898 177.617L207.297 176.354L205.482 175.98L205.848 174.874C204.278 175.323 204.62 173.178 203.912 172.38C203.659 172.098 201.568 171.624 202.178 170.46L201.128 170.427C202.015 169.097 200.827 169.421 200.778 169.097C200.526 167.459 201.478 163.444 202.577 162.098L203.627 163.336C203.903 165.373 205.751 166.761 206.841 168.291C206.898 168.365 206.272 169.047 207.655 169.513L206.931 169.878C207.639 170.169 207.793 170.336 207.663 171.175L208.583 170.843L208.917 171.549C209.836 171.059 210.601 170.369 211.643 170.801L211.285 169.687C212.603 170.826 211.675 168.241 211.448 167.85C211.374 167.725 209.82 165.78 209.657 165.589C209.38 165.273 208.868 165.614 208.811 165.547C208.713 165.439 207.378 163.228 207.313 163.095C206.89 162.214 207.029 159.895 206.605 158.814C208.152 157.31 209.397 158.748 210.308 160.078C211.057 161.158 210.796 160.493 211.488 161.158C212.652 162.272 213.58 163.536 215.085 164.517C216.68 165.556 217.258 161.682 217.087 161.557C216.973 161.474 216.363 161.715 216.078 161.466C215.924 161.333 216.029 160.793 215.867 160.593C215.362 159.97 214.434 159.529 214.524 158.415L215.273 157.85L214.646 157.783C213.637 156.437 217.177 155.905 218.162 156.362C218.878 154.409 217.803 154.907 217.519 154.45C216.908 153.469 218.471 151.399 218.552 150.46C219.724 150.892 220.798 149.72 222.157 150.443C221.938 148.789 222.621 148.108 220.766 147.783C221.189 146.113 219.569 146.295 219.309 145.373C218.821 143.619 220.473 141.856 222.263 142.364C223.492 142.713 222.817 143.719 222.89 143.768C223.175 143.951 224.55 143.802 225.095 144.001C225.755 144.242 226.218 144.857 226.869 145.082C227.96 145.464 229.107 145.281 230.1 145.988C230.288 144.483 232.403 145.173 231.964 143.253C231.866 142.821 230.939 142.954 230.58 142.58C230.328 142.314 230.336 141.715 230.084 141.416C228.912 140.011 228.009 140.103 229.653 137.825C230.361 137.999 231.435 137.825 232.07 137.991C234.495 138.615 235.211 141.391 237.384 142.447C237.815 142.654 238.548 141.815 238.491 143.012C238.914 142.58 240.07 142.388 240.306 142.056C240.647 141.574 240.517 137.276 240.208 136.653C239.614 135.464 235.504 133.087 235.984 131.748L236.619 131.399L236.294 130.46H237.384L237.018 131.191C238.808 130.119 239.793 132.704 240.33 132.987C240.46 133.053 241.827 132.397 242.088 132.671C242.259 132.854 241.738 133.901 242.454 133.785C242.259 132.38 243.219 133.494 243.496 133.361C243.545 133.336 243.504 132.762 244 132.563C244.31 132.438 244.928 132.696 244.961 132.646C245.156 132.297 244.749 131.64 245.709 131.399L244.269 129.163L244.993 128.797C243.309 127.151 242.031 126.42 242.845 123.826C244.546 123.411 245.164 124.633 246.8 124.55L246.434 125.281L248.615 126.029L248.249 126.761M118.46 271.567C118.216 271.434 114.481 272.523 115.27 273.703L114.554 273.329C114.725 274.717 114.074 276.396 113.464 277.593L114.188 278.009V279.256L113.464 278.882L113.447 279.804C114.855 280.22 114.09 281.01 114.359 281.459C115.335 283.088 116.995 282.456 116.751 280.395L121.179 279.987C121.594 280.104 122.009 281.708 122.757 282.19C122.871 282.265 125.329 282.689 125.419 282.581C125.492 282.498 125.272 281.824 125.492 281.567C125.712 281.309 126.68 281.459 127.03 280.744C127.201 280.395 126.794 279.181 127.583 278.691L126.509 278.508L126.875 277.402H125.785L126.151 276.288C125.101 276.504 125.012 275.922 124.515 275.174L123.994 275.199C123.653 277.186 123.246 275.299 122.741 274.784C121.903 273.936 120.194 273.204 120.348 271.841C118.827 272.697 118.745 271.708 118.469 271.567H118.46Z" fill="black"/>
<path d="M199.287 51.2823L199.475 51.939C201.118 50.9332 200.996 52.1219 201.615 52.5874C201.916 52.8119 202.453 52.7371 202.754 53.0862C203.381 53.8094 202.876 54.649 202.974 55.0646C203.007 55.2142 204.455 56.2949 203.674 57.5168L204.756 57.5334L204.398 59.3788L205.114 58.639C204.83 59.8859 205.603 60.7421 205.814 61.8144C205.912 62.3049 205.554 62.9616 205.774 63.6681C206.026 64.4662 207.36 64.5493 205.863 66.6025C207.889 67.2758 209.306 70.6424 208.5 72.6292C208.321 73.078 207.743 73.0863 207.727 73.1279C207.507 73.7597 208.077 76.4114 207.442 76.1121L206.929 77.3258L207.653 77.6915L206.929 78.9883L207.645 78.6142C207.792 79.4871 207.914 80.7007 208.272 81.4904C208.63 82.2801 210.005 83.0615 210.087 84.7822C210.168 86.5029 207.653 88.8138 209.843 91.0167C209.362 90.9917 208.89 92.5379 208.833 92.9452C208.744 93.6435 209.59 94.3916 209.46 94.5329C209.346 94.6659 208.597 94.2253 208.736 94.907L209.46 95.0899L208.736 96.0126C209.924 96.0292 210.665 100.119 210.477 100.934C210.331 101.574 209.598 102.156 209.598 102.496C209.598 102.696 210.038 103.012 210.014 103.228C209.737 105.215 209.167 104.699 210.901 106.57L209.542 107.659L210.453 109.903L209.118 110.859L209.452 111.94L208.785 111.615C208.443 112.056 208.158 113.444 207.906 113.685C207.605 113.968 206.84 113.727 206.612 114.392C206.01 116.121 207.027 119.429 205.481 121.017C206.888 121.383 205.481 123.27 205.464 124.334C205.448 125.456 206.156 127.301 207.45 127.135C208.288 125.83 210.144 125.098 211.356 124.142C212.317 123.386 212.984 121.989 214.213 121.408C215.442 120.826 216.939 121.1 217.802 120.626C218.339 120.335 218.306 119.562 218.803 119.346C220.317 118.681 222.262 119.196 223.336 118.972C223.482 118.939 223.596 118.349 224.63 118.066C226.282 117.625 229.203 118.423 230.302 118.166C230.449 118.132 230.53 116.869 231.197 117.492C231.336 117.617 230.652 118.008 231.051 118.224C231.995 118.723 236.756 119.853 236.927 120.144C237.195 120.585 237.22 123.153 236.17 122.954C232.996 122.846 229.887 122.779 226.729 122.538C226.331 122.505 225.883 122.106 225.273 122.056C223.84 121.94 222.237 123.344 222.131 121.566C221.61 121.391 221.863 123.012 221.049 122.305C220.829 122.106 222.115 120.925 220.691 121.2C220.707 121.782 220.585 122.297 220.154 122.721C219.617 123.253 216.158 124.292 215.344 124.625C214.701 124.882 213.261 128.182 211.983 127.127L212.349 127.858L210.941 127.908C210.876 129.487 209.883 129.138 209.314 129.753C207.816 131.366 207.173 133.436 206.343 134.542C205.953 135.065 205.147 135.024 204.821 135.356C204.39 135.797 204.268 137.268 203.975 137.95C203.682 138.631 202.754 139.155 202.339 139.679C201.843 140.311 201.338 142.314 200.199 141.94L199.841 141.192C199.182 142.555 198.425 141.067 198.221 141.192C198.197 141.208 198.286 141.641 198.075 141.782C197.822 141.956 197.367 141.873 197.245 142.023C196.765 142.563 195.324 144.201 194.99 144.816C194.616 145.514 194.38 148.216 192.769 147.243V145.996L190.604 145.988L190.97 142.306C189.896 142.148 187.731 141.915 186.86 142.638C186.372 143.045 186.746 144.45 185.176 144.151L185.9 144.7L182.14 148.939C181.75 148.873 180.993 147.767 180.976 147.301C180.96 147.019 182.254 144.359 182.376 144.242C182.661 143.96 183.426 144.076 183.841 143.777C184.484 143.328 185.509 142.222 186.266 141.732C186.396 141.424 185.574 141.832 185.501 141.017C185.135 136.828 188.7 138.881 190.026 137.451C190.97 136.429 191.125 135.115 189.513 135.074C189.391 133.328 187.218 133.037 186.071 132.314C185.55 131.99 182.515 130.152 182.376 129.978C182.075 129.612 182.653 128.623 181.196 128.964V127.858C182.156 128.249 182.213 127.068 182.783 127.102C184.224 127.193 185.705 128.748 187.316 128.656L187.357 129.712C188.675 128.881 188.504 130.044 189.017 130.418C189.562 130.817 191.222 131.773 191.532 132.305C191.76 132.696 191.369 133.137 191.458 133.328C191.613 133.669 193.469 134.633 193.517 134.517L193.574 133.461L194.6 133.394C194.136 132.663 194.266 130.61 194.055 130.086C193.916 129.753 193.403 129.479 193.192 129.088C192.94 128.615 192.883 127.742 192.704 127.559C192.492 127.343 191.8 127.409 191.45 127.193C190.962 126.894 190.636 126.428 190.221 126.204C189.619 125.871 188.626 126.295 188.797 125.265L187.902 126.004C187.503 124.425 185.892 125.605 184.923 125.531C184.411 125.489 184.077 125.032 183.638 125.007C182.295 124.924 180.464 124.708 179.194 125.09C178.706 125.24 175.182 128.199 175.133 128.457C175.084 128.714 175.304 129.072 175.402 129.321C173.904 129.255 172.846 130.626 171.406 130.069L171.772 130.801C167.972 131.258 165.286 131.1 161.835 129.28C161.445 129.072 161.323 128.399 161.184 128.324C161.078 128.266 159.142 127.709 158.897 127.659C157.929 127.459 156.7 128.199 155.748 128.615C155.479 128.731 155.463 129.246 155.203 129.305C154.169 129.546 152.712 129.147 151.63 129.288C150.995 129.371 151.15 129.903 150.824 130.028C148.676 130.834 147.626 129.18 145.673 128.939L146.039 128.207C145.901 128.099 145.364 128.49 144.94 128.357C144.721 128.282 142.922 127.359 143.142 126.911C145.217 125.522 144.786 123.777 147.748 124.799C148.399 125.024 150.084 125.93 150.035 126.728C152.2 125.747 153.795 125.522 155.463 123.577C155.829 123.145 155.65 122.139 156.537 122.28L155.821 121.549L156.554 121.358C156.391 119.404 152.379 117.476 154.21 115.63C154.283 115.556 155.886 114.475 155.992 114.492C156.782 114.633 157.05 115.464 157.498 115.556C158.222 115.705 158.865 114.666 160.053 115.148C161.241 115.63 161.713 116.603 161.258 117.841L161.624 117.102L162.34 117.659C160.647 118.673 160.029 120.127 160.143 122.131C160.191 122.937 162.478 125.672 163.439 124.874L163.072 125.605C163.569 125.888 164.749 125.556 165.017 125.63C165.636 125.822 167.353 126.52 167.963 126.645C168.077 126.669 170.169 126.719 170.267 126.645C170.437 126.52 170.494 125.689 171.056 125.406C171.544 125.157 172.464 125.971 172.505 124.492L172.895 125.19L174.677 124.857L173.628 122.896C174.938 118.398 179.609 118.324 183.109 116.728C183.377 116.603 183.385 115.921 184.069 115.747C185.558 115.373 186.559 116.545 188.089 115.963L187.723 115.231L189.017 115.572L189.237 114.965L189.888 115.231L189.473 112.688L188.081 112.638L188.423 110.219C189.733 110.219 190.97 110.535 191.882 109.304L192.419 110.036L192.468 109.379C193.68 109.554 196.065 109.338 196.976 108.565C197.619 108.024 197.285 107.01 198.946 107.442L198.579 106.337C197.855 106.378 198.612 107.417 197.497 107.068L197.294 106.312C194.803 107.135 192.557 104.184 191.003 102.397L191.694 100.584C192.761 99.9278 194.836 101.682 193.875 99.3043L195.69 100.036L194.966 98.9303L196.048 98.5645L195.397 98.3816C196.032 96.2952 193.851 96.6609 192.883 96.2287C192.761 96.1788 192.728 95.7299 192.516 95.6052C190.531 94.4498 187.78 93.4606 188.04 90.5927C188.154 89.3625 189.196 89.03 188.919 87.9077C188.415 85.813 184.777 82.4796 184.769 80.9667C184.769 80.2851 185.404 80.4929 185.452 80.2435C186.087 77.1013 186.51 74.1836 187.829 71.2991C188.187 70.5261 188.569 69.196 188.773 68.8137C188.976 68.4313 189.578 68.6973 189.782 68.4812C190.116 68.1237 190.164 67.9491 190.807 67.3257C192.256 65.9126 192.451 64.3165 192.85 63.8427C193.021 63.6432 193.794 63.7513 194.25 63.2276C194.518 62.9117 195.259 61.1577 195.446 60.8917C196.227 59.7862 198.962 58.8884 195.658 58.1984L196.024 57.0929C195.088 56.2782 192.061 61.2741 191.231 61.7895C191.1 61.8726 190.636 61.4986 190.612 61.5318C190.335 63.8593 186.429 63.6681 187.324 66.6939C185.404 66.2534 185.314 68.4645 184.069 68.9383L184.785 69.6699C183.703 69.5701 184.028 70.8586 183.678 71.6067C183.125 72.7954 182.661 72.8037 182.458 74.7987C182.279 76.586 183.312 81.8395 180.692 81.773C179.691 81.7481 179.064 79.3042 179.137 78.3482C179.194 77.6001 179.975 77.0432 179.691 76.187C179.569 75.8212 178.397 75.4721 178.413 74.4496C175.377 73.3108 177.16 74.8736 176.443 76.4031C176.167 76.9933 174.856 77.6084 174.653 79.113L175.735 79.2959C175.548 80.9667 174.075 82.4796 172.456 81.3823C171.569 80.0939 172.553 77.9991 172.716 76.5943C172.846 75.5219 171.959 74.5826 173.196 74.3083C172.399 73.6932 172.399 73.4438 173.196 72.8203L172.456 72.4463C173.994 69.0797 172.741 68.664 169.575 69.6782C170.568 70.8586 169.876 72.7206 169.786 74.1587C169.713 75.2975 170.413 77.0598 169.209 77.2676L169.892 77.492L168.85 80.4098L168.134 79.6783C167.117 82.172 166.352 80.3349 166.116 78.6807C165.75 76.0789 166.132 72.5876 166.116 70.2351C166.116 70.019 167.239 68.7472 165.498 68.664C163.756 68.5809 164.399 69.6532 164.033 70.3016C163.854 70.6258 162.893 71.507 162.698 72.0888L163.414 72.6375C162.014 72.6707 162.722 73.9758 162.625 74.9401C162.527 75.9043 161.534 76.5195 162.69 77.2676L161.966 77.6334L162.706 78.024C162.063 79.1629 163.373 81.8977 161.331 81.6567C159.044 81.3907 159.003 77.4671 158.686 75.5136C158.132 75.5303 157.937 73.477 157.27 74.1171C157.172 74.2086 156.293 76.2701 156.236 76.5111C155.919 77.9575 157.758 80.8753 156.033 82.2884C154.714 83.3691 152.403 81.7065 153.282 80.4015L152.216 80.3765L152.183 79.1462L152.916 78.7389C151.964 76.6192 151.101 77.9077 149.498 77.7664C147.895 77.625 148.391 76.9102 147.797 76.187C146.601 74.7322 143.874 71.4238 143.207 69.9442C143.142 69.7946 143.191 67.2675 143.004 66.7937C142.93 66.6025 140.7 63.5518 140.505 63.4853C139.919 63.2941 138.991 63.4853 138.82 63.319C138.707 63.211 138.902 62.6041 138.698 62.3548C138.56 62.1802 138.015 62.2799 137.852 62.1137C135.459 59.7363 134.898 59.4869 132.172 58.0488C131.244 57.5584 129.559 56.7687 128.518 57.1095C127.02 57.5999 127.533 62.6457 128.469 63.7346C128.908 64.25 129.567 64.2085 129.86 64.4578C130.251 64.7904 129.901 65.7796 130.813 65.5967L130.088 65.9624L130.813 68.1819L130.096 67.8078C130.471 69.3374 129.307 68.7056 128.973 69.1462C128.387 69.9192 126.922 74.9151 128.2 75.3973C127.866 77.6666 128.672 80.3765 129.73 82.438L129.014 82.9867C130.324 82.9617 130.007 85.3724 130.357 86.2203C130.764 87.2095 132.115 87.0599 132.155 88.8803C132.245 93.3775 129.543 94.2087 125.742 93.3442C125.661 93.2528 125.987 92.6958 125.913 92.4547C125.181 89.8113 126.092 87.1347 126.052 84.3333C126.027 82.6459 125.555 76.9517 125.148 75.2726C124.945 74.433 124.318 74.3914 124.326 74.3083C124.424 73.3191 125.433 72.5876 124.302 71.5236L125.034 70.9749C124.448 69.6366 124.229 67.7995 124.123 66.3116C124.074 65.6299 124.481 64.7155 124.448 63.9092C124.367 61.9142 122.756 58.8468 123.211 56.1785C123.285 55.7628 124.562 53.2691 124.912 53.0446C125.262 52.8202 127.696 52.5376 128.119 52.5874C128.29 52.6041 128.452 52.5874 128.574 52.7371L128.656 53.3688C128.827 53.4852 129.567 52.0887 130.454 53.3688L131.545 52.2632L131.187 53.3688C131.35 53.4935 134.572 53.3854 135.272 53.5184C136.745 53.7928 140.383 54.7321 141.823 55.2308C143.834 55.9208 144.753 57.2342 146.609 57.7994L146.413 58.8967C147.911 58.6972 148.163 60.393 148.684 61.0081C149.929 62.4628 150.344 62.8618 152.013 63.7346C152.851 64.1752 154.015 66.2949 154.739 63.7346C155.113 64.2417 157.018 64.5077 157.449 64.3332C158.051 64.0921 158.287 63.3855 158.71 63.2026C160.069 62.6041 159.5 63.0613 160.899 62.0888C161.38 61.7562 163.528 62.0721 163.968 60.7837L164.326 61.5235C165.107 60.4761 168.728 59.7363 169.697 60.4013C170.226 60.7587 169.485 61.7646 171.211 60.4179L171.788 61.4819C173.221 60.4429 173.953 62.0638 174.873 62.1553C175.361 62.2051 175.906 61.8144 176.557 61.9391C177.16 62.0472 179.625 63.3523 179.878 64.0588C180.683 63.5185 181.896 63.9923 182.612 63.5351C182.905 63.3523 186.339 60.5094 186.478 60.2849C186.738 59.8693 186.519 59.0214 186.934 58.7055C187.495 58.2649 188.398 59.0463 189.269 58.5226C190.693 57.6664 192.712 53.7096 193.867 53.1776C194.258 52.9947 194.722 53.3605 194.868 53.2774C194.974 53.2109 196.504 51.5234 196.626 51.5151C197.481 51.4486 198.018 52.0305 199.247 51.1992L199.287 51.2823ZM201.265 64.782C201.053 64.4163 201.281 63.8926 200.948 63.8178C199.564 64.5493 200.183 65.9042 200.02 66.536C199.947 66.8103 199.369 66.7355 199.328 67.0015C199.279 67.3423 199.556 68.4396 199.483 69.1794C199.418 69.7862 198.856 70.3266 198.929 70.9749C198.954 71.1828 199.434 71.2077 199.523 71.3739C199.711 71.6981 199.621 72.1387 199.898 72.3631C200.15 72.5627 200.744 72.4962 201.045 72.7788C201.127 72.8536 201.68 74.8071 201.647 74.9068C201.566 75.1645 201.151 75.4305 201.029 75.7796C200.907 76.1288 201.07 76.5028 200.98 76.6857C200.915 76.8187 199.751 77.4505 199.938 78.5644C198.205 78.6309 199.287 78.7971 199.287 79.5037C199.287 79.645 198.172 79.9775 198.563 80.842L197.847 80.468C197.912 81.4405 198.091 81.8645 197.114 82.1388L197.839 82.5045C196.61 82.8454 197.041 83.6849 196.789 83.9925C195.91 85.0482 193.9 85.9127 193.819 87.4422L192.402 87.5004L192.679 88.1821C191.263 88.0241 193.379 90.3849 194.217 90.6758C195.056 90.9668 199.491 90.2685 199.922 89.6368C200.223 89.1879 200.134 87.7415 200.41 87.0599C201.94 83.2859 203.902 80.5012 203.861 75.8544C203.861 75.0315 203.332 74.6824 203.267 74.3499C203.243 74.2169 203.812 74.2335 204.056 73.6516C204.26 73.1695 204.48 69.7779 203.609 69.8943C204.471 68.4313 203.462 68.7887 203.291 68.3398C203.031 67.625 202.673 66.3697 202.893 65.6632C201.216 66.3448 202.119 65.8128 201.77 65.2475C201.59 64.9483 201.289 64.8901 201.224 64.7737L201.265 64.782ZM189.44 118.864C188.577 119.13 187.943 118.349 187.34 118.415C185.892 118.581 183.809 119.853 182.319 120.294C181.627 120.493 179.121 120.202 179.398 121.374C179.682 121.807 180.097 121.915 180.553 122.039C182.287 122.538 186.616 122.264 187.869 122.763C188.398 122.97 188.439 123.926 189.147 123.993C189.652 124.043 189.945 123.394 190.71 123.469C191.475 123.544 192.134 124.192 192.793 124.533V123.419L194.063 124.159L194.413 123.477L196.268 123.436L196.781 121.566C195.576 122.247 195.951 120.967 195.576 120.576C195.348 120.344 193.346 118.872 193.176 118.822C192.752 118.706 192.264 119.022 191.914 118.93C191.353 118.789 190.27 118.166 189.717 118.307C189.497 118.365 189.538 118.831 189.44 118.856V118.864Z" fill="black"/>
<path d="M178.598 94.6329C178.688 94.6745 178.655 95.1234 178.737 95.1732C178.94 95.2813 179.412 94.8574 179.746 95.0735C180.364 95.4725 180.055 96.7942 181.561 96.0295L181.194 97.135C182.83 96.7942 182.22 98.598 183.367 98.623L182.651 99.3545L184.075 99.3961L184.116 100.427L185.548 100.468C184.84 101.815 186.932 102.372 187.013 103.236C187.217 105.323 183.05 106.852 181.732 108.224C181.137 107.077 180.128 107.343 180.828 106.021L180.161 106.345C179.127 103.993 178.078 105.647 178.362 107.609C178.509 108.648 180.324 109.172 179.713 110.801L175.392 111.05C174.83 110.552 175.123 109.23 174.7 108.498C174.358 107.916 172.43 107.127 172.576 105.522C172.609 105.165 174.985 101.291 175.392 100.984C176.132 100.427 176.466 100.867 176.604 100.793C176.979 100.601 177.182 99.8366 177.931 99.9114C177.752 98.9472 175.978 98.332 175.148 98.3237C174.676 98.3237 174.366 98.8557 174.13 98.8474C173.862 98.8474 173.553 98.2572 173.113 98.3071C171.803 98.4484 171.282 101.192 169.972 100.094C170.655 101.499 169.817 101.092 169.711 101.391C169.288 102.63 168.849 103.037 168.564 103.727C168.068 104.932 168.043 108.706 166.074 107.991C165.992 107.958 164.788 106.828 164.747 106.744C164.08 105.356 164.381 103.261 164.926 101.873C165.764 99.7784 168.629 96.2123 170.712 95.0984C171.071 94.9072 171.494 95.2564 171.697 95.1649C171.77 95.1317 171.819 94.6662 172.047 94.5747C174.196 93.785 175.49 94.5498 177.378 94.8657C177.728 94.9239 178.175 94.4334 178.582 94.6246L178.598 94.6329Z" fill="black"/>
<path d="M149.684 97.8662L149.139 98.2485C150.514 98.6891 149.758 98.8886 149.684 100.094C150.807 99.9609 151.052 99.9776 151.499 101.025L150.417 100.468L150.401 101.382L151.166 101.798L150.807 102.895L151.515 103.269L151.133 104.167L152.223 104.184C151.865 105.963 153.281 107.675 151.979 109.396C149.668 109.03 147.446 112.779 145.754 110.609C146.112 108.481 147.747 107.833 146.592 105.622C143.516 104.716 142.1 106.453 140.789 109.005C137.225 107.742 139.487 105.705 138.804 102.92L139.512 102.521L139.186 101.582C140.627 102.313 140.871 100.659 142.083 100.834L141.717 99.7282L143.687 99.3707L143.874 98.6226C142.58 97.6583 141.855 97.4505 140.203 97.5835C138.315 97.7332 137.274 99.6451 134.832 99.3541C134.515 98.3649 135.337 98.7224 135.459 98.5561C135.516 98.4813 135.174 97.7747 135.581 97.01C135.727 96.7439 137.249 95.2227 137.51 95.0648C139.227 94.0091 142.059 93.3857 143.939 93.9343C144.744 94.167 147.52 95.4139 148.252 95.8462C148.366 95.9127 148.805 97.5586 149.684 97.8745V97.8662Z" fill="black"/>
<path d="M131.335 111.441C132.157 112.796 133.451 115.123 134.956 115.88C137.129 116.969 137.235 116.121 138.627 116.187C140.767 116.295 142.842 116.861 144.975 116.902C145.617 116.969 146.7 118.473 146.399 118.93C142.704 121.25 138.602 119.462 134.737 118.506C134.411 118.423 134.134 118.116 133.923 117.858C133.622 119.08 133.19 118.232 132.645 118.448C132.36 118.565 132.149 119.047 131.766 119.171C131.058 119.413 129.634 118.856 129.74 120.069C129.024 119.038 128.047 119.795 127.665 119.629C127.583 119.595 127.567 119.213 127.437 119.13C126.314 118.482 125.882 118.299 126.11 116.595C126.167 116.146 130.35 115.506 127.217 113.968L127.941 113.785C128.096 113.178 127.315 113.61 127.209 113.178C126.737 111.225 127.543 108.947 129.756 109.712L129.927 108.98C131.595 109.496 130.733 110.468 131.319 111.441H131.335Z" fill="black"/>
<path d="M176.501 134.891C176.558 134.982 177.786 134.234 177.909 135.888C177.949 136.437 175.182 138.573 174.686 138.748C173.905 139.031 173.734 137.833 173.384 139.729C172.562 140.394 171.968 139.213 171.789 139.338C171.162 141.167 168.289 141.175 166.881 142.688C166.263 142.871 166.442 142.048 166.108 141.957C165.905 141.907 165.587 142.272 165.066 141.957C164.375 141.549 163.536 140.178 163.423 139.346L162.739 139.696C162.885 138.64 161.901 138.39 161.673 137.925C160.713 135.955 163.121 134.617 164.749 135.406C165.123 135.589 165.107 136.154 165.547 136.354C166.474 136.786 168.126 136.786 169.111 136.429C169.274 136.37 171.675 134.633 172.008 134.375C172.342 134.118 173.327 132.696 173.498 132.663C173.717 132.621 176.379 132.746 176.501 132.829C177.323 133.411 176.313 134.583 176.501 134.883V134.891Z" fill="black"/>
<path d="M146.796 121.2L147.089 122.871C145.6 124.741 145.364 123.486 144.078 123.378C143.142 123.303 142.312 123.827 141.555 123.777C140.172 123.694 140.188 123.727 139.008 123.735C138.398 123.735 136.925 123.353 136.453 123.536C135.769 123.793 136.656 126.054 133.157 126.345C131.895 126.453 127.932 126.246 127.607 124.675C127.411 123.727 128.892 123.611 129.283 123.295C129.576 123.062 129.641 122.48 129.91 122.28C130.976 121.474 134.337 122.413 136.111 122.131C137.885 121.848 140.994 120.593 142.63 120.66C144.013 120.718 145.356 121.408 146.788 121.2H146.796Z" fill="black"/>
<path d="M135.435 67.3174C136.469 67.7746 137.69 68.9883 137.755 70.4845L138.837 70.285C139.854 73.0365 144.347 75.788 142.076 78.8138L142.8 79.7365C140.457 79.7199 139.976 77.9825 138.829 76.6608C138.528 76.32 138.015 76.5611 137.73 76.1454C136.851 74.8736 136.184 72.7456 135.533 71.5153C135.037 70.576 133.23 69.9442 134.434 68.0573C133.686 67.758 133.637 67.6666 133.743 66.7937C134.499 66.5859 134.915 67.1013 135.427 67.3257L135.435 67.3174Z" fill="black"/>
<path d="M205.627 264.31C208.419 266.338 208.866 267.303 210.217 270.445C210.348 270.736 210.909 270.744 210.917 270.952C210.934 271.309 210.291 272.947 210.006 272.947C209.518 272.323 208.753 272.132 208.142 271.692C207.605 271.301 206.799 270.395 206.295 269.996C205.53 269.381 204.594 269.431 204.333 267.818L203.674 268.142C203.406 267.328 203.259 265.449 202.584 265.033C202.421 264.933 201.965 265.199 201.9 265.116C201.819 265.017 201.892 264.551 201.713 264.227C201.534 263.903 200.728 263.853 201.127 262.598C202.502 262.523 203.65 262.756 204.854 263.429C205.253 263.653 205.351 264.119 205.627 264.318V264.31Z" fill="black"/>
<path d="M157.223 254.95C157.304 254.992 157.263 255.457 157.475 255.499C157.768 255.557 158.549 255.091 159.119 255.424C160.104 255.989 160.567 258.026 162.374 257.793C161.837 259.09 161.389 260.711 163.098 261.126L162.374 261.492C163.164 262.88 163.326 262.922 161.829 263.703C161.227 263.47 161.666 262.731 161.577 262.664C161.365 262.498 160.738 262.564 160.38 262.248C159.713 261.658 156.775 259.414 156.661 259.198C156.393 258.699 156.71 257.893 156.58 257.302C156.523 257.028 156.018 257.045 155.978 256.953C155.514 255.948 155.994 254.318 157.231 254.958L157.223 254.95Z" fill="black"/>
<path d="M194.297 195.93C194.42 196.013 195.738 195.556 196.43 195.739C197.952 196.13 197.39 198.15 197.878 199.43C194.867 202.971 192.637 198.075 189.903 196.712L190.578 196.321L190.407 194.858C191.107 194.193 192.45 193.993 193.28 194.525C194.029 194.999 194.159 195.847 194.289 195.939L194.297 195.93Z" fill="black"/>
<path d="M134.466 75.6714C135.785 77.7911 138.601 79.4536 140.83 80.4595V82.3631C140.635 82.7205 139.243 82.4961 138.739 82.7205C138.356 82.8868 138.568 83.5518 137.925 83.4603C136.9 83.3107 137.022 82.5127 136.525 82.0804C135.418 81.1328 134.8 81.0829 133.937 79.3373C133.775 79.0048 134.076 78.6058 133.978 78.3231C133.954 78.24 133.53 78.2982 133.473 78.0654C133.197 76.8102 134.377 76.8352 133.742 75.846L134.466 75.6631V75.6714Z" fill="black"/>
<path d="M181.855 195.332C182.807 195.864 182.002 195.407 183.157 195.614C184.972 195.93 184.866 196.288 185.94 197.211C186.526 197.718 187.527 197.344 187.373 198.723C187.251 199.821 185.2 200.851 184.272 200.619C182.84 200.261 180.122 197.726 179.853 196.13C180.17 195.54 181.253 194.999 181.847 195.332H181.855Z" fill="black"/>
<path d="M172.872 200.411C173.572 201.649 174.377 203.245 175.777 203.736L175.061 204.467L176.094 205.706C175.883 206.87 173.189 207.236 172.408 207.019C171.187 206.679 170.072 203.728 170.349 202.514C170.406 202.256 170.829 202.256 170.935 202.09C171.374 201.367 170.691 200.843 172.53 201.134L172.164 200.403H172.888L172.872 200.411Z" fill="black"/>
<path d="M190.427 238.341C190.768 238.632 192.526 240.552 192.6 240.744C192.722 241.034 192.42 241.492 192.477 241.625C192.616 241.949 193.047 241.874 193.08 242.04C193.202 242.672 193.039 243.744 193.161 244.451C192.469 244.052 191.843 244.534 191.167 244.118C189.531 243.113 188.278 241.334 187.595 239.729C187.546 239.613 186.675 239.688 187.009 238.715L190.101 237.826C190.28 237.818 190.264 238.2 190.418 238.333L190.427 238.341Z" fill="black"/>
<path d="M141.693 150.843L141.384 151.865C144.126 152.522 142.743 156.836 140.806 156.936C140.131 156.969 138.495 155.298 138.446 154.999C138.299 154.068 138.959 153.644 139.032 153.021C139.17 151.89 138.454 150.618 139.732 149.696L141.693 150.843Z" fill="black"/>
<path d="M157.839 138.398C157.449 138.739 157.4 139.163 156.57 138.964L156.936 139.695C155.683 140.186 155.471 139.088 155.382 139.055C155.032 138.922 154.763 139.28 154.21 138.989C152.769 138.215 151.825 136.777 153.778 135.888C154.348 135.63 154.967 135.988 155.064 135.921C155.227 135.813 155.186 135.223 155.642 135.032C158.149 134.001 159.841 136.653 157.831 138.398H157.839Z" fill="black"/>
<path d="M131.311 101.731C131.213 101.773 131.311 102.272 130.692 102.347C127.958 102.662 128.82 101.158 126.916 99.9193C127.559 99.2044 128.259 97.359 129.235 97.2925L131.945 98.0656C132.71 99.3041 132.295 100.277 132.133 101.615C131.913 101.898 131.539 101.64 131.319 101.74L131.311 101.731Z" fill="black"/>
<path d="M191.148 221.35C192.328 222.398 192.466 222.406 192.466 224.235C190.35 225.482 190.716 224.559 189.886 223.927C189.056 223.295 186.81 222.414 187.681 221.3L187.005 220.577C187.656 219.455 189.292 219.596 190.253 220.22C190.7 220.511 190.822 221.051 191.148 221.35Z" fill="black"/>
</svg>
