<svg width="329" height="371" viewBox="0 0 329 371" fill="none" xmlns="http://www.w3.org/2000/svg">
<path d="M271.033 9.81873C274.156 10.19 277.533 12.7218 280.484 13.6754C281.937 14.148 283.453 13.1606 284.206 15.3464C286.622 14.4434 286.749 11.9876 287.829 10.4939C288.755 9.21111 291.851 5.80169 293.131 5.0506C293.558 4.80587 298.851 4.08854 299.55 4.21513C300.149 4.32484 300.957 4.5105 301.42 4.88182C303.2 6.30804 302.002 13.7598 302.283 16.3253C302.446 17.7769 303.263 20.874 305.016 20.8909C307.531 20.9162 307.14 19.7601 308.239 19.1102C308.475 18.9668 311.689 17.6249 312.052 17.5152C316.846 16.0721 322.075 17.0933 323.819 21.8614C321.413 24.6885 319.134 26.1654 317.817 29.7605C316.138 34.3429 317.082 37.6679 317.781 42.2335C317.981 43.5585 317.908 45.01 318.19 46.1746C318.925 49.1536 319.134 48.6304 318.335 51.8964C317.781 54.1496 316.8 57.5 315.774 60.0908C313.886 64.8589 309.628 68.0911 308.557 72.6229C308.439 73.1208 308.184 74.4289 308.221 74.8255C308.275 75.4332 310.527 77.8721 311.18 78.3784C312.252 79.2139 313.005 78.9523 313.55 79.3236C314.413 79.9059 314.857 81.1043 315.911 81.8807C318.68 83.923 327.714 83.5348 323.528 89.0202C322.52 90.3452 318.516 92.1258 318.852 93.3326C319.034 93.974 322.893 95.991 323.546 96.5142C326.442 98.8181 329.838 102.152 327.496 105.848C324.999 105.839 322.72 107.35 320.568 107.012C319.343 109.375 322.393 110.329 323.464 112C324.763 114.034 325.262 118.017 323.537 119.857C322.311 121.165 319.025 121.663 318.834 121.823C317.155 123.199 319.406 124.65 319.678 126.186C320.069 128.423 319.579 131.233 318.317 133.182C317.391 134.609 315.584 135.005 314.83 137.031C314.122 138.938 314.621 140.769 314.449 142.297C313.977 146.423 314.222 150.162 308.538 150.061C306.287 147.968 304.925 145.318 303.863 142.567C302.147 138.102 302.219 132.397 300.621 128.043C300.14 126.735 300.168 125.3 298.887 124.169C297.925 123.612 294.638 126.76 293.603 127.401C293.349 127.553 291.851 128.515 291.669 128.347C291.252 126.541 290.725 124.811 290.553 122.946C290.407 121.325 291.679 115.224 288.9 115.038C288.71 115.021 288.365 115.494 288.074 115.502C287.402 115.519 286.903 115.249 286.05 115.393C285.287 115.519 284.125 116.684 282.79 116.042C282.572 115.916 281.955 112.827 282.009 112.388C282.146 111.241 283.28 111.232 283.571 110.65C284.788 108.186 284.443 101.164 282.745 99.0122C281.101 96.9277 278.614 96.5986 277.034 94.8854C274.111 95.4846 271.505 94.6069 268.926 96.337C262.753 100.464 259.366 109.401 260.238 116.27C261.718 127.967 266.439 137.208 275.082 146.212C275.708 146.862 280.275 151.141 280.829 151.251C282.382 148.246 286.267 145.225 288.837 148.98C291.007 152.154 289.082 156.432 291.152 159.825C291.306 160.078 293.413 162.238 293.576 162.314C294.248 162.618 294.166 162.01 294.321 161.816C295.746 160.002 295.428 158.761 298.016 157.757C299.278 157.268 301.157 156.66 302.283 157.766C303.817 159.268 303.717 168.036 304.444 170.762C305.079 173.142 307.621 175.201 309.882 176.315C311.662 176.332 311.598 175.133 313.704 175.176C317.763 175.252 318.607 179.344 320.178 181.834C320.468 182.298 321.304 182.357 321.413 182.745C322.084 185.168 319.333 187.708 319.352 189.775C319.37 191.674 320.042 194.771 320.123 196.89C320.595 210.299 319.951 223.388 320.105 236.807C320.142 240.351 320.323 241.507 319.315 245.086C316.601 254.672 311.126 266.698 302.11 272.774C300.313 273.99 294.684 275.821 293.903 276.614C292.06 278.496 293.404 280.665 289.336 281.425C285.269 282.184 281.274 281.087 277.261 282.496C275.327 286.201 276.117 288.387 278.55 291.627C284.597 299.687 287.366 297.501 289.091 309.088C289.672 312.97 289.581 315.898 289.5 319.73C289.418 324.034 289.618 326.456 290.725 330.439C291.778 334.245 295.192 341.57 298.597 343.891C301.72 346.018 301.03 345.301 303.736 348.009C305.824 350.102 310.545 353.081 309.928 356.423C309.873 356.71 309.256 356.702 309.065 356.98C306.214 361.276 301.847 361.926 296.799 360.381C295.664 360.035 295.228 359.09 293.976 359.014C292.305 358.921 290.526 360.272 288.946 360.702C283.952 362.044 281.746 359.866 277.824 357.495C276.571 357.453 273.756 360.204 273.493 360.246C269.408 360.913 262.362 361.774 258.249 361.445C256.125 361.276 252.284 359.985 250.223 359.9C247.509 359.791 241.262 362.213 239.165 363.808C237.05 365.411 235.079 370.238 233.146 370.415C230.213 370.685 230.558 368.795 229.977 367.259C229.859 366.939 229.233 366.947 229.169 366.677C228.915 365.597 229.723 364.466 229.314 363.512C228.325 361.166 224.303 363.082 222.441 362.71C222.178 363.867 220.889 363.706 220.217 364.365C219.545 365.023 219.354 366.618 218.646 367.36C217.702 368.339 215.705 368.939 214.279 368.711C211.773 366.728 211.501 363.369 212.273 360.533C212.554 359.495 213.862 358.938 213.862 358.82C213.889 357.428 212.79 355.503 211.31 354.98C210.72 354.769 206.735 354.98 206.072 355.115C205.917 355.149 204.483 356.086 203.421 356.263C202.259 356.466 199.108 356.795 198.118 356.508C196.157 355.934 196.838 355.166 196.62 354.128C196.294 352.558 196.148 352.043 196.993 350.288C197.338 349.571 202.286 343.511 202.958 342.997C203.393 342.659 210.412 338.845 210.875 338.701C212.182 338.313 213.898 338.448 215.224 338.001C216.431 337.596 217.43 336.431 219 336.279C219.581 335.148 220.735 333.891 219.681 332.709C217.466 330.22 211.846 331.68 210.566 329.131C210.321 328.642 209.939 327.047 210.03 326.54C210.076 326.304 210.629 326.253 210.838 325.941C213.135 322.43 216.349 321.333 220.862 321.553C224.112 321.713 228.188 321.84 231.729 322.498C233.327 322.793 237.776 324.042 239.229 324.616C241.744 325.612 244.64 329.688 247.227 329.654C247.781 329.654 250.341 328.616 250.559 328.161C252.393 324.338 249.234 320.92 245.838 319.274C239.937 316.413 229.668 314.649 222.995 314.776C221.515 314.801 219.718 315.586 217.911 315.62C213.435 315.713 206.489 315.662 202.377 314.59C199.417 313.814 194.859 310.995 193.388 308.371C188.812 300.176 190.619 289.357 179.824 284.235C170.255 279.686 162.419 284.437 155.419 290.336C154.43 294.463 148.801 302.767 149.8 306.801C150.081 307.94 152.886 313.282 153.649 314.489C156.945 319.671 167.567 327.266 173.605 329.123C176.211 329.924 180.178 328.667 179.751 332.709C179.515 334.963 178.381 334.439 177.218 335.013C174.449 336.372 164.081 338.22 160.903 336.794C160.44 336.591 160.368 335.933 160.222 335.874C159.569 335.638 157.499 334.996 156.818 334.853C151.534 333.739 151.779 338.043 146.931 338.828C143.753 339.342 138.496 336.203 134.846 335.958C132.695 335.815 132.794 337.351 132.213 338.034C132.141 338.119 131.65 337.866 131.433 337.992C126.121 341.022 122.481 339.748 116.96 337.925C116.379 337.731 115.78 337.047 115.399 336.996C115.09 336.954 110.814 338.634 109.534 338.743C108.553 338.828 105.167 338.009 104.794 339.334C102.47 338.802 97.967 340.22 95.8969 341.267C93.2549 342.6 90.1589 347.528 89.8775 350.229C89.7413 351.545 91.2212 355.25 90.9488 356.39C90.7491 357.225 89.9774 357.537 89.4871 358.044C89.3055 358.238 89.4054 358.795 89.2329 358.947C88.5065 359.571 85.6012 360.027 84.548 359.765C84.3392 359.715 80.9709 358.035 80.7167 357.875C78.5286 356.465 76.2134 352.668 72.9631 352.524C72.6998 352.516 72.2913 352.946 71.919 352.98C67.9242 353.377 66.2991 355.25 63.8205 358.17C62.4495 359.791 63.5572 359.394 61.1785 361.031C60.3523 361.597 60.1798 362.761 58.2822 362.373C57.6376 362.238 54.1603 359.039 53.7336 358.373C53.2796 357.655 52.517 355.698 52.3808 354.862C51.945 352.077 54.3056 351.149 52.3263 347.917C50.91 345.604 45.5715 347.191 43.4651 348.237C40.2421 349.841 39.7427 353.79 35.2395 354.457C30.7362 355.124 28.5119 353.411 27.9036 349.402C27.5949 347.385 28.2576 342.018 29.4742 340.347C31.8984 336.996 34.0955 333.317 37.0553 330.144C38.5624 328.523 44.3186 324.895 42.1577 322.532C40.5507 320.776 33.8322 320.38 31.1357 318.945C29.329 317.983 27.3861 315.181 27.8854 313.232C28.1941 312.05 30.7635 308.826 31.9801 308.32C32.6792 308.033 33.6506 308.244 34.0047 308.042C34.2135 307.923 34.4042 306.674 35.1305 306.117C36.7466 304.877 42.7479 304.582 45.2991 304.117C46.6337 303.873 48.5948 302.902 49.8477 302.767C51.8905 302.556 59.9255 304.539 60.8153 303.333C60.9606 302.446 60.6791 301.535 60.2524 300.75C59.8892 300.075 56.9294 299.071 55.7764 297.999C52.8257 295.265 55.5857 290.573 59.7712 290.387C60.7427 290.345 62.5766 290.927 63.7206 291.011C64.2563 291.054 64.565 290.446 65.1188 290.514C65.9722 290.623 73.6531 292.919 74.4158 293.332C80.299 296.539 83.5675 302.185 88.2069 306.388C91.3483 309.232 97.5856 310.632 100.918 307.333C103.759 304.514 104.141 300.919 104.794 297.434C106.983 285.821 104.649 283.686 101.435 273.348C100.536 270.445 100.191 267.39 100.99 264.462C101.226 263.601 104.005 257.533 104.595 257.01C105.539 256.166 104.958 256.985 105.875 255.778C108.499 252.343 108.435 253.187 111.731 251.356C116.488 248.706 119.339 247.896 124.178 245.904C128.2 244.242 131.632 242.68 133.539 238.79C131.778 237.44 130.134 235.963 128.318 234.621C127.329 233.887 127.483 234.224 126.403 233.473C120.374 229.271 116.652 224.064 112.212 218.705C111.331 217.641 110.078 217.143 109.706 216.097H109.107C107.99 217.903 105.802 217.051 104.413 217.354C99.9825 218.317 95.1252 218.646 90.3587 219.186C88.679 219.38 86.3276 220.021 84.8477 220.038C80.635 220.089 77.2575 218.055 72.1278 219.456C67.0163 220.857 67.6791 228.705 68.5416 232.435C69.0046 234.444 70.6116 236.984 70.6661 239.187C70.766 242.883 68.4599 249.66 63.2303 248.056C62.2226 247.744 61.7777 247.06 60.7881 246.756C58.5637 246.064 55.1681 245.989 53.0163 245.499C51.5818 245.17 49.3212 243.862 47.9048 243.71C46.9878 243.609 43.8737 244.318 42.8841 244.604C42.5027 244.714 37.9904 249.314 37.5183 249.98C35.8024 252.419 35.0216 256.048 33.3964 258.715C31.6078 261.643 28.294 262.791 25.6338 260.082C24.2719 258.698 22.2291 253.71 21.8841 251.778C21.5845 250.073 21.5482 241.035 21.9477 239.018C22.1656 237.938 23.2823 237.971 21.7842 237.642C23.6818 232.899 15.8374 232.874 12.6144 233.566C12.3692 233.617 12.5508 234.199 11.7882 234.283C4.86989 235.018 1.61049 229.667 4.88805 224.308C5.69609 222.983 7.79336 220.983 8.98272 219.819C12.0878 216.772 18.1617 213.818 16.1552 209.025C13.6585 208.924 11.4432 208.097 9.10075 207.489C8.556 207.346 7.9931 207.734 7.57546 207.658C5.79596 207.337 2.9088 204.983 2.71814 203.143C2.23695 198.434 5.59622 197.565 8.45613 194.704C10.2901 194.602 11.543 193.691 13.5858 193.269C19.0151 192.138 26.2421 191.649 31.8076 191.328C32.8426 191.269 34.7401 191.978 35.6843 191.48C35.9567 190.94 36.5559 190.332 36.6286 189.758C36.7829 188.568 35.9113 186.779 35.9022 185.935C35.8841 183.834 36.5378 177.201 37.137 175.26C37.1824 175.108 38.8076 172.829 38.9982 172.644C41.3769 170.171 44.8088 172.095 46.8244 174.003L45.5261 174.813C45.5624 177.083 44.6908 179.074 45.8893 181.184C46.4522 182.172 49.5027 185.547 50.5105 186.357C54.5326 189.615 57.2018 189.944 62.3678 188.872C64.2199 188.493 67.9787 187.024 69.74 186.206C71.8282 185.235 82.0967 179.505 83.3224 178.306C83.6311 178.003 84.9294 176.155 84.9475 175.96C84.9748 175.462 81.5429 170.77 80.9709 169.521C79.8451 167.074 79.8178 165.741 78.3924 163.226C78.0565 162.635 78.0474 161.563 77.766 161.251C77.3393 160.77 74.9333 160.525 74.0799 160.137C73.6895 159.96 72.255 159.065 71.8192 158.77C67.1525 155.63 67.8607 150.905 66.7712 146.187C63.0124 146.01 59.6259 143.63 58.5546 140.187C57.9463 138.22 58.7271 133.959 58.0371 132.009C57.2654 129.824 54.0968 129.469 53.316 124.912C53.1434 123.882 53.7064 120.262 53.6156 119.941C53.5429 119.705 51.7725 117.064 51.5455 116.599C51.1188 115.722 51.1551 114.608 50.6558 113.637C49.8659 112.101 46.2797 111.949 44.6363 111.333C42.7933 110.641 40.5507 108.743 38.4535 107.915C35.6117 106.793 31.5988 106.363 28.7479 106.599L28.3575 105.839L27.7311 105.856C27.9036 107.148 26.4691 106.363 25.6065 106.835C24.4807 107.443 23.9088 109.797 23.137 109.097C19.7778 112.506 14.1033 117.249 10.5534 111.333C9.57286 109.696 8.78298 107.603 9.12799 105.738C9.94511 101.291 11.7065 101.097 13.5858 98.2273C15.0112 96.05 16.3096 92.3959 17.5715 90.3789C17.8893 89.8726 18.7064 89.6363 18.9879 88.8345C19.8413 86.3788 17.6351 85.0622 15.447 84.3618C11.198 83.0031 7.37572 85.7458 2.76354 83.4419C2.42761 83.2731 0.275867 81.349 0.185076 81.0705C-0.0419017 80.3616 -0.0328226 77.9818 0.0670475 77.1801C0.112443 76.8341 3.54434 71.7199 3.9529 71.3064C6.78558 68.4793 11.5612 68.0911 14.9205 66.4877C15.1928 66.3611 18.316 64.5045 18.4795 64.3779C19.0424 63.9559 21.2395 61.6098 21.4483 61.0866C22.0475 59.576 20.9127 59.1794 20.5313 58.4958C20.3951 58.251 20.604 57.6772 20.3679 57.3649C18.1435 54.4281 12.1422 53.7952 9.30049 51.6263L7.83875 47.4996C8.67403 44.4024 11.5521 43.6091 14.5391 42.8327C18.7428 41.7356 24.39 41.1955 28.7479 41.4993C30.7362 41.6428 32.7518 42.6555 34.7038 43.0521L34.9489 42.2504H35.7842L36.0657 43.0352C39.3523 43.0099 42.6026 44.8919 45.7712 45.7948C47.3328 42.8833 46.7064 39.7946 48.159 36.7481L49.8205 36.7059C49.6298 36.2248 48.958 35.8451 50.0293 35.9126C53.779 36.132 59.7349 39.3051 62.0047 41.9719C64.8827 45.3391 64.8737 49.0861 67.3886 52.5293C67.4703 52.639 67.0799 53.6179 68.3055 53.7108C68.4145 53.7108 68.469 53.196 68.6869 53.0778C69.041 52.8837 69.5948 53.0356 69.7854 52.639C69.9761 52.2424 70.7751 50.1832 70.8658 49.7781C71.0384 49.0355 70.657 48.2253 70.884 47.3561C71.4197 45.3391 72.8905 43.9636 75.1512 45.3898C75.6869 45.7273 75.3237 46.3265 75.4508 46.5122C75.5779 46.6978 76.2588 46.6978 76.4949 47.2633C76.8671 48.1325 76.3315 49.5756 78.0565 49.7613C78.7828 49.7444 81.3522 48.0987 81.6972 47.508C82.4689 46.1831 81.7245 44.6302 84.4663 44.5881C84.5934 44.5881 86.4819 45.7273 86.5818 45.8033C88.3613 47.1704 89.6051 50.217 92.4469 50.1832C93.7089 49.9216 93.037 45.0269 94.0266 43.837C95.0798 44.318 96.1148 43.7863 97.0772 43.9129C99.1382 44.183 102.761 48.6642 103.732 48.7907C106.374 49.1536 105.248 44.5037 107.4 44.2336C110.478 43.8454 112.348 46.4447 112.72 48.9595C116.152 49.5503 117.442 44.9847 121.1 46.5037C122.145 46.9341 122.199 47.8202 122.599 48.0734C124.169 49.0439 128.373 49.5165 128.845 47.1873C129.145 45.7189 128.527 43.896 129.235 42.3179C128.672 41.398 124.995 41.4402 124.051 41.9297C123.488 42.2166 123.398 42.8327 123.016 43.0606C121.219 44.1239 118.023 44.0817 116.171 43.3981L116.452 37.803C112.775 32.4441 107.518 36.824 102.97 38.5034C102.098 38.6469 99.9734 37.8874 99.928 36.9169L102.071 30.8069C101.027 29.9714 91.9657 34.748 89.705 33.7184C87.9073 31.7774 90.0954 27.4059 91.312 25.4734C89.9864 23.5155 88.1525 21.6589 87.299 19.4309C86.7452 17.9963 86.3639 12.764 86.5818 11.2449C86.9177 8.94105 89.3146 7.13507 90.3042 5.21939C94.5714 3.02521 97.4858 1.16015 102.298 0.704437C102.561 0.67912 102.443 0.0968179 102.77 0.00398719C102.97 -0.0466478 106.665 0.400628 106.864 0.459702C108.154 0.822585 111.504 3.79317 112.212 5.00841C112.875 6.14769 113.238 9.79341 113.928 10.3757C115.408 11.6163 117.342 10.9158 118.867 10.9918C119.584 11.034 119.457 11.6922 119.82 11.7935C123.071 12.7049 132.368 12.4011 135.836 11.7091C136.063 11.6669 136.063 11.1015 136.353 11.0593C137.397 10.8989 138.224 11.1859 139.44 10.823C141.628 10.1816 145.614 6.78063 148.265 5.98735C150.916 5.19407 155.538 4.82275 158.397 4.90714C158.96 4.92402 159.623 5.51476 160.513 5.54851C161.521 5.58227 162.438 5.01685 163.445 5.12656C167.903 5.59071 174.495 9.4896 178.598 11.2112C184.554 13.7092 190.864 16.0721 196.884 18.7136C199.762 19.9795 200.425 18.8908 201.224 19.009C202.104 19.144 202.259 20.7559 203.466 18.5448C207.434 19.5238 216.458 16.6713 218.683 20.9669C218.919 21.4226 220.526 24.9417 220.58 25.1696C220.626 25.3721 220.117 28.9081 220.017 29.2372C218.792 33.3724 212.318 37.7439 213.508 41.5837C214.116 43.5332 221.098 46.9088 223.222 47.5671C224.112 47.8456 224.965 47.5249 226.454 48.1156C229.841 49.4574 231.929 52.7065 230.631 56.0991C230.54 56.3269 229.26 58.4958 229.16 58.5971C228.978 58.7827 225.211 61.5001 224.974 61.6098C224.43 61.8546 223.667 61.6436 223.186 61.8799C218.002 64.4623 218.401 70.7748 220.898 75.0028C222.623 77.9227 223.658 76.7497 225.347 77.9734C225.955 78.4122 227.308 80.4545 227.426 81.1971C227.471 81.484 227.471 84.3112 227.371 84.4377C226.354 85.7711 221.515 86.691 221.152 86.9779C220.971 87.1214 218.837 90.6912 218.783 90.9275C218.619 91.5604 218.211 94.2356 218.111 95.012C217.911 96.5648 218.074 97.8476 218.492 99.3582C219.736 103.848 226.173 106.717 223.967 111.696C222.46 112.16 221.76 111.907 220.417 111.865C218.165 111.797 219.236 111.561 218.737 111.46C217.866 111.274 214.107 111.873 213.29 112.27C212.527 112.641 211.056 115.283 210.947 116.026C210.702 117.722 212.318 124.254 213.026 126.102C213.508 127.368 215.959 129.233 216.567 130.406C218.301 133.773 215.042 135.047 212.01 134.161C209.885 133.545 205.872 128.769 204.619 128.44C200.17 127.292 201.823 137.891 202.912 139.925C204.383 142.668 209.095 144.795 208.777 147.934C208.278 152.871 200.96 151.048 199.499 152.17C199.38 152.263 198.191 154.398 198.137 154.66C197.465 157.943 200.061 160.821 202.64 162.669C205.581 164.77 207.307 164.939 209.976 166.137C212.164 167.116 214.533 168.306 214.216 170.804C213.971 172.779 212.291 172.517 210.738 173.488C207.76 175.353 205.536 176.171 207.906 179.826C208.496 180.737 212.073 182.627 213.208 182.923C214.207 183.176 214.86 182.796 215.623 182.999C216.731 183.286 223.304 184.872 223.622 185.125C224.321 185.699 224.548 186.535 224.457 187.395C224.085 190.974 218.265 190.374 219.536 195.666C220.626 200.215 227.417 200.392 231.484 200.08C232.156 200.029 232.71 199.396 233.581 199.463C235.543 199.607 234.998 202.805 235.779 204.223C234.798 206.637 231.33 206.012 230.921 208.848C230.803 209.7 231.539 212.283 232.102 213.008C233.327 214.595 238.475 216.131 240.518 216.359C243.959 216.747 248.762 212.806 249.025 218.35C249.188 221.971 244.358 221.338 244.113 223.448C243.786 226.275 244.649 225.768 245.911 227.152C246.301 227.583 246.338 228.241 246.692 228.595C248.68 230.587 253.701 230.528 255.898 228.891C257.024 228.047 257.36 225.962 257.623 225.777C259.284 224.57 261.436 224.621 262.734 226.241C264.341 228.233 262.843 230.747 266.475 232.536C270.261 234.393 274.092 232.705 276.734 230.013L277.143 225.422C280.039 223.743 283.335 224.528 284.134 220.713C284.179 220.502 283.498 216.975 283.371 216.443C282.245 211.734 279.022 202.181 275.881 198.603C273.384 195.759 268.427 194.366 264.577 194.349C263.606 194.349 263.007 194.459 261.754 194.451C259.82 194.425 257.913 194.678 255.98 194.687C255.526 192.434 253.782 190.434 256.061 188.535C258.295 186.678 265.821 189.159 266.066 184.138C264.514 183.48 262.507 181.159 261.055 180.695C260.537 180.526 257.432 179.868 256.897 179.817C253.692 179.522 250.732 181.421 250.06 176.264C249.642 173.074 254.236 174.078 256.361 173.403C256.579 173.116 255.299 171.057 254.945 170.779C254.745 170.618 250.423 168.753 250.169 168.703C247.191 168.078 244.485 168.812 241.526 169.049C241.199 167.226 239.319 166.601 239.528 164.719C239.991 160.576 242.769 162.432 245.511 161.445L248.28 159.42C248.308 158.314 246.22 155.774 245.303 155.428C244.558 155.149 243.814 155.757 243.042 155.656C242.751 155.614 242.788 155.04 242.542 154.964C241.834 154.744 240.364 154.736 239.81 154.263C239.456 153.951 237.376 151.04 237.313 150.592C236.923 148.018 240.527 147.571 241.517 145.579C242.415 143.765 239.229 137.031 238.629 134.777C235.552 123.224 235.016 107.375 238.284 95.8475C240.463 88.1425 250.959 78.2518 257.832 73.4584C264.95 68.4962 274.601 65.2724 278.695 57.6772C280.411 54.4872 279.467 47.1367 276.516 44.6724C273.929 42.5205 267.192 41.1786 263.887 42.0057C262.989 42.2335 258.948 44.1239 258.558 44.7062C258.413 44.9256 258.849 45.4657 258.685 45.8202C257.732 47.93 254.427 49.3815 252.775 46.9848C251.867 45.6767 250.932 39.1279 251.476 37.7186C251.785 36.9253 252.666 36.6806 252.974 36.1405C253.955 34.3935 254.445 32.0137 255.98 30.6466C256.887 29.8364 260.056 28.8406 257.614 27.0768C257.042 26.6633 252.284 24.9586 251.54 25.0092C250.795 25.0598 248.689 25.9375 247.908 26.3004C246.555 26.9249 244.422 29.3301 242.76 28.5874C239.828 27.2793 241.989 21.0681 243.45 18.9921C247.282 13.5573 251.921 11.7175 258.494 10.055C259.648 9.76809 259.929 9.46428 260.029 9.45584C260.782 9.35457 262.171 10.1816 263.17 9.86936C264.151 8.95793 260.81 4.2742 262.535 4.35015C263.769 4.40079 264.686 8.82291 264.024 9.86936C266.248 10.055 268.872 9.61619 271.033 9.86936V9.81873ZM108.208 8.51066C107.237 7.55703 106.392 5.01685 105.076 4.47674C104.567 4.26576 102.543 5.40505 102.307 5.8692C101.544 7.32918 102.089 11.4475 103.814 12.3758C104.613 12.8062 110.85 14.013 111.449 13.591C112.639 12.7556 110.796 12.072 110.442 11.4137C110.206 10.9749 110.414 10.2998 110.151 9.75965C109.752 8.94949 108.417 8.72164 108.208 8.5191V8.51066ZM101.072 14.3252C100.564 13.9961 99.9916 13.8695 99.5649 13.5573C98.6933 12.9075 99.0928 12.0045 97.4585 11.9032C96.9047 11.8694 95.9605 12.207 95.334 12.2323L94.8347 15.0932C96.6505 16.1819 97.6401 17.7515 96.1148 19.4816C97.3314 20.4689 98.0941 21.0681 99.8917 20.6377C101.353 20.2917 101.372 18.241 103.787 18.8993C103.56 19.8866 104.259 20.9669 104.195 21.8445C104.123 22.8657 101.399 25.9544 104.831 25.946C107.673 25.946 108.698 23.7518 110.977 22.8825C111.041 23.8024 112.04 23.6505 112.257 24.6041C112.494 25.6421 111.05 27.3384 111.613 28.5958C111.894 29.1782 112.757 29.5242 113.383 29.5579C116.715 29.7351 116.942 25.4396 118.794 25.7181C120.047 25.9038 120.71 27.1528 120.656 28.2583C120.565 29.8533 118.567 30.7394 119.521 32.731C121.064 31.9968 123.307 33.1614 124.768 32.3428C125.213 32.0981 124.923 31.4736 125.15 31.2457C125.35 31.0516 125.985 31.1867 126.167 31.0263C127.193 30.1149 127.665 28.4946 129.471 30.7816C131.115 32.8661 128.654 34.5708 129.09 35.5075C130.152 36.7143 132.268 38.0393 133.875 36.9759C134.946 36.267 134.174 33.7522 137.043 34.4104C140.375 35.1784 137.479 39.8115 139.94 40.8242C141.202 41.3474 142.672 40.4022 144.016 40.2503C144.525 40.1913 145.324 40.6385 145.414 40.5795C145.705 40.4107 145.777 38.6216 147.72 39.0098C147.92 39.052 150.027 41.7862 150.126 42.0057C150.589 43.0015 148.883 42.0647 148.864 42.7905C150.054 45.6176 151.761 42.7568 154.085 43.2378L156.073 42.1998C155.819 43.4825 157.263 43.7526 157.526 44.1661C157.598 44.2758 158.198 46.5122 158.225 46.7232C158.434 48.1916 158.461 51.0609 157.617 52.3352C156.645 53.812 153.812 54.9851 151.997 55.2045C145.696 55.964 138.206 54.7572 132.05 54.4534C123.67 54.0315 110.66 52.639 102.706 53.6348C101.372 53.8036 101.126 54.6053 100.609 54.6897C100.228 54.7488 99.6647 54.2846 99.2108 54.5209C99.1291 54.5631 97.9942 55.6602 97.9579 55.7362C97.5856 56.4535 97.7763 59.365 98.2484 60.1077C98.8204 61.0022 101.508 61.4579 102.334 62.3356L102.942 62.3525C104.186 56.7067 107.146 61.728 109.57 62.7069C110.641 63.1373 111.804 63.188 112.893 63.5424C113.193 63.5171 114.536 60.7828 115.054 60.3777C117.278 58.6224 120.774 62.8166 122.708 62.766C123.234 62.3525 125.331 62.4031 125.413 62.3018C125.949 61.6605 125.35 60.0486 127.701 60.4452C130.434 60.9009 131.977 63.6521 133.893 63.7027C137.161 63.7956 135.781 61.863 138.414 61.171C140.067 62.555 141.674 64.572 143.962 64.7239C147.739 64.9771 146.74 62.8335 148.292 62.4031C148.819 62.2596 151.77 62.6478 152.351 62.8335C152.659 62.9348 156.636 66.8505 156.927 67.2725C158.724 69.8296 158.062 72.7326 158.17 75.5935C158.207 76.4459 158.815 76.9944 158.851 77.5683C158.879 77.889 157.244 81.7625 156.918 82.3111C154.693 86.0243 152.115 88.4295 147.866 90.092C139.395 93.4086 120.456 97.0965 114.4 102.835C113.401 103.78 112.494 105.021 111.431 106.093C109.298 108.253 106.801 110.996 104.631 113.789C103.269 115.544 101.444 115.831 103.433 118.599C105.103 120.92 108.117 122.608 110.914 123.511C113.71 124.414 114.918 123.891 117.351 122.161C119.82 120.405 119.049 119.654 120.084 118.169C120.401 117.713 122.517 115.916 122.626 115.578C123.815 111.924 117.886 112.515 115.689 111.722C116.207 109.384 120.529 110.616 122.263 110.54C123.77 110.473 125.595 109.949 127.011 109.899C129.971 109.781 131.333 110.624 134.883 109.629C140.421 108.076 139.386 106.025 141.701 102.126C142.019 101.586 142.727 101.51 142.809 101.375C142.927 101.189 142.228 99.0544 143.29 98.4552C143.98 97.9995 151.234 99.6704 153.286 99.1219C153.567 99.0459 158.016 96.3454 158.189 96.126C159.233 94.7842 159.369 93.1976 159.895 91.8895C160.004 91.6279 160.549 91.5857 160.694 91.2481C162.211 87.6615 158.034 89.2818 156.908 86.8345C159.569 86.4463 166.187 86.5897 168.139 84.8259C169.656 83.4588 170.1 78.9861 169.565 77.2307C168.766 74.6399 163.01 76.083 162.038 74.7496C161.484 73.9901 161.802 73.0618 161.548 72.5132C160.295 69.8127 159.868 70.8169 159.841 67.3147C159.832 66.1163 158.879 65.0783 160.531 63.9222L161.802 66.2851C162.356 67.8042 162.991 73.2137 166.078 71.0617C168.875 69.1207 166.305 66.437 166.314 64.4876C166.314 64.0656 167.132 61.7111 167.794 61.5676C169.819 61.2385 168.711 66.2936 169.737 67.3991L172.388 67.8801C173.941 66.032 171.435 63.6859 173.696 62.3272C174.132 62.0655 174.013 61.6942 174.558 62.3272C175.412 65.7197 175.993 69.3823 178.862 71.8212C180.405 72.0828 180.451 70.9689 181.585 70.395C181.013 69.4751 180.977 68.1839 180.678 67.3738C180.541 67.0109 179.915 67.0868 179.851 66.7999C179.77 66.4286 179.888 63.5593 180.487 63.534C182.575 64.1078 182.748 66.0995 183.701 67.1712C186.252 70.049 190.202 72.1841 191.781 67.2894C191.672 65.8547 187.015 64.8673 186.888 61.9052C186.815 60.3271 187.46 58.116 189.639 59.365C190.02 59.5844 190.22 60.3777 190.701 60.749C192.58 62.1837 195.34 63.2133 196.475 65.0699C198.146 64.6901 199.508 64.1078 199.662 62.3525C199.798 60.8587 193.016 57.5168 192.626 55.3902C192.517 54.8163 192.48 53.7867 193.025 53.4238C193.633 52.9597 194.042 53.3395 194.55 53.6264C195.976 54.4281 199.898 57.4662 201.106 57.7531C201.278 57.7953 204.483 57.9641 204.655 57.9304C206.235 57.6097 206.217 54.8248 204.764 54.0146C203.956 53.5589 203.103 53.753 202.422 53.4238C200.152 52.3183 197.982 50.6558 195.286 49.9807C194.85 49.2718 194.796 47.9384 195.594 47.4827C196.303 47.0776 202.567 50.5799 203.893 51.0524C205 51.4491 212.318 53.1538 213.045 52.6812C216.032 49.2549 211.592 47.7865 208.714 46.4784C205.609 45.0606 202.05 43.8623 198.89 42.1745C198.527 41.9804 198.454 41.0605 197.32 41.3812L197.301 40.2081C200.016 39.533 201.042 41.9803 203.475 41.7947C207.788 41.4656 207.216 37.6173 203.784 35.9632C202.631 35.4062 197.056 34.3682 197.301 33.3049C197.601 32.0053 199.98 32.4779 200.833 32.3006C201.142 32.2331 201.069 31.6508 201.432 31.5411C203.021 31.077 206.644 31.482 208.214 30.5959C208.914 30.1993 212.781 26.6042 211.846 25.6421L212.609 25.2033C210.421 23.4142 209.186 23.9459 206.453 24.1906C204.147 24.3931 202.431 25.0092 199.635 24.8235C185.008 23.8362 172.416 12.283 158.788 11.7935C154.584 11.6416 148.438 14.6966 144.688 16.0806C141.946 17.0933 134.801 18.3338 131.669 18.4942C123.434 18.9161 119.639 17.127 112.503 16.5194C108.217 16.1565 105.303 17.0426 101.099 14.2999L101.072 14.3252ZM263.951 16.0721C263.424 16.3928 262.934 15.5236 262.517 15.4983C262.344 15.4814 259.729 15.6755 259.13 15.7177C254.845 15.9709 254.055 16.9498 251.05 19.6925C250.668 20.0892 250.795 20.4774 251.031 20.8993C251.422 21.5829 260.773 24.0471 262.435 24.5282C263.234 24.756 263.842 25.3805 264.695 25.6253C268.064 26.5789 272.64 25.8278 275.282 28.7815L275.046 29.963C271.196 29.6592 268.772 28.0811 264.705 29.195C260.21 30.4271 258.812 32.6888 256.633 36.1658C256.488 36.4021 255.925 36.4865 255.789 36.689C255.662 36.8747 254.954 40.8579 255.117 41.0183C255.889 41.1533 256.443 41.2799 257.251 41.2293C259.021 41.1111 262.662 38.6638 264.741 38.3937C265.131 38.3431 270.007 38.63 270.624 38.7397C272.031 38.9845 281.083 43.8032 281.891 44.7737C282.064 44.9847 284.252 49.3731 284.315 49.6347C284.942 52.158 284.424 56.8501 283.535 59.2975C283.417 59.6266 279.195 64.2428 278.75 64.6057C277.633 65.5087 275.89 65.3399 275.599 65.6184C275.373 65.8294 275.454 66.5552 275.1 66.9181C272.258 69.8211 264.487 72.9014 260.483 75.4754C244.222 85.923 238.666 100.337 240 118.675C240.808 129.731 243.105 139.765 248.09 149.689C254.191 161.825 262.353 175.049 272.531 184.627C272.912 184.99 272.867 185.767 273.393 186.197C273.974 186.678 275.79 186.973 276.38 187.767C276.97 188.56 276.571 189.387 276.871 189.885C276.943 190.003 278.242 190.611 278.841 191.412C287.756 203.32 291.152 220.612 285.042 233.802C284.579 234.79 283.144 237.153 282.427 238.089C280.302 240.883 274.9 241.516 275.981 245.811C276.199 246.444 276.78 246.486 277.406 246.495C279.304 246.529 284.243 245.997 285.777 245.145C287.312 244.292 294.357 236.132 294.856 234.629C295.9 231.431 293.385 231.287 293.004 229.178C292.659 227.279 295.238 225.54 296.654 224.351C297.108 223.971 298.116 223.751 298.334 223.439C298.887 222.654 299.078 220.857 300.286 219.726C301.784 218.325 304.58 218.249 305.261 217.439C305.651 216.983 306.541 214.595 306.659 213.97C307.258 210.89 305.288 211.894 304.081 210.797C301.42 208.375 305.978 204.029 305.561 202.063C305.243 200.577 301.538 198.518 301.203 197.868C299.813 195.235 303.436 194.096 300.376 191.134C299.723 190.501 297.798 189.674 297.662 189.488C297.462 189.218 298.079 185.066 297.798 184.045C297.644 183.48 296.5 181.868 296.009 181.657C295.047 181.252 294.094 182.003 293.231 180.374C291.915 177.876 293.331 178.205 293.249 177.193C293.24 177.074 292.387 175.057 292.305 174.965C291.597 174.163 289.055 173.007 287.902 172.897L286.322 167.454C285.786 166.483 284.524 166.795 283.589 166.416C281.528 165.589 280.575 162.635 280.402 160.702C278.922 159.749 276.743 160.39 275.472 159.361C273.112 157.445 274.764 156.23 274.002 154.795C273.82 154.449 272.322 153.63 271.841 153.073C269.816 150.694 266.847 147.369 265.758 145.402C260.746 136.313 256.306 129.722 254.209 119.435C253.22 114.582 254 108.464 254.827 104.228C255.398 101.308 259.393 94.4888 261.908 92.6069C270.415 86.2353 279.821 86.6826 286.322 95.1555C287.52 100.27 288.583 105.553 286.54 110.548C294.157 113.477 300.059 102.852 298.116 96.9108C298.669 95.9488 299.841 96.3623 300.73 96.6998C301.493 98.7337 304.28 100.101 303.182 102.472C304.38 102.709 303.445 103.898 303.509 105.232C303.563 106.253 303.618 108.008 304.226 108.861C304.335 109.021 305.633 110.422 305.733 110.473C305.869 110.54 308.393 110.253 308.711 110.143C310.427 109.553 310.046 107.19 309.065 106C308.784 105.654 308.103 105.569 307.903 105.316C307.494 104.81 306.214 102.97 306.269 102.455C306.459 100.784 309.791 100.346 309.501 97.7801L306.632 95.8306C306.305 94.5394 304.326 93.3495 304.026 92.0921C303.79 91.0794 305.624 89.189 304.807 87.5518C303.99 85.9146 300.122 86.1509 298.47 86.4378C297.444 85.4758 298.134 83.4841 297.816 82.9103C297.698 82.6993 294.221 80.2688 293.74 80.0325C290.053 78.1928 280.638 76.4459 276.516 76.9607C275.309 77.1126 272.594 78.1168 271.432 78.5557L271.151 77.8636L270.37 78.1675C269.989 76.5387 271.378 76.7666 272.177 76.1843C275.59 73.6609 281.374 71.9056 285.033 69.0869C287.039 67.5341 288.81 64.6226 290.789 62.977C292.904 61.9896 294.802 65.7028 295.737 62.6647C296.49 60.2258 294.693 58.0401 294.584 55.6771C296.454 55.1201 299.523 56.3438 300.34 54.099C301.393 51.2044 298.497 49.238 298.824 47.6261C300.73 45.9468 303.136 40.8495 302.573 38.4697C302.519 38.2502 301.883 38.284 301.838 37.9802C300.966 32.1319 299.886 25.1105 296.554 20.4605C294.902 18.1482 296.581 17.8866 295.855 15.3548C294.03 15.1607 293.803 16.4772 293.131 17.5827C293.013 17.7769 292.423 17.6925 292.468 17.9119C292.523 18.1651 293.122 18.5279 293.122 19.0849C293.14 20.9078 292.568 23.1104 292.904 25.0092C293.24 26.908 295.21 30.5369 295.31 32.2078C295.337 32.7564 294.248 35.4316 293.939 35.516C293.086 35.7101 291.479 33.9294 291.17 33.3555C287.057 25.5324 281.401 18.663 271.423 16.3675C270.497 16.1565 264.732 15.2367 264.26 15.3633C263.924 15.4476 263.996 16.0384 263.915 16.0806L263.951 16.0721ZM30.5456 49.0777C29.1111 48.5207 27.1591 48.411 25.8698 49.2887L25.661 51.6347C29.565 52.6474 32.779 55.6012 37.0281 55.2214L37.3095 52.4702C36.0929 52.3521 35.4029 51.1368 34.5041 50.7233C33.6506 50.3267 31.4535 49.4321 30.5456 49.0777ZM87.3807 54.6897C87.0993 54.4365 87.0176 53.9893 86.6181 53.8289C85.2744 53.2973 82.823 53.3479 81.5338 54.1327C77.3211 56.7151 75.4145 69.281 76.2679 73.5512C76.4767 74.6061 77.2394 74.5217 77.421 74.9099C79.4547 79.2983 81.0072 80.6992 83.3496 84.4124C86.1278 88.8261 87.8256 94.5057 92.5467 97.5016C94.1083 98.4889 98.0668 100.59 99.6466 101.325C99.7646 101.384 101.971 101.789 102.189 101.78C102.597 101.763 106.311 100.843 106.864 100.658C108.117 100.253 113.392 96.7589 115.154 95.9403C123.652 91.9992 134.656 89.8473 142.137 84.4546C143.381 83.5601 144.67 81.7203 145.578 81.0199C145.85 80.8089 146.495 80.9861 146.676 80.8849C146.731 80.8595 146.458 80.3701 146.549 80.1085C147.176 78.3784 147.793 77.6442 147.521 75.6104C147.303 73.9985 145.923 74.0069 145.133 72.6145C142.709 72.0406 139.921 75.0196 139.277 75.0365C138.487 75.0534 136.807 74.7158 136.108 74.3783C135.527 74.0998 133.012 71.8887 132.803 71.8465C129.499 71.163 129.145 75.1462 125.132 73.1208C124.423 72.7664 124.269 72.0744 124.078 71.9816C123.579 71.7199 122.154 71.4246 121.418 70.7916L117.169 73.4247C115.49 72.9943 111.613 70.876 110.269 71.9647C109.924 72.2432 109.879 72.9099 109.289 73.2221C109.18 73.2812 107.046 73.6188 106.855 73.5766C105.802 73.3234 105.366 72.6229 104.567 72.0744C102.852 70.8929 103.986 71.4583 103.396 70.8507C100.854 68.1924 99.2653 73.1715 96.9955 72.4541C95.5065 71.99 95.1343 70.2431 93.5273 70.0321C94.2264 65.1036 92.12 66.783 88.906 65.2387C84.7841 63.2555 87.5532 60.0317 89.7413 57.846C88.9696 56.4366 88.5519 55.7699 87.3535 54.7066L87.3807 54.6897ZM47.0514 62.5635C45.7258 61.0022 42.0306 58.2426 39.8063 58.5633C39.1616 58.6561 38.5261 60.0908 37.4911 59.998C38.4172 60.9178 38.4172 62.6056 38.8983 63.4242C39.207 63.9475 41.4677 65.6522 42.2667 66.8084C43.0021 67.8717 47.4055 75.0281 44.3095 75.2306C43.5105 75.2813 40.0605 72.1503 38.7531 71.644C37.0734 71.0026 29.3925 69.4329 27.4042 69.1544C26.9412 69.0869 26.5417 69.6355 26.2058 69.6355C22.8102 69.6439 17.4354 69.7114 20.1137 74.353C21.0488 75.9817 26.0514 79.0958 27.9853 79.5937C30.2097 80.1591 32.0164 79.3996 34.8581 80.4798C37.8543 81.6191 42.9295 82.3617 42.5845 86.0496C40.3056 85.2817 40.8504 86.0918 40.124 86.4125C39.779 86.5644 39.1707 86.4463 38.7803 86.6573C37.6364 87.2733 37.2732 89.0962 36.6558 89.746C36.2926 90.1342 35.7479 89.8304 35.1941 90.4802C33.923 91.9655 33.8958 96.9868 36.2473 96.5226C38.2083 96.1344 38.5443 94.8685 39.3795 94.3453C41.386 93.0879 44.9995 91.1047 47.4145 91.3072C49.8296 91.5098 54.2239 93.8812 56.1396 95.3749C58.9359 97.5606 60.8516 99.9574 62.8127 102.599C65.5001 106.219 67.089 109.055 70.0487 112.658C72.5727 115.739 74.7789 121.005 79.5182 116.633L83.8126 110.937C83.9034 110.895 85.3289 111.764 85.5014 111.941C86.0915 112.54 85.5831 113.485 86.5636 113.3C87.8619 111.916 88.7426 109.873 91.0396 110.143C90.7491 105.553 86.954 107.409 83.8126 108.565C83.5403 106.911 82.8412 103.856 84.6661 102.818C85.5831 102.303 86.3094 103.257 87.0085 102.649C88.325 100.59 83.0318 97.0037 81.8788 99.8983C79.8542 100.118 78.347 95.915 80.2082 95.1386C81.4975 94.6069 81.216 96.3285 81.6881 95.9234C83.1317 94.6322 82.2692 92.6322 80.4352 92.1343C78.12 91.5098 76.159 93.763 75.4054 89.0624L77.0396 87.8219C76.2316 87.113 75.6051 84.5728 75.2329 84.1677C75.133 84.058 73.4262 83.2985 73.0176 82.8765C71.3289 83.7035 70.0033 84.6234 67.9515 84.4462C65.8996 84.269 64.9372 82.252 62.7037 81.9904C60.7245 76.3193 59.3989 70.3781 55.5585 65.5172C55.1136 64.9095 52.9709 64.6142 52.7803 65.3737C52.8983 66.6649 52.9891 68.3274 53.3432 69.5511C53.9515 71.6018 56.5572 73.5512 51.3639 72.6651C50.3925 69.4329 49.2485 65.1374 47.0605 62.555L47.0514 62.5635ZM59.8983 58.5127C57.8101 57.6097 56.1305 59.9389 58.1279 61.9474C59.9346 63.7534 61.5235 62.0993 61.3146 60.1836C61.2874 59.9389 59.9982 58.5633 59.8983 58.5127ZM70.6389 60.3862C68.9592 60.2511 68.587 61.3989 67.7699 61.9812C67.4612 62.2006 66.8438 62.1668 66.517 62.4706C66.2355 62.7322 63.4664 66.2767 63.3756 66.513C61.6233 71.087 64.8283 74.277 67.8879 77.3657C68.9229 76.0745 68.3237 74.3867 68.6233 72.9183C68.8594 71.7368 69.7673 70.6313 70.0397 69.492C70.7478 66.5299 71.347 63.3483 70.648 60.3777L70.6389 60.3862ZM210.284 65.6859C209.032 64.9855 207.543 64.6057 205.99 64.6564C204.419 65.0952 202.231 69.1882 202.567 70.6566C202.703 71.2642 205.055 74.7665 205.6 75.3741C207.207 77.197 212.336 77.0113 213.253 74.623C214.016 72.6229 213.789 68.6143 212.2 66.9856C212.118 66.9012 210.484 65.7957 210.294 65.6859H210.284ZM199.725 70.7748L194.605 69.5089C192.235 72.9352 187.959 71.6946 189.829 76.9775C191.191 80.8427 193.161 83.0706 197.792 81.6106C200.352 80.8005 200.443 79.3321 202.195 77.7539C202.404 77.2982 200.198 71.1039 199.725 70.7663V70.7748ZM186.67 75.7961C182.884 74.5217 178.39 74.4964 174.395 74.6568C172.761 77.3911 172.96 79.8384 172.715 82.8174C174.794 84.3871 175.639 84.9525 178.39 85.172C181.24 85.3998 183.991 84.674 186.588 83.636L186.661 75.7961H186.67ZM202.222 96.0922C203.058 97.0796 203.039 97.6113 204.565 98.4974C210.076 101.696 211.12 96.8349 211.537 92.7841C211.773 90.4886 211.574 86.5897 210.139 84.5812C207.779 81.2646 201.478 82.8849 199.48 85.9484C199.735 90.3958 199.181 92.5056 202.222 96.0922ZM194.65 86.5391C193.443 85.3154 185.962 87.6531 184.327 88.4295C184.146 92.2608 181.413 95.9741 183.229 99.7295C184.582 102.531 192.308 102.776 194.523 101.063C194.968 100.725 197.174 97.4847 197.274 96.9024C197.537 95.3918 196.557 90.2945 195.985 88.7417C195.867 88.4295 195.368 88.4042 195.204 88.1172C194.941 87.6615 195.023 86.9104 194.65 86.5391ZM179.379 89.67L169.338 87.3239C165.515 86.9357 164.253 92.1765 163.246 94.8179C163.119 95.147 162.628 95.1048 162.51 95.4087L162.12 97.2399C163.409 99.6451 164.426 101.173 167.395 101.839C175.312 103.612 179.679 96.0922 179.388 89.6616L179.379 89.67ZM163.582 103.958C163.346 103.671 160.395 102.168 159.905 102.05C157.453 101.46 150.244 100.776 147.82 101.476C144.588 102.413 144.57 103.915 143.444 106.515C143.253 106.953 142.618 107.012 142.582 107.08C142.509 107.223 142.455 110.008 142.536 110.278C143.054 111.975 146.567 112.633 148.238 112.886C152.423 113.511 156.028 113.173 159.768 111.249C160.558 110.152 161.23 108.776 162.011 107.696C162.919 106.439 164.953 105.679 163.573 103.974L163.582 103.958ZM200.987 119.14C201.224 118.659 201.042 118.076 201.233 117.595C202.44 114.641 202.431 111.249 201.95 107.991C201.514 105.029 200.642 104.093 198.99 101.654L195.676 102.784C194.923 104.759 188.395 103.417 187.923 105.603C187.569 107.266 187.632 113.274 187.977 115.047C188.204 116.211 189.566 118.169 190.483 119.038C192.789 121.216 195.15 122.853 198.355 121.216C198.781 120.996 200.869 119.334 200.978 119.123L200.987 119.14ZM59.753 104.481C58.3276 102.844 58.3458 102.287 55.7764 102.261C54.8594 104.911 55.4768 111.671 59.7258 110.473C61.015 110.11 61.5507 106.304 60.8335 105.274C60.552 104.877 59.9982 104.759 59.7621 104.489L59.753 104.481ZM183.165 104.725C180.514 103.004 172.47 104.751 169.356 105.139C167.177 109.924 161.439 116.92 168.012 120.979C172.007 123.452 179.061 123.587 181.967 119.73C183.919 117.139 185.626 110.186 184.763 107.198C184.727 107.055 183.292 104.81 183.165 104.725ZM140.493 114.371C140.058 113.949 139.885 113.359 139.295 112.92C137.08 111.274 136.825 112.76 135.046 112.954C133.385 113.139 130.679 112.177 128.282 112.54C125.685 112.937 124.805 115.401 123.997 117.46C123.733 118.135 122.789 120.996 122.735 121.545C122.544 123.309 123.116 124.912 124.287 126.262L133.321 127.131C136.689 125.714 141.093 121.924 142.001 118.599C142.908 115.274 142.436 116.228 140.503 114.363L140.493 114.371ZM305.887 113.722C304.634 114.085 305.406 117.722 307.149 117.266C308.42 116.895 307.594 113.224 305.887 113.722ZM160.912 116.726C160.44 115.933 160.377 115.114 159.678 114.506C159.069 115.713 157.735 114.878 157.417 114.996C157.362 115.021 157.362 115.587 157.026 115.654C155.438 115.975 153.513 116.312 151.988 115.772L150.971 116.861C150.644 114.895 146.849 115.62 145.705 116.903C144.742 117.983 143.571 123.528 143.762 124.929C143.816 125.325 144.316 126.6 144.561 126.853C144.842 127.148 149.491 129.056 149.89 129.072C150.844 129.115 151.661 128.296 152.478 128.127C153.885 127.84 156.409 128.575 158.052 127.79C158.252 127.697 160.676 125.452 160.921 125.123C162.401 123.216 163.146 121.038 162.401 118.734C162.356 118.608 161.049 116.929 160.912 116.701V116.726ZM64.0293 118.22C62.2952 120.692 63.2213 126.439 67.3432 125.486C69.6583 124.954 70.5662 122.338 70.0306 120.422C69.9125 119.992 67.7517 117.047 67.3795 116.929C66.1447 116.549 64.683 117.283 64.0293 118.22ZM113.565 126.363C110.06 125.165 105.348 124.06 102.361 121.958C101.671 121.477 101.063 119.933 100.237 120.068C97.7581 121.874 97.1135 124.878 96.0059 127.326C95.8969 127.562 95.4611 127.587 95.3431 127.857C94.644 129.52 93.8904 130.853 95.2795 132.49C96.3872 133.79 103.06 137.36 104.685 137.233C106.401 137.098 109.67 134.684 110.614 133.275C110.959 132.76 110.532 131.697 111.885 130.929L113.565 126.355V126.363ZM76.8671 122.937C76.4041 123.106 74.8334 124.439 74.6609 124.794C74.1888 125.773 76.0319 130.473 78.0837 129.748C80.2627 128.971 81.5429 121.275 76.8671 122.937ZM174.658 125.832C173.015 126.541 167.422 124.524 165.27 124.811C163.654 128.009 160.604 130.22 157.108 131.494C156.218 136.87 155.465 142.305 160.585 146.06C162.102 146.778 166.814 146.55 168.475 145.985C170.273 145.377 170.936 143.917 171.844 142.491C172.942 140.769 172.652 139.081 173.242 136.997C173.832 134.912 175.62 132.954 176.32 130.769C176.946 128.836 177.246 127.191 176.882 125.182C175.248 124.583 174.831 125.764 174.649 125.84L174.658 125.832ZM192.063 126.87C191.89 126.743 188.259 125.317 188.041 125.266C186.27 124.895 183.329 125.663 181.458 125.579C180.151 126.288 180.333 127.486 179.833 128.414C179.679 128.693 179.189 128.743 179.061 129.039C177.545 132.44 178.716 135.419 178.181 138.972C179.824 138.651 179.252 139.79 179.879 140.347C181.749 142.035 188.676 146.575 190.683 143.318C191.227 142.432 192.662 137.208 192.789 136.018C193.007 133.967 192.962 132.786 193.334 130.558C193.479 129.663 192.816 127.41 192.063 126.861V126.87ZM123.234 128.423C123.062 128.338 119.63 128.06 119.366 128.068C119.058 128.077 115.626 128.591 115.462 128.693C115.063 128.929 114.554 129.613 114.327 130.026C113.892 130.802 111.241 136.634 111.15 137.275C110.995 138.423 111.377 140.524 112.412 141.259C112.966 141.655 113.756 141.562 114.082 141.79C117.251 144.001 120.065 146.364 124.405 145.098C126.911 144.364 126.303 143.495 127.583 141.951C128.019 141.427 129.344 140.398 129.889 139.765C129.98 137.976 134.193 129.874 133.121 129.123C131.687 128.887 129.68 130.33 128.654 130.279C128.128 130.254 127.111 129.562 126.276 129.368C124.487 128.954 124.678 129.165 123.243 128.423H123.234ZM153.095 131.098C151.679 131.157 149.881 130.718 148.61 130.684C145.333 130.608 144.742 130.541 141.683 130.127C141.075 130.043 138.178 130.153 137.688 130.389C134.065 132.119 132.395 140.178 134.447 143.402C134.556 143.571 136.48 145.546 136.626 145.605C137.316 145.858 138.069 145.605 138.768 145.79C139.567 146.001 139.84 146.989 140.639 147.217C143.281 147.968 148.737 145.833 150.362 143.773C151.261 142.634 153.095 138.98 153.095 137.621V131.106V131.098ZM76.0409 140.069C76.6765 139.427 77.3756 136.128 76.8399 135.419C71.5649 133.132 71.1201 137.874 72.7725 141.368C72.954 141.52 75.7958 140.313 76.0409 140.069ZM97.286 136.744C96.5234 136.49 94.0993 136.237 93.4365 136.609C93.4728 137.815 92.4106 138.271 92.2471 138.744C91.4028 141.174 90.8217 146.702 91.8113 149.124C92.0837 149.799 96.5597 151.706 97.4222 151.867C101.226 152.567 105.303 149.723 106.474 146.423C106.737 145.681 107.545 142.541 107.564 141.934C107.564 141.773 106.992 141.849 106.783 141.461C106.61 141.132 106.992 140.457 106.519 140.136C106.047 139.815 104.513 139.866 103.778 139.596C101.662 138.828 98.8113 137.258 97.2769 136.744H97.286ZM127.592 148.474C127.338 148.238 121.591 148.398 120.438 148.204C116.434 147.537 114.663 143.866 112.412 148.795C112.085 149.512 110.378 154.002 110.369 154.584C110.36 155.757 110.823 157.85 111.658 158.745C111.84 158.939 115.717 161.74 115.953 161.859C118.477 163.108 122.09 162.846 124.287 161.124C125.095 160.491 127.883 155.301 127.855 154.601C127.846 154.322 127.229 153.917 127.174 153.403C127.093 152.643 128.128 148.964 127.592 148.474ZM138.06 148.634C135.436 147.596 133.902 146.162 131.905 148.347C129.39 151.09 130.57 153.192 130.497 156.137C130.47 157.048 129.889 157.892 129.871 158.88C129.853 159.867 130.479 163.614 130.842 164.618C131.178 165.538 135.609 170.213 136.535 170.787C136.953 171.04 140.421 171.741 140.929 171.682C141.165 171.656 144.733 169.488 144.897 169.31C145.087 169.099 146.15 166.821 146.268 166.433C147.339 162.787 146.576 158.626 146.685 154.998C146.713 154.12 148.61 151.225 146.822 150.457C145.941 150.078 142.355 150.322 141.065 150.052C140.884 150.01 138.523 148.812 138.069 148.634H138.06ZM177.645 147.824C177.128 147.63 174.322 147.748 173.914 147.934C171.135 149.191 171.544 155.605 172.697 157.715C173.287 158.795 177.945 162.677 179.207 163.124C182.112 164.171 185.68 164.196 188.749 163.833C189.412 161.631 187.786 159.791 188.703 157.462L187.305 151.251C184.799 149.099 182.675 148.761 179.443 148.238C178.862 148.145 178.154 148.44 177.963 148.407C177.709 148.356 177.772 147.866 177.654 147.824H177.645ZM155.801 165.715C158.107 167.184 166.405 167.783 168.176 165.462C170.491 162.441 168.266 158.154 168.003 154.964C167.912 153.824 168.847 151.065 167.531 150.272C166.787 150.052 165.906 149.748 165.143 149.689C163.091 149.529 160.64 149.605 158.497 149.495C155.783 149.352 152.296 147.791 151.189 151.04C150.989 151.613 150.471 153.976 150.372 154.626C149.845 158.095 149.963 160.061 152.46 162.711C153.068 163.361 155.147 165.302 155.801 165.724V165.715ZM101.19 154.837L93.1641 154.01C93.7633 156.643 92.4469 159.065 93.5908 161.909L95.4611 161.462L101.571 155.799L101.19 154.846V154.837ZM113.392 163.656C112.484 163.15 111.613 162.517 110.75 161.943C107.509 162.838 106.828 169.319 108.689 171.386C109.243 172.002 111.113 172.205 111.958 172.627C112.158 172.728 113.365 173.699 113.474 173.732C117.986 175.184 124.097 173.859 124.541 168.72C124.932 164.188 120.492 166.019 117.315 165.369C115.353 164.973 114.809 164.449 113.401 163.665L113.392 163.656ZM193.588 172.872C193.379 172.5 193.806 172.078 193.661 171.758C192.989 170.264 191.037 168.036 189.33 167.547C187.777 167.099 186.17 167.504 184.818 167.395C182.738 167.234 180.405 166.424 178.135 167.277C177.291 168.365 178.19 171.378 178.889 172.475C179.27 173.074 180.087 173.15 180.242 173.631C180.369 174.028 179.96 174.56 180.124 174.973C180.333 175.522 186.652 180.07 187.441 180.391C188.15 180.678 193.751 181.269 194.124 180.897C195.259 179.083 195.594 176.838 194.732 174.855C194.569 174.467 193.761 173.159 193.597 172.88L193.588 172.872ZM131.296 170.382C131.142 170.281 130.706 170.517 130.388 170.213C129.934 169.783 128.527 167.462 128.237 167.454L125.132 174.45C125.713 179.201 127.601 182.594 133.148 179.918C134.202 179.412 135.645 178.129 135.945 177.057C136.09 176.543 136.154 173.378 135.89 172.973C135.754 172.762 132.186 170.973 131.305 170.391L131.296 170.382ZM162.138 181.539C163.7 182.29 168.148 183.606 169.837 183.589C171.989 183.573 173.56 183.058 174.513 181.218C176.483 177.412 174.195 171.682 171.798 168.399C171.371 168.104 170.954 168.323 170.518 168.382C168.911 168.601 163.963 170.576 163.082 170.576C162.419 170.576 161.866 169.985 161.285 169.901C159.714 169.69 158.107 169.639 156.545 169.437C155.338 171.302 156.491 172.323 156.809 173.673C156.999 174.5 156.872 175.252 157.163 176.129C157.453 177.007 161.439 181.21 162.138 181.547V181.539ZM151.352 172.61C149.137 172.703 146.54 175.446 145.541 177.226C145.115 177.994 144.461 179.345 144.643 180.197C145.178 182.644 147.956 183.767 149.691 185.412C150.698 186.366 151.924 188.493 152.85 189.185C155.456 191.126 158.988 187.539 159.678 185.201C160.558 182.231 158.588 182.712 156.908 181.066C154.484 178.703 152.814 175.547 151.343 172.602L151.352 172.61ZM109.216 183.935L110.941 176.382C110.696 175.218 106.928 173.699 105.775 173.015C104.086 174.703 98.0577 177.589 98.7568 180.205C99.1382 181.606 101.898 181.648 103.042 182.087C104.077 182.484 104.722 182.956 106.347 183.437C107.237 183.699 108.099 184.847 109.216 183.935ZM123.252 185.134C124.196 183.589 123.189 179.775 122.072 178.298C119.503 174.914 114.337 177.066 113.656 180.669C113.32 182.433 114.309 184.847 115.444 186.239C116.652 187.725 117.305 187.725 119.267 187.539C121.391 187.336 120.937 186.898 122.045 185.784C122.353 185.471 123.134 185.336 123.252 185.142V185.134ZM188.803 183.64C185.235 182.923 181.758 182.307 178.426 180.855L177.237 183.581L176.02 183.851C175.711 190.054 181.059 195.489 187.323 197.092C189.212 197.573 191.99 197.826 192.535 195.598C192.644 195.159 192.653 191.016 192.544 190.628C192.226 189.497 189.248 185.606 188.422 184.754L188.803 183.632V183.64ZM112.72 188.383C109.361 186.889 105.548 186.957 102.162 186.138C99.0928 185.395 97.0772 183.091 94.4624 182.627C91.7115 182.138 90.1499 182.568 87.644 183.437C80.8619 185.792 72.3276 190.273 66.408 194.121C65.8814 194.467 65.7362 195.126 65.4002 195.345C64.8101 195.733 62.5222 196.535 61.8049 196.594C59.7712 196.771 55.5857 193.902 52.7984 195.084L52.7349 193.97C49.993 193.303 48.1409 192.054 45.1538 193.126C44.7816 196.223 48.0228 197.733 50.4924 198.991C51.3821 199.447 52.5533 199.388 53.3886 199.869C54.015 200.223 53.9878 201.379 55.3224 201.016L54.8503 203.337L42.9022 203.312C37.6908 201.86 33.46 198.721 27.7946 199.961C27.5949 200.915 26.4691 200.628 25.8335 201.067C23.482 202.704 22.3744 206.89 26.3056 206.822C28.9658 206.78 32.9697 205.919 35.8478 205.987C37.2732 206.021 39.0527 206.949 40.4418 206.552C40.6415 208.671 40.3419 207.776 39.8244 207.979C35.6389 209.599 32.5157 208.468 28.7116 210.662L19.2693 218.485C19.8776 220.73 18.4976 222.19 20.3044 224.283C21.2395 225.372 23.4366 225.481 24.9165 225.473C28.1396 225.439 31.5624 222.933 34.3406 221.422C36.3744 220.317 38.6623 219.49 40.5417 218.688C41.8763 218.122 42.9204 217.684 43.8283 219C41.6402 220.283 40.8957 222.933 39.5157 224.857C37.1461 228.157 34.5222 230.081 34.032 234.393C33.5417 238.706 36.9282 239.718 40.5689 238.064C40.6869 238.014 42.5027 236.807 42.5845 236.714C43.7647 235.473 45.0994 231.954 46.2343 230.309C49.2758 225.903 52.4898 223.751 56.3847 220.393C57.8827 219.101 58.5728 217.329 60.7699 216.755L60.4249 216.055C62.5222 215.869 63.9476 212.924 65.5546 211.92C70.2485 209 82.0967 206.265 87.8074 204.949C88.4248 204.805 88.9514 204.265 89.5688 204.181C90.7128 204.037 94.0902 205.244 94.6259 206.156C95.2977 205.194 96.7322 205.337 97.5312 204.898C99.0655 204.054 100.264 200.147 101.353 199.168C103.542 197.176 108.844 198.172 110.051 196.586C110.832 195.565 110.414 192.417 110.66 191.733C110.732 191.531 113.029 189.455 112.702 188.383H112.72ZM133.838 185.733C133.657 185.53 130.643 183.218 130.443 183.134C127.973 182.138 126.176 184.357 126.339 186.568C126.466 188.248 127.583 188.003 128.554 188.763C129.008 189.109 129.154 189.758 129.471 189.978C132.095 191.775 135.436 187.48 133.848 185.733H133.838ZM171.299 186.864C167.113 185.775 165.034 186.661 163.636 190.51C163.4 191.151 163.763 191.792 163.691 192.071C163.609 192.375 162.937 192.164 162.837 192.889C162.574 194.704 163.055 198.189 163.918 199.852C164.971 201.877 171.317 205.43 173.714 205.388C174.522 205.371 177.981 204.949 178.135 204.341C177.4 202.004 178.544 201.303 177.273 198.974C176.274 197.134 176.973 197.742 176.637 196.265C176.111 193.944 172.751 191.303 171.707 189.058C171.353 188.307 171.435 187.632 171.317 186.864H171.299ZM121.518 196.552C122.653 195.776 123.043 193.59 122.689 192.341C120.737 185.446 109.643 193.581 116.588 196.434C117.914 196.982 120.265 197.404 121.518 196.552ZM208.523 196.915C207.08 194.687 206.853 195.716 204.519 194.889C202.349 194.121 196.893 190.83 196.094 194.214C195.949 194.847 196.375 197.683 196.666 198.24C197.519 199.869 204.991 201.261 206.671 200.864C207.706 200.62 209.34 198.383 209.195 197.337C209.159 197.092 208.623 197.075 208.514 196.915H208.523ZM158.071 194.408C157.371 193.877 152.923 194.383 152.16 194.704C151.86 194.83 150.163 196.535 149.8 196.645C148.265 197.1 145.814 196.89 144.207 196.687C143.553 199.531 142.536 201.312 144.352 204.021C146.168 206.73 151.588 209.742 155.029 209.658C157.962 209.582 160.159 209.228 160.359 205.97C160.458 204.367 160.24 197.387 159.65 196.316C159.587 196.197 158.17 194.493 158.071 194.417V194.408ZM191.237 200.729L184.137 199.219C181.976 201.607 179.869 205.227 180.65 208.401C182.648 216.544 188.349 220.485 197.41 219.186C198.799 217.895 199.262 215.304 198.899 213.557C198.118 209.793 194.205 206.637 192.499 203.683C192.117 203.025 191.763 201.109 191.237 200.721V200.729ZM111.631 204.367C113.247 203.337 115.889 201.371 113.02 200.113C111.84 199.598 110.006 201.05 108.944 201.21C108.126 201.337 106.719 200.577 106.102 201.396C104.386 203.691 108.372 205.995 111.095 204.94C111.468 204.797 111.486 204.459 111.622 204.367H111.631ZM139.068 209.32C139.113 207.658 138.305 201.193 136.653 200.704C134.81 200.155 135.509 201.067 135.082 201.649C134.656 202.231 134.165 202.375 133.857 203.396C132.912 206.544 135.736 209.405 139.059 209.32H139.068ZM212.872 206.687C209.422 203.675 202.885 203.236 202.004 208.367C201.432 211.692 202.113 210.721 203.757 212.105C204.274 212.544 205.273 213.869 205.709 214.046C206.562 214.392 212.173 215.422 213.308 215.481C215.959 215.608 218.746 215.228 219.981 212.84C222.142 208.662 216.685 210.316 214.179 208.552C213.517 208.088 213.444 207.202 212.872 206.696V206.687ZM166.578 206.265C166.16 206.105 164.081 206.223 163.918 206.51C164.208 209.979 161.53 212.029 162.565 215.329C162.946 216.553 165.27 219.979 166.569 220.291C167.867 220.604 169.329 220.941 170.654 221.228C173.514 221.853 179.978 222.95 180.078 219C180.133 217.034 178.317 212.215 176.882 210.696C174.24 207.894 170.573 208.088 167.023 206.907C166.732 206.806 166.678 206.308 166.569 206.265H166.578ZM130.87 210.223C130.742 210.088 129.762 209.666 129.726 209.709C129.862 211.337 128.464 213.979 128.482 215.447C128.482 216.055 129.226 220.553 129.399 221.262C129.916 223.422 133.212 227.102 135.382 227.954C136.244 228.292 136.989 227.878 137.161 227.929C137.434 228.013 137.189 228.697 137.979 228.697C139.349 228.697 140.639 228.064 141.22 226.899C142.119 225.118 141.528 223.785 141.22 222.089C141.075 221.304 141.102 219.886 140.984 218.958C140.893 218.207 140.403 217.371 140.593 216.401C140.194 215.911 136.099 215.658 134.937 215.101C134.828 215.051 133.167 213.844 133.085 213.759C132.286 212.958 131.541 210.89 130.861 210.207L130.87 210.223ZM159.042 213.27C154.802 214.164 150.844 210.882 146.822 211.574C144.979 212.392 144.534 218.941 145.215 220.789C145.95 222.756 149.082 226.249 151.152 227.11C151.57 227.287 156.055 228.427 156.427 228.46C159.941 228.756 161.294 226.367 161.076 223.372C160.812 219.819 157.662 217.194 159.051 213.27H159.042ZM227.308 222.891C226.554 222.072 225.483 220.308 225.347 220.19C225.092 219.979 221.86 218.106 221.642 218.072C221.361 218.03 218.365 218.325 217.984 218.409C217.639 218.485 217.702 219.059 217.484 219.127C217.23 219.203 215.578 218.603 214.606 218.857C213.971 219.025 212.382 220.882 212.291 221.414C212.155 222.165 214.216 226.739 214.878 227.355C216.83 228.342 218.628 229.659 220.762 230.351C223.449 231.22 229.741 231.887 232.129 230.427C234.816 228.79 229.913 226.131 228.76 224.916C228.17 224.291 227.88 223.498 227.308 222.882V222.891ZM209.767 228.14C209.349 227.532 209.395 226.638 208.941 225.937C207.334 223.481 206.644 222.452 203.257 222.131C201.587 221.971 200.697 222.933 199.38 223.042C198.772 223.093 195.939 223.144 195.431 223.093C192.635 222.815 189.339 220.907 186.697 222.992C186.924 223.777 186.697 224.95 186.842 225.616C187.432 228.308 191.1 233.296 193.361 235.355C196.893 238.562 208.024 241.102 212.6 239.06C215.024 237.98 215.087 235.701 214.388 233.507C213.98 232.233 210.693 229.482 209.776 228.14H209.767ZM303.944 223.566C298.061 223.194 296.018 229.6 298.851 233.583C301.039 234.275 300.676 232.326 302.483 232.241C304.625 229.811 304.671 226.511 303.935 223.557L303.944 223.566ZM182.285 224.84C180.868 223.017 178.045 225.102 176.265 225.135C174.867 225.161 171.462 224.182 169.801 224.005L167.313 225.093C166.868 230.663 168.884 235.726 174.377 238.334C174.885 238.579 177.927 239.718 178.553 239.895C184.89 241.71 188.177 238.933 185.798 232.933C185.68 232.629 185.063 232.562 184.954 232.342C183.946 230.131 183.955 228.418 182.838 226.435C182.548 225.92 182.602 225.254 182.285 224.848V224.84ZM149.945 229.237C148.873 228.747 147.729 227.726 146.286 228.047C146.34 229.051 144.643 230.385 144.606 230.528C144.198 232.241 144.515 234.359 145.687 235.769C147.185 237.575 151.062 241.33 153.231 242.579C158.261 245.465 170.318 248.807 168.285 239.254C167.831 237.136 166.26 237.161 165.161 236.039C163.845 234.705 163.164 232.933 161.929 231.558C159.26 231.372 156.391 231.203 153.749 230.68C151.86 230.309 151.307 229.853 149.963 229.237H149.945ZM54.4872 228.671H52.3626C52.862 230.275 51.4093 232.435 53.8425 233.018L54.4781 228.671H54.4872ZM239.628 235.153C238.212 234.469 237.14 233.802 235.515 233.608C234.19 234.663 228.878 234.672 228.089 235.364C226.572 236.689 228.915 240.528 230.122 241.55C230.24 241.651 230.676 241.448 230.858 241.566C234.934 244.402 240.581 246.098 245.893 245.626C249.434 245.305 251.694 243.879 252.348 240.503C251.004 238.908 249.461 239.389 248.126 238.925C244.867 237.786 242.533 236.562 239.619 235.144L239.628 235.153ZM302.129 245.533C302.265 245.389 304.226 242.393 304.28 242.208C305.07 239.676 305.379 235.144 301.221 236.587C297.834 237.769 292.632 243.246 290.217 245.921C289.363 246.866 287.62 247.221 288.31 249.33C289 251.44 291.324 250.107 291.851 250.149C292.26 250.183 292.614 250.79 292.705 250.782C293.05 250.765 293.195 249.803 293.404 249.685C293.531 249.609 294.203 249.963 294.62 249.828C297.871 248.816 298.125 248.605 300.404 246.512C300.867 246.081 301.711 245.955 302.12 245.524L302.129 245.533ZM225.919 243.541C224.248 241.921 223.331 238.976 220.462 238.511L219.772 238.731C219.1 241.246 214.08 242.588 211.483 242.849C208.441 243.153 204.628 241.803 203.294 245.389C206.135 250.09 210.094 252.715 215.224 254.791C215.605 254.942 215.569 255.466 215.868 255.533C216.622 255.702 219.5 254.883 220.498 254.782C221.987 254.63 223.14 254.529 224.684 254.335C226.554 254.09 229.233 254.352 231.112 254.715C232.465 253.761 235.561 251.601 235.107 249.896C234.916 249.179 227.326 244.917 225.919 243.541ZM195.168 239.735C194.369 240.25 193.325 239.566 192.626 239.904C191.191 240.596 191.155 242.748 188.041 243.178C187.251 243.288 183.174 243.254 182.312 243.204C180.314 243.077 176.41 241.288 175.003 243.313C174.731 243.701 174.776 244.351 174.522 244.841C174.313 245.237 173.678 245.524 173.578 245.913C172.988 248.427 180.133 252.233 182.294 253.086C185.807 254.461 194.65 256.394 198.3 256.293C201.151 256.217 202.767 255.12 202.195 252.369C201.287 248.014 196.511 247.077 195.186 241.896C195.013 241.229 195.222 240.436 195.159 239.744L195.168 239.735ZM267.31 252.689C267.501 252.579 267.664 251.938 268.109 251.651C268.799 251.204 270.415 250.309 270.824 249.82C271.75 248.723 272.277 242.486 270.842 241.912C269.108 241.862 267.156 242.402 265.504 242.495C262.172 242.672 260.319 242.039 257.405 243.651C255.172 244.891 253.347 247.06 250.814 247.87C250.505 248.436 252.012 251.778 252.203 251.913C252.493 252.124 253.256 251.845 253.71 252.09C258.104 254.487 261.291 254.563 266.175 252.647C266.539 252.504 267.083 252.833 267.328 252.698L267.31 252.689ZM248.907 254.58C248.253 254.073 245.72 251.457 245.112 251.592C243.668 254.2 241.199 255.559 238.52 256.926C238.166 258.04 239.12 257.744 239.265 258.107C240.491 261.044 240.309 260.318 242.606 262.403C249.116 268.319 253.819 268.344 262.517 266.816C263.152 266.707 263.878 267.129 264.895 266.825C266.048 266.479 268.255 263.061 268.091 262.217C267.519 259.381 262.317 259.879 260.12 259.356C257.405 258.715 253.919 256.9 251.258 255.795C250.006 255.272 250.605 255.896 248.916 254.563L248.907 254.58ZM282.999 257.77C283.689 257.128 284.315 255.98 285.196 255.348C283.734 252.951 283.035 252.816 280.42 252.369C279.93 252.284 279.431 251.752 279.095 251.744C278.759 251.736 273.584 253.035 272.858 253.288C272.195 253.516 271.26 253.71 270.815 254.234C269.181 260.85 275.59 259.356 280.293 259.812C280.457 259.77 282.681 258.065 282.999 257.778V257.77ZM302.201 255.204C302.138 255.111 300.549 254.453 300.158 254.58L286.794 260.31C284.542 263.795 288.238 265.677 291.76 264.529C292.396 264.318 292.705 263.635 293.231 263.491C293.876 263.323 294.566 263.778 295.065 263.618C295.492 263.474 301.184 258.394 301.548 257.803C301.965 257.12 302.719 255.955 302.201 255.196V255.204ZM120.519 257.364C119.584 256.824 119.212 255.516 117.16 255.499C116.443 255.499 116.624 256.141 116.216 256.293C115.517 256.554 114.899 256.394 114.001 256.926C112.739 257.677 108.381 262.799 107.972 263.981C107.046 266.664 107.291 268.116 107.972 270.817C108.798 274.15 110.714 277.618 111.422 280.277C113.147 286.75 112.739 295.079 112.248 301.957C112.094 304.117 112.021 303.274 111.849 303.991C111.676 304.708 112.203 305.788 111.84 307.037C110.877 310.337 105.421 313.637 102.089 314.514C95.8788 316.143 89.9683 314.649 85.2017 312.042C79.609 308.978 77.7569 303.915 72.5364 300.193C72.0915 299.881 72.0461 299.079 71.6285 298.978C69.6674 298.522 70.5572 299.324 70.4028 299.813C69.4858 302.7 70.4573 301.299 70.6389 302.016C70.8114 302.691 70.4936 303.569 70.657 304.312C71.2199 306.978 75.1693 309.67 77.0215 311.831C77.4573 312.337 78.7919 313.848 79.0007 314.135C80.0357 315.586 81.3794 318.742 79.0007 319.502C77.3665 319.021 76.1136 317.325 74.7699 316.683C69.6129 314.228 64.8918 313.46 59.4716 312.405C59.3536 312.379 57.8283 310.987 57.6648 310.945C55.9761 310.565 48.386 310.557 46.9515 311.4C44.0008 313.13 46.3977 314.785 48.9308 315.341C53.3977 316.32 57.1201 318.321 61.3873 319.24C63.2666 319.645 65.6635 319.359 67.2524 319.73C67.4521 319.772 67.6337 319.873 67.8334 319.907C68.5779 320.776 67.9605 321.249 66.9982 321.494C63.7388 322.329 58.8996 322.911 55.9489 324.059C55.1227 324.38 51.9722 326.186 50.7829 326.777C50.4016 326.971 48.0682 329.637 47.4872 330.228C46.3977 331.325 45.6804 330.785 46.0345 333.114C46.3523 335.233 46.8153 335.368 49.1668 335.376C51.6817 335.376 56.6571 333.773 59.3626 332.996C62.9761 331.95 66.3445 330.237 70.076 329.578C71.7919 329.275 79.264 328.439 79.954 330.059C80.3081 330.566 79.1188 331.671 78.683 331.95C76.2044 333.536 70.5572 336.186 68.9229 338.406C68.6687 338.752 66.6259 341.959 66.526 342.161C66.4625 342.296 66.0812 344.786 66.0902 344.98C66.1992 347.005 68.1058 348.415 70.2576 348.17C71.9281 347.984 71.7556 347.081 72.3367 346.322C76.3315 341.072 79.5001 334.794 86.5727 331.806C88.2432 331.097 93.155 330.313 93.8087 329.857C95.9151 328.372 94.5441 325.367 97.3859 325.907C97.168 327.283 99.8191 330.043 101.099 330.152C101.871 330.22 104.35 328.768 105.484 329.443L106.338 324.701C107.11 324.658 106.855 325.798 107.255 326.194C107.455 326.388 112.294 327.485 112.802 327.384C114.273 327.106 118.286 324.945 118.876 323.485C119.793 321.181 116.879 316.962 120.32 316.042C122.117 319.544 126.094 319.013 127.755 315.578C129.635 311.704 126.484 311.198 125.077 308.354C126.893 306.193 127.61 308.126 128.99 308.413C131.914 309.029 135.663 302.944 133.975 301.594C133.811 301.459 133.148 301.653 132.813 301.484C130.842 300.472 128.881 298.159 127.656 296.387C126.92 295.324 127.165 293.83 125.531 293.4L126.957 287.94C126.53 287.264 122.635 286.463 121.754 285.864C121.609 285.762 119.548 283.501 119.512 283.34C118.794 280.226 120.501 277.762 121.091 275.028C121.436 273.416 121.182 271.762 121.627 270.192C119.239 270.234 118.014 269.652 115.944 271.357L114.918 270.327C114.745 268.825 116.107 269.188 116.425 268.901C117.623 267.829 117.823 267.61 119.33 266.47C120.474 265.601 120.964 264.234 122.108 263.339C123.034 262.614 126.902 261.246 125.613 259.879C124.814 259.027 121.881 258.175 120.51 257.398L120.519 257.364ZM146.159 257.635C145.977 257.466 143.426 256.487 143.008 256.419C140.221 255.947 137.824 256.099 136.953 258.943C135.963 262.192 139.132 263.23 141.156 265.247C142.727 264.614 145.06 264.799 146.059 263.424C146.985 262.141 147.421 258.799 146.159 257.643V257.635ZM214.179 264.116C214.252 263.972 214.279 261.247 214.216 260.968C213.362 257.128 203.439 259.888 201.596 262.107C200.833 263.027 200.415 266.462 200.761 267.508C201.096 268.504 206.054 271.77 207.361 272.04C210.121 272.614 211.338 270.749 212.391 268.58C213.199 266.926 213.371 265.643 214.17 264.107L214.179 264.116ZM225.51 269.947C227.226 269.095 228.152 268.293 228.824 266.47C230.649 261.517 222.006 257.702 220.135 261.162C219.509 262.318 219.545 267.897 219.908 269.086C219.972 269.289 221.243 270.918 221.361 270.935C222.169 270.546 224.702 270.622 225.247 270.42C225.329 270.386 225.356 270.023 225.51 269.947ZM133.448 263.534C130.497 263.314 128.455 264.521 126.421 266.268L126.294 271.846C127.065 272.158 127.583 273.179 128.019 273.458C128.573 273.812 132.549 273.07 133.021 272.817C133.303 272.665 136.526 268.167 136.717 267.762C137.933 265.171 134.592 265.449 133.448 263.525V263.534ZM156.264 270.344C156.79 269.973 159.323 267.061 159.342 266.808C159.405 266.082 158.17 264.074 157.081 263.955C152.977 263.517 149.618 272.184 155.764 270.943C156.082 270.876 156.1 270.462 156.264 270.344ZM277.361 271.492C278.414 270.521 279.912 269.551 278.196 268.209C273.992 268.8 270.297 267.753 266.139 269.365C265.858 272.656 272.794 273.264 275.227 272.901C276.68 272.69 276.571 272.209 277.352 271.492H277.361ZM137.062 271.433C136.508 272.715 136.762 277.239 137.597 278.429C138.097 279.129 141.047 279.948 141.919 279.922C145.759 279.779 146.704 270.361 142.591 269.449C141.547 269.221 139.704 269.179 138.823 269.728C138.714 269.795 137.107 271.323 137.062 271.433ZM218.819 274.656C218.192 274.277 216.495 273.568 215.832 273.745C214.098 276.243 210.493 275.517 208.423 277.72C208.332 280.893 209.168 287.61 213.952 287.028C216.694 286.691 218.029 285.45 219.137 283.155C220.044 281.273 220.88 275.905 218.819 274.665V274.656ZM194.859 285.847C196.012 286.969 200.443 287.037 201.505 285.323C201.995 282.64 205.209 279.948 203.984 277.188C203.856 276.893 202.549 275.163 202.386 275.07C201.777 274.732 201.16 275.213 200.534 275.154C200.179 275.12 199.862 274.563 199.39 274.665C199.217 274.699 196.539 276.251 196.421 276.361C194.977 277.72 193.352 284.378 194.859 285.847ZM131.269 282.657C132.195 281.711 133.067 279.703 132.504 278.462C132.05 277.45 130.234 277.205 129.317 276.656C128.01 275.872 127.701 274.42 125.477 275.07C124.569 275.635 125.54 276.53 125.413 277.045C125.377 277.196 124.033 277.973 123.634 279.61C123.007 282.192 123.897 283.872 126.739 284.589C128.573 285.053 130.062 283.889 131.269 282.657ZM233.3 276.589C232.356 275.888 227.471 274.04 227.408 276.023L226.627 275.677C227.38 277.332 226.109 279.484 226.218 280.994C226.273 281.745 227.925 285.02 228.561 285.534C229.36 286.184 232.183 287.003 233.227 286.952C235.779 286.817 237.086 282.682 235.897 280.682C235.606 280.184 234.934 280.1 234.834 279.948C234.607 279.61 234.707 277.627 233.309 276.589H233.3ZM138.977 288.015L132.468 288.319C132.014 290.691 129.453 294.075 131.641 296.218C132.141 296.699 132.704 296.725 133.221 297.037C133.503 297.206 133.493 297.737 133.829 297.805C134.338 297.915 136.036 297.94 136.426 297.729C137.025 297.417 140.158 291.526 140.13 290.665C140.103 289.805 139.404 288.783 138.968 288.024L138.977 288.015ZM210.53 299.062C210.648 298.877 211.356 298.927 211.583 298.421C212.246 296.91 211.056 293.003 209.821 291.889C208.587 290.775 203.566 289.872 202.495 291.577C202.404 291.72 201.614 294.539 201.569 294.86C201.296 296.666 203.03 303.544 205.164 303.729C207.461 303.923 207.543 302.911 208.55 302.16C209.104 301.746 210.457 301.13 210.675 300.59C210.875 300.109 210.275 299.459 210.539 299.062H210.53ZM225.537 302.725C227.117 301.501 226.037 301.915 226.218 300.438C226.581 297.4 227.78 294.505 225.528 291.881C225.401 291.729 222.087 290.471 221.733 290.471C220.589 290.471 217.747 291.4 217.366 292.556C217.248 292.927 216.812 295.653 216.821 296.041C216.821 296.261 218.211 299.94 218.347 300.159C218.501 300.421 221.552 303.046 221.924 303.147C223.476 303.594 224.402 303.594 225.546 302.717L225.537 302.725ZM235.824 294.387C233.137 293.163 232.437 294.235 230.404 295.282C230.304 298.328 232.238 301.375 230.322 304.413L225.347 307.476C225.737 307.915 226.164 308.286 226.663 308.615C228.978 310.109 235.334 309.915 238.702 310.472C241.78 310.978 249.969 312.692 252.085 314.228C256.479 317.409 258.858 327.722 258.83 332.768C258.821 334.625 258.531 337.511 256.188 337.714C253.338 335.891 252.756 333.595 248.48 334.119C247.699 334.211 247.926 334.853 247.572 334.929C244.885 335.528 245.638 334.422 245.175 333.908C241.598 330.026 239.156 328.54 233.836 326.836C231.548 326.101 228.034 326.253 225.964 327.418C226.354 330.169 229.196 332.043 231.729 333.055C233.572 333.79 236.341 334.017 238.048 334.768C239.891 335.579 243.505 338.06 240.009 339.14L233.046 337.131C228.47 337.022 223.585 338.558 219.854 341.089C217.766 342.507 214.906 344.237 216.44 346.879C217.257 348.28 218.637 347.545 219.563 347.63C224.448 348.094 231.875 347.562 236.487 345.874C237.059 345.663 239.465 344.609 239.9 344.398C240.482 344.127 241.072 343.182 242.261 342.938C243.532 342.676 244.594 342.887 244.894 344.212C244.322 346.811 241.444 346.6 239.683 347.571C237.74 348.642 233.391 355.014 237.413 355.512C239.083 353.318 241.553 352.01 243.886 350.6C248.144 348.018 249.288 348.415 253.338 346.929C254.454 346.516 255.226 345.604 255.353 345.596C256.497 345.486 258.594 347.292 261.545 346.372C263.334 345.815 264.668 344.127 266.166 343.073C266.838 342.6 268.236 342.651 269.28 341.233C271.151 338.701 266.657 338.684 269.099 336.051C270.57 334.465 274.973 334.819 275.427 333.097C275.944 331.123 273.194 331.376 273.085 330.422C273.03 329.975 273.557 329.241 273.557 328.692C273.548 327.545 272.957 325.612 273.584 324.684C273.802 324.355 274.746 324.034 275.254 323.477C278.36 320.059 273.874 321.105 273.003 319.865C272.867 319.679 273.266 319.038 273.039 318.498C272.168 316.38 270.724 313.569 267.846 314.422C266.566 310.978 271.768 309.924 272.44 307.409C272.812 305.999 270.778 304.725 269.535 305.088C268.064 305.527 266.421 309.637 264.024 309.282C263.833 306.539 262.053 303.265 260.183 301.181C259.638 300.573 252.52 295.265 251.939 295.028C250.759 294.556 247.155 294.328 246.265 295.155C245.965 295.434 246.011 296.058 245.766 296.345C245.057 297.172 244.095 297.408 243.868 298.97C243.559 301.029 248.744 309.518 242.379 305.501C238.993 303.366 240.536 301.172 239.474 298.328C239.265 297.763 236.305 294.623 235.833 294.404L235.824 294.387ZM213.607 307.89C214.288 308.202 214.96 308.995 215.868 309.181C217.375 309.493 221.86 309.552 222.823 308.303C224.956 305.535 218.574 303.282 216.649 302.303C215.714 302.16 211.41 305.62 211.31 305.974C210.738 308.008 212.382 307.096 213.235 307.383C213.489 307.468 213.48 307.831 213.607 307.89Z" fill="black"/>
<path d="M163.144 18.6709C163.308 18.7384 163.289 19.3038 163.48 19.2785C163.816 19.2363 164.361 18.7468 164.924 18.7131C168.056 18.5274 169.182 24.553 172.105 25.5066C173.676 26.0214 174.557 25.8863 176.291 26.9581C177.662 27.8105 182.256 32.4605 178.261 31.0089C177.199 30.6207 176.227 30.2072 174.847 29.5996C172.06 28.3675 169.908 26.7218 167.411 28.7725C166.73 29.3295 166.04 31.6841 164.806 32.182C164.651 32.241 161.719 32.9584 161.546 32.9499C160.974 32.9162 158.468 32.6208 157.833 32.5026C153.92 31.7938 151.577 27.7008 152.676 24.266L151.786 23.8441C152.885 19.1013 158.387 16.637 163.135 18.6793L163.144 18.6709ZM161.374 20.2237C160.983 20.2237 159.149 21.3545 158.85 21.6921C156.752 24.0719 158.514 29.5489 162.118 27.9033C165.341 26.4265 163.852 20.2068 161.374 20.2237Z" fill="black"/>
<path d="M164.034 50.4104C163.716 50.7311 161.455 51.5328 161.174 51.305C161.174 49.8703 160.184 45.1528 161.873 44.6296C164.47 43.8363 165.423 49.0433 164.034 50.4104Z" fill="black"/>
</svg>
