<svg width="328" height="371" viewBox="0 0 328 371" fill="none" xmlns="http://www.w3.org/2000/svg">
<g clip-path="url(#clip0_19_2396)">
<path d="M54.137 62.6914L52.9634 65.4622C51.9651 66.157 50.8525 63.9052 51.325 63.0848C51.8736 62.1389 53.2987 62.3063 54.137 62.6914Z" fill="black"/>
<path d="M183.475 197.768C183.086 196.428 181.409 195.759 181.6 194.118C182.621 193.047 186.523 197.299 183.475 197.768Z" fill="black"/>
<path d="M106.529 163.505H103.93C103.031 162.191 107.093 159.763 106.529 163.505Z" fill="black"/>
<path d="M232.505 255.755C231.408 256.399 228.985 253.838 228.047 253.109L229.571 249.962L231.583 245.96C233.61 246.488 232.079 248.773 233.184 250.238L232.505 255.755Z" fill="black"/>
<path d="M229.869 233.747C230.425 234.124 230.021 236.275 230.143 236.92C230.501 238.878 232.627 241.415 229.168 241.465C229.084 239.69 227.453 239.808 227.682 237.414L229.373 236.576L228.794 233.722L229.869 233.755V233.747Z" fill="black"/>
<path d="M195.98 368.672C196.072 368.681 196.171 368.697 196.262 368.706C198.922 368.965 200.598 368.003 202.953 367.994C207.533 367.986 212.959 369.108 217.455 369.007C227.659 368.798 238.237 367.643 248.303 368.43C257.494 369.149 266.517 370.087 275.433 370.857C276.576 370.958 279.198 371.368 279.51 370.045L279.906 361.649C278.024 361.147 276.081 358.602 277.308 356.584C277.666 355.99 278.26 355.94 278.481 355.638C280.539 352.834 283.374 350.281 284.921 346.983C285.538 345.668 285.652 344.22 286.209 342.697C286.689 341.382 288.045 339.85 288.228 338.796C288.297 338.411 288.571 335.029 288.54 334.836C288.091 332.425 286.574 327.637 285.698 324.891C285.393 323.937 284.296 323.251 284.334 321.258C284.38 318.923 285.469 319.877 286.018 319.567C287.611 318.672 290.735 317.583 291.772 316.57C292.32 316.035 294.942 312.067 295.163 311.456C295.254 311.188 295.018 309.087 295.216 308.492L290.598 305.42C290.743 304.416 289.905 303.344 289.813 302.775C289.417 300.339 291.49 295.425 290.491 293.081C289.005 289.582 286.315 287.899 283.381 286.166C282.962 285.924 282.368 286.284 281.789 285.924C281.682 285.857 280.059 284.183 280.043 284.049C279.845 281.964 281.789 280.65 282.391 279.285C282.589 278.833 283.358 273.961 283.351 273.484C283.351 273.074 282.787 271.006 282.612 270.697C282.177 269.935 281.56 270.194 281.286 269.91C281.065 269.675 281.072 268.88 280.645 268.378C280.371 268.051 277.3 265.088 277.087 264.962C276.645 264.686 275.966 265.172 275.494 265.004C272.575 263.983 269.801 262.392 266.479 261.89C264.802 261.639 262.889 261.313 261.487 262.309C262.645 264.351 262.013 266.578 262.203 268.78C258.881 269.642 257.852 267.817 255.916 265.724C255.429 265.197 254.781 264.895 254.423 264.494C253.767 263.757 254.545 262.711 252.594 263.054C252.746 260.609 251.672 260.869 250.75 259.563C250.254 258.86 249.904 257.085 249.492 256.658C248.799 255.93 247.877 255.771 247.381 254.206C246.032 249.953 245.011 245.006 244.935 240.862C244.897 238.928 244.501 236.626 244.729 234.701C244.813 234.006 245.286 234.198 245.461 233.788C245.865 232.826 246.109 231.218 247.351 230.674C247.846 230.457 248.372 231.369 248.639 230.046C249.111 230.892 250.849 230.406 250.986 230.515C251.161 230.658 251.192 231.277 251.436 231.461C251.977 231.863 259.933 231.771 261.289 231.67C265.427 231.361 269.176 229.469 272.872 228.448C273.406 228.297 274.899 228.498 275.799 228.205C277.475 227.652 283.488 223.174 284.913 221.7C285.606 220.98 285.949 219.541 286.048 219.465C286.155 219.382 286.963 219.423 288.076 218.218C289.645 216.519 292.854 211.622 293.334 210.24C295.079 205.285 295.323 202.104 295.887 197.198C296.214 194.385 296.893 192.075 296.07 189.02C295.757 187.873 294.827 187.354 294.667 186.952C293.852 184.934 294.172 181.536 293.524 179.535C293.006 177.919 290.507 176.078 289.729 174.613C287.847 171.047 287.748 166.895 284.677 163.103C282.078 159.896 279.8 158.172 277.209 154.355C275.288 151.517 274.656 150.981 272.362 148.671C271.645 147.951 271.485 146.436 271.104 145.858C269.367 143.213 266.517 142.208 264.665 139.37C263.118 137.01 261.868 132.297 261.693 129.258C261.579 127.241 261.861 123.474 263.735 122.477C263.964 122.36 268.43 121.364 268.673 121.423C268.933 121.481 268.91 122.117 268.978 122.151C269.176 122.251 269.649 121.824 270.114 121.942C272.4 122.553 275.395 124.838 277.353 126.604C279.159 128.237 279.144 129.626 280.341 131.443C279.144 138.232 282.459 149.432 288.403 152.27C288.967 152.538 291.017 152.856 291.581 153.107C295.361 154.74 298.226 155.401 302.524 154.882C303.073 154.815 304.94 154.539 305.413 154.43C305.885 154.321 310 151.852 310.419 151.517C310.556 151.408 311.509 149.918 311.57 149.717C312.408 146.745 310.32 147.457 308.781 146.427C308.506 146.243 305.915 142.024 305.832 141.756C305.794 141.639 305.679 139.387 305.694 139.27C305.74 138.977 306.342 139.052 306.434 138.709C306.708 137.663 306.38 136.089 307.036 134.95C307.668 133.854 310.892 130.514 311.943 129.643C312.263 129.375 313.033 129.484 313.513 128.99C313.658 128.839 315.815 125.751 315.914 125.55C316.089 125.198 315.708 124.62 315.807 124.194C315.959 123.541 317.125 122.603 317.415 121.465C317.621 120.661 318.246 118.15 318.33 117.538C318.368 117.237 317.628 112.173 317.506 111.536C317.438 111.176 315.586 106.514 315.373 106.129C314.915 105.3 312.004 102.906 311.28 103.492C311.219 104.48 309.787 107.326 309.048 107.736C308.667 107.945 304.269 108.004 303.751 107.87C303.568 107.82 300.703 106.405 300.566 106.279C300.505 106.221 300.772 105.668 300.528 105.317C299.316 103.567 294.149 98.3267 292.396 97.3975C290.347 96.3093 289.31 96.4265 287.268 94.9532C286.46 94.3756 280.729 94.4676 279.258 94.2751C277.849 94.0909 277.811 93.212 275.669 93.5636C271.866 94.183 267.805 94.1579 263.865 94.6853C259.018 95.3299 261.259 95.0536 257.982 97.1966C256.732 98.017 254.56 99.2978 253.165 99.9256C252.571 100.193 252.06 99.8419 251.878 99.9424C251.778 99.9926 251.923 100.696 251.26 100.679C249.492 100.629 249.02 99.3313 249.241 97.6403C249.629 94.7439 249.942 95.4889 251.573 94.0323C253.745 92.0902 255.238 91.4624 257.601 89.8719C257.86 89.6961 257.928 89.1436 258.126 89.018C260.1 87.8377 267.37 88.1558 269.824 87.98C271.143 87.8879 272.834 87.0424 274.282 87.1262C278.108 87.3522 284.143 88.725 287.641 89.6291C288.754 89.9137 289.577 90.7592 291.025 90.8513C291.772 90.9015 292.419 90.3993 292.838 90.416C293.059 90.4244 293.014 91.161 293.296 91.2364C294.279 91.5043 296.039 91.1778 297.335 91.3954C298.036 91.5126 299.872 92.3832 300.223 92.3749C300.977 92.3581 302.181 91.2531 303.5 91.1024C304.833 90.9518 307.622 91.5629 308.773 91.2113C309.009 91.1359 309.246 90.3072 309.916 89.9975C312.896 88.6079 313.993 87.2852 316.485 85.4101C317.956 84.3051 318.093 83.2001 320.166 83.8865L320.181 82.6811C321.561 82.9741 326.118 83.6605 327.154 82.9824C327.352 82.8569 327.55 81.844 327.977 81.6431L327.269 81.2747C327.55 80.8227 327.596 76.4865 327.505 76.2102C327.467 76.1014 326.705 75.6661 326.415 74.3769C326.255 73.6654 326.606 72.9204 326.316 72.4599C326.141 72.1921 325.577 72.1586 325.462 71.966C325.394 71.8489 325.714 71.4387 325.638 71.3298C322.475 67.0773 316.897 64.725 312.82 62.6741C312.324 62.423 311.692 62.6239 311.425 62.4983C309.695 61.6779 311.265 58.1537 311.486 56.5381C311.684 55.048 311.669 53.2147 311.73 51.9674C311.875 49.2384 311.501 50.5192 311.311 49.7323C311.181 49.2301 311.296 47.6061 311.143 47.0703C309.52 41.2942 306.159 35.5684 301.572 32.2785C297.281 29.198 292.808 28.5701 287.679 28.3525C284.479 28.2185 281.247 28.5115 278.047 28.3441L277.468 29.8258C276.02 29.2984 275.989 30.2862 275.677 30.395C274.115 30.9392 272.148 31.3745 270.678 32.153C263.72 35.8279 262.097 41.3696 260.535 48.5688C260.268 49.7909 258.866 55.5921 258.889 56.3288C258.904 56.8813 260.047 59.2922 260.359 60.0121C258.645 60.4306 260.717 61.477 260.717 61.6779C260.717 62.063 260.359 62.5485 260.443 63.1596C260.687 64.951 261.792 67.0355 260.504 68.3413C259.224 69.6472 259.003 68.6678 257.982 68.8352C251.504 69.8816 249.111 70.9615 243.777 74.0588C242.718 74.6783 242.428 75.9507 240.652 75.7247L241.033 76.9385C239.608 76.6037 239.509 78.1607 238.907 78.596C238.45 78.9308 237.665 78.8722 237.109 79.3745C236.37 80.0442 236.469 80.9901 236.042 81.6933C235.546 82.5053 234.602 82.589 234.449 82.7648C233.413 83.9033 233.436 85.4101 233.085 86.2221C232.628 87.2852 230.433 90.0895 230.319 91.1192C230.25 91.7554 230.639 92.333 230.532 92.9692C230.425 93.6556 228.711 95.3299 228.444 96.8618C228.299 97.6989 229 97.9835 228.962 98.6113C228.856 100.135 227.933 102.353 227.834 104.279C227.613 108.59 229.907 115.864 230.593 120.443C230.685 121.054 230.22 121.598 230.486 122.553C230.608 122.996 231.652 123.591 231.942 124.051C237.383 132.849 242.87 141.982 249.927 149.324C250.407 149.818 252.327 150.864 252.8 151.358C256.107 154.84 259.079 159.695 261.327 162.659C262.798 164.601 265.297 166.786 266.364 168.929C266.555 169.306 266.281 169.925 266.326 169.967C269.375 172.403 270.457 175.776 272.476 178.983C272.811 179.51 274.48 180.874 274.709 181.578C274.907 182.189 274.442 183.679 274.534 183.821C274.976 184.533 275.7 184.181 276.088 186.291C277.254 192.535 276.827 199.986 272.27 204.372C272.743 205.82 269.283 208.968 268.224 209.604C267.713 209.905 260.024 212.191 259.407 212.258C258.591 212.35 253.409 211.136 252.64 210.651C250.468 209.261 248.723 206.85 246.688 205.126C246.223 204.732 245.331 204.782 244.691 204.138C244.089 203.518 244.12 202.631 243.883 202.371C243.746 202.229 241.872 201.158 240.843 200.203C238.519 198.06 237.81 197.131 234.906 195.273C232.902 193.984 230.555 190.141 228.093 189.212C224.596 187.889 226.013 187.689 223.879 186.198C222.645 185.336 220.13 184.591 219.01 183.855C213.934 180.531 216.922 179.728 217.836 175.877C218.05 174.964 217.775 173.332 217.981 172.344C218.05 172.018 219.017 171.892 219.01 170.98C219.01 170.427 218.484 170.034 218.438 169.49C218.301 167.824 219.086 166.3 216.967 165.689C216.525 165.564 213.477 165.832 213.035 165.957C212.753 166.032 212.746 166.602 212.471 166.71C211.191 167.246 210.589 167.782 209.217 167.188C208.935 167.062 205.933 164.417 205.803 164.216C205.651 163.99 204.508 159.352 204.591 158.816C204.691 158.189 205.277 157.72 205.331 157.134C205.453 155.728 204.386 152.932 205.704 151.425C204.454 151.107 205.376 150.496 205.14 149.993C205.011 149.717 203.715 149.232 203.646 148.177C203.624 147.808 204.142 145.657 204.271 145.573C205.986 145.389 208.181 145.096 209.796 144.494C210.848 144.1 212.281 143.02 213.523 142.434C215.725 141.405 218.24 137.286 218.331 134.641C218.4 132.498 214.826 133.536 213.409 132.774C212.867 132.481 212.845 131.853 212.517 131.627C211.488 130.907 210.36 131.468 209.545 130.338C210.17 127.969 209.141 125.165 209.453 122.896C209.72 120.979 211.366 120.033 211.701 118.2L212.349 118.51C212.616 118.325 215.314 112.918 215.382 112.574C215.436 112.29 215.451 108.012 215.413 107.778L214.254 107.342L214.651 103.056C217.005 103.617 220.846 100.436 222.21 98.5611C222.919 97.5817 222.85 97.9249 223.475 97.2134C224.169 96.4097 224.268 94.6183 224.565 93.7561C224.71 93.3459 225.251 93.3124 225.403 92.9441C226.242 90.9936 225.16 84.1712 224.497 82.0198C224.215 81.1073 223.292 80.3204 223.277 79.2322C223.331 78.6462 224.321 77.4073 224.718 76.8464C225.381 75.9089 228.055 73.5147 228.177 73.2719C228.635 72.3762 228.421 70.3253 229.999 69.4714C229.907 67.5293 232.087 64.499 229.61 63.5531C228.635 63.1764 227.21 63.4191 226.249 63.1596C225.602 62.9838 225.091 62.4564 224.489 62.1886C224.032 61.9877 223.338 62.1886 223.27 62.1216C223.148 62.0211 221.791 59.4847 221.73 59.1415C221.197 56.0693 222.873 53.8844 222.812 52.6204C222.782 52.026 222.149 51.6828 222.157 51.055C222.157 50.4606 223.117 48.3176 223.14 47.3298C223.178 45.7142 222.53 43.5628 222.203 42.2318C221.883 40.951 221.441 38.7913 221.105 37.7198C220.976 37.3096 220.199 36.9999 220.191 36.2967C220.183 35.4596 221.044 35.5265 221.319 34.9573C222.492 32.5883 222.911 30.5959 224.093 28.3106C224.779 26.9796 224.07 25.7323 225.419 24.8701L224.298 24.6608C224.519 21.6556 222.972 17.8049 219.84 17.311L220.221 16.5073C218.423 16.2897 216.342 15.7456 214.643 15.0675C213.05 14.4313 209.72 12.1627 209.156 10.4885C208.005 7.04796 207.663 6.96425 205.491 4.11806C205.155 3.67439 205.094 3.08841 204.79 2.61963C199.623 -0.176325 196.765 -1.24783 191.347 1.74066C190.143 2.41035 189.152 3.72462 188.52 4.14318C187.895 4.55336 186.188 4.59522 185.403 5.41559C182.332 4.17666 179.009 3.49023 175.816 3.02145C171.708 2.41872 170.977 3.25584 167.052 4.08458C162.8 4.98029 159.31 3.9925 154.47 5.24817C147.818 6.98099 145.227 8.38734 138.269 8.39571C135.929 8.39571 130.229 9.70161 127.592 10.0867C126.366 10.2625 125.253 10.8903 123.942 10.6141C123.531 11.8111 121.968 12.4139 121.557 13.2761C121.244 13.9374 121.123 17.5202 122.106 17.9472L121.344 18.7341C122.235 19.7386 122.555 22.6852 122.952 23.3382C123.089 23.5726 123.63 23.6144 123.775 23.8572C124.636 25.2803 122.471 28.0511 122.182 29.4826C122.144 29.6835 122.182 32.8729 122.228 33.1157C122.586 35.1247 124.46 36.2799 124.887 37.9458C125.299 39.5363 124.719 41.7798 124.902 43.4707C123.66 43.6382 122.86 45.4798 121.831 45.8146C121.465 45.9318 118.379 46.7187 118.196 46.7104C117.716 46.6852 117.327 46.0407 117.084 46.0407C116.832 46.0407 116.52 46.6936 115.979 46.7355C115.742 46.7522 115.857 45.9821 115.544 45.8984C113.372 45.3375 112.115 45.3542 110.126 43.454C106.712 40.206 107.169 34.3546 110.164 30.9978C110.134 28.6036 104.182 31.6674 103.199 32.2702C99.9448 34.2709 98.7484 38.7829 98.3292 42.6252H99.4418C98.3445 43.9897 99.4799 48.0749 100.227 49.6486C100.478 50.1676 101.85 51.5238 101.941 51.6996C102.002 51.8251 101.827 53.5412 102.521 54.3616C102.703 54.5792 105.813 55.7847 106.43 55.9939C108.838 56.8394 111.551 56.9482 114.173 57.6682C114.676 57.8021 114.637 58.4216 114.927 58.5136C116.131 58.9071 120.307 57.5928 122.311 58.3044C122.997 58.9071 123.736 61.1422 123.432 62.0379C123.203 62.6908 122.51 63.101 122.281 63.8461C121.938 64.951 121.747 68.0484 121.313 68.8855C120.665 70.1244 117.221 72.5688 118.288 74.7787C119.095 76.4446 120.696 75.0634 121.862 75.2978C122.113 75.348 122.136 75.9423 122.418 76.0763C122.99 76.3441 124.087 76.5367 124.491 76.905C124.659 77.0641 125.55 79.1568 125.634 79.2657C127.41 81.5677 129.391 80.4795 128.431 84.799C128.4 84.9246 127.128 86.1049 126.8 86.7662C126.556 87.2517 126.686 88.0051 126.518 88.273C126.373 88.5074 122.692 90.2067 121.961 90.8095C121.45 91.2364 123.203 92.4083 123.744 92.3497C124.72 92.2409 125.626 90.0309 126.175 92.1656L126.952 92.4335C126.907 89.0599 129.193 90.5416 130.793 90.3993C130.915 90.3909 131.921 88.8088 132.432 88.4572C135.427 86.4314 136.089 87.5949 138.216 87.1513C138.589 87.0759 138.681 86.1551 139.001 85.8537C139.45 85.4268 140.014 86.0128 140.243 85.837C140.494 85.6445 140.319 84.866 141.241 84.665C141.515 84.6064 144.426 84.7655 144.617 84.8408C145.105 85.0501 145.15 86.3309 146.271 85.904C145.295 87.7791 147.094 89.4533 146.568 91.3285C146.385 91.9898 145.623 92.2911 145.364 92.8688C144.739 94.25 144.282 96.5772 143.093 97.724C142.857 97.95 138.269 101.374 137.979 101.499C135.823 102.479 132.767 101.357 132.515 104.68L134.946 103.868L135.122 104.68H135.67L135.914 103.977L138.833 103.868L138.46 103.073C138.757 102.621 142.407 102.177 143.139 101.918C143.71 101.717 145.242 100.202 146.263 99.5154C148.1 98.2932 148.359 98.1342 149.868 96.5018C150.279 96.0498 151.262 95.9577 151.689 95.5475C153.434 93.89 155.088 91.5712 156.658 89.897C158.128 88.3149 160.178 86.0128 162.045 88.3735C163.288 89.9389 162.533 90.2821 162.335 91.6633C162.19 92.7013 163.067 93.0948 161.84 93.4966L162.213 94.7104L161.497 95.0787C162.183 95.8572 162.282 96.5772 161.939 97.5733C161.588 98.5862 159.05 102.922 158.418 103.743C155.438 107.577 150.363 109.285 146.172 110.825C145.913 110.925 145.874 111.511 145.836 111.528C145.516 111.654 144.975 110.992 144.487 111.277C144.411 111.327 143.344 112.675 143.306 112.767C142.925 113.571 143.306 114.709 142.902 115.437C142.567 116.048 140.761 117.597 140.418 118.258C140.182 118.719 140.471 119.497 140.266 119.74C140.136 119.899 139.496 119.673 139.305 119.866C139.123 120.041 139.039 121.188 138.642 121.816C135.388 126.931 132.79 126.077 128.896 128.639C127.242 129.727 122.929 133.594 121.74 135.202C120.452 136.943 117.96 142.124 117.8 144.083C117.785 144.284 118.859 147.139 118.966 147.993C119.111 149.173 118.753 150.964 119.012 152.245C118.646 153.425 114.355 152.999 113.464 152.764C113.014 152.647 110.461 150.613 110.332 150.286C110.202 149.968 110.469 149.541 110.347 149.198C109.676 147.222 109.775 147.072 109.493 145.364C109.44 145.029 108.792 145.138 108.792 144.912C108.792 144.401 108.884 140.76 108.937 140.551C109.295 138.977 110.065 136.784 110.385 135.352C110.537 134.666 110.271 132.648 110.324 132.514C110.652 131.736 112.229 129.61 112.458 128.513L112.168 127.592L112.801 127.358C111.787 125.709 113.471 125.834 114.096 124.235C114.858 122.26 114.759 120.368 116.306 118.292C116.908 117.48 118.372 116.601 118.814 115.914C119.126 115.429 118.73 114.91 118.775 114.893C118.996 114.776 119.644 115.044 119.972 114.876C120.2 114.759 121.839 113.378 122.029 113.286C123.508 112.633 127.013 111.327 128.248 112.432C128.873 112.139 128.431 111.486 128.545 111.302C128.781 110.925 129.802 111.017 129.543 109.996C128.073 110.641 127.486 109.644 126.282 109.293C125.626 109.1 123.569 108.925 123.302 108.699C122.974 108.422 123.073 107.326 122.746 106.857C122.212 106.078 119.766 104.546 118.775 105.116C117.762 107.669 120.246 108.832 119.88 110.942C119.827 111.227 116.443 113.989 115.834 114.751C114.523 116.392 113.41 119.238 112.595 121.389C112.328 122.092 111.521 122.787 111.399 123.382C111.254 124.093 111.726 124.964 111.658 125.064C111.574 125.19 111.01 125.165 110.758 125.7C109.311 128.823 110.545 131.142 107.619 135.001C105.691 137.537 101.72 140.316 98.6188 139.688C98.0168 139.571 94.6637 138.023 94.3436 137.663C93.5816 136.809 93.9321 134.281 93.8178 133.887C93.7721 133.72 92.629 133.46 93.132 132.054C94.6713 133.837 95.6696 133.368 97.4224 133.335C97.5519 133.335 97.9253 134.599 99.5866 134.071C99.9524 133.954 99.5028 132.95 100.867 133.636C101.065 132.581 102.193 132.489 102.597 131.627C102.719 131.376 103.885 126.47 103.923 126.161C104.182 123.984 103.283 121.557 103.511 119.171C103.626 117.999 104.167 117.421 104.235 116.752C104.464 114.374 103.595 114.55 104.616 111.729C105.706 108.715 105.714 107.861 107.527 105.409C107.832 104.999 107.794 104.396 108.107 104.011C109.051 102.856 111.833 103.199 113.205 102.663C113.616 102.136 112.283 99.8335 111.719 99.574C111.284 99.3731 111.048 100.311 110.225 100.068C109.966 99.9926 106.262 97.3054 106.133 97.0711C105.965 96.7697 104.624 92.5841 104.631 92.2409C104.67 90.8262 106.377 89.0766 106.537 87.6033C108.914 86.7913 109.021 90.1146 109.57 90.7257C110.362 91.6047 112.549 91.228 113.517 91.4791C114.363 91.6968 114.912 92.8939 116.588 93.078C117.091 93.1366 119.69 92.8102 119.515 91.8558C119.278 90.6002 114.653 90.5165 113.304 89.7296C110.217 87.9298 112.1 83.7191 111.338 80.8311L112.084 81.4338L111.734 78.7718C110.187 78.5709 108.549 79.0731 107.466 80.287C105.881 80.4293 103.93 81.8021 102.688 83.0829C102.201 84.5311 101.347 85.8286 101.08 87.4191C100.615 90.2151 102.757 93.597 100.509 96.033C99.9448 95.807 99.198 96.1084 98.7103 95.9326C98.4588 95.8405 95.6925 93.7728 95.4867 93.5552C95.1819 93.2287 95.0219 91.8726 94.4198 91.2196C91.7831 88.3316 87.7899 85.5189 85.115 82.1453C85.0007 81.9947 85.4884 80.806 83.85 81.0152L84.1625 80.2786C83.1946 80.2032 83.027 79.0396 82.6155 78.7132C81.7467 78.01 80.0778 77.6166 79.2471 76.4948C78.6299 75.6661 78.3936 73.9333 77.9212 73.1631C75.2844 68.852 72.2743 66.3658 72.1752 60.4223C72.0609 53.1812 75.7721 52.7962 76.7095 47.673C76.8466 46.9196 76.9152 45.6305 76.8238 44.8771C76.7323 44.1572 76.1684 44.3162 76.077 43.973C75.8941 43.2782 76.0312 42.4662 75.8026 41.8384C75.3301 40.5492 73.2497 37.9625 73.1125 36.7152C72.7239 33.2496 74.2175 33.2663 74.4842 31.7679C74.6138 31.0229 74.7129 29.7756 74.5528 29.064C74.4919 28.7878 73.9965 28.8045 73.867 28.4446C73.1049 26.2262 72.4724 24.778 70.7197 23.2042C69.7213 22.3085 67.5723 21.2286 66.3454 20.8185C65.4538 20.5171 64.7984 21.3961 64.9584 22.342C65.1413 23.4554 66.6578 23.7735 66.7112 26.1509C65.4004 26.5108 66.3759 27.5656 66.1396 28.7041C65.8501 30.102 64.1278 31.1819 62.9161 31.5502C60.7442 30.8722 61.0262 28.6455 60.1727 27.147C59.6088 26.1425 52.3844 20.5255 51.1575 19.9813C50.9212 19.8725 49.8696 19.4205 49.7858 19.4037C48.8637 19.1777 47.5377 19.4623 46.5089 18.9768C46.486 19.0103 46.4784 19.0438 46.4555 19.0773L45.9449 18.8178C45.6858 18.1732 44.6952 18.5331 44.0093 18.1313C42.8738 17.4784 41.3649 16.365 40.2218 16.0469C39.4674 15.8376 36.7849 15.2768 36.2972 15.5112C34.4606 16.3818 38.2176 19.0354 38.3243 20.2241C38.2938 21.1031 40.3971 20.9608 40.0085 21.6388C39.475 22.5597 37.5089 23.5809 36.9221 24.5687C36.2134 24.6441 33.6833 25.6151 33.3023 26.1844C31.5191 28.8464 32.967 33.4672 27.9679 33.0571C26.7943 32.9566 25.1025 32.2785 23.586 32.5799C20.7359 33.1408 14.807 37.5607 12.9095 40.0469C12.0712 41.1436 11.4234 42.9182 10.6766 44.0986C11.2329 45.011 11.9493 44.7599 12.7342 44.3413C13.0466 45.7226 13.7249 44.6762 14.5708 44.8771C16.6436 45.371 17.3523 45.9904 18.1982 48.0916C18.3125 48.3762 18.6631 49.4896 18.8155 49.9165C19.1889 51.0047 19.2422 53.1812 19.9662 54.1858C20.7282 55.2405 23.4336 55.1317 22.5191 57.7351L21.4827 57.7937C21.9094 59.2838 19.4861 60.0205 18.4039 61.0585C16.4454 62.942 15.2109 65.2859 13.4124 67.2615L14.1974 69.5886C15.1728 69.0194 18.5868 69.3208 19.5013 69.7226C20.652 70.2249 23.2583 76.9301 25.0796 78.5625C26.5961 79.9186 29.4082 81.5845 31.2828 81.6598C32.5707 81.71 35.6037 80.8646 36.4268 81.032C36.5487 81.0571 38.0728 82.5137 38.2024 82.8318C39.2159 85.4268 39.2083 87.9298 41.906 89.7965C42.9348 90.5081 45.1143 91.2448 46.3565 91.6549L45.983 92.4669C47.7282 92.5674 49.5343 91.8642 50.6545 93.6975C51.0127 94.6267 48.0711 97.2217 47.8349 97.6905C47.2938 98.7537 46.6918 102.588 46.265 103.693C45.983 104.421 44.7714 105.961 44.3065 107.183C43.9255 108.18 43.9941 109.259 43.3692 110.23C44.8171 110.607 43.514 111.302 43.9331 112.072C44.4513 113.018 46.425 110.858 47.3852 110.557C49.7095 109.82 51.226 110.431 53.2303 111.662C55.5165 113.068 56.431 114.106 56.4005 117.187C56.3928 118.166 55.7451 118.744 55.7451 119.539C55.7451 120.301 57.1549 125.324 57.5588 126.094C60.0508 130.84 69.3556 129.024 70.1481 134.708C70.5368 137.478 69.3175 137.244 69.2108 138.542C69.0965 139.931 71.5732 140.944 72.6629 141.379C75.6045 142.543 80.9465 143.656 84.071 143.908C84.795 143.966 85.679 143.204 86.5096 143.656C87.4317 145.013 91.1125 147.164 90.9753 148.595C90.8229 150.211 86.8754 150.872 86.0295 151.291C82.5469 153.024 78.4013 155.301 75.2539 157.05C73.7679 157.879 72.7239 159.637 71.2988 160.591C69.9347 161.512 62.6875 164.936 61.3615 165.137C60.508 165.262 59.8069 164.576 58.7629 165.078C58.0008 165.446 57.8712 166.342 57.6426 166.359C57.0863 166.409 53.2227 166.443 52.9102 166.359C52.6206 166.275 52.6664 165.547 52.4454 165.539C51.9271 165.513 51.2337 166.124 50.2735 165.957C49.4733 165.823 48.5817 164.626 47.5224 164.634L47.4538 163.496L46.7527 163.873C46.6994 161.956 45.0381 161.83 44.2379 160.909C42.63 159.051 41.0601 155.443 39.5512 153.819C37.5089 151.626 29.7511 149.424 27.3201 150.479C27 150.613 27.0153 151.132 26.5123 151.316C22.9611 152.63 23.586 151.743 20.8883 150.814C19.4251 150.311 17.6495 150.839 16.4302 149.617C16.0797 151.14 15.1957 149.818 14.0602 150.261C12.0788 151.031 10.669 153.124 9.33539 154.062C7.85698 155.091 5.44886 154.673 4.75538 156.774C6.63006 158.431 8.65715 159.963 10.9814 160.725C12.0331 164.074 11.4615 166.995 10.9662 170.344C8.68001 170.871 1.90526 176.203 1.46327 178.505C1.3642 179.008 1.77571 179.61 1.69951 179.769C1.33372 180.54 0.449722 180.623 0.0382072 182.967C-0.190412 184.256 1.79858 193.08 2.50729 193.908C4.35911 196.076 5.28121 192.929 6.02041 192.05C7.57502 190.208 11.0348 189.112 12.2846 191.782C12.9933 193.297 10.8671 194.796 11.8654 196.495L19.4251 198.604C20.7054 199.835 18.4649 202.522 18.2058 204.213C17.8934 206.247 18.4497 208.784 19.3108 210.584C19.6156 211.22 22.3972 215.313 22.9459 215.966C23.6012 216.745 25.1787 218.193 26.1008 218.21C26.0322 216.184 27.0305 216.259 27.4192 215.573C28.1889 214.2 28.608 212.316 30.1093 211.58C33.2337 210.048 36.8307 212.191 40.0847 211.421C40.5572 211.303 43.9864 209.437 44.276 209.177C45.1067 208.449 45.1524 207.151 45.6401 206.298C45.884 205.871 46.3717 205.745 46.6308 205.26C47.4767 203.686 47.0347 202.522 48.6198 201.719C50.4106 200.814 51.0203 200.798 53.1541 200.488C53.497 200.438 53.8857 199.894 54.3658 199.843C57.0254 199.534 55.707 203.368 56.7358 205.268C56.8501 205.486 59.2201 207.511 59.5554 207.578C61.2853 207.938 66.0482 207.67 67.5952 206.741C68.0981 206.44 68.121 205.829 68.5097 205.569C69.0126 205.243 69.4318 205.502 70.1329 204.967C71.0931 204.23 72.2133 202.681 72.5562 201.451C74.5376 202.078 75.5435 203.2 76.839 204.925C77.1515 205.335 77.1286 206.18 77.2429 206.298C77.4182 206.465 81.4724 206.85 81.8534 206.817C82.5621 206.75 82.3564 205.946 82.6078 205.946C84.6807 205.963 86.2048 205.745 88.0642 205.134C88.3462 205.042 92.1946 201.601 92.6976 201.476C95.5706 200.747 99.9981 202.773 103.961 200.865C104.243 200.731 108.853 197.516 109.059 197.265C109.288 196.989 109.006 196.411 109.41 196.143C109.836 195.859 111.719 195.373 112.298 195.423C119.858 196.118 124.468 202.472 130.572 206.708C137.972 211.848 143.748 213.346 151.514 216.452C156.307 218.377 159.729 217.875 164.461 219.281C166.915 220.009 169.651 221.206 171.228 223.366C171.335 224.044 170.68 225.995 170.329 226.606C169.849 227.443 168.63 227.803 168.355 228.113C167.989 228.523 167.936 229.469 166.93 230.423C165.109 232.156 162.205 232.859 160.239 234.09C159.31 234.676 158.502 235.898 157.519 236.501C155.568 237.689 151.407 239.23 149.662 240.845C149.189 241.289 147.322 244.888 146.957 245.022C146.568 245.173 146.149 244.637 145.752 245.089C145.143 245.784 145.318 247.14 145.021 248.002C143.474 247.944 143.451 248.764 142.445 249.878C142.247 250.095 141.691 249.919 141.454 250.271C141.142 250.723 140.182 253.988 139.907 254.716C139.641 255.411 139.557 255.855 139.344 256.424C138.894 257.596 136.806 261.572 137.027 262.409L137.766 262.861C136.623 265.582 135.747 268.353 134.672 270.923C133.453 273.836 134.268 274.405 133.742 276.791C133.377 278.448 132.416 279.896 132.333 281.855C132.294 282.692 132.965 283.22 132.889 283.63C132.813 284.057 132.051 284.4 131.891 284.995C131.464 286.535 131.517 290.31 131.052 292.236C130.732 293.567 129.391 296.187 129.292 297.25C129.178 298.413 129.871 299.008 129.955 299.627C129.978 299.837 129.307 299.761 129.101 300.305C128.766 301.209 128.934 302.088 128.362 303.16C127.996 303.846 127.051 304.34 126.99 304.591C126.678 305.939 126.686 309.405 126.99 310.828C125.908 311.422 123.31 311.271 122.731 312.067C122.029 313.021 122.281 314.243 121.907 315.239C121.595 316.06 119.842 319.81 119.362 320.597C117.884 322.999 112.938 328.114 110.217 326.733C109.737 326.49 109.143 325.285 108.625 324.875C107.39 323.887 104.883 321.417 103.93 320.873C102.475 320.028 99.8152 319.977 98.8779 318.881C97.9939 317.843 97.6662 315.641 97.049 314.545C96.6298 313.8 93.3606 310.711 92.9872 310.568C91.2497 309.907 87.7061 308.643 85.9609 308.794C83.3242 309.028 78.8814 311.581 77.3039 311.573C76.5799 311.573 76.3513 310.56 75.513 310.418C74.751 310.292 73.4402 310.183 72.5334 310.066C67.6104 309.43 69.1117 310.468 65.6976 311.464C64.3412 311.857 63.7239 311.933 62.5275 312.368C61.4987 312.745 59.8145 312.753 59.7612 314.72C59.6773 317.826 63.9144 316.068 64.7374 318.579C64.8975 319.073 64.4479 323.234 64.1659 323.987C63.6401 325.41 59.4868 327.671 58.138 328.39C56.5605 329.236 54.9906 329.47 53.4437 330.266C50.7917 331.638 47.972 336.15 47.6825 339.34C47.5072 341.24 47.8272 344.714 50.243 344.321C51.1575 344.17 51.3556 343.232 51.9576 342.889C52.7121 342.462 55.486 342.898 56.149 343.458C56.7663 343.977 58.7857 348.741 57.1778 348.975L57.5055 350.013L56.3852 349.762C56.149 351.696 54.9068 351.478 54.2438 352.156C53.337 353.077 54.1067 356.928 54.884 357.899C54.983 358.024 57.1397 359.565 57.4064 359.724C59.6621 361.021 63.2971 361.331 65.8577 361.465C83.2632 362.386 102.62 360.31 119.659 362.369C122.456 362.704 121.991 362.595 124.811 362.051C126.914 361.649 127.859 362.109 129.825 362.134C131.403 362.151 133.308 361.59 135.015 361.825C135.724 361.925 135.373 362.603 136.082 362.704C137.812 362.946 139.694 362.243 141.294 362.302C141.294 362.302 151.194 351.721 162.19 348.54C162.373 348.489 165.627 347.945 165.81 347.962C166.9 348.071 168.287 349.971 170.017 347.853C171.007 346.648 168.508 340.428 168.782 338.57C169.552 338.545 169.925 337.716 170.215 337.507C170.977 336.979 173.118 336.477 174.193 335.841C177.363 333.966 179.535 330.14 181.928 327.26C182.293 326.155 181.669 325.142 181.63 324.088C181.592 323.075 182.278 322.581 181.63 321.317C181.516 321.091 181.097 321.015 180.884 320.722C180.663 320.413 180.708 319.793 180.419 319.5C179.664 318.755 177.637 318.571 177.172 318.312C176.608 318.002 172.768 314.427 172.349 313.875C171.137 312.276 171.67 306.918 172.501 305.06C176.25 296.655 178.567 293.834 185.243 288.494C191.286 283.663 194.273 280.575 202.29 284.467C203.54 285.07 205.826 287.69 206.984 288.268C207.442 288.494 207.914 288.376 208.387 288.385L208.028 289.172C209.042 290.118 211.023 290.076 211.839 290.511C212.311 290.762 212.395 291.382 212.608 291.507C214.011 292.328 215.443 293.106 216.754 294.102L217.303 293.29L217.364 294.01C218.21 293.449 217.973 294.42 218.301 294.496C218.941 294.646 219.65 294.395 220.374 294.605C221.174 294.831 222.34 296.128 223.071 296.547C224.1 297.133 222.782 295.383 223.811 295.735C224.969 296.128 224.436 297.392 225.48 296.555C225.221 297.727 226.592 298.12 227.484 299.041C228.52 300.113 229.938 301.31 230.829 302.323C232.3 303.989 232.734 307.052 235.15 307.178L234.769 308.4L235.806 308.467C235.653 310.434 237.596 311.372 238.099 312.393C239.524 315.239 241.224 321.384 241.826 324.456C241.887 324.774 242.557 324.724 242.55 324.9C242.527 325.301 242.032 326.08 241.994 326.741C241.856 329.378 242.55 334.803 238.671 334.744C236.446 334.711 236.309 332.894 235.63 331.345C235.417 330.86 234.838 330.893 234.792 330.592C234.701 330.006 235.15 328.541 234.96 327.57C234.312 324.247 231.721 323.82 229.488 322.648C228.779 322.271 225.121 319.877 224.847 319.818C224.009 319.634 222.629 320.17 221.631 320.078C220.907 320.011 219.703 319.249 218.979 319.207C217.897 319.149 215.634 320.003 214.148 319.475C213.355 319.191 213.5 318.554 212.959 318.295C210.055 316.905 205.956 315.742 202.938 315.239C202.054 315.089 201.497 314.017 200.248 314.972L200.21 315.926C201.703 318.261 202.915 321.208 201.673 324.004C201.604 324.155 200.095 326.607 199.996 326.733C199.15 327.838 196.956 328.248 196.133 329.018C195.165 329.931 195.264 332.015 193.496 332.676C192.505 333.045 191.934 332.517 191.111 332.609C189.602 332.777 186.683 334.367 186.134 336C185.913 336.669 186.195 336.485 186.561 336.661C188.085 337.373 188.771 335.958 190.082 335.824C190.943 335.74 191.949 336.335 192.894 336.142C194.624 338.821 193.778 338.427 192.071 339.675C191.796 339.876 191.728 340.453 191.606 340.537C191.476 340.621 189.228 340.42 188.603 340.646C188.192 340.796 187.963 342.236 186.843 341.876L187.216 342.672L185.365 343.09C184.564 341.29 186.18 340.21 186.424 338.377C185.563 337.105 183.962 338.36 183.49 339.29C182.979 340.286 183.322 341.165 183.132 341.968C183.025 342.412 182.293 342.337 182.08 342.931C181.745 343.885 182.118 345.627 181.989 346.079C181.905 346.388 181.288 346.305 181.272 346.581C181.188 347.87 181.745 348.925 182.05 349.938C183.498 350.766 184.663 348.707 185.532 348.565C185.776 348.523 188.619 348.431 188.779 348.456C190.051 348.699 191.004 351.378 191.682 352.566C191.842 352.842 192.368 352.842 192.421 353.119L191.202 359.104V364.654L196.3 368.664M65.4309 33.7853C65.8424 33.9444 65.8882 34.5722 66.1777 34.7899C66.5588 35.0745 68.5478 36.2297 68.6545 36.4306C68.7688 36.6566 69.6375 40.0972 69.5842 40.432C69.5003 40.9929 68.8983 42.6838 68.6392 43.2112C68.3954 43.7051 66.6883 45.3877 66.4826 45.8063C66.0101 46.769 66.033 48.3678 65.7358 49.4728C65.53 50.2179 64.6155 49.7826 65.149 51.6661C64.0592 51.7833 63.0914 53.9012 62.1998 53.6584C61.011 53.3319 60.0279 47.154 60.8204 45.8146C61.0491 45.4296 61.7806 45.3877 61.9178 44.8603C61.9483 44.7431 61.9026 42.6085 61.8721 42.4662C61.8264 42.2067 61.2243 42.3155 61.2091 42.0309C61.1024 39.2852 61.0948 41.1687 59.9288 39.394C56.6138 34.3295 62.215 33.8272 65.4385 33.7853H65.4309ZM21.5894 39.4359C21.2541 29.9597 29.0881 37.9123 25.7807 40.5157C23.7841 42.0895 23.205 40.1055 21.5894 39.4359ZM90.9524 117.605C90.9601 119.715 86.1057 119.322 84.8788 118.911C83.3394 118.401 82.7603 116.634 82.4859 116.559C81.6172 116.325 80.3521 116.752 79.2929 116.484C78.607 116.316 78.2031 115.613 77.4258 115.437C76.6485 115.262 66.8103 117.79 66.475 118.309C66.3302 118.535 66.4978 119.162 66.3378 119.33C66.2311 119.447 63.8916 120.117 63.4267 120.234L64.143 115.211C65.9186 114.734 67.2294 112.223 68.281 111.495C69.2031 110.858 70.5139 111.151 71.3064 110.833C71.7789 110.641 71.878 109.385 73.3335 109.318C73.8822 109.293 74.3166 109.804 74.751 109.82C76.1608 109.879 77.6087 109.82 79.0185 109.611C79.2014 109.427 77.6468 107.267 77.1667 107.008C76.8924 106.857 76.3742 107.217 76.0465 106.957C74.6976 105.877 74.6443 105.903 73.0439 105.3C68.2506 103.5 64.0059 103.877 59.1896 103.333C58.3361 103.232 56.2328 102.437 55.4174 102.454C54.1295 102.479 50.5859 104.362 49.8467 102.68C49.0313 100.83 50.1973 100.729 50.2811 100.512C50.4869 99.9675 50.2582 99.4401 50.6393 98.9629C50.9517 98.5695 52.7502 97.7491 53.3294 97.6068C56.3624 96.8618 65.2175 98.4607 67.7933 99.2727C69.4241 99.7833 69.8433 99.6326 70.9406 99.9005C71.3217 99.9926 71.6951 100.729 72.1371 100.646C74.2099 100.227 70.5368 97.4394 70.1481 97.1045C65.8653 93.4882 60.5004 90.3156 56.1337 87.5782C54.884 88.4739 55.4326 87.235 54.6249 86.8415C53.7332 86.4062 52.3082 86.7243 51.5309 86.49C50.8755 86.289 46.6079 84.2297 46.4022 83.8279C45.9068 82.8653 46.7451 79.6089 45.5639 78.4034C46.9509 78.0853 46.5013 76.3944 47.0576 75.934C47.4843 75.5824 48.2616 75.9842 48.9018 75.0968C50.1668 73.3389 47.7739 72.7362 46.6156 72.3176C45.9068 72.0581 44.6037 72.0414 43.956 71.9409C38.6749 71.154 37.6384 73.7491 33.127 74.9462C32.1897 75.1973 31.58 75.5991 31.2371 74.5192L30.3455 74.9378C30.7189 73.59 29.0728 73.1296 28.6461 72.3679C28.3489 71.8488 28.0593 67.9814 28.2346 67.4456C28.547 66.4997 30.8485 65.0264 30.1931 63.9046C28.5851 61.9542 27.4649 64.9594 25.7884 64.6664C24.9501 64.5241 22.0619 62.0881 22.9306 61.0668L24.0356 61.0501C23.0678 59.468 26.238 59.267 26.558 58.8987C26.7104 58.7229 26.4666 58.1537 26.901 57.7937C28.1889 56.6971 29.2024 57.4756 30.0788 57.2664C31.702 56.8813 33.1346 55.8684 34.9179 56.1614C36.7849 57.9779 39.4141 58.5304 41.8374 59.0661C41.2811 60.9245 44.4894 60.6399 44.4665 59.627C44.4665 59.468 43.8569 59.108 43.7273 58.8066C41.5021 53.6249 39.6046 55.1485 36.0152 53.4407C35.5123 53.198 35.4437 52.4864 35.1846 52.3525C32.5555 50.9964 29.3472 51.3982 26.5885 50.5946C26.2685 49.1129 27.2591 47.2712 25.5216 46.5681C26.9162 44.559 28.6385 43.3201 29.7663 41.2105C29.8502 41.0431 30.2693 41.0515 30.2921 41.0013C30.5741 40.273 28.9509 39.6619 30.1855 38.222C30.7722 37.5356 31.5419 37.5775 32.1897 37.1589C33.8815 36.0623 33.3556 35.2921 36.1296 35.9702C36.4649 36.0539 40.138 37.3598 40.3209 37.5021C40.5038 37.6444 43.072 41.2189 43.1558 41.4533C43.3006 41.8551 42.9729 42.5081 43.1482 43.1024C43.5902 44.6427 49.1151 52.3441 50.464 53.4575C52.0262 54.755 51.447 53.5747 51.6985 53.0054C51.7824 52.8213 52.392 53.1394 52.2853 51.9423C52.1177 50.1341 50.746 48.8617 50.304 46.7941C49.8772 44.8017 49.801 43.3787 49.3285 41.5872C49.1761 41.0096 49.0999 37.9709 48.9399 37.7951C47.7968 37.5021 46.6994 39.034 45.7849 39.0006C45.5106 38.9922 40.9991 36.732 40.8544 36.4808C40.6638 36.1544 40.8391 35.4344 40.58 34.9573C40.2904 34.4299 39.1092 34.0197 38.5834 33.4672C36.7545 31.5502 38.1643 30.5541 37.4174 28.2688C37.4784 27.44 40.9458 26.5443 41.7536 26.4104C43.9102 26.042 46.2726 27.1303 47.088 24.326C44.9695 23.5726 41.7155 22.4676 43.011 19.4205L45.9754 19.8307C45.9754 19.8307 45.9754 19.7721 45.983 19.7302L46.3336 19.8725C46.5165 20.3915 47.3167 20.6259 47.6291 21.078C48.1321 21.8063 47.7815 22.9615 48.1854 23.2796C50.0525 24.7278 52.4454 24.8533 54.6249 27.5656C58.8848 32.8645 55.4555 41.5705 56.9644 46.7941C57.3073 47.9828 58.7171 49.7156 58.8848 50.2262C59.022 50.6615 58.9 51.9507 59.1744 52.8799C59.2887 53.2733 61.4758 58.2625 61.6816 58.4885C61.9026 58.7397 64.0821 59.6856 64.4555 60.3386C65.149 61.5356 65.5833 64.2228 66.7722 66.1565C67.4733 67.295 68.6164 68.0651 69.165 69.2036C69.386 69.664 68.7916 70.3923 70.2624 71.5224C70.5901 71.7735 71.1845 71.5893 71.2455 71.6563C71.2912 71.7065 70.8873 72.3344 70.9483 72.6357C71.055 73.1213 71.6875 73.1296 71.8551 73.4142C72.983 75.3564 75.7112 77.9849 77.4639 79.4164C78.4165 80.1949 79.6129 80.3204 80.5503 81.2245C81.7924 82.4132 81.6324 83.6521 82.2192 84.7236C82.364 84.9831 83.9872 85.2259 84.4978 85.6696C86.0676 87.0257 87.5917 89.378 88.872 90.8597C91.0668 93.3961 93.2767 95.8824 95.4029 98.4774C95.281 102.253 95.0676 106.221 96.4622 109.762C95.4105 111.846 93.0253 110.992 91.6535 111.402C90.9524 111.612 90.9143 112.759 89.8779 112.507C89.3978 114.332 90.9601 115.839 90.9677 117.589L90.9524 117.605ZM12.498 181.134C10.73 184.65 6.74437 182.046 5.23548 179.451C5.01449 178.48 10.1203 175.073 11.172 175.391C11.5987 175.542 11.6597 176.195 11.9112 176.429C13.6106 178.02 13.7325 178.681 12.5056 181.142L12.498 181.134ZM13.2448 155.552C14.6394 154.723 15.5386 154.003 17.3752 154.698C17.8248 155.041 17.901 157.318 17.6647 157.728C16.9941 158.909 12.5818 157.72 13.2448 155.552ZM27.564 203.502C26.4742 204.891 25.9331 203.334 25.5978 203.15C23.8222 202.171 22.3819 201.342 24.0356 198.814C24.6529 197.876 26.8933 197.106 27.6706 197.483C27.7545 197.525 28.2879 198.646 29.0881 198.588C29.492 199.098 27.9755 202.983 27.5716 203.502H27.564ZM74.3014 189.12C73.9356 190.016 71.8475 196.143 71.5046 196.478C71.3369 196.646 70.7882 196.47 70.5901 196.671C70.3996 196.863 70.5749 197.516 70.2472 197.818C69.5385 198.471 66.4978 200.095 65.6672 199.659C64.8289 199.09 64.8594 198.077 64.5165 197.299C64.3869 197.006 63.9525 196.955 63.9373 196.888C63.3352 194.921 64.5545 194.904 64.7908 194.369C64.9203 194.076 64.7298 193.029 64.9508 192.41C65.1185 191.924 67.8467 187.605 68.403 186.918C70.0338 184.909 71.8627 185.177 73.9889 184.348C74.4919 184.499 74.7814 185.688 75.1091 186.24C75.1853 186.366 75.5054 186.366 75.6731 186.408V186.943C75.2311 187.672 74.6519 188.316 74.3166 189.128L74.3014 189.12ZM90.0685 187.915C90.0227 188.04 89.375 188.09 89.1464 188.685C88.1862 191.154 87.8966 193.808 86.4105 196.302C85.7094 197.474 84.1625 199.952 82.7298 198.83C82.425 198.596 82.4935 197.826 82.2573 197.525C81.3885 196.411 80.756 196.478 81.038 194.411C81.2209 193.038 81.8458 189.379 82.364 188.182C82.9051 186.943 83.9948 186.265 84.3301 184.834C84.9245 184.189 85.7171 184.734 86.2048 184.574C87.5994 184.131 90.0075 182.264 90.8153 184.315C90.8534 184.499 90.1904 187.596 90.0761 187.915H90.0685ZM90.4571 178.338C89.1997 178.757 85.7933 179.51 84.3835 179.811C81.9449 180.339 77.0524 179.058 75.132 180.565C73.6688 180.565 65.0346 180.247 64.5774 180.699C64.5469 180.732 64.8213 181.285 64.6841 181.477C63.7391 182.775 63.1981 184.139 62.3065 185.236C61.9102 185.721 59.7154 187.504 59.2201 187.705C58.1456 188.141 56.5224 187.63 55.4479 187.822C53.9923 188.082 51.6528 189.89 50.5402 189.932C49.8848 189.957 49.5648 189.405 48.9018 189.421C47.0957 189.472 45.0991 191.07 43.293 191.288C41.4259 193.674 38.149 198.805 35.0169 198.596C34.8874 198.588 32.6164 197.801 32.5021 197.734C31.039 196.838 31.4733 195.365 30.4979 194.553C30.0178 194.151 27.884 194.118 27.1677 193.967C26.9238 192.845 25.4073 193.13 25.5216 192.284C25.5902 191.765 27.8078 188.45 28.1507 188.216C29.0728 187.596 33.4395 185.119 34.2473 184.918C34.7197 184.8 36.3201 185.119 37.1202 185.018C38.0881 184.901 38.9721 184.323 40.0389 184.541L40.7019 181.946C40.0313 181.862 39.9094 181.017 39.3836 180.749C36.724 179.393 29.3548 179.711 26.5657 181.1C25.3997 181.678 25.133 183.135 23.2812 182.909C20.4615 182.574 21.8637 180.556 20.5301 178.556C20.0271 178.078 16.2016 178.798 15.8891 176.714C15.8587 176.53 17.5885 173.625 17.7333 173.525C18.4344 173.006 22.1533 172.076 23.1135 172.043C23.8908 172.018 28.5013 172.269 28.9433 172.503C29.3853 172.738 29.4082 173.391 29.8578 173.625C33.0508 175.257 35.2837 174.395 38.3319 174.738C38.9492 174.805 42.287 176.429 42.6071 175.132C42.6147 173.659 40.3133 172.562 39.2693 172.888C40.6029 169.565 36.061 168.56 34.3387 166.376C33.4395 165.229 32.8298 162.876 31.0999 162.098L29.9492 162.483C29.6368 162.717 29.9721 163.429 29.9416 163.454C29.1795 164.124 26.2456 164.032 25.2701 163.58C20.3929 161.319 25.5902 154.355 29.3472 154.991C29.5072 155.016 32.144 156.414 32.3192 156.54C33.47 157.393 34.6435 160.934 36.6478 161.278C42.2794 170.151 49.7934 171.549 58.9915 170.26C59.7764 170.151 60.5309 169.473 61.011 169.414C62.2836 169.255 63.4115 170.059 65.0346 169.13C65.248 169.013 66.7264 167.33 66.8484 167.296C67.1379 167.221 67.5647 167.573 67.961 167.472C69.7213 167.054 75.8636 163.504 78.0202 162.265C80.5808 160.792 83.8957 159.453 86.7306 157.653C87.2717 157.31 88.4072 156.138 88.9101 155.778C89.3902 155.435 89.9922 155.51 90.4952 155.242L90.5638 154.112L91.2878 154.505L92.0498 152.48L92.5985 153.292C93.3758 151.801 95.0219 151.282 95.9516 150.445C97.209 149.324 98.3445 147.373 100.074 146.402C101.004 145.883 104.662 144.493 105.378 145.18C106.156 146.787 106.293 148.88 106.788 150.353C107.497 152.48 110.05 154.104 111.254 155.468C111.444 155.686 113.151 159.026 113.159 159.327C113.174 160.148 110.987 164.115 110.385 165.028C107.619 169.18 104.007 170.921 100.257 173.533C99.8838 173.792 99.6628 174.554 99.0075 175.031C97.4833 176.153 95.7916 175.056 94.2446 175.5C93.5054 175.709 91.8517 177.878 90.4724 178.33L90.4571 178.338ZM131.052 163.22C130.984 163.529 130.427 163.471 130.336 163.806C130.001 165.07 130.222 166.476 129.216 167.715C128.56 168.527 126.48 168.987 125.969 169.356C124.704 170.277 123.348 172.93 121.511 172.16C119.301 171.231 120.04 170.31 119.507 169.649C119.286 169.372 117.198 170.218 116.794 170.519C115.171 171.767 114.881 174.161 114.599 174.445C114.409 174.638 113.799 174.337 113.563 174.789C113.205 175.483 113.571 176.588 113.433 177.091C113.098 178.313 112.145 179.686 111.803 180.933C111.604 181.653 111.871 182.574 111.665 183.243C111.505 183.771 110.827 183.804 110.728 183.997C110.583 184.273 110.964 184.951 110.057 185.579C109.379 186.048 108.716 185.529 108.03 185.922C108 184.549 105.904 182.959 104.738 183.344C101.21 184.516 101.819 190.376 98.1387 190.844C96.4317 191.062 94.8695 187.287 95.0066 185.755C95.1286 184.332 97.1785 183.151 97.3309 181.578C98.1159 180.674 99.137 181.519 99.9219 181.368C100.311 181.293 103.763 178.882 104.182 178.48C105.668 177.04 107.527 172.821 109.227 171.792C111.101 170.662 111.414 169.942 113.129 168.008C114.241 166.761 115.773 165.656 116.718 163.873C117.792 161.847 117.251 163.019 118.211 161.864C118.714 161.261 118.913 159.562 120.406 159.469C122.7 160.616 121.092 162.542 121.389 164.023C121.443 164.3 122.342 164.442 122.144 165.229C123.333 167.196 125.047 162.692 125.329 162.332C126.213 161.186 127.707 160.173 128.423 158.825L130.664 159.043C130.542 160.173 131.273 162.131 131.037 163.236L131.052 163.22ZM59.624 335.255C58.7248 336.201 57.0939 335.389 56.0271 335.749C56.0423 335.297 55.7451 334.702 55.8061 334.326C55.9051 333.664 57.5664 332.057 57.9627 332.124C58.5114 332.224 59.3573 332.626 59.7002 333.145C60.0965 333.731 60.1117 334.744 59.6316 335.246L59.624 335.255ZM70.8568 314.946L70.491 313.724L72.3352 313.917L72.6172 315.281C71.7484 315.85 71.3522 316.83 70.1176 316.579V314.745L70.8568 314.955V314.946ZM150.691 304.139C150.66 304.407 149.967 304.156 149.974 304.909C149.982 305.68 150.454 306.425 150.378 307.345C150.249 308.894 148.443 313.448 147.414 314.737V315.34L148.153 315.348L147.49 315.8C147.909 319.258 145.356 322.204 142.209 322.288C142.087 324.205 143.84 322.765 144.266 323.485C145.387 327.218 143.52 326.808 142.034 328.424C141.523 328.976 141.378 330.19 140.692 331.027C139.267 332.752 136.28 332.283 136.973 335.313C135.327 336.192 133.209 336.335 132.919 338.612C135.198 338.486 136.669 339.432 137.987 337.046L140.342 338.411C139.344 339.558 140.09 341.131 139.984 342.019C139.93 342.479 137.217 345.116 136.775 345.71C136.387 346.229 136.272 347.209 135.678 347.97C135.259 348.498 132.645 350.8 132.554 351.068C134.931 351.654 130.412 353.562 129.742 353.696C128.888 353.872 127.516 353.889 126.929 353.127C126.724 352.868 126.587 349.946 126.678 349.544C126.922 348.448 128.095 347.518 128.469 346.907C128.774 346.413 128.667 345.493 128.934 345.225C129.109 345.049 129.719 345.25 129.871 345.091C130.001 344.957 130.229 342.646 130.709 342.119C129.795 341.341 129.269 340.453 127.913 340.637C127.265 342.312 125.84 345.015 123.988 343.701C124.613 342.203 125.04 340.143 122.891 340.252L122.731 342.328C120.086 342.387 121.275 344.672 120.094 345.961C119.865 346.213 117.465 348.515 117.297 348.607C116.222 349.184 112.702 350.122 111.536 350.005C110.926 349.946 110.53 349.26 109.714 349.209C104.35 348.925 99.3352 350.406 94.0845 349.385C91.9965 348.975 88.5977 346.907 86.6392 347.158C85.2827 348.263 83.6062 348.808 82.7374 350.649C82.4859 351.185 82.1354 354.575 83.0803 354.173C84.1015 355.68 78.325 355.672 77.5554 355.153C77.281 354.969 76.7628 353.881 76.7857 353.546C78.9271 352.323 78.1117 348.548 79.2471 346.397C79.3234 346.254 81.2057 344.103 81.3504 344.053C81.6095 343.952 82.1049 344.346 82.6612 344.053C83.3089 343.718 83.408 342.797 83.7662 342.688C84.9017 342.345 89.5731 343.073 89.8398 342.914C90.1828 342.579 90.2971 342.144 90.3961 341.675C90.5409 341.022 89.4893 338.779 89.1997 338.603C88.5596 338.21 86.6239 338.076 85.6637 337.666C81.7924 336.025 81.6172 335.514 77.281 336.092C76.7019 336.167 76.2065 335.732 75.9093 335.749C75.6654 335.765 75.7493 336.536 75.4749 336.569C75.0939 336.611 74.9262 336.134 73.9965 336.527C71.2988 337.649 73.1278 339.951 73.1278 341.282C73.1278 343.433 70.1633 344.237 69.5689 342.312C69.0126 340.495 70.613 338.126 69.6756 336.669C68.8755 335.439 65.6672 337.44 64.6536 335.648C64.585 335.531 63.9068 333.179 63.8916 333.036C63.762 331.689 65.1413 331.396 65.6291 330.609C65.9415 330.107 65.8653 329.253 66.1396 328.926C66.2921 328.742 68.281 327.963 68.7002 327.863C72.038 327.059 77.0448 327.168 80.2455 328.432C81.6019 328.968 83.469 330.927 84.4139 331.354C85.7704 331.965 88.9939 331.161 90.5638 332.492L90.3885 329.629C87.6908 327.386 85.3894 323.837 82.0211 322.907C79.9101 322.321 76.2751 322.974 77.9593 318.454C78.7899 316.219 81.9449 313.883 84.0786 313.733C85.5342 313.632 87.1955 314.243 87.7823 315.784C88.1557 316.755 86.9516 319.4 87.4317 320.262C87.546 320.463 88.0261 320.522 88.2014 320.789C88.43 321.141 88.331 321.635 88.7348 322.053C89.0244 322.355 90.7314 323.108 90.9448 323.384C91.6764 324.322 91.2725 325.854 92.7357 325.594L92.9643 328.424C93.3834 329.244 94.1379 327.955 94.8085 327.98C94.9914 327.989 94.9838 328.675 95.2962 328.792C96.5079 329.228 98.5274 329.169 99.5943 329.73C99.7238 329.797 101.865 331.278 101.98 331.379C102.734 332.065 104.372 335.246 105.264 336.134C105.889 336.753 107.162 337.406 107.939 336.887C108.099 336.778 108.167 336.167 108.404 335.991C109.684 335.029 116.855 328.424 117.518 328.399C119.027 329.345 118.615 328.265 119.073 328.03C121.549 326.733 130.016 321.007 131.22 318.596C131.738 317.55 131.418 314.628 133.659 315.348L133.277 314.536C133.659 314.536 134.177 314.72 134.413 314.268C134.619 313.875 135.373 306.483 135.487 305.286C135.929 300.54 136.554 296.061 137.012 291.038C137.24 288.552 136.92 286.493 137.766 283.823C138.589 281.236 137.972 280.616 138.155 277.98C138.178 277.678 138.78 272.731 138.848 272.362C138.909 272.028 139.557 272.128 139.793 271.283C140.106 270.186 139.869 266.913 140.189 265.507C140.548 263.908 141.538 262.292 142.011 260.861C142.224 260.208 142.011 259.136 142.209 258.508C142.719 256.943 145.882 253.335 147.025 251.87C147.978 250.648 149.121 247.584 150.828 247.651C152.398 247.709 154.166 249.392 154.448 251.066C154.867 253.502 153.99 256.817 153.183 259.019C152.146 261.823 150.866 264.778 149.128 267.423C148.755 267.993 147.734 268.001 148.153 269.608L151.498 269.382L152.984 272.053C152.718 272.019 152.352 271.969 152.253 272.346C151.552 274.874 151.735 277.276 151.422 279.52C151.194 281.211 150.515 282.182 148.946 282.316C149.273 285.698 146.835 287.958 145.928 290.838L148.526 291.256C148.679 291.943 148.023 291.516 147.871 291.708C147.65 292.001 148.557 294.245 148.481 295.082C148.389 296.111 147.528 297.869 148.229 298.924C148.45 299.259 150.119 299.493 150.584 301.26C150.622 301.394 150.714 303.98 150.698 304.123L150.691 304.139ZM154.722 336.703C154.28 338.31 153.647 339.792 152.062 340.269L150.767 338.829C152.314 336.276 151.887 333.112 151.933 330.115C155.896 327.704 153.861 333.053 155.141 335.288C153.922 335.347 154.882 336.134 154.722 336.703ZM214.315 96.3344C214.178 97.7826 213.165 97.6403 212.525 97.9668C210.513 98.9964 209.232 98.5276 207.083 98.5946C206.817 98.603 207.03 99.415 206.321 99.4568C205.917 99.4819 203.197 98.6783 202.884 98.469C199.63 96.3093 196.978 91.747 195.675 87.9047C195.02 85.9793 194.258 84.439 193.465 82.4969C193.191 81.8272 192.49 77.7421 192.49 76.9804C192.49 76.1684 193.008 74.8373 193.862 74.9127L192.741 73.0794C193.656 72.7529 193.359 71.0787 193.762 69.6975C194.06 68.6846 194.86 67.6633 194.974 66.935C195.37 64.3651 193.343 62.7913 197.207 61.3096C197.619 61.1505 198.144 61.5273 198.67 61.251C199.211 60.9748 203.235 56.7641 203.38 56.1446C203.593 55.2405 202.961 54.8973 202.923 54.2946C202.869 53.5831 205.514 50.4188 206.779 51.7582C207.03 52.026 208.257 54.7718 208.303 55.2238C208.402 56.1195 207.975 56.6553 207.983 57.1324C207.983 57.417 208.76 57.1743 208.768 57.9528C208.79 59.5182 207.609 60.6985 207.213 62.063C205.491 67.9646 204.035 73.2385 203.921 79.2322C203.867 82.1872 203.174 82.2291 204.439 85.4268C205.422 87.9214 208.12 92.6093 210.612 93.89C211.717 94.4593 214.536 94.0993 214.323 96.3344H214.315ZM200.514 115.086C200.392 117.086 199.493 116.869 199.204 117.555C198.663 118.844 198.51 127.592 199.074 128.898C199.295 129.409 199.958 129.442 200.271 130.145C201.086 131.962 200.171 135.059 198.122 135.335C197.222 135.26 195.622 133.184 195.66 132.129L194.57 132.288C194.738 133.176 193.846 133.46 193.839 133.544C193.755 135.335 196.78 138.232 194.044 140.651C191.796 138.458 190.028 138.985 188.283 135.963C187.933 135.361 185.357 129.375 185.311 128.982C185.212 128.011 185.441 125.977 186.096 125.357C184.763 122.946 186.096 123.222 186.431 121.054L187.91 121.473C187.468 119.866 188.443 119.958 188.786 119.363C191.225 115.086 190.813 110.925 192.17 106.48C192.193 106.405 192.696 106.363 192.741 106.087C192.924 105.024 192.353 103.919 192.459 103.349C192.536 102.981 193.534 101.391 193.709 100.244C193.801 99.6661 193.298 98.7202 193.542 98.2849C193.938 97.5817 195.721 97.6319 196.338 97.9165C196.43 97.9584 197.71 99.1304 197.832 99.3396C198.35 100.269 199.097 103.132 199.516 104.446C199.973 105.886 200.278 106.028 200.476 106.564C201.482 109.218 200.065 110.565 199.943 111.88C199.89 112.457 200.598 113.671 200.514 115.086ZM182.903 158.381C183.84 158.306 185.928 161.127 186.34 158.758C186.37 158.574 185.868 155.209 185.791 155.041C185.464 154.355 184.831 154.271 184.679 153.995C183.787 152.404 183.292 146.176 185.54 145.573C185.723 145.439 185.845 145.498 186.005 145.624C186.089 145.691 186.028 146.159 186.127 146.226C186.31 146.352 186.782 145.933 187.148 146.151C188.588 147.038 189.03 148.428 190.082 149.299C190.783 152.036 190.333 155.25 190.669 157.778C191.568 164.45 194.014 169.984 197.077 175.065C197.916 176.463 199.006 177.978 198.594 179.61C198.579 179.677 197.74 180.607 197.68 180.623C197.123 180.757 192.718 179.954 191.934 179.702C191.24 179.476 188.603 178.238 188.177 177.802C187.788 177.409 187.91 176.756 187.552 176.362C187.072 175.835 185.898 174.521 185.578 174.203C185.387 174.01 184.816 174.203 184.663 174.035C184.542 173.901 183.909 171.189 183.597 170.486C182.469 167.983 181.653 167.74 181.592 164.969C181.592 164.827 180.243 164.567 180.914 162.517C181.097 161.964 181.76 161.972 181.882 161.788C182.21 161.286 180.876 158.524 182.911 158.364L182.903 158.381ZM191.339 8.26177C191.438 8.05249 194.144 5.0054 194.319 4.87146C194.41 4.8045 196.186 3.95064 196.293 3.92553C196.559 3.86693 199.493 3.95064 199.707 4.03435C200.781 4.46128 202.374 8.99843 201.97 10.5471C201.711 11.5433 198.685 13.7616 197.756 13.7532C196.933 13.7449 196.498 12.9663 195.919 12.9329C193.496 12.8073 194.616 13.8118 191.987 11.9367C191.804 11.8028 191.339 12.0623 191.301 12.012C190.76 11.2754 190.897 9.14911 191.332 8.26177H191.339ZM123.051 54.9643C121.443 53.0892 121.984 54.7969 121.534 54.9308C121.023 55.0815 119.964 54.9559 119.362 54.9224C115.803 54.6797 111.528 53.4491 108.023 52.7208C107.078 52.5283 103.786 49.8998 103.191 49.0292C102.742 48.3762 102.757 47.6061 102.406 47.0034C102.162 46.5764 101.637 46.5346 101.431 46.1328C100.341 43.973 101.568 38.7662 104.113 38.1969C105.005 38.9754 104.563 40.1893 104.807 41.3612C104.83 41.4617 105.218 41.47 105.264 41.5705C105.47 41.9974 104.845 42.8178 106.529 42.6922L105.79 43.2949C106.041 43.8725 106.872 43.7135 107.169 44.0316C108.282 45.2119 108.67 46.3253 110.37 47.9828C110.698 48.3009 110.545 48.8952 110.72 49.0878C111.589 50.0588 115.407 50.3769 116.733 50.3853C123.599 50.3937 130.328 48.2255 137.149 48.3427C137.621 48.3511 138.216 47.8823 138.642 48.0163C139.115 48.1669 139.123 48.9957 139.298 49.138C139.366 49.1966 140.525 48.8534 140.99 48.9287C142.979 49.2384 147.566 49.8328 147.825 52.4697C149.464 51.6242 149.258 53.4324 149.997 54.236C150.531 54.8136 151.986 54.9057 152.245 56.153L151.133 56.3539C152.581 60.4725 148.976 56.2451 148.023 55.4917C146.454 54.2527 146.004 53.5747 143.87 53.5077C142.788 53.4742 140.479 53.8426 139.138 53.2733C138.795 53.131 138.848 52.4781 138.65 52.4613C137.964 52.3944 137.568 53.0724 137.194 53.0975C133.46 53.3738 132.82 51.9842 128.675 53.784C127.394 54.3365 124.567 53.9932 123.051 54.9727V54.9643ZM148.564 65.3026C147.741 66.575 141.096 64.3902 139.915 63.4777C138.795 62.6071 137.979 58.7899 138.703 57.777C138.985 57.3752 140.951 56.2283 141.493 56.2702C141.835 56.2953 144.472 57.0571 144.785 57.2077C145.73 57.6347 147.208 58.656 147.459 59.7777L148.145 59.4261C148.214 61.4101 149.311 63.3354 148.557 65.311L148.564 65.3026ZM161.596 81.4338C161.062 81.6514 158.205 81.9277 157.664 81.8691C157.321 81.8356 157.648 80.5799 156.703 81.0487L156.52 82.2709C156.04 81.3585 154.752 81.2329 154.425 81.0069C152.847 79.9437 152.405 78.8136 151.658 76.9385C148.511 76.8548 149.898 80.7222 146.126 81.0655C145.943 81.0822 143.703 81.0822 143.573 81.0655C143.337 81.032 143.382 80.4879 143.032 80.2786C142.704 80.086 142.072 80.3623 141.645 79.8433C140.997 79.0564 141.226 76.5702 138.871 76.972C138.97 78.4118 138.071 79.1903 137.225 80.086C137.057 80.2618 136.509 80.1446 136.356 80.3372C136.158 80.5967 136.349 81.2329 136.219 81.3836C135.739 81.9193 132.035 81.8523 131.464 80.9901C131.334 80.7892 132.058 79.634 131.045 78.822C130.206 78.1523 129.315 78.5709 128.576 78.2779C125.824 77.1729 127.12 75.3647 126.518 74.6113C126.305 74.3434 124.323 73.2803 123.79 72.3176C121.458 68.107 122.967 66.9601 125.245 63.8126C125.634 63.2768 125.695 62.3895 125.985 61.996C126.449 61.3849 128.553 60.1209 129.2 59.2336C131.174 58.9992 130.9 60.8241 131.067 61.0585C131.128 61.1422 131.898 60.2297 132.767 61.4268C133.476 62.3895 133.338 63.6284 133.681 64.725C136.189 63.528 138.292 66.9685 139.885 67.4875C141.256 67.9395 143.108 68.4251 144.609 68.8604C147.17 69.6138 148.671 69.4547 151.011 69.7644C153.442 70.0825 155.979 71.2545 158.761 70.8694C159.348 70.7857 160.948 70.0407 161.36 69.6472C162.8 68.266 160.956 66.3992 160.003 65.4115C158.845 64.206 156.467 63.5531 157.443 61.4687H156.322C156.909 60.4641 156.101 59.8447 155.911 58.8234C155.591 57.0906 155.888 57.6933 155.255 56.2367C153.365 51.8586 150.874 45.0696 148.001 41.6291C146.484 39.8209 144.404 38.6573 143.131 36.5729C142.498 36.3888 140.647 39.101 140.052 39.4191C139.595 39.6619 135.404 40.3316 135.221 40.1474C135.038 39.9632 134.985 38.1634 134.2 40.273C132.736 39.8209 131.266 39.2433 129.871 38.582C129.612 38.4564 129.642 38.0044 129.3 37.8202C129.025 37.6779 128.362 37.9039 127.813 37.6779C127.615 37.5942 125.314 34.2206 125.245 34.003C125.078 33.4756 125.276 27.8251 125.474 27.4568C125.725 26.988 126.358 27.3145 126.526 27.1303C126.724 26.9126 127.692 22.861 129.3 21.9988C129.894 21.6807 130.656 22.1411 131.258 21.4882C131.418 21.3124 132.462 19.1777 132.462 18.9015C132.485 17.7881 130.968 17.4449 130.107 17.4616C129.924 17.4616 129.955 18.0811 129.665 18.1899C128.614 18.575 126.602 19.3451 125.649 18.6671C122.99 16.7585 124.857 14.6573 125.55 12.1795C126.465 12.1292 127.371 11.7944 128.271 11.6939C131.997 11.2754 134.428 12.1627 137.568 12.3553C141.424 12.598 144.388 11.6019 148.145 13.1254C148.869 13.4184 149.769 12.6985 150.226 14.5401C150.782 16.7752 147.566 17.9304 148.206 20.3748C148.824 22.7103 151.506 20.8603 152.421 23.5223C154.013 28.1599 148.595 28.8631 150.47 33.8272C150.927 35.0326 152.062 35.2252 152.161 35.4261C152.238 35.5684 151.788 36.1962 152.009 36.5897C152.306 37.117 153.251 37.117 153.617 37.5105C153.99 37.9039 154.47 39.6702 154.821 40.3734C155.591 41.9221 156.391 43.7637 157.122 45.7058C158.006 48.0414 158.433 50.6113 159.683 52.7041C160.879 54.7132 162.899 56.0442 164.156 57.9695C164.941 59.1666 166.107 58.7397 165.909 57.2915C165.581 54.822 164.423 50.1174 163.509 47.6647C162.594 45.2119 160.003 42.2569 159.683 39.2349L155.187 33.9025C155.949 31.9353 156.894 31.1317 156.315 28.8296C158.624 28.0595 160.476 29.8509 162.51 30.3113C165.307 30.9475 171.96 29.8593 173.941 28.4529C175.374 29.7839 175.923 27.0884 176.761 26.6113C177.592 26.1425 179.085 26.7285 178.978 25.1631C177.569 24.8785 176.456 23.6646 175.077 23.3214C174.025 23.0619 171.701 23.4219 170.939 21.8816L166.732 22.928C165.52 22.2918 165.368 19.9395 165.231 19.839C165.033 19.6967 164.446 20.2743 164.187 20.1571C163.577 19.8893 162.663 18.349 162.251 17.696C161.398 16.3315 159.988 14.6489 158.532 13.544C157.138 12.4808 155.454 11.7944 154.089 10.6643C155.347 8.30363 155.347 7.35769 158.106 6.88054C159.119 6.70474 164.537 7.04796 165.437 7.39117C166.443 7.78462 167.182 9.04029 168.34 9.14074C170.017 8.97332 170.664 6.22759 171.076 5.95134C171.411 5.72532 174.658 5.26491 175.092 5.33188C175.503 5.39885 176.288 6.18573 176.875 6.46198C177.287 6.65451 177.82 6.33641 177.851 6.38664C177.95 6.57917 177.759 7.22375 177.934 7.49163C178.201 7.8767 179.07 7.75113 179.436 8.02738C181.211 9.3835 182.332 12.6399 183.094 13.0752C183.52 13.3179 185.448 13.6193 186.035 13.996C186.95 14.582 188.832 16.9929 189.716 18.0644C190.051 18.4745 191.187 21.4044 191.979 19.9479C192.193 19.5544 193.199 17.6374 193.526 17.4616C193.686 17.3779 194.235 17.8467 194.669 17.7044C195.675 17.3863 196.453 16.3232 197.733 16.139C201.924 15.5363 205.285 15.8209 209.149 17.1017C211.343 17.8216 213.066 17.0766 213.82 20.1404C214.453 22.702 212.532 22.5848 212.403 24.7194C212.227 24.8952 211.267 24.4264 210.81 24.4766C206.992 24.845 201.368 26.2178 198.122 27.9674C197.55 28.2771 196.887 28.4362 196.354 28.8129C196.163 28.9468 194.243 31.3745 194.212 31.5502C194.067 32.3706 194.525 33.2998 194.883 33.9946C195.066 34.3462 197.093 37.1924 197.26 37.2928C197.756 37.5942 198.571 37.2342 199.173 37.3766C199.303 37.41 199.935 38.3225 201.436 38.1886C201.696 38.1634 201.604 37.41 201.871 37.3766C202.724 37.2677 202.618 37.9374 204.134 37.0417C204.53 36.8073 207.045 34.6057 207.114 34.4132C207.731 32.7892 206.154 30.8303 206.84 29.0808C207.876 28.6706 208.249 27.6326 209.446 27.9925L209.072 29.2063C210.901 28.9803 211.496 31.4833 210.917 32.9733C210.436 34.2039 209.773 35.7944 209.118 37.2426C209.057 37.3682 209.408 37.8286 209.11 38.4062C208.272 40.0218 207.152 39.461 206.39 39.8628C206.024 40.0553 205.651 40.9929 204.782 41.0347C204.645 41.0347 204.652 40.3148 204.378 40.2395C200.766 39.2852 201.886 43.3033 200.987 45.4296C199.669 48.5353 198.19 48.552 195.378 48.033C194.38 50.7871 197.71 54.1941 195.614 56.8729C195.523 56.9901 193.496 58.3546 193.29 58.3965C192.177 58.6057 189.548 58.3044 189.167 57.0152L187.91 57.4003C188.649 60.1042 189.929 63.1345 188.984 66.0477C188.923 66.2318 186.675 68.3497 186.515 68.3916C185.677 68.6092 182.644 68.9106 181.851 68.7348C181.234 68.5925 178.491 66.4746 178.239 67.814C177.98 69.1868 179.199 69.6138 179.268 69.8398C179.664 71.0871 179.344 74.4523 178.765 75.7331C178.232 76.9134 175.168 79.5252 174.033 79.3494C173.758 79.3075 173.438 78.822 173.149 78.7801C171.617 78.5792 170.314 78.6462 168.851 77.7924C168.226 77.424 167.669 75.6493 166.564 75.7833C165.94 75.934 165.909 77.5161 165.498 78.1021C165.345 78.3197 161.817 81.3501 161.588 81.4505L161.596 81.4338ZM145.806 183.796C144.823 185.043 142.864 184.591 142.994 182.883C143.017 182.549 145.958 181.117 146.202 182.892C146.134 183.227 146.012 183.536 145.806 183.796ZM145.463 160.148C143.245 159.988 142.963 158.75 141.752 157.511C141.668 157.427 141.241 157.778 141.172 157.703C141.111 157.636 140.273 156.28 140.228 156.163C139.961 155.468 139.092 150.638 139.054 149.851C138.886 146.251 140.212 140.492 140.868 136.968C141.028 136.131 143.733 131.183 144.145 130.941C144.609 130.656 145.379 131.066 145.852 130.773C145.981 130.698 146.316 129.66 146.85 129.208C147.566 128.597 151.026 127.91 151.125 127.366C150.988 124.989 148.328 125.809 147.421 124.336C148.679 124.721 148.557 123.524 149.083 123.114C150.241 122.21 151.156 121.699 152.596 121.448V120.1L151.788 119.514C150.302 120.217 148.907 119.707 147.421 119.43L147.688 118.71C146.37 118.685 147.338 115.831 147.879 115.421C148.001 115.328 150.256 115.571 150.866 115.354C151.293 115.195 151.216 114.433 151.75 114.207C152.558 113.872 154.021 114.09 154.897 113.872C158.037 113.11 162.472 109.31 164.537 106.916C164.987 106.388 165.101 105.107 165.376 104.839C167.365 102.864 169.529 97.5064 170.352 94.7271C171.007 92.5255 171.091 90.2067 171.686 87.913C172.417 85.092 173.042 86.0965 174.543 85.3347C175.039 85.0836 175.366 84.1209 175.9 84.0037C178.102 83.5266 177.873 86.9336 178.209 88.6832C178.834 91.9814 178.742 92.5339 178.742 95.8489C178.742 96.7864 179.146 97.8747 179.055 98.8206C178.971 99.6829 178.285 99.4317 177.988 100.118C177.607 100.997 177.462 103.241 177.188 103.726C176.791 104.421 174.825 106.087 174.574 106.698C174.155 107.719 174.749 108.657 174.376 109.611C173.774 111.16 170.352 113.914 170.984 115.161C173.545 117.237 174.84 113.353 176.128 111.813C176.197 111.737 176.525 111.645 177.302 110.616C179.268 108.004 179.504 108.539 180.251 105.225C180.266 105.149 180.762 105.141 180.785 104.957C180.983 103.467 180.525 100.93 180.876 99.3061C180.945 98.9964 181.554 99.0718 181.615 98.7453C181.76 97.95 181.333 95.6229 181.425 94.7355C181.714 91.8977 183.01 89.311 183.863 86.5653C184.328 85.0585 184.092 82.5304 185.563 81.4924C186.119 81.0989 187.133 81.5761 187.742 80.7725C188.047 81.2245 189.205 81.7519 189.343 81.9695C189.792 82.6727 188.824 85.0334 188.801 85.3599C188.779 85.6863 190.638 90.5499 190.806 91.5629C191.377 94.928 190.714 97.657 190.897 100.403C190.973 101.483 191.834 102.395 191.56 103.609C191.408 104.279 190.585 104.906 190.348 105.584C189.884 106.916 189.838 108.715 189.266 110.314C188.824 111.561 187.369 113.763 187.064 114.642C186.805 115.379 187.354 116.074 186.988 116.961C186.904 117.17 184.275 120.041 184.1 120.167C183.901 120.309 183.33 119.874 182.583 120.276C178.254 122.603 180.731 124.403 180.106 127.324C180.045 127.601 178.186 127.843 180.106 128.605C178.582 129.911 179.512 132.079 179.359 133.469C179.283 134.164 178.773 134.691 178.704 135.235C178.498 136.742 178.514 138.332 178.247 139.839L177.508 139.429L177.851 140.886L177.134 141.304C176.006 147.114 172.951 152.094 171.053 158.239C170.832 158.942 170.23 159.009 170.161 159.227C169.925 159.98 170.047 166.091 170.299 167.146C170.573 168.301 173.408 171.742 173.354 172.595C173.332 172.905 173.034 173.315 173.019 173.7C171.579 172.93 169.437 174.814 168.035 174.345C167.799 174.261 164.301 171.331 164.103 171.072C163.509 170.277 163.722 169.615 163.501 169.23C162.091 166.794 160.811 165.321 160.841 162.081C160.849 160.867 162.076 158.063 161.855 157.243C161.565 156.196 158.563 155.903 161.184 153.141C162.67 151.575 163.92 150.069 165.01 147.959C167.281 143.564 168.851 139.488 170.032 135.026C170.992 131.409 170.481 127.341 171.35 124.311C171.8 122.745 172.463 123.239 172.928 122.921C173.225 122.72 174.284 122.067 174.147 121.682C173.507 120.569 172.874 121.758 172.105 121.724C170.908 121.674 169.697 118.51 169.11 117.396L165.97 118.049C165.315 120.678 162.213 121.222 160.034 121.883C159.813 122.955 160.285 122.519 160.575 122.729C161.634 123.49 163.257 123.976 163.745 124.93C163.173 125.725 162.167 126.378 161.794 127.316C161.146 128.923 160.841 130.388 160.079 132.012C156.391 139.856 148.587 144.008 147.947 154.522C147.81 156.833 149.273 160.424 145.455 160.156L145.463 160.148ZM151.095 193.95C149.647 193.414 149.509 190.895 148.153 191.255C147.528 190.652 151.072 189.07 151.689 188.768C152.116 188.559 152.687 188.768 152.809 188.71C153.236 188.492 154.242 187.245 154.577 187.052C154.76 186.952 156.063 186.768 156.231 186.877C156.452 187.019 156.109 188.099 157.443 187.17L157.801 188.643L158.913 188.417C159.005 189.028 159.31 189.606 159.317 190.242C159.325 191.347 158.769 190.56 158.288 190.928C158.014 191.146 157.984 192.025 157.625 192.468C156.162 194.251 153.061 193.758 151.095 193.95ZM162.937 321.158C163.775 321.668 165.886 325.887 164.865 327.185C162.708 326.44 162.846 324.908 162.221 323.025C162.106 322.681 161.664 322.723 161.565 322.413C161.222 321.392 161.87 320.505 162.937 321.149V321.158ZM269.862 323.091C269.596 322.464 269.778 321.685 269.466 321.082C268.719 319.643 265.656 318.906 267.446 316.169C268.056 316.671 268.986 316.746 269.535 317.14C270.266 317.667 271.722 319.559 271.15 320.655H272.644C272.232 321.375 273.764 323.284 274.465 323.552C274.054 326.348 270.662 324.95 269.87 323.091H269.862ZM290.103 145.95C289.447 146.318 286.62 144.895 286.384 144.452C285.69 143.162 285.904 139.538 287.801 140.735C288.114 140.927 288.449 142.484 288.739 142.962C289.249 143.782 290.423 143.782 290.103 145.95ZM307.958 74.7536C307.401 75.1889 307.257 75.9842 307.12 76.0679C306.647 76.3609 305.893 75.9423 305.413 76.2353C304.224 76.9469 304.772 81.3585 304.346 82.2709C303.37 84.3469 299.849 84.3218 298.272 85.0083C297.411 85.385 297.213 86.3058 296.626 86.3811C291.886 87.0006 284.395 86.3811 279.586 85.8621C278.618 85.7533 278.634 84.8074 278.329 84.732C275.654 84.1042 271.745 84.3972 268.308 83.6354C267.599 83.4764 267.225 84.5395 266.883 83.0913H266.334L266.174 83.8614C263.606 82.6309 261.54 84.6065 259.437 85.1003C255.802 85.9626 252.807 85.9961 249.149 87.6117C248.723 87.8042 247.328 88.2814 247.237 88.3567C246.886 88.633 247.115 89.3194 246.939 89.5119C246.703 89.7714 245.865 89.7212 245.278 90.1733C244.158 91.0355 241.712 95.4973 240.95 96.0498C240.629 96.2758 240.035 96.0833 239.951 96.1502C239.905 96.1837 240.279 96.7864 240.149 97.3557C239.715 99.3062 238.717 101.365 238.496 103.349C238.419 104.044 238.724 108.899 238.816 109.82C239.281 114.743 240.485 119.146 243.914 122.603C245.636 122.595 245.164 120.971 245.629 119.715C245.834 119.154 246.368 118.844 246.543 118.309C246.726 117.748 246.132 116.526 246.33 116.224C246.467 116.023 247.13 115.923 247.419 115.546C247.793 115.069 247.511 114.215 247.785 113.621C247.93 113.303 249.226 111.888 249.248 111.762C249.447 110.59 248.624 108.422 251.108 109.192C250.292 108.004 254.651 102.437 255.322 102.01C258.485 100.001 262.249 98.5276 265.778 97.5315C266.517 97.3222 268.125 98.0003 269.245 97.9082C272.758 97.6068 271.866 95.1457 276.469 97.0543C278.413 97.8663 279.358 98.4523 281.789 98.5611L282.497 97.7826C283.419 98.5109 285.096 99.8335 286.033 100.353C288.327 101.633 290.461 101.843 292.175 104.304C292.838 106.037 285.919 105.149 285.088 105.166C284.745 105.166 283.861 104.856 284.189 105.727C284.235 105.852 285.927 107.275 286.17 107.435C286.818 107.845 288.51 108.305 289.211 108.782C290.43 109.611 293.09 112.742 293.341 112.892C293.799 113.177 294.866 113.085 295.574 113.437C296.176 113.738 296.435 115.077 296.55 115.186C296.976 115.596 299.011 116.325 299.308 116.668C299.621 117.036 299.423 118.283 300.535 118.183C300.223 118.535 299.423 119.615 299.202 119.757C297.015 121.197 294.866 120 292.892 119.422C292.556 119.322 292.046 119.732 291.772 119.681C291.429 119.623 288.723 116.325 288.121 115.889C287.42 115.379 284.319 113.83 283.579 113.696C282.413 113.478 280.973 114.324 279.716 113.278L280.257 114.96L281.552 114.927C281.453 116.14 282.375 116.308 282.673 116.869C282.802 117.112 282.573 117.815 282.741 118.108C283.137 118.777 285.271 117.739 284.463 120.334C283.61 123.08 280.813 121.565 279.258 120.904C278.908 120.753 278.306 121.021 278.275 120.987C278.062 120.753 278.123 119.824 277.772 119.497C277.369 119.121 276.134 119.221 275.555 118.953C275.273 118.828 275.273 118.376 274.968 118.217C269.809 115.555 263.712 112.943 257.905 115.647C254.552 117.204 251.405 119.774 251.535 124.043C251.58 125.449 252.762 132.782 253.325 133.494C255.84 136.65 254.674 136.558 256.069 139.262C258.637 144.242 265.374 149.29 268.696 153.752C269.641 155.024 270.335 157.268 271.28 158.465C271.767 159.084 273.116 159.62 273.573 160.65C273.863 161.294 273.444 162.634 273.871 163.37C274.404 164.283 277.384 165.58 278.024 166.342C279.815 168.485 282.162 174.018 283.526 176.664C284.692 178.924 284.067 177.911 284.631 179.92C284.852 180.715 285.774 180.975 285.98 181.745C286.574 183.988 287.39 193.816 287.176 196.328C287.077 197.499 285.797 201.133 285.721 202.037C285.454 205.059 284.936 207.637 283.32 210.014C281.888 212.124 280.158 213.153 278.664 215.171C278.184 215.816 277.948 216.929 277.353 217.632C275.806 219.474 272.712 218.963 272.347 219.482C272.133 219.783 272.446 220.637 271.927 221.232C271.623 221.583 269.298 221.742 268.818 221.876C268.498 221.968 268.551 222.529 268.384 222.571C266.692 222.973 264.223 221.776 263.354 222.002C262.485 222.228 262.074 223.358 260.916 223.483C259.452 223.643 257.951 222.554 256.808 222.404C255.833 222.278 252.038 222.119 251.26 222.228C250.536 222.337 250.757 223.107 250.552 223.082C250.056 223.023 249.629 222.06 249.492 221.993C247.564 220.972 245.552 219.666 243.906 219.256C241.818 218.745 238.099 216.971 237.718 214.501C236.644 215.874 235.44 214.376 234.403 213.43C233.763 212.844 234.426 212.132 232.894 212.86L233.222 212.107C232.071 211.998 231.005 209.169 229.892 210.265C228.04 212.09 231.729 213.472 229.938 215.899C230.06 216.435 230.936 216.393 231.264 216.694C232.27 217.632 234.632 223.023 234.944 224.505C235.135 225.417 234.723 225.978 234.388 226.731H235.882C235.867 229.034 236.4 231.528 236.735 233.864C236.766 234.081 237.314 234.039 237.345 234.332C237.703 237.924 236.766 242.461 238.107 245.726L237.36 246.119C239.067 248.388 238.526 252.037 239.082 254.406C239.509 256.206 242.291 258.558 242.535 259.32C243.114 261.12 242.283 261.773 244.158 263.765C244.501 264.134 246.414 265.071 246.665 265.381C247.244 266.084 247.541 267.809 248.121 268.503C249.081 269.675 252.259 270.178 252.434 272.069C254.126 271.433 256.016 272.655 257.296 272.731C258.073 272.781 258.82 272.187 259.529 272.178C260.725 272.17 262.203 272.639 263.392 272.279C264.627 271.902 266.326 268.704 268.041 268.738C268.384 268.738 270.708 270.471 270.769 270.655C270.952 271.241 270.754 272.203 270.899 272.965C270.998 273.534 271.47 273.894 271.47 274.623C271.47 275.066 270.594 277.41 270.243 277.745C269.9 278.08 269.428 277.846 269.314 277.971C268.94 278.356 269.154 279.227 268.719 279.394C267.721 279.796 265.061 279.712 264.002 279.352L260.801 282.433L261.723 283.454L262.089 282.634C263.034 284.065 264.84 282.893 265.724 283.429C265.945 283.563 268.643 286.836 268.856 287.238C268.955 287.422 268.582 287.857 268.628 287.916C268.704 288.016 269.458 288.075 269.824 288.36C271.912 289.959 274.115 293.6 275.014 296.229C275.189 296.739 275.494 297.216 275.143 297.769C273.231 300.749 268.993 294.32 267.401 293.567C266.349 293.073 265.244 293.274 264.154 293.265C264.132 294.102 264.36 294.956 264.741 295.676C265.13 296.404 267.012 298.246 267.774 298.321C268.826 300.883 270.952 300.222 272.568 301.168C274.496 302.306 277.163 306.718 277.94 308.961C278.413 310.342 277.986 311.138 276.972 312.042C275.387 313.448 273.756 313.322 271.889 312.728C270.335 312.234 267.683 310.108 266.631 308.735C266.151 308.107 266.418 306.818 265.275 307.555C265.93 305.361 264.086 305.152 263.552 304.148C261.967 301.109 260.298 297.384 259.399 294.203C259.209 293.525 258.34 292.57 258.325 292.236C258.309 291.809 258.965 291.239 258.972 290.637C258.972 290.469 257.509 289.13 257.235 287.983C256.854 286.409 257.707 283.546 257.425 282.508C257.311 282.09 255.566 280.909 255.368 280.516C255.2 280.198 255.414 279.227 254.751 278.281C252.045 274.43 248.105 271.366 244.135 269.742C242.695 269.148 241.788 267.549 240.37 268.595C239.075 267.675 239.364 264.887 238.861 264.125C237.703 262.367 238.351 263.297 237.673 261.522C237.627 261.388 236.263 260.023 236.057 259.404L234.251 260.208C233.839 260.107 232.879 255.344 232.094 258.24C231.629 259.973 231.233 261.731 231.828 263.464C227.812 262.953 229.115 266.235 231.942 265.498C232.262 265.414 232.224 264.443 233.123 264.452C234.289 264.46 234.967 265.364 235.836 265.975C235.257 267.114 235.928 268.018 235.943 268.997C235.958 270.286 234.746 270.663 234.975 271.224C236.43 273.534 238.244 272.823 239.631 270.814C239.814 272.605 241.384 272.086 242.71 272.965C244.455 274.12 243.975 275.376 244.569 276.422C244.729 276.699 245.613 276.967 246.109 277.787C248.837 282.299 248.707 287.347 250.399 291.415C250.574 291.842 251.154 292.177 251.375 292.863C251.618 293.634 251.207 295.057 251.512 295.852C251.695 296.321 252.327 296.028 252.51 296.237C253.63 297.501 254.811 298.665 255.208 300.456C255.985 304.022 255.162 303.126 257.105 306.634C258.462 309.078 258.172 311.431 258.035 314.302C258.02 314.612 257.677 314.871 257.494 315.105L260.024 317.993C260.192 318.697 259.079 320.815 259.11 321.635C259.148 322.715 260.733 323.234 260.466 324.833C260.42 325.092 259.445 325.109 259.353 326.557C259.285 327.712 260.283 331.245 261.182 331.789C261.647 332.074 263.644 332.099 264.192 332.241C265.694 332.635 267.165 333.137 268.628 333.664C268.948 332.25 267.119 331.538 266.875 331.111C266.593 330.626 266.768 329.696 266.425 329.052C266.258 328.734 265.656 328.642 265.366 328.081C264.817 327.026 265.008 325.142 266.227 325.092C266.357 325.092 266.38 325.712 266.517 325.77C266.959 325.963 267.515 325.854 267.774 326.046C268.407 326.524 268.742 327.587 269.123 328.24C271.424 332.149 273.505 337.632 273.109 342.847C272.91 345.434 271.668 345.987 271.31 347.008C271.028 347.803 271.524 349.318 270.121 349.184C269.695 348.23 269.954 346.388 269.413 345.677C269.047 345.191 268.239 345.216 267.904 344.89C267.187 344.187 267.652 342.588 265.656 343.065C266.296 341.567 265.351 340.679 264.132 340.051C259.445 337.632 262.691 343.894 262.074 345.827C261.784 346.732 261.274 347.016 261.045 347.552C260.893 347.912 261.281 348.481 261.152 348.699C261.038 348.891 260.352 348.958 260.077 349.368C259.727 349.904 259.155 351.804 258.896 351.964C258.744 352.056 255.756 352.374 255.49 352.34C254.667 352.24 254.377 351.311 253.013 351.804C251.542 352.332 251.733 354.073 251.07 354.793C247.557 358.627 239.532 358.317 234.769 358.819C231.431 359.171 228.833 360.268 225.205 359.171C221.784 358.133 222.073 354.935 218.629 354.123C216.609 353.646 213.195 354.299 212.334 356.568C211.473 358.845 214.392 358.853 210.33 361.699C210.04 361.9 210.002 362.561 209.659 362.67C208.928 362.896 206.154 362.879 205.887 361.992C206.093 360.527 205.559 358.786 205.506 357.53C205.506 357.338 206.108 357.421 206.192 357.07C206.588 355.404 206.862 350.959 207.884 349.603C208.013 349.427 211.115 347.527 211.465 347.418C212.761 347.008 213.919 347.393 214.872 347.142C215.161 347.066 215.123 346.305 215.314 346.305C215.809 346.305 216.281 346.916 216.845 346.999C217.92 347.167 219.612 347.159 220.686 346.941C220.305 346.095 219.536 345.652 219.055 345.049C218.827 344.764 218.903 344.078 218.773 343.944C218.652 343.818 216.198 343.584 215.413 343.35C212.273 342.429 209.972 339.424 206.497 341.567C205.049 342.462 201.505 345.375 200.255 345.719C199.676 345.878 199.028 345.744 198.434 345.903C197.314 341.592 200.682 337.933 202.481 334.493L200.72 334.351C200.072 334.677 200.377 336.31 198.609 336.058L196.178 333.874C197.969 332.4 197.596 330.324 200.126 330.014C202.252 329.763 202.945 330.651 204.523 331.237C208.707 332.794 210.299 333.589 213.881 336.058C214.567 336.527 217.287 338.26 217.844 338.101C219.17 337.724 218.827 335.087 218.103 334.284C217.455 333.572 214.369 331.555 213.355 330.944C211.092 329.579 211.488 330.374 209.088 329.897C208.699 329.822 206.237 328.717 206.199 328.549C206.001 327.729 206.885 326.406 207.449 326.03C207.807 325.787 208.402 326.03 208.722 325.812C209.08 325.578 209.324 324.238 209.636 323.945C209.713 323.878 210.055 324.222 210.215 324.146C210.307 324.104 210.299 323.535 210.558 323.477C211.084 323.359 213.127 323.15 213.675 323.184C216.48 323.334 221.746 328.575 222.469 331.53C222.706 332.492 222.447 333.413 222.767 334.468C223.102 335.581 228.314 341.006 228.734 341.006C229.115 341.006 229.61 340.57 230.159 340.612C233.276 340.83 234.8 345.777 236.85 345.853C241.468 346.028 243.19 343.006 242.679 338.21C244.63 337.967 245.027 335.33 246.368 334.3C246.84 333.94 247.579 334.166 248.021 333.689C248.334 333.346 249.256 324.816 249.012 324.037C248.806 323.393 248.296 323.435 248.098 322.941C246.711 319.551 246.68 315.005 244.706 312.134C243.96 311.054 242.725 309.212 241.506 309.162L241.841 307.99C240.873 306.659 240.066 305.546 238.9 304.081C238.48 303.553 238.351 302.599 238.084 302.331C237.642 301.879 236.674 302.038 236.392 301.737C236.164 301.486 236.217 300.406 235.745 299.795C235.272 299.184 234.381 299.192 233.916 298.539C233.466 297.92 232.445 295.408 233.71 295.5C232.788 294.663 232.011 294.764 232.597 293.274C231.157 293.868 230.022 290.034 229.381 289.975C228.901 289.933 228.292 290.335 227.674 290.31C225.518 290.21 225.594 288.778 224.184 287.598C220.877 284.835 216.868 283.412 212.898 282.458C210.155 281.797 203.685 276.582 201.536 274.313C199.196 271.835 197.87 270.153 196.742 266.528C195.98 264.083 196.483 264.586 195.119 261.966C194.052 259.906 194.037 257.964 193.587 255.955C193.496 255.545 192.459 255.938 192.84 254.875L193.58 255.294C193.267 254.097 193.45 252.113 193.221 251.091C193.168 250.865 191.735 250.154 191.789 248.136C191.789 247.961 192.2 247.977 192.307 247.785C192.482 247.467 192.437 246.956 192.566 246.831C193.023 246.387 194.113 247.358 193.572 244.495C193.244 242.771 191.278 243.13 191.522 240.795C191.636 239.707 192.84 239.196 192.787 238.434C192.116 236.601 190.387 236.509 190.608 234.073L189.876 234.885C190.12 233.303 189.518 232.131 189.091 230.716C188.657 229.285 188.283 227.15 187.765 225.568C187.117 223.584 185.456 221.299 184.778 219.449C184.458 218.578 184.702 217.456 184.633 217.381C184.442 217.172 183.345 217.046 182.842 216.694C182.034 216.117 181.569 214.828 180.815 214.242C180.114 213.698 174.947 211.596 176.502 209.981L177.241 210.391V207.938C176.959 207.587 175.008 209.931 173.438 209.495L165.353 205.486L166.839 201.409C165.97 201.903 165.208 201.174 164.408 201.191C163.737 201.208 161.459 202.02 160.765 201.802C160.491 201.719 160.59 201.04 160.293 201.015C160.072 200.99 159.744 201.4 159.485 201.308C158.913 201.099 157.168 198.738 156.581 198.194C155.69 197.366 155.263 198.437 155.324 196.11C157.504 197.206 157.092 195.725 157.915 195.114C158.189 194.904 159.462 195.306 160.056 194.779C160.582 194.318 160.658 192.544 160.986 192.125C161.245 191.799 161.962 191.874 162.282 191.506C162.815 190.895 164.644 187.806 163.867 187.128L162.381 187.538L162.754 186.726C160.613 186.96 158.997 184.641 157.176 185.093C156.604 183.511 157.785 183.059 157.824 182.934C157.953 182.532 157.625 182.113 157.74 181.812C158.372 180.146 163.722 179.485 164.24 182.431C164.598 184.449 162.594 187.605 165.353 187.555L164.972 188.358L167.868 189.262L169.437 193.666L170.1 193.356C171.167 195.825 172.981 194.921 174.581 193.599L174.299 191.874C172.653 191.849 172.6 190.593 171.777 190.074C171.221 189.714 168.386 188.852 167.662 188.668C167.311 188.584 167.212 189.204 167.182 188.157C167.098 185.236 169.346 185.194 169.773 183.955C170.093 183.034 169.674 181.938 169.956 181.435C170.977 179.627 178.475 179.753 177.965 184.047C177.79 185.52 176.281 186.09 175.74 187.354C176.959 189.086 180.472 187.504 181.204 186.215C182.873 183.269 180.038 180.397 185.692 181.268C186.782 182.281 188.824 183.017 188.641 184.842C188.535 185.931 186.98 186.659 187.254 187.747C187.712 188.634 188.596 188.182 189.221 188.383C189.556 188.492 189.495 189.195 189.685 189.204C190.074 189.22 191.408 188.358 192.063 188.132C192.787 187.881 193.618 188.132 194.311 187.73C194.692 187.513 196.323 185.077 196.651 184.817C198.068 183.679 203.319 184.926 205.003 185.395C210.109 186.793 216.083 189.505 220.45 192.117C224.298 194.419 227.972 197.767 231.881 200.354C232.971 201.074 234.891 201.484 235.668 202.229C235.874 202.422 237.513 204.657 238.122 205.352C239.098 206.465 240.675 209.135 241.597 209.83C241.955 210.098 243.815 210.491 244.295 210.801C245.43 211.538 245.926 212.794 246.596 213.17C247.785 213.84 250.536 213.48 252.358 214.192C255.314 215.338 253.874 215.849 257.349 215.447C260.458 215.087 263.735 215.355 266.235 213.698C266.951 213.22 267.866 212.015 268.27 211.814C268.719 211.588 269.283 212.048 269.336 212.007C269.458 211.915 269.512 210.659 270.098 210.224C270.312 210.065 272.507 209.964 272.613 209.897C273.802 209.135 275.098 206.431 275.791 205.636C276.035 205.36 276.66 205.452 276.988 205.1C277.597 204.448 277.14 203.066 278.664 203.46C278.771 203.368 277.887 202.229 277.902 201.66C277.902 201.493 279.373 200.028 279.678 199.065C280.645 196.018 279.723 193.908 279.403 190.978C279.22 189.271 279.068 185.328 278.641 183.762C278.542 183.403 277.026 180.431 276.835 179.878C274.435 172.955 269.413 170.344 266.38 164.517C266.067 163.923 266.128 162.969 265.96 162.726C265.739 162.399 264.787 162.466 264.299 162.09C263.187 161.227 262.325 158.825 261.403 157.712C259.856 155.828 253.859 150.47 253.112 149.064C251.192 145.473 249.241 143.305 246.574 140.132C246.368 139.881 246.436 139.236 246.238 139.044C245.728 138.55 244.798 139.73 245.583 137.78C243.099 137.06 243.038 134.883 242.032 133.276C240.66 131.083 237.756 129.057 236.857 126.303C236.583 125.449 236.712 123.365 236.324 122.394C235.874 121.264 234.96 121.188 234.434 120.401C234.274 120.159 232.064 115.295 231.995 114.994C231.515 112.834 232.018 108.23 231.629 107.049C231.348 106.196 230.784 106.463 230.7 105.71C230.585 104.706 230.639 102.671 230.745 101.625C231.05 98.7871 232.62 93.3794 233.939 90.776C234.83 89.018 238.724 84.2297 240.126 82.7397C242.817 79.86 248.182 76.16 252.106 74.8373C255.734 73.6152 259.308 72.2842 262.866 71.0703C266.067 69.9821 266.288 70.7606 269.207 70.4174C269.916 70.3337 269.565 69.6305 270.281 69.53C272.636 69.2036 276.736 70.116 278.778 69.5719C279.213 69.4547 279.213 68.5757 279.601 68.3413L280.15 69.1533L280.737 67.9814C281.659 68.0651 284.402 68.4167 285.126 68.2242C286.795 67.7889 288.525 65.9723 289.828 64.8757C290.857 64.0135 291.695 64.7083 292.229 62.6155L292.777 63.4275C292.732 62.289 293.913 61.6612 294.225 61.0417C294.911 59.6772 294.675 57.6682 296.131 58.1118C295.559 54.1021 296.298 51.8586 294.271 48.2255C292.678 45.371 290.423 43.6716 287.588 42.416C286.163 41.7881 283.435 40.3818 281.819 40.5325C280.912 40.6162 279.929 41.4617 278.74 41.6709C277.734 41.8384 276.622 41.2942 275.692 41.5621C275.136 41.7212 271.981 43.8474 271.737 44.3748C271.455 44.9775 271.554 45.7058 271.181 46.4341C270.175 48.393 268.727 48.1418 268.384 50.6364C268.33 51.0466 268.727 58.1286 268.841 58.5053C269.093 59.3675 269.931 59.7191 269.992 59.8447C270.137 60.1544 269.824 60.8743 270.342 61.7533C270.944 62.7913 272.796 63.1345 272.308 64.8087C272.065 65.6375 270.335 65.2691 269.611 65.5035C268.872 65.7379 267.126 66.9015 266.502 66.5918C266.387 66.5332 264.756 64.9762 264.581 64.725C262.897 62.356 263.697 62.3058 263.255 60.146C262.859 58.1704 261.861 57.1743 262.325 54.6546C262.493 53.717 263.354 53.424 263.453 52.5869C263.59 51.3898 262.524 50.9629 263.827 50.5192C261.876 48.8701 268.109 37.7533 268.689 37.3766C268.795 37.3012 269.314 37.7365 269.733 37.5189C270.106 37.3263 270.403 36.6232 270.906 36.3218C274.686 34.07 276.401 34.8066 280.257 33.9444C281.651 33.6347 283.282 32.7724 284.799 32.8227C285.157 32.831 291.192 34.4048 291.672 34.6476C292.579 35.0912 296.763 38.3057 297.487 39.0759C298.203 39.8377 300.642 43.4205 301.328 44.5506C303.187 47.5893 303.942 51.507 303.561 55.4749C303.393 57.1994 302.494 58.656 302.189 60.0874C301.64 62.6574 302.265 66.2402 300.391 68.7264C299.827 69.4715 298.691 69.5133 298.234 69.9319C297.868 70.2667 297.967 70.9699 297.594 71.355C296.047 72.9371 293.738 73.9584 291.665 73.2301C291.97 74.8373 291.093 74.2262 290.682 74.5778C290.385 74.8373 290.362 75.4401 289.943 75.6075C288.647 76.1181 286.026 75.214 284.479 76.0763L284.235 77.3068L285.347 76.905L284.974 78.1272C286.696 77.8593 288.822 78.9559 290.392 78.9811C291.086 78.9894 290.712 78.2025 291.452 78.1021C293.288 77.8426 296.451 78.6964 297.723 78.4704C299.209 78.2109 304.559 74.469 305.481 72.8785L306.502 73.2133L307.539 71.1792L311.738 71.2043C311.768 74.1091 309.581 73.5063 308.049 74.7034L307.958 74.7536ZM276.165 58.8234C276.126 57.9109 276.652 53.8091 276.988 52.8966C277.414 51.733 278.184 51.214 278.557 50.536C278.832 50.0337 278.725 49.1045 278.938 48.6859C279.601 47.4135 285.507 46.342 286.742 46.9699C286.978 47.0871 288.068 48.2088 288.464 48.5688C289.699 49.657 290.575 50.2346 291.063 51.9591C291.566 53.7588 291.337 57.7184 290.362 59.3089C290.209 59.56 286.795 63.2517 286.468 63.5112C283.511 65.8216 283.739 63.3605 281.636 63.1596C280.714 63.0675 280.386 64.1223 279.693 63.7456C278.778 61.9291 276.256 60.9748 276.157 58.8234H276.165Z" fill="black"/>
</g>
<defs>
<clipPath id="clip0_19_2396">
<rect width="328" height="371" fill="white"/>
</clipPath>
</defs>
</svg>
