<svg width="328" height="371" viewBox="0 0 328 371" fill="none" xmlns="http://www.w3.org/2000/svg">
<g clip-path="url(#clip0_19_2407)">
<path d="M323.752 20.0884C322.358 22.1167 317.64 27.5393 315.636 28.6598C313.781 29.7067 309.401 29.6494 308.148 31.9068L307.381 31.5633C306.424 33.1336 308.106 33.5998 308.189 33.9351C308.61 35.5872 308.098 38.7034 306.515 39.7421C305.97 40.0938 303.1 41.1325 302.473 41.2143C300.593 41.4678 297.377 40.4618 295.43 41.247C295.166 41.3533 294.243 42.5965 293.385 42.7601L293.682 45.0256C295.645 45.4673 297.55 44.9356 299.529 44.8375C300.486 44.7884 301.41 45.2546 302.374 45.1892C307.447 44.8539 312.733 40.8462 317.113 38.8833C318.144 38.4253 323.265 37.3539 323.908 38.0572C324.362 38.5643 326.061 44.7066 325.954 45.5409C325.838 46.4487 320.387 52.1248 319.331 52.9509C315.768 55.7562 314.21 55.6826 310.358 57.073C309.344 57.4411 308.61 58.2999 308.329 58.4062C306.094 59.2077 300.981 58.4716 302.308 61.8086L323.488 64.5321C326.086 66.037 322.861 71.934 321.64 73.6352C320.354 75.4181 316.296 78.7224 314.21 79.2213C313.649 79.3522 308.741 79.483 308.049 79.4258C307.273 79.3603 303.711 77.929 302.754 77.5528C302.177 77.332 301.946 76.2769 301.038 76.5141L301.459 80.7099C298.671 81.6995 296.37 81.8467 293.525 80.7998C293.253 80.7017 290.696 79.4421 290.556 79.3603C290.284 79.1968 290.251 78.3625 289.772 78.2153C289.607 78.1662 286.696 78.8042 286.358 78.9269C282.457 80.3418 285.805 81.6831 287.925 82.5256C291.224 83.8423 300.016 86.9994 303.851 87.4083C305.269 87.5637 308.502 86.9994 309.566 87.2284C310.078 87.3347 310.515 88.0054 311.339 88.1689C312.139 88.3243 313.261 87.6046 314.012 87.5801C316.642 87.4983 318.341 88.1362 321.228 88.0135C324.692 87.8663 326.713 89.2649 326.432 93.0844C326.416 93.2644 325.574 96.4296 325.476 96.585C325.401 96.6995 323.678 98.3843 323.471 98.5479C321.64 99.9955 318.754 101.222 316.972 102.621C312.552 103.095 308.032 102.809 303.62 101.762L302.82 103.193C303.669 103.643 304.164 105.533 304.519 105.811C305.228 106.383 309.979 107.168 311.166 107.226L311.455 108.452C315.298 108.812 319.199 109.189 322.853 110.53C325.344 114.66 320.651 117.31 318.094 119.895C317.731 120.271 317.797 120.982 317.426 121.326C316.865 121.866 315.018 123.223 314.292 123.412C313.929 123.51 308.131 122.365 307.257 122.168C304.271 121.498 300.931 120.214 298.251 118.946C297.434 118.561 293.88 116.353 293.616 116.402C292.296 116.656 293.344 119.338 293.352 120.017C293.368 123.027 291.686 122.095 291.273 122.913C290.622 124.229 292.024 123.804 292.387 124.107C300.915 131.394 308.007 135.753 319.125 138.567C320.238 138.845 321.401 138.248 322.168 139.328C323.422 141.086 322.63 145.265 321.492 146.958C321.344 147.179 317.682 149.739 317.245 149.968C316.271 150.475 312.412 151.138 311.331 151.13C307.76 151.113 304.461 149.24 300.807 149.167C300.139 150.279 300.774 151.506 301.212 152.553C301.541 153.338 305.706 159.488 306.3 160.11C309.574 163.578 314.374 167.79 318.482 169.884C319.793 170.554 321.434 170.423 322.655 172.051C323.562 173.262 322.276 175.413 321.245 176.329C321.121 176.443 320.667 176.19 320.271 176.451C319.908 176.688 319.834 177.449 319.537 177.637C319.051 177.956 316.42 178.439 315.628 178.692C315.397 178.766 315.438 179.355 315.125 179.412C307.851 180.753 304.964 178.439 299.636 174.668C295.183 171.519 292.024 167.397 289.022 162.515C287.884 160.658 286.96 156.806 285.187 155.628C284.585 155.227 283.587 155.211 282.96 154.663L281.476 156.503L282.812 160.257L281.929 160.723L282.787 162.613L279.661 162.228C277.632 164.109 279.843 164.24 280.445 165.148C281.162 166.236 281.954 168.289 282.572 169.377C282.795 169.769 283.48 169.327 283.562 169.417C283.801 169.671 284.362 171.708 284.502 172.264L285.987 172.215C287.166 174.783 289.005 177.032 290.845 179.199C297.22 186.724 307.323 194.706 315.249 199.507C318.605 201.544 324.708 202.885 322.094 207.883C319.414 208.594 317.566 210.582 314.985 211.457C313.071 212.111 310.3 212.504 308.362 211.857C302.243 209.796 293.22 204.415 287.785 200.816C286.944 200.26 282.325 195.426 281.541 198.158C281.047 199.892 283.348 201.429 284.049 202.427C289.03 209.477 295.463 216.896 302.135 222.22C303.744 223.504 305.855 225.483 308.181 227.193C311.141 229.376 314.275 230.93 317.286 233.474C317.508 233.662 318.012 233.564 318.317 233.662L318.341 236.533L317.113 236.558L317.541 237.809C316.651 238.668 312.733 238.185 312.511 238.316C311.587 238.872 312.304 239.428 309.624 239.755C308.189 239.927 307.084 240.222 305.896 240.369C304.156 240.581 300.544 239.077 299.059 238.071C295.612 235.748 289.69 229.205 287.447 226.154C285.772 223.88 286.069 221.476 282.399 221.876C281.558 226.776 276.675 225.254 274.045 222.547C272.939 221.41 272.205 219.644 271.282 218.335C264.708 209.077 261.212 197.994 255.603 187.689C254.737 186.094 251.974 181.8 250.861 185.391C250.168 187.632 251.257 187.607 251.405 188.131C254.696 200.014 261.088 212.823 266.993 224.281C269.146 228.444 270.564 231.822 273.739 235.47C276.222 238.324 279.298 241.277 282.218 244.262C282.671 244.72 283.999 246.871 284.156 246.961C284.692 247.264 285.599 246.863 286.432 247.444C287.125 247.926 287.414 249.66 288.296 250.216C287.059 250.821 285.467 252.465 284.197 252.792C282.523 253.218 273.566 253.676 272.073 253.349C271.818 253.291 271.562 252.523 271.001 252.212C270.3 251.827 269.673 252.056 269.278 251.852C260.288 247.239 251.092 233.785 247.513 224.273C247.059 223.071 246.68 221.917 246.77 220.601L240.544 219.21C240.098 217.836 239.381 216.544 238.861 215.211C236.453 208.938 234.894 201.356 232.296 194.837C231.81 193.627 230.721 193.013 230.647 191.648C227.447 190.993 228.313 196.138 226.341 197.782C225.814 198.223 224.915 198.166 224.346 198.542C223.339 199.213 223.422 200.759 221.022 200.145C219.653 199.794 216.659 195.066 216.123 193.651C215.174 191.132 215.282 188.172 213.739 185.718C211.133 186.757 209.311 190.339 206.243 188.114C205.203 187.362 204.552 184.295 203.752 183.657C201.509 181.866 201.022 186.127 202.02 188.106C203.727 191.508 212.082 196.743 215.405 198.984C218.374 200.988 218.944 201.209 222.102 202.853C224.61 204.153 228.997 208.586 230.688 210.712C232.618 213.142 233.55 215.546 234.399 218.392C235.067 220.65 233.236 221.647 236.618 224.167C238.845 225.827 243.999 225.353 244.634 226.285C245.822 228.043 243.529 230.996 242.119 232.116C239.669 234.055 237.443 233.131 238.432 237.073C238.564 237.588 239.125 238.12 239.315 238.717C239.669 239.829 240.593 243.289 241.088 244.098C241.426 244.655 242.952 244.949 243.076 246.143C244.073 245.742 244.717 246.626 245.533 246.487C246.968 246.241 248.387 244.409 249.335 244.957V244C249.517 242.79 251.537 244.532 251.678 245.562C251.719 245.865 251.521 247.681 251.43 248C251.339 248.319 250.812 248.31 250.754 248.45C250.432 249.226 250.028 250.764 249.319 251.427C248.28 252.384 245.302 253.766 243.925 254.077C243.546 254.158 239.471 253.954 240.024 255.238C240.321 255.941 242.201 257.602 242.754 258.42C245.995 263.22 249.525 268.61 254.325 272.348C253.979 272.822 257.022 275.366 258.028 276.029C260.346 277.566 264.255 278.31 266.036 280.56C266.861 280.707 269.278 278.392 269.888 277.722C275.207 271.816 276.791 261.83 284.222 258.305C286.391 257.274 295.059 255.876 297.822 256.318C298.68 256.457 303.232 258.632 303.768 259.246C304.898 260.538 306.119 266.893 303.974 267.858C300.832 268.635 298.655 262.583 295.521 265.322C293.838 266.795 296.346 270.59 295.925 271.98C295.834 272.283 295.207 272.193 295.1 272.561C294.968 273.051 295.191 273.624 294.96 274.254C294.911 274.401 292.667 276.184 292.519 276.233C291.867 276.47 291.224 276.004 290.539 276.323C290.069 276.544 288.708 278.171 287.966 278.515C286.094 279.374 282.424 279.096 283.232 282.334C284.519 282.866 286.3 281.157 286.473 281.116C289.979 280.29 292.222 278.76 295.941 277.517C298.977 276.503 298.853 277.035 301.698 275.26C302.68 274.646 304.172 274.237 305.335 274.45C305.814 274.54 308.816 275.955 309.36 276.331C310.993 277.46 315.826 281.132 316.964 282.473C317.294 282.858 317.294 283.332 317.533 283.708C317.715 283.995 318.292 283.987 318.366 284.314C318.96 286.915 318.597 293.368 315.653 294.554C311.777 296.116 312.807 293.114 310.96 291.585C310.102 290.873 307.974 291.053 306.845 291.282C304.445 291.773 300.519 295.069 297.723 293.801C297.137 293.539 297.385 292.901 296.577 292.803C294.49 292.558 292.024 294.218 288.923 293.687C287.595 293.458 288.181 291.781 287.232 292.828C286.638 295.216 287.974 294.619 289.104 295.167C290.787 295.977 292.807 296.189 293.525 296.598C293.97 296.852 293.69 297.506 293.904 297.743C294.16 298.03 296.783 298.978 297.583 299.788C298.276 300.483 300.288 304.385 300.486 305.317C300.956 307.607 300.906 312.841 299.727 314.894L300.568 315.099V315.917C299.447 316.031 299.306 318.256 298.473 319.401C297.781 320.35 294.16 323.498 292.997 323.727C291.405 324.046 289.682 324.112 288.139 323.531C286.152 321.691 289.83 317.111 288.956 315.9C288.494 315.262 284.403 315.704 282.911 314.126C280.725 311.811 280.263 305.521 278.902 304.246C278.828 304.18 277.847 304.401 276.898 303.927C273.352 302.168 271.562 299.829 267.405 298.7C267.034 298.602 267.1 297.858 266.869 297.841C265.327 297.743 263.917 299.731 263.636 299.845C263.438 299.927 262.952 299.526 262.226 299.903C260.205 300.941 258.861 303.035 257.36 304.401C257.979 306.871 258.333 310.47 256.873 312.694C255.579 314.674 253.599 314.044 251.702 315.132C249.319 316.497 249.08 319.286 250.243 321.519C250.746 322.484 252.255 321.797 252.271 323.727C252.288 325.952 250.828 326.942 248.717 326.811C246.374 326.672 241.418 323.539 240.486 321.437C239.389 318.959 239.447 317.283 239.76 314.641C239.818 314.126 240.362 313.602 240.445 312.792C240.758 309.725 239.719 306.666 240.552 303.648C241.269 301.08 241.896 302.054 243.125 301.162C245.195 299.665 247.183 298.25 249.113 296.59L249.739 297.424L252.651 290.824L251.488 289.818C252.675 287.315 248.601 286.268 247.084 284.845C245.434 283.3 243.612 281.328 241.838 279.644C237.071 275.129 232.23 270.017 227.974 265.265C226.605 263.736 225.426 262.566 224.106 260.881C223.067 260.644 222.968 262.484 222.506 262.869C220.189 264.799 221.03 265.003 219.678 266.484C218.201 268.087 216.205 268.005 214.49 268.488C214.185 268.569 214.185 269.134 213.83 269.256C212.189 269.845 208.172 269.51 206.935 268.144C205.88 266.975 204.684 262.345 206.506 261.519C212.486 263.58 212.544 256.587 209.286 253.749L203.636 258.747C201.979 259.72 196.247 259.507 194.869 258.379C193.748 257.454 192.329 252.163 192.337 250.601C192.337 248.973 193.063 249.971 193.311 249.84C193.838 248.466 195.942 248.744 197.22 248.695C197.434 248.908 196.304 253.782 197.921 254.175C201.616 255.074 201.269 247.959 198.902 246.83C198.102 246.446 197.278 246.683 196.387 246.364C193.583 245.35 192.725 241.677 191.496 239.469C191.125 238.807 190.399 238.831 190.144 238.52C190.086 238.455 190.498 237.114 189.393 237.351C188.989 237.441 188.428 238.349 188.337 238.831C188.205 239.518 187.983 243.215 188.016 243.951C188.098 245.685 188.577 248.834 188.75 250.993C189.261 257.258 190.028 257.021 192.164 262.345C193.459 265.568 193.129 269.78 195.364 272.602C198.3 276.307 202.383 273.583 205.269 274.941C206.787 275.652 207.141 278.719 206.762 280.208C205.368 285.712 198.416 283.128 194.341 284.06C191.752 285.925 200.016 294.341 200.709 296.484C202.836 296.86 201.954 297.702 202.696 298.913C203.562 300.328 211.884 306.331 213.657 306.953C215.405 307.574 217.344 307.599 218.985 306.617C219.9 306.078 220.56 304.286 221.203 304.18C221.319 304.164 223.224 304.99 223.364 305.121C223.554 305.292 223.455 305.857 223.636 306.061C224.486 307.034 225.937 308.638 225.814 310.061C225.789 310.363 223.958 315.508 223.752 315.761C222.845 316.865 220.304 318.37 219.744 319.81C221.97 323.531 223.092 327.751 224.882 331.645C225.855 333.763 227.711 336.364 228.651 338.531C231.405 339.529 233.344 342.228 236.832 341.296C239.579 340.56 240.395 337.877 242.366 336.102L243.43 336.323C243.859 336.797 244.098 338.269 244.362 338.49C244.651 338.727 245.459 338.376 245.541 338.826C246.663 345.156 247.059 351.846 240.42 355.502C236.807 357.49 233.121 356.107 229.434 356.844L223.108 353.032L217.995 347.168L213.121 348.697L210.053 347.52C208.783 346.309 207.81 346.309 207.249 344.371C206.894 343.136 207.306 342.032 207.076 340.789C206.795 339.226 205.987 337.844 205.558 336.486C205.41 336.004 205.731 333.648 204.651 333.567C203.282 333.46 203.174 337.337 203.133 338.376C202.944 343.676 203.488 349.409 203.133 354.783C204.478 355.928 204.313 357.302 205.022 358.602C205.195 358.913 206.383 359.592 206.424 359.673C206.531 359.902 206.012 361.039 206.977 361.685C205.558 361.751 204.486 362.863 203.183 363.174C199.488 364.057 192.923 362.266 189.921 360.025C187.636 358.316 185.69 354.12 184.865 351.446C182.828 344.813 184.304 339.414 183.199 332.953C182.737 330.246 181.113 325.224 180.148 322.542C179.867 321.756 177.83 316.833 177.525 316.735C176.23 316.334 177.319 319.712 177.335 320.292C177.698 331.792 182.449 342.85 177.69 354.218C177.616 354.39 176.511 355.6 176.486 355.69C176.354 356.124 176.486 356.623 176.469 357.073L175.636 356.647C175.455 357.866 174.746 359.314 174.086 360.328C172.972 362.037 170.193 365.292 169.005 366.675C168.313 367.476 165.426 370.952 164.824 370.903C162.795 368.049 160.618 365.227 158.77 362.242C155.95 357.702 152.049 351.151 151.183 345.819C149.748 336.985 151.372 325.944 154.028 317.781L153.459 317.569L153.599 316.317C151.645 317.544 151.422 320.104 149.772 321.233C143.076 333.722 148.214 347.193 140.89 360.131C140.725 360.418 136.428 364.613 136.131 364.753C135.57 365.014 134.111 365.374 133.484 365.39C131.793 365.431 127.546 365.235 125.888 365.014C124.082 364.769 122.424 363.771 121.459 362.233C121.443 359.902 123.933 359.444 125.146 357.629C126.68 355.322 126.894 350.137 126.754 347.364C126.556 343.561 125.261 339.807 125.64 336.069C124.065 334.524 119.513 341.631 118.704 342.841C115.546 347.61 114.374 350.93 108.816 354.128C106.68 355.355 101.509 357.408 99.3807 358.111C91.2652 360.778 84.3456 358.692 80.2632 351.127C79.8013 350.268 77.4838 344.78 77.3683 344.191C76.857 341.574 77.6487 338.302 78.6054 335.849C79.2735 334.139 81.3188 332.029 83.2817 332.291C83.1745 333.346 83.3807 334.9 83.1827 335.865C83.1415 336.061 82.5064 336.037 82.4405 336.347C81.7559 339.554 86.2095 342.833 89.3353 342.604C92.6095 342.367 98.5477 340.273 100.948 338.032C101.706 337.321 102.614 334.695 103.43 333.567C104.288 332.373 106.028 330.868 106.977 329.428C107.735 328.275 108.997 324.946 109.574 324.136C110.374 323.024 111.183 324.063 110.342 321.413C107.694 320.546 104.7 319.695 102.449 318.1C101.954 317.749 98.9188 314.175 98.6219 313.52C97.2858 310.633 97.2363 304.728 98.1188 301.604L99.191 301.988L99.6034 301.17C99.8095 301.17 102.473 302.422 102.638 302.585C102.878 302.822 102.968 303.877 103.777 304.376C108.37 307.223 114.358 306.797 119.034 304.507C124.733 301.718 131.884 292.869 134.111 287.103C134.539 285.999 135.744 285.23 135.191 283.978C134.226 281.803 132.09 283.185 130.614 283.038C130.317 283.005 126.935 281.696 126.696 281.467C125.278 280.11 124.84 275.824 125.731 274.156C125.97 273.706 126.523 273.616 126.779 273.297C127.521 272.356 127.051 271.481 129.607 271.743L130.358 273.403C130.63 273.575 133.921 272.921 134.127 272.79C134.292 272.683 136.37 270.132 136.568 269.788C137.154 268.766 138.688 264.12 138.68 263.081C138.663 260.849 137.731 256.808 137.657 254.428C137.542 250.789 138.358 247.746 139.645 244.303L138.77 243.223C137.888 243.673 136.428 244.695 135.504 244.826C134.276 244.998 133.162 243.28 131.686 244.982C131.612 245.072 131.958 245.448 131.876 245.628C131.826 245.726 131.265 245.718 131.191 246.037C131.026 246.757 130.729 249.832 131.24 250.282L135.142 250.388C137.574 253.471 135.801 256.465 132.436 258.158C132.098 258.33 131.496 257.97 131.372 258.019C131.1 258.117 131.183 258.657 130.845 258.73C129.236 259.09 127.315 259.442 125.764 258.853C124.453 258.354 123.216 256.301 121.624 256.866C120.321 257.324 119.488 259.417 118.02 259.188C118.399 259.941 118.713 262.525 119.381 262.877C119.917 263.155 120.849 262.82 121.533 263.049C121.665 263.09 123.876 264.349 123.909 264.488C124.502 266.795 121.929 269.265 120.271 270.508C119.15 269.976 118.02 270.549 117.014 270.475C115.826 270.385 113.269 269.15 112.288 268.447C112.115 268.324 109.632 265.388 109.525 265.2C109.335 264.881 108.296 259.466 107.438 260.039C107.438 260.309 107.504 260.595 107.216 260.759C105.616 261.683 102.078 264.66 100.395 266.083C97.8632 268.234 96.791 271.268 95.1498 272.839C94.4322 273.526 93.1951 273.264 92.6095 273.689C92.1229 274.041 92.1724 274.941 91.7848 275.391C91.3312 275.922 90.4487 275.93 89.8796 276.437C88.5106 277.648 84.4034 284.453 83.6941 286.268C83.3229 287.225 82.6879 289.466 82.8693 290.44C82.9931 291.078 84.1229 294.881 84.3704 295.29C84.89 296.157 85.7889 296.296 86.259 296.901C89.1044 300.614 94.1188 307.002 92.9065 311.795C92.5766 313.095 91.0095 314.305 91.7601 315.909L90.5394 315.949C90.226 317.814 88.4528 320.022 86.1188 321.037C84.1807 321.871 77.8054 322.239 78.2755 319.164C78.6054 317.021 81.2941 316.203 80.3374 312.792C78.8611 312.572 79.026 311.868 78.2178 311.067C76.4281 309.292 73.5827 307.55 73.7065 304.777C73.7807 303.068 75.3972 302.037 72.7992 299.952L63.158 298.479C58.0528 299.371 51.4632 300.418 48.6425 305.301C47.3477 307.542 47.191 310.576 45.9539 312.629C45.1209 314.003 41.657 316.571 40.1559 317.078C39.026 317.462 35.5044 317.536 34.9436 318.289C32.8817 321.045 35.1745 323.858 34.1271 326.844C32.8652 326.279 31.1415 325.944 29.9456 325.314C28.0652 324.316 26.3003 322.018 25.657 320.121H27.7683C28.4693 318.043 26.4322 315.271 26.5394 313.586C26.5724 313.005 27.2487 312.318 27.3724 311.116C27.6281 308.744 26.1518 303.558 26.5559 302.323C26.6302 302.094 29.492 299.297 29.9126 298.937C30.8034 298.185 32.2797 297.743 32.9807 296.713C35.1498 296.075 38.7539 296.124 40.6838 295.371C41.9704 294.864 43.158 293.458 44.5023 293.58C46.1518 292.599 41.0302 290.767 40.2549 290.693C35.191 290.194 28.6673 293.4 24.0487 290.023C21.6652 288.28 21.492 287.88 18.523 286.236C18.0693 285.982 17.9951 285.254 17.8219 285.271C15.2817 285.557 12.6755 289.769 11.6364 289.687C9.558 288.599 10.3333 283.987 11.3312 282.195C11.9663 281.067 13.1209 280.772 13.2611 280.527C13.5168 280.077 13.2034 279.308 13.3931 278.989C13.5745 278.695 18.9353 276.969 19.8178 276.429C20.4281 276.053 21.6982 274.066 22.2425 273.73C22.3415 273.673 24.3786 273.166 24.4941 273.166C24.9394 273.166 26.3333 273.575 26.8116 273.779C27.3477 274 29.1209 275.358 30.0858 275.767C32.7085 276.904 35.2075 278.155 37.8137 279.259C39.4302 279.946 45.1704 282.285 45.1704 279.137L41.6982 276.225C39.0178 275.742 37.0879 274.041 34.7539 272.602C34.3663 272.364 33.8054 272.602 33.7559 272.544C31.8096 270.622 34.0446 267.506 34.424 265.789C34.49 265.494 34.1106 262.354 34.0034 262.214C33.8054 261.961 31.7848 261.02 31.3642 261.053C30.523 261.119 27.29 263.548 26.4817 263.204C25.7889 262.705 25.5333 260.595 25.6075 259.818C25.624 259.638 26.3663 256.988 26.457 256.866C26.9188 256.203 28.9312 255.361 29.7559 255.164C30.8611 254.903 36.2054 254.436 37.2611 254.592C38.292 254.747 39.7188 256.039 40.7745 256.162C41.5003 256.244 42.2096 255.761 42.7704 255.851C43.5456 255.974 46.7291 256.669 47.2405 256.89C50.2343 258.182 49.7972 263.94 50.6714 266.427C52.0817 270.434 56.5023 276.217 59.9992 278.687C60.6095 279.12 61.5992 279.701 62.3333 279.766C62.6632 279.799 67.059 279.333 67.3724 279.243C67.6199 279.169 71.2322 276.716 71.6034 276.429C78.4735 270.999 86.8858 260.219 90.325 252.465C90.8198 251.353 92.2137 250.731 92.593 249.75C92.8487 249.079 94.0034 242.373 93.8219 241.825C93.3601 241.179 92.0405 240.68 91.3147 240.483C90.7044 240.32 90.1023 240.753 90.0611 240.712C89.9951 240.639 90.0116 239.575 89.7559 239.126C89.5003 238.676 89.0054 238.619 88.824 238.259C86.7374 234.087 85.6982 229.908 85.8796 225.222C87.0508 224.207 88.6673 225.238 88.9972 223.897C90.2013 226.596 94.4322 226.031 96.2714 224.175C97.6487 222.784 97.0302 223.455 98.3992 222.498C99.8508 221.484 101.418 218.629 98.9683 218.008V217.386C101.476 216.258 99.7106 212.659 99.9415 210.14C99.991 209.559 100.453 207.654 101.08 207.719L100.304 206.525L101.509 204.145C104.271 204.881 108.651 203.932 111.199 202.632C112.511 201.961 114.243 200.154 115.364 199.622C116.346 199.156 118.036 199.254 118.366 199.041C120.065 197.937 115.537 195.516 118.251 192.793C118.993 192.048 122.82 192.768 124.09 192.326C124.445 192.204 124.403 191.737 124.717 191.59C125.937 191.001 127.859 190.911 128.189 189.235C128.329 188.499 128.577 184.025 127.142 184.417C125.814 187.722 124.073 186.258 122.045 184.426C121.484 183.919 120.255 181.808 119.727 182.315C119.546 184.287 118.111 187.566 116.445 188.638C115.892 188.989 115.174 188.507 114.416 189.415C113.492 190.527 112.923 192.833 111.686 194.314C111.422 194.625 110.869 194.723 110.531 195.074C110.35 195.254 110.49 195.876 110.309 196.064C109.104 197.291 104.057 197.365 102.556 196.195C102.325 196.015 99.6363 192.253 99.5539 191.991C99.2405 191.01 99.8178 190.265 99.3972 189.357C99.3642 189.284 98.4157 188.188 98.3415 188.196C96.8817 188.343 97.0054 190.92 96.5848 191.926C96.1807 192.891 95.6034 194.036 95.1333 194.993C88.692 207.94 83.2652 222.343 75.5621 235.772C74.7126 237.253 73.69 241.056 72.626 242.307C72.5601 242.389 71.991 242.005 71.6611 242.373C67.4054 247.067 65.6322 249.807 59.6776 252.179C59.5456 252.228 59.5126 252.817 59.026 253.038C56.3621 254.232 45.5992 252.547 46.8941 248.564C47.0838 247.975 50.7621 246.143 51.7188 245.333C52.057 245.047 53.4838 243.518 53.7724 243.125C58.6549 236.566 61.4178 226.882 64.5766 219.472C68.057 211.301 75.3147 199.172 76.2796 190.273C76.3869 189.267 76.9972 185.988 75.8425 185.685C75.0095 185.464 71.9745 189.366 71.4714 190.216C68.2549 195.704 65.5662 203.36 62.4817 209.281C60.7085 212.683 58.9353 217.264 56.6178 220.331C55.6611 221.598 52.2302 226.154 50.5147 225.549C49.9539 225.352 49.8467 224.551 49.3848 224.158C49.2281 224.028 48.692 224.322 48.6178 224.232C47.5044 223.013 48.3539 220.609 47.4879 219.284L42.7704 224.469C38.8611 231.871 32.89 237.58 24.0735 239.33C22.7539 239.592 16.2797 240.058 15.5044 239.665C14.8611 239.338 12.9889 236.909 13.0549 235.985C13.2693 232.828 15.224 232.623 17.3023 231.037C25.3106 224.927 31.5044 217.46 37.3518 209.224C38.5559 207.531 40.4693 206.672 40.4528 204.398L39.4714 203.736C33.8632 205.699 28.9477 208.897 23.224 210.753C20.7663 211.547 15.1415 212.863 12.5518 212.397C10.8199 212.086 6.5477 210.622 5.62399 209.158C4.32914 207.122 4.07347 201.454 6.94357 200.881C7.9745 200.677 8.62605 201.176 9.30233 201.086C19.5704 199.704 31.7601 184.417 37.6817 176.32C40.0652 173.065 40.7663 171.299 42.6714 167.937C43.3724 166.702 45.4838 165.941 44.7745 163.635C44.6508 163.005 41.5003 163.725 41.0137 162.277C40.024 159.349 42.8199 159.071 43.6941 156.667C44.3456 154.884 42.9436 153.575 41.1374 154.982C38.3415 157.157 38.6054 158.245 37.0797 160.944C36.0487 162.776 32.2632 167.275 30.7704 169.066C27.5044 172.983 21.558 176.222 16.5848 177.449C13.8219 178.128 9.85491 177.564 7.87553 175.388C6.94357 174.357 7.30646 173.744 6.93532 173.163C6.74563 172.869 5.8879 172.803 5.84667 172.444C5.83017 172.321 6.62192 170.26 6.72089 170.194C7.0178 169.99 7.80955 170.162 8.2879 169.884C13.7642 166.628 17.7477 161.533 21.4425 156.765C23.3394 154.319 25.1704 151.808 26.9848 149.33C26.5147 146.345 21.5745 148.21 19.5704 148.275C15.3477 148.406 8.74976 148.103 4.97244 146.337C-0.0172517 143.998 0.815738 140.775 1.7477 136.064C2.50646 135.246 8.48584 135.811 10.3415 135.377C14.6219 134.388 28.1477 126.282 31.4714 123.322C35.8013 119.469 32.2384 118.995 32.8982 114.66C31.7353 115.036 29.9704 114.856 28.9642 115.167C28.2632 115.388 27.7023 116.41 26.8529 116.852C24.4693 118.071 20.5766 118.504 17.9126 118.709C14.6879 118.962 10.7704 118.913 8.31264 116.566C6.87759 115.192 4.21368 111.266 4.08172 109.368C4.04873 108.878 4.08172 108.461 4.50234 108.133C9.73945 104.788 19.5291 106.539 24.1642 102.924C24.5353 102.629 24.5601 101.877 24.4199 101.631C24.3539 101.509 22.1271 101.991 21.5992 101.942C21.0714 101.893 20.6343 101.402 20.0487 101.321C16.09 100.74 8.51883 99.7093 4.98069 98.0163C-0.817252 95.2436 -0.0667366 86.5005 4.73326 83.2862C5.27759 83.2616 5.8879 84.1368 6.53945 84.2922C13.7477 85.977 23.3642 84.7911 30.325 83.4089C31.5291 83.1717 32.89 83.3762 34.1436 82.91C35.4797 82.4111 40.5518 78.1744 37.3353 77.6919C34.5724 77.2829 31.7353 77.6346 28.9147 77.3892C19.0673 80.7426 6.00337 79.3603 1.37656 68.8096C0.766253 67.4192 -0.330654 64.4585 1.84667 63.8696C2.65491 63.6488 3.75182 64.254 4.73326 64.2622C6.39924 64.2622 8.69203 63.8206 10.1848 63.8533C13.3106 63.9269 22.1023 66.3969 22.6137 61.8495C22.8611 59.6494 16.6425 58.7006 14.8776 57.9482C13.1621 57.2202 10.2178 55.8135 8.60955 54.922C6.71264 53.8751 0.634294 48.7306 0.312645 46.7677C0.279655 46.5632 0.271408 42.8664 0.304398 42.6619C0.386872 42.1058 2.0611 36.9122 2.391 36.7241C2.67966 36.5605 5.14563 36.0698 5.27759 36.1516C5.47553 36.2661 7.32295 38.6788 7.79306 39.0469C12.3951 42.572 17.69 43.5043 22.9023 44.7312C24.123 45.0174 26.9106 46.4733 27.6693 46.4978C28.1972 46.5223 28.5766 45.9907 29.0797 45.9171C30.457 45.7208 31.6199 45.9253 32.89 44.6985L31.3972 43.3326C28.3704 43.2835 25.1786 42.6946 22.2508 42.1303C21.7147 42.024 18.8199 40.9117 18.5889 40.6336C17.0549 38.8179 21.0549 30.7208 20.5931 30.2219C19.224 29.3795 15.9663 29.6821 14.9188 29.265C14.4075 29.0605 14.3663 28.4144 14.0941 28.259C7.59512 24.6358 0.700274 20.988 0.00749038 12.4575C-0.107974 11.0507 0.749758 4.30321 1.9044 3.59983C3.05904 2.89645 3.78481 4.67943 4.35388 5.10473C11.0755 10.1265 22.5807 16.4978 30.9188 18.0355C31.5126 18.1418 32.5436 17.8637 33.2611 18.1254C33.7312 14.9848 32.5601 11.8114 34.8116 9.27594C36.0157 8.98968 39.1992 10.9199 40.725 11.3615C49.7394 13.9624 56.9394 13.4308 66.0611 11.795C70.7786 10.9444 76.5023 9.72577 81.7972 8.91607C89.4013 7.75467 96.7662 9.35773 103.974 11.6396C110.457 16.3997 113.302 25.2165 111.496 32.9864C111.125 34.5731 108.37 37.8201 107.199 39.145C104.684 41.9831 101.121 45.0992 98.7209 47.0867C95.9415 49.3931 94.6714 52.8691 93.8302 56.0589C93.7477 56.3778 93.1456 56.2633 92.9642 56.9667C91.6858 61.9476 93.6405 75.6472 96.9559 79.7202C97.3518 80.2028 101.946 84.2022 102.432 84.3821C102.638 84.4558 103.059 83.9241 103.166 84.0877L102.746 85.3472C103.95 85.0037 103.966 85.9443 104.519 86.3287C105.97 87.3347 109.946 90.0092 111.257 90.5817C114.003 91.784 125.756 93.6569 128.824 93.6406C129.476 93.6406 132.189 93.4443 131.999 92.3074C131.653 90.2464 130.44 90.7453 130.078 90.4345C129.517 89.9519 126.259 85.8707 125.97 85.2327C125.459 84.1204 124.313 78.6651 124.849 77.8473C127.273 76.3996 127.158 77.6755 128.494 78.109C132.717 79.4585 136.412 80.4972 140.758 78.7142C142.721 77.9127 146.704 73.6679 147.793 71.8031C149.047 69.6521 149.55 67.5338 148.898 65.0801C148.774 64.5976 145.476 60.2137 144.882 59.7557C138.094 54.5212 131.76 56.0425 123.859 55.012C121.682 54.7257 120.189 52.8936 117.987 52.3702L118.02 50.898C115.084 51.0371 112.989 46.7595 112.28 44.1996C111.917 42.8828 111.966 41.7704 112.906 40.7072C114.317 39.1041 115.958 41.7459 117.352 42.5147C122.399 45.32 127.669 43.2672 133.038 43.3817C134.795 43.4144 137.847 44.1341 139.183 44.0278C142.886 43.7252 136.931 39.5622 135.801 38.9978C132.222 37.2066 134.078 37.8446 131.587 35.53C131.125 35.1047 127.777 32.8473 127.249 32.7001C122.894 31.4406 121.69 34.8757 118.003 35.7754C117.583 33.7552 115.777 32.1603 115.471 30.0665C115.356 29.2814 115.447 24.6112 115.645 23.9815C115.768 23.6134 119.076 18.9024 119.381 18.6652C119.62 18.4771 122.762 17.3157 123.249 17.2012C125.566 16.6778 128.197 17.3566 130.234 15.7618C134.944 12.0731 136.733 10.2247 143.216 10.0693C143.348 10.0693 143.381 9.4068 144.337 9.14508C149.533 7.69742 163.364 11.198 168.494 12.7765C174.078 14.4859 180.131 17.4548 186.045 18.0682C186.977 18.1663 191.488 18.2154 192.238 18.0191C193.509 17.7001 194.886 15.6636 195.818 14.7312C199.834 15.2383 198.548 17.0867 198.16 19.6958C198.069 20.3174 198.515 20.8653 198.49 21.2334C198.473 21.5033 197.739 21.4215 197.649 21.765C197.047 24.1451 196.89 23.8424 196.148 25.6745C195.282 27.8255 194.284 29.6167 195.529 31.6696C197.805 35.3991 198.869 37.2721 199.323 41.4024C199.974 47.3239 205.64 47.3402 210.341 46.2688C209.492 49.0169 208.511 51.6832 206.399 53.7034C205.228 54.0387 200.684 56.1243 200.296 57.0403C199.603 58.6761 201.492 61.8167 202.713 62.88C202.935 63.0763 205.838 65.0801 206.028 65.1537C207.372 65.6772 211.166 64.4258 209.096 67.9345C207.414 70.7889 202.77 70.9607 200.181 72.3347C199.925 72.6864 202.803 75.6226 203.026 75.6717C204.37 75.9988 208.799 75.6226 209.492 76.1379C209.368 78.5261 207.876 81.6341 205.476 82.4438C204.593 82.7382 202.911 82.8118 201.987 83.3434C201.706 83.507 201.228 84.8483 200.643 85.1346C202.383 87.3429 204.667 88.8314 206.704 90.7944C209.055 90.5899 210.927 89.2813 212.981 88.5779C216.972 87.212 220.849 86.206 224.428 83.6379C227.397 81.5032 229.17 77.4874 231.125 74.224C232.09 70.5517 233.731 66.5032 234.078 62.4465C234.308 59.7393 233.706 56.0916 233.426 53.3435C233.146 50.6526 230.638 49.295 228.494 48.3217C226.985 47.6347 226.374 47.8146 224.807 47.2666C218.968 45.2301 213.418 40.1919 211.653 34.2623C210.911 31.7759 209.599 25.2574 210.416 23C210.614 22.452 211.43 22.3866 211.496 22.2394C214.144 16.6451 217.541 13.8479 222.944 10.9853C228.304 8.14726 228.676 8.58074 234.234 8.05729C234.548 8.02458 234.292 7.26394 235.108 7.15762C250.952 5.09655 266.243 11.795 282.82 8.68706C284.873 8.30266 287.323 6.5851 288.972 8.0164C289.162 8.17997 290.028 11.2143 290.036 11.5905C290.078 13.3245 288.214 15.0338 289.179 16.8495C290.35 16.3179 291.455 17.0131 292.733 16.8495C293.451 16.7596 294.127 16.2198 294.927 16.0644C300.544 14.952 306.111 12.9319 311.702 10.5191C314.275 9.4068 317.492 7.96732 319.851 5.91444C321.492 4.49132 322.968 1.26886 324.84 0.369189C326.861 -0.595913 327.933 0.450978 327.999 2.4139C328.148 6.84682 326.267 16.4324 323.76 20.0884H323.752ZM281.871 15.68C278.803 13.8234 276.313 15.7863 273.616 15.5C272.923 15.4264 272.494 14.7394 271.62 14.7639C270.787 14.7885 269.871 15.6227 269.113 15.4919C259.859 13.9542 249.236 11.6478 240.321 12.3594C232.115 13.0218 225.22 13.8234 218.985 19.7694C218.737 19.9984 216.741 21.2497 216.733 21.7568C216.692 23.6053 216.717 22.0513 216.164 23.2699C215.141 25.5273 215.711 33.7715 216.89 36.078C217.467 37.2148 218.977 38.2863 219.818 39.235C220.766 40.3146 220.172 40.1674 221.632 41.386C225.344 44.4776 228.09 44.5676 232.939 44.175C233.377 45.2546 234.432 45.2464 234.952 45.7535C235.735 46.5142 237.756 50.6854 237.83 51.6178C237.88 52.2312 237.071 52.5501 237.038 53.2208C237.022 53.4825 237.814 53.3598 237.904 53.7115C238.185 54.7748 237.863 57.3184 237.904 58.6843C238.069 63.2726 237.451 66.6668 236.626 70.8053C236.56 71.1243 235.958 71.0261 235.876 71.2878C234.383 76.3178 231.694 81.1352 227.81 84.4885C224.758 87.1221 213.921 92.9208 210.102 94.1722C208.915 94.5648 207.084 93.9677 206.944 95.6853C206.927 95.8898 208.238 99.3658 208.362 99.5293C208.552 99.7992 209.236 99.9137 209.5 100.274C211.142 102.523 211.257 103.774 214.506 104.191C215.661 104.338 217.047 103.717 218.292 104.396L220.931 109.916C223.636 110.374 226.597 110.644 228.807 108.731C232.23 105.762 228.486 105.034 229.038 102.891C229.055 102.817 230.036 101.779 230.111 101.762C231.315 101.435 230.968 102.58 231.925 102.842C234.341 103.496 236.065 102.94 238.333 102.842C239.051 101.5 239.661 100.118 239.636 98.5724C239.612 97.1984 238.152 97.3456 238.325 95.8734L239.529 95.8243L240.263 93.8205C242.853 95.1864 246.506 93.8287 245.946 90.6553C245.888 90.3445 245.129 87.9563 244.981 87.5801C244.857 87.2693 243.282 87.073 244.106 85.0528C244.7 83.6133 246.341 84.5703 247.24 84.3413C249.476 83.7851 249.286 81.4051 250.003 79.9247C250.358 79.1886 251.24 78.9678 251.595 77.7164C252.849 73.2998 248.733 70.5109 247.224 66.8713C253.401 66.1842 255.224 63.3953 252.304 57.6292C252.552 57.3511 255.57 57.7192 255.991 57.8991C256.89 58.2835 258.152 62.3157 258.243 63.3053C258.465 65.7344 257.946 66.6586 256.832 68.5725C256.7 68.7933 256.939 69.2431 256.865 69.3167C256.436 69.7666 254.506 69.9874 254.003 70.8707C253.83 71.2142 255.554 72.7682 255.727 73.3734C256.098 74.6739 256.387 77.5201 256.115 78.7715C256.065 79.0087 253.294 81.7567 252.972 82.4519C251.818 84.9547 251.306 85.4618 249.162 87.7273C249.005 87.8909 248.428 87.7927 248.205 88.0135C247.95 88.2589 248.106 89.1831 247.216 89.4039C247.034 90.639 248.717 91.2115 248.758 92.2911C248.774 92.6918 247.513 95.718 247.257 96.0206C246.935 96.3887 246.432 96.2087 246.119 96.4214C245.805 96.634 245.797 97.2638 245.261 97.4683C244.659 97.6973 243.636 97.3538 243.191 97.9508C242.77 98.5152 242.68 101.582 242.383 102.613C241.088 107.127 234.894 105.5 232.123 107.774C231.24 108.502 230.754 110.751 230.177 111.315C229.913 111.577 227.768 112.984 227.521 112.321C227.076 113.499 225.162 112.861 223.768 113.155C220.222 113.9 220.164 116.762 220.115 119.821C218.069 120.009 215.711 119.723 214.886 121.923C214.16 123.87 216.032 126.413 216.502 128.417C217.236 131.525 217.302 134.567 218.127 137.667C219.216 141.789 221.071 147.057 222.185 151.588C223.108 155.358 223.513 159.235 224.758 162.94C224.882 163.995 223.966 164.911 222.919 164.788C221.756 163.586 219.504 158.965 217.418 160.543C217.327 160.609 216.28 162.326 216.271 162.441C215.991 164.567 217.005 165.443 217.17 167.078C217.278 168.174 216.7 170.08 216.791 170.423C216.906 170.881 217.756 170.865 217.995 171.405C218.869 173.36 219.306 178.422 220.799 180.222C221.129 180.622 223.224 181.931 223.711 181.939C226.68 181.988 227.232 178.97 227.051 176.607C226.869 174.243 225.319 172.198 226.061 169.818H227.323C226.845 171.119 228.337 171.168 228.535 171.765C228.915 172.918 229.005 173.319 229.401 174.357C230.102 176.181 230.045 177.204 230.663 178.561C235.9 190.012 237.822 202.19 243.727 213.395C243.801 213.542 245.822 215.751 245.962 215.832C246.341 216.037 246.671 215.742 247.999 216.405C251.686 218.229 249.508 217.329 249.937 220.044C250.135 221.304 254.556 230.644 255.62 232.713C256.23 233.899 261.278 239.649 262.49 240.9C263.513 241.947 268.271 245.751 269.459 246.298C270.267 246.667 274.688 247.542 274.762 246.495C273.871 245.603 273.929 244.213 273.475 243.24C273.319 242.904 272.799 242.888 272.544 242.389C271.356 240.099 271.867 239.486 269.748 238.259C268.634 237.613 263.966 228.346 263.076 226.588C253.64 207.997 244.494 186.789 238.028 166.964C237.764 166.154 237.517 162.964 237.401 162.784C237.162 162.408 236.106 162.187 235.661 161.001C235.381 160.257 235.471 158.85 235.067 157.73C231.983 149.24 227.636 141.053 224.667 132.752C224.304 131.738 223.793 129.627 223.48 128.981C223.191 128.384 221.698 127.264 221.261 126.135C220.659 124.589 221.047 124 221.83 122.774C222.193 122.577 224.354 125.669 224.544 126.168C225.5 128.621 226.704 131.868 228.156 134.347C230.473 138.305 236.304 143.392 238.333 136.244C235.834 135.508 236.214 132.801 235.81 131.059C235.719 130.666 234.894 130.576 234.597 130.085C234.218 129.48 231.669 124.475 231.62 124.148C231.463 123.166 232.519 122.127 233.459 121.931C233.863 122.021 234.655 123.804 234.919 124.319C237.368 129.063 239.579 135.762 244.469 139.164C245.236 139.696 247.562 140.546 247.678 140.677C248.197 141.266 250.663 145.846 251.174 146.852C251.488 147.474 251.075 148.095 251.174 148.316C251.48 149.036 253.97 149.608 251.768 152.046C249.591 154.458 247.01 150.737 245.814 150.974C245.195 151.359 243.958 152.806 244.049 153.461C244.329 155.522 245.863 155.023 245.97 155.121C246.251 155.391 245.434 156.879 245.517 157.362C245.566 157.648 246.374 157.787 246.721 158.352C250.556 164.608 252.956 171.127 257.649 177.359C257.962 177.784 260.205 180.434 260.387 180.549C262.3 181.735 265.896 178.406 265.781 176.41C265.772 176.214 265.005 173.433 264.923 173.294C264.741 173.016 263.785 172.763 263.331 172.149C261.88 170.17 257.418 164.371 257.121 162.4C257.038 161.828 257.484 161.198 257.418 160.584C259.504 160.813 259.331 162.335 260.453 163.684C266.812 171.29 272.684 180.058 278.729 187.803C279.125 188.311 280.816 189.276 281.574 190.208C282.828 191.737 283.768 192.285 285.591 193.774C287.777 195.565 288.849 197.136 290.894 198.919C294.836 202.362 299.694 204.676 304.643 206.157C304.981 206.255 306.457 206.459 306.548 206.386C306.638 205.519 305.979 204.905 305.5 204.276C303.554 201.765 300.329 198.927 298.028 196.579C291.818 190.249 286.886 183.338 281.871 176.042C277.459 169.622 273.566 163.537 269.434 157.485C264.61 150.41 259.463 143.262 254.374 136.481C251.48 132.629 248.873 128.859 245.962 124.974C245.566 124.45 244.684 123.142 244.7 122.561C245.772 119.927 246.226 121.694 246.482 121.808C246.688 121.898 247.059 121.53 247.158 121.604C247.933 122.217 248.725 123.469 250.069 124.377C252.634 126.119 256.486 127.714 258.77 129.497C261.805 131.852 263.908 135.933 267.892 137.373C268.445 137.569 272.445 138.403 272.865 138.362C273.434 138.305 274.185 137.266 274.259 136.768C274.432 135.573 268.7 130.83 267.562 129.701C269.929 126.143 271.48 127.975 274.135 129.104C279.521 131.394 280.271 132.449 284.832 135.77C290.061 139.581 297.797 143.801 304.42 142.509C304.156 141.888 303.966 141.176 303.579 140.62C298.828 133.815 289.888 127.861 283.257 122.536C282.482 121.915 281.632 120.451 280.791 119.837C279.455 118.864 277.038 118.308 276.181 117.596C275.026 116.631 273.146 114.758 271.719 113.507C270.3 112.272 268.552 109.941 267.249 108.902C266.276 108.125 261.715 106.825 261.286 106.318C261.096 106.097 261.261 105.148 260.816 104.478C259.727 102.842 257.195 101.893 256.972 100.241C256.807 99.0059 257.558 99.3903 257.789 98.9241C258.465 97.5828 258.581 96.2169 261.014 96.3232C262.185 96.3805 262.993 98.4334 264.04 98.736C265.129 99.055 266.49 98.7033 267.818 99.1777C268.387 99.3821 268.445 99.9465 268.733 100.053C271.744 101.116 277.492 102.057 274.704 97.0757C273.929 95.6853 271.645 95.5626 270.135 94.7774C269.113 94.2458 268.956 93.6733 268.288 93.248C267.603 92.8063 266.341 92.7409 265.962 92.3974C265.871 92.3156 264.931 90.549 265.014 90.2218C265.715 88.676 271.364 89.8456 272.741 90.1564C274.449 90.5408 274.243 91.2033 274.341 91.2605C274.605 91.4078 274.944 90.6308 275.397 90.5817C275.612 90.5572 277.113 91.4487 277.624 91.5468C282.094 92.4138 287.125 93.1989 290.96 93.886C298.622 95.2518 303.488 98.1471 312.181 96.5604C313.352 96.3478 314.787 95.9961 313.937 94.6302L303.958 93.1908C298.16 90.32 291.01 89.2486 285.302 86.4759C283.265 85.4863 281.055 82.6973 279.141 81.6831C276.741 80.4236 273.946 80.3009 271.645 78.5997C270.977 78.1008 266.647 73.7169 266.506 73.1935C266.193 71.9585 267.389 69.0305 268.824 69.4231L268.403 68.597L273.203 68.0981C276.181 65.6526 276.313 62.9945 273.269 60.5981C272.172 59.7311 267.546 58.0708 268.643 56.3942C269.962 54.3822 274.944 55.8789 277.121 55.9444C285.517 56.1734 294.663 56.3206 302.622 54.8402C305.137 54.374 307.414 54.5785 309.805 52.7791C310.045 52.5992 311.908 50.1047 311.966 49.8348C312.139 49.0741 312.007 49.3686 311.496 49.1559C308.758 48.0191 304.461 50.2519 301.64 50.5218C297.104 50.9553 291.216 49.5894 286.812 49.2132C285.805 49.1314 284.585 49.7857 283.925 49.6139C283.364 49.4667 283.084 48.5998 282.144 48.4198C280.346 48.0763 276.651 48.5998 275.298 48.3053C274.449 48.1254 273.789 47.4384 273.055 47.2993C272.214 47.1439 271.966 47.8228 271.306 47.7901C267.183 47.5856 267.166 45.8762 266.21 42.3757C265.508 39.783 265.179 36.7977 264.205 34.295C263.834 33.3462 261.022 30.8844 262.564 29.6167C263.777 28.6189 264.791 29.7721 265.55 29.7884C275.471 30.0256 288.873 29.9438 298.028 26.6887C301.154 25.5764 304.057 24.006 306.886 22.2966L305.038 18.3054C303.381 17.9619 302.366 19.295 301.203 19.6467C300.75 19.7857 292.412 21.4542 291.875 21.4951C291.158 21.5524 290.358 20.9635 289.814 21.1189C289.269 21.2743 289.327 22.2557 288.84 22.3621C287.95 22.5665 285.871 21.9531 284.321 22.3784C283.315 22.6565 282.35 23.5398 281.756 23.5725C280.189 23.6543 277.591 22.1167 276.032 23.5889C276.123 22.0922 273.137 23.0491 272.379 21.9531C272.024 21.5115 272.164 21.1025 272.395 20.6609C273.335 18.8452 284.469 21.4542 281.855 15.7045L281.871 15.68ZM98.6549 19.6549C97.9291 18.9351 97.1209 17.3648 96.1889 16.8332C95.6363 16.5142 95.1168 16.8414 94.7209 16.6451C94.193 16.3752 93.9044 15.6309 93.4178 15.4019C91.3064 14.4286 78.4817 14.4695 75.4714 14.813C71.4961 15.271 67.892 16.506 63.4137 16.7923C61.2693 16.9313 59.1992 17.5938 56.7497 17.7165C54.259 17.8392 51.3065 17.054 48.7333 17.6347L38.5642 16.0153L37.6735 16.4406C36.9147 19.1723 42.325 22.1903 37.624 23.0082C37.3106 23.0654 32.6178 22.9918 32.3539 22.9428C31.6199 22.8201 30.6384 22.0022 30.0693 21.4869L29.6652 22.3294L14.3168 16.9395C12.8735 16.7677 12.3704 20.1701 12.9065 21.1516C12.9724 21.2661 14.6302 22.9591 14.7374 23.0327C21.0219 27.7683 29.6322 28.12 37.0549 29.2159C39.5786 29.584 42.7951 30.6063 45.3353 30.7372C49.9044 30.958 55.2322 28.7007 59.8838 30.7781L58.6879 35.5463L57.5333 35.9798C57.4425 38.2781 57.6157 44.9765 56.3209 46.6859C56.0075 47.103 54.5724 47.4956 53.8961 47.9455C48.3621 51.6668 47.1992 51.9858 40.2467 52.0103C33.459 52.0349 24.3539 50.9226 18.3085 48.6816C16.9312 48.1663 9.80543 46.4487 9.0879 46.8822C6.79512 48.2971 10.4157 51.0616 11.6611 51.9204C18.358 56.525 34.5312 59.6412 42.7704 59.3386L54.0034 57.621C54.3662 57.9645 53.0054 60.8189 52.6095 61.2769C52.3704 61.555 51.224 61.0643 51.3559 62.5283L45.9951 65.808C47.4054 68.3271 49.5003 69.0959 52.2549 69.5703C53.7889 69.832 58.1271 68.9405 58.1188 71.615C58.1188 74.5185 56.1147 74.2895 54.5889 75.4263C43.9827 83.3025 33.9621 86.4432 21.4013 89.3549L7.27347 90.0501L6.58069 90.639C7.55388 95.489 14.4982 96.0697 18.6219 96.2905C27.925 96.7894 40.4199 94.3031 49.459 91.9639C50.8116 91.6122 52.1147 90.4917 54.0116 90.8107C54.8034 92.7082 53.7642 91.9966 52.7827 92.7573C51.2982 93.9023 49.8302 94.7611 48.0487 95.6199C47.4384 95.9143 46.3333 95.3336 45.7642 96.7076C44.6013 103.831 49.8219 104.878 55.3559 102.114C57.4425 101.075 59.5704 100.208 61.7147 99.1695C62.0528 99.0059 62.0776 98.3925 62.3168 98.3843C64.4611 98.2943 66.3827 99.5539 65.9044 101.926C65.8219 102.343 65.0467 102.024 64.7498 102.261C64.0817 102.809 63.0343 104.371 62.2178 105.009C58.5312 107.88 53.591 110.972 49.6075 113.761C48.9972 114.186 46.8776 114.93 46.6714 115.143C46.2673 115.576 46.4817 116.247 46.3333 116.361C46.0776 116.574 45.3106 116.296 44.8075 116.541C44.1889 116.852 42.3415 119.118 41.3188 119.674C37.8054 121.588 34.2508 125.579 30.6879 127.959C23.6034 132.695 15.9003 136.162 8.63429 140.554C7.24048 141.397 7.73532 141.65 9.12089 142.272C18.3415 146.427 22.1601 143.548 31.0095 140.538C36.2302 138.763 39.9333 137.692 44.4116 134.846C47.3477 132.981 49.6157 130.944 52.8817 129.382C55.4054 128.18 56.725 128.221 55.3889 131.451C54.9436 132.539 52.6425 134.428 51.5539 134.993L51.4384 135.533C52.4611 140.963 58.1848 137.455 61.0549 135.59C65.3848 132.776 70.8941 128.9 74.7951 125.808C75.1827 125.497 75.2075 124.401 76.2549 124.401C79.9003 124.385 74.0941 129.055 73.9126 129.333C69.0302 136.71 64.3209 143.703 59.0343 151.04C55.158 156.413 52.2797 161.206 48.6838 166.8C40.024 180.263 27.8838 196.481 13.7312 203.981C12.758 204.496 11.4219 204.807 10.5147 205.396C10.1106 205.658 9.7477 205.347 9.97038 206.329C13.8714 208.635 17.492 207.49 21.5003 206.288C25.5415 205.077 30.5889 202.55 34.2096 199.622C45.2776 190.666 56.6673 175.887 64.5518 164.494C65.6817 162.858 66.7126 160.691 68.1065 159.153C69.3023 158.499 69.8796 159.333 69.69 160.552L68.8487 160.126C68.5518 161.419 68.3786 163.21 67.958 164.42C67.0755 166.964 64.4034 171.487 62.6302 173.891C61.69 175.167 59.9333 176.877 58.7209 177.956C60.0405 179.968 59.191 183.804 62.4735 182.585C63.3807 182.25 69.0219 178.038 69.525 177.196C70.6714 175.298 70.7044 174.922 72.1147 173.024C76.5601 167.07 77.5662 163.48 80.758 157.018C81.7642 154.982 83.2487 153.207 84.09 151.081C83.1085 151.04 81.3518 150.083 80.4776 150.197C79.9168 150.271 78.7126 151.882 77.8467 152.054C77.0467 152.209 76.0652 151.563 75.191 151.71C74.9518 151.522 77.3436 147.425 77.7147 146.95C78.8281 145.519 80.3951 143.883 81.525 142.125C83.8838 138.452 86.4652 134.878 89.4013 131.574C90.3085 130.552 93.3683 126.953 94.4817 126.92L95.3972 127.558C95.6446 128 92.7333 132.482 92.1394 133.332C91.7766 133.856 89.8879 135.5 89.6075 136.089C88.7415 137.929 90.1106 141.364 92.4941 140.947C94.1683 140.653 95.4714 136.792 97.6405 137.43C97.7889 139.818 96.3539 141.879 95.6611 144.079C93.525 150.892 91.224 157.746 88.692 164.396C86.2673 170.783 83.9415 178.422 81.6817 185.252C79.0095 193.332 76.1394 202.166 73.5168 209.584C69.8714 219.897 63.6941 234.586 58.0693 244.033C57.6817 244.687 55.158 246.364 55.8755 247.509C56.7333 248.883 60.8487 247.419 61.9044 246.511C74.6384 235.617 79.7023 219.431 86.0611 204.652C87.6034 201.07 89.4673 198.027 90.9766 194.052C93.3766 187.763 95.0013 181.277 97.1539 174.963C97.7889 173.106 100.049 166.203 101.03 164.952C101.236 164.69 101.517 164.322 101.863 164.322C103.15 165.328 100.733 177.613 100.337 179.878C100.981 182.569 103.414 183.894 105.451 181.522C109.467 174.194 111.034 166.359 112.989 158.76C113.245 157.771 114.036 156.372 114.333 155.08C114.63 153.788 115.488 148.038 115.1 147.204C113.822 144.415 111.142 148.504 109.772 148.341L106.63 147.408C105.591 146.541 107.414 140.374 107.917 139.017C108.313 137.97 109.484 135.492 110.614 135.377C113.377 136.579 109.838 142.206 110.523 143.319C110.812 143.785 112.585 144.227 113.022 144.047C115.199 143.147 115.612 138.673 116.172 136.751C116.346 136.154 116.931 136.203 117.005 135.95C117.294 134.927 116.692 131.157 118.366 131.116L118.16 130.282C114.003 130.944 111.348 125.072 115.636 123.567L115.834 122.725C114.391 122.79 114.127 120.819 113.294 120.385C112.28 119.854 110.259 121.22 108.882 121.04C108.618 121.007 104.445 118.774 104.214 118.496C102.3 116.141 106.078 113.671 101.607 113.098C95.7188 112.346 90.7456 114.096 92.1147 105.5C91.7271 105.107 87.7271 105.124 86.9436 104.993C86.3745 104.895 81.8467 102.776 81.2528 102.392C81.0879 102.286 78.49 99.742 78.3827 99.5784C76.2137 96.3232 80.1065 93.4198 79.6446 91.6204C79.1992 89.9029 77.2528 90.5326 75.7683 89.9846C74.1353 89.3876 73.4508 87.5719 71.892 87.3429C70.9188 85.0773 70.9848 82.8036 71.0178 80.3991C72.1394 80.1701 71.9992 79.0986 72.4941 78.5834C73.0714 77.9863 74.7044 77.88 74.7704 76.5305C78.6467 77.4547 74.0776 81.1024 73.8879 83.049C73.7559 84.4476 75.8425 86.9258 77.0467 87.4901C78.9188 88.3652 83.8838 86.2142 85.2858 90.2382C85.4178 90.9416 83.8095 91.3178 83.2735 92.3238C82.6384 93.5179 83.0178 94.1967 82.7786 95.1291C82.6879 95.4726 82.0116 95.4072 81.9456 95.7017C81.8879 95.9634 82.325 98.646 82.4487 98.7278C82.6467 98.8587 83.29 98.6869 83.5044 98.8914C83.859 99.2431 85.7972 101.697 86.0528 101.738C88.758 101.566 91.8425 100.584 94.4817 100.454C98.4735 100.257 95.826 105.459 95.9333 107.774C96.8157 108.06 97.9951 110.636 98.5642 110.873C101.187 111.945 104.799 105.533 107.793 106.964C108.428 107.324 107.24 109.156 107.1 109.99C106.869 111.413 108.049 114.39 108.742 115.683C110.589 119.101 111.488 117.343 114.655 118.226C115.859 118.561 118.374 120.14 119.43 120.042C120.915 119.903 123.793 116.5 125.509 116.37V114.807C123.851 113.834 121.566 114.717 119.941 114.243C119.744 114.186 116.939 111.822 116.709 111.56C115.513 110.195 114.952 108.044 114.762 106.277C115.744 104.625 117.533 102.531 119.43 104.24C119.95 101.942 122.82 104.772 123.01 104.649C122.836 103.676 123.917 104.028 124.296 103.521C124.725 102.956 124.89 101.255 125.583 100.691C126.317 100.094 127.513 100.323 128.197 100.028C128.717 99.7992 128.882 98.7442 129.789 98.7687C130.061 98.1062 129.706 98.1635 129.542 97.9345C128.651 96.7322 123.752 96.585 121.954 96.3887C116.659 95.8162 111.257 95.5544 106.127 93.4934C103.719 92.5201 99.3972 90.1646 97.591 88.3898C94.6467 85.5026 91.1497 81.5196 88.9724 77.3156C86.5477 72.6292 84.2302 59.1505 85.3353 54.1123C85.4013 53.8015 86.0034 53.8751 86.0776 53.6216C86.5559 51.9285 86.0693 49.9166 87.2487 47.5447C87.4796 47.0785 88.5106 45.1647 88.7168 44.8784C89.0632 44.3958 89.657 44.723 90.0116 44.3141C91.4219 42.6865 91.3724 41.7377 93.4755 40.2492C95.2075 39.0223 96.7745 38.6298 98.0446 36.8304C98.5559 36.1107 102.498 28.0055 102.572 27.4984C102.614 27.2367 101.739 22.5747 101.616 22.3457C100.981 21.217 99.4384 20.4728 98.6137 19.6467L98.6549 19.6549ZM172.156 19.0824C171.678 18.8697 165.896 17.3157 164.684 16.9968C158.671 15.4101 152.667 15.1238 146.597 14.3059C143.224 14.2487 140.832 15.7863 137.921 17.0785C139.463 19.9657 141.005 22.9019 142.614 25.7726C143.01 26.4842 144.296 26.8686 143.876 28.6107L144.915 28.5862C144.981 30.9498 146.465 30.5491 147.15 31.2361C148.197 32.283 149.509 34.1478 150.952 35.3337C151.958 36.1516 154.407 37.3457 155.29 38.09C155.867 38.5807 155.653 39.4722 155.719 39.5458C155.884 39.7175 157.03 39.0551 157.558 39.1041C157.805 39.1287 157.838 39.7339 158.185 39.9138C159.026 40.3637 160.997 40.9607 161.525 41.3533C161.682 41.4678 164.007 44.1014 164.098 44.2732C164.238 44.5512 164.007 46.0561 164.131 46.5878C163.653 46.7432 163.043 47.3402 162.638 47.3975C162.276 47.4465 158.399 45.9416 157.987 45.6881C157.162 45.1728 156.7 43.7006 156.263 43.2999C153.509 40.7644 149.583 38.9651 146.663 36.1025C144.098 33.5916 139.867 28.7007 137.954 25.7399C135.884 22.542 136.428 19.8512 131.513 19.1805C129.698 18.9351 129.566 19.7939 128.403 20.0393C127.768 20.1783 127.076 19.7285 126.094 19.9902C122.671 20.8899 120.461 21.6832 119.57 25.331C119.034 27.5311 119.661 27.3675 120.568 29.0278C121.335 28.0954 122.902 27.4329 122.68 26.0916L123.95 26.934L124.172 25.6663C128.75 25.5682 131.81 27.024 135.405 29.6003C139.183 32.3075 142.407 35.3909 145.682 38.9978C147.867 41.4106 153.195 44.0687 155.818 46.2606C157.187 47.3975 158.21 48.7388 159.109 50.2601L157.632 51.3315C153.187 51.9531 152.313 50.6036 148.774 49.5485C143.95 48.109 135.125 48.0927 130.457 48.2072C128.832 48.2481 126.985 47.0867 125.657 48.3462L125.41 47.5038C122.647 48.6079 120.923 46.9231 118.449 46.6777C119.207 49.2704 120.04 48.8451 121.937 49.6467C122.243 49.7775 122.226 50.3664 122.564 50.44C125.418 51.0861 129.484 49.9656 130.432 50.121C130.878 50.1946 131.29 50.8653 132.189 50.898C139.768 51.1434 143.257 50.6935 149.096 55.7644C149.995 56.5496 151.661 56.7786 151.974 58.7988L152.758 58.4307C154.3 61.6286 153.855 64.892 152.733 68.2126C152.601 68.6052 151.95 68.5152 151.958 68.7033C151.983 69.1204 152.428 69.6357 152.354 70.3882C152.115 72.8991 148.098 79.7448 146.168 81.5277C145.377 82.2557 139.694 84.5784 138.564 84.7093C137.377 84.8483 129.525 82.82 129.03 83.2289C130.688 88.0463 135.249 86.9094 139.043 88.2017C139.678 88.4143 139.801 89.4694 140.89 89.1177C141.104 89.3303 139.067 93.387 138.713 93.9023C136.56 97.043 131.909 102.711 128.667 104.6C126.457 105.892 123.76 106.588 121.607 108.019L121.154 107.185H119.29L119.298 108.428C121.03 108.371 120.601 109.753 122.655 110.35C125.954 111.315 130.276 110.751 133.228 109.033C135.463 107.725 136.915 105.68 138.342 104.044C139.562 102.645 140.28 101.067 142.581 101.926C140.75 105.001 138.919 108.739 136.181 111.102C135.595 111.601 133.847 112.133 133.401 112.771C133.03 113.303 133.179 114.178 132.742 114.644C132.304 115.11 129.748 116.1 128.931 116.836C127.917 117.752 127.141 119.576 125.896 120.459C124.403 121.514 121.937 122.594 120.098 123.755C119.587 124.082 118.012 123.788 118.028 125.039C118.028 125.62 119.109 125.325 119.199 125.383C119.414 125.53 119.405 126.209 119.991 126.43C121.979 127.174 122.729 126.217 124.139 126.061C130.045 125.432 133.154 124.548 138.152 121.048C139.81 119.886 143.727 111.781 144.75 109.606C144.882 109.319 145.327 109.254 145.368 109.164C145.731 108.338 147.067 101.067 148.948 102.564C148.676 103.995 149.583 106.179 149.377 107.741C149.344 108.019 148.709 107.986 148.568 108.362C147.034 112.436 145.673 116.885 144.073 120.852C143.752 121.645 141.591 126.806 141.344 127.059C140.898 127.525 139.323 127.943 138.77 127.583C137.632 126.83 139.744 124.777 138.152 124.835C137.533 125.579 136.106 126.953 135.306 127.46C131.026 130.2 126.977 129.84 126.49 135.974C126.127 140.513 126.853 145.388 128.156 149.101C129.212 152.095 128.593 154.581 132.659 154.287C133.352 154.238 133.484 152.806 134.968 153.403C134.671 154.516 134.622 156.421 135.364 157.346C135.694 157.763 136.412 157.403 136.676 157.877C137.08 158.589 137.088 159.807 136.667 160.535C137.41 160.715 137.517 160.282 137.929 159.897C138.358 159.497 140.379 157.599 140.502 157.411C141.113 156.511 142.135 151.473 143.224 151.718C146.539 153.902 144.634 157.272 145.814 160.494C146.061 161.181 148.593 165.304 149.096 165.851C149.286 166.056 150.77 167.144 150.927 167.185C153.261 167.7 155.537 159.685 156.577 160.969C155.95 163.038 157.278 162.907 157.748 163.782C158.193 164.592 159.867 168.035 159.859 168.673C159.859 169.516 158.102 176.394 157.731 176.819C155.323 179.584 153.014 170.219 152.321 169.606C151.917 169.254 150.886 169.148 150.432 168.608C148.057 171.65 144.931 171.691 143.595 167.765C143.133 166.399 143.109 164.911 142.671 163.651C142.457 163.03 141.393 162.891 141.748 161.811C140.436 161.623 140.445 163.242 139.826 163.897C139.059 164.715 136.972 165.32 136.461 166.849C135.95 166.547 135.603 166.383 135.224 165.892C134.721 165.238 134.333 163.373 134.012 162.76C133.822 162.408 132.535 162.482 133.278 161.394H131.587C131.537 166.105 131.232 170.62 132.007 175.257L135.612 173.589C136.849 175.143 137.583 182.348 140.774 179.33C141.352 178.79 141.624 177.76 141.805 177.007C144.09 176.337 144.618 178.169 145.36 179.895C145.657 180.573 145.764 181.776 146.457 182.978C147.422 184.63 150.309 187.476 150.853 188.736C151.059 189.218 150.63 189.815 150.721 189.922L151.48 190.388C149.756 190.036 150.317 191.14 149.814 191.77C149.517 192.146 148.898 192.22 148.758 192.474C148.478 192.948 148.981 194.674 147.455 194.576C147.207 194.559 145.179 190.887 144.989 190.29C144.725 189.456 144.774 188.122 144.511 187.026C144.181 185.644 143.224 185.064 143.678 183.232L142.012 182.806L140.618 184.458L138.35 183.665C137.574 185.284 138.333 186.372 138.556 187.656C138.638 188.106 138.243 188.711 138.333 189.251C138.358 189.415 139.521 191.222 139.917 192.065C140.346 192.964 141.847 193.635 140.923 194.821C139.562 196.571 138.779 195.222 137.805 195.14C136.354 195.025 133.228 195.05 131.843 195.164C129.269 195.377 126.803 196.195 124.222 196.342L123.513 197.52L126.053 199.008C126.185 199.532 125.55 199.982 125.187 200.243C123.554 201.438 119.447 203.531 117.492 204.374C113.822 205.969 109.533 207.146 105.698 208.226C105.014 208.692 104.098 214.066 104.139 215.055C104.164 215.628 104.717 216.02 104.742 216.339C104.807 217.484 104.486 220.241 104.065 221.263C102.919 224.044 99.6116 226.383 98.9353 229.458C96.1394 227.667 93.7972 230.677 90.8941 230.301C91.0508 233.049 94.6549 233.654 97.0137 233.212C97.3766 233.147 100.882 232.239 101.08 232.157C101.838 231.838 102.069 230.301 103.389 231.135L103.183 230.293C103.876 229.777 105.715 231.855 104.882 233.311C104.585 233.826 103.768 233.998 103.249 234.758C101.797 236.909 98.226 246.192 97.7724 248.662C97.4013 250.674 97.6157 253.373 97.2528 255.5L99.5704 254.24C100.255 252.179 102.919 250.887 102.762 248.777L103.521 249.104C104.659 248.327 104.956 246.634 105.451 245.98C107.026 243.927 109.805 241.857 109.962 238.962C111.389 237.825 111.974 240.263 111.991 241.432C112.007 243.109 110.968 243.223 110.836 243.64C110.086 246.037 109.946 249.864 110.399 252.334C110.498 252.882 112.741 257.381 113.344 256.759V248.605C115.24 247.779 114.028 247.411 114.218 246.495C114.35 245.832 114.968 242.667 115.109 242.52C115.207 242.405 115.851 242.561 116.156 242.34C117.954 241.031 118.597 238.038 119.851 236.099C120.502 235.093 121.583 234.603 122.036 233.237C122.944 234.071 122.572 235.233 123.15 236.328C123.414 236.836 126.045 239.829 126.482 239.526C126.737 238.447 127.603 237.752 128.148 236.762C128.494 236.132 129.789 232.91 129.657 232.329C129.517 231.74 128.725 231.061 128.478 230.203C127.612 227.193 131.034 225.68 131.166 222.727H132.428C132.09 224.706 132.865 226.211 134.779 226.947C136.659 227.152 139.191 221.852 138.333 220.012L135.958 213.616C135.942 212.765 136.535 211.211 137.368 210.999C139.257 210.516 140.667 216.724 143.389 214.687C143.595 214.458 143.339 209.436 143.24 208.48C143.117 207.335 141.838 205.723 143.851 204.431C145.187 203.572 145.822 206.533 146.234 207.146C148.181 210.05 148.676 212.258 150.061 215.522C150.754 217.149 151.603 219.047 152.634 220.404C151.711 221.68 151.282 223.357 150.655 224.625C150.102 225.737 149.096 226.309 148.626 227.659C147.876 229.826 147.438 236.271 147.249 238.897C147.141 240.312 147.645 245.423 146.828 246.037L145.979 245.824C146.069 246.797 146.671 247.885 146.407 248.891C146.3 249.292 145.476 249.366 145.179 249.856C143.043 253.43 143.711 255.532 143.397 259.017C142.902 264.472 142.243 264.226 139.999 268.586C139.166 270.197 139.529 269.837 139.092 271.555C138.366 274.417 137.137 274.965 134.498 276.241C133.187 276.871 128.733 277.28 130.927 279.3L138.16 278.629C138.704 277.01 140.065 276.405 140.898 275.44C142.869 273.141 144.61 270.573 145.954 268.177C146.226 267.694 146.119 266.934 146.515 266.508C146.614 266.402 148.964 265.224 149.179 265.159C150.276 264.832 149.814 267.572 149.706 268.201C149.294 270.516 147.933 272.029 147.306 273.477C146.201 276.02 145.855 277.893 143.834 280.028C143.282 280.617 142.135 280.83 141.739 281.418C141.253 282.146 141.269 283.43 140.873 284.142C136.643 291.626 131.719 298.602 125.245 304.442C124.684 304.949 121.525 307.746 121.302 307.885C120.56 308.368 118.531 308.147 117.607 308.638C116.948 308.989 116.931 309.995 116.461 310.11C115.298 310.396 111.257 310.142 109.764 310.077C107.678 309.979 106.185 308.916 104.131 309.766C103.001 318.19 111.917 314.943 116.931 315.606C117.979 315.745 119.24 315.982 119.306 317.242H119.719C119.529 315.753 120.568 316.775 121.418 316.555C129.047 314.551 130.845 304.883 136.148 302.569C137.83 301.833 139.521 302.79 140.073 300.23L139.249 299.469C140.238 297.212 140.304 294.464 141.558 292.493C142.729 290.644 144.816 289.556 146.152 287.806C149.236 283.766 150.309 278.875 152.288 274.458C152.783 273.346 153.401 270.581 154.671 270.598C157.137 271.342 155.653 273.305 154.036 274.188C153.69 274.941 155.81 274.777 154.482 276.233C154.036 276.724 153.269 276.413 153.187 276.495C153.005 276.683 153.542 277.836 153.484 278.327C153.41 278.965 152.733 279.864 152.527 280.674C152.205 281.909 152.643 284.052 151.067 284.06V284.469C153.517 284.878 149.624 288.894 149.055 290.252C144.61 300.925 140.519 307.754 134.498 317.299C132.189 320.963 131.067 324.104 130.498 328.594C130.02 332.364 131.372 334.744 131.438 338.269C131.496 341.083 130.506 346.849 131.15 349.311C131.265 349.744 131.983 349.409 132.007 349.793L131.141 351.004C132.222 352.37 131.999 358.209 134.407 355.527C135.579 354.218 134.63 353.417 136.28 352.672C135.372 351.012 136.486 351.282 136.519 351.184C137.286 348.182 136.758 345.001 137.212 341.917C137.385 340.731 137.377 340.085 138.779 340.339L137.509 339.922L137.962 338.474L137.121 338.073C138.473 333.599 137.871 328.847 139.612 324.611C141.08 321.028 144.23 318.272 145.583 315.377C148.791 308.499 150.506 300.598 153.896 293.719C154.605 292.288 156.972 289.36 157.352 287.937C157.616 286.931 157.104 286.448 157.096 285.843C157.071 284.248 160.139 285.508 160.296 286.416C159.48 289.475 159.81 292.91 159.1 295.936C158.894 296.819 158.762 295.543 158.729 298.111C158.647 304.425 158.465 310.821 157.847 317.037C157.401 321.568 155.727 326.05 155.315 330.491C154.234 342.203 155.084 346.89 162.449 355.739C163.463 356.966 163.661 358.823 166.292 356.917C168.923 355.012 171.636 346.685 171.768 343.455C171.876 340.87 170.531 338.278 171.364 335.914L170.556 335.489C169.319 318.084 167.925 300.213 167.719 282.686C167.694 280.658 168.181 274.998 168.478 272.888C168.544 272.43 168.585 272.168 169.055 271.955L170.539 272.324C169.83 273.305 170.812 273.828 170.952 274.638C172.733 284.674 173.08 295.208 176.626 304.319C177.104 305.546 177.113 307.901 177.888 309.145C181.344 314.698 184.56 319.368 187.488 325.126C191.24 332.503 188.527 339.365 189.979 347.323C190.35 349.376 191.339 353.343 193.855 353.384C192.016 347.062 194.548 341.091 194.292 334.671C194.02 327.768 192.7 321.282 189.344 315.213C188.09 312.956 188.346 313.962 187.397 311.271C186.119 307.623 183.521 306.527 181.385 303.362C179.81 301.023 178.3 297.735 177.797 295.159C176.626 289.237 176.906 281.124 175.62 275.955C175.529 275.595 174.861 275.84 174.754 275.063C174.383 272.364 175.339 263.94 179.661 267.253C180.651 266.467 179.768 265.241 181.146 264.954C181.187 264.66 180.321 264.758 179.95 264.038C179.133 262.427 177.97 258.109 177.607 256.244C177.195 254.085 177.368 251.631 176.906 249.456L177.748 248.998C176.337 247.206 175.636 249.799 174.193 249.644C171.537 247.403 173.574 246.904 173.913 244.769C174.16 243.24 173.673 241.547 174.358 239.968C172.073 239.616 172.139 242.422 169.756 241.587C168.461 239.935 170.111 238.111 170.012 236.876C169.97 236.394 169.434 234.218 168.84 234.251L168.915 233.082C171.356 231.707 170.696 229.843 171.232 227.724C171.628 226.154 172.098 223.569 172.502 222.302C172.898 221.067 175.199 218.834 175.867 216.838C176.461 215.064 176.321 211.817 176.766 210.132C178.028 205.339 179.29 205.094 178.795 199.237C178.729 198.477 178.102 194.723 177.88 194.273C177.591 193.684 175.471 193.005 174.902 192.155C171.43 191.386 171.537 197.577 170.135 199.753C169.748 200.35 168.156 201.397 167.793 202.566C165.104 201.438 165.921 197.307 165.377 196.359C165.022 195.737 159.488 193.766 159.109 194.175C159.62 195.647 158.564 197.086 158.457 198.15C158.366 199.017 159.496 202.198 157.624 202.174C155.199 201.511 156.032 199.573 155.529 197.929C155.323 197.242 154.515 196.637 154.234 195.851C153.335 193.316 153.17 190.903 151.463 188.474C151.331 187.64 152.461 187.656 152.676 187.354C152.816 187.166 152.865 182.97 154.622 183.698C155.562 184.082 155.859 186.176 156.387 186.986C158.16 189.676 160.84 191.263 163.562 192.883C164.742 191.95 164.972 190.388 165.607 189.259C166.845 187.051 167.612 185.497 168.255 182.831C168.395 182.234 167.966 181.612 168.007 181.563C169.484 179.985 172.362 185.759 171.818 187.018L174.366 187.435L174.036 186.675C176.527 184.663 177.129 180.704 178.638 177.678C178.812 177.335 179.447 177.343 179.471 177.081C179.562 175.969 178.21 175.404 180.296 174.619C180.024 174.022 177.937 173.63 177.344 172.926C176.75 172.223 177.005 171.405 176.296 170.603C175.892 170.145 172.247 167.316 171.834 167.684C172.247 168.829 170.243 170.669 170.177 170.906C170.111 171.143 170.44 171.691 170.276 172.206C170.078 172.844 167.579 174.439 168.857 176.484L167.438 176.95C165.434 174.791 163.504 172.648 162.985 169.622C163.059 169.336 165.451 167.52 165.904 166.956C166.878 165.753 167.727 162.817 168.692 161.844C169.154 161.378 169.665 161.034 170.333 160.952C170.836 162.891 174.193 166.465 176.082 167.046C176.873 167.291 176.37 167.046 176.494 166.432L177.121 167.266C178.177 166.211 177.748 164.69 178.284 163.406C178.82 162.122 179.974 161.713 180.296 160.74C180.403 160.421 180.643 156.871 180.601 156.618C180.494 156.012 179.579 155.464 179.521 154.81C179.438 153.829 180.89 152.34 181.946 153.035C182.135 153.158 183.587 156.92 182.416 157.174C184.783 157.583 184.106 162.793 187.24 160.911C189.476 159.57 189.088 155.432 189.583 153.191C189.929 151.612 191.117 150.156 190.894 148.357L193.005 148.807V151.293C194.144 151.465 194.102 150.59 194.358 149.87C195.339 147.081 194.177 143.409 193.632 140.8C193.319 139.303 193.888 136.007 191.306 136.825C191.339 137.929 191.389 139.18 190.935 140.219C190.078 142.166 187.306 144.791 185.863 146.525C185.393 147.089 185.269 148.079 184.717 148.75C183.463 150.238 180.981 150.663 180.733 148.12C180.56 146.378 180.717 146.075 181.014 144.308C181.401 141.945 179.974 142.313 179.579 141.969C179.397 141.806 177.36 138.968 176.643 138.133C175.966 137.356 175.95 135.402 173.954 135.762C173.715 136.424 173.739 137.356 173.484 137.953C173.162 138.722 171.933 140.309 171.554 140.947C170.96 141.953 170.432 143.024 169.797 144.014C170.647 146.239 172.395 149.878 171.694 152.291C171.48 153.035 170.638 153.248 170.341 153.845C170.168 154.188 170.746 156.061 169.492 155.088C169.203 154.417 169.327 153.649 169.088 152.978C167.917 149.731 167.801 146.517 166.424 143.433C165.888 142.231 164.824 142.108 164.346 141.503C163.9 140.939 163.744 139.728 163.298 139.058C162.259 137.479 161.385 138.526 161.657 135.549C161.715 134.936 161.319 134.322 162.292 134.502C163.9 134.796 164.865 138.616 166.589 139.074C167.612 139.409 167.076 137.136 168.436 137.446L167.595 136.62C168.56 136.735 168.626 135.811 168.733 135.034C169.558 129.03 169.896 117.981 169.236 112.076C168.882 108.837 166.853 103.856 166.795 101.083C166.795 100.969 168.205 100.658 167.595 99.2185C172.156 101.648 171.339 105.647 171.851 109.908C172.42 114.652 172.379 120.107 173.236 124.581C174.243 129.832 175.405 131.345 178.861 134.895C179.348 135.394 179.298 136.138 179.768 136.629C180.568 137.471 182.523 138.068 183.702 137.872C184.073 136.326 183.793 134.666 183.884 133.226C184.214 128.245 183.438 128.253 182.671 123.771C182.391 122.16 181.418 112.755 181.607 111.634C181.772 110.653 182.746 110.096 182.449 108.673L181.146 108.191L180.403 98.6379L180.989 97.9999L182.424 97.959C183.1 98.5888 182.762 107.667 183.1 109.344C183.76 112.648 185.393 115.609 187.001 118.422C187.356 119.044 187.273 119.976 187.496 120.377C187.768 120.86 188.56 120.508 188.725 120.688C188.956 120.942 188.618 121.776 188.873 122.226C189.311 123.003 192.37 125.055 193.129 125.693C195.265 127.517 197.467 129.3 199.595 131.141L201.517 129.243C200.593 127.615 200.865 125.914 199.917 124.115C197.022 118.611 193.748 113.253 191.158 107.356C190.341 105.484 188.073 100.437 187.694 98.4088C187.043 94.9574 187.471 93.2398 185.855 90.0419C185.352 89.0441 185.657 88.5779 184.263 87.5228C182.16 85.9361 180.741 85.9361 179.339 83.5724C176.181 78.2644 175.191 70.2328 176.049 64.1232C176.181 63.2072 176.824 62.6428 176.882 62.013C177.022 60.5981 176.857 54.922 177.838 54.3577C178.853 53.7851 179.917 54.4149 179.851 55.6826C179.521 62.0785 179.331 65.8653 180.181 72.2448C180.354 73.5697 181.69 75.1891 180.725 76.9476L181.921 77.013C182.234 80.7916 186.457 83.4579 189.83 84.1204C192.733 83.7197 188.948 78.8369 188.478 77.88C187.95 76.8004 186.713 74.9274 186.49 74.4449C183.232 67.223 183.562 57.6701 184.651 50.8162C184.733 50.2928 184.931 49.7857 185.005 49.2541L186.886 49.6058C186.977 52.7628 186.16 55.4782 187.109 58.6434C187.471 59.8538 190.251 64.8184 191.735 63.5016L188.766 50.2846C188.873 49.4913 189.294 49.7857 189.814 50.072C191.224 50.8653 192.857 51.814 194.49 52.1739C195.133 52.313 195.216 52.1412 195.133 51.536C194.968 50.3173 191.81 46.7186 191.1 45.0174C190.391 43.3244 190.605 41.934 190.259 40.3964C190.028 39.374 189.236 35.6036 188.939 34.982C187.958 32.9128 184.816 30.7536 183.636 29.2732C183.339 28.897 183.694 28.2917 183.62 28.259C182.944 27.8664 182.284 28.6761 181.987 26.5578C183.686 25.5436 186.515 26.1652 187.125 24.0469L188.329 24.4395L187.694 22.771C186.292 24.5867 186.473 23.5644 185.137 23.2045C180.56 21.9777 176.024 20.8163 172.156 19.0987V19.0824ZM195.834 101.083C195.109 100.764 194.383 100.593 193.624 100.045C192.016 99.9955 198.152 108.673 197.888 109.679L204.42 112.231C204.238 111.683 204.412 110.89 204.263 110.424C203.744 108.771 202.432 107.144 201.904 106.023C201.764 105.729 201.987 105.14 201.781 104.78C201.649 104.551 197.871 101.918 197.451 101.689C197.187 101.55 196.387 101.337 195.834 101.092V101.083ZM219.191 111.045C218.449 109.786 215.974 110.546 214.886 111.053L212.898 113.491C214.102 113.474 216.065 114.358 217.154 114.079C218.053 113.842 219.752 112.002 219.191 111.045ZM210.779 133.668C211.166 134.404 212.073 136.784 213.104 136.604C213.987 136.449 213.434 135.508 213.385 135.099C213.179 133.463 213.005 132.065 211.216 131.566L210.754 132.997L211.636 133.66H210.795L210.779 133.668ZM216.139 146.41C215.669 145.977 213.838 144.946 213.302 145.2C212.643 145.732 212.032 147.392 212.09 148.177C212.148 148.962 212.873 149.338 213.08 150.009C213.344 150.876 212.659 152.136 213.121 152.97C213.261 153.215 214.812 154.303 215.183 154.704C215.793 155.358 215.678 156.691 216.915 156.609C218.581 156.495 219.207 153.248 219.092 151.858C218.993 150.68 216.989 147.196 216.139 146.419V146.41ZM185.36 167.275C184.585 167.013 183.727 168.534 183.504 168.992C182.589 170.873 182.564 171.348 181.393 173.188C179.933 175.47 181.302 178.872 183.043 180.712C185.871 176.582 185.871 172.108 185.368 167.275H185.36ZM206.399 198.501C205.797 198.035 199.422 195.148 198.68 195.025C196.222 194.608 193.368 195.639 191.076 194.158L186.078 197.193C185.269 200.039 184.709 202.942 184.939 205.92L184.098 205.494C184.577 207.457 182.845 213.91 186.614 212.405C189.228 211.367 189.294 207.506 189.591 207.367C193.187 207.645 190.878 209.51 190.539 211.26C190.391 212.029 190.045 216.053 190.449 216.413L191.917 215.579L193.715 217.452C193.682 218.073 192.098 220.208 192.106 220.38C192.123 221.827 193.261 225.884 195.232 225.173C196.073 224.87 198.111 220.764 199.092 224.625C200.098 228.559 194.053 233.589 198.762 236.966C201.591 237.056 201.17 233.58 202.597 231.65C202.878 231.266 202.605 230.906 203.57 231.127L203.752 241.219L206.102 242.045C205.781 240.77 207.092 240.614 207.372 240.042C208.164 238.398 207.909 235.666 208.37 234.186C208.56 233.564 210.647 232.64 211.249 233.482C212.758 235.609 213.195 247.362 213.583 250.494C213.764 251.958 214.803 254.232 214.927 255.721C215.001 256.538 214.449 261.495 214.177 261.945C213.888 262.419 210.424 263.253 212.321 265.192C212.7 265.257 215.067 264.505 215.348 264.235C215.653 263.932 215.603 263.245 215.843 262.967C222.152 255.753 217.335 250.952 217.64 243.117C217.673 242.291 218.045 239.068 218.366 238.569C220.024 235.977 221.385 240.966 222.053 242.021C222.795 243.199 223.991 244.597 224.741 245.628C225.327 246.429 225.962 247.231 226.663 247.942C227.727 247.942 227.669 243.362 227.579 242.593C227.24 239.862 225.253 237.645 225.607 234.93L230.061 238.283C230.762 238.39 230.746 238.308 230.704 237.653C230.671 237.122 229.591 233.605 229.335 233.122C228.865 232.223 228.115 232.231 227.711 231.683C224.783 227.716 226.308 223.095 225.591 218.777C224.923 214.761 223.834 212.561 221.179 209.698C220.791 209.281 220.774 208.496 220.403 208.161C219.851 207.653 215.117 205.576 214.185 205.298C213.228 205.012 211.694 205.282 211.273 205.036C210.985 204.865 210.564 202.869 210.201 202.305C210.053 202.076 206.614 198.689 206.399 198.526V198.501ZM189.327 293.58C187.348 290.513 186.605 285.001 183.661 280.919C183.092 280.126 181.146 278.302 181.566 280.47C181.698 281.173 182.193 281.705 182.3 282.269C183.513 288.485 183.727 289.949 186.671 295.486C188.469 298.856 192.354 306.495 195.43 308.85C196.527 309.693 198.201 310.241 199.125 310.952C201.253 312.612 205.137 317.757 208.049 316.023C211.43 314.011 206.045 310.126 204.494 308.965C203.471 308.196 202.614 307.566 201.566 306.732C200.972 306.257 199.48 305.914 199.414 305.824C199.183 305.53 199.496 304.744 199.257 304.319C199.158 304.139 196.709 302.659 195.933 301.923C194.787 300.827 190.21 294.93 189.327 293.572V293.58Z" fill="black"/>
<path d="M157.682 125.561C157.064 128.391 155.216 132.284 155.728 135.949C156.173 139.187 156.619 142.95 156.363 146.393C156.256 147.816 155.975 151.513 154.219 151.333C152.231 151.128 153.79 145.624 153.856 144.136C153.88 143.514 153.74 139.719 153.583 139.547C151.942 139.416 152.33 141.551 151.761 142.361C150.656 143.931 145.996 145.812 144.058 146.27C142.656 146.319 146.095 138.746 146.4 138.198C146.581 137.879 148.454 136.063 148.47 135.908C148.619 134.55 150.219 128.882 150.953 127.475C152.305 124.874 152.726 124.948 153.781 121.881C155.192 117.792 156.973 113.4 158.153 109.408C158.251 109.081 158.812 103.699 158.895 102.792C158.994 101.745 157.814 99.5282 159.72 99.2092C161.146 99.5037 160.981 104.943 160.808 106.161C159.917 112.443 159.052 119.264 157.682 125.561Z" fill="black"/>
<path d="M154.309 20.7824C154.565 20.8806 156.255 22.32 156.396 22.3364C156.965 22.41 157.732 21.8947 158.449 21.8947C159.043 21.8947 161.765 22.9907 161.971 23.2279C162.128 23.4078 162.35 25.9106 163.967 26.1068C164.544 24.9454 166.152 24.6674 167.299 23.9395C167.794 23.6205 167.893 22.8435 168.288 22.7372C168.717 22.6227 172.841 22.639 173.022 22.7944C173.121 22.8762 173.501 24.651 173.427 24.97C173.047 26.6221 166.458 30.8669 164.445 30.6788L163.084 28.6014C161.608 28.3887 160.849 30.1472 160.709 30.1963C160.041 30.4416 158.128 29.6728 157.394 29.4602C155.893 30.8097 163.109 32.0201 163.505 31.9956C163.769 31.9792 163.695 31.2677 163.95 31.2104C164.42 31.1041 166.235 31.8484 167.076 31.2104L167.827 32.6172C167.043 34.8337 166.086 34.073 164.552 34.3429C161.946 34.7928 160.107 35.4798 157.295 34.4738C157.039 34.3838 157.039 33.8849 156.643 33.6968C156.247 33.5087 155.455 33.754 154.845 33.4678C154.614 33.3533 151.744 29.9836 151.505 29.542C150.721 28.0616 150.284 25.9351 149.732 24.3239C149.625 24.0212 148.948 24.0294 148.907 23.7186C148.833 23.1052 149.468 22.271 148.932 21.5103C150.664 20.9951 152.412 20.0872 154.293 20.7824H154.309Z" fill="black"/>
<path d="M174.21 84.6427C174.953 85.7387 175.505 86.9737 176.462 88.0779C177.006 88.7076 179.918 90.7605 179.835 91.4394C177.369 94.1138 175.901 90.7851 174.169 89.9508C173.163 89.4601 171.406 89.5173 170.953 88.953C166.491 83.4405 167.868 79.7273 168.404 73.3723C168.759 69.2338 168.783 65.6679 169.287 61.6439C169.361 61.0305 170.293 58.037 170.73 58.0452C171.975 59.4029 172.148 61.1204 172.239 62.8625C172.553 69.0866 169.493 78.296 172.874 83.6531C173.262 84.2665 173.971 84.3156 174.202 84.6427H174.21Z" fill="black"/>
<path d="M160.891 78.2796C160.775 78.4759 159.785 81.9683 159.711 82.3772C159.554 83.236 159.554 84.7 159.134 85.5669C158.111 87.6689 156.42 89.9344 154.251 90.8341L152.049 87.2354L154.441 82.7125C157.196 79.1875 159.728 73.2823 160.693 68.6449C160.841 67.9416 160.676 64.76 160.866 64.1548C161.047 63.5986 161.839 63.6231 161.971 63.4268C162.062 63.2878 161.286 61.9874 162.474 61.8156C163.225 63.6477 164.354 65.856 164.198 67.9007C164.091 69.3483 163.134 69.7982 162.985 70.5261C162.202 74.2556 163.076 74.4601 160.882 78.2796H160.891Z" fill="black"/>
<path d="M142.458 136.055C142.375 136.251 141.27 138.296 141.039 138.672C139.959 140.422 136.305 142.402 134.317 142.819C132.932 143.113 130.705 142.737 131.216 140.872C132.148 139.588 134.664 139.065 135.497 138.304C137.08 136.848 136.173 136.799 139.035 135.188C139.291 135.041 139.365 134.321 139.868 134.149C141.328 133.642 143.183 134.403 142.458 136.055Z" fill="black"/>
<path d="M71.3977 58.0452C66.5564 62.6744 67.7523 69.3156 75.6369 68.1297C75.2987 69.6428 74.4905 71.2949 72.7915 71.3767C72.0327 71.4176 68.5276 70.7714 68.0245 70.4279C67.4637 70.0435 65.3276 66.4612 65.2946 65.676C65.2698 65.079 65.9709 60.8423 66.1523 60.5561C67.043 59.133 69.1296 58.6831 69.9709 57.6117L71.3977 58.0534V58.0452Z" fill="black"/>
<path d="M79.4393 26.9656C79.5053 27.0392 79.0764 28.1924 79.4228 28.5932L73.9548 30.3353C74.5321 31.7911 72.8414 32.699 74.3342 34.3266C74.9857 35.0381 78.0703 35.3162 79.1259 35.2426C80.0909 35.1772 81.7569 33.6968 81.7898 35.3653C81.5754 36.8702 77.8476 37.6145 76.4785 37.0256L76.2641 38.2933C74.2022 37.6635 70.763 36.4531 70.6723 33.9585C70.5074 29.6565 73.8806 29.0512 77.0228 27.6935C77.6084 27.44 78.6393 26.0087 79.4393 26.9656Z" fill="black"/>
<path d="M71.9751 45.1635C69.0061 48.664 70.2184 51.1013 74.7793 50.0544C76.0906 53.1215 69.9463 54.8554 68.8164 53.1297C68.6844 52.9252 67.2494 49.9318 67.2164 49.7437C66.9607 48.4678 68.0906 47.7889 67.6288 46.5539C69.0391 45.0326 71.0184 41.3358 73.0885 43.9612C73.2535 44.7218 72.2968 44.7791 71.9751 45.1553V45.1635Z" fill="black"/>
<path d="M72.9732 111.502C73.567 112.091 73.4433 112.639 73.1381 113.293C72.9896 113.62 69.3031 117.481 68.8082 117.865C67.5711 118.83 65.7979 119.239 64.734 119.918C64.1732 120.278 63.0268 123.018 61.1793 120.883C59.6866 119.149 62.8371 118.659 64.0824 117.832C66.5402 116.205 68.6927 114.005 70.969 112.017C71.3897 111.649 71.4721 110.038 72.9567 111.51L72.9732 111.502Z" fill="black"/>
<path d="M105.641 151.374C105.897 151.775 105.575 152.584 105.724 153.091C105.823 153.435 106.375 153.427 106.524 153.738C107.653 156.085 105.319 158.318 102.969 158.449C101.996 157.802 102.631 157.721 102.68 157.32C102.928 155.267 104.346 153.018 104.445 150.883C104.717 151.047 105.608 151.317 105.641 151.374Z" fill="black"/>
<path d="M250.037 25.8369L253.592 28.0779C254.499 30.6543 255.233 32.609 254.177 35.3244C253.938 35.9296 251.472 37.9416 251.876 38.2851C253.518 37.9171 252.998 39.1194 253.757 39.9863C254.342 40.6488 257.213 42.7426 257.336 42.9879C257.509 43.3151 256.932 43.8222 257.056 44.1003C257.559 45.2453 257.559 44.8773 257.897 46.8156C257.98 47.3064 258.549 47.8134 258.573 48.2387C258.582 48.4023 257.386 51.1013 257.27 51.2077C256.693 51.7393 254.054 52.7453 253.188 52.7698C251.777 52.8025 251.769 51.6902 250.598 51.0686L252.998 46.832C253.138 43.6586 252.602 42.4481 250.078 40.796C248.66 39.8718 248.957 40.4525 248.198 40.0763C247.258 39.6101 241.584 36.8538 241.361 36.5348C241.295 36.4367 241.707 35.9623 241.625 35.8478C241.485 35.6597 240.85 35.6433 240.66 35.3571C240.157 34.6128 240.52 33.3124 240.446 32.4045C243.332 33.8931 245.476 34.392 248.52 33.0343C249.303 29.8446 246.582 27.6608 245.955 24.8391L250.045 25.8287L250.037 25.8369Z" fill="black"/>
<path d="M254.145 111.657C254.639 112.017 256.107 113.326 256.223 113.383C257.114 113.825 258.136 112.811 257.806 114.757C259.052 114.046 261.815 116.704 262.623 117.734C265.938 121.963 264.578 123.173 259.497 122.314L260.338 121.48C259.992 121.456 259.439 121.57 259.192 121.374C257.716 120.196 255.613 116.475 254.26 114.904C253.015 113.457 249.93 111.772 249.608 109.629C249.526 109.057 249.122 109.032 249.955 108.459C251.695 109.13 252.899 110.758 254.136 111.657H254.145Z" fill="black"/>
</g>
<defs>
<clipPath id="clip0_19_2407">
<rect width="328" height="371" fill="white"/>
</clipPath>
</defs>
</svg>
