<svg width="329" height="371" viewBox="0 0 329 371" fill="none" xmlns="http://www.w3.org/2000/svg">
<path d="M322.699 3.83292C323.313 4.51931 326.892 8.48422 327.033 8.77492C327.265 9.23521 328.328 13.0305 328.278 13.5312C328.096 15.4127 325.746 18.78 323.861 19.2565C320.141 20.1932 319.386 17.698 317.733 17.698C314.902 19.1434 312.511 19.4099 310.252 21.7679C305.586 26.6372 306.001 33.4768 308.011 39.6463C310.892 48.5289 316.48 56.6283 318.788 66.7223C318.854 67.0291 319.527 66.9645 319.602 67.2714C320.025 68.9914 319.51 76.0249 319.095 78.0033C318.597 80.4097 316.704 80.66 315.234 82.3316L317.019 85.3759C316.986 85.707 316.264 86.0058 316.131 86.3691C314.171 91.7956 309.87 97.1818 307.604 102.439C304.797 108.955 304.482 116.175 301.899 122.199C299.301 123.725 303.618 124.258 300.496 125.768C300.803 126.592 301.285 128.384 300.828 129.087C300.679 129.313 299.815 129.337 299.724 129.797C299.649 130.185 300.189 130.694 300.006 131.097C298.52 134.465 295.697 138.236 292.849 141.135C292.517 141.466 290.383 142.879 290.101 143.17C287.568 145.802 288.324 146.053 287.394 148.944C286.871 150.559 283.6 152.812 282.661 156.437C282.188 158.278 282.495 160.103 282.221 161.646C282.055 162.558 280.602 165.853 280.585 166.515C280.569 167.177 281.316 167.734 281.349 168.51C281.416 169.818 280.411 174.009 280.145 175.785C279.963 177.005 278.435 177.15 280.569 178.628C278.767 179.597 279.747 180.719 279.523 181.713C278.327 186.84 276.392 192.218 274.948 197.378C274.001 200.762 273.154 209.031 271.22 211.946C271.012 212.269 270.331 212.277 270.248 212.39C270.157 212.519 270.663 213.246 270.614 213.731C270.531 214.482 269.501 215.047 269.783 215.967C271.784 216.904 273.628 216.92 275.62 217.356C276.924 217.647 277.704 218.277 279.091 218.422C279.979 218.519 282.396 218.527 283.184 218.309C283.525 218.212 287.469 215.798 287.909 215.434C288.706 214.764 291.695 210.783 291.994 209.903C292.293 209.023 291.878 205.05 291.28 204.363C291.114 204.178 290.342 204.194 289.926 203.879C287.934 202.328 285.684 199.89 286.472 197.29C286.697 196.547 289.802 193.438 290.283 192.291C292.069 191.516 294.095 189.723 296.079 189.473C297.889 189.239 302.165 189.973 303.801 190.773C304.988 191.354 308.442 195.545 308.891 196.724C309.447 198.178 308.965 199.203 309.231 200.366C309.273 200.56 310.535 201.359 310.435 203.249C310.385 204.145 309.713 204.848 309.638 205.308C309.621 205.397 311.025 205.655 310.468 206.705L309.231 206.301C308.874 207.424 309.987 207.052 310.269 207.488C310.634 208.07 309.721 214.183 309.389 215.216C308.799 217.058 302.854 226.796 301.509 228.064C301.268 228.29 298.711 230.01 298.537 230.059C297.798 230.252 296.245 229.356 296.029 230.769C295.946 231.343 296.469 232.182 296.345 233.111C296.046 235.348 292.401 236.301 291.047 237.762C290.358 238.885 286.738 238.78 286.447 239.087C286.248 239.288 286.622 240.015 286.124 240.225C283.159 241.477 277.439 241.776 274.159 242.252C273.528 242.341 273.088 242.938 272.457 243.019C270.232 243.318 267.55 242.89 265.208 243.447L266.877 247.574C267.317 248.349 268.762 248.155 268.372 249.512C268.314 249.722 266.595 252.055 266.454 252.136C265.648 252.621 264.909 251.813 263.73 252.273C263.141 252.507 260.55 255.301 260.243 255.867C259.28 257.627 258.632 261.326 257.976 263.441C256.889 266.946 256.698 266.728 256.523 270.265C256.316 274.407 255.269 274.835 255.651 279.592C255.892 282.563 254.364 284.412 254.871 287.223C255.377 290.033 255.253 290.428 255.361 293.214C255.394 294.006 256.424 295.823 256.523 296.913C256.731 299.311 255.834 299.779 255.651 301.354C255.253 304.713 259.587 312.877 261.555 315.857C263.049 318.102 266.47 319.782 268.388 321.914C270.788 324.57 273.055 332.266 273.545 336.077C273.86 338.54 273.461 339.63 272.274 341.649C272.025 342.069 271.128 341.754 271.867 342.731C271.485 343.095 266.836 344.411 265.98 344.815C264.934 345.307 262.684 347.261 262.003 347.576C260.758 348.15 258.616 348.222 257.254 348.844C256.889 349.014 255.934 350.33 255.029 350.403C253.733 351.719 253.451 356.378 252.38 357.929C252.239 358.131 249.034 361.191 248.835 361.345C247.863 362.079 246.277 362.12 246.194 362.225C245.962 362.54 246.111 363.21 245.522 363.799C244.816 364.502 241.221 364.453 241.528 366.577L234.445 366.819C232.685 367.046 230.817 370.776 227.645 370.429C227.23 370.381 226.773 369.831 226.009 369.799C221.194 369.622 218.221 369.936 213.654 367.788C213.156 367.554 213.115 366.755 212.741 366.706C212.368 366.658 211.521 367.102 210.665 366.997C205.459 366.319 200.776 363.565 196.567 360.682C194.757 359.447 192.772 359.406 191.859 356.976C190.929 354.489 191.626 353.528 191.917 351.307C192.357 348.004 193.088 343.999 193.968 341.149C194.557 339.235 196.783 336.869 196.185 334.39C196.052 334.01 192.706 332.379 192.291 332.347C191.626 332.298 191.103 332.96 190.647 332.96C175.278 332.896 159.809 321.332 152.951 308.412C146.449 296.17 148.857 283.007 143.867 271.234C143.303 269.909 140.737 264.838 139.716 264.16C137.017 262.359 131.587 264.305 130.516 267.285C130.217 268.109 130.441 268.771 130.275 269.409C129.528 272.284 128.689 274.504 128.199 277.96C127.552 282.474 126.132 288.426 126.223 292.916C126.356 299.384 130.682 306.32 130.242 312.716C130.2 313.273 129.611 313.75 129.495 314.347C128.515 319.37 125.642 324.942 126.157 330.029C126.456 332.985 128.415 334.979 129.818 337.386C132.334 341.706 135.307 348.796 136.013 353.964C136.087 354.521 135.614 357.46 135.373 358.009C135.132 358.559 132.118 361.231 131.496 361.53C131.072 361.732 130.499 361.345 130.358 361.433C125.194 364.639 119.481 365.705 114.192 367.764C109.874 369.436 107.948 369.638 102.775 368.426C100.783 367.958 99.1884 366.941 97.6025 366.19C97.1708 365.988 95.2611 365.059 95.1282 365.043C94.9539 365.019 92.1059 365.907 91.7655 366.044C91.1095 366.311 91.3088 366.957 91.259 366.981C91.0348 367.102 90.7027 366.448 90.2294 366.383C89.0836 366.214 87.4894 366.488 86.2938 365.963C84.6581 365.253 77.7084 358.696 75.7406 357.049C74.2626 355.813 72.7515 354.626 71.4811 353.116C69.8205 351.146 69.123 348.368 67.8859 346.115C64.5729 344.621 60.6041 344.807 57.6565 342.537C57.3576 342.303 55.2071 339.219 55.149 338.92C54.9331 337.846 54.9663 333.211 55.1656 332.088C56.4027 325.006 64.1246 318.304 67.5953 311.553C69.2559 308.323 69.6378 305.254 70.9414 301.879C73.2829 295.798 74.4287 285.672 73.4323 278.744C72.5771 272.8 71.8298 267.761 70.0613 261.915C68.3674 256.311 66.4079 249.043 64.7141 243.148C64.4318 242.171 64.8719 240.879 63.7426 239.934L51.2465 238.223C50.7815 238.093 51.0888 237.149 50.5906 236.777C50.4577 236.68 47.8174 235.687 47.4603 235.582C47.1033 235.477 44.3384 234.984 44.1806 235.017C43.616 235.154 43.4998 236.147 43.1012 236.398C42.3041 236.906 38.4183 235.146 37.4136 234.645C35.6534 233.765 32.822 232.118 31.1116 231.068C23.4063 226.344 20.4255 222.597 18.3415 213.722C18.2418 213.311 18.6238 212.721 18.5241 212.245C18.2833 211.106 17.4281 210.614 17.3368 208.934C17.3036 208.248 18.2418 203.354 18.4743 202.748C18.8314 201.828 21.123 198.792 22.0031 197.669C23.0244 196.377 24.6435 195.989 24.8262 193.971C26.3622 193.72 27.425 191.54 28.8116 191.346C31.1033 191.015 32.1661 192.582 33.2123 193.938C33.5029 194.318 34.1256 194.479 34.2668 194.705C35.4375 196.587 34.3913 199.575 37.6046 200.148C40.1536 200.6 43.616 199.26 42.6695 203.047C39.4645 203.879 36.1515 201.723 33.7021 204.824C32.1412 206.802 32.3986 209.54 33.8101 211.51C34.5075 212.487 39.8464 216.161 41.0337 216.597C43.068 217.34 45.0856 216.565 47.0369 217.227C48.3072 217.663 48.3321 218.463 49.9429 218.43C54.136 218.342 55.6471 214.635 55.5475 211.009C55.5226 210.186 54.5179 204.404 54.2605 203.742C54.0447 203.184 53.2808 203.136 53.2143 202.999C53.0234 202.595 53.0317 200.915 52.7909 200.35C52.5667 199.833 51.9025 199.882 51.836 199.575C51.6368 198.63 52.2761 197.863 52.2678 197.257C52.2678 196.983 51.3711 197.08 51.2299 196.28C50.7234 193.373 50.4826 190.111 50.1173 187.22C49.9845 186.162 49.0213 186.162 48.9466 185.839C48.4069 183.36 49.3451 179.282 48.9632 176.609C48.8137 175.592 48.2076 175.091 48.0831 173.831C47.8921 171.861 48.7971 169.907 48.5646 168.122C48.465 167.379 47.7841 167.589 47.7094 167.266C47.3192 165.651 47.8921 162.768 47.6928 160.887C47.369 157.85 43.1759 150.777 41.2247 148.201C38.0945 144.074 33.8018 141.417 30.7961 136.54C25.3991 127.779 24.9922 117.733 22.0114 108.261C19.7945 101.219 15.643 95.8252 12.1059 89.3246C8.82616 83.2844 6.79191 80.8215 7.81318 73.2389C7.91282 72.4879 8.59367 72.706 8.6684 72.383C9.03373 70.8002 8.72652 67.8689 9.11676 66.0278C10.6279 58.8651 15.9751 51.0968 18.2003 43.7727C18.6155 42.408 18.5075 40.9302 18.8064 39.8401C19.9938 35.5199 22.5926 30.7313 21.1645 26.0073C21.0649 25.6682 20.3259 23.8997 20.1183 23.391C18.7981 20.169 15.7592 16.9793 11.782 17.3104C11.0597 17.3669 11.234 18.0048 10.603 18.2229C10.2045 18.3601 6.493 19.1515 6.15257 19.1677C2.46601 19.2888 -0.647642 14.8717 0.11624 11.5689C0.390242 10.3819 2.57395 6.85304 3.42086 5.77904C3.76129 5.34298 7.24857 2.72663 7.73015 2.5086C9.53192 1.70108 10.1214 2.41977 11.3254 2.40362C11.5994 2.40362 11.3586 1.66071 12.1557 1.55573C14.0571 1.3054 16.7224 1.67686 18.8064 1.57188C19.3794 1.54765 19.8443 0.861266 20.4671 0.82089C21.123 0.780514 27.3835 0.885492 27.7322 0.982393C28.1142 1.08737 32.7722 3.55029 33.1209 3.83292C33.7852 4.37396 33.7935 5.26223 34.4079 5.80326C34.8563 6.19087 35.6368 6.26355 36.0685 6.63501C37.0483 7.49905 38.219 11.3186 38.5594 12.5864C38.6508 12.9336 39.2901 12.861 39.3648 13.1597C39.9793 15.6227 38.7338 17.3911 38.5677 19.1596C38.4183 20.7181 38.5926 22.3896 38.5428 23.9804C38.5013 25.2644 37.7208 26.3545 38.5428 27.8242C40.2283 27.3478 42.0135 26.936 43.5911 26.1607C44.6373 25.652 45.8246 24.1743 46.8791 23.6251C48.465 22.8015 50.2003 22.1474 51.7032 21.3641C60.3882 16.8016 68.0851 12.6025 78.9705 13.7331C85.8371 14.4437 98.491 22.3008 104.668 19.3372C107.99 17.7464 112.565 17.0197 116.052 15.5984C120.527 13.7734 125.899 8.8799 130.939 9.19483C131.197 9.21098 133.854 7.76553 135.448 7.59595C138.221 7.29717 140.023 8.11276 142.173 8.31464C143.078 8.39539 144.125 7.8382 145.42 8.04816C152.378 9.19483 157.982 13.3293 165.389 12.8933C172.139 12.4895 178.607 8.47614 185.275 7.60402C186.296 7.47482 187.483 7.709 188.604 7.60402C189.194 7.5475 189.601 6.89341 190.207 6.90149C191.286 6.91764 193.046 8.04008 194.092 8.29041C201.989 10.2042 201.922 10.5595 208.689 14.4275C215.772 18.4813 226.375 21.0895 234.188 18.0937C236.197 17.3265 240.482 15.0412 243.039 14.5406C247.788 13.6119 260.027 13.8703 264.071 16.5029C267.442 18.6993 266.429 19.3534 271.17 20.282C273.495 20.7423 275.861 21.2268 277.621 21.9778C280.17 23.068 281.648 24.5699 284.936 24.6103C287.294 24.6345 286.829 24.2873 288.1 23.2133C288.424 22.9388 289.055 23.1164 289.312 22.6723C289.478 22.3816 289.918 18.4893 289.968 17.8433C290.167 15.3885 290.491 12.974 291.421 10.3738C291.728 9.52591 292.65 7.26487 293.073 6.33622C294.261 3.76832 298.047 1.4669 300.787 0.909717C305.702 -0.0916028 311.149 -0.317707 315.998 0.489809C317.044 0.659387 318.09 0.683613 318.846 0.828965C320.449 1.13582 321.711 2.7024 322.682 3.80062L322.699 3.83292ZM317.526 10.075L317.933 6.03744C316.978 6.57848 316.006 6.81266 316.272 8.05623L315.035 7.24872V10.075H317.526ZM301.086 29.302C299.807 25.9346 298.96 20.6696 299.674 17.1489C299.957 15.768 300.247 16.737 300.297 14.7425C300.347 12.7479 300.737 10.7291 300.438 8.7184L298.246 7.709C297.067 8.33079 297.067 9.49361 296.718 10.1396C293.63 15.9214 293.937 19.8621 294.975 26.0881C295.24 27.6708 295.249 29.7865 295.531 31.6519C296.519 38.1604 299.932 45.5008 302.024 51.4683C303.635 56.055 305.287 60.6336 305.91 65.1557C306.051 66.1489 305.694 67.3441 305.91 68.3212C306.043 68.9268 310.452 73.352 311.822 72.5929C312.785 72.3345 313.15 70.8325 313.217 69.9604C313.673 63.896 309.605 51.7429 307.512 45.5088C305.752 40.2923 303.02 34.3732 301.077 29.2858L301.086 29.302ZM31.6679 9.89737C30.7546 9.08985 30.7712 8.51652 29.0026 8.87182V9.8893L27.7571 9.67934C28.3218 10.4869 29.4178 10.608 29.2185 11.8919C27.5413 22.5027 28.164 32.4755 24.5937 42.5049C22.3934 48.6824 19.1469 54.9406 16.9964 61.5865C16.5231 63.0481 15.4935 66.0036 15.3358 67.2229C15.1199 68.8864 15.2859 74.2402 16.357 75.4757C16.8137 76.0087 17.7935 76.0975 18.4577 76.2833L19.014 76.2671C18.6819 75.0962 20.1931 74.7571 20.2927 74.3937C20.5833 73.3358 20.1017 71.3736 20.3093 70.0573C20.6663 67.7478 26.52 54.6095 27.4748 52.9783C30.4224 47.9717 32.0747 40.3004 33.1957 34.9546C34.1256 30.5133 35.0888 25.0302 35.2216 20.3709C35.3461 16.1233 35.0555 12.9013 31.6679 9.89737ZM154.636 15.873C152.627 13.9753 144.98 11.8354 142.14 11.6658C132.459 11.1006 126.356 14.0399 119.481 19.9509C116.044 22.9065 113.096 24.2066 108.911 26.403C106.794 26.4595 102.236 29.1082 100.392 28.0423C99.2549 27.0086 99.9855 25.4421 100.392 24.2227C97.2123 22.6804 93.5673 23.3748 90.2709 22.5431C86.9746 21.7113 83.2881 19.4664 79.8257 18.9739C74.7608 18.2471 71.2652 20.2659 66.848 21.6548C59.0265 24.1097 43.5164 28.8982 38.5428 35.3099C37.9948 36.0124 36.4671 38.3139 37.9699 38.7176C39.3233 39.081 39.8049 37.6275 40.0623 37.5629C40.4276 37.474 44.9362 37.2076 45.177 37.3125C47.4022 39.3717 44.6871 38.7984 43.6326 39.2587C43.4998 39.3152 43.4582 39.8401 43.2341 39.945C40.4525 41.2613 38.5013 42.1092 36.5003 44.6206C34.9227 46.607 37.6461 47.0108 38.0696 46.7201C38.2854 46.5748 38.2854 45.7915 38.7172 45.7107C39.8962 45.4846 42.2626 46.6313 43.3586 46.8089C44.7535 47.035 46.1567 45.7995 46.8376 47.8264L38.1692 51.4602C36.4505 53.8505 30.2979 56.7171 32.0083 60.2218C32.8718 61.9822 34.0343 60.6578 35.4126 61.7722C37.7789 59.2204 41.5984 58.316 44.355 56.2811L46.821 56.9352C47.2943 59.0428 46.2979 58.2999 45.4842 58.8974C44.9196 59.3093 45.0856 60.2944 43.973 59.7696L43.9398 60.9485C42.1214 59.8422 41.0005 63.25 40.0457 64.4047C39.0078 65.6644 35.8277 68.0062 36.1017 69.9362C36.1848 70.5337 37.4053 72.0519 37.9948 72.2053C39.3399 72.5525 40.1536 69.7666 41.3327 69.0318C42.5034 68.3131 44.3965 68.0062 45.6586 67.3764C46.082 67.1664 46.2149 66.5688 46.7213 66.2943C47.4769 65.8825 49.8516 64.6389 50.5989 65.1557C51.8942 67.0372 50.3913 66.8919 49.5195 67.7801C47.2694 70.0492 45.5008 72.1892 44.4463 74.9832C44.0727 75.9764 43.2341 76.3156 43.1344 76.5982C42.8106 77.5107 43.0514 78.7866 42.4536 79.8929C41.7644 81.1687 40.1453 81.1687 39.971 82.7757L38.1858 82.6949C37.945 81.3868 37.0981 80.4016 36.5501 79.2388C36.1931 78.4716 36.2429 77.2684 35.9357 76.8001C35.8028 76.5982 32.5978 73.9818 32.2159 73.7315C30.5553 72.6737 28.6539 72.3749 27.1261 71.1717L24.4857 72.2941C24.1702 72.6494 24.8926 75.9683 25.2247 76.4367C25.341 76.5982 28.3051 78.0679 28.8033 78.4636C30.9289 80.1674 33.8931 85.1821 35.2216 87.4916C38.5096 93.2169 37.1728 95.6071 37.6959 101.526C38.1111 106.266 42.4536 108.18 43.0846 111.628C43.5579 114.22 42.7359 117.62 43.2258 120.374C43.5247 122.045 46.713 128.578 47.9087 129.959C48.8469 131.041 51.0639 133.205 52.575 132.309C52.7577 132.204 52.8241 131.614 53.0732 131.388C54.053 130.516 54.2937 129.813 54.7421 129.394C58.4619 125.954 65.3534 125.195 67.9606 130.233C68.5667 131.396 69.0317 134.691 69.6544 136.241C70.4847 138.3 71.5392 140.117 74.0717 138.89C74.6113 136.532 78.2149 130.193 81.0711 133.213C82.4245 134.651 83.5454 137.63 84.6581 138.979C85.3306 139.794 86.4598 140.125 86.9497 141.304C89.7478 141.385 88.3031 139.1 89.2995 137.759C89.5071 137.477 90.1464 137.372 90.437 137.065C91.7489 135.684 92.6871 134.166 94.9788 135.095C95.5517 135.321 98.9975 138.179 99.4292 138.753C99.861 139.326 100.733 141.514 100.857 141.619C101.09 141.821 103.763 141.773 104.145 141.506C104.585 141.199 105.092 137.776 104.951 137.113C104.876 136.782 104.17 136.799 103.988 136.346C103.631 135.442 103.88 134.626 103.689 133.891C103.597 133.544 101.928 133.068 102.9 131.437L102.045 130.976C103.357 130.484 102.833 128.61 102.95 128.441C104.013 126.923 104.079 126.979 104.984 125.025C105.133 124.702 105.773 124.694 105.798 124.468C105.964 122.837 102.875 120.64 101.837 121.884C100.401 124.775 102.169 127.94 100.575 130.758C98.3747 130.435 96.3405 129.361 96.3156 126.931C96.2824 123.717 97.395 124.444 98.9393 123.103C99.4541 122.651 99.6866 121.779 100.152 121.456C100.857 120.955 101.895 121.246 102.452 120.471C101.165 118.807 100.035 117.232 98.9975 115.407C98.8397 115.133 99.1718 114.664 99.0141 114.341C98.9227 114.156 97.6358 112.944 97.5278 112.67C96.1827 109.399 95.726 99.3621 96.2076 95.8171C96.3073 95.0661 96.9798 95.2841 97.0628 94.9611C97.4033 93.548 96.739 91.2788 97.0877 89.8657C97.4697 88.3072 99.0473 84.9075 99.5455 82.8968C100.077 80.765 98.5325 79.5053 102.476 79.8929C102.402 84.633 103.191 95.5667 107.375 98.4577C107.757 98.7241 108.762 98.603 109.044 98.9583C110.165 100.363 108.911 103.973 109.094 105.548C109.21 106.581 110.755 110.264 111.618 110.788C112.216 111.152 112.747 111.023 113.378 110.901C116.641 110.304 116.243 104.554 120.154 107.348C118.883 110.595 122.47 111.822 122.844 114.39C123.217 116.958 121.615 120.075 119.772 121.779C119.107 122.392 119.498 121.48 118.775 122.691C117.771 124.387 117.115 123.902 116.691 124.403C116.168 125.025 116.16 127.342 116.06 127.464C114.325 129.62 115.438 128.683 114.923 130.904C114.856 131.202 114.184 131.146 114.109 131.453C113.935 132.155 113.951 135.813 114.068 136.653C114.167 137.388 114.798 137.154 114.914 137.525C115.122 138.187 115.479 141.563 115.338 142.193C115.305 142.322 113.802 144.195 113.686 144.292C112.374 145.407 109.733 145.932 108.529 146.949C106.91 148.33 106.038 150.857 106.91 152.884C107.209 153.571 110.73 156.203 111.61 156.421C112.382 156.615 116.118 156.663 116.907 156.502C119.132 156.05 121.906 152.343 123.641 152.02C124.272 151.899 124.862 152.262 125.476 152.166C126.132 152.061 126.572 151.423 127.161 151.382C128.116 151.326 132.093 153.676 130.474 149.759C129.445 147.264 128.091 147.797 127.784 143.897C127.029 134.408 133.513 128.408 134.045 118.46C134.211 115.424 133.497 110.627 134.036 107.954C134.219 107.058 135.091 106.824 135.274 105.927C135.531 104.635 135.215 102.56 135.282 101.09C135.34 99.8385 136.37 96.0997 134.8 95.268C133.596 94.6381 133.206 96.5358 133.065 96.6892C131.222 98.6192 128.656 100.573 125.75 99.4509C124.837 99.0956 123.998 97.7309 123.325 97.2545C121.025 95.6152 119.415 95.1711 117.862 92.4982C116.351 89.898 117.48 89.2358 116.882 87.6612C116.625 86.9829 114.258 86.3126 113.495 85.5212C111.22 83.1472 109.534 79.5779 107.89 76.8485C107.334 75.9199 105.823 75.8391 106.628 74.2402C104.411 74.1999 102.41 74.4987 100.276 73.7477C97.5693 72.7948 92.6456 68.0062 92.6041 65.083C92.6041 64.9377 93.5756 62.6847 93.7333 62.4101C94.2066 61.6188 95.56 62.1921 94.5802 59.8988C94.19 58.9782 93.5672 59.0024 93.3514 58.5744C89.4157 50.5881 85.6129 46.0741 77.2351 42.0527C73.7561 40.3811 71.9212 40.365 68.409 39.6947C64.8968 39.0245 62.7214 37.2802 60.9528 34.567C60.7037 34.1794 59.3254 33.6868 60.1889 32.3059C60.5127 31.7891 64.5314 31.6922 65.2372 31.8537C65.5776 31.9345 65.3534 32.5886 66.1173 32.6855C70.7255 33.2669 75.3254 31.2642 80.1495 31.9506C82.1007 32.2252 91.7738 35.2776 93.3265 36.1093C93.6005 36.2547 93.7084 36.9088 94.5304 37.3368C100.492 40.4619 101.879 38.1281 103.066 32.6532L103.938 32.2252C106.221 31.9829 105.698 33.275 106.246 34.349C106.437 34.7123 106.952 34.6962 107.018 34.9546C107.599 37.3691 106.454 41.5843 107.134 44.0634C107.176 44.2249 108.704 46.9381 108.82 47.0673C111.303 49.8371 118.875 47.2288 118.535 42.5937C118.443 41.3743 114.234 35.9882 118.767 37.1914C124.563 38.7257 124.297 47.9314 121.167 51.7267C118.41 55.0779 113.395 57.2663 110.638 60.5771C109.409 62.0548 108.629 64.1301 107.691 65.6402C106.686 67.2552 104.71 68.2323 105.233 70.2269C105.889 72.714 107.176 71.4462 107.699 72.1811C108.081 72.7221 107.666 73.8688 107.94 74.1676C108.073 74.3049 108.737 74.2322 109.069 74.4744C109.401 74.7167 109.418 75.2739 109.85 75.4273C110.115 75.5242 113.196 76.1056 113.553 76.1218C115.421 76.2106 114.964 74.4825 115.944 73.7719C116.459 73.4004 116.94 73.9011 117.297 73.7234C117.414 73.6669 117.405 73.0936 117.696 73.029C118.601 72.819 119.871 73.142 120.918 73.0047C121.54 72.924 122.03 72.2538 122.595 72.2295C123.384 72.1972 124.106 73.0451 124.828 73.2066C125.41 73.3439 125.991 72.8917 126.929 73.2147C127.477 73.4085 130.076 75.4273 130.533 75.9845C130.948 76.4851 132.866 79.8929 133.048 80.5792C133.638 82.7192 132.924 85.3274 136.262 85.9654C137.964 84.0193 137.98 81.3625 138.719 79.0046C138.993 78.1406 140.455 75.8391 140.488 75.6534C140.87 73.2147 139.981 72.3426 141.484 69.9039C142.821 67.7317 137.848 63.4034 138.636 61.1666C139.027 60.0522 142.265 58.7279 143.236 58.0576C144.698 57.0482 147.795 54.3511 149.106 53.7939C150.028 53.4063 151.24 53.5194 152.004 53.156C152.627 52.8572 152.635 52.1628 152.768 52.082C153.009 51.9447 157.036 52.623 158.331 52.4615C159.128 52.3646 158.73 51.6863 159.518 51.5894C164.434 50.9838 169.291 51.9044 174.016 52.7119C174.613 52.8169 175.635 52.3808 176.457 52.5342C180.741 53.3498 184.021 57.0644 187.492 59.2447C189.617 60.5771 191.336 59.6081 190.149 63.2257C189.791 64.3078 189.152 64.332 188.853 64.8488C188.629 65.2364 188.787 66.0682 188.363 66.7303C188.081 67.1745 187.259 67.2472 187.151 67.6509C186.852 68.7653 187.483 69.8635 187.533 70.8406C187.732 74.3129 187.716 74.9993 188.762 78.1971C189.202 79.5295 190.381 84.4796 191.303 84.9479C194.607 86.6437 194.807 80.442 195.479 78.9884C195.678 78.5605 196.276 78.5039 196.434 78.2213C197.555 76.2187 198.286 74.1756 200.768 73.5054C201.258 73.3762 201.881 73.8365 202.047 73.7557C202.138 73.7073 202.171 73.0128 202.802 72.6898C204.729 71.7208 207.46 73.8446 209.387 74.2079C210.425 74.4018 211.728 74.0141 212.6 74.2241C212.999 74.321 213.372 75.9764 214.85 76.1783L219.126 75.8553C218.088 72.0438 222.273 72.0277 223.411 68.9914C224.548 65.9551 222.497 66.1489 221.343 64.8085C219.309 62.4344 217.831 59.7373 215.481 57.6781C212.824 55.3444 206.921 54.0927 206.24 50.0148L205.468 50.3862C203.815 45.961 203.458 37.474 209.993 37.0945C210.267 40.2196 207.834 41.5197 209.719 44.6367C209.802 44.7659 211.546 46.8816 211.662 46.9785C213.538 48.5774 218.57 48.5774 219.973 46.494C220.737 45.3554 221.7 40.3084 221.65 38.9114C221.584 37.1753 220.181 36.3112 222.057 34.0825C223.278 32.6289 226.3 31.6761 227.629 33.4365C227.778 33.6303 227.487 34.2278 227.662 34.6316C227.886 35.1484 228.509 35.5602 228.608 36.1578C228.758 37.0622 227.811 38.3704 228.741 39.4525C232.793 40.5022 232.776 36.6342 235.151 35.0515C238.248 37.3287 240.108 34.9223 243.13 33.9856C245.447 33.2669 251.101 32.1525 253.401 32.2252C255.153 32.2736 259.77 33.606 261.704 33.8483C262.535 33.9533 266.578 33.9129 266.877 34.0583C267.458 34.357 266.587 35.6733 266.412 35.9398C263.357 40.6637 251.624 41.8427 246.667 44.4914C243.272 46.3083 238.265 50.6446 236.006 53.8989C235.807 54.1896 235.135 54.2381 234.977 54.6984C235.234 56.6929 234.254 58.4775 234.088 60.3025C233.806 63.3065 234.902 65.1718 233.557 68.2646C232.411 70.9133 231.174 71.0748 228.974 72.2053C228.708 72.3426 228.733 72.9644 228.401 73.029C226.948 73.3035 225.877 72.1407 223.817 73.3035C223.078 73.7154 223.07 74.3775 222.456 74.8217C221.509 75.5 220.305 75.6453 219.317 76.2267C219.467 77.3976 219.807 78.2213 219.251 79.3922C219.143 79.6183 216.195 82.5254 215.705 82.9937C215.348 83.341 214.651 83.2764 214.286 83.6317C213.231 84.633 212.683 86.7648 210.906 86.8052L210.466 90.9316C209.229 91.5211 206.738 92.3044 206.763 93.7983C206.771 94.5574 207.286 95.3245 207.12 96.1643C207.062 96.4631 206.472 96.4631 206.29 96.7376C205.974 97.206 205.974 97.8601 205.434 98.2477C204.978 98.5869 204.206 98.5869 203.658 98.8695C203.392 99.0068 203.425 99.6124 203.085 99.677C200.519 100.186 196.251 98.6757 194.831 96.4227L193.212 97.2302C193.81 101.252 193.055 105.564 193.412 109.561C193.578 111.37 194.474 112.985 194.674 114.39C195.288 118.759 194.499 123.959 195.612 128.635C196.243 131.291 198.277 133.786 199.124 136.71C199.315 137.364 200.062 139.649 200.079 139.819C200.204 140.731 200.195 144.22 199.954 145.011C199.581 146.263 196.749 149.089 197.165 150.712C198.244 152.141 200.884 151.011 201.507 151.083C201.648 151.1 203.716 151.931 204.064 152.085C208.291 153.877 212.55 157.77 216.652 159.974C219.201 160.467 222.979 157.891 223.61 155.501C224.241 153.11 222.771 151.39 222.796 149.016C219.749 147.353 216.262 146.263 214.028 143.574C214.269 142.483 213.671 140.626 213.754 139.867C213.904 138.478 215.033 136.669 215.39 135.385C215.822 133.835 216.112 132.139 215.406 130.637C213.505 126.559 209.719 123.693 208.133 119.09C208.025 118.767 207.352 118.468 207.195 117.967C206.522 115.787 208.1 113.179 208.573 110.99C208.756 110.134 208.365 107.671 209.163 107.122L211.213 107.009L213.115 110.021C219.757 110.272 218.412 104.716 218.097 100.089C221.858 97.7793 224.523 96.996 224.963 92.2075C225.237 89.2197 223.776 85.9654 225.802 83.7124C227.404 82.7595 229.738 88.5333 230.111 89.6396C230.468 90.6813 230.501 92.587 230.8 93.7337C230.883 94.0648 231.523 94.0244 231.589 94.3151C232.353 97.4079 231.116 101.914 231.166 105.16C231.182 106.242 231.871 107.881 231.398 108.576C231.232 108.818 230.601 108.85 230.46 109.068C230.269 109.367 228.625 114.196 228.052 115.399C227.272 117.031 227.28 118.193 226.84 119.082C226.674 119.421 223.211 122.578 222.613 123.644C222.514 123.814 221.85 125.639 221.841 125.744C221.733 127.262 223.303 127.552 223.319 127.795C223.344 128.093 222.904 128.804 222.888 129.369C222.838 132.107 223.054 136.419 222.464 138.987C222.389 139.31 221.667 139.108 221.601 139.851C221.509 140.812 222.149 143.299 223.161 143.638C226.491 144.753 227.346 140.844 228.866 139.019C229.372 138.414 232.121 135.716 232.702 135.716C236.04 135.741 236.322 141.45 239.992 140.796C244.368 140.012 243.388 132.43 248.403 132.389C249.748 134.957 252.114 139.754 255.801 138.874C256.025 138.817 258.549 135.934 258.873 135.506C259.969 134.085 260.617 132.511 261.904 131.001C262.377 130.443 265.208 127.173 265.499 127.124C265.823 127.076 267.782 127.569 268.114 127.77C268.978 128.271 268.712 129.111 269.244 129.595C269.717 130.023 274.856 132.43 275.587 132.608C276.708 132.882 278.327 133.197 279.423 132.777C279.788 132.64 279.714 132.026 280.013 132.01C280.278 131.994 280.66 132.389 280.934 132.317C281.05 132.284 282.387 130.492 282.429 130.371C282.645 129.7 283.425 127.003 283.5 126.503C283.699 125.235 282.537 124.653 282.645 123.749C282.869 121.908 284.023 119.598 284.621 117.951C285.758 114.786 284.97 112.008 285.75 108.947C286.115 107.51 286.813 107.712 287.112 107.243C287.452 106.719 287.012 105.693 287.909 105.378C289.727 104.74 290.441 106.234 290.948 107.591L293.048 107.356C292.559 109.561 293.846 108.689 294.485 109.351C294.634 109.504 294.319 110.118 294.684 110.377C295.274 110.796 296.419 110.764 297.167 111.216C297.623 111.491 299.948 114.35 300.513 112.799C300.795 112.032 299.691 112.266 299.658 111.959C299.55 111.023 300.604 109.206 299.633 107.817L296.17 106.937L295.124 107.76L295.539 106.557L292.824 106.573C292.658 106.299 292.11 100.888 292.185 100.275C292.309 99.3378 292.924 98.8372 293.065 97.8924C293.372 95.7444 292.127 91.6341 293.879 90.6005V89.5911L293.04 90.003C292.451 88.3879 293.862 87.7823 294.186 86.8779C294.726 85.3597 295.971 81.5483 297.308 80.4177C297.623 80.1513 298.412 80.2078 298.877 79.7314C300.554 78.0275 301.31 76.2752 302.107 74.103L300.72 72.7463C299.691 72.7625 298.346 74.434 297.756 74.5471C297.075 74.6682 296.121 73.8526 295.232 74.9912L294.692 74.8863C293.663 73.9092 293.821 72.496 293.148 71.1232C290.906 66.5365 287.062 61.5784 282.462 58.8732C281.989 58.5987 281.416 58.9217 280.785 58.5421C280.154 58.1626 279.573 57.1371 278.917 56.6849L279.979 55.2475C281.715 54.7307 281.947 56.0631 282.072 56.0711C284.679 56.1923 283.135 56.3134 284.754 57.0644C286.622 57.9284 288.806 58.1545 290.79 59.4789C291.637 60.0441 295.788 65.1395 296.76 64.1544C297.491 61.433 295.357 60.5851 294.286 59.0024C293.19 57.3712 293.123 55.8531 292.21 54.2542C289.37 52.2354 286.331 50.5074 283.043 48.9973C282.578 46.3648 290.89 46.1952 290.973 45.7592C291.562 43.3608 289.387 42.9732 288.341 41.2451L282.645 41.9477C282.47 41.2774 283.342 41.7862 283.467 41.2694C283.591 40.7526 283.334 40.1227 283.674 39.5332C284.704 37.7486 288.175 37.474 289.885 37.0864C292.683 36.4566 289.652 35.108 289.129 34.6397C287.568 33.2427 286.854 30.8201 286.19 30.2226C285.8 29.8672 283.575 28.9709 282.977 28.874C281.864 28.7044 281.466 29.4393 280.776 29.415C278.601 29.3424 275.786 26.3222 273.719 25.3855C272.548 24.8526 271.07 25.0383 270.472 24.8364C266.794 23.5928 263.905 21.0249 260.401 19.7733C258.533 19.1111 249.026 17.3992 247.647 17.811C247.091 17.9806 246.8 18.6912 246.236 18.8608C243.903 19.5553 241.902 19.3534 239.602 20.2982C236.77 21.461 233.275 22.3008 230.203 23.8674C227.761 25.111 227.554 26.4595 223.917 26.185C211.695 25.2483 204.92 14.4356 193.91 12.1826C188.729 11.1248 179.338 11.9888 175.153 15.5338C174.306 16.2444 174.115 19.0546 173.21 19.313C171.201 19.7087 170.188 17.8999 169.001 17.3507C168.668 17.1973 167.988 17.4315 167.548 17.3184C167.157 17.2215 167.398 16.5594 166.643 16.4867C164.932 16.3171 160.938 17.2538 159.352 18.0129C158.863 18.2471 159.012 19.5149 156.729 18.9658C156.546 18.9173 155.251 16.4383 154.645 15.8649L154.636 15.873ZM178.342 57.4197C177.702 56.8706 172.164 54.6338 171.176 54.5207C165.214 53.8424 157.675 54.0604 152.353 56.7575C151.29 57.2986 149.148 58.6148 148.567 59.5112C147.537 61.102 147.861 63.6133 146.898 65.3818C147.438 65.8986 157.177 61.4653 159.078 62.5636C160.399 65.8421 154.371 64.8246 152.328 65.6079C152.021 65.721 148.882 67.659 148.774 67.8286C148.534 68.2243 148.658 68.7976 148.509 69.0883C148.301 69.4759 147.786 69.4517 147.728 69.702C147.537 70.5741 148.027 71.422 147.944 72.06C147.861 72.6979 146.748 75.6292 146.466 76.3882C146.333 76.7355 145.81 76.6466 145.686 76.9858C145.187 78.3424 145.594 79.1096 146.068 80.3208L145.237 80.119C145.677 85.925 149.082 81.9843 151.265 79.5053L151.68 80.3128C153.125 79.3599 155.101 78.084 156.754 77.648C157.791 77.3734 161.818 77.002 162.89 77.0504C164.326 77.115 164.708 77.9467 163.629 78.73C163.081 79.1257 162.018 79.263 161.345 79.5456C158.182 80.87 155.857 81.3868 152.386 83.1068C149.605 84.4876 150.144 83.5186 148.301 86.3368C148.093 86.6598 147.338 86.7083 147.288 87.0394C147.255 87.2251 147.695 89.0824 147.778 89.147C148.293 89.5669 155.06 87.6531 156.438 87.3785C157.318 87.209 158.813 87.54 159.552 87.3624C161.038 87.0071 163.006 84.9802 164.343 87.7742C163.031 89.2358 162.533 89.7849 160.316 90.2452C154.927 91.3596 153.084 91.1012 148.749 94.8481C148.343 95.1953 147.687 95.0984 147.288 95.5264C145.702 97.2222 146.068 99.3055 145.644 101.026C145.553 101.381 144.365 101.122 144.897 102.624C145.013 102.947 145.586 103.626 145.86 103.715C146.84 104.038 146.259 102.939 146.557 102.616C146.657 102.511 148.741 101.373 149.082 101.211C150.618 100.46 154.661 99.0552 156.355 98.5949C157.559 98.2719 159.46 98.7403 160.473 97.7309C161.329 97.5775 162.989 100.032 162.665 100.485C161.478 100.872 160.199 100.84 158.995 101.163C155.923 101.987 153.017 103.093 149.505 103.957C149.14 104.046 148.583 103.682 148.558 103.723C148.475 103.828 148.683 104.498 148.467 104.821C148.218 105.184 146.159 105.653 145.437 106.145C145.104 106.371 142.904 108.996 142.771 109.286C142.439 109.981 141.592 115.916 141.916 116.247C143.435 115.868 145.378 115.052 146.317 113.946C150.759 112.799 155.384 112.177 159.643 111.079C162.018 110.465 162.682 111.499 161.237 113.316C156.695 112.476 151.199 115.149 147.271 117.224C146.873 117.434 146.35 117.119 145.843 117.426C144.93 117.967 141.65 121.367 141.31 122.32C140.662 124.129 140.92 127.431 143.402 127.028C143.801 126.963 143.776 126.18 144.316 125.945C147.205 124.694 153.673 123.273 156.596 122.982C157.841 122.861 162.217 120.382 162.3 123.725C162.35 125.639 157.883 124.904 156.737 125.138C156.455 125.195 156.463 125.784 155.882 126.002C154.454 126.527 153.515 126.002 152.378 126.212C151.016 126.454 149.928 127.593 148.766 127.989C146.939 128.61 144.291 128.796 142.389 129.62L141.924 136.839C142.946 136.298 144.482 136.298 145.345 136.007C147.944 135.127 150.51 134.336 153.407 133.762C154.786 133.496 156.305 134.376 157.086 132.398L158.738 133.229L159.17 132.381L161.362 133.278C161.993 134.344 160.797 134.441 160.772 134.521C160.457 135.329 161.005 136.144 159.469 136.75C158.422 137.162 157.318 136.815 156.662 136.944C155.89 137.089 154.777 137.275 153.756 137.461C150.667 138.01 143.851 140.319 141.991 142.766C140.571 144.631 139.5 146.884 141.501 148.782C143.054 150.26 143.004 148.831 143.51 148.612C145.877 147.587 150.701 145.835 152.619 145.358C153.955 145.027 160.191 143.929 160.631 145.6C161.511 148.944 156.737 148.031 155.01 148.378C153.723 148.637 151.888 149.88 151.357 150.066C149.837 150.583 147.927 150.454 146.117 151.625C145.511 152.311 141.542 156.082 141.526 156.413C141.451 158.165 142.755 157.649 143.128 157.883C143.203 157.931 142.763 158.569 143.145 158.844C143.328 158.973 145.27 159.708 145.461 159.708C146.69 159.708 151.39 157.552 153.034 157.156C153.74 156.986 156.189 157.132 157.094 156.946C157.351 156.89 157.268 156.276 157.559 156.211C159.07 155.896 161.586 157.85 160.324 158.642C158.589 159.748 156.056 159.457 154.213 159.893C151.323 160.564 147.388 161.767 144.938 163.366C144.282 163.794 143.137 164.957 143.128 165.716C143.128 166.014 145.569 170.06 145.769 170.254C146.051 170.52 146.765 170.755 147.155 170.763C147.886 170.771 152.046 168.405 153.449 168.049C155.051 167.638 157.268 167.258 158.53 168.558L157.6 169.664C155.707 170.149 153.017 170.682 151.257 171.368C150.676 171.594 150.31 172.176 149.688 172.466C147.554 173.452 145.021 173.896 144 176.221C144.996 177.836 145.478 180.307 147.703 180.663C148.509 180.792 153.773 178.684 155.458 178.482C156.928 178.305 158.373 178.402 159.776 178.87L159.759 180.025C156.695 181.018 146.89 182.472 146.508 186.356C146.408 187.309 148.26 191.064 148.899 191.354C151.656 192.606 157.052 187.761 160.208 190.361C160.357 191.056 158.721 191.831 158.215 192.089C156.845 192.776 154.097 193.131 152.785 193.631C151.473 194.132 147.529 195.666 147.413 196.902L150.028 201.852C152.046 200.948 156.546 199.026 158.115 201.254C157.219 202.716 155.682 202.03 154.354 202.433C151.506 203.297 146.034 206.729 148.965 210.073C149.223 210.363 149.688 210.307 150.053 210.501C150.227 210.597 150.261 211.114 150.51 211.147C151.664 211.308 152.942 210.282 153.872 210.016C154.354 209.879 154.902 210.339 155.134 210.226C155.209 210.194 155.193 209.531 155.45 209.491C156.363 209.354 157.509 210.517 158.522 209.919C158.655 210.145 157.742 212.188 157.65 212.277C157.393 212.511 156.147 212.245 155.508 212.43C154.91 212.608 152.436 213.48 152.021 213.69C151.722 213.844 148.874 217.34 148.824 217.671C148.558 219.27 149.762 220.74 151.315 221.176C154.512 222.064 154.055 220.231 155.865 220.013C156.878 219.892 157.908 220.554 158.946 220.425C160.174 221.547 154.462 222.678 154.138 222.823C153.989 222.888 151.498 224.349 151.357 224.446C148.641 226.36 149.762 227.806 151.581 229.849C152.967 230.842 153.158 229.929 153.823 229.849C155.5 229.655 155.184 229.445 155.408 229.404C157.111 229.049 160.938 229.711 158.398 231.407C156.87 232.425 155.815 232.352 154.794 232.82C152.386 233.918 150.593 234.605 150.601 237.593L150.726 238.118C151.68 238.61 154.205 240.225 155.226 240.023C156.421 239.781 157.243 238.537 159.095 239.418C160.523 240.072 157.684 241.598 157.144 241.889C154.935 243.1 151.805 242.882 150.817 245.652L151.896 249.1C152.204 249.39 159.328 247.016 160.191 248.898C160.822 250.271 158.373 250.206 157.41 250.634C156.903 250.86 152.81 253.121 152.727 253.372L154.379 257.805C154.944 258.152 158.638 256.012 159.768 257.781L157.219 258.951C155.882 258.58 154.113 260.776 154.163 262.052C154.196 262.973 155.002 264.16 154.794 265.242C155.757 264.685 160.805 264.459 161.013 265.452C159.618 268.101 155.516 267.447 156.147 271.387C156.803 275.473 157.866 273.091 159.577 272.913C160.374 272.833 161.37 273.471 162.267 273.317C163.446 274.52 158.672 275.724 158.09 276.37L158.547 280.972C158.979 281.376 165.505 279.261 165.58 280.779C165.646 282.151 162.474 282.62 161.985 283.129C161.777 283.338 161.818 283.871 161.594 284.162C161.013 284.913 160.174 284.493 160.623 286.415C161.586 290.542 165.721 284.001 167.249 286.843C166.31 287.215 166.236 288.603 165.879 288.959C165.704 289.136 165.123 289.023 164.924 289.201C164.293 289.766 162.242 291.373 162.242 291.672C162.242 292.035 162.624 293.852 162.939 293.933C165.58 294.498 166.227 291.486 168.868 292.738C169.698 294.628 167.124 294.773 166.169 295.645C165.837 295.952 164.343 297.817 164.343 298.132C164.343 298.342 165.713 300.74 165.862 300.781C167.39 301.201 167.224 300.094 167.697 299.796C168.926 299.028 170.08 299.4 171.408 299.15C171.458 300.732 169.848 301.217 168.926 302.178L169.748 302.38C170.213 303.421 168.976 303.05 168.926 303.429C168.835 304.132 169.731 306.821 170.42 306.845C171.193 306.869 174.514 303.712 175.693 303.106C177.129 302.372 178.848 302.977 178.856 300.967C178.856 298.56 176.772 300.135 176.174 298.382L174.746 298.746C174.647 297.292 176.98 297.89 177.146 296.057L175.51 293.166C174.705 293.505 172.147 293.352 171.849 292.471C172.023 289.726 173.974 292.835 174.464 289.799C174.813 287.643 174.007 288.143 172.961 287.449C172.671 287.255 172.671 286.73 172.588 286.69C172.156 286.488 171.176 287.497 170.595 286.423L173.127 285.591C173.451 284.598 173.667 283.403 173.534 282.369C173.443 281.707 172.106 281.715 172.662 279.648C172.803 279.139 173.916 279.47 173.941 277.977C173.974 276.039 173.169 276.079 172.305 275.078C172.023 274.755 172.056 274.1 171.724 273.818C171.392 273.535 169.972 273.656 170.18 272.712C170.429 271.581 172.106 272.728 172.604 272.453C172.72 272.389 173.725 270.652 173.924 270.289L172.886 267.245C172.463 266.623 169.565 266.34 169.773 264.83C172.006 265.727 173.941 263.998 173.908 261.826C173.899 261.172 172.305 259.242 171.832 258.984C170.777 258.402 167.722 259.186 168.104 257.361C171.076 255.56 174.207 257.966 175.112 253.646L174.979 253.121C173.916 252.782 173.534 251.619 172.812 251.127C172.397 250.844 171.815 251.006 171.425 250.82C169.939 250.109 167.921 249.932 169.632 248.26C172.106 248.454 175.112 248.438 176.183 245.837C178.043 241.34 169.291 242.785 168.112 239.999L169.955 238.651C171.342 239.482 173.194 238.231 173.767 239.813C175.145 240.5 177.337 236.672 177.146 235.889C176.291 232.417 170.935 232.941 170.586 230.721C170.279 228.758 174.838 230.551 175.087 230.446C175.269 230.365 176.955 228.129 177.071 227.684C177.81 224.745 171.649 223.784 170.188 221.838C172.156 218.616 176.714 221.685 178.856 218.931C178.732 218.398 178.898 217.712 178.674 217.227C177.711 215.184 173.111 212.503 170.885 211.93C169.972 211.526 170.952 210.282 171.832 210.105C172.272 210.016 172.579 210.509 172.862 210.509C178.64 210.501 180.824 210.727 177.129 204.783L170.611 202.054C171.226 199.68 171.973 200.705 173.592 200.205C173.958 200.092 173.808 199.405 174.522 199.381C175.693 199.333 176.598 200.019 177.711 200.043L179.728 198.42C178.483 197.863 177.561 193.664 176.274 193.123C175.411 192.759 173.742 192.364 172.662 192.025C172.056 191.839 170.935 192.646 171.043 190.733C171.284 186.477 181.09 194.601 181.339 188.754C181.439 186.372 179.703 185.823 179.222 183.78C177.777 182.512 172.322 180.832 171.442 179.839C170.993 179.338 170.91 179.137 171.01 178.442C173.601 177.99 176.473 178.692 179.022 179.524C181.945 179.25 182.476 177.19 181.131 174.849C178.807 170.795 175.344 170.843 171.259 169.584C170.097 167.654 174.016 167.331 175.394 167.5C176.116 167.589 175.975 168.211 176.316 168.308C178.541 168.897 181.206 168.938 183.465 168.542C184.652 168.09 183.963 165.393 183.489 164.585C183.382 164.399 180.617 161.727 180.434 161.613C179.504 161.032 176.805 160.717 175.776 160.305C174.871 159.942 174.207 159.247 173.509 158.916C173.194 158.763 171.575 159.199 171.849 158.052C172.064 157.14 175.004 157.116 175.793 157.237C176.581 157.358 177.553 158.06 178.765 158.206C179.355 158.278 182.784 158.27 183.174 158.165C185.59 157.487 183.863 155.258 184.718 153.805C182.393 154.176 181.804 151.972 180.799 151.35C180.318 151.043 175.585 148.693 175.278 148.604C174.439 148.37 173.841 148.976 173.327 148.96C173.177 148.96 171.317 147.361 171.168 147.353C170.902 147.337 170.495 147.757 170.246 147.676C170.155 147.652 168.959 146.432 168.951 146.343C168.884 145.584 171.458 144.648 172.123 144.599C172.886 144.543 177.76 146.028 178.865 146.295C180.293 146.642 180.733 146.779 182.136 147.224C185.731 148.362 185.897 147.232 186.354 143.977C185.183 143.469 185.64 142.508 185.075 141.522C183.788 139.261 174.721 136.653 171.815 136.629C171.516 135.547 168.76 134.537 170.337 133.972C171.209 133.657 174.356 133.205 175.311 133.237C175.826 133.254 179.828 134.118 180.426 134.319C182.393 134.982 184.062 136.903 185.964 136.645C184.162 135.232 186.196 136.064 186.263 134.57C186.288 133.996 184.926 130.314 184.527 129.935C184.287 129.7 183.78 129.935 183.589 129.805C181.995 128.78 181.879 129.03 180.567 128.481C178.707 127.706 176.067 126.147 174.431 125.558C173.285 125.146 171.815 124.92 170.595 124.718V123.515C173.791 122.546 176.291 123.959 179.155 124.678C180.334 124.976 182.128 124.871 183.174 125.211C184.145 125.534 184.478 127.843 186.404 126.559C186.952 126.196 186.91 123.628 186.819 122.877C186.728 122.126 184.253 119.049 183.423 118.508C180.359 116.489 175.485 114.471 172.048 113.381C171.384 113.171 167.78 113.074 168.112 111.604C168.345 110.57 171.599 111.12 172.463 111.249C177.013 111.951 181.065 114.366 185.358 115.843L186.794 114.414L185.939 113.994C187.857 107.607 181.397 104.869 176.407 103.085C175.884 102.899 175.228 103.206 174.755 103.044C174.049 102.81 170.387 101.042 170.246 100.622C169.067 97.1253 173.949 99.0875 175.668 99.7174C175.959 99.8224 177.378 100.565 177.561 100.856L183.888 103.303C183.697 101.163 183.108 98.4496 181.945 96.5438C181.314 95.5102 176.415 91.9895 175.137 91.4323C173.559 90.7459 166.742 89.6396 166.56 88.178L166.925 87.2009C167.282 86.9829 174.472 87.4512 175.361 87.5804C177.171 87.8469 182.202 90.6248 180.26 86.0461C179.421 84.0677 177.818 84.3907 176.972 83.7932C176.465 83.4379 175.892 82.3396 175.261 81.944C172.978 80.5227 168.394 79.3034 165.638 79.0773V77.6641C165.654 77.5268 168.029 77.0989 168.386 77.0989C170.155 77.115 172.338 77.7772 173.692 77.8741C174.016 77.8983 173.899 78.5685 174.215 78.6493C175.377 78.9481 176.955 78.9561 178.275 79.8444C178.649 80.0947 178.383 80.7892 178.624 80.9992C178.831 81.1849 179.446 80.9992 179.662 81.201C179.961 81.4675 179.487 82.5415 181.43 82.9533C184.411 83.5832 182.717 79.6345 182.75 79.3518C182.941 77.5511 183.664 78.4716 182.535 75.9845C182.202 75.2496 181.746 74.0545 181.048 73.57C180.916 70.4449 180.899 67.1341 177.27 66.0359C175.61 65.5352 173.302 65.4949 171.732 65.3656C171.45 65.3414 171.458 64.6954 171.151 64.5743C169.756 64.009 167.871 64.3886 168.735 62.0952C169.773 60.6901 173.883 63.2419 175.444 63.6779C176.274 63.9121 180.185 64.9134 180.6 64.542C180.384 62.9754 180.558 61.1746 179.994 59.6646C179.687 58.8409 178.566 58.5421 178.416 57.3793L178.342 57.4197ZM125.874 77.7852C124.77 76.8001 124.762 75.6453 122.404 76.041C121.067 76.2671 117.331 77.8014 118.302 79.6668C119.597 81.4675 122.337 79.8848 123.425 79.9009C123.666 79.9009 123.608 80.4985 123.873 80.6115C124.496 80.878 128.008 82.275 127.809 80.555C127.768 80.1674 127.195 78.3747 127.012 78.1486C126.721 77.7772 126.107 77.9871 125.883 77.7852H125.874ZM208.133 77.7287C206.946 76.4932 203.815 75.7261 202.113 76.4851C200.32 77.2846 198.136 81.2818 201.084 81.1768C201.922 81.1445 202.321 80.5469 202.811 80.4581C203.658 80.3128 204.513 80.1351 205.31 79.9978C205.883 79.8929 206.423 81.0234 207.626 80.6842C208.963 80.0705 208.922 78.5605 208.133 77.7368V77.7287ZM207.826 84.4473C207.153 83.7447 200.137 84.7703 199.398 85.9815C198.784 86.9909 200.569 88.9532 201.574 89.1228C202.113 89.2116 206.273 89.1793 206.705 89.0501C208.573 88.4848 208.764 85.8685 207.834 84.4473H207.826ZM125.584 85.3194C123.774 84.5765 119.655 83.4782 119.149 86.2803C118.817 88.1376 119.672 88.9774 121.366 89.3893C124.496 90.1564 125.318 88.3556 128.233 88.2183C129.461 86.7406 126.896 86.4499 126.024 85.9735C125.783 85.8443 125.717 85.3759 125.584 85.3194ZM29.5174 109.521C30.0903 108.947 31.3607 109.238 32.1163 108.584C32.8718 107.93 32.8054 107.155 31.6928 106.953C30.4141 106.719 30.4889 108.317 29.1188 108.285C28.9943 110.401 26.7691 110.336 27.3503 112.621C29.9409 112.307 28.4463 111.911 28.5708 110.869C28.5958 110.635 29.1521 110.611 29.26 110.433C29.4427 110.118 29.4261 109.626 29.5257 109.521H29.5174ZM261.397 143C260.932 142.33 259.247 142.378 258.79 143.315C258.632 143.63 258.25 146.949 258.217 147.579C258.217 147.692 258.732 148.217 259.122 149.436C259.728 151.342 261.837 155.396 261.306 157.059C259.878 161.541 257.378 155.089 256.822 154.709C256.465 154.467 253.011 153.554 252.77 153.805C253.169 155.961 252.214 155.137 251.691 155.557C250.462 156.55 248.287 158.933 248.411 160.233C245.995 162.72 246.692 166.329 245.746 169.374L243.645 169.551C244.276 163.656 237.816 158.432 237.8 167.734C237.8 170.31 238.929 172.434 237.368 175.147H235.799C235.973 172.975 233.515 171.433 234.512 169.551L232.278 169.519C231.963 169.6 231.008 173.008 230.742 173.67C230.634 173.944 230.095 173.993 229.879 174.542C228.899 177.094 230.227 177.32 230.352 178.644C230.551 180.727 230.111 182.27 231.573 184.612C232.486 186.065 232.918 187.365 233.706 188.649C234.703 190.264 237.094 191.871 237.061 194.124L238.24 194.173L237.816 195.376C240.158 195.578 240.756 198.961 242.366 200.447C243.097 201.125 245.057 201.723 245.206 201.933C245.447 202.272 245.314 203.184 245.596 203.774C246.061 204.735 248.552 206.592 249.275 207.254C251.301 209.103 253.343 210.71 255.543 212.342C256.49 213.117 259.139 212.511 259.62 211.542C259.753 211.276 260.509 207.174 260.608 206.447C261.131 202.748 261.048 199.785 261.887 196.321C263.282 190.587 262.767 181.058 263.124 174.978C263.348 171.102 264.037 166.935 264.395 162.889C264.527 161.371 265.549 159.029 265.582 158.06C265.698 154.911 263.182 147.288 261.713 144.47C261.455 143.977 261.588 143.267 261.397 142.984V143ZM68.027 157.439C67.5953 156.946 69.9035 150.777 65.7603 151.366C64.0332 151.608 64.2574 153.248 63.834 154.297C63.6928 154.645 63.1199 154.62 63.0535 154.895C62.7961 155.961 62.9621 159.482 63.3109 160.604C63.7675 162.066 65.4199 163.083 65.9429 164.109C66.4079 165.013 64.9217 164.561 64.7556 164.739C64.8469 165.619 64.3239 166.652 64.3155 167.395C64.2906 169.358 65.1874 172.701 64.9964 174.55C64.4733 179.597 63.8755 179.653 64.6809 185.12C65.918 193.559 66.5159 203.782 69.4635 211.558C70.7421 214.926 71.8381 214.764 74.8023 213.06C80.5148 209.766 85.04 203.879 88.1952 198.638C91.1012 193.801 94.3643 188.601 96.1412 182.956C97.1791 179.661 97.3202 176.23 97.5112 172.781C94.273 172.289 91.6243 174.671 88.4193 174.372L87.971 172.394C89.5569 172.45 90.4204 170.876 91.3005 169.777C91.2424 166.66 90.9352 164.238 88.5771 161.888C87.6721 161.702 88.0623 162.268 87.8464 162.768C87.041 164.626 86.41 167.387 85.4718 168.954C84.849 169.979 83.9938 171.336 82.9808 170.173C82.3996 169.511 82.6321 163.576 81.7022 162.211C81.1791 160.741 76.7203 155.081 75.2092 154.225C74.8189 154.007 72.7764 153.288 72.6103 153.409C72.3612 155.638 70.3187 157.334 68.0436 157.447L68.027 157.439ZM109.891 159.934L108.289 159.869C108.313 161.896 109.684 162.445 111.394 163.099L112.033 161.484C110.58 161.622 109.982 161.404 109.899 159.934H109.891ZM119.265 164.949C117.198 162.114 114.126 159.562 112.249 163.915C110.389 168.227 109.061 173.654 105.847 176.884C106.678 178.749 105.632 178.297 105.49 178.636C101.737 187.801 93.8329 198.638 87.1407 205.986C78.5719 215.41 70.875 219.181 59.2175 222.96C58.5366 223.179 56.2948 224.204 56.4442 225.02C56.7681 226.804 60.2055 226.546 61.6004 226.481C64.8719 226.336 69.9782 224.939 72.9673 223.808C75.1926 222.969 77.1687 221.572 78.9456 220.708C79.4271 220.473 81.4448 220.36 82.1505 220.021C82.5574 222.403 80.8303 222.105 79.5268 222.92C78.3643 223.647 77.5091 224.551 76.4878 225.222C76.1308 225.456 73.1832 226.78 73.0753 226.942C72.8179 227.345 72.7099 230.228 73.0255 230.923C73.6897 231.383 80.108 227.999 81.204 227.402C97.2953 218.721 103.963 210.186 112.814 195.053C115.097 191.152 121.74 181.091 122.014 177.441C122.113 176.141 122.263 171.183 122.014 170.238C121.906 169.842 121.1 169.882 120.843 169.285C120.096 167.557 120.81 167.048 119.274 164.949H119.265ZM216.403 165.36C215.855 164.529 215.315 163.083 214.277 162.776C210.757 161.759 208.116 164.464 205.916 166.596C205.41 168.017 206.356 168.776 206.555 169.818C207.502 174.881 210.242 180.307 211.62 184.821C213.422 190.708 214.842 193.922 218.146 198.985C223.352 206.964 230.8 216.775 239.004 221.991C241.055 223.292 242.616 224.366 244.617 225.73C245.256 226.166 245.43 226.998 245.904 227.305C246.85 227.927 250.827 230.196 251.732 230.519C253.318 231.084 255.303 231.157 256.855 230.47C257.478 227.127 257.453 227.03 255.037 224.866C251.276 221.491 245.953 218.963 242.275 215.289C242.084 215.103 240.174 214.611 239.377 213.981C239.112 213.771 237.609 212.059 237.393 211.752C236.994 211.179 237.144 210.751 237.601 210.751C242.101 211.833 244.409 215.838 248.046 217.946C250.869 219.585 261.148 225.504 263.847 225.997C265.009 226.207 269.7 226.659 270.447 226.118C271.195 225.577 270.622 224.777 270.846 224.462C271.22 223.93 272.54 224.034 271.784 222.113C269.875 221.717 267.973 219.496 266.047 220.441V219.23C264.685 219.27 262.634 219.173 261.389 218.786C259.969 218.333 259.438 217.09 258.881 216.508C258.715 216.339 255.328 215.039 254.514 214.514C251.483 212.552 239.344 201.376 237.684 198.622C236.878 197.29 235.417 196.143 233.931 194.544C233.515 194.1 232.478 192.178 231.88 191.871C231.406 191.629 230.701 191.895 230.402 191.718C229.115 190.926 223.693 178.071 222.464 175.802C221.609 174.235 219.558 172.475 218.694 171.013C217.565 169.091 217.756 167.444 216.394 165.368L216.403 165.36ZM216.228 207.916C213.131 207.513 214.219 208.151 213.364 209.281C213.082 209.661 212.459 209.33 212.077 209.814C211.811 210.153 210.973 212.463 211.247 212.753C213.447 211.776 216.411 210.751 216.228 207.916ZM112.448 211.954C113.536 211.873 114.549 212.923 115.354 211.744C115.703 210.145 110.464 209.071 109.393 209.241C108.77 209.346 104.768 212.479 104.021 213.149C101.414 215.491 98.5989 218.883 96.1329 221.135C95.4687 221.749 92.7452 222.783 92.5792 222.92C92.4297 223.041 92.6456 223.695 92.2554 224.091C91.8651 224.487 84.218 229.469 83.2548 229.978C80.9964 231.173 78.1235 232.142 75.7821 233.426C74.9933 233.854 74.6612 235.097 72.9923 235.211C72.1121 240.903 74.5532 245.224 76.1142 250.319C77.8578 256.012 81.4614 265.153 81.7686 270.685C81.9181 273.454 81.1708 272.211 82.3498 274.94C83.2216 276.959 81.9845 280.343 82.2668 281.933C82.3498 282.402 83.0473 282.854 83.2133 283.379C83.5371 284.404 83.2631 288.878 82.9974 289.984C82.8895 290.42 81.9264 290.251 81.7271 291.26C80.6892 296.558 82.2502 304.697 85.1811 309.324C86.6674 311.674 90.6778 315.114 93.5922 315.284C95.3524 315.381 99.9855 315.138 101.779 314.799C103.224 314.525 104.577 314.266 105.931 314C106.968 313.798 108.629 312.716 109.476 312.554C110.422 312.369 111.759 312.95 112.88 312.474C112.656 315.453 109.451 318.183 106.927 319.588C106.495 319.83 105.914 319.701 105.432 319.967C105.1 320.153 105.117 320.856 104.71 320.961C103.88 321.179 97.2123 321.437 96.0831 321.348C95.1282 321.267 91.1843 320.67 90.3789 320.476C89.5735 320.282 89.3908 319.208 88.162 320.113C86.6674 321.219 87.4811 322.753 88.0374 324.126C89.698 324.247 91.4168 324.627 93.0608 324.15C93.4095 324.045 93.3431 323.496 93.6586 323.399C94.7131 323.092 96.739 325.111 97.1293 325.991C97.1293 327.275 92.6207 329.738 92.546 330.037C92.3052 331.038 94.7297 331.176 95.4603 332.04C98.8978 336.085 91.1843 335.504 89.1251 336.328C88.7847 336.465 85.8122 338.395 85.3887 338.718C82.3498 341.092 80.9134 345.356 80.2657 348.812L81.121 349.611C82.931 347.286 85.9949 346.906 88.8262 346.599C90.0717 346.68 94.0488 349.046 94.7629 350.055C95.3441 350.887 96.0582 353.681 97.3119 353.681C98.4411 353.027 99.0556 351.945 100.318 351.331C102.302 350.362 103.68 350.459 105.557 350.306C105.872 350.282 106.221 349.749 106.528 349.692C106.711 349.66 109.675 350.387 110.099 350.508C111.444 350.887 113.237 353.802 115.097 353.205C115.761 352.987 118.285 348.553 119.141 347.512C119.655 346.89 122.371 344.685 122.429 344.476C123.276 341.358 121.275 341.116 119.307 339.509C118.418 338.783 117.654 337.555 116.176 337.272C115.57 335.116 121.524 330.925 115.678 331.539C114.184 331.701 112.482 332.645 111.328 332.96C109.285 333.518 108.363 332.508 106.653 331.838C108.496 329.52 109.874 329.028 112.54 328.164C112.897 328.043 112.888 327.477 113.171 327.421C115.761 326.856 120.461 328.656 120.594 324.376C120.61 323.835 118.917 319.766 118.568 319.443C118.111 319.015 116.725 319.313 116.65 317.949C116.633 317.714 116.965 315.833 117.057 315.599C117.214 315.195 117.787 315.251 117.978 314.791C120.386 308.912 121.084 305.529 122.03 299.36C122.13 298.689 122.819 298.229 122.877 297.333C122.935 296.485 122.246 293.99 121.972 292.996C121.233 290.267 120.195 288.377 118.667 285.721C117.779 284.178 113.636 277.508 113.47 275.95C113.403 275.296 113.827 274.149 113.76 273.358C116.367 272.074 117.389 274.94 119.456 275.78L119.099 276.523C120.195 276.668 120.942 276.386 121.59 275.514C120.361 274.755 120.511 273.527 119.755 272.461C117.754 269.643 111.975 269.021 112.05 265.218C113.171 265.016 114.217 266.13 114.956 265L111.626 256.925C111.593 255.576 113.478 255.867 114.292 256.287C115.363 258.903 117.737 266.437 121.383 263.587C121.349 261.657 123.035 260.211 123.151 258.451C123.242 257.118 121.872 252.588 121.158 251.393C120.287 249.94 117.854 247.961 116.309 247.509C115.064 247.146 114.416 248.268 113.121 247.016C112.482 246.395 110.364 240.476 110.364 239.563C110.364 238.893 110.414 238.578 111.004 238.174C112.116 239.7 118.46 244.796 119.739 242.196C119.896 241.477 119.631 240.411 119.265 239.805C118.842 239.103 115.446 236.406 114.491 235.59C113.835 235.025 111.983 234.863 112.183 233.111C112.548 229.921 119.739 235.97 120.295 233.063C120.403 232.505 118.667 228.403 118.144 227.797C117.58 227.135 107.732 220.764 113.104 219.981C115.105 221.499 117.455 222.145 119.739 222.831C122.213 221.903 120.046 221.176 119.929 220.942C118.626 218.172 118.285 217.066 115.745 215.006C114.848 214.28 112.59 214.086 112.457 211.93L112.448 211.954ZM228.517 217.776C226.35 215.951 223.045 212.592 220.554 211.583C220.023 211.373 219.525 211.09 218.927 211.098L209.661 218.261C209.486 219.23 207.917 221.959 209.445 222.411C210.358 222.678 211.695 221.58 212.733 222.395C212.899 222.161 214.344 221.257 214.676 221.111C215.498 220.748 217.665 219.714 218.329 220.199C220.355 221.652 217.042 222.629 216.27 223.114C215.282 223.736 212.185 226.287 211.529 227.135C209.711 229.518 207.427 230.099 208.764 233.749C209.42 234.371 214.352 231.674 215.622 231.69C217.291 231.714 217.075 234.645 216.021 235.76C215.498 236.309 214.726 236.026 214.294 236.309C212.484 237.512 209.121 241.961 210.018 244.239C211.604 244.239 212.509 242.414 214.07 242.89L218.603 239.862C221.36 240.694 219.002 242.292 218.844 242.745C218.603 243.431 218.736 244.78 218.163 245.716C216.61 248.244 213.679 247.162 211.213 247.654C210.068 247.88 209.711 248.882 208.307 248.938C206.804 250.416 206.68 252.475 205.858 254.026C205.609 254.494 204.82 254.502 204.662 254.995C204.255 256.303 205.136 260.962 205.642 262.416C206.489 264.854 209.528 265.815 211.429 263.99L215.431 255.964L216.677 256.125C218.072 257.764 216.378 259.517 216.237 260.623C216.062 261.931 217.075 264.12 215 265.032C215.108 265.282 217.648 267.35 217.889 267.43C218.454 267.616 219.101 267.059 219.973 267.438C221.908 268.278 227.139 275.223 228.002 277.032L232.129 288.579L233.283 288.652L232.859 289.451C234.512 289.742 238.132 291.963 238.995 293.36C240.424 295.669 241.752 301.104 241.146 303.704C241.08 304.003 240.473 304.011 240.357 304.293C239.685 305.884 238.788 307.887 237.526 309.244C237.144 309.655 233.997 312.344 233.773 312.449C231.489 313.475 228.243 312.312 225.81 312.877C225.387 314.727 226.765 313.879 228.326 314.266C229.339 314.517 230.784 315.607 231.074 315.639C231.548 315.696 231.946 315.082 232.328 315.05C237.783 314.549 238.638 313.443 242.176 309.793C242.35 309.615 242.939 309.712 243.122 309.542C246.734 305.997 247.041 293.206 247.008 288.434C246.95 279.244 246.377 270.281 249.192 261.455C250.595 257.046 251.732 252.322 252.82 248.09C253.667 244.804 255.12 240.249 254.904 236.753C254.738 234.145 253.36 234.169 251.458 232.925C250.844 232.521 249.557 231.464 249.042 231.157C247.025 229.97 242.84 229.227 242.416 226.473C240.972 226.546 241.985 227.999 239.784 226.812C235.89 224.713 231.946 220.627 228.55 217.76L228.517 217.776ZM196.625 265.735C196.409 265.371 193.652 263.902 193.005 263.829C192.88 263.813 190.78 264.281 190.63 264.346C188.455 265.29 188.895 266.033 187.948 267.737C185.632 271.904 184.179 277.153 183.448 282.426C183.323 283.355 183.29 285.147 183.398 286.068C183.506 287.045 185.225 291.325 185.756 292.262C187.01 294.49 189.277 295.992 190.182 298.245C193.329 299.376 196.741 300.03 200.037 299.158V297.963C197.995 297.841 192.174 294.531 191.452 292.996C189.875 289.629 194.616 281.554 195.861 277.944C196.459 276.208 197.821 272.292 197.522 270.725C197.405 270.111 196.841 269.683 196.733 269.07C196.558 268.117 196.982 266.348 196.617 265.743L196.625 265.735ZM221.21 274.528C220.172 271.734 218.371 270.281 215.589 269.263C211.429 267.737 205.393 269.037 202.254 271.848C200.071 273.802 199.805 275.465 200.004 278.34C202.213 279.616 202.072 278.138 202.844 277.767C203.799 277.306 205.401 277.266 206.348 276.919C206.763 276.765 206.688 276.152 207.46 275.917C209.088 275.417 211.836 275.643 213.223 275.069C213.854 274.811 213.895 273.891 214.402 273.753C214.601 273.697 218.221 273.697 218.487 273.721C219.226 273.786 220.098 274.9 221.202 274.52L221.21 274.528ZM223.17 280.706C220.438 278.534 216.013 282.652 217.665 285.042C218.346 286.027 222.888 285.519 224.116 285.834C224.324 284.089 224.806 282.006 223.17 280.706ZM224.075 290.315C223.975 290.194 221.509 288.846 221.31 288.765C218.047 287.489 214.75 289.992 216.859 293.101L217.241 292.31C218.67 292.706 221.16 293.877 222.572 293.513C222.672 293.489 223.992 292.286 224.042 292.205C224.091 292.124 224.133 290.388 224.075 290.315ZM236.446 302.678C237.758 299.174 236.546 293.384 232.669 291.858C231.091 293.093 230.759 295.354 230.734 297.333C230.701 299.424 231.141 299.489 230.85 301.855C230.734 302.824 232.179 305.359 232.81 306.167C233.848 307.483 235.317 303.987 235.799 303.123C235.965 302.824 236.413 302.751 236.446 302.67V302.678ZM219.832 296.057C217.358 293.432 212.558 297.171 213.978 299.957C215.257 302.46 221.634 302.194 220.695 297.841C220.596 297.381 220.156 296.396 219.832 296.057ZM185.001 308.533C184.494 308.202 183.29 308.614 182.56 307.451C182.061 306.66 183.257 305.351 181.588 304.382C179.712 303.292 178.225 303.656 176.706 304.843C174.796 306.337 174.663 306.934 173.85 308.953C173.609 309.558 172.397 309.639 173.111 311.828C173.775 313.863 175.651 311.254 176.631 311.157C177.686 308.404 179.969 308.501 182.593 308.048C182.883 309.785 180.309 309.663 180.185 309.768C179.795 310.067 178.491 312.684 178.35 312.805C178.034 313.063 177.345 312.805 177.212 312.91C177.079 313.015 177.503 313.766 177.403 314.153C177.113 315.276 174.854 316.107 176.598 317.739C177.079 318.191 178.109 317.965 178.076 318.901L178.856 318.95C179.147 317.383 180.924 317.513 180.916 315.599L185.308 311.27C185.715 310.713 185.466 308.832 185.009 308.533H185.001ZM218.18 305.739C218.063 305.634 215.73 304.197 215.514 304.092C212.534 302.695 211.263 304.592 209.171 306.215C209.644 307.265 210.665 307.596 211.263 308.218C211.645 308.622 211.479 309.332 211.936 309.696C212.102 309.825 215.797 310.883 216.004 310.859C216.893 310.77 218.611 308.363 218.935 307.62C219.002 307.459 218.304 305.852 218.171 305.723L218.18 305.739ZM211.413 311.529C210.914 311.004 210.699 310.245 209.985 309.873C208.781 309.252 202.927 311.077 203.583 313.257C204.911 317.682 208.681 320.145 212.268 316.091C214.219 313.887 212.957 313.144 211.413 311.529ZM190.082 313.693C188.911 313.887 187.292 313.152 186.229 313.758C185.225 314.331 184.843 316.479 182.643 316.576L183.024 318.942L181.787 318.538C181.654 320.355 183.257 321.566 184.835 322.132C187.143 320.694 188.372 319.628 189.053 316.923C189.999 316.64 189.659 317.811 189.675 318.336C189.725 319.782 189.7 321.13 188.862 322.39C190.763 324.481 193.644 324.74 194.433 321.558C194.516 321.219 194.192 320.597 194.317 320.064C194.557 319.031 195.247 318.094 195.064 316.923C196.974 317.052 196.334 319.644 196.924 320.953C198.144 323.658 199.705 322.059 202.03 321.671C203.01 319.249 202.62 316.657 200.876 314.67C199.448 313.992 196.633 315.566 195.678 315.566C194.541 315.566 192.257 312.869 190.082 315.704V313.685V313.693ZM238.132 319.047C236.92 318.659 233.922 320.694 232.544 321.211C232.046 321.397 230.219 322.123 230.078 322.156C229.173 322.317 223.892 321.607 223.286 322.18C222.605 324.457 223.959 324.393 224.44 325.281C225.03 326.379 226.109 329.706 225.337 330.804C224.947 331.353 224.341 331.491 223.9 331.878C222.016 333.542 219.483 334.648 217.374 336.303C216.419 337.054 215.315 339.283 214.128 340.115C212.002 341.617 212.451 340.519 210.2 343.175C209.254 344.298 207.784 344.427 208.515 346.817C208.573 347.019 210.283 350.378 210.408 350.548C210.499 350.669 212.384 352.22 212.509 352.276C213.912 352.914 215.249 350.887 216.262 350.265C216.644 350.031 218.47 348.885 218.603 348.844C220.147 348.392 222.306 348.836 223.909 348.416C226.848 350.839 228.226 353.891 232.801 353.665C233.3 352.405 233.258 350.911 234.246 350.023C234.944 349.401 238.356 347.802 239.203 347.754C239.726 347.722 243.753 348.771 243.936 348.925C244.177 349.127 244.135 350.314 245.04 350.879C247.896 352.672 248.644 348.271 248.17 346.292C248.104 346.002 247.548 345.994 247.39 345.687C246.028 342.925 245.414 340.196 242.699 338.629C240.282 337.232 239.004 337.563 236.33 337.507C235.267 337.482 232.536 338.411 232.145 336.336C232.004 335.577 233.574 333.55 234.055 333.324C234.611 333.065 235.516 333.889 235.799 332.322L239.884 332.678C240.415 331.935 238.539 329.302 238.115 329.173C235.533 328.341 229.928 330.481 231.573 324.909C233.814 323.448 236.139 324.102 238.481 324.183C241.021 324.271 238.821 319.281 238.115 319.055L238.132 319.047ZM74.9767 341.657C74.5366 341.245 72.685 340.922 72.2284 341.205C71.149 341.875 72.602 344.225 72.5937 345.194L75.7323 343.595C75.8734 343.305 75.2092 341.875 74.9767 341.665V341.657ZM127.643 357.961C129.735 354.456 128.731 346.785 123.242 349.038C120.444 350.185 119.033 356.629 120.411 359.237L126.074 360.052C126.107 359.067 127.394 358.373 127.643 357.961ZM207.278 353.907C205.833 350.596 204.928 349.191 200.743 349.272C196.949 352.785 199.83 361.474 205.609 360.497C208.125 360.069 208.631 356.338 207.892 354.376C207.768 354.036 207.319 354.004 207.278 353.899V353.907ZM92.0063 353.35C91.2009 352.801 88.3114 352.074 87.506 353.132C85.4302 355.886 86.3104 360.085 90.1464 360.133C91.3835 359.213 93.3431 354.246 91.998 353.342L92.0063 353.35ZM225.221 365.261C226.026 364.397 226.657 362.709 226.64 361.538C226.624 360.133 225.603 355.03 224.747 354.061C223.618 352.777 219.749 353.544 218.337 354.303C215.207 355.983 215.199 358.026 214.717 360.949C214.676 361.223 214.012 361.49 214.161 361.732C214.186 361.772 214.717 361.619 215.008 362.015C217.217 365.035 217.823 363.985 220.903 365.003C221.41 365.172 222.032 366.521 223.834 366.19C224.091 366.141 224.133 365.64 224.307 365.544C224.615 365.374 225.129 365.382 225.229 365.269L225.221 365.261ZM241.902 361.272C242.001 359.641 242.491 353.407 240.133 353.294C239.817 353.277 237.202 353.738 236.986 353.859C235.89 354.481 235.093 359.552 235.516 360.505C236.687 363.161 239.967 362.661 241.902 361.264V361.272ZM109.85 355.005C107.699 353.164 102.452 354.989 102.07 357.945C101.978 358.647 102.41 359.285 102.352 359.875C102.252 360.949 101.048 362.354 102.493 363.549C103.357 364.26 110.298 364.34 110.788 363.993C110.954 363.872 112 361.805 112.008 361.538C112.033 360.537 110.232 357.945 110.755 356.394C110.032 356.16 109.982 355.119 109.85 355.005Z" fill="black"/>
<path d="M269.093 87.4597C272.555 90.924 276.408 93.8229 277.429 99.1283C277.595 99.9924 277.238 101.963 277.329 102.31C277.47 102.827 278.4 102.762 278.517 103.222C278.708 103.957 278.351 105.064 278.517 105.952C278.683 106.784 279.43 107.203 279.38 108.407C279.347 109.158 278.533 108.948 278.483 109.271C278.4 109.828 278.807 110.417 278.749 110.837C278.691 111.257 277.512 111.992 277.437 113.01C277.396 113.559 278.018 113.89 278.035 114.423C278.093 116.135 276.939 118.977 275.577 116.49C274.548 114.608 274.706 110.119 274.241 107.696C272.904 100.727 270.521 95.8014 266.062 89.9146C265.282 88.889 263.214 87.5162 263.521 86.0143L262.309 85.982C262.641 85.2714 263.09 83.4544 264.103 83.6159C264.327 83.6482 267.557 85.6832 267.93 85.9739C268.511 86.4342 268.669 87.0398 269.093 87.4597Z" fill="black"/>
<path d="M259.686 95.4221C259.852 95.5755 260.799 97.4651 261.073 97.78C265.582 103.021 267.342 105.322 269.891 111.516C270.356 112.646 271.502 112.8 271.02 114.762C270.954 115.045 270.331 115.045 270.24 115.36C269.957 116.313 270.032 117.613 269.758 118.372C269.642 118.711 268.338 119.187 268.488 120.269L266.462 120.479C265.058 120.148 263.805 116.837 263.572 115.626C263.29 114.14 263.771 111.621 263.547 110.442C263.414 109.78 262.792 109.327 262.709 108.754C262.609 108.052 263.14 107.252 263.066 107.026C263.008 106.856 261.687 105.015 261.198 104.143C259.836 101.705 258.184 99.2335 256.647 96.8837L257.76 94.4611C258.084 94.2431 259.354 95.1071 259.686 95.414V95.4221Z" fill="black"/>
<path d="M276.981 78.5692C277.986 79.3444 280.236 80.9433 280.967 81.7669C282.254 83.2366 282.245 85.4007 284.562 85.9741L284.354 87.5326C286.679 88.1463 284.313 89.406 286.015 90.5931C285.475 91.8689 285.733 93.2902 285.467 94.5903C285.318 95.3574 283.076 98.539 281.855 97.6588C281.581 96.8998 281.523 96.0438 281.158 95.309C278.841 90.5608 278.069 85.9822 274.706 80.9917C273.569 79.304 271.784 78.1331 270.621 76.4858C271.958 75.2503 274.698 76.4454 276.001 77.3175C276.566 77.697 276.657 78.3108 276.99 78.5692H276.981Z" fill="black"/>
<path d="M282.562 64.6715C282.877 64.9702 282.911 65.7858 283.284 66.2057C283.616 66.5853 284.339 66.3107 284.862 66.6256C285.841 67.2151 289.752 71.9956 290.292 73.0858C291.048 74.612 289.835 76.8569 291.396 77.301C290.126 79.5217 290.881 82.2753 289.046 84.3183H287.676C287.477 82.8244 286.34 81.6293 285.842 80.3211C284.43 76.5985 284.023 73.7883 281.698 69.8073C280.951 68.5233 281.358 69.4843 280.552 68.7494C279.747 68.0146 279.531 65.3417 278.095 66.1896L278.51 63.3633C279.423 64.0254 282.047 64.1789 282.562 64.6715Z" fill="black"/>
<path d="M244.309 109.965C244.683 110.207 247.622 113.761 247.954 114.269C249.714 116.95 250.536 119.542 251.541 122.417C251.674 122.789 252.321 122.716 252.355 122.974C252.546 124.339 250.636 130.129 248.809 129.975C248.369 129.103 247.414 128.045 247.057 127.254C244.981 122.651 245.538 116.894 242.972 112.25L239.477 109.594C241.536 109.142 242.507 108.81 244.301 109.965H244.309Z" fill="black"/>
<path d="M253.585 104.151C253.552 105.451 255.038 105.701 255.536 106.299C257.761 109.004 260.402 115.335 259.729 118.791C259.372 120.608 258.011 123.523 255.677 122.312C255.628 121.577 256.076 120.939 256.001 120.196C255.868 118.759 254.598 115.489 254.166 113.946C253.344 111.023 252.298 108.148 251.509 105.201L253.593 104.159L253.585 104.151Z" fill="black"/>
<path d="M148.725 44.9523C147.239 46.5108 139.542 53.9561 138.18 54.6667C137.673 54.9332 135.041 55.4581 134.867 54.6667C134.593 53.3666 138.055 48.142 139.077 47.0761C140.496 45.5903 149.397 39.0252 149.829 43.4019C149.945 44.5889 149.215 44.4436 148.725 44.9523Z" fill="black"/>
<path d="M184.985 43.6923C185.167 43.7892 185.25 44.3383 185.566 44.5321C189.9 47.1404 192.731 50.4673 192.972 55.692C192.624 56.0231 190.224 54.8522 189.759 54.5695C186.845 52.8414 186.612 51.0568 184.943 48.9654C183.631 47.318 180.891 45.8807 180.941 43.1916C181.306 42.7071 184.495 43.442 184.976 43.7004L184.985 43.6923Z" fill="black"/>
<path d="M174.298 41.1651C174.921 42.0291 173.111 43.2888 172.438 43.6038C171.251 44.169 170.778 43.087 170.321 44.4032L169.316 43.9833L169.723 45.5983C166.045 46.0828 162.375 44.9442 158.954 45.1946C158.813 42.7882 155.691 43.8622 156.438 40.7613C158.838 40.4948 160.897 41.8838 163.28 41.9887C164.99 42.0695 173.426 39.9699 174.29 41.1731L174.298 41.1651Z" fill="black"/>
<path d="M231.523 123.612C231.722 123.919 231.482 124.549 231.623 124.815C231.83 125.195 232.304 125.154 232.387 125.453C233.026 127.617 232.295 129.644 231.008 131.445C228.476 134.982 227.571 129.838 225.57 128.36C225.039 127.06 226.226 126.648 226.566 126.018C226.699 125.776 226.516 125.227 226.732 124.872C227.106 124.242 229.032 123.337 228.692 121.924L231.523 123.62V123.612Z" fill="black"/>
<path d="M239.06 121.101C239.808 120.851 241.991 122.805 242.191 123.322C242.423 123.927 242.133 127.804 241.95 128.49C241.875 128.773 241.335 128.748 241.186 129.104C240.879 129.855 240.721 130.816 240.306 131.599L237.416 128.886C237.665 126.794 236.304 124.727 236.802 122.668C236.993 121.868 238.197 120.778 238.014 119.478C238.579 118.776 238.994 119.074 239.434 119.68L239.06 121.093V121.101Z" fill="black"/>
<path d="M171.392 31.071C172.073 33.865 164.825 35.8111 163.073 35.3428C162.384 35.157 161.819 34.3091 161.13 33.9861C160.549 33.7196 156.364 33.0979 158.514 31.6686C159.61 30.9418 164.019 31.9996 165.804 31.8947C167.698 31.7897 169.441 30.8287 171.392 31.071Z" fill="black"/>
<path d="M186.223 33.6229C186.555 33.7359 188.913 35.8435 189.386 36.1666C189.776 36.4411 190.341 36.3927 190.723 36.6995C189.876 40.0346 187.111 37.2163 185.384 36.2312C184.728 35.8597 183.831 36.0535 183.225 35.5044C182.843 35.1572 181.814 33.211 182.818 33.0818C182.993 33.0576 185.949 33.526 186.223 33.6148V33.6229Z" fill="black"/>
<path d="M145.653 33.0897C146.034 35.698 144.249 35.8433 142.912 36.8931C142.472 37.2403 142.007 38.1448 141.592 38.2982C140.081 38.8473 138.695 38.8796 139.01 36.9416C139.201 35.7384 144.855 32.3064 145.661 33.0897H145.653Z" fill="black"/>
<path d="M62.9381 85.2713C64.6237 86.9348 61.701 88.7597 60.9952 89.9549C57.0347 96.6088 55.6065 106.444 53.2817 113.841C53.0741 114.511 51.7041 117.354 50.6413 116.627C50.5915 115.884 49.5619 115.311 49.454 114.794C49.072 112.921 48.7233 109.626 48.9475 107.599C49.0139 106.993 49.6948 106.549 49.7529 105.952C49.8691 104.757 49.0886 101.575 49.346 100.396C49.4872 99.7339 51.5962 96.3019 52.1026 95.5267C53.838 92.8942 56.9765 88.8809 58.8696 86.9832C59.783 86.0626 61.7259 84.0681 62.9381 85.2713Z" fill="black"/>
<path d="M69.1734 97.3842L69.4889 98.547C65.9933 103.214 65.8854 109.885 65.9435 115.448H64.6981L65.0717 117.435C63.1205 117.847 61.4183 120.544 60.4967 122.288C59.6664 122.231 58.5621 121.965 58.1303 121.246C58.0224 121.069 56.8766 117.491 56.86 117.289C56.8267 116.74 58.2134 110.87 58.587 110.094C60.1646 106.856 63.054 103.4 65.0717 100.267C66.0182 98.7973 65.9103 95.7934 69.1817 97.3922L69.1734 97.3842Z" fill="black"/>
<path d="M56.4028 75.8798C57.0422 78.5365 55.365 78.4396 53.9285 80.1354C49.8849 84.9159 47.1532 91.3114 45.3099 97.1901C44.7453 98.999 46.0821 100.501 42.7028 100.105C43.1262 97.1013 42.2959 93.8874 42.2627 91.0288C42.2295 88.1702 43.8071 87.2658 45.285 85.0451C45.75 84.3426 45.8247 83.4381 46.2897 82.776C46.7547 82.1138 53.4303 76.5016 54.0697 76.2512C54.8917 75.9282 55.4895 75.7344 56.4028 75.8717V75.8798Z" fill="black"/>
<path d="M77.4509 105.653C77.1686 105.879 76.3383 105.782 76.0975 106.129C75.6906 106.711 76.0477 107.631 75.8899 108.294C75.8318 108.56 73.5567 112.444 73.4322 112.905C72.6185 115.997 72.8261 120.422 71.5474 123.12C70.7503 124.791 69.2142 125.453 68.0601 123.677C67.2298 122.409 67.5287 117.273 68.0601 115.755C68.1763 115.408 68.7077 115.392 68.8157 115.117C69.9864 112.162 71.5557 109.61 72.8593 106.993C73.3242 106.065 72.9008 105.249 73.5816 104.514C74.3123 103.723 76.2635 103.045 77.3014 103.376C78.2895 103.642 78.0321 105.177 77.4592 105.645L77.4509 105.653Z" fill="black"/>
<path d="M83.7957 107.373L84.2191 114.641L82.9404 114.859C82.6083 119.357 82.8325 126.221 76.9871 127.117C76.4724 126.988 76.1984 126.075 76.1402 125.599C75.559 121.125 77.394 118.517 79.0131 114.592C79.6607 113.034 80.1257 111.798 81.0224 110.094C81.7946 108.625 81.4957 106.945 83.804 107.365L83.7957 107.373Z" fill="black"/>
<path d="M92.4801 115.497C93.4848 117.136 92.5715 118.606 92.5216 120.1C92.4718 121.594 92.7956 124.024 92.5133 125.268C92.4801 125.413 90.7365 127.085 90.4791 127.48C89.7069 128.635 89.3001 132.124 86.8008 130.929C86.585 130.824 85.0489 127.634 85.0323 127.327C85.024 127.133 85.9124 123.903 86.0536 123.499C86.2694 122.853 87.8055 121.715 88.4365 120.568C89.0676 119.421 90.5289 114.237 92.4801 115.489V115.497Z" fill="black"/>
<path d="M89.4988 289.985C91.2923 292.004 89.5237 293.126 89.615 294.491C89.7894 297.172 92.2554 300.66 94.381 302.38C96.8055 304.351 97.5113 303.584 100.459 303.802C104.029 301.436 104.569 298.109 102.476 294.531L103.506 293.918C103.888 294.806 105.324 294.911 105.673 295.242C106.047 295.597 106.321 297.204 106.769 297.818C107.06 298.222 108.745 299.514 109.077 300.289C110.555 303.721 109.102 305.594 107.209 308.194C106.91 308.606 107.11 309.252 106.628 309.85C105.1 311.748 103.265 311.295 101.522 311.683C101.206 311.756 101.264 312.394 100.949 312.474C98.6156 313.04 91.5746 310.867 89.8392 309.228C88.0375 307.524 85.0068 300.249 85.0068 297.745C85.0068 296.534 86.0696 290.55 86.8003 289.969H89.4988V289.985Z" fill="black"/>
</svg>
