<svg width="329" height="371" viewBox="0 0 329 371" fill="none" xmlns="http://www.w3.org/2000/svg">
<path d="M53.4874 41.1337C53.5958 41.0694 53.5374 40.1786 54.1047 40.3439C56.0317 41.9235 58.3758 40.5184 59.9774 41.0419C61.7542 41.6296 63.189 45.7073 65.1077 45.3491C66.0003 45.1838 67.3183 42.3092 68.2943 42.5848C71.0555 44.2195 72.1733 47.2226 72.582 50.639C73.9251 50.7951 74.6008 48.8114 75.8437 49.5828C77.0867 50.3543 79.6226 55.9381 78.4214 57.8942C79.8061 58.2157 82.9594 58.1514 83.7101 59.6208C83.9354 60.0708 83.852 60.833 84.1022 61.2922C84.8029 62.5872 86.9468 61.981 88.073 62.2106C91.8435 62.9637 95.9227 64.7086 98.8924 65.7739C100.536 66.3617 101.804 69.0893 102.546 70.9628C102.638 71.973 101.679 75.2057 101.32 76.3354C101.061 77.1711 99.9769 78.8242 99.9602 79.0262C99.8184 80.3946 99.8934 83.0947 100.077 84.4906C100.277 85.9876 101.32 87.4662 101.378 88.0907C101.437 88.7611 100.769 89.2203 100.945 90.304C101.32 92.6459 104.331 92.8295 106.016 92.9765C109.904 93.3255 114.175 94.1704 117.862 96.1724C128.431 101.903 129.949 108.203 143.672 107.478C146.642 107.322 150.162 106.67 152.339 105.604C154.233 104.677 158.921 103.731 161.206 102.987C164.401 101.949 168.047 100.388 171.534 99.4786C172.627 99.1939 174.529 99.5062 175.713 98.9C176.197 98.6521 176.047 97.798 176.898 97.6235C180.852 96.7969 187.025 97.9174 191.187 97.2286C195.525 96.5122 196.009 96.0714 200.639 97.247C202.34 97.6786 202.874 97.5133 204.426 97.9357C205.61 98.2572 207.22 98.6521 208.247 99.0286C211.141 100.112 213.035 101.674 212.951 105.705C213.343 106.412 216.939 105.797 217.498 105.806C217.681 105.806 217.648 106.422 217.94 106.559C222.261 108.571 220.768 109.021 221.352 113.815L226.207 113.53L229.176 116.423L229.518 115.587C231.153 115.899 231.771 117.975 231.479 119.757C230.269 121.263 228.651 121.364 227.208 122.236C225.765 123.109 225.047 125.046 223.788 125.496C222.611 125.919 221.185 125.542 220.05 125.928C219.85 125.992 219.842 126.562 219.583 126.654C217.139 127.535 216.213 127.278 214.128 129.785C213.485 130.557 214.178 131.842 212.392 131.374C210.749 130.942 211.884 129.987 212.009 128.867C212.367 125.625 213.394 125.533 214.545 122.833C214.678 122.512 214.378 121.979 214.428 121.832C214.561 121.437 215.571 121.391 215.12 119.839C212.009 118.857 209.94 120.546 207.279 122.007C205.677 122.879 205.294 122.411 203.767 124.422C203.475 124.817 203.458 125.901 202.858 126.25C202.29 126.396 200.188 123.807 199.638 123.403C197.744 122.016 193.948 119.83 191.805 119.086C191.438 118.958 190.887 119.398 190.595 119.187C190.361 119.022 190.378 118.177 190.003 118.085C189.561 117.975 188.977 118.416 188.551 118.397C186.733 118.315 182.47 118.103 181.853 120.684C182.303 121.079 183.463 120.721 183.605 120.803C183.688 120.849 183.705 121.41 183.922 121.538C185.974 122.778 190.128 125.028 191.596 127.223C192.372 128.38 192.881 130.3 191.154 130.511C190.236 130.621 187.192 129.179 186.132 128.702C184.072 127.774 179.467 124.798 177.573 124.596C176.981 124.532 176.564 125.552 176.372 125.386C176.072 123.21 173.778 124.036 172.526 123.917C172.134 123.88 171.676 123.412 171.133 123.375C169.749 123.283 166.946 124.661 167.229 126.672L173.803 127.746C178.274 130.042 178.658 131.328 173.444 132.66L174.829 134.322L178.032 135.654L177.799 137.353C176.848 136.884 176.013 137.27 176.005 138.639C177.515 138.381 179.392 140.099 180.293 140.292C180.935 140.429 181.519 139.97 181.986 140.053C183.271 140.292 185.014 140.999 186.349 141.283C187.1 141.77 187.45 142.652 186.941 143.506C186.758 144.011 186.499 143.983 186.149 144.094C185.081 144.433 180.71 144.838 179.475 144.865C174.637 144.994 169.098 143.001 164.485 143.304C163.667 143.359 162.917 143.699 162.116 143.763C161.999 144.911 162.149 144.434 162.658 144.617C163.3 144.847 165.569 145.471 165.703 145.572C165.836 145.673 165.895 146.426 166.37 146.674C167.221 147.124 169.565 147.556 169.707 147.675C169.882 147.813 169.999 148.585 170.308 148.915C170.666 149.31 172.919 150.688 171.067 151.303C170.933 151.349 168.564 151.303 168.205 151.294C164.96 151.119 160.097 150.881 156.91 150.467C155.434 150.274 154.875 150.991 156.293 152.065C158.045 153.379 160.372 155.215 162.374 156.024C162.791 156.189 163.4 155.757 163.968 155.968C164.66 156.216 165.536 157.153 166.337 157.419V158.742C166.245 158.889 163.642 159.973 163.375 159.991C162.575 160.046 160.105 159.908 159.088 159.844C152.239 159.431 147.951 154.857 142.471 150.706C141.203 149.742 140.627 148.392 138.708 148.667C137.908 149.191 137.716 153.654 138.074 154.361C138.174 154.554 138.817 154.683 139.092 155.078C141.228 158.191 142.671 159.229 145.782 160.946C146.925 161.571 148.785 161.148 148.252 163.178C148.185 163.435 144.531 165.171 144.014 165.18C143.355 165.189 143.547 164.372 143.238 164.289C142.337 164.05 141.428 164.592 140.735 164.5C139.96 164.399 138.533 162.847 137.274 163.426C137.015 165.51 137.949 167.65 139.334 168.899C142.521 171.783 145.632 171.921 148.877 173.647C149.428 173.941 151.18 173.473 151.171 175.181C151.171 177.128 145.582 177.743 144.306 177.863C143.622 177.927 142.913 177.403 142.229 177.514C141.67 177.606 141.211 178.414 140.794 178.331C140.594 178.294 137.774 176.301 137.307 175.962C136.84 175.622 136.489 174.41 135.522 174.189C134.437 173.95 133.194 174.584 132.544 175.594C132.877 176.053 133.253 176.503 133.436 177.082C133.853 178.405 135.814 182.197 136.623 182.969C137.299 183.612 140.327 183.924 140.869 185.926L140.569 187.148C138.633 187.423 137.215 186.679 135.814 188.847C137.749 190.463 137.207 194.743 138.491 196.598C138.975 197.296 140.443 197.911 140.936 198.655C141.077 198.875 142.996 203.219 143.054 203.476C143.321 204.771 142.329 208.886 143.121 210.842C143.572 210.658 144.456 210.86 144.74 210.41C145.006 209.997 147.367 205.267 147.442 204.964C147.492 204.762 147.542 201.07 147.509 200.822C147.351 199.647 145.507 198.894 146.925 197.562C148.86 195.753 148.735 199.72 149.161 200.583C150.746 203.752 149.912 203.908 150.437 207.187C150.596 208.188 151.43 209.005 151.505 210.245C151.605 211.834 150.387 214.286 152.973 214.258C152.973 213.863 152.99 213.349 153.182 213.018C157.361 205.782 156.435 203.991 156.235 195.652C156.176 193.016 156.06 194.283 155.901 193.466C155.743 192.649 155.976 191.611 155.901 190.757C157.378 190.472 158.796 191.179 159.788 192.456C160.13 192.897 161.232 194.642 161.724 195.376C163.542 198.076 163.959 203.412 163.959 206.792C163.959 208.224 161.657 212.715 162.825 214.038C164.844 216.297 167.096 212.522 167.863 210.511C169.348 206.608 169.507 203.614 169.432 199.537C169.407 198.232 168.898 197.479 169.131 195.78C169.44 193.604 171.008 192.346 172.602 193.879C173.286 194.531 176.773 202.586 177.006 203.89C177.398 206.075 176.856 209.666 178.149 211.43C179.609 213.422 179.742 209.336 179.817 209.152C179.992 208.702 181.277 207.719 181.102 207.425C179.517 207.086 180.802 202.246 180.626 200.868C180.576 200.51 180.126 200.078 180.034 199.481C179.642 196.809 179.625 192.887 177.465 191.363C177.623 188.791 179.484 189.646 180.868 190.38C184.539 192.318 186.758 197.828 188.318 201.511C188.485 201.897 187.45 202.916 188.576 202.714C189.202 201.787 190.779 198.269 190.82 197.36C190.837 196.965 190.361 196.533 190.361 196.093C190.361 195.294 190.562 195.358 190.445 193.953C190.286 191.997 190.47 190.38 189.552 188.461L190.77 187.34L194.582 188.865C195.4 192.309 197.319 194.917 198.987 197.819C199.379 198.508 201.022 202.98 201.923 201.86C201.515 200.051 202.891 198.682 202.457 196.956C201.94 194.89 201.423 192.594 200.864 190.536C200.58 189.48 198.52 186.725 200.914 186.982C201.323 187.028 203.875 187.634 204.209 187.772C205.035 188.112 205.869 193.512 207.596 190.72C208.255 189.646 208.347 185.853 208.113 184.585C207.863 183.226 205.535 178.267 205.978 177.541C207.22 176.614 209.857 178.423 210.682 179.451C210.866 179.681 213.11 183.465 213.168 183.704C213.277 184.126 213.018 185.145 212.885 185.614H213.986C213.293 187.699 214.803 188.791 214.72 190.748C216.005 192.309 219.275 185.375 219.608 184.346C219.767 183.86 219.416 183.318 219.466 182.923C219.508 182.592 220.117 182.675 220.192 182.335C220.718 179.984 219.75 174.4 221.101 172.793C222.753 170.828 226.774 175.236 227.141 174.942C227.266 173.831 228.2 172.995 228.442 171.967C228.584 171.361 228.534 167.751 228.426 167.2C228.259 166.41 227.508 166.016 227.274 165.262C227.133 164.812 227.425 163.931 227.166 163.315C226.916 162.737 223.454 160.312 226.607 159.954C228.526 159.734 228.409 160.707 229.535 161.699C231.279 163.242 231.437 163.361 232.672 165.731C235.158 170.525 234.966 173.142 233.906 178.57C233.573 180.269 233.03 183.281 232.196 184.897C231.262 186.698 229.218 186.955 230.369 190.215C230.478 190.518 232.663 193.31 232.847 193.328C233.406 193.402 233.548 193.273 233.923 192.878C235.758 190.968 236.509 186.385 237.685 184.016C237.994 182.611 236.509 175.622 239.587 177.293C241.965 178.579 241.739 186.955 241.306 189.673C240.38 195.413 238.728 200.189 235.917 205.157C234.14 208.298 235.775 209.767 237.577 212.082C238.136 211.54 238.695 211.255 239.137 210.52C240.822 207.784 241.906 202.879 243.583 199.913L244.676 199.748C245.702 201.3 244.784 202.062 244.801 202.834C244.843 204.468 245.226 205.607 244.968 207.526C244.601 210.263 242.59 212.522 243.233 215.112L242.582 214.8C241.789 215.498 241.723 216.719 241.389 217.344C238.728 222.267 237.577 223.525 236.284 229.347C236.2 229.705 235.55 229.641 235.558 229.843C235.591 230.596 236.684 231.074 236.809 231.331C237.043 231.79 236.617 232.883 236.784 233.296C236.951 233.71 237.402 233.737 237.627 234.059C237.802 234.307 237.685 234.903 237.827 235.06C239.27 236.749 240.046 233.719 240.546 232.709C242.19 229.393 243.733 224.719 245.401 221.183C246.377 219.107 247.228 216.435 249.439 215.957C250.198 216.591 248.78 222.23 248.238 223.102C246.619 225.701 247.37 224.829 246.619 227.795C245.41 232.552 242.64 236.722 241.639 240.809C241.314 242.15 241.589 243.307 241.389 244.299C241.322 244.629 240.688 244.546 240.647 244.859C240.63 244.997 240.688 247.357 240.705 247.733C240.763 248.661 241.239 252.582 241.572 253.133C243.775 254.465 243.524 250.433 244.225 248.964C244.559 248.275 245.16 248.147 245.385 247.651C245.927 246.438 246.845 241.782 248.671 243.334C249.397 243.95 246.878 252.325 246.611 253.896C246.344 255.466 245.743 258.892 245.81 260.205C245.86 261.096 247.078 263.777 247.078 265.118C250.432 266.055 250.056 260.177 253.076 260.398C253.793 263.695 252.534 267.074 252.701 270.454C252.767 271.822 253.718 274.55 253.66 275.138C253.618 275.505 253.001 275.955 253.084 276.396C253.218 277.112 257.23 279.941 258.206 278.995C259.074 278.407 256.396 268.314 260.767 269.977C262.102 272.484 263.445 275.34 264.346 278.242C264.696 279.362 264.446 280.823 264.638 281.337C264.913 282.072 267.649 286.36 268.425 285.607C268.567 283.973 268.8 282.265 270.436 282.154C272.513 282.017 271.67 283.027 272.112 283.991C272.971 285.837 272.321 286.094 272.846 287.839C272.905 288.041 274.623 291.311 274.74 291.467C275.049 291.862 275.874 291.999 276.283 292.385C277.026 292.33 277.293 288.611 277.167 288.023C277.101 287.711 276.567 287.793 276.542 287.536C276.292 285.185 275.766 282.65 278.118 282.595C280.729 282.54 281.822 288.482 283.491 290.429C283.449 292.679 284.208 295.746 286.552 295.866C287.353 295.903 289.08 294.148 290.264 295.535C290.473 295.783 292.258 301.027 292.583 301.936C292.875 302.763 292.817 302.616 293.084 303.543C293.618 305.399 293.584 307.695 295.119 308.87C297.538 310.707 297.447 308.347 297.897 308.218C300.35 307.548 300.533 312.332 300.583 314.233C305.004 314.27 304.028 311.634 304.237 308.08C304.279 307.41 304.854 306.739 304.838 306.335C304.796 305.343 303.353 304.572 303.228 304.333C303.027 303.957 303.786 301.257 303.786 300.696C303.786 300.513 303.086 297.436 302.986 297.124C302.418 295.26 300.75 292.275 299.407 291.063C298.289 290.052 294.66 288.629 295.294 286.875L296.954 285.314C297.13 282.604 295.937 283.385 294.952 282.568C294.535 282.228 294.46 281.594 294.118 281.309C293.009 280.409 291.274 280.529 291.407 277.7C291.44 276.993 294.101 275.386 294.56 275.367C294.719 275.367 297.296 276.313 297.672 276.497C299.173 277.213 300.608 278.995 302.427 278.765C301.709 281.025 303.586 282.439 303.686 284.689C303.745 285.91 303.019 286.939 303.303 288.17C303.67 289.74 306.856 293.717 307.123 294.883C307.348 295.866 306.631 297.014 306.798 298.18C306.915 299.007 307.54 299.291 307.732 299.888C308.007 300.733 307.582 302.451 307.707 302.717C308.141 303.599 309.626 302.754 309.743 305.481C309.784 306.464 309.376 307.447 309.509 308.282C309.676 309.311 310.735 309.302 311.002 309.945C311.861 312.002 310.251 316.428 310.368 318.715C307.999 320.175 308.416 323.022 307.365 325.364C306.314 327.706 305.555 326.292 305.455 330.204C305.321 335.733 309.367 339.994 308.833 346.845C308.666 348.967 306.765 353.173 305.805 354.697C304.913 356.103 303.72 357.012 303.061 358.582L296.713 359.133L296.012 358.242L295.119 359.335C292.358 357.655 289.155 359.629 286.36 358.426C283.657 357.26 282.556 356.259 279.203 356.075C276.533 355.928 276.108 357.691 274.631 353.559C275.616 353.494 275.916 352.365 276.734 351.951C278.002 351.299 283.958 350.996 281.981 348.177C281.881 348.03 279.562 346.23 279.353 346.101C277.91 345.247 266.965 343.934 264.947 344.118C262.319 344.356 256.855 346.625 257.464 350.537L259.466 351.41C259.783 349.931 260.667 350.794 261.643 350.519C264.204 349.793 266.014 348.893 268.792 349.903C270.469 350.51 273.789 353.072 272.838 355.487C271.87 356.158 270.828 355.212 269.868 355.451C269.451 355.552 266.974 356.957 266.331 357.306C264.388 358.389 260.7 361.989 259.082 362.494C257.647 362.944 250.181 362.504 248.48 362.118C247.804 361.962 247.971 361.457 247.754 361.365C247.387 361.218 245.902 360.924 245.768 360.777C245.727 360.731 246.094 360.226 246.01 360.052C245.96 359.941 245.552 359.923 245.426 359.62C244.3 356.892 244.959 356.562 244.684 354.688C244.659 354.505 242.782 353.301 242.365 352.144C241.99 351.088 242.282 350.592 242.257 349.628C242.257 349.352 241.814 348.921 241.839 348.627C241.864 348.241 242.49 347.929 242.624 347.534C243.925 343.677 243.233 345.964 245.368 343.897C247.687 341.666 247.887 337.34 249.606 335.182C249.823 334.906 253.034 331.444 253.251 331.279C253.66 330.966 255.695 330.7 256.438 330.415C258.315 329.699 258.507 329.57 260.917 329.166C265.53 328.386 265.847 328.092 270.502 329.433C271.136 329.616 272.913 329.506 273.522 329.837C273.964 330.076 275.307 331.683 275.841 331.986C277.71 333.042 282.765 335.742 284.625 335.191C284.984 334.42 285.843 333.134 285.96 332.372C286.018 331.986 285.634 326.751 285.551 326.466C285.393 325.906 284.667 325.97 284.517 325.456C283.482 321.957 283.966 320.524 280.588 318.43C280.988 316.676 279.403 315.795 279.954 313.811L279.211 313.379L277.801 314.16C277.393 314.16 276.55 313.196 276.241 312.81C275.032 311.285 274.54 308.53 273.655 306.997C273.389 306.528 272.546 306.528 272.78 305.325C271.87 304.939 270.861 305.748 270.052 305.72C267.332 305.637 265.647 299.457 263.495 298.006C262.961 299.411 263.145 300.972 261.485 300.145C261.943 301.303 261.051 302.193 260.033 301.652C259.124 301.174 258.932 299.585 258.448 298.988C257.047 297.271 254.686 295.7 253.209 294.011C252.417 293.101 251.166 290.943 250.515 289.887L248.154 292.771C247.253 292.009 246.269 291.806 245.376 290.971C245.151 290.76 242.39 287.564 242.29 287.334C241.956 286.507 242.206 285.635 242.065 284.79L241.089 284.707C240.93 284.193 241.055 283.587 240.822 283.091C239.545 280.363 239.362 279.206 238.569 276.763C238.252 275.781 237.051 275.588 237.735 274.082C236.884 273.87 237.151 274.201 236.918 274.633C235.742 276.8 236.05 278.582 233.272 276.616C233.08 276.488 231.571 274.348 231.537 274.201C231.362 273.237 231.621 272.08 231.437 270.978C231.254 269.876 230.102 266.156 229.702 264.889C229.552 264.43 228.793 262.501 228.617 262.336C228.409 262.152 227.199 262.593 226.849 262.033C226.257 261.077 226.991 257.633 226.173 257.404C224.764 257.34 221.443 257.404 220.442 258.662C220.042 259.167 220.251 259.985 219.858 260.637C218.791 262.409 216.905 263.19 215.721 264.806L211.4 264.044C210.774 264.402 209.823 266.735 209.414 267.231C208.906 267.837 208.163 267.91 207.621 268.562C207.137 269.15 205.56 271.446 205.585 272.181C205.627 273.88 207.287 273.209 207.604 273.329C207.854 273.42 207.721 273.916 207.955 273.999C208.422 274.155 210.274 273.926 210.983 274.614C211.25 274.872 211.2 275.643 211.416 275.9C211.767 276.323 213.318 277.718 213.419 277.948C213.494 278.123 214.278 281.043 214.294 281.208C214.336 281.815 213.569 282.2 213.677 283.165C213.869 285.029 215.938 287.022 216.455 288.51C216.705 289.235 217.523 292.991 217.272 293.303C217.172 293.423 215.371 293.056 215.804 295.59L219.441 299.796L219.116 301.009L220.125 301.082C221.16 302.919 220.034 303.874 219.875 305.105C219.541 307.713 219.733 312.305 217.915 314.123C216.522 315.519 215.587 313.278 214.036 313.875C214.011 316.649 212.676 318.339 213.502 321.039C214.344 323.794 216.605 325.713 217.114 328.349C217.331 329.488 217.64 333.024 217.648 334.19C217.648 334.511 216.939 339.866 216.83 340.417C216.755 340.793 214.87 344.963 214.62 345.312C213.527 346.864 212.042 347.038 210.624 347.598C210.365 347.699 210.365 348.416 210.132 348.425C209.781 348.425 209.331 347.984 208.78 348.076C208.013 348.195 207.246 349.518 206.52 349.554C205.744 349.591 204.91 348.526 204.676 348.535C204.334 348.535 204.134 349.729 202.958 349.646C202.374 349.6 197.761 345.908 196.534 345.155C194.549 343.943 192.847 343.456 190.837 341.978C190.453 341.693 190.32 340.958 190.186 340.857C190.053 340.756 189.519 341.124 189.152 340.995C187.45 340.371 182.445 339.278 180.902 339.599C180.551 339.673 180.526 340.49 180.284 340.637C177.415 342.29 172.76 340.619 173.077 345.468C174.103 345.431 175.963 345.798 176.005 344.191L176.522 345.027C178.174 344.145 179.6 341.969 181.686 343.309C182.445 344.421 179.801 347.424 179.05 347.975C177.757 348.912 175.847 348.452 175.171 349.297C174.762 349.802 174.795 350.546 174.387 351.07C172.068 354.027 165.878 357.003 162.399 356.066C161.015 355.698 156.802 352.411 155.701 352.438C155.375 352.447 155.017 353.338 154.808 353.164C154.725 351.529 153.657 352.356 152.531 351.777C151.972 351.492 150.012 350.004 149.728 349.481C149.494 349.049 148.602 345.798 148.602 345.284C148.61 344.081 151.171 341.831 151.455 339.581C151.647 338.038 150.863 337.964 150.629 336.973C150.429 336.146 151.371 331.205 151.713 330.526C151.805 330.351 153.607 327.486 153.732 327.339C154.324 326.622 155.801 326.292 156.085 325.814C156.377 325.3 156.151 324.326 156.627 323.886C157.069 323.472 158.337 323.601 158.912 323.252C159.405 322.949 159.496 321.847 160.389 321.434C161.056 321.121 161.866 321.709 162.633 321.553C163.209 321.434 163.651 320.699 164.126 320.699C164.602 320.699 165.035 321.443 165.603 321.535C170.9 322.435 177.064 322.517 182.378 323.711C183.855 324.042 185.748 325.585 187.492 325.768C188.476 325.869 190.328 325.116 191.705 325.814C192.756 322.021 192.405 319.248 191.529 315.556C191.421 315.115 191.663 314.61 191.629 314.509C191.571 314.298 190.495 313.967 190.979 312.58L190.328 312.902C190.22 312.672 190.186 312.323 189.986 312.167C189.119 311.487 188.835 312.635 187.909 312.599C186.641 312.553 185.857 310.744 185.323 309.559C185.098 309.054 185.365 309.146 184.781 308.007C183.83 306.17 182.87 305.077 181.861 303.369L182.57 302.331H181.11C181.728 304.104 179.742 304.177 178.725 303.194C178.282 302.772 178.066 301.964 177.657 301.44C175.229 298.401 174.604 297.06 173.611 293.12C173.044 290.879 172.426 291.935 171.083 291.632C169.79 291.338 169.24 289.364 168.481 288.262C167.83 287.316 166.737 286.581 166.479 286.241C165.327 284.753 165.169 281.263 163.008 280.097L163.609 278.205C163.576 277.865 162.825 277.893 162.616 277.36C162.516 277.103 161.54 272.126 161.549 271.777C161.557 270.656 162.65 269.747 162.458 268.856L160.698 267.074C161.974 265.568 160.839 265.192 160.681 264.062C160.08 259.7 162.608 259.443 162.766 257.606C162.858 256.596 161.891 255.558 162.182 253.923C162.675 251.196 165.302 249.644 165.761 248.569C166.704 246.365 164.702 246.062 164.685 244.868C164.685 244.602 165.444 242.315 165.603 242.058C165.828 241.681 166.295 242.03 166.412 241.92C168.147 240.23 168.489 240.91 169.357 240.294C169.64 240.092 169.991 237.998 170.366 237.411C171.058 236.345 172.535 235.151 173.261 234.398C174.337 233.278 175.73 231.276 177.131 230.752C179.409 229.898 181.703 233.636 182.787 233.471C183.112 233.425 183.187 232.47 183.379 232.332C183.871 231.992 184.814 232.47 185.106 232.176C185.206 232.075 185.081 231.432 185.265 231.129C186.14 229.687 187.192 229.751 187.951 229.118C188.443 228.704 188.96 227.005 189.761 226.317C190.987 225.26 192.856 225.398 194.049 224.498C194.774 223.947 194.891 223.056 195.083 222.9C195.208 222.799 197.36 222.221 197.844 222.083C198.512 221.881 201.014 221.743 201.706 221.486C202.716 221.109 204.493 216.205 206.903 218.988L206.286 221.927C204.526 222.974 202.332 223.883 200.647 224.967C197.444 227.033 189.41 233.498 187.4 237.227C186.691 238.531 186.332 239.505 186.991 240.974C186.991 241.158 185.54 241.332 186.241 242.067C186.799 242.645 191.663 235.216 191.696 240.552C191.538 241.24 190.754 240.864 190.437 241.185C189.644 241.984 189.811 243.013 189.419 243.646C188.66 244.85 185.215 247.302 184.072 248.826C182.328 251.159 181.744 252.858 181.594 255.98C183.321 258.258 183.863 255.429 185.131 255.062L188.076 255.108C188.084 256.724 186.499 257.275 185.999 258.019C184.272 260.591 181.427 266.34 181.527 269.591C181.577 271.152 182.061 274.091 183.571 272.052C184.48 270.821 185.323 267.644 187.308 269.664C186.641 272.814 183.446 278.113 187.584 279.61C188.451 279.959 187.792 278.747 188.293 278.343C190.186 276.818 191.429 278.315 191.187 280.74C191.079 281.805 190.979 282.972 190.87 284.083C190.512 287.674 188.251 292.459 192.831 293.34C192.272 291.136 194.95 289.419 194.666 286.939C197.402 286.443 196.167 289.318 196.81 291.026C197.285 292.275 199.646 294.507 200.322 295.912C201.148 296.169 201.465 294.277 201.84 294.185C203.775 293.689 203.175 295.443 203.442 296.454C203.55 296.876 204.109 296.793 204.267 297.298C204.885 299.337 205.41 302.928 205.544 305.105C205.636 306.537 204.643 307.823 205.802 309.586C207.012 311.432 208.864 310.845 210.365 310.872C210.657 310.643 210.566 305.5 210.724 304.756C210.816 304.315 211.592 304.361 211.775 303.755C211.95 303.194 211.458 301.192 211.533 301.091C211.692 300.889 212.342 301.339 212.192 300.614C210.891 300.595 211.158 298.419 210.607 297.326C210.39 296.894 208.906 295.801 208.755 295.462C208.347 294.543 208.547 293.248 208.171 292.385C207.93 291.816 206.203 290.144 206.353 289.299C206.695 288.418 207.754 288.849 208.105 288.555C208.23 288.454 209.223 285.598 209.139 285.213C206.378 282.173 204.901 279.124 203.6 274.973C201.59 274.587 200.188 272.254 198.57 271.474C196.676 270.555 196.985 271.942 196.318 272.015C193.473 272.337 192.856 269.857 193.164 267.019C193.248 266.266 193.782 266.413 193.807 266.321C193.907 265.982 193.456 265.532 193.882 264.889C194.407 264.099 195.1 264.668 195.392 264.457C195.901 264.099 196.601 262.106 197.227 261.518C198.27 260.545 199.621 260.885 200.864 260.857C199.863 262.446 200.021 268.048 202.616 265.881C202.849 261.527 206.345 259.654 206.97 255.402C208.313 253.537 208.447 251.416 211.099 251.453C210.624 254.346 210.949 255.843 212.743 257.863C213.235 256.008 214.186 256.89 214.753 256.577C214.795 256.559 214.486 256.146 214.728 255.512C215.346 253.877 216.263 252.628 217.006 251.113C218.641 250.507 218.707 252.775 220.401 251.894C222.094 251.012 222.72 246.898 222.795 244.85C222.878 242.673 222.62 239.119 222.044 237.154C218.365 236.511 218.474 233.094 218.766 229.467C218.874 228.107 220.109 224.48 219.65 223.672C218.223 221.174 214.119 225.003 215.195 219.75C215.471 218.4 217.256 215.627 217.548 214.442C217.698 213.827 217.548 212.091 217.84 210.869C218.34 208.702 218.966 206.617 219.483 204.468C218.832 204.505 216.28 202.76 216.021 202.31C215.479 201.382 215.896 199.922 215.579 199.031C215.404 198.526 214.386 197.948 214.178 197.204C213.761 196.965 212.901 198.6 212.776 198.912C212.392 199.867 212.609 201.226 211.6 202.328C211.225 202.742 210.566 202.273 210.39 203.008C210.023 204.533 211.083 206.92 210.699 208.858C210.641 209.161 210.148 209.17 210.015 209.492C209.373 211.053 208.647 213.542 206.845 213.845C205.585 214.065 203.583 213.468 204.501 211.723L203.458 211.65L203.383 210.474C200.881 210.089 201.765 211.76 201.189 213.156C200.522 214.773 195.892 220.779 194.482 220.705C193.982 220.678 192.313 219.677 192.03 219.227C191.679 218.676 192.147 218.143 191.996 217.812C191.938 217.675 191.321 217.711 191.129 216.903C190.62 214.717 191.246 211.384 188.209 214.286C189.294 216.839 187.542 218.85 186.866 221.247L181.536 228.603L177.648 226.675L176.022 220.871C177.323 220.678 176.806 219.319 175.822 219.833C175.288 220.117 173.686 225.903 173.227 227.051C172.535 228.805 171.601 230.55 170.908 232.369C170.524 232.874 168.664 233.618 168.247 233.958C165.828 235.932 164.802 238.669 162.174 234.509C163.242 230.532 165.928 227.281 162.867 223.46L161.348 223.956C161.432 225.104 160.339 226.059 160.155 226.666C159.805 227.859 159.88 229.852 159.371 231.368C158.362 234.371 156.151 237.916 153.532 239.073C153.056 239.073 148.86 235.611 148.727 234.821L150.187 231.368C149.795 230.054 150.621 230.165 150.746 229.751C151.321 227.85 150.621 223.341 148.252 224.572C148.151 225.591 148.318 226.62 148.143 227.639C148.051 228.19 147.05 231.643 146.858 232.121C146.083 234.049 144.139 234.077 142.679 233.452C141.319 232.874 141.995 231.551 141.953 231.423C141.937 231.368 141.378 231.395 141.161 230.826C140.585 229.338 141.336 226.895 141.269 225.619C141.211 224.461 139.659 222.019 140.185 220.264C137.198 219.631 137.632 224.269 135.071 224.967C135.347 225.591 135.739 226.023 135.922 226.739C136.381 228.493 138.683 238.761 138.308 239.431C138.016 239.964 136.423 239.1 136.615 242.131C136.798 245.061 138.3 246.209 139.117 248.679C139.726 250.516 140.193 255.806 139.751 257.56C139.526 258.46 138.108 259.36 137.632 260.205C136.197 262.786 137.732 266.523 137.073 269.389C136.615 271.4 136.047 270.95 134.788 271.813C134.454 272.043 134.337 272.658 134.254 272.695C133.036 273.274 131.526 271.841 131.743 275.165C131.81 276.139 132.452 276.662 132.51 277.314C132.569 277.966 132.143 278.701 132.16 279.445C132.193 280.924 132.769 285.387 132.51 286.241C131.192 290.686 127.605 286.939 126.855 289.024C126.721 289.4 127.163 292.348 127.005 293.046C126.93 293.368 126.396 293.258 126.362 293.515C126.304 294.001 126.688 295.599 126.604 296.463C126.287 299.447 124.652 301.569 122.258 302.552C122.208 304.342 122.492 314.564 121.507 315.482C121.307 315.675 120.323 315.418 119.722 315.74C118.563 316.364 119.105 318.88 117.295 319.229C116.786 319.33 116.118 318.587 115.726 319.634C116.01 322.646 117.445 329.984 115.726 332.335C115.626 332.473 113.482 333.731 113.024 334.006C112.632 334.245 112.106 333.887 112.073 333.933C111.797 334.364 111.355 337.735 111.138 338.617C111.005 339.177 110.438 339.608 110.379 340.086C110.312 340.609 110.796 341.362 110.521 341.941C110.179 342.667 106.442 344.586 105.466 344.154C105.883 345.743 104.89 347.011 104.757 348.232C104.44 351.033 105.141 352.328 103.781 355.212C101.845 359.308 99.5264 358.555 96.1646 359.124C90.5505 360.088 85.0115 359.124 79.0553 357.783C78.9302 357.756 77.8041 356.819 76.7947 356.736C76.2608 356.69 69.8209 357.039 69.4705 357.168C65.3162 358.738 64.5654 364.781 61.6291 367.876C60.9951 368.547 59.9607 368.455 59.7188 369.667C58.8179 369.061 56.5489 370.512 55.9566 370.439C55.2892 370.356 53.9629 369.052 53.2204 368.684C52.5614 368.363 51.7356 368.629 51.0182 368.262C50.3592 367.931 49.6334 366.177 48.9327 365.984C48.4405 365.856 47.8399 366.315 47.2476 366.26C46.4718 366.186 44.0777 362.485 43.035 361.769L44.0777 356.525C40.0152 355.175 40.0069 354.284 41.1914 350.032C41.2915 349.665 41.7753 349.683 41.8421 349.398C41.9422 348.967 41.475 348.067 41.9839 347.249C42.1674 346.955 44.6867 344.467 45.1955 343.952C47.7732 341.381 51.1517 339.122 54.6052 337.863C58.4341 336.468 68.1024 334.493 72.0064 334.713C73.1826 334.778 75.2514 335.512 76.3442 335.494C77.437 335.476 81.4161 333.575 82.4255 332.785C83.9354 331.591 85.5537 329.405 87.1637 328.285C84.903 323.564 89.124 320.23 87.1887 315.822C87.0636 315.547 86.4797 315.547 86.4546 315.234C86.4296 314.968 86.7633 312.792 86.8634 312.415C86.9635 312.038 87.5141 312.094 87.5724 311.8C87.7977 310.652 86.9468 307.768 87.1887 305.876C87.3138 304.866 88.0229 304.122 87.9729 303.341C87.9228 302.561 85.4703 301.082 85.7456 298.244C85.8123 297.556 86.2878 297.023 86.3796 296.389C86.8467 293.019 87.439 291.329 87.6976 287.894C88.0312 283.477 90.7507 279.013 91.2095 275.092C91.4431 273.035 90.6673 270.592 91.6016 268.516L89.9833 268.075C88.39 271.602 86.5714 275.643 85.829 279.546C84.9614 284.11 84.6778 287.114 83.1596 291.687C82.2586 294.387 82.6841 296.555 82.0751 298.538C81.9583 298.906 81.4328 298.832 81.3661 299.154C81.2242 299.879 81.5996 302.083 81.3494 303.25C81.266 303.635 78.5965 305.931 78.071 306.758C75.4934 310.835 76.3776 314.5 75.5017 318.256C74.459 322.692 71.873 326.769 71.1055 331.306C70.0211 331.811 68.3443 330.562 67.677 330.526C67.1097 330.489 63.2057 331.141 62.6468 331.37C62.3131 331.508 61.7626 332.546 60.7031 332.812C59.0014 333.235 55.5312 333.06 54.1881 333.464C53.796 333.584 54.1881 334.741 53.2204 334.328L53.1871 333.106C52.0776 333.373 50.2674 332.151 49.4332 332.307C48.599 332.463 47.5229 334.42 46.3551 334.42C46.28 335.457 45.3373 337.854 44.7117 338.488C44.4948 338.708 42.8848 338.993 42.376 339.562C42.1424 339.829 42.2091 340.518 41.8838 340.922C41.2665 341.684 38.1633 342.446 37.2957 342.391C36.7368 342.354 36.3698 341.675 35.8276 341.574C34.9767 341.418 32.5826 341.234 31.4898 341.133C30.4887 341.041 27.2354 341.142 26.5263 341.803C26.1676 342.143 26.2844 342.896 26.0675 343.172C25.8506 343.447 25.0498 343.447 24.4992 344.118C23.0561 345.872 22.0551 348.406 20.3366 349.931C16.2908 353.522 10.5683 353.605 6.07196 351.198C5.54642 350.914 4.39524 350.161 4.07825 349.665C3.46929 348.719 2.66012 342.198 1.84261 340.527C2.94375 338.167 3.05219 335.32 3.81965 332.776C3.93643 332.381 5.5214 328.799 5.69658 328.542C6.51408 327.33 9.26691 326.09 9.5422 325.373C9.9009 324.446 8.5078 322.756 10.4932 320.478C13.6714 316.823 17.3669 315.721 21.6296 314.702C22.4305 314.509 23.4065 314.867 24.1072 314.665C24.3908 314.582 24.3491 313.793 24.5159 313.82C29.5628 314.546 36.5366 313.967 41.3583 316.153C41.9756 316.428 42.3343 317.255 42.9766 317.494C44.2696 317.962 46.5469 316.832 47.8733 316.41L52.1193 308.898L51.1016 307.263C51.4186 305.913 53.1621 302.193 53.2121 301.183C53.2622 300.173 52.5114 299.475 52.5614 298.731C52.7033 296.775 54.5802 292.266 54.5885 290.466C54.5885 289.759 53.8795 289.106 53.771 288.262C53.3956 285.332 56.2736 278.169 57.1161 275.147C52.7533 271.868 55.9399 271.143 56.649 267.175C56.991 265.265 56.1234 262.409 56.2986 261.481C56.5656 260.03 57.9587 258.001 58.1589 256.577C58.284 255.687 57.9003 254.943 58.0254 253.914C58.2423 252.123 60.8032 246.218 60.0024 245.006C59.5853 244.372 57.6583 244.997 57.5916 242.636C57.5666 241.837 58.1005 241.396 58.1255 240.956C58.3674 237.328 58.7261 235.106 59.7939 231.579L58.309 231.166C57.9003 230.844 57.9503 230.413 57.9753 229.926C58.0421 228.254 58.7094 224.783 59.0932 223.075C59.4435 221.559 61.4372 218.455 59.9357 217.289C58.2673 215.994 58.0588 217.858 57.041 214.267C56.4154 212.082 55.7814 208.169 55.406 205.892C55.2308 204.845 56.4071 200.62 56.1234 200.17C55.5145 200.391 54.3716 201.061 53.796 200.923C53.6626 200.896 51.5604 199.325 51.4603 199.206C50.1673 197.709 49.5834 194.632 49.0662 192.704C49.0078 192.474 48.5573 192.52 48.4739 192.171C48.2904 191.436 48.0068 187.221 47.7148 186.918C45.0204 188.553 44.0443 187.175 42.6679 184.493C41.1163 181.49 41.792 181.114 41.5251 178.607C41.425 177.661 40.5074 177.266 40.4406 176.825C40.3739 176.329 41.0079 175.888 41.0663 175.475C41.2748 173.969 41.4 173.216 41.6669 171.737C42.1507 169.028 41.4417 169.873 40.8828 168.863C40.6826 168.504 40.7827 167.825 40.5825 167.31C40.2738 166.539 39.3312 166.456 40.0486 165.143C37.9548 165.722 37.8797 167.338 35.5273 166.824C30.9893 165.832 30.4637 163.83 29.813 158.724C28.762 158.522 29.154 159.679 28.0946 160.34C25.9174 161.699 24.0905 158.237 23.4482 156.134C22.931 154.426 23.3647 150.385 21.5796 150.192C20.6453 150.091 19.4107 149.843 18.5098 149.09C18.4097 149.007 16.8747 147.317 16.8247 147.198C16.5828 146.638 17.2751 145.701 16.6829 145.251C15.7569 144.645 13.7882 145.453 13.0792 144.966C12.9207 144.856 12.7038 143.947 12.295 143.543C10.4932 141.779 9.03334 140.604 8.64961 137.546C8.47443 136.141 8.85816 134.561 8.37433 133.192C8.09071 132.393 6.67258 132.1 6.48072 131.089C6.36393 130.474 6.79771 129.592 6.72263 128.738C6.53911 126.553 5.95518 124.697 6.42232 122.282C6.48906 121.961 7.09802 122.016 7.15641 121.704C7.38998 120.409 6.18875 119.398 7.78205 118.921C7.58185 117.121 8.74137 116.551 8.59122 114.568C8.43272 112.492 7.51511 112.639 7.15641 111.831C6.4974 110.361 5.51305 106.862 5.69658 105.145C5.80502 104.107 6.60585 103.464 6.64755 102.968C6.74766 101.729 4.5871 98.9 4.01151 97.6327C2.7352 94.8316 2.15126 92.5265 1.40049 89.6335C1.14189 88.6233 0.265992 87.9437 0.0157347 87.1723C-0.101052 86.7957 0.466198 82.663 0.599669 82.0569C0.708113 81.5426 2.23468 78.815 2.59339 78.4017C3.46929 77.3915 5.60482 76.4823 6.62253 75.4262C7.26486 74.2139 6.30554 69.9434 6.3973 68.3546C6.45569 67.3811 7.10636 66.876 7.16475 66.2056C7.23983 65.3239 6.6559 64.6076 6.88113 63.3586C6.96455 62.9086 7.76537 61.2831 8.07402 60.8698C9.20852 59.3636 11.7611 58.335 12.5703 56.4983C12.7288 56.1309 12.2867 55.4238 12.612 54.7809C12.8873 54.2207 14.0218 53.9268 14.4723 53.385C14.8143 52.9809 14.514 52.3655 14.9811 51.9064C15.7486 51.1716 17.5171 50.5655 18.443 49.9318C19.1354 49.4635 20.0613 48.0491 20.1781 48.04C20.6953 48.0124 21.2292 48.6553 21.7714 48.2879C22.0217 48.1226 24.3491 45.2022 24.541 45.1471C25.5587 45.6246 26.4179 45.0736 27.4022 45.1103C28.4366 45.1562 30.764 45.9828 31.3813 45.8358C32.4491 45.5787 35.4438 42.4837 36.7869 41.8868C37.5794 41.5378 41.0413 40.6194 41.8337 40.5827C42.6679 40.5368 43.2519 41.1888 43.9359 41.2164C44.7784 41.2531 45.1538 40.4174 45.7461 40.3439C46.5302 40.2429 47.0474 41.2623 47.915 41.2623C48.5823 41.2623 49.0412 40.5919 49.3748 40.5735C50.2507 40.5276 53.1454 41.3358 53.4957 41.1062L53.4874 41.1337ZM36.0278 51.0706L33.5002 52.1635C30.4554 54.0095 31.0143 58.2891 28.4617 60.4198C26.3845 61.3382 26.9851 55.0197 26.885 53.8625C26.8183 53.0635 26.5263 52.3104 26.518 51.5114C26.3345 51.3002 22.3971 54.8084 22.2469 55.0564C21.8215 55.7819 21.9967 57.1136 21.5629 57.8942C21.1875 58.5738 19.1187 60.4473 18.3429 59.6024L17.9258 60.4841L16.6495 59.63C15.6568 61.1637 16.2157 62.229 16.0823 63.5423C15.832 66.0586 12.6204 66.0678 12.3117 67.6199C12.7205 70.2189 12.1282 71.8169 14.4389 73.0935C16.9164 74.4619 18.76 73.1486 20.4117 73.8006C21.7881 74.3516 21.1375 77.6211 23.7401 77.5935C25.6671 77.5752 28.2865 76.3629 28.8788 79.7058C30.4804 78.1997 33.1665 75.8853 35.1018 75.2333C36.5116 74.7557 38.9141 75.1231 40.1987 75.0037C40.9578 74.9302 41.5418 73.9016 42.2175 73.5894C42.7347 73.3506 45.6627 73.2129 46.0297 73.3965C46.4969 73.6353 46.4885 74.3149 46.7054 74.471C47.0391 74.7006 47.5479 74.471 47.7815 74.5996C48.2236 74.8568 47.9734 75.5915 48.5657 75.3986C50.5761 74.2874 51.6772 72.7628 53.5291 71.321C53.7627 71.1373 53.8294 70.5128 53.9963 70.4026C54.5385 70.0261 57.5582 69.925 57.5749 71.3485C57.5749 71.973 56.0817 76.1425 55.014 75.867C56.5489 80.0915 59.9524 77.0884 62.6468 77.1895L63.0055 80.9273C60.9868 81.2579 58.4759 83.5722 56.6573 83.9028C55.5395 84.1049 53.404 82.4702 52.1944 82.36C49.842 82.1487 50.2424 82.112 48.1903 81.5701C44.8452 80.6793 44.378 81.2763 41.5251 82.0936C40.6075 82.36 39.6815 82.1212 38.839 82.3783C37.8797 82.6722 36.203 84.3528 34.935 84.4447L35.2853 85.262C33.8505 85.0508 32.8578 86.2631 31.5482 86.658C31.2395 86.7498 27.6441 87.4294 27.4273 87.4386C26.8517 87.4662 24.1239 86.9151 23.7234 86.5753L22.8142 83.1406C21.1208 83.9579 21.2125 82.3967 20.4117 81.9375C19.5608 81.4508 15.223 80.4956 14.2887 80.7895C13.4712 81.0467 12.7455 81.864 11.9614 82.1395C11.0187 82.4702 8.82479 82.461 8.09905 83.0855C7.70698 83.4161 7.75703 84.3712 7.50677 84.9682C7.38998 85.2437 6.76434 85.2161 6.756 85.5008C6.72263 86.8325 8.05734 88.807 6.83108 90.6897L7.32325 91.6632C7.52346 91.7183 10.5683 90.157 10.9353 89.8999C11.586 89.4315 12.879 87.659 13.4712 87.1172C16.7329 84.1324 23.3564 87.8794 24.5743 92.4254C25.4085 95.5479 26.1426 100.645 25.8089 103.878C25.7839 104.116 24.908 106.927 24.8579 107.689C24.7829 108.782 25.2083 112.832 25.0081 113.603C24.6577 114.944 21.0374 116.919 21.1541 113.328C21.1625 112.951 21.4294 110.003 21.4628 109.829C21.7714 108.479 22.4471 103.887 22.4972 102.124C22.5389 100.572 21.7464 98.5602 22.1135 96.7969C20.1531 96.0898 20.3366 99.1113 18.8184 98.7715C18.4347 98.6888 15.2647 96.5582 14.9311 96.2275C13.8299 95.1255 13.2877 92.7101 11.5276 92.5265C11.8112 93.6653 10.4515 94.4459 10.4932 95.2173C10.5182 95.8051 11.0521 96.6408 11.1355 97.4765C11.2606 98.7807 11.1605 103.216 11.8779 103.823C12.9457 104.704 17.7506 103.538 12.9874 108.121C13.3294 109.085 15.3649 108.699 15.4483 111.61C15.4983 113.355 13.8716 113.98 13.8299 114.999C13.8049 115.661 14.0051 117.617 14.1052 118.351C14.2387 119.316 15.4733 120.941 14.0051 121.906C12.9374 122.604 11.8946 121.538 11.1772 124.358C13.3127 125.377 15.223 126.525 12.9957 129.069V129.703C14.2971 129.271 14.4389 131.42 15.198 132.495L14.0885 135.672C14.5891 135.736 15.0729 136.058 15.465 136.398C16.7329 137.509 17.175 138.207 18.126 139.281C18.7684 140.007 23.1645 142.532 24.0321 142.689C24.9497 142.845 27.7109 142.836 28.2281 141.963C28.7119 141.146 28.2114 140.108 29.4043 139.713C31.8568 138.896 34.2509 141.339 35.7942 140.833C36.3781 135.994 38.9391 140.273 39.8651 138.675C40.5407 137.509 37.3374 133.44 38.1883 131.65L40.766 131.402L40.791 129.537C40.6659 128.986 38.0382 128.518 37.8046 128.151C37.4292 127.554 37.229 125.23 37.8213 124.753C40.2071 122.806 43.4521 129.225 45.8796 128.839C46.0464 125.992 43.4604 124.275 44.0527 121.152C47.1225 121.152 48.5823 124.652 51.16 125.845C51.7022 125.395 51.7356 125.203 51.6605 124.459C51.452 122.374 50.0255 120.252 49.6835 118.177C49.6418 115.881 55.1725 117.938 56.3737 118.443C56.7741 118.609 56.8075 119.251 57.016 119.334C57.2246 119.417 60.0191 119.564 60.1276 119.435C60.7282 116.322 57.8836 114.687 55.9399 113.42C55.2058 112.933 54.5969 112.731 53.5208 111.978C52.9619 111.592 50.2591 111.16 52.1777 109.443C54.6052 107.276 63.4643 115.054 64.8741 113.016C64.2151 111.61 63.7479 109.783 62.3966 109.094C62.9805 107.928 62.1463 108.451 61.4623 107.845C58.9931 105.659 58.8763 102.197 62.4132 103.308C63.6729 103.703 64.9075 105.953 66.1421 106.67C66.676 106.973 67.1514 106.559 67.3516 106.706C67.6603 106.936 70.7635 110.591 71.0972 111.115C71.5727 111.858 72.5653 113.668 72.582 114.513C72.582 114.907 72.215 118.388 72.1316 118.728C71.948 119.453 71.1305 119.949 70.5549 120.188C69.0284 120.05 69.1118 113.365 66.359 113.897C66.384 114.678 66.7761 116.432 66.6593 117.011C66.4758 117.901 64.774 118.857 64.5821 119.757C64.407 120.583 64.9075 121.318 64.824 122.126C64.7657 122.741 63.8397 126.736 63.6228 127.572C63.4977 128.059 62.3882 130.897 62.1296 130.97C60.1359 130.786 60.845 129.198 60.4863 128.316C60.4279 128.169 59.3684 126.093 59.2934 125.983C58.8429 125.313 56.4404 122.613 55.7564 123.724C55.9649 127.113 57.4498 130.29 57.2579 133.78C57.2162 134.524 56.6156 134.322 56.5072 134.726C56.2569 135.654 56.3236 137.821 55.3893 138.473C55.0724 138.694 54.1214 138.841 53.9379 138.666C53.7043 138.446 52.9452 132.66 52.6532 131.833L50.4426 130.153C48.9744 132.146 50.1173 133 50.2841 134.607C50.4926 136.646 49.8837 138.85 50.2674 140.824C48.7575 140.31 49.1329 142.257 48.4572 142.771C46.0214 143.478 47.0391 140.08 46.8556 138.372C46.7138 137.059 46.2049 135.498 46.1799 134.074C42.1758 132.54 44.2362 137.151 43.8024 139.897C43.6356 140.944 42.6262 145.021 42.084 145.572C40.449 147.225 38.814 143.497 37.3458 143.781L34.3761 148.392L30.1551 145.269C29.813 145.536 28.0779 147.758 28.0279 147.933C27.8694 148.465 28.3449 151.725 28.52 151.955C28.9455 152.524 29.5044 151.937 29.813 152.166C30.2719 152.515 30.1884 153.902 31.9653 153.158L31.9903 151.928C33.5836 152.074 34.96 152.414 35.7275 154.178C35.961 154.719 35.8693 155.454 36.0361 155.858C36.2447 156.345 37.0705 156.418 36.7785 157.833L37.6544 158.31L41.3583 152.763C41.8504 152.699 42.5678 153.048 42.9349 153.434C43.5105 154.04 43.6439 156.519 44.403 155.766C45.4374 154.738 46.8055 146.417 48.2403 146.803L51.16 153.25C50.9848 154.426 51.9775 155.858 52.8117 156.63C53.1871 154.811 52.6115 151.156 52.9869 149.586C53.3289 148.135 54.8805 146.445 54.6386 144.672C56.7157 144.645 56.649 146.867 57.3163 147.951C58.6594 150.137 60.236 151.992 60.6114 155.041C60.7449 156.125 59.1265 161.938 59.3851 162.186C59.8856 162.232 60.5196 161.92 60.8867 162.452C61.2203 162.93 62.3548 167.136 62.7636 168.275C62.9638 168.844 63.5644 169.23 63.6895 169.753C64.3402 172.362 63.0973 176.963 67.3683 174.942C67.4935 173.51 67.1348 170.185 68.703 169.854C71.1389 169.34 70.4048 173.666 70.8052 175.53C71.606 176.228 73.1409 186.202 74.7259 184.402C75.0095 180.875 77.5955 182.859 78.1961 185.265C78.7467 187.46 79.1221 189.471 80.048 191.648C80.34 192.327 81.3327 192.74 81.316 193.797L82.0584 193.558L82.4088 190.812L84.6444 191.537L86.4296 207.058C87.7059 207.958 89.6579 204.652 89.8665 204.615C93.2116 204.037 91.2012 209.896 91.6767 212.33C91.8852 213.404 92.6693 214.231 92.6693 215.406C91.0844 217.215 92.2689 216.508 92.636 217.179C92.978 217.803 93.2199 218.712 93.3701 219.447C94.5379 219.769 94.1542 217.665 95.1886 217.096C95.8726 216.719 96.6651 216.903 97.3825 216.885C97.6828 218.841 96.9821 220.779 97.0071 222.625C97.0155 223.433 97.2324 225.609 98.0833 225.453L98.1083 226.059C95.8643 227.079 97.6662 228.576 97.6745 229.981C97.6828 231.763 96.882 231.873 97.7663 235.004C99.1176 239.798 98.9925 236.299 100.477 234.812C103.372 231.91 102.596 236.841 102.504 238.458C102.329 241.332 101.754 244.372 100.794 247.118C100.586 247.715 99.8934 247.798 99.6182 248.321C98.5754 250.332 98.9508 252.316 98.0916 254.291L98.1583 254.832C101.203 256.118 99.2011 258.864 98.4002 261.004C98.1166 261.757 98.1166 262.712 97.833 263.337C97.4826 264.136 96.7819 264.2 96.6985 264.374C96.6484 264.466 96.6484 266.478 96.6651 266.588C96.7152 266.928 97.5577 266.836 97.6244 267.965C97.883 272.208 94.5546 276.121 94.0958 280.318C97.7996 281.548 93.2783 287.426 92.344 289.814C91.5182 291.926 91.4848 294.102 91.7184 296.371C92.0771 296.949 94.588 296.123 94.8216 298.281C94.9217 299.2 93.3534 306.354 92.9697 307.639C92.4441 309.403 90.9092 310.927 91.2012 312.966C92.1688 312.966 93.6036 314.243 93.7288 315.372C93.7705 315.712 93.3617 319.156 93.2616 319.937C93.0698 321.406 92.8529 323.28 92.6193 324.74C92.5692 325.061 90.0333 329.874 89.708 330.314C89.5078 330.599 85.2117 334.401 84.9281 334.557C84.4693 334.814 80.1815 336.045 80.1982 336.706C82.6173 339.737 86.4046 338.424 89.0573 336.504C90.0333 335.797 91.2512 334.052 92.1188 333.134C92.4024 332.831 93.0447 332.849 93.2616 332.546C93.6954 331.958 93.3367 330.636 93.3951 330.562C93.612 330.305 94.4378 330.379 94.7298 329.984C94.905 329.745 96.0895 324.887 96.3398 323.932C96.6735 322.664 96.0645 321.094 97.9748 320.782C99.1927 320.589 99.6432 322.49 100.177 323.564C100.953 325.125 100.669 325.245 101.236 326.613C101.979 328.395 104.031 331.269 105.04 333.06C105.299 331.26 105.908 326.898 107.501 326.319C108.119 326.099 108.819 326.384 109.428 326.007C110.354 325.429 111.847 318.036 111.856 316.539C111.872 313.728 110.404 311.359 112.064 308.154C113.024 306.299 116.035 307.603 117.145 304.655C117.653 303.295 116.611 299.824 116.727 297.804C116.869 295.296 117.712 292.624 118.029 290.126C118.187 288.868 117.954 286.682 118.212 285.213C119.939 284.147 119.489 288.693 120.498 289.795C120.982 290.328 121.958 290.346 122.6 290.328C122.692 284.827 120.273 279.546 122.05 274.091L123.71 273.87L124.494 277.011L126.629 277.516L125.253 262.822L127.188 260.829C128.031 260.692 128.031 263.116 129.549 262.556C130.175 257.826 126.179 252.288 129.365 248.468C129.641 249.249 132.36 254.401 132.669 254.465C133.62 254.658 134.546 252.931 134.537 252.096C134.537 251.388 133.269 249.882 132.936 249.001C131.843 246.071 129.149 239.385 128.89 236.593C128.807 235.657 129.215 235.06 129.199 234.61C129.19 234.279 127.922 234.747 128.731 232.773C128.957 232.222 129.365 231.799 129.732 231.386C129.632 232.525 132.118 232.699 131.735 231.606C131.418 230.688 130.366 228.943 129.891 227.777C128.857 225.196 128.431 223.286 127.789 220.88C127.063 218.152 126.496 217.574 125.37 215.59C125.245 215.379 123.76 211.255 123.71 211.007C123.509 209.979 123.81 208.564 123.701 207.462C126.212 207.269 127.43 209.795 128.273 212.164C128.623 211.87 128.515 210.713 128.431 210.272C127.338 204.56 123.343 197.498 121.541 191.758C121.032 190.132 120.84 188.167 120.039 186.541C122.125 185.825 123.418 186.101 125.128 187.643C126.629 188.993 129.257 194.733 130.25 195.284C130.55 195.45 131.101 195.073 131.468 195.183C132.127 195.376 132.502 196.037 133.194 195.936C133.428 194.899 132.819 194.293 132.61 193.484C132.152 191.739 131.334 189.618 129.908 188.029C128.681 186.652 127.046 185.954 125.795 184.842C125.495 184.576 123.977 183.244 123.893 183.125C123.685 182.813 121.933 178.818 121.916 178.561C122.517 175.787 127.08 178.524 127.522 178.423C129.007 178.083 127.188 176.485 126.971 176.072C126.521 175.209 126.521 174.318 125.662 173.335C124.552 172.068 122.325 171.434 122.959 169.019L120.248 169.037L119.739 169.634L120.022 171.572C118.104 172.435 118.296 170.929 117.47 169.763C114.233 165.171 114.517 160.349 112.239 155.032C112.139 154.793 111.555 154.729 111.422 154.481C111.18 154.04 111.614 153.535 111.505 153.278C111.464 153.186 110.204 152.938 111.505 151.891C113.14 150.577 116.636 154.297 117.47 155.95C118.087 157.153 119.097 161.571 119.313 161.745C119.439 161.846 120.031 161.387 120.39 161.552C120.965 161.819 121.282 163.26 122.208 163.031C122.008 161.819 122.417 160.487 122.392 159.376C122.342 157.135 120.648 151.027 119.939 148.805C118.588 144.525 116.627 140.457 116.36 135.7C119.072 134.138 120.281 137.463 121.874 138.841C122.608 139.474 123.901 139.539 124.577 140.714L125.878 139.731C124.894 137.619 124.252 135.103 123.176 133.064C121.949 130.759 120.189 128.656 118.704 126.966C116.969 125.001 115.484 121.639 119.288 122.631C119.781 122.76 123.952 124.771 124.485 125.147C125.62 125.937 127.163 129.482 128.748 128.362C129.657 127.719 127.78 121.4 127.213 120.445C126.646 119.49 124.327 117.69 123.776 116.79C123.693 116.652 124.06 116.138 124.018 116.074C123.885 115.863 120.84 113.732 120.331 113.346C116.26 110.26 110.629 107.248 105.533 107.083C104.782 107.055 104.273 107.294 103.581 107.487C104.081 108.066 104.331 109.259 104.665 109.728C106.091 111.739 109.286 114.595 110.162 116.349C110.755 117.543 111.839 119.536 110.713 120.73C108.903 122.649 107.209 118.921 106.117 117.966C104.824 116.845 101.887 114.761 101.912 117.947C101.937 120.886 103.848 121.529 105.232 122.842C105.774 123.357 106.016 124.321 106.392 124.587C106.876 124.936 107.61 124.679 107.968 125.294C108.436 126.103 108.552 128.252 108.903 129.225C109.336 130.447 110.888 133.119 111.18 134.249C111.339 134.855 111.597 141.88 111.43 142.468C111.339 142.79 110.546 144.094 110.287 144.186C108.461 144.828 107.977 140.347 107.743 139.089C107.601 138.308 107.985 137.582 107.777 136.976C107.109 135.048 105.374 134.019 104.44 132.522C100.853 126.782 102.196 126.571 95.8143 123.669C95.5139 123.531 95.0385 121.832 93.6704 123.898C92.5359 125.607 96.223 129.859 96.9321 131.246C97.7579 132.844 99.0426 135.36 99.7016 136.985C99.9185 137.509 101.687 142.413 101.67 142.725C101.645 143.074 100.903 143.432 100.753 144.066C100.669 144.415 100.961 145.012 100.844 145.508C100.277 147.887 100.11 151.092 97.5327 148.934C96.9905 147.078 97.9998 145.545 97.2657 143.69C96.248 141.091 94.8633 137.628 93.6454 135.094C93.2283 134.221 90.4337 128.353 89.7163 131.246C89.6996 133.872 91.2929 137.389 91.4347 139.832C91.4848 140.705 91.0594 141.485 91.1094 142.303C91.1595 143.221 91.8769 143.864 91.8101 144.351C91.7017 145.251 90.1501 147.207 90.7757 148.924C88.9655 149.916 87.5391 146.215 87.3138 144.7C87.0886 143.139 87.5641 143.763 86.8717 141.945C86.6131 141.256 86.2127 139.18 86.0542 138.841C85.6288 137.922 82.8843 134.579 82.267 136.223C81.5996 138.014 85.1867 145.26 82.1836 147.198C80.5819 144.599 79.656 142.064 80.5652 138.877C81.0908 135.378 71.0054 127.14 71.0388 125.68C71.0388 125.368 71.3975 123.752 71.6144 123.678C74.2421 123.467 75.4934 125.579 77.2785 126.874C79.9646 128.812 80.365 128.692 82.609 131.539C82.951 131.98 82.8926 133.257 84.0104 133.523C85.3285 131.879 85.2617 130.667 84.511 128.757C83.6935 126.681 81.633 123.816 80.3901 121.722C79.7644 120.666 78.5382 120.803 79.072 118.581L86.2211 120.702C87.3973 120.758 87.9812 119.959 87.0302 118.866C85.7873 117.442 78.6883 113.346 81.4411 110.444C83.2764 108.506 85.2451 111.62 87.1136 110.444C87.2221 108.13 84.878 108.139 83.9354 107.322C83.4933 106.936 81.9917 104.263 82.1335 103.602C82.7842 100.663 85.2951 102.023 86.9134 101.912C88.1647 101.83 89.1324 101.022 90.3169 100.911L94.9384 94.1704C95.2136 93.1785 94.905 91.5622 95.1469 90.6805C95.2971 90.1295 96.198 90.1019 96.2313 89.7346C96.2313 89.6519 95.7058 88.8805 95.6057 88.3294C95.0551 85.2712 94.7548 82.2222 94.3294 79.1456C94.0291 76.9782 94.0207 75.72 93.7705 73.8282C93.4452 71.3853 93.27 69.7597 91.0177 68.4832C90.7591 68.3362 87.1637 67.2617 86.9551 67.2801C86.7299 67.2985 86.7883 68.0332 86.513 68.125C85.9207 68.3271 84.5443 67.9505 83.3765 68.6026C80.5986 70.1638 78.6633 76.6568 78.0627 79.9997C77.8875 80.964 78.3379 84.2794 77.07 83.9488C75.802 83.6181 76.0606 81.0558 75.4183 79.8895C74.5174 78.2731 73.3578 78.2731 72.1649 77.2813V75.867L75.2598 74.5629C75.4767 70.5679 69.3871 73.1026 68.653 71.1557C67.9189 69.2087 70.2296 68.8046 71.3808 69.4199C72.3651 65.1954 70.7969 63.827 68.2442 67.2617C64.7823 66.077 68.1358 61.5953 67.3266 60.0983C65.5164 58.6565 65.3913 60.7504 64.9492 60.8881C64.6572 60.98 63.5728 60.3739 63.2141 60.5116C62.505 60.7871 63.0806 61.5126 62.7886 61.7698C62.5717 61.9535 59.7939 63.0372 59.602 62.9912L58.7678 61.7239L60.6948 56.8197C60.5697 55.8554 58.0588 55.3136 57.3247 56.186C56.7991 56.8197 56.9827 57.9585 56.674 58.6289C56.6156 58.7575 55.0056 60.7596 54.8888 60.8147C54.7053 60.8973 52.9785 60.5024 52.8451 60.383C52.6782 60.2361 52.0609 57.6463 52.0776 57.2422C52.1193 56.3146 53.4373 54.937 53.137 53.6329C51.9858 54.5237 51.2935 53.4401 50.7512 53.4033C50.209 53.3666 47.1976 55.984 47.0224 56.3146C46.7138 56.9024 46.9557 58.8126 45.7044 58.6932C43.1184 58.4361 45.6377 54.2574 43.8108 52.7972C43.3687 53.6972 42.4677 53.1186 41.9756 53.587C41.6002 53.9452 38.889 57.9401 38.6304 58.4636C38.205 59.3085 38.7556 61.0351 36.937 60.4014C35.644 59.9514 35.5439 56.4707 35.5773 55.1483C35.6107 53.9084 36.253 52.4758 35.9527 51.0706H36.0278ZM141.428 137.16C142.287 136.232 142.754 135.948 142.304 134.249C142.162 133.725 139.86 131.778 139.434 131.604C137.908 130.979 134.462 133.082 135.48 135.608C136.773 135.433 137.265 137.187 137.991 137.573C138.391 137.784 140.744 137.803 141.086 137.693C141.319 137.619 141.278 137.307 141.428 137.151V137.16ZM167.513 133.22C167.354 133.119 164.193 132.88 163.868 132.908C163.459 132.954 161.282 133.771 160.94 133.982C160.431 134.304 160.331 135.011 159.93 135.488C159.413 136.104 158.545 135.801 158.812 136.939C160.014 136.995 160.547 138.253 161.582 138.657C162.741 139.116 165.194 138.914 166.612 139.594C167.154 139.851 167.113 140.686 167.48 140.797C168.114 140.99 169.081 140.668 169.782 140.788C169.699 138.776 170.266 138.005 169.465 135.837C169.373 135.589 167.646 133.303 167.521 133.22H167.513ZM153.607 141.366C152.99 141.026 150.404 140.797 149.595 140.898C148.318 141.063 148.302 142.165 147.142 142.092C146.875 146.876 156.752 147.115 154.8 141.651C153.532 142.633 153.791 141.467 153.607 141.366ZM50.3341 161.681C50.1006 161.515 48.7992 156.859 47.1726 156.611C46.7555 158.016 45.6293 157.814 44.9786 158.751C44.1945 159.872 45.1038 163.214 45.1538 164.95C45.2456 168.385 45.2456 171.452 45.4958 174.768C45.6377 176.733 46.7138 177.909 48.2654 178.405L49.0412 177.1L50.6094 177.596C50.8347 177.89 50.9097 184.328 51.0349 185.43C51.135 186.293 52.0359 186.817 51.4186 188.158L53.2038 189.085C53.8294 187.855 53.5792 184.971 54.405 184.08C54.7053 183.759 56.065 183.419 56.4905 183.722C57.992 184.806 57.1078 189.306 57.2329 191.427C57.283 192.355 57.5499 194.201 57.7751 195.073C57.9169 195.624 57.8419 196.102 58.5009 195.918C59.8773 195.055 59.5937 187.239 60.2193 186.183C60.7615 185.274 62.2881 186.257 62.6301 187.267C63.481 189.838 64.0816 193.677 65.1494 196.24C65.433 196.919 66.1004 196.864 66.2922 197.479C67.0931 200.051 65.0243 205.616 68.5445 205.304L69.6206 199.16C72.7405 197.994 72.1149 203.936 72.4402 206.204C72.7322 208.261 74.0002 213.404 73.6748 215.278C73.6164 215.627 73.0992 215.544 73.0408 215.783C72.4903 217.886 72.2317 219.337 70.922 221.119C68.2943 220.687 69.6373 217.28 69.6123 214.91C69.604 213.689 69.2619 212.513 69.287 211.292C66.7844 212.495 67.2599 210.07 65.458 209.161C64.2401 210.162 64.774 211.843 64.4487 213.119C64.1734 214.203 62.9638 215.177 63.4393 216.848L66.1588 215.985C66.4174 216.003 66.5842 216.839 66.5675 217.078C66.4507 218.767 64.9492 221.614 64.9992 223.993C65.0409 225.968 65.5581 227.501 64.9992 229.999C64.5404 232.011 63.2057 233.002 63.1056 233.361C62.7636 234.61 63.6812 236.685 64.8824 236.924C65.2245 234.656 67.3099 235.445 67.4351 237.594C67.6937 241.984 64.8741 243.849 64.6739 247.173C64.6072 248.257 65.1244 248.597 65.1577 249.212C65.2745 251.095 64.2318 254.548 62.7469 255.356L64.5154 260.168L61.6374 269.655C61.3455 271.115 63.3976 269.462 63.798 270.041C63.4893 274.725 61.2203 278.802 60.87 283.495L62.6885 282.641C63.2641 284.671 62.4883 286.287 61.6958 288.078C59.7605 292.477 59.3267 294.406 57.9169 298.979C57.7751 299.429 56.699 299.383 57.2663 301.606C57.4832 302.451 58.1672 301.872 58.2506 301.955C59.4936 303.24 57.5165 305.399 57.0577 306.583C56.4571 308.145 55.8982 309.449 55.2976 310.973C54.9389 311.873 55.3143 313.389 54.9556 314.371C54.8221 314.729 52.2194 316.869 51.5938 317.714C50.818 318.77 49.0829 321.388 49.8837 322.6C51.2768 324.731 53.3122 323.27 54.8471 321.929C57.2663 319.826 55.8315 319.707 56.1818 317.549C56.357 316.474 58.0254 314.665 57.9753 313.609L57.2246 312.755C59.6854 311.598 59.7438 308.797 60.6865 306.133L62.3131 307.254L61.6124 313.389C63.0222 315.088 64.9408 306.831 65.2829 306.574L66.3756 306.749L66.6676 307.272L65.9335 314.408C64.2735 315.014 61.3622 320.24 62.7719 321.856C62.9638 322.076 66.7927 323.169 67.2265 323.105C69.3787 322.802 69.0284 320.359 69.4455 318.926C69.7208 317.962 71.5309 315.85 69.679 315.501L69.6457 314.683C71.4475 314.408 70.6968 311.083 71.2974 309.559C71.6644 308.622 72.9074 308.539 73.1576 307.447C73.4246 306.271 72.7906 301.284 72.9741 301.045C75.6936 301.523 74.9178 295.71 75.143 295.462C75.3265 295.26 76.3275 295.903 76.8948 294.727C77.9792 292.477 74.6341 284.331 79.8812 286.902C80.4902 283.862 80.4985 280.685 79.4975 277.755C81.0074 276.883 80.7738 275.193 82.8092 275.799C82.9427 274.109 82.7925 269.756 83.243 268.406C83.4599 267.745 84.2107 267.616 84.5944 267.001C85.5287 265.495 84.9531 261.785 85.3618 259.874C85.4619 259.424 86.1209 259.461 86.3295 258.965C86.5964 258.331 86.4797 254.924 86.8133 253.354C87.9562 248.073 89.2659 251.306 90.417 250.516C91.4347 249.818 91.4014 247.458 91.6433 246.585C91.8101 245.979 92.5859 246.043 92.686 245.593C93.3617 242.535 92.0187 240.102 91.6099 237.521C91.318 235.693 91.2012 225.086 90.734 224.618C90.5588 224.443 90.0416 224.673 89.7247 224.241C89.4911 223.929 86.8217 217.427 86.6465 216.784C85.9708 214.368 87.4807 210.667 83.5683 212.1L79.6977 197.149L79.2973 196.809C74.9845 198.242 74.7676 191.041 73.2911 187.772L70.7468 189.737C68.8615 190.463 68.386 186.698 67.0764 185.779C67.8021 183.667 66.8261 184.043 66.7343 183.639C66.5759 182.96 66.4758 179.406 66.359 179.24C65.2995 179.341 65.4497 180.241 64.2401 179.828C63.8063 179.681 62.0879 177.945 61.8126 177.514C60.5864 175.576 58.5509 169.368 58.7094 167.118C58.7678 166.282 59.6604 163.113 59.4102 162.572C58.8679 162.838 56.307 163.012 56.1068 163.224C55.0807 164.298 55.6646 166.41 52.4697 165.556C53.0286 165.024 51.8857 161.993 51.6855 161.791C51.4103 161.515 50.6511 161.892 50.3341 161.662V161.681ZM61.4706 197.277C60.8116 197.424 59.6604 201.612 59.5937 202.521C59.4936 203.926 60.0108 208.932 61.7793 208.766C62.8971 208.693 62.4049 207.591 62.6635 206.819C62.9221 206.048 63.4059 205.212 63.5728 204.496C63.9315 202.953 63.164 200.464 64.0399 198.664C63.9648 198.104 61.9127 197.176 61.4623 197.277H61.4706ZM32.6493 319.487C32.4991 319.349 29.1123 318.486 28.9205 318.522C28.1613 318.642 27.7609 319.496 27.2604 320.038C27.2604 320.827 32.3824 322.196 33.0914 320.469C32.7994 320.258 32.8328 319.661 32.6493 319.487ZM40.6742 325.061C39.8734 324.042 35.1352 323.959 34.1008 324.538C33.8005 324.703 33.7921 325.024 33.8172 325.364C32.666 324.005 31.3646 325.125 29.9215 325.19C28.7786 325.245 26.6765 324.997 25.7255 325.162C25.0331 325.282 25.0999 326.218 24.8162 326.246C22.2886 326.485 19.444 326.944 17.175 328.79C15.7736 329.929 15.9988 329.671 14.3722 330.636C14.1469 330.764 10.6266 334.172 10.5432 334.447C10.0844 335.861 11.002 336.715 12.0781 337.12C14.1219 337.882 14.539 335.76 15.9655 334.612C23.9153 328.193 28.5284 328.349 37.6461 327.844C38.7806 327.78 39.9985 327.578 41.1414 327.513C41.2581 327.32 40.8744 325.328 40.6742 325.07V325.061ZM34.91 332.665C33.9423 332.822 33.4585 331.683 32.7411 331.499C32.0237 331.315 30.8641 332.225 29.9966 332.215C29.2792 332.215 28.6285 331.674 27.8277 331.775C23.7568 332.289 18.6349 336.201 16.2241 339.82L15.5734 339.471L14.8643 342.152L15.9404 343.144C17.492 341.711 18.8851 340.343 20.6536 339.232C22.8559 337.845 24.4158 337.423 26.6932 336.872C29.4877 336.201 32.0403 333.933 34.9266 333.914L34.9016 332.665H34.91ZM179.167 332.757C178.8 332.583 171.826 333.069 171.217 333.253C169.298 333.813 170.124 334.64 169.757 335.191C169.715 335.255 169.09 334.805 168.397 335.035C167.329 335.384 167.088 336.311 166.462 336.679C165.945 336.982 164.844 336.559 164.185 336.973C163.476 337.413 163.642 338.249 163.184 338.8C162.099 340.104 160.839 340.049 161.398 342.859C163.2 343.429 165.152 343.126 166.862 342.244C168.381 341.464 167.88 340.628 168.522 339.489C169.699 337.413 172.243 338.809 173.886 338.148C175.029 337.689 176.389 337.12 177.757 336.605C178.141 336.458 180.651 335.329 180.752 335.191C180.827 335.081 180.81 334.107 180.576 333.896C179.917 333.979 179.25 332.794 179.175 332.757H179.167ZM273.981 339.856C273.847 339.737 273.847 338.938 273.105 338.516C272.913 338.405 269.201 337.551 268.984 337.533C268.492 337.487 267.774 338.139 267.132 338.167C265.539 338.249 263.837 337.891 262.386 338.589L262.052 337.772C259.649 338.938 254.519 340.72 253.084 343.631C252.742 344.329 252.692 345.109 252.734 345.881C254.986 346.12 256.521 343.695 258.507 342.593C262.477 340.371 266.865 340.986 271.178 341.307C272.246 341.39 278.21 342.584 278.677 342.042C278.636 341.28 276.934 339.37 276.508 339.232C275.691 338.956 274.098 339.957 273.981 339.856ZM73.2994 339.902C72.8073 338.222 71.9314 339.177 71.0388 338.966C67.5685 338.148 60.236 338.277 57.1245 340.343C56.7241 340.609 56.4821 341.418 55.4894 341.932C54.4968 342.446 53.404 342.419 52.4864 343.126C51.8691 343.603 49.4332 347.121 49.55 347.8L50.4676 348.452C50.8347 348.103 50.9264 347.506 51.2935 347.167C53.796 344.871 57.625 345.293 60.4529 343.034L73.3078 339.902H73.2994ZM72.5737 344.182C70.9136 342.988 70.2713 344.035 69.0784 344.145C65.6499 344.448 63.0305 344.632 60.0024 345.954C58.8429 346.46 57.2913 346.561 56.4988 346.974C54.8555 347.819 51.7272 352.613 51.3936 354.67C51.2351 355.653 51.452 356.837 51.3769 357.857C53.5958 358.224 53.2288 356.984 53.9128 356.038C58.8012 349.27 63.8564 347.8 70.9637 345.523L72.5653 344.191L72.5737 344.182ZM64.2902 355.432C67.2849 353.136 69.8542 353.375 73.0575 352.53C74.8927 352.043 79.4474 351.345 78.7384 348.324C78.1377 345.78 73.825 348.324 72.5653 348.645C71.2223 348.985 69.4288 348.342 68.1942 349.876C65.9335 349.316 64.4904 351.86 62.6134 352.438C61.9294 352.649 61.3121 352.236 61.2704 352.3C61.187 352.429 61.2871 353.145 61.0285 353.522C60.3528 354.477 58.5426 355.643 58.3924 356.856C58.9013 358.059 58.1589 363.339 59.602 362.963C59.7438 362.412 61.1286 361.264 61.1703 361.144C61.7709 359.602 61.6875 359.831 62.5133 358.233C63.114 357.076 62.7553 356.598 64.2902 355.423V355.432Z" fill="black"/>
<path d="M118.404 231.193C119.238 232.167 120.781 233.388 121.323 234.408C121.557 234.848 123.275 240.717 123.284 241.066C123.3 241.773 122.75 242.296 122.758 242.691C122.775 243.16 123.659 243.839 123.626 244.409C123.592 245.006 122.274 245.41 123.626 245.557L123.342 248.872C120.306 249.212 120.047 243.95 119.163 241.626C118.979 241.13 116.51 234.949 115.684 236.079C116.06 238.09 114.683 240.304 115.008 242.168C115.334 244.032 117.444 244.868 117.144 247.182L117.87 246.751C117.428 248.238 118.379 248.349 118.57 248.799C119.722 251.535 120.981 257.964 120.981 261.068C120.981 262.464 120.105 264.227 120.089 265.789L117.136 265.982C117.736 269.618 118.128 272.934 117.87 276.662C116.76 276.929 114.883 276.194 114.399 274.945C113.874 273.586 114.975 272.025 113.832 269.756C113.532 269.159 112.322 268.351 112.156 267.984C111.196 265.862 109.836 261.298 109.828 258.919C109.828 257.707 110.354 256.541 110.212 255.301C112.84 254.823 112.105 257.854 112.798 259.672C113.031 260.278 114.983 261.886 115.467 262.611C116.051 263.484 116.226 265.228 117.161 265.348L116.06 261.077L116.785 260.618C116.618 258.625 116.326 256.458 115.851 254.924C115.217 252.895 114.324 253.923 113.924 253.547C113.707 253.345 112.406 248.431 112.156 247.614C111.413 245.143 110.863 245.603 111.697 242.407C111.805 241.975 112.514 242.14 112.573 240.588C112.681 237.585 111.813 237.631 111.154 235.712C110.796 234.665 110.17 230.229 110.187 229.035C110.204 227.841 110.47 223.24 111.48 223.258C113.14 223.543 113.273 225.334 114.032 226.28C115.409 228.006 116.977 229.54 118.404 231.202V231.193Z" fill="black"/>
<path d="M111.454 197.03C114.107 199.84 117.627 203.174 118.887 207.334C119.629 209.777 118.745 214.231 119.237 216.757C119.738 219.337 121.481 222.919 121.856 225.646C122.057 227.07 121.631 230.44 120.196 230.881C118.294 231.469 119.279 227.878 118.878 226.776C118.728 226.372 114.707 220.467 114.24 219.989C113.256 218.988 113.957 219.998 112.78 218.336C112.338 217.702 110.787 215.939 110.62 217.473C110.503 218.557 111.521 220.265 109.652 221.541C109.293 220.696 107.508 219.769 107.358 219.154C107.275 218.814 107.608 218.162 107.475 217.684C107.216 216.711 106.657 215.958 106.432 215.058C106.107 213.763 104.872 207.27 105.439 206.599C106.182 206.553 106.816 206.48 107.475 206.994C108.351 207.674 109.802 210.741 110.411 211.283C110.862 211.687 114.274 213.175 114.924 213.671C115.266 213.928 115.408 214.562 115.675 214.938L116.409 214.497C116.468 214.176 115.283 210.677 115.024 210.144C114.799 209.685 112.622 206.177 112.405 205.947C111.604 205.102 110.253 205.268 109.911 204.799C109.569 204.331 108.968 200.676 108.659 199.647C108.317 198.517 105.848 194.348 107.867 193.88C109.452 193.512 110.595 196.148 111.437 197.048L111.454 197.03Z" fill="black"/>
<path d="M91.451 73.4432C91.818 73.9299 92.5855 75.5003 92.5354 76.0697C92.4687 76.8136 91.451 78.6779 90.6752 78.43C90.5 78.3749 90.6835 77.6677 89.9578 77.53C85.8202 76.7493 90.2831 80.1382 90.8253 80.827C90.9254 80.9555 92.3269 83.5454 92.3686 83.7107C92.8774 85.5015 93.1944 88.9547 92.8357 90.8006C92.7189 91.3884 90.6835 95.8885 90.4499 96.1272C88.5897 98.0834 82.7503 99.2406 82.8254 94.915C82.8588 92.6649 84.7107 94.0701 85.5199 91.6547C86.4375 88.9179 84.2185 88.9822 83.9516 88.174C83.8265 87.7975 84.2018 87.4393 84.2102 87.1914C84.2185 86.9158 83.6263 87.0444 83.5512 86.6863C83.4094 85.9975 83.5011 83.5913 83.109 83.2148C82.6669 82.8015 81.3322 83.5178 80.7817 81.4423C80.1226 78.9443 81.082 77.3004 82.5001 75.6932C83.3593 74.7197 82.9756 75.1146 83.5178 74.3799C85.4448 71.7441 89.4155 70.7707 91.4593 73.4615L91.451 73.4432Z" fill="black"/>
<path d="M112.647 166.576C113.573 167.623 114.149 169.607 114.716 170.571C116.96 174.364 117.252 174.07 118.478 178.864C118.695 179.7 119.396 180.324 119.521 181.316C119.696 182.721 119.412 185.421 117.752 184.806C117.302 183.731 116.493 183.217 115.675 184.227C115.258 186.229 116.167 187.111 116.401 188.461C116.518 189.131 116.334 189.894 116.443 190.555C116.659 191.896 119.104 199.105 115.592 196.763C112.956 195.009 111.854 188.975 110.595 186.358C110.361 185.862 109.686 186.229 109.535 186.036C109.402 185.862 108.484 182.877 108.026 182.014C107.25 180.535 104.272 177.477 107.834 177.505C109.877 177.523 110.495 179.139 110.837 179.24C113.473 180.021 112.28 177.257 112.714 175.457C110.453 174.759 110.795 171.801 110.37 170.231C110.069 169.111 108.985 167.816 109.085 166.273C110.194 165.152 111.654 165.465 112.639 166.576H112.647Z" fill="black"/>
<path d="M111.746 278.702C111.888 278.931 112.455 278.904 112.689 279.528C113.849 282.605 114.157 288.813 113.665 292.11C113.381 294.02 111.922 293.938 111.721 294.902C111.596 295.499 112.088 296.785 112.055 297.795C112.03 298.382 111.071 302.515 110.904 302.681C109.202 304.315 107.784 297.969 107.308 296.941C106.658 295.526 104.806 293.708 104.264 292.367C103.213 289.759 102.637 286.535 104.355 284.12C104.731 283.78 105.09 283.881 105.473 284.12C106.341 284.662 107.542 290.852 109.119 291.834C110.312 292.477 109.502 287.775 109.486 287.132C109.452 285.819 110.011 284.91 109.778 283.394C109.436 281.135 107.167 278.444 106.708 276.02C107.55 274.247 105.999 270.05 108.86 271.198C109.711 271.538 111.279 274.707 111.58 275.726C111.846 276.635 111.68 278.582 111.755 278.702H111.746Z" fill="black"/>
<path d="M84.5437 155.436C84.844 155.601 88.3727 160.634 88.7981 161.341C90.7501 164.565 92.1015 167.733 91.7678 171.793C91.6594 173.06 90.283 174.043 91.2089 175.833C88.6563 176.541 88.4561 170.984 86.9462 169.928C85.4363 168.872 83.793 168.615 82.9337 170.672C82.5417 170.81 81.7492 170.507 81.4405 170.167C81.2403 169.947 78.8546 165.29 78.6043 164.693C78.5626 164.592 78.012 162.976 77.987 162.866C77.7951 162.003 77.1111 158.099 77.6867 157.659C81.3655 156.887 80.9567 160.395 83.5344 161.305L81.3488 155.326C82.258 155.5 83.7846 155.005 84.5521 155.436H84.5437Z" fill="black"/>
<path d="M48.3314 88.8161C48.7318 89.1835 49.2574 90.3958 49.8997 91.0386C50.8423 91.9754 52.4273 91.8009 52.1103 93.9315C51.9935 94.7213 49.858 95.5112 49.566 95.7591C48.4649 96.7234 47.4472 98.45 45.8956 98.7439C44.4524 99.0102 42.6005 97.7704 41.1157 97.4306C40.5901 96.852 41.1657 95.9979 40.8988 95.1805C40.6735 94.4826 39.2888 94.6295 40.4066 92.5172L37.6871 94.0509L33.8332 93.5734C33.5996 91.4795 37.3618 89.5784 38.5547 88.3478C39.1219 87.7692 39.3972 86.6028 39.5641 86.511C41.3909 85.3906 46.7464 87.3743 48.3314 88.8161Z" fill="black"/>
<path d="M69.0203 152.653C69.087 152.791 69.6626 152.773 69.646 152.956C69.6293 153.223 69.087 154.095 69.0036 154.784C68.8284 156.217 68.4697 162.462 66.0005 160.671C65.2081 160.101 65.3332 158.825 65.1413 158.411C65.0662 158.255 64.524 158.173 64.2571 157.594C63.9901 157.016 64.157 155.913 63.6314 155.307C63.1059 154.701 60.9954 154.83 63.0642 153.856C62.4135 152.589 62.3051 150.954 61.9547 149.668C61.8546 149.301 61.3624 149.356 61.279 149.016C60.9203 147.556 60.3197 142.928 60.6283 141.559C60.8953 140.374 62.0465 139.217 61.9881 137.803C63.5397 137.601 64.2738 139.649 64.8994 141.008C65.8754 143.102 68.086 147.804 68.7367 149.779C69.062 150.771 68.9285 152.47 69.0203 152.653Z" fill="black"/>
<path d="M75.4935 85.6754C75.7521 85.9509 75.2766 90.3867 75.0597 90.9194C74.7093 91.7735 73.8668 91.801 73.4998 92.5266C72.6489 94.2072 73.4581 94.6389 71.3726 96.0348C68.6448 97.8624 65.283 98.891 62.4718 100.517C61.0119 99.7543 56.2153 99.8369 57.0412 97.2379C58.1089 93.895 62.0964 96.5766 64.5155 94.8133C64.7658 94.6297 64.8242 93.996 64.991 93.8674C65.1662 93.7297 67.5937 93.1878 68.8533 92.1959C70.9471 90.5337 71.6645 87.1908 74.1504 86.006C74.6009 85.7948 75.0013 85.556 75.5102 85.6662L75.4935 85.6754Z" fill="black"/>
<path d="M72.2059 80.551C72.5563 83.7103 71.6554 86.2175 70.3791 88.8808L61.6701 91.8563C60.5356 91.7369 55.3636 91.1951 55.055 90.1206C54.8631 89.441 55.4304 87.9256 55.8808 87.5307C58.0664 85.6021 64.1393 88.1185 67.2091 86.0338C68.6606 85.0511 68.0183 81.2765 70.7461 82.2592L70.3791 80.9827L72.2059 80.551Z" fill="black"/>
<path d="M72.3309 147.06C71.8721 146.408 68.2767 139.419 68.0014 138.629C67.8346 138.17 68.0432 137.803 68.1766 137.399L66.7335 136.738C68.1516 135.268 66.7418 134.671 66.7168 133.753C66.7168 133.633 67.7262 133.119 67.7345 131.962C67.7345 131.328 67.3591 131.2 67.3007 130.961C66.6751 128.536 69.9117 130.887 70.5874 131.797C74.1244 136.563 73.5238 139.548 74.5415 145.196C74.6416 145.747 75.1922 146.188 75.1588 146.987C75.0754 148.713 73.04 148.07 72.3309 147.069V147.06Z" fill="black"/>
<path d="M76.4698 105.053C76.5449 105.154 77.5793 107.22 77.6126 107.349C78.5803 111.124 74.5428 112.914 73.2748 111.124C73.0162 110.756 73.0663 109.994 72.8411 109.728C72.0486 108.809 70.5304 107.321 69.4876 106.173C68.0278 104.566 65.7671 103.712 65.2666 101.067C68.6284 100.434 74.1924 101.903 76.4698 105.053Z" fill="black"/>
<path d="M106.184 324.088C105.058 325.19 104.682 322.242 104.382 321.728C103.656 320.488 101.946 319.193 101.079 317.898C99.2351 315.152 97.9421 312.112 99.844 309.109C102.347 306.951 104.365 314.197 105.975 315.593C106.609 317.062 107.085 323.206 106.184 324.097V324.088Z" fill="black"/>
<path d="M106.359 300.871C106.785 302.221 106.618 302.745 106.827 304.361C107.035 305.978 107.419 307.364 107.677 308.889C104.941 310.992 103.715 306.4 102.639 304.132C102.422 303.672 102.013 303.581 101.855 303.222C100.812 300.844 101.062 298.043 101.479 295.499C104.624 294.489 105.475 298.07 106.359 300.862V300.871Z" fill="black"/>
<path d="M34.1341 106.128C34.1174 106.183 33.5585 106.146 33.3416 106.734C32.8744 108.001 32.9161 109.985 32.3989 111.647C31.9401 113.107 32.4156 114.705 30.7306 114.779C29.0455 114.852 28.4115 114.237 28.595 112.253C28.8203 109.939 30.3218 102.923 31.2478 101.27C32.1737 99.6164 33.5668 98.9828 34.059 101.352C34.109 101.591 34.2008 105.907 34.1257 106.137L34.1341 106.128Z" fill="black"/>
<path d="M29.4464 132.256L27.3443 131.723C26.5935 130.584 27.0857 129.041 26.8855 127.857C26.7937 127.306 24.2661 126.176 25.6342 124.156C26.1013 123.467 26.8771 123.577 27.1774 123.155C27.4193 122.824 27.0022 121.575 28.6122 121.694C29.0293 121.722 30.7561 122.916 31.1065 123.274C33.3671 125.653 29.1878 129.51 29.4548 132.256H29.4464Z" fill="black"/>
<path d="M96.4404 157.328C96.5822 157.585 97.1078 157.677 97.333 158.182C98.1338 159.964 100.278 165.199 97.2245 165.575C95.1474 165.832 95.6646 163.922 95.2058 162.389C94.7053 160.745 93.1704 156.235 94.113 154.711C95.2642 152.856 96.3403 157.135 96.4404 157.319V157.328Z" fill="black"/>
<path d="M21.8806 123.578C22.3311 123.936 23.1652 123.982 23.257 124.413C23.0735 125.984 23.4656 127.995 23.2403 129.474C22.9484 131.31 20.1622 129.869 20.0037 129.621C19.8285 129.354 20.0787 128.555 19.8535 128.096C19.7701 127.931 19.2279 127.784 18.9693 127.214C18.3103 125.782 18.0683 123.44 19.5949 122.641C21.4552 121.667 21.3217 123.118 21.8889 123.568L21.8806 123.578Z" fill="black"/>
<path d="M76.8771 99.69C75.9762 101.499 71.8302 99.69 72.2056 97.89C73.6321 94.9787 78.3953 96.6318 76.8771 99.69Z" fill="black"/>
<path d="M77.4703 225.582C77.2284 225.802 77.412 226.62 76.4777 226.197C75.8937 225.931 75.7185 225.527 75.5934 224.847C75.5183 224.452 75.5183 217.087 75.5934 216.692C75.7019 216.159 76.3108 215.875 76.3776 215.59C76.5611 214.745 76.4526 213.266 76.9615 212.155C77.829 211.301 79.1054 214.01 79.1471 214.965C79.1888 215.921 78.5298 216.609 78.5548 217.059C78.5715 217.372 79.122 217.923 79.1721 218.749C79.3306 221.55 79.3806 223.828 77.4703 225.582Z" fill="black"/>
<path d="M81.9665 222.047C82.6255 221.835 83.2345 221.863 83.4681 222.689C84.2522 225.454 84.3106 231.8 82.0583 233.701C79.5224 235.85 80.1814 232.176 80.1647 230.753C80.1647 230.064 79.8227 229.366 79.8644 228.604C79.9645 226.942 80.3732 222.552 81.9582 222.037L81.9665 222.047Z" fill="black"/>
<path d="M243.579 123.715L242.569 125.414C238.315 126.387 234.411 128.518 230.407 130.263C228.538 131.08 229.664 130.86 228.421 131.879C228.113 132.127 226.044 132.513 225.31 132.981C224.784 133.312 223.358 135.663 222.807 133.689C222.282 131.788 223.224 132.017 223.466 131.521C224.334 129.721 226.228 126.461 227.521 125.239C228.463 124.349 230.223 124.422 230.974 122.87L231.516 123.715C231.366 122.521 232.417 122.907 232.884 122.558C233.46 122.135 233.869 121.171 234.811 120.987C235.929 120.767 237.623 122.099 238.682 122.393C240.267 122.843 241.952 122.466 243.579 123.715Z" fill="black"/>
<path d="M260.663 2.24034C260.755 2.17605 260.722 1.59747 261.005 1.524C264.517 0.532144 267.479 1.03725 270.832 2.33218C271.466 2.58014 271.858 3.3975 272.342 3.56281C273.585 3.97608 275.57 3.69138 277.264 4.21486C279.691 4.95875 281.293 6.83225 284.346 7.47512C285.355 7.68635 286.482 7.30981 287.541 7.58533C289.193 8.01697 293.03 12.1038 294.54 13.4997C294.882 13.812 295.04 14.7304 295.474 15.0059C295.683 15.1344 298.402 14.0967 300.187 15.0059C301.972 15.9151 301.655 16.5212 302.39 17.5498C302.807 18.1376 304.75 19.3039 305.643 20.5713C307.854 23.7213 307.887 25.2275 309.197 28.4051C309.514 29.1765 312.817 32.648 313.543 33.1348C316.262 34.9623 318.181 34.7787 319.983 38.8747C320.884 40.9227 320.45 42.0063 320.692 43.5217C320.733 43.788 321.05 43.7237 321.242 45.7534C321.801 51.6035 323.328 50.4096 325.046 54.4137C325.23 54.8362 326.114 56.7831 326.131 56.9209C326.239 57.6923 325.171 58.1148 325.163 58.5464C325.163 58.6842 325.889 59.7036 325.847 61.1271C325.789 63.2394 323.803 64.6537 325.08 67.317L326.139 66.9129C328.566 70.3109 328.633 73.9753 327.791 78.1907C327.59 79.2101 326.181 81.9193 326.172 82.4795C326.172 82.8285 327.832 86.5571 327.974 88.0725C328.066 89.0276 327.023 93.5828 326.531 94.345C326.214 94.841 325.722 94.5103 325.413 94.9236C325.038 95.4287 324.537 97.2563 324.02 97.9267C323.928 98.9737 326.189 99.8829 326.698 101.086C326.89 101.536 326.99 105.366 326.89 105.889C326.823 106.247 326.247 106.247 326.164 106.477C325.889 107.322 325.83 108.369 325.513 109.058C324.637 110.968 323.253 112.446 322.11 114.099C321.951 115.33 324.37 118.765 323.837 120.73C323.57 121.694 322.802 121.759 322.527 122.328C320.008 127.526 319.44 132.375 314.669 136.526C313.559 137.491 309.839 138.74 310.498 140.962C310.681 141.568 311.824 141.532 311.899 144.066C311.941 145.536 310.965 147.097 309.972 147.896C308.788 148.86 306.21 149.944 304.709 150.449C303.858 150.734 303.382 150.706 302.373 150.853C300.771 151.083 300.663 153.213 299.937 154.765C299.603 155.473 298.118 157.089 298.461 157.815C298.994 158.779 301.338 159.771 301.597 160.138C301.756 160.358 303.349 165.051 303.441 165.492C303.783 167.118 302.39 173.115 300.329 172.123L292.321 163.509L290.002 162.581L290.586 161.286L288.217 156.005C288.25 155.831 290.577 153.893 290.728 153.81C291.111 153.618 292.463 154.958 293.314 153.746C293.439 153.572 294.415 151.018 294.406 150.853C294.398 150.651 291.937 149.292 292.554 147.63C295.883 146.215 299.011 147.428 302.289 145.995L306.811 143.35C306.444 140.328 303.324 140.962 301.322 139.934C301.547 136.719 305.301 137.454 307.153 136.71C307.562 136.545 311.415 133.165 311.732 132.678C311.949 132.357 311.974 132.238 311.916 131.815C306.377 131.42 310.756 125.965 314.093 125.8L313.743 124.982L314.769 124.89C315.011 123.531 316.462 122.953 316.963 121.254C317.68 118.82 315.044 118.756 313.668 117.295C313.076 116.662 312.116 115.293 313.317 115.532L313.017 114.302C316.412 114.595 321.192 109.774 319.908 105.595C319.749 105.09 319.165 105.072 318.965 104.759C318.74 104.401 318.923 103.694 318.865 103.621C318.723 103.446 316.079 105.09 316.329 101.297C316.487 98.8543 317.889 98.4594 318.69 97.2196C319.399 96.1083 320.525 92.7103 320.575 91.3878C320.658 89.2296 319.632 87.8245 317.78 88.6694C317.021 86.3184 318.214 86.0888 318.815 84.9867C320.383 82.103 322.552 79.0172 321.426 75.4263L316.479 80.5601L310.84 85.1336L310.465 89.9552L312.658 89.7256C314.902 93.6195 310.439 93.2889 309.864 94.8042C309.413 95.9889 309.755 97.3114 309.297 98.6155C308.579 100.673 307.845 102.252 307.128 104.567C306.994 104.989 306.419 104.842 306.402 105.54C306.377 106.357 306.686 107.12 306.827 107.891C310.114 107.276 310.548 110.261 307.637 112.079C305.584 113.365 303.157 112.125 302.873 115.909C302.556 120.041 306.027 118.737 306.077 121.401C306.093 122.448 304.333 124.294 303.624 124.505C302.815 124.744 302.173 124.055 301.572 124.119C301.338 124.147 301.322 124.854 301.063 124.964C299.695 125.543 294.198 126.029 295.683 128.84C295.733 128.931 296.867 130.245 296.942 130.291C297.076 130.382 300.387 130.594 299.503 131.815C298.452 132.118 297.543 133.183 296.383 133.138C295.566 133.101 295.057 132.247 294.64 132.32C293.447 132.522 291.103 135.02 290.736 136.517C291.362 136.986 294.056 137.445 293.631 138.629C292.429 139.934 291.178 139.061 289.66 139.759C288.634 140.227 287.658 142.331 286.34 142.716L286.532 143.791L288.909 143.552C290.444 147.069 285.956 146.344 284.054 146.243C282.452 146.151 282.744 146.307 281.426 146.381C279.858 146.463 278.273 146.215 276.705 146.408L276.279 146.776C276.521 147.933 275.479 148.594 275.412 148.833C274.236 152.782 275.787 152.993 278.223 154.765C283.136 158.338 287.241 162.039 290.419 167.898C290.869 168.725 293.213 170.975 293.589 171.673C293.722 171.93 293.372 172.527 293.522 172.848C294.607 175.209 297.293 181.123 296.967 183.731C296.784 185.201 295.157 184.833 294.323 184.365C293.681 184.007 291.12 181.141 290.386 180.783C289.193 180.205 287.524 180.453 286.231 180.113C286.073 180.067 286.023 178.588 284.188 179.929C283.837 180.186 283.762 180.829 283.437 181.123C283.27 181.279 282.436 181.031 282.344 181.61C282.094 183.189 284.872 182.886 285.706 183.226C286.448 183.529 287.065 184.374 287.825 184.622C288.308 184.778 288.884 184.328 288.917 184.383C288.984 184.494 288.742 185.182 289.159 185.697C290.869 187.791 294.657 188.286 294.665 192.796C294.665 196.093 292.296 194.568 290.928 195.909C290.335 194.734 290.227 194.394 288.917 194.633L288.892 196.534C290.319 196.534 290.377 197.525 290.861 197.911C292.471 199.215 295.524 201.364 294.64 204.184C294.49 204.67 293.414 206.048 293.063 206.121C292.137 206.305 290.736 204.165 290.461 204.046C289.877 203.807 286.707 203.072 286.398 203.66C285.931 205.671 287.991 206.572 289.051 207.527C289.418 207.857 289.535 208.408 289.752 208.601C290.719 209.437 292.162 209.079 292.504 211.632C292.93 214.855 290.31 214.35 288.7 215.122C288.584 215.333 289.001 217.464 288.834 217.95C288.7 218.336 288.025 217.858 288.175 218.566C290.569 218.584 289.351 220.898 288.859 222.34C287.324 222.368 286.073 223.249 284.713 222.147L280.867 223.699C281.318 225.968 284.304 224.498 284.821 227.437C284.98 228.356 283.929 230.266 283.17 230.477C282.411 230.688 282.002 229.917 281.418 229.862C280.968 229.816 278.281 230.844 278.065 231.496C277.305 233.774 279.7 233.434 280.717 234.793C280.767 234.913 280.25 236.897 280.158 237.08C279.95 237.503 275.854 238.733 275.086 239.147C275.796 243.582 272.709 245.924 272.45 249.947C274.11 250.039 274.194 251.398 274.836 251.94C276.246 253.134 281.543 255.586 282.352 256.807C283.996 259.296 285.631 262.74 287.216 265.458C288.175 266.349 293.013 269.178 293.33 269.701C293.814 270.5 294.231 273.265 293.055 273.659C290.135 273.035 283.537 271.804 282.394 268.25C282.069 267.249 282.369 266.349 281.935 265.44C280.392 262.244 273.451 257.606 270.348 256.293C269.623 255.99 268.98 256.568 268.571 255.365L260.455 255.696C259.028 252.491 261.389 252.5 262.499 251.37C263.333 250.516 264.267 247.32 264.834 246.181C265.093 245.667 265.752 245.584 265.835 245.419C265.91 245.272 265.602 243.527 266.119 242.122C266.695 240.561 268.304 240.184 268.446 238.889C268.563 237.824 266.528 238.302 266.111 237.319C265.618 235.785 264.701 236.373 264.15 236.006C264.05 235.941 262.932 234.04 262.857 233.838C262.207 232.112 263.85 232.213 264.217 231.827C264.584 231.441 264.759 230.532 265.318 230.091C265.877 229.65 266.695 229.742 267.203 229.292C268.021 228.558 267.128 227.391 269.331 228.447L269.698 227.602C271.024 228.815 273.151 226.721 271.474 225.509C268.663 223.488 265.502 224.939 262.599 223.709C262.59 221.449 263.75 222.193 264.617 221.596C267.253 219.778 269.431 217.399 272.467 217.087C272.525 213.799 267.771 213.542 265.702 213.423C264.517 213.349 263.616 214.635 262.857 212.477C262.282 210.833 263.641 211.016 264.225 210.475C264.801 209.942 266.611 208.004 266.87 207.931C269.397 207.15 272.475 207.141 275.02 205.763C274.719 203.412 274.11 204.441 273.485 204.028C273.151 203.807 273.168 203.403 272.884 203.256C271.967 202.769 270.624 202.549 269.689 201.943L269.172 202.769C268.972 200.777 267.929 202.163 267.47 202.182C266.419 202.228 265.351 201.787 264.267 202.347L263.883 201.557L262.582 201.722C262.173 201.355 262.14 201.061 262.265 200.492C262.34 200.17 266.069 197.112 266.519 196.919C268.238 196.185 272.234 196.139 273.71 195.386C273.985 195.248 273.985 194.678 274.352 194.522C275.153 194.192 276.496 194.642 276.48 193.586C276.48 192.915 276.379 192.529 275.937 192.079C275.754 191.887 271.85 190.647 271.366 190.573C269.264 190.261 266.686 190.757 264.617 190.757C264.083 190.757 260.872 190.555 260.747 190.38C260.388 188.36 261.915 188.764 262.373 188.25C262.832 187.735 263.082 186.496 263.408 186.238C265.276 184.797 268.63 186.257 268.396 181.683C268.296 181.334 264.901 179.938 264.426 179.911C264.109 179.892 261.631 179.847 261.481 179.883C260.688 180.058 257.927 182.39 258.219 179.938C258.511 177.486 261.039 176.623 262.657 175.824C262.932 175.686 262.932 175.062 263.208 174.997C263.716 174.887 264.334 175.319 264.834 175.209C265.527 175.053 266.169 174.419 266.778 174.355C269.422 174.07 271.666 176.246 271.933 171.159C266.786 168.22 260.747 170.736 255.291 170.745L255.249 171.967C252.88 171.71 251.471 174.355 249.06 173.969C248.009 171.149 251.237 167.843 253.106 166.282C253.731 165.759 254.649 165.713 255.091 165.18C255.458 164.739 255.491 163.692 255.7 163.536C256.009 163.306 256.701 163.637 257.026 163.398C257.135 163.316 257.91 161.185 258.161 160.744C258.086 160.184 256.284 158.926 255.808 158.926C255.458 158.926 255.049 159.458 254.657 159.468C252.78 159.55 250.328 159.826 248.492 160.239C247.925 160.368 246.032 162.397 245.189 160.459C244.238 158.265 247.967 157.181 248.484 155.326C249.318 155.16 251.988 152.8 252.213 152.754C254.257 152.369 253.214 152.828 255.433 151.873C256.743 151.312 259.287 151.9 258.853 149.2C258.069 147.547 257.093 147.997 256.25 147.63C255.925 147.483 256.009 146.913 255.75 146.821C253.631 146.068 246.724 148.594 244.413 149.255L242.828 147.859C243.896 147.189 244.338 145.995 245.197 145.067C246.057 144.14 248.467 141.522 249.302 140.806C250.403 139.86 252.947 139.474 253.423 137.178C253.197 135.92 249.243 136.728 248.326 136.82C244.605 137.188 241.961 137.445 238.098 139.327C236.555 140.081 235.504 142.009 233.377 141.164C231.909 140.081 235.921 136.058 235.938 134.653C237.656 133.128 238.707 131.374 240.993 130.741C241.368 130.64 241.952 130.952 242.027 130.888C242.344 130.649 242.395 129.391 243.721 128.794C245.815 127.848 251.204 125.79 253.222 125.57C254.315 125.451 255.608 126.139 256.876 125.846C257.66 125.662 257.994 124.753 258.336 124.707C258.803 124.643 260.588 125.607 262.023 125.46C263.057 125.35 263.825 124.569 264.192 124.578C265.151 124.578 267.429 126.498 268.613 126.663C270.165 126.874 273.602 126.938 275.086 126.617C276.104 126.397 275.987 125.552 276.329 125.451C281.585 123.77 283.996 121.391 287.933 117.286C288.275 116.937 288.984 117.011 289.143 116.8C289.318 116.561 289.243 115.569 289.56 114.944C294.206 105.825 297.284 99.8645 298.636 88.798C300.112 76.7212 295.875 56.0301 289.585 46.3044C286.056 40.8584 281.802 37.0563 276.371 34.2919C272.334 32.2439 266.911 29.6541 262.382 29.2867C251.729 28.4235 238.582 32.8041 232.368 43.1451C230.249 46.6717 228.672 50.9422 227.446 55.0382C227.354 55.3413 226.82 55.3321 226.753 55.6719C226.62 56.3515 227.171 57.9862 227.087 58.5097C227.037 58.8128 226.528 58.8036 226.403 59.1158C226.111 59.8505 227.037 71.6059 227.546 73.0202C227.796 73.7181 227.98 73.3324 228.455 74.912C230.474 81.6438 233.335 88.4582 237.915 93.3624C240.701 96.3471 241.385 96.2828 244.689 97.4951C247.992 98.7074 251.696 100.709 255.333 98.092C256.15 97.5043 256.709 97.2563 257.26 96.8614C259.888 94.9787 261.239 91.8654 261.664 88.2653C262.081 84.7938 260.738 79.9448 257.76 78.6499C257.193 78.4019 256.784 78.6958 256.3 78.6131C255.925 78.5488 255.55 78.0437 255.058 78.0437C254.841 78.0437 251.053 79.4121 250.862 79.5407C250.336 79.8989 247.925 81.8826 247.325 82.4428C246.549 83.1683 244.255 86.9153 244.005 86.9704C240.551 87.7602 239.266 81.1387 239.158 78.1815C239.066 75.7753 239.959 73.1212 240.568 71.2569C241.911 67.1517 243.104 64.6904 244.972 61.2189C246.274 58.7944 251.979 56.8842 254.315 56.6454C262.081 55.8739 269.623 56.4525 275.403 63.0557C276.196 63.9649 280.976 70.3293 281.485 71.2569C281.551 71.3671 281.835 72.7079 282.185 73.6171C286.206 84.05 284.429 100.085 277.906 108.589C277.497 109.122 276.805 109.058 276.555 109.361C271.583 115.44 269.706 117.194 262.348 118.6C258.811 119.27 253.765 120.271 249.927 119.876C248.384 119.72 246.682 119.077 245.189 118.572L244.814 119.454C243.963 119.068 242.712 117.406 242.57 117.36C242.161 117.231 241.652 117.709 240.993 117.516C239.708 117.148 235.688 114.816 234.111 114.017C227.888 110.867 222.349 105.292 217.16 100.076C215.1 98.0094 213.406 96.4573 211.73 93.9134C211.321 93.2981 211.229 92.1868 210.645 91.4429C209.861 90.4511 207.667 89.8909 207.35 89.2113C206.324 87.0071 208.001 77.9151 207.35 77.1437C206.266 76.7764 206.941 78.0621 206.091 78.0437C203.413 77.9611 203.88 74.6182 204.072 72.2395C204.197 70.5956 205.298 67.767 205.181 66.6925C205.006 65.0027 203.388 66.0496 202.762 65.1955C202.695 65.1037 202.353 63.0281 202.345 62.9179C202.328 62.6241 203.121 57.527 203.221 57.178C203.463 56.3148 204.422 54.2208 204.873 52.678C205.115 51.8606 205.732 51.0065 205.882 50.4371C206.207 49.1606 204.23 50.3728 203.513 49.381C202.061 47.3973 204.28 42.2819 205.698 40.8216C207.008 39.4716 207.667 40.2706 208.618 37.3961C209.427 34.9532 208.618 35.9358 207.992 34.3011C207.584 33.245 208.251 30.4347 208.793 29.5439C209.002 29.2041 209.427 29.7643 209.711 29.3235C209.953 28.9469 209.961 28.2214 210.278 27.799C211.688 25.8887 213.164 25.9163 214.866 24.603L215.033 23.9785C214.04 22.2978 214.716 20.9203 215.884 19.6253C217.327 18.0182 220.297 17.0171 221.723 15.6579C222.057 15.3457 222.099 14.4824 222.491 13.9038C223.317 12.6915 227.579 10.717 228.906 10.2762C230.858 9.63333 233.969 9.8721 235.154 8.15473C235.396 7.80574 235.087 7.32818 235.346 7.07104C238.474 3.95771 245.439 1.1842 249.577 1.47808C249.735 1.48726 249.719 0.798475 250.011 0.71582C252.53 -0.00051877 254.774 -0.450527 257.168 0.71582C258.119 1.1842 259.512 2.99341 260.613 2.26789L260.663 2.24034ZM264.325 9.95476C261.481 11.9752 258.428 6.57511 256.517 6.32714C255.566 6.19857 254.474 7.22716 253.456 6.63939L253.823 7.91595L252.789 7.97105C251.854 14.5742 246.524 7.22716 243.262 8.39351C242.745 9.32107 243.362 11.1027 243.07 11.764C242.778 12.4252 241.902 12.4803 241.435 12.8936C240.493 13.7109 240.417 14.6477 238.507 14.5559C237.306 14.5008 235.746 13.7936 234.044 14.1426C232.501 14.464 231.608 15.1253 231.884 17.109L232.993 17.3294C234.128 18.6794 229.531 20.4978 228.705 20.6447C227.421 20.8743 225.936 20.4886 224.86 20.7641C224.368 20.8927 223.216 22.8213 222.749 23.1427L223.9 25.2367C223.967 25.5305 223.016 27.4867 222.891 27.6061C221.999 28.4786 219.379 28.6347 218.103 29.1673C217.702 29.3418 217.669 29.9204 217.561 29.9847C216.109 30.8664 214.432 31.1786 214.749 33.9705L217.219 34.9164L217.285 36.2573C216.985 37.2675 215.258 37.0195 215.091 37.1756C214.733 37.5155 214.749 38.3879 214.341 38.8838C213.54 39.8298 211.771 40.6563 211.096 41.5012C209.995 42.888 209.861 45.4411 209.611 47.2411C210.195 46.6717 213.34 47.2503 212.898 48.3065C212.714 48.7105 212.055 48.8024 211.913 49.0595C211.112 50.4738 210.87 51.9616 210.328 53.3668C209.894 54.4964 209.002 55.1117 208.71 55.8097C208.46 56.4066 208.852 57.8117 208.201 58.574C208.843 59.823 210.987 58.923 211.396 60.3465C211.805 61.7608 210.845 62.3394 210.729 63.2853C210.553 64.7088 210.286 68.2905 210.337 69.6681C210.445 72.6069 211.379 70.8252 212.522 71.8263C214.324 73.4059 212.138 76.3539 212.138 77.7958C212.138 78.6958 212.772 79.1917 212.898 79.954C213.048 80.8632 212.606 82.8652 213.256 83.3795L215.058 83.5081L215.675 81.8917C217.486 83.0122 216.985 81.1019 217.661 80.0274C217.978 79.5223 218.537 79.8529 218.787 79.4672C219.588 78.209 218.386 74.2783 218.703 72.5242L215.709 72.4232L214.858 70.963L218.019 65.8292C212.872 64.2496 215.867 60.4659 218.754 58.1423C216.793 56.5995 215.175 56.5444 216.376 53.2382C217.21 50.9422 219.988 50.2534 215.842 48.931C216.017 43.687 220.814 45.3768 223.5 46.8279C223.425 45.5789 224.276 44.339 224.268 43.1727C224.268 42.4013 223.617 42.64 223.533 42.2819C223.508 42.1625 223.517 39.9767 223.55 39.8665C223.75 39.0859 226.094 38.2961 226.787 37.6257L226.887 34.5491L228.989 34.0164C226.837 25.2918 236.864 32.2439 238.115 26.1367L237.047 25.4203C238.015 23.5193 235.22 24.1622 237.106 22.3346C240.05 21.8478 243.003 22.4172 245.798 22.904C245.957 21.1682 244.18 19.8733 244.88 18.211C244.897 17.2375 248.217 17.4488 248.367 17.5773C249.752 18.8172 250.87 22.4356 253.473 20.7458C253.698 20.3784 252.255 17.7059 254.532 17.1365C254.707 17.0906 257.752 17.5498 258.119 17.6692C258.544 17.8069 260.471 19.4417 261.239 19.9468C261.514 20.1304 261.573 20.4243 261.531 20.7641C263.133 19.9927 262.398 16.8794 264.584 17.3386C264.976 18.909 266.161 17.7978 266.928 18.3029C267.07 18.3947 267.137 19.01 267.404 19.2029C269.364 20.6539 271.191 22.1693 273.109 23.6754L273.935 23.7397C274.352 19.9468 277.773 21.9948 279.566 23.3907C280.609 24.2081 282.336 27.3581 283.353 27.5326C284.605 27.7347 285.022 26.1642 285.339 25.0714C285.864 25.1999 286.623 25.0346 287.074 25.2734C288.434 25.9897 290.661 29.1122 290.794 30.6551C291.854 32.3541 292.705 34.5399 294.231 36.1287C297.201 30.297 297.818 34.4572 299.528 37.9563C299.72 38.342 300.296 38.3879 300.546 39.0032C300.913 39.9032 300.679 41.3727 301.547 42.1257C302.556 40.5278 301.272 37.993 303.724 38.2777C306.494 38.5991 306.469 48.086 306.102 50.4371C305.977 51.2545 305.351 51.7137 305.234 52.3382C305.084 53.1188 304.558 56.3699 304.642 56.774L306.252 57.8852L308.846 55.378C309.313 55.8923 310.198 56.728 310.331 57.4536C310.389 57.7566 309.705 63.1751 309.614 63.5057C309.372 64.3414 308.613 64.7639 308.396 65.5078C307.87 67.317 309.489 69.9252 311.073 70.265L311.816 69.0068C315.345 69.7415 314.277 73.6447 312.333 75.8672C315.595 77.1988 315.862 74.5447 318.081 72.763C319.532 68.8048 320.45 61.2832 318.748 57.077C318.348 56.0944 317.563 55.479 317.305 54.5515C316.771 52.632 317.38 49.5555 314.711 48.5361C313.751 48.1687 314.852 49.8126 313.643 50.4922C312.992 50.8596 311.432 50.7126 311.04 49.8034C310.815 49.2891 311.441 44.4309 311.399 43.1911C311.332 40.8951 310.298 37.5706 309.18 35.7613C307.336 32.795 303.816 32.8684 303.466 27.5326C301.864 25.8612 301.789 22.6836 299.028 22.8672C299.028 26.0908 295.107 23.3723 294.098 22.2244C293.113 21.1039 292.112 17.862 290.953 16.4937C290.377 15.814 288.734 15.4283 288.217 14.1059L287.749 13.9956C286.281 14.2528 286.473 15.961 286.39 16.0712C286.306 16.1814 284.104 15.7589 283.987 15.7222C283.862 15.6763 281.944 14.2528 281.727 14.0783C279.816 12.517 278.473 9.4772 275.804 9.66088C275.67 12.5538 274.252 12.9028 272.175 11.9752C269.406 10.7262 268.33 6.85981 264.876 7.9986L264.384 9.99149L264.325 9.95476ZM264.868 69.3374C264.109 68.4374 263.424 66.5915 262.048 65.5904C259.312 63.5975 259.796 66.5456 258.578 67.0874C258.011 67.3354 256.918 66.5088 256.175 66.5272C254.465 66.5547 251.863 68.0242 251.078 69.8885C249.927 72.6069 252.955 71.8263 253.965 72.0283C255.675 72.3681 259.479 73.5253 261.122 74.361C265.034 76.3539 266.144 79.8529 267.746 84.05C267.871 84.3714 268.288 84.4081 268.405 84.7571C269.022 86.649 268.346 91.994 267.287 93.5368C266.669 94.4369 265.744 94.4185 265.51 94.9879C265.41 95.2359 265.168 99.9655 265.21 100.342C265.41 102.188 267.696 102.317 268.905 101.931C269.272 101.811 269.297 101.058 269.531 100.93C270.257 100.526 271.174 100.544 271.883 99.7543C272.325 99.2676 272.584 98.3033 273.034 97.6879C273.418 97.1645 274.069 96.9992 274.444 96.3471C275.395 94.7124 274.386 91.7736 274.895 90.0654C275.178 89.1286 276.046 89.4684 276.388 89C277.497 87.4847 277.122 84.803 276.471 83.1224C275.771 84.3071 273.493 84.1051 273.21 82.8469C273.068 82.2315 274.194 80.1652 274.186 79.1458C274.152 76.1335 272.659 71.1926 270.098 69.8793L268.838 72.1753L268.088 72.4324C267.987 70.8987 265.493 70.063 264.884 69.3374H264.868ZM249.377 104.971C247.642 103.722 246.44 105.347 244.697 105.356C244.355 107.919 244.664 109.498 247.049 109.645C249.694 109.801 249.493 107.432 249.377 104.971Z" fill="black"/>
</svg>
