<svg width="328" height="371" viewBox="0 0 328 371" fill="none" xmlns="http://www.w3.org/2000/svg">
<g clip-path="url(#clip0_19_2363)">
<path d="M243.852 250.658C249.796 255.366 255.463 256.699 262.313 259.349C263.236 259.703 265.032 260.902 265.628 261.053C266.11 261.18 266.436 260.328 267.253 260.48C267.882 260.598 269.229 261.821 269.955 262.108C274.544 263.948 274.332 263.323 277.769 267.306C279.059 268.8 280.537 269.289 280.733 271.913C280.79 272.715 280.496 277.364 280.349 278.09C280.292 278.377 279.182 280.25 278.921 280.587C278.561 281.043 275.377 283.591 275.034 283.718C274.046 284.081 273.115 283.195 272.282 284.781L271.335 283.583C270.535 284.241 269.931 284.536 268.861 284.427C268.143 284.351 268.347 283.583 268.078 283.566C266.51 283.439 267.049 284.106 264.836 283.136C263.219 282.427 263.603 282.182 262.615 281.009C261.733 279.98 259.023 278.63 258.231 277.457C256.688 275.153 255.202 274.014 253.544 271.812C253.136 271.272 252.817 270.715 252.785 270.006L251.658 270.411C251.878 268.226 249.87 267.973 249.127 267.078C247.224 264.783 246.114 261.712 244.685 259.222C243.632 257.391 239.084 251.215 240.325 249.291C241.346 247.705 243.24 250.152 243.885 250.658H243.852Z" fill="black"/>
<path d="M273.532 49.303C273.736 49.4802 276.487 53.5979 276.544 53.8679C277.026 56.1209 276.904 58.8885 276.642 61.1668L275.891 60.7617C276.275 63.9091 274.928 68.1028 271.352 68.3728C272.258 70.1954 269.694 70.5245 269.016 72.1277C268.616 73.0727 269.147 74.3468 267.824 75.4185C267.138 75.9754 266.15 75.7644 265.448 76.3129C263.823 77.5786 262.264 81.7385 261.39 82.2195C260.958 82.4557 260.321 82.1941 260.043 82.3882C259.921 82.4726 258.933 84.7087 258.557 85.0968C257.798 85.8984 256.973 86.0419 256.344 86.6916C254.752 88.337 253.74 90.4633 251.78 91.8556C250.613 92.6825 249.788 91.8978 249.837 90.5815C249.862 89.9064 251.429 83.5442 251.748 82.6414C252.107 81.6288 253.536 80.0172 253.805 79.3168C254.711 76.9036 255.585 70.9632 256.14 68.1028C256.834 64.5251 256.116 60.458 258.059 57.3359L257.324 56.5681C257.635 56.1546 258.231 56.1884 258.451 55.6568C259.096 54.0704 259.741 50.9062 259.978 49.1764L261.864 49.1596L262.24 47.3623C263.726 47.7589 264.991 46.721 266.183 46.51C266.412 46.4678 270.6 47.2357 270.813 47.337C271.254 47.5479 271.605 48.4423 272.217 48.9064C272.829 49.3705 273.491 49.2524 273.548 49.303H273.532Z" fill="black"/>
<path d="M201.778 276.233C203.305 279.06 204.979 282.545 206.383 285.144C210.164 292.13 212.589 294.949 217.961 300.501C221.635 304.298 224.918 307.234 228.151 311.437C231.376 315.639 232.07 321.731 228.29 325.865C226.232 328.11 220.909 329.595 218.1 328.903C217.406 328.734 216.165 327.68 215.25 327.3C214.818 327.114 213.911 327.19 213.789 327.064C213.642 326.903 213.789 326 213.56 325.519C213.291 324.963 212.458 324.785 212.082 324.271C208.367 319.301 206.808 316.069 205.15 310.011C203.779 304.998 203.289 299.412 201.893 294.282C200.798 290.257 198.594 285.524 198.341 281.33C198.276 280.284 198.806 279.17 198.578 277.811C198.276 276.039 195.818 273.373 199.5 272.428C200.137 272.63 201.386 275.474 201.795 276.233H201.778Z" fill="black"/>
<path d="M289.796 195.043C290.286 195.499 292.572 200.688 292.719 201.541C292.915 202.722 292.654 204.882 292.27 206.004C292.18 206.274 289.592 210.595 289.404 210.797C289.265 210.957 288.734 210.873 288.547 211.05C287.853 211.725 286.554 213.185 285.722 213.489C284.244 214.02 279.173 214.054 277.646 213.7C277.361 213.632 277.426 212.949 277.23 212.957C274.87 213.05 267.359 211.953 265.375 210.797C265.171 210.679 264.779 209.759 263.97 209.287C263.015 208.73 261.113 208.527 260.37 207.894C259.757 207.371 259.774 206.401 259.512 206.198C259.194 205.962 258.304 206.097 257.789 205.852C256.916 205.447 252.597 202.368 251.772 201.6C250.955 200.832 249.812 198.722 248.808 198.106C247.755 197.465 245.763 197.963 245.918 195.938C245.975 195.162 248.302 194.326 248.8 194.301C249.616 194.259 251.013 194.081 251.805 194.115C252.809 194.157 253.601 194.858 254.107 194.925C254.287 194.951 254.091 194.2 254.817 194.098C259.488 193.457 266.444 195.145 271.033 193.702C271.335 193.609 271.335 192.993 271.588 192.934C272.421 192.748 273.148 193.322 273.809 193.288C274.666 193.246 279.565 191.331 280.545 191.407C281.1 191.449 281.745 192.234 282.3 192.352C282.668 192.428 284.407 191.744 285.836 192.225C286.064 192.301 289.584 194.858 289.788 195.043H289.796Z" fill="black"/>
<path d="M214.744 42.5273C214.851 42.5864 216.565 44.0208 216.647 44.1136C216.843 44.3499 218.908 48.7798 218.974 49.0752C219.031 49.303 219.088 53.4798 219.055 53.716C219.023 53.9776 218.353 53.927 218.28 54.2392C217.978 55.5133 218.549 58.5763 218.239 59.6901C217.79 61.3355 215.83 64.601 215.095 66.3898C212.679 72.288 210.45 78.6586 207.02 83.8142C206.392 84.7508 203.028 89.3664 202.522 86.2865C201.966 82.9029 203.534 82.5907 203.861 80.4981C204.106 78.9202 203.412 77.5448 203.509 76.5407C203.567 75.9669 204.138 75.5281 204.244 74.9037C204.71 72.1361 203.428 71.4695 203.142 69.706C202.946 68.4993 203.395 67.4615 203.33 66.3223C203.216 64.3479 202.13 62.8965 201.787 61.1752C201.223 58.3738 201.166 55.2517 200.448 52.2563C200.366 51.9272 199.778 51.9778 199.713 51.6741C199.46 50.459 201.517 44.1305 202.375 43.388C203.003 42.8395 204.081 43.0252 204.726 42.7383C205.118 42.5611 205.387 41.6582 206.171 41.3966C208.474 40.6541 212.613 41.346 214.744 42.5104V42.5273Z" fill="black"/>
<path d="M289.665 127.295C292.425 129.776 294.009 134.661 292.743 138.442C292.229 139.986 288.767 144.905 287.363 145.335C286.269 145.673 285.256 145.057 284.293 145.285C282.921 145.605 281.247 147.462 280.022 147.985C275.45 149.917 271.131 148.905 267.432 149.824C265.317 150.347 262.95 150.744 260.492 150.871C257.324 151.031 254.074 150.854 250.882 151.023L250.833 148.677L248.236 147.816C248.09 147.2 248.212 147.293 248.49 146.989C250.335 144.939 251.176 145.285 252.923 144.171C259.431 140.036 266.093 135.539 271.539 130.662C273.335 129.05 274.813 128.383 276.495 127.067C277.255 126.468 276.609 125.219 278.512 126.215C278.634 125.928 278.692 125.405 278.92 125.245C279.19 125.05 284.799 125.017 285.452 125.143C285.934 125.236 288.522 126.147 288.898 126.358C289.42 126.654 289.428 127.076 289.681 127.303L289.665 127.295Z" fill="black"/>
<path d="M254.908 4.61557C255.879 5.36654 260.166 10.6825 260.607 10.809C261.586 10.4209 262.974 9.76272 263.873 9.23957C264.142 9.07924 264.175 8.45484 264.607 8.31139C267.473 7.34103 272.307 9.72053 274.977 10.3956C276.863 10.8765 279.329 10.8597 280.978 11.2647C281.754 11.4503 287.959 14.5808 288.294 14.9436C290.057 16.8675 291.886 20.133 293.527 21.9978C295.013 23.6853 297.194 24.4279 298.892 25.7442C299.341 26.0902 303.219 30.8323 303.374 31.2289C303.709 32.1317 303.08 32.6971 303.227 33.3215C303.35 33.8362 304.085 34.0893 304.215 34.6463C304.33 35.1441 303.93 37.2873 304.003 37.802C304.044 38.0552 304.656 37.9371 304.705 38.2408C304.901 39.5487 304.003 41.1604 303.905 42.1729C303.791 43.3627 304.419 44.6537 304.33 45.3287C304.313 45.489 303.774 46.78 303.505 48.1301C303.154 49.9358 301.603 56.4415 300.843 57.7072C300.378 58.4835 299.667 58.2135 299.472 58.4497C299.267 58.6944 299.308 60.1036 298.647 60.8714C298.198 61.403 294.671 64.9723 294.393 65.0988C294.066 65.2507 293.674 64.736 293.397 64.8541C292.564 65.2085 291.911 67.0818 291.021 67.723C290.604 68.0184 289.976 67.8412 289.633 68.0521C289.331 68.2462 288.506 70.9126 288.016 71.3429C288.849 71.402 290.319 71.9083 291.094 71.7311C292.009 71.5286 292.735 70.0604 293.552 69.5878C294.205 69.2081 294.801 69.3263 295.307 69.1153C295.471 69.0478 296.091 67.3011 296.924 69.149C297.732 70.9463 296.018 71.5117 295.438 72.3555C294.434 73.8152 295.136 73.2499 293.552 74.7856C292.482 75.8235 292.327 77.1651 291.592 77.9414C291.307 78.2452 290.417 77.8233 290.098 79.1227L289.747 78.338C288.318 78.4477 288.237 79.8146 287.469 80.3462C285.256 81.8819 284.268 81.3588 282.317 81.7047C281.182 81.9072 281.052 82.7257 280.545 83.1223C279.304 84.0927 279.394 82.751 279.321 85.4849C281.803 86.9025 283.403 83.8902 285.322 86.5059C285.142 87.7294 284.219 87.4932 283.746 87.8898C279.778 91.2734 279.427 92.1256 274.258 93.4926C274.087 93.5347 272.593 94.4292 271.303 94.8595C267.277 96.218 265.84 97.1209 262.615 99.6185C262.329 99.8379 261.905 99.5088 261.66 99.8801C261.023 100.884 263.742 100.758 263.881 100.808C264.42 100.994 264.697 101.694 265.146 101.821C266.208 102.125 267.792 100.386 268.273 102.487C267.784 103.103 267.041 103.281 266.42 103.719C263.922 105.466 258.729 107.719 255.275 108.748C254.336 109.027 253.283 108.689 253.193 108.748C253.087 108.807 253.07 109.491 252.213 109.93C251.593 110.242 249.086 110.158 248.972 110.276C248.637 111.972 250.058 111.609 250.866 112.478C251.544 114.798 245.232 115.279 244.881 115.575C241.803 118.182 238.896 118.57 235.418 120.114C235.1 120.258 232.74 122.139 232.291 122.409C228.772 124.519 224.559 127.557 220.827 129.126C220.027 129.464 217.512 130.333 216.933 129.455C215.496 127.303 221.856 125.059 222.673 124.274C223.375 123.608 223.032 122.747 223.293 122.333C223.922 121.372 230.495 118.182 231.891 117.22C234.308 115.566 237.835 110.571 240.243 108.419C240.619 108.09 242.276 107.626 242.554 107.339C243.183 106.673 243.436 105.626 244.301 104.732C245.983 103.002 249.38 100.96 251.127 99.3569C251.789 98.7494 251.944 97.1799 252.556 96.6652C253.634 95.7624 255.553 95.9817 256.173 95.7033C256.679 95.4755 262.909 89.147 264.362 87.9404C265.448 87.0291 265.293 85.3077 267.555 86.3203C266.959 84.2024 269.09 84.2952 269.376 83.8395C269.564 83.5273 269.376 82.8185 269.67 82.346C269.964 81.8735 271.466 80.92 271.744 80.439C272.046 79.9159 272.054 78.7852 272.111 78.7261C272.217 78.608 274.095 79.0721 273.989 77.3254C276.095 77.6798 275.475 76.8192 276.014 76.085C276.234 75.7813 276.724 75.7138 276.953 75.2666C279.786 69.8241 282.766 65.0566 286.114 59.842C286.334 59.496 286.84 59.572 286.857 59.5382C287.118 59.0741 286.22 58.551 286.293 57.9519C286.473 56.4668 287.6 55.9858 287.902 55.488C287.992 55.3361 287.788 53.8173 288.351 53.3532L287.314 52.7119C287.02 50.5265 288.931 50.1974 290.319 49.3367L290.025 46.0881C289.559 44.9827 287.583 45.2021 287.722 43.4555C287.877 41.5823 290.792 42.5104 290.564 39.8609C290.539 39.6078 290.123 39.304 290.098 39.0087C289.984 37.5827 290.874 37.0511 289.127 35.8107C287.967 34.9838 285.248 35.6926 283.901 34.7559C283.395 33.0093 284.383 30.9926 284.268 29.4063C284.22 28.6806 283.558 28.8916 283.476 28.5372C283.354 28.0309 283.623 27.2124 283.428 26.8749C283.264 26.5964 281.933 26.5796 281.484 26.3939C281.109 26.242 281.264 25.4573 280.643 25.6092C279.059 25.8877 278.096 28.7059 276.904 28.3853C274.895 25.7273 273.507 22.3268 269.694 22.8669C268.159 23.9469 268.004 24.7063 267.4 26.5121C267.09 27.4487 267.677 28.1575 266.224 29.2291C265.35 29.4822 264.24 26.934 263.881 26.8243C259.684 25.5754 258.198 32.4777 258.427 35.5744C250.237 35.836 256.63 44.3246 251.397 47.7673C251.927 49.0161 251.095 50.1552 251.266 51.3534C251.421 52.4335 252.809 53.2351 252.425 54.8973C252.327 55.3192 251.519 55.3446 251.258 55.7496C249.355 58.6354 250.89 60.5845 250.507 63.3184C249.119 73.1149 245.836 86.7759 241.231 95.0958C239.509 98.2094 237.443 100.361 235.475 103.222C231.989 108.301 227.914 111.828 223.734 116.418C223.138 117.077 221.407 120.038 221.227 120.165C220.656 120.553 219.341 120.435 218.313 121.279C217.21 122.173 214.246 125.928 213.365 126.477C212.956 126.738 212.377 126.223 211.862 126.451C209.862 127.329 204.996 132.797 202.865 133.303C202.571 133.37 202.032 133.016 202.007 133.058C201.917 133.185 202.154 133.86 201.917 134.147C200.733 135.547 196.235 136.889 194.438 137.691C193.418 138.146 193.303 138.939 192.642 139.353C191.205 140.256 185.824 142.374 186.486 144.399C187.678 145.597 189.719 145.285 191.262 145.766C193.573 146.483 197.549 148.474 199.941 148.576C200.137 148.584 199.925 147.884 200.644 147.791C204.22 147.335 208.686 148.179 212.393 147.808C217.096 147.335 228.764 142.568 232.111 139.032C233.213 137.868 234.757 134.611 235.712 133.244C235.998 132.839 238.627 130.4 239.002 130.35C240.545 130.155 240.072 131.733 241.027 132.079L239.884 135.843C241.623 136.357 241.917 134.931 242.562 134.493C244.612 133.117 247.624 131.033 249.151 129.042C249.698 128.333 250.27 125.835 250.948 124.544C252.107 122.35 253.895 121.118 254.924 119.06C258.296 118.477 256.712 119.937 256.736 121.439C256.753 122.452 257.553 124.662 258.827 124.662C258.827 124.3 258.851 123.793 259.047 123.506C263.677 116.807 267.539 112.216 272.348 106.563C273.099 105.685 272.74 104.074 274.658 104.96C276.773 105.93 273.589 108.099 274.756 109.482L273.589 109.702L273.613 111.482C276.659 111.837 277.279 108.85 279.1 107.474C279.549 107.137 280.366 107.128 280.423 107.061C280.537 106.943 280.113 106.268 280.26 105.879C280.325 105.711 282.17 103.12 282.309 102.968C283.093 102.108 286.595 100.412 286.808 100.218C286.955 100.074 286.767 99.4497 287.118 99.0869C288.914 97.2221 293.119 97.9478 294.711 96.9859C294.907 96.8677 297.7 93.9566 297.879 93.7288C298.239 93.2816 297.953 92.5897 298.198 92.21C298.826 91.2143 301.382 89.3326 301.986 87.6029C302.933 84.869 302.688 79.6206 302.403 76.7432L303.562 76.9626L304.142 75.9163C304.705 75.8066 305.489 76.4479 305.946 76.8107C306.608 77.3423 309.09 79.5362 309.465 80.0931C311.392 82.9535 311.988 88.9529 311.694 92.3281C311.458 95.0451 310.625 97.5934 310.372 100.285C311.278 100.395 312.184 100.884 312.96 101.365C315.769 103.112 316.61 104.251 318.806 106.2C319.28 106.622 319.925 106.293 320.21 106.555C321.631 107.846 324.987 111.82 325.673 113.516C326.824 116.368 327.877 121.439 327.991 124.451C328.032 125.489 327.436 132.214 326.93 132.577C326.644 132.78 325.999 132.577 325.901 132.662C325.836 132.721 326.13 133.725 325.942 134.45C325.567 135.893 324.17 136.948 324.031 137.345C322.888 140.728 321.917 141.133 319.32 143.69C317.802 145.183 313.385 149.563 311.858 150.39C311.115 150.795 310.094 150.702 309.522 151.023C309.041 151.293 309.024 152.069 308.469 152.406C302.819 155.815 297.365 155.773 290.931 157.418C290.776 157.461 290.196 158.861 288.767 158.212V159.41C289.772 159.089 290.547 160.11 291.266 160.211C291.911 160.304 292.515 159.857 293.07 159.933C294.001 160.06 295.561 161.798 296.728 161.815C294.965 164.228 291.347 163.874 288.751 163.992C286.783 164.076 283.003 164.498 281.06 164.219C280.782 164.177 280.864 163.494 280.553 163.418C279.541 163.148 276.406 162.928 275.328 163.03C274.136 163.139 273.213 163.595 272.193 164.118C271.874 164.279 271.335 164.177 270.96 164.211L273.238 168.396C270.772 169.907 266.689 169.147 264.06 168.16C263.742 168.042 262.885 166.835 261.986 166.734C261.325 166.658 260.696 167.19 259.864 166.945C259.055 166.717 257.104 164.127 255.593 163.831C254.712 163.654 253.675 163.89 252.768 163.814C252.221 164.405 254.965 167.181 255.046 168C254.45 170.7 246.106 165.873 244.816 165.291C243.893 164.869 242.285 164.641 241.068 163.992C238.823 162.793 237.761 161.123 234.585 161.823L235.687 165.156C234.977 166.329 233.638 166.388 232.56 165.73C232.095 165.443 232.013 164.844 231.629 164.625C230.764 164.135 229.596 164.574 229.245 164.397C228.894 164.219 227.522 162.085 226.624 161.663C221.423 159.207 211.511 160.49 205.567 160.228C199.223 159.95 192.095 156.87 185.816 155.562C185.228 155.444 181.162 154.693 180.876 154.701C180.37 154.71 179.831 154.288 180.019 155.216C180.109 155.647 181.954 157.604 182.436 158.262C182.918 158.92 183.318 160.237 183.783 160.751C184.093 161.097 184.673 160.92 184.845 161.114C185.049 161.351 184.779 161.967 185.196 162.22C185.808 162.599 187.596 163.063 188.429 163.443C194.447 166.177 200.897 169.578 207.306 171.982C210.956 173.349 211.078 173.172 214.467 175.214C217.096 176.8 220.28 176.952 222.73 178.066C222.942 178.167 224.428 179.653 224.542 179.678C229.253 180.994 232.601 181.365 237.582 180.403C239.239 180.083 240.905 179.644 242.619 179.29C243.754 179.062 247.429 177.028 247.714 176.969C248.514 176.8 249.29 177.248 249.919 177.172C250.409 177.121 251.16 176.218 252.001 176.573L252.736 179.323C250.907 179.813 251.356 181.846 249.355 182.361C249.135 183.323 250.58 183.002 251.07 182.969C254.532 182.749 262.836 180.058 265.465 177.779C266.151 177.189 266.167 176.159 266.461 175.855C266.6 175.72 269.139 174.505 269.678 174.033C271.18 172.708 272.005 169.476 274.732 172.371C273.548 172.708 274.291 173.079 274.095 173.746C273.654 175.189 273.254 176.919 272.813 178.26C272.666 178.707 270.747 179.745 273.107 180.505C274.136 180.049 276.193 177.754 276.928 177.383C281.256 175.189 283.803 173.552 287.755 170.7C289.184 169.67 290.417 169.308 292.131 169.392C292.646 170.826 293.054 171.814 292.262 173.265C291.625 174.429 289.445 174.877 292.384 175.72C292.842 174.37 294.964 175.096 296.434 174.86C298.794 174.48 303.072 172.548 304.869 170.97C307.571 168.59 308.347 167.325 310.519 164.549C310.878 164.084 311.768 163.848 311.833 163.722C312.037 163.342 311.588 162.743 311.645 162.388C311.719 161.924 312.388 161.663 312.519 161.14C313.017 159.064 313.131 156.718 314.356 154.626C315.736 152.263 318.814 151.343 320.455 153.959C322.399 157.056 322.864 161.882 323.158 165.603C323.37 168.329 319.876 173.729 318.684 176.269C318.3 177.079 317.173 176.421 319.092 178.564C316.226 178.598 319.026 180.201 319.427 180.809C321.198 183.483 324.334 188.107 325.077 191.229C325.362 192.444 325.068 194.124 325.567 195.423C326.065 196.722 326.416 196.908 326.53 198.79C326.938 205.549 325.852 211.177 323.599 217.379C323.117 218.712 322.235 218.071 322.162 218.138C321.68 218.594 320.398 222.036 319.32 223.159C318.863 223.631 316.928 224.306 316.544 224.601C314.552 226.129 313.776 227.985 310.551 228.66C309.629 228.854 308.828 228.365 308.355 228.458C308.126 228.5 307.865 229.698 306.281 229.985C303.529 230.483 298.622 229.766 296.238 230.483C295.903 230.584 295.969 231.284 295.773 231.284C295.226 231.301 294.581 230.533 293.862 230.457C292.507 230.322 290.972 231.132 289.535 230.457C289.241 232.753 291.666 232.137 292.858 232.744C294.05 233.352 293.723 235.216 295.977 234.052V236.043C294.409 235.411 292.303 236.626 290.898 236.415C289.576 236.221 287.045 235.284 285.673 234.803C283.942 234.187 283.076 233.191 281.321 232.12C278.969 230.685 276.479 229.495 274.095 228.129L272.478 228.466C271.899 229.293 275.606 234.347 277.026 234.06L276.283 235.841C275.401 236.735 269.604 233.647 268.551 232.786C267.873 232.229 267.179 231.073 266.502 230.457C264.665 228.787 263.203 227.656 261.472 225.884C260.198 224.568 257.667 220.796 255.806 223.083C257.528 225.175 257.692 228.28 254.271 227.091C254.124 227.04 251.78 225.555 251.666 225.445C251.176 224.973 251.193 224.146 250.719 223.648C248.4 221.167 245.698 217.801 243.681 214.982C242.587 213.455 242.807 211.21 240.276 211.303L239.713 216.493C237.345 217.952 236.904 215.218 235.973 213.835C233.899 210.746 232.503 207.945 229.833 205.329C229.507 205.009 229.351 204.224 229.237 204.156C228.788 203.878 226.845 205.085 225.979 204.004L223.595 198.115L222.909 198.452C222.762 198.351 221.382 195.626 221.129 195.356C218.925 193.094 215.912 190.613 212.703 189.441C212.083 189.213 211.242 189.5 210.809 189.246C210.621 189.137 210.352 188.057 209.821 187.702C207.78 186.352 203.224 185.508 200.627 184.209C197.28 182.53 192.397 177.821 188.952 176.775C188.494 176.64 186.78 176.412 186.527 176.606C186.126 178.184 184.992 178.758 184.208 180.344C181.84 185.112 184.175 183.931 187.457 185.314C192.495 187.441 196.7 188.985 201.623 192.352C203.069 193.339 204.367 195.018 205.91 195.997C206.057 196.09 206.473 195.71 206.531 195.761C206.767 195.98 206.996 197.566 207.429 198.013C213.218 203.878 217.259 210.341 224.003 215.91C224.159 216.037 224.608 217.691 225.269 218.341C226.183 219.235 227.718 219.826 228.755 220.855C229.474 221.572 230.87 224.061 231.311 224.357C232.397 225.082 233.638 225.209 235.124 226.534C238.561 229.58 240.594 232.407 245.412 232.896C247.184 233.073 248 231.166 249.208 232.854L249.584 232.052L250.017 232.862L253.128 232.913C254.467 235.048 252.458 235.512 252.131 236.136C251.838 236.693 252.246 237.68 251.985 237.993C251.617 238.431 249.012 238.938 249.772 240.845C251.168 240.372 252.327 241.486 253.397 241.621C255.969 241.95 259.161 241.283 261.807 241.131C265.203 240.929 268.061 240.718 271.343 241.41C272.299 241.612 274.022 241.106 274.258 242.431C274.601 243.848 272.527 244.591 271.874 245.359C271.572 245.705 271.58 246.295 271.278 246.726C270.976 247.156 269.261 247.494 270.813 248.034C273.197 248.869 272.544 248.143 273.866 248.059C275.736 247.941 278.455 248.076 280.227 247.629C280.521 247.553 280.464 246.928 280.749 246.852C282.399 246.422 283.795 247.435 285.012 247.46C287.779 247.511 288.49 247.823 290.98 248.43C291.241 248.498 295.185 248.911 295.405 248.869C295.805 248.793 295.732 247.848 296.189 247.755C296.565 247.679 297.52 248.118 298.328 247.882C298.982 247.688 299.243 247.046 299.708 246.911C300.459 246.7 301.227 246.979 301.831 246.844C302.256 246.743 302.305 245.705 302.844 245.426C303.497 245.097 304.403 245.3 305.35 244.869C306.044 244.557 308.469 241.992 308.894 241.3C309.947 239.579 309.098 234.811 311.229 235.056C313.335 235.301 315.238 237.571 316.005 239.562C317.385 243.14 316.022 246.042 315.703 249.578C313.548 249.477 314.585 251.265 314.168 251.966C314.013 252.227 311.229 252.818 312.331 255.206L310.486 255.67C310.935 256.927 309.686 258.421 309.678 259.02C309.661 259.872 310.968 260.488 311.36 261.239C312.707 263.813 315.418 270.799 314.977 273.761C314.846 274.63 313.572 276.47 313.474 277.406C313.45 277.626 314.087 277.55 314.144 277.769C314.397 278.849 313.85 280.208 313.891 281.001C313.899 281.203 314.56 284.241 314.691 284.882C314.773 285.304 315.491 285.751 315.369 285.962C315.336 286.021 314.56 285.802 314.397 286.739C314.201 287.852 315.254 288.553 313.85 288.992C314.854 291.439 311.964 294.957 310.568 297.05C308.943 299.48 303.791 306.61 301.447 307.504C300.753 307.766 296.63 308.795 296.418 308.956C293.511 311.141 289.461 310.196 286.032 310.745C285.224 310.871 284.579 311.58 283.73 311.563C282.88 311.546 282.382 310.745 281.909 310.795C281.468 310.837 281.052 311.462 280.398 311.436C278.725 311.369 275.271 309.395 274.087 308.112C273.703 307.698 273.785 306.939 273.638 306.804C273.483 306.661 270.086 305.724 269.621 305.64C268.959 305.521 268.306 305.496 267.637 305.538C266.673 306.374 273.36 309.749 271.605 311.529C270.111 311.453 268.608 310.821 267.277 310.086C263.677 308.095 260.247 304.914 257.398 301.648C254.377 298.172 252.156 294.012 249.943 289.844C249.641 289.27 249.943 288.401 249.249 287.979C248.294 287.979 247.967 294.4 247.927 295.556C245.526 296.029 245.771 294.653 244.832 293.413C243.697 291.894 240.676 286.452 240.358 284.528C240.08 282.84 239.925 282.815 239.672 281.693C238.913 278.334 239.435 274.639 236.365 272.403C234.92 275.035 233.173 277.744 232.764 280.79C230.503 281.001 230.495 280.005 229.882 278.107C229.327 276.394 228.902 273.769 228.739 271.736C228.208 264.977 228.372 258.438 227.425 251.476C226.869 247.401 224.722 242.718 225.171 238.642C225.342 237.064 225.93 236.904 227.057 237.9C228.306 238.997 228.094 240.532 228.682 241.773C233.107 251.088 238.643 260.421 243.681 269.086C248.163 276.799 253.258 283.659 259.317 289.768C260.37 290.831 262.509 292.755 263.693 293.531C266.689 295.489 270.462 296.83 273.507 298.754C276.038 296.881 275.72 298.737 276.822 299.294C277.369 299.573 280.864 300.661 281.321 300.56C282.88 300.206 283.232 297.91 283.828 297.564C284.285 297.303 286.62 296.695 287.159 296.721C287.845 296.754 287.649 297.463 287.975 297.556C291.658 298.543 290.057 293.995 291.584 292.063C298.99 293.135 295.544 289.439 295.92 284.477L299.104 282.528C299.112 279.136 297.332 278.242 295.675 275.795L297.937 273.39C297.218 270.352 295.871 270.065 293.364 268.977C293.225 267.07 295.022 265.661 294.042 263.745C292.752 263.23 291.445 262.066 290.327 261.458C289.739 261.146 289.069 261.197 288.547 260.944C280.251 256.986 271.123 255.923 261.946 253.434C261.056 253.189 259.088 253.248 258.966 253.164C258.198 252.59 258.271 252.438 256.941 251.603C251.486 248.211 245.102 245.815 239.876 242.043C236.749 239.781 233.622 236.491 230.935 233.824C228.772 231.681 228.021 231.149 226.624 228.584C226.518 228.39 224.763 227.538 224.216 226.914C221.08 223.353 218.035 218.999 214.867 215.699C213.846 214.636 212.483 213.641 211.683 212.763C209.478 210.341 208.531 206.949 206.212 204.764C205.763 204.342 204.881 204.215 204.783 204.055C204.571 203.701 204.898 202.882 204.669 202.595C204.563 202.469 203.885 202.494 203.452 202.097C202.358 201.093 201.852 199.667 200.962 198.714C199.615 197.288 191.826 192.453 190.201 192.976C188.372 194.444 191.034 195.431 191.866 196.317C194.046 198.621 196.194 200.916 198.292 203.135C201.615 206.637 203.746 207.844 206.686 212.645C209.543 217.328 212.009 221.378 214.238 226.171C217.57 233.343 220.346 239.79 223.138 248.017C223.375 248.717 224.444 249.831 224.591 250.43C224.82 251.392 224.355 255.687 222.934 254.438C223.252 253.012 221.595 251.493 221.472 250.565C221.391 249.966 221.791 249.485 221.783 249.097C221.783 248.97 220.158 247.359 220.101 247.249C219.121 245.283 218.337 243.064 216.973 240.971C216.492 240.237 214.859 239.106 214.581 238.566C213.765 237.022 213.209 233.714 212.328 231.841C211.911 230.955 208.972 227.31 208.907 227.006C208.359 224.399 206.514 221.842 205.363 219.007C205.2 218.602 203.469 217.699 203.101 216.788C202.644 215.657 203.314 215.05 203.158 214.383C203.044 213.911 202.415 213.649 202.252 213.278C201.893 212.442 202.62 211.531 201.33 210.291C200.815 209.793 200.129 209.844 199.901 209.59C198.513 208.105 196.945 206.089 195.451 204.519C193.957 202.95 192.536 201.465 191.099 199.92L190.021 200.207C189.294 202.789 188.952 205.422 188.968 208.139C193.026 211.75 194.422 217.142 196.422 222.188C197.01 223.673 197.198 225.234 197.753 227.251C197.876 227.681 198.455 228.103 198.594 228.761C198.807 229.766 198.464 231.014 198.725 231.833C198.896 232.373 199.721 232.339 199.819 232.753C199.99 233.487 199.68 234.575 199.819 235.461C199.982 236.448 201.313 240.389 201.738 241.747C202.432 243.958 203.281 244.785 203.714 247.401C205.004 255.223 207.404 259.872 210.621 266.825C210.825 267.272 210.654 268.065 210.882 268.352C211.111 268.648 216.304 272.698 216.639 272.85C218.386 273.651 221.464 274.225 222.926 275.052C224.918 276.174 226.722 278.064 228.608 279.414C229.139 280.613 225.457 280.807 225.122 280.925C224.24 281.229 222.803 282.359 222.656 282.393C222.117 282.528 219.48 281.971 219.896 283.001C220.991 283.853 221.538 285.338 222.526 286.224C224.853 288.308 230.086 291.464 233.148 292.595C234.218 292.991 236.128 292.789 236.545 292.991C237.329 293.371 238.472 295.101 239.125 295.582C240.341 296.493 243.224 296.797 243.403 298.594C243.558 300.18 240.529 301.159 239.239 301.193V302.737C241.142 302.568 241.803 304.467 243.42 305.319C246.751 307.074 252.246 308.838 255.895 309.015C256.72 310.112 261.366 310.939 261.782 311.529C262.06 311.917 261.946 312.322 261.946 312.753C260.598 311.867 260.492 313.301 259.659 313.732C258.443 314.364 256.173 313.597 257.088 316.077C257.479 317.132 262.28 319.866 263.513 320.507C267.743 322.726 278.871 324.65 283.672 323.52C283.934 323.461 283.893 322.861 284.22 322.76C284.669 322.625 286.351 322.321 286.759 322.347C288.637 322.473 289.796 325.055 289.184 326.878C289.004 327.41 288.302 327.401 288.163 327.612C288.024 327.823 287.028 331.375 286.4 332.287C285.983 332.911 281.974 337.113 281.37 337.51C278.953 339.096 275.695 338.522 273.001 339.164C272.568 340.817 272.258 342.767 271.776 344.387C271.058 346.8 270.078 348.817 268.845 350.96C268.029 352.386 266.967 356.934 266.298 357.862C265.857 358.478 265.04 358.394 264.714 358.79C264.371 359.195 264.052 360.723 263.35 361.339C261.929 362.596 261.856 362.52 260.419 364.039C258.631 365.92 253.724 366.832 251.233 367.211C244.628 368.215 234.095 367.929 227.073 367.726C226.281 367.701 224.583 367.591 223.905 367.431C221.48 366.857 221.129 363.946 219.676 362.309C219.031 361.583 217.912 361.153 217.357 360.554C216.557 359.693 215.365 356.419 214.908 355.98C214.834 355.913 213.593 356.124 213.267 355.086C212.597 354.749 212.466 356.149 212.417 356.605C212.262 358.039 213.128 360.326 211.095 360.199C209.241 360.081 209.021 357.947 208.155 356.487C205.845 352.605 204.032 349.163 202.873 344.488C202.277 342.083 202.391 338.818 201.305 336.244C201.24 336.092 199.999 334.286 199.639 334.329L197.353 338.32C195.434 338.396 195.9 336.438 195.549 335.442C194.283 331.899 192.226 328.464 191.85 324.566C191.687 322.937 192.593 315.495 190.176 315.554C189.205 315.58 185.8 319.09 185.114 316.466C184.649 314.702 186.298 313.664 186.388 312.559C186.453 311.74 185.677 310.702 185.865 309.842C186.012 309.175 187.253 308.61 187.31 307.344C187.425 304.813 187.572 303.48 187.857 300.957C188.16 298.282 188.094 296.113 188.078 293.59L183.408 294.004C181.317 291.565 183.342 289.717 184.159 287.262C186.674 279.684 187.368 274.014 187.245 265.829C187.212 263.458 186.453 260.286 186.363 258.261C186.257 255.856 187 252.219 186.559 249.865C186.388 248.97 185.612 248.7 185.473 248.177C185.408 247.907 185.98 244.692 185.702 242.777C185.228 239.562 184.82 235.579 183.816 232.39C183.636 231.824 182.934 231.453 182.861 231.04C182.771 230.525 183.318 229.808 183.122 229.15C182.967 228.635 182.167 228.508 181.864 228.044C181.513 227.513 180.542 225.091 180.419 224.981C180.28 224.863 177.251 224.028 176.9 224.053C175.488 224.137 175.822 224.99 175.512 225.201C175.414 225.268 174.181 224.762 173.406 225.808C173.21 226.078 172.442 228.272 172.303 228.77C171.822 230.533 170.45 236.246 170.311 237.925C169.87 243.334 169.241 249.198 169.462 254.674C169.462 254.86 168.817 254.801 168.752 255.113C168.425 256.607 169.086 259.121 168.752 260.572C168.678 260.885 168.017 260.809 168 261.079C167.886 263.399 168.678 266.31 168.768 268.614C168.841 270.479 168.303 272.799 168.384 274.2C168.441 275.179 169.446 276.292 169.478 277.448C169.666 283.009 169.903 285.262 172.483 290.257C173.071 291.396 174.336 296.712 173.038 297.143C171.283 297.733 168.833 295.531 167.796 297.573L166.653 294.788C165.78 294.577 166.025 295.641 166.114 296.155C166.457 298.045 168.515 300.332 168.735 301.066C168.98 301.893 170.564 307.167 170.728 307.471C171.903 309.665 172.107 309.53 173.014 312.449C173.659 314.516 174.5 317.216 175.357 319.157C175.855 320.288 176.835 321.241 177.006 322.617C175.708 325.747 171.699 321.697 169.127 323.942C170.483 326.971 172.989 329.122 174.206 332.363C175.047 334.59 174.108 334.666 174.018 336.109C173.993 336.463 174.361 341.357 174.434 341.619C174.524 341.982 175.137 342.024 175.333 342.345C176.908 344.944 177.006 345.382 179.194 347.492C179.986 348.26 180.436 348.825 180.991 349.382C182.126 350.496 184.175 350.875 184.812 351.466C185.718 352.302 185.759 352.361 186.935 353.306C187.343 353.635 189.058 355.322 189.245 355.668C190.593 358.141 188.952 360.419 186.592 360.908C185.841 361.069 179.937 361.17 179.268 361.009C178.598 360.849 178.166 360.174 177.562 359.997C176.606 359.718 174.826 359.702 174.181 359.364C173.904 359.221 172.997 357.609 172.654 357.508C171.895 357.288 169.805 357.44 169.233 357.001C168.915 356.757 168.939 355.601 168.401 355.28C167.862 354.959 167.241 355.221 166.759 355.094C166.269 354.968 166.759 354.133 166.131 354.301C166.302 354.934 165.412 355.078 165.388 355.348C165.257 356.866 164.294 358.816 163.477 360.495C163.265 360.942 157.133 367.186 156.725 367.439C154.136 369.051 151.728 369.068 149.344 369.954C148.772 370.165 148.446 370.916 148.07 371.008C147.335 371.169 146.649 369.996 146.159 369.928C145.718 369.869 145.384 370.494 145.09 370.519C144.869 370.536 141.53 369.785 140.909 369.684C129.258 367.844 117.125 356.478 116.464 343.729C116.333 341.172 117.003 338.666 116.464 336.328C116.153 336.101 113.41 337.392 113.181 337.636C112.994 337.839 113.034 338.37 112.83 338.657C112.585 339.003 111.997 339.054 111.924 339.391C111.532 341.087 112.43 341.408 110.169 342.665C108.438 343.003 109.172 338.7 109.401 337.771C111.042 330.97 113.696 325.545 116.864 319.351C118.284 316.575 119.672 313.765 121.036 310.956L120.399 310.027C117.941 309.2 115.508 312.23 114.373 311.209C113.051 309.724 114.496 307.8 115.035 306.239C116.292 302.602 117.721 300.771 120.513 298.037C122.277 296.316 125.127 294.274 126.89 292.384C128.156 291.025 129.234 289.473 130.507 288.139C131.095 284.857 125.731 287.515 125.714 284.199C125.714 282.503 127.805 281.482 128.858 280.672C129.16 280.444 129.234 279.693 129.74 279.414C131.267 278.571 134.639 278.005 136.378 276.824C136.606 276.672 139.66 273.82 139.774 273.618C140.028 273.17 140.142 271.171 139.905 270.884C139.725 270.664 135.439 269.297 134.753 268.926C130.899 266.8 126.792 263.965 122.326 262.657C122.065 262.581 121.501 262.952 121.412 262.834L121.379 261.678C118.358 262.024 116.121 259.535 113.287 258.817C111.532 261.214 112.161 264.42 112.593 267.154C113.01 269.812 113.924 272.453 114.602 275.305C114.684 275.634 115.255 275.592 115.321 275.879C116.145 279.49 115.459 284.57 114.373 287.971C111.924 295.607 112.324 303.547 110.732 311.242C110.283 313.394 110.128 311.715 110.266 314.533C110.275 314.744 109.613 318.153 109.491 318.761C108.756 322.44 107.507 325.849 106.56 329.266C105.923 331.586 103.416 339.729 103.359 341.298C103.31 342.817 104.788 349.163 105.833 350.428C106.127 350.791 106.69 350.589 106.878 350.774C107.09 350.985 107.172 351.871 107.719 352.504C108.74 353.677 111.344 354.656 111.883 355.786C114.504 361.305 108.919 361.71 105.074 360.807C103.882 360.529 97.7497 356.284 96.7536 355.28C95.1206 353.618 95.4962 351.922 92.1241 352.352C90.8504 352.512 86.4087 355.955 85.5432 357.069C81.0117 362.916 77.8355 363.921 71.6384 367.431C71.2955 367.625 71.2302 368.325 71.0179 368.452C70.7566 368.604 65.9148 368.621 65.1718 368.595C63.1306 366.393 64.5023 364.039 66.2414 362.241C67.1804 361.271 71.6629 358.959 72.757 358.782C73.2877 358.697 73.8266 359.263 74.4063 358.892C74.5614 358.79 76.9047 356.571 77.0191 356.428C77.7294 355.525 77.6641 353.812 78.4724 352.867C78.4561 352.183 74.4634 349.635 73.7694 349.568C73.2061 349.517 69.1644 352.386 67.8499 352.74C66.7884 353.019 63.5878 352.858 62.6652 352.47C62.5427 352.42 60.5668 351.086 60.477 350.977C59.9871 350.378 60.0932 349.66 60.5668 349.095C61.0404 348.53 63.547 346.201 64.045 345.922C64.837 345.484 65.5474 345.99 66.3394 345.636C66.9844 345.349 68.699 343.062 70.1605 342.378C74.3246 340.429 81.1832 341.762 85.2166 337.906C89.4297 334.101 92.8426 330.253 95.5207 324.819C96.1086 323.629 98.1661 319.579 98.4437 318.718C98.8765 317.377 98.3784 316.001 98.705 315.006C98.9826 314.145 99.4072 314.989 99.9216 312.609C101.081 307.158 102.012 301.733 102.534 296.282C102.649 295.101 103.286 293.911 103.13 292.687C103.008 291.759 102.273 291.109 102.134 290.477C102.028 289.979 102.453 289.329 102.396 289.228C102.355 289.16 101.579 289.025 101.138 288.359C99.9706 286.587 99.2031 282.705 98.06 280.815C97.7905 280.368 95.488 278.453 94.8593 277.693C94.2796 276.993 93.9285 275.305 92.8426 275.28C90.3197 276.124 91.92 278.385 91.7567 279.71C91.6832 280.284 90.6952 283.676 90.4258 284.3C90.0829 285.102 89.1358 284.359 89.8869 286.325C87.0129 288.418 86.9231 292.991 85.829 296.231C84.294 300.779 79.346 313.141 76.1291 316.373C72.8958 319.604 71.3608 322.431 68.944 326.363C66.6007 330.177 64.241 336.371 61.914 339.721C61.416 340.438 59.8973 341.357 59.2523 342.21C58.2561 343.518 56.8028 346.285 55.7169 347.357C54.9983 348.066 53.2347 348.597 52.7693 349.264C52.3692 349.829 53.0551 350.454 52.4672 351.306C52.3448 351.483 49.6258 354.208 49.3972 354.394C49.087 354.639 48.148 354.605 47.7643 355.044C44.4656 358.782 39.6075 361.82 34.9127 365.077C34.6759 365.237 34.6514 365.794 34.3575 365.853C33.4675 366.047 32.6347 365.625 31.7774 365.541C31.361 365.498 30.8466 365.903 30.3404 365.785C29.5892 365.608 28.3481 363.558 27.0499 363.828C26.9193 363.701 27.8582 360.571 28.0215 360.292C28.1603 360.056 30.1281 358.022 30.3567 357.862C32.602 356.25 35.5496 357.052 38.1052 356.234C38.6849 356.048 43.1184 353.533 43.6247 352.985C43.9512 352.622 43.8533 351.854 44.1962 351.567C44.7024 351.146 45.6169 351.896 45.5679 349.728C45.4944 346.209 41.2242 347.213 39.1585 348.167C33.394 350.816 27.0499 355.871 21.4651 358.993C19.4157 360.14 17.5297 361.55 15.2843 362.098C14.7128 361.558 14.3535 360.748 14.231 359.972C13.9371 358.183 14.0188 353.989 14.1331 352.107C14.3862 348.125 15.815 350.243 16.9826 350.108C17.1541 350.091 20.1832 349.112 20.3384 349.019C21.4243 348.378 21.7346 346.842 20.8038 345.88C19.0075 344.024 16.803 346.665 14.5658 345.872C14.5495 343.391 13.7003 340.598 14.7454 338.303C14.974 337.965 16.9173 337.873 17.3745 337.889C20.6242 337.974 28.0379 338.379 31.0181 337.552C31.7611 337.341 31.5978 336.733 31.8264 336.708C32.4469 336.641 33.1981 337.257 34.0146 337.13C39.0686 336.362 44.1472 334.033 48.695 331.409C54.8269 327.874 57.8642 323.216 62.4039 318.094C65.0003 315.166 66.372 313.386 68.3888 309.513C69.9646 306.492 72.1365 301.412 72.7978 298.484C73.8184 293.919 75.3779 287.616 74.7982 283.001C74.4634 280.309 72.4059 279.389 71.7527 278.115C71.0587 276.757 71.1648 274.495 70.9035 273.018C70.6014 271.28 70.6259 270.031 70.4463 267.93C70.1932 264.918 69.8095 262.1 67.8417 259.779C67.2865 259.13 65.7188 259.045 64.9595 258.623C55.3903 253.265 47.1845 248.81 37.2397 243.503C36.6355 243.182 35.8598 243.443 35.4434 243.199C35.2801 243.097 33.3695 240.617 32.9531 240.212C30.52 237.866 27.9236 235.107 25.8823 231.816C25.4659 231.149 25.2373 229.749 24.6005 229.285C23.7758 228.677 23.1144 229.082 22.3714 228.905C22.053 228.829 22.0612 228.264 21.8162 228.137C13.7983 223.842 8.33599 214.316 7.06227 205.11C6.59687 201.743 7.73179 203.194 5.63341 199.752C3.95144 196.984 4.25355 192.149 4.49033 189.204C4.75977 185.804 2.38379 183.753 2.06535 181.905C1.82857 180.538 3.05331 180.547 1.28969 179.56L1.66528 171.603C0.709983 169.232 1.98371 167.755 1.17538 165.342C0.92227 164.582 0.130276 164.456 0.105781 163.258C0.0894513 162.608 0.718148 157.621 0.889611 156.912C0.92227 156.76 1.99187 154.929 2.02453 154.777C2.23682 153.782 1.51014 151.394 1.62445 150.474C1.68977 149.951 3.48605 147.031 3.74732 146.061C3.89429 145.496 3.4044 144.677 3.59219 144.137C3.99227 142.956 8.21352 137.944 9.15248 136.02C9.61788 135.075 10.1159 132.484 10.4425 131.986C10.6548 131.666 11.8224 131.598 12.2796 130.923C13.7003 128.814 13.0471 129.438 14.8842 127.616C19.0157 123.498 22.9838 119.853 27.303 116.309C28.3318 115.465 32.055 113.592 32.5449 113.17C32.8633 112.891 32.9531 112.149 33.1736 112.014C33.5655 111.778 34.3248 112.107 34.5535 111.87C34.6923 111.735 34.4963 111.094 34.6923 110.841C35.3046 110.056 39.5177 108.335 40.4403 107.508C41.069 106.943 40.9466 106.192 41.118 106.031C41.5263 105.669 46.662 103.011 46.9886 102.631C47.2172 102.369 47.0866 101.677 47.4703 101.357C47.9031 101.002 49.536 100.766 50.3607 100.192C51.5609 99.3485 52.7285 96.969 54.6962 95.7708C55.1371 95.5008 56.0026 95.6695 56.1496 95.5177C56.3047 95.3489 56.1006 94.4714 56.3864 93.982C57.3417 92.345 60.6974 89.4255 62.11 87.4341C64.7227 83.7467 66.3639 79.3843 68.0622 75.5113C68.7888 73.8574 70.0136 72.2289 69.834 70.4063C71.2383 69.8578 72.8876 72.347 73.0836 73.579C73.1326 73.8659 72.2589 79.0805 72.1283 79.3337C71.8588 79.8653 71.1322 79.4771 70.9689 79.5952C70.8709 79.6627 71.5322 81.055 71.1403 81.9579C70.6913 82.9957 67.1804 87.5607 66.2496 88.7842C65.1555 90.2102 65.0493 90.4971 64.1757 91.805C63.7919 92.3787 61.1057 94.3363 60.8444 94.8764C60.624 95.332 60.8771 96.0408 60.6811 96.294C60.5505 96.4627 59.7748 96.4205 59.4155 96.7496C58.6644 97.4246 56.8518 99.3654 56.1823 100.15C55.7577 100.648 55.4882 101.829 55.3821 101.897C54.9494 102.175 54.0186 101.745 53.594 102.015C53.4144 102.133 53.3654 103.137 52.9653 103.559C52.2468 104.318 49.634 105.508 49.1768 105.947C48.7604 106.344 48.6706 107.533 48.0664 107.981C46.9968 108.782 44.2615 109.761 42.9388 110.563C42.3999 110.892 42.3836 111.626 41.8774 111.929C41.0772 112.419 39.3299 112.427 38.5053 112.866C36.2109 114.09 30.4628 119.524 28.2747 121.464C27.4173 122.224 26.3641 122.03 25.866 122.502C25.4904 122.857 25.817 123.624 25.3108 124.274C24.8699 124.84 23.1879 126.029 22.5102 126.578C21.7754 127.177 15.962 131.986 15.7415 132.392C15.5293 132.771 15.7742 133.421 15.5701 133.784C15.3986 134.096 14.2555 134.358 13.8636 134.796C11.2019 137.809 8.89937 142.433 7.79711 146.576C7.47051 147.816 6.96429 152.339 6.67035 152.93C6.31926 153.63 5.39663 153.866 5.39663 154.06C5.39663 154.6 6.02533 155.14 6.07432 155.68C6.18046 156.777 5.37214 160.169 5.42112 160.406C5.48644 160.751 6.3111 160.895 6.57237 161.3C7.03777 162.017 7.16025 163.578 7.60932 164.498C8.68708 166.7 10.018 169.257 11.2019 171.29C11.5611 171.906 14.4923 173.991 15.268 175.189C15.7497 175.931 15.8232 176.893 16.3947 177.594C15.9293 178.201 15.9538 178.21 15.2761 177.99C13.3901 177.366 10.4099 175.113 9.93631 173.012C4.81692 173.299 6.44174 174.995 6.42541 178.733C6.42541 179.399 5.86203 179.99 5.81304 180.395C5.79671 180.505 7.13575 181.728 7.26639 182.1C8.32783 185.247 8.19719 186.082 9.92814 189.28C10.6058 190.537 11.406 193.035 11.9449 194.065C12.0265 194.216 14.0514 195.448 14.525 195.938C15.317 196.756 16.9581 199.465 17.7419 200.14C18.3298 200.655 18.9667 200.393 19.3423 200.638C19.628 200.823 19.6525 201.633 20.1996 201.929C24.7719 204.426 33.1083 203.448 36.1211 198.638C38.2032 195.322 36.5702 187.804 32.1611 192.141C30.3404 190.664 31.9162 189.289 31.9897 187.407C34.7657 186.563 37.6969 186.816 39.4034 189.457C39.4687 189.559 39.1993 189.896 39.2809 190.04C39.5504 190.537 40.4322 191.584 40.571 192.461C40.62 192.765 40.3424 198.343 40.277 198.663C40.2117 198.984 39.632 198.942 39.4116 199.423C38.7502 200.857 38.7339 201.853 37.2479 203.11C33.9003 205.945 27.3357 206.949 23.1798 206.291C20.469 205.861 17.1622 204.055 14.7373 202.486C14.0759 202.055 14.3209 200.941 13.0063 201.33C13.1941 202.165 12.7369 203.237 12.8104 203.945C13.0471 206.409 18.436 215.151 20.3221 216.78C20.8691 217.252 21.7264 217.303 22.2 217.691C22.7552 218.146 23.0328 219.125 23.8003 219.707C25.4904 220.99 27.8582 221.311 29.8586 221.682L32.202 230.483C32.6429 231.664 34.1697 232.111 34.0391 233.309C36.3171 234.676 38.244 237.739 41.1507 239.351C42.0243 239.84 43.494 239.959 44.1799 240.448C52.9245 246.65 64.3226 249.544 73.7041 254.48C74.2185 254.75 75.4024 255.231 75.4759 255.299C75.6392 255.442 75.3697 256.202 75.7372 256.48C76.0638 256.725 78.203 257.307 79.0439 257.737C80.3748 258.421 81.8445 259.189 83.3387 259.982C85.6575 261.214 92.9161 264.8 94.4593 266.234C96.0759 267.745 97.9375 270.842 99.0643 272.875C100.028 274.605 101.579 276.993 102.379 278.731C103.016 280.098 103.865 283.903 104.502 284.798C104.731 285.119 106.445 285.616 106.747 285.532C107.188 285.414 107.335 284.553 107.768 284.233C108.209 283.912 108.797 283.853 109.27 283.422C109.393 283.313 111.148 280.79 111.205 280.63C111.597 279.524 111.45 273.904 111.099 272.732C111.009 272.436 110.511 272.478 110.348 271.837C109.572 268.816 109.417 265.677 108.495 262.699L107.343 262.429C109.964 259.552 107.286 257.526 104.845 256.075C103.081 255.02 100.877 255.113 99.2929 254.337C98.5499 253.974 98.3131 253.24 97.5783 252.945C89.1031 249.553 80.4483 247.148 72.0956 244.659L72.0711 243.688C71.5731 243.469 70.8137 243.646 70.381 243.46C62.608 240.203 47.0539 230.812 42.898 222.315C40.6608 217.741 40.7914 212.442 41.2813 207.413C42.8163 205.886 43.4287 202.047 46.3517 203.11L51.0547 208.114C53.2674 210.527 57.456 209.599 59.3829 207.287C60.477 205.97 60.3545 203.059 62.7632 203.692C64.1349 204.055 62.2569 209.995 61.6446 210.864C60.7219 212.164 59.8728 211.7 58.9093 211.978C56.6721 212.611 57.2029 212.299 55.2596 212.493C53.2592 212.696 53.8471 213.674 50.9731 212.375C50.7689 212.282 49.2339 211.514 48.8665 211.312C48.5726 211.151 47.4458 209.548 46.8743 209.303C45.772 209.025 45.4944 212.324 46.0578 213.16C47.0621 214.67 49.1604 216.974 50.9486 217.429C51.765 217.64 52.3937 217.218 52.8673 217.353C54.0267 217.674 54.7371 219.117 57.1294 218.923C57.8234 218.864 57.6356 218.155 57.9377 218.087C58.8848 217.868 59.9789 218.281 61.1138 217.902C62.1753 217.547 63.5143 215.041 64.6003 217.387C65.629 219.589 61.416 221.977 59.6687 222.374C56.019 223.218 54.2145 221.446 50.8587 221.682C50.7689 224.601 52.9245 226.23 54.7616 227.934C57.2437 228.179 60.6648 229.521 63.0897 228.871C63.4245 228.778 63.5307 228.044 63.9716 227.732C64.7227 227.2 66.0291 226.66 66.6415 225.935C67.2702 225.184 67.7519 222.762 69.0664 223.049C71.965 223.682 70.8954 226.88 71.1403 229.074C68.6011 232.297 64.1594 237.123 71.7037 236.28C72.5774 235.107 74.5533 231.082 76.0638 231.276C76.521 231.335 76.5047 232.457 76.7251 232.744C77.0599 233.174 78.3418 233.217 78.7092 234.052C79.1011 234.946 78.7092 235.832 78.897 236.567C78.9623 236.845 80.7831 238.212 81.126 238.693C81.4689 239.174 81.3791 239.992 81.6485 240.347C82.4732 241.435 92.2547 246.903 93.7408 247.367C95.7167 247.992 103.718 250.236 105.237 250.067C105.8 250.008 108.674 248.818 108.968 248.878C109.377 248.953 109.752 249.747 110.16 250.05C110.544 250.337 111.271 250.346 111.401 250.514C111.581 250.742 111.475 251.603 111.85 252.236C113.753 255.425 118.815 255.898 121.918 257.206C133.471 262.083 144.51 268.285 155.827 273.381C156.48 273.677 163.804 277.769 161.762 273.694C160.889 271.947 161.518 272.85 161.469 271.036C161.411 268.926 160.913 267.34 161.909 265.045L161.117 264.606C163.159 262.437 161.591 260.961 161.656 259.417C161.697 258.547 161.958 257.231 162.024 255.889C162.35 249.519 164.898 243.967 165.853 237.444C166.212 234.997 166.547 232.272 166.833 229.884C167.102 227.614 166.294 225.504 164.906 223.851L163.379 224.34C164.04 227.006 162.481 228.93 161.991 231.175C160.693 237.149 159.656 241.52 157.443 247.139C156.08 250.599 153.818 254.303 152.169 257.965C151.76 258.876 150.577 259.771 150.487 261.037C150.307 263.003 158.839 265.289 158.472 268.124C157.402 268.816 157.786 270.124 156.047 270.015C155.769 269.981 155.835 269.289 155.345 269.07C150.911 267.078 141.318 263.56 138.101 261.07C137.219 260.387 135.896 259.374 135.725 258.185C135.398 255.873 137.456 255.965 138.239 257.636L140.64 256.624C140.125 256.084 139.489 254.514 139.031 254.143C138.484 253.696 137.594 253.814 137.325 253.535C137.153 253.358 136.917 251.924 136.574 251.325C134.459 247.646 130.532 242.524 127.764 239.056C126.025 236.87 123.73 235.875 122.84 232.66L124.955 230.862L128.139 231.495C128.997 230.576 128.948 229.276 128.899 228.078C129.658 228.576 131.912 228.761 132.328 229.065C132.736 229.361 132.426 230.204 133.161 230.592C134.696 231.419 134.794 229.588 134.492 228.382L131.936 217.691C129.568 217.893 130.172 219.201 129.748 220.366C129.266 221.69 128.923 224.196 128.833 224.391C128.776 224.5 128.311 224.526 128.164 224.779C127.494 225.909 127.315 227.116 125.657 227.276C125.029 227.335 121.599 226.964 120.807 226.838C117.198 226.272 116.48 224.618 113.859 223.783C113.222 223.58 112.455 223.791 111.785 223.572C109.728 222.897 107.327 222.484 108.111 219.724C109.613 219.108 110.814 219.969 112.202 220.256C114.61 220.745 117.272 221.488 119.828 221.134C121.265 220.931 124.392 218.703 125.38 217.564C125.6 217.311 125.608 216.687 125.87 216.307C126.433 215.497 127.862 213.565 128.18 212.755C129.389 209.692 127.813 209.059 127.217 206.916C126.58 204.629 126.825 200.528 123.992 200.131C123.2 202.317 124.13 204.148 123.992 206.316C123.943 207.017 123.077 211.337 122.865 211.86C122.677 212.316 122.048 211.995 121.828 212.206C121.199 212.805 121.591 213.092 119.852 214.366C119.55 214.586 119.501 215.278 119.183 215.345C118.546 215.48 117.876 214.906 117.394 214.915C117.19 214.915 117.166 215.505 116.856 215.666C113.9 217.168 109.385 216.712 106.184 215.505C105.637 215.303 102.306 213.565 102.183 213.32L102.396 210.915C103.269 211.658 104.339 211 105.098 211.135C106.298 211.354 107.188 212.181 108.593 212.096C109.368 212.054 113.696 210.645 114.422 210.249C114.986 209.945 115.002 209.303 115.541 208.983C116.08 208.662 117.166 208.958 117.362 208.544C117.582 208.088 117.443 207.43 117.672 207.051C117.786 206.865 118.235 206.789 118.431 206.443C120.064 203.498 120.464 201.304 120.914 197.963L119.811 197.111C119.983 196.132 120.66 194.562 120.513 193.626C120.415 192.993 119.754 192.495 119.558 191.837C119.191 190.639 119.191 187.761 117.55 188.749C115.459 190.006 118.195 192.259 117.941 193.525C117.762 194.41 117.027 194.664 116.88 195.229C116.66 196.039 116.929 196.984 116.717 197.853C116.611 198.3 114.725 202.224 114.455 202.418C114.316 202.519 113.802 202.275 113.524 202.452C111.263 203.895 109.915 204.038 107.972 205.025C107.352 205.346 107.425 206.114 106.609 206.359C105.923 206.57 101.93 206.975 101.073 206.975C100.82 206.975 96.574 205.658 96.3617 205.532C95.6513 205.11 94.99 203.27 94.0755 202.739C94.99 201.203 96.4515 202.477 98.0355 202.553C99.7419 202.638 105.988 202.308 107.425 201.735C107.858 201.566 107.817 200.95 108.111 200.764C108.593 200.46 109.221 200.663 109.532 200.461C109.736 200.326 111.85 196.554 112.046 196.123C113.565 192.79 112.708 188.715 113.826 185.171C112.406 183.416 111.924 180.952 109.246 181.391C108.585 183.348 109.442 185.483 109.27 187.188C109.23 187.559 108.152 191.609 108.021 191.888C107.392 193.204 106.013 192.984 105.408 194.309C102.232 196.469 97.0149 197.001 93.357 195.533C91.9935 194.984 90.3442 193.339 88.7683 192.79L88.0253 189.786C89.6338 189.314 89.4297 190.402 90.1482 190.917C93.1529 193.06 97.3578 193.06 100.607 191.373C101.024 191.153 102.012 189.694 102.453 189.221C103.816 187.787 103.914 188.614 104.967 185.863C105.392 184.749 105.441 183.272 105.653 182.555C106.494 179.678 108.127 178.859 105.923 175.501C105.498 174.851 103 172.7 102.412 172.421C101.824 172.143 100.02 172.193 99.7909 171.13C99.3255 168.962 100.428 168.363 102.404 168.413C103.024 168.43 106.666 171.898 107.613 172.59C110.814 174.919 113.532 178.252 116.464 181.18C120.897 185.61 119.689 185.365 122.359 190.554C123.706 193.17 125.78 196.056 127.135 198.697C129.389 203.102 130.924 207.742 132.736 212.046C136.133 220.104 139.652 230.449 139.954 239.089C139.987 240.009 140.746 240.769 140.624 241.815C140.199 245.291 137.153 244.768 140.321 249.097C141.938 251.308 144.388 253.704 145.874 256.219C146.127 256.649 146.927 259.509 147.327 259.678C148.413 260.125 148.576 257.931 149.531 257.577C150.291 252.97 153.124 247.772 154.145 243.494C154.39 242.473 153.794 240.448 153.973 239.14C154.732 233.698 158.505 226.424 157.77 220.72C157.647 219.75 156.112 216.265 157.419 215.404C158.66 214.586 159.035 216.189 159.28 216.315C161.722 217.581 162.432 218.189 165.045 218.973C165.363 219.066 165.314 219.665 165.592 219.733C166.637 219.994 168.139 219.556 169.299 219.758C169.927 219.868 170.278 220.543 170.825 220.56C171.054 220.56 170.964 219.826 171.266 219.741C177.104 218.256 177.937 218.391 182.02 213.143C183.154 211.683 184.461 209.287 185.424 207.439C186.363 205.641 186.494 196.908 185.931 194.976C185.571 193.752 184.159 192.622 183.742 191.761C182.877 189.964 182.281 186.605 180.681 185.39C180.158 184.994 179.505 185.61 179.341 184.403C178.999 181.872 182.46 179.804 183.048 177.104C183.473 175.147 182.003 174.016 183.914 173.189C182.869 170.649 183.457 166.962 182.754 164.54C182.616 164.051 179.317 161.418 179.056 160.946C178.835 160.549 179.105 159.866 178.909 159.528C178.77 159.292 175.161 157.402 174.687 157.081C174.214 156.76 174.238 156.001 173.397 155.537C171.242 154.347 168.311 156.786 167.609 152.415C167.511 151.824 167.943 151.073 167.78 150.643C167.543 150.018 166.465 149.715 166.074 149.166C165.306 148.095 165.494 146.28 165.273 145.926C165.102 145.656 163.991 145.69 163.542 145.344C162.881 144.838 160.962 142.112 160.285 141.589C158.872 140.492 154.79 138.475 153.002 137.885C151.85 137.505 153.393 138.855 152.267 138.669C151.075 138.475 149.923 137.716 148.846 137.556C148.143 137.454 145.49 138.433 144.967 138.787C144.706 138.965 144.673 139.724 144.281 139.825C143.767 139.952 141.946 139.015 140.917 139.825C139.84 136.855 138.109 135.75 136.166 133.674C135.602 133.075 135.006 131.607 134.533 131.202C133.732 130.527 132.059 130.451 131.005 129.902C130.393 129.582 129.985 128.729 129.83 128.696C128.719 128.451 126.555 128.13 125.323 127.928C121.02 127.236 119.134 128.434 115.41 130.172C114.798 130.459 113.361 130.51 113.092 130.729C113.051 130.763 113.426 131.269 112.912 131.894C112.177 132.788 110.511 133.404 109.883 134.374C109.14 135.53 109.083 137.066 108.119 138.264C105.67 135.497 99.3092 138.83 97.6517 141.201C97.0884 141.994 96.7128 143.757 96.1902 144.264C95.6922 144.745 94.9328 144.601 94.8593 144.66C94.8104 144.702 95.2431 145.538 95.2513 146.036C95.2839 147.597 94.9573 149.099 95.2513 150.634L96.7863 150.474C97.072 148.145 97.5783 149.023 98.4764 148.28C99.0969 147.765 99.0969 146.879 99.546 146.39C102.983 142.644 103.71 143.732 107.874 142.661C108.813 142.424 107.009 141.741 109.548 142.568C111.752 143.276 112.34 140.281 113.614 139.066C114.259 138.442 115.41 138.07 116.178 137.488C116.725 137.066 116.807 136.172 117.713 135.767C118.382 135.471 118.946 135.843 119.501 135.691C123.306 134.712 124.171 134.29 127.886 135.927C128.98 136.408 129.821 136.644 130.932 137.108C131.414 137.311 134.353 140.517 134.72 141.184C135.047 141.791 136.647 144.466 136.704 144.669C137.055 145.867 136.598 147.141 137.513 147.825C139.946 149.622 140.411 147.715 142.044 147.065C142.967 146.694 147.376 146.238 148.495 146.238C150.691 146.238 154.773 148.381 156.659 149.622C157.043 149.875 157.745 149.723 158.047 149.942C158.235 150.077 159.648 153.174 159.925 153.74C160.448 154.811 161.689 156.836 162.13 157.849C162.514 158.726 161.664 160.228 162.955 161.047C164.31 161.916 167.037 160.043 168.792 160.439C169.037 160.49 172.842 162.793 173.103 163.021C173.765 163.595 176.778 169.232 176.974 170.118C177.112 170.725 177.496 174.227 177.447 174.767C177.276 176.716 174.753 179.332 174.067 181.205C172.622 182.024 171.152 182.597 171.43 184.715C171.715 185.669 173.422 185.643 174.247 186.167C175.79 187.162 177.235 189.719 178.607 190.858L180.827 197.575C180.819 198.157 180.362 198.587 180.289 199.153C179.57 204.992 178.517 206.266 174.222 209.742C172.548 211.092 173.357 210.384 171.495 211.244C170.719 211.607 168.67 213.21 168.498 213.236C167.788 213.354 167.413 212.307 167.012 213.759C164.522 212.434 161.934 213.624 159.174 213.227C157.827 213.033 152.185 211.312 150.854 210.805C148.07 209.734 149.572 208.991 150.756 207.742C151.091 207.388 151.295 206.637 151.369 206.595C151.524 206.502 153.671 206.89 154.871 206.511C157.068 205.802 158.439 203.211 160.783 204.156C160.791 203.658 160.693 202.967 160.962 202.545C161.175 202.216 164.375 200.646 164.498 200.477C164.694 200.216 164.514 199.473 164.783 198.975C164.947 198.663 165.559 198.613 165.731 198.284C167.584 194.748 168.213 190.318 168.025 186.378C168 185.871 167.078 185.475 166.768 184.496C166.335 183.163 166.449 181.889 165.69 180.53C165.42 180.041 164.702 179.948 164.628 179.577C164.53 179.096 165.118 178.53 164.767 177.425C164.694 177.189 163.028 174.615 162.865 174.615L161.918 175.408L161.869 173.864L160.448 173.358C160.276 172.607 160.611 171.721 160.211 171.012C159.795 170.261 157.157 168.903 156.594 168.329C155.9 167.628 155.688 165.882 155.386 165.519C155.084 165.156 153.679 165.004 153.042 164.565C152.226 164.009 149.793 161.545 148.993 161.232C148.29 160.962 147.572 161.401 147.033 161.064C146.494 160.726 145.727 158.76 145.057 158.229C144.6 159.832 143.22 158.296 142.306 157.933C141.742 157.705 140.983 157.942 140.33 157.629C139.472 157.216 139.472 155.984 137.66 156.473L136.884 153.478C135.88 153.098 134.655 153.9 133.773 153.765C132.679 153.596 131.952 152.035 131.373 151.917C130.793 151.799 130.058 152.575 129.283 152.449C128.637 152.347 128.678 151.596 128.295 151.461C125.004 150.297 120.097 149.597 116.643 149.445C115.721 149.402 114.814 148.407 114.937 149.841C113.81 148.576 113.696 149.706 113.149 149.748C111.156 149.892 104.592 150.28 103.057 151.031C102.583 151.259 102.975 151.942 102.763 152.162C102.559 152.364 101.791 152.162 101.326 152.449C101.056 152.609 97.1537 156.76 96.9904 157.03C96.7454 157.427 96.9496 158.482 96.7373 159.115C96.5413 159.705 95.3574 161.907 95.2349 162.853C95.0635 164.228 96.574 165.958 93.9204 166.245C92.8263 166.143 92.9651 164.684 92.3772 163.848C91.773 162.996 86.2944 158.161 85.3554 157.663C83.7633 156.828 82.3671 156.566 80.7504 155.714C77.2313 153.866 70.5606 155.419 67.0252 155.031C66.3802 154.963 65.9311 154.119 65.1391 154.212C64.935 154.237 64.9758 154.955 64.6737 155.031C62.8285 155.495 60.1341 154.271 59.8891 154.313C59.5788 154.364 59.2033 154.938 58.6644 155.031C55.97 155.495 55.3821 155.722 52.9081 156.954C52.3693 157.224 51.1527 157.326 50.9731 157.537C50.7934 157.748 51.0057 158.456 50.8751 158.583C50.6628 158.794 49.7565 158.532 49.2584 158.701C48.7604 158.87 48.7359 159.562 48.3521 159.84C46.7681 161.013 43.347 160.406 41.7467 159.3C40.3505 158.33 36.8968 155.461 36.2109 153.95C35.721 152.87 35.917 151.925 35.6639 150.938C35.5251 150.381 34.8311 150.094 34.7657 149.672C34.2024 145.875 36.2436 140.551 38.0072 137.277C38.3583 136.627 39.4279 135.91 39.73 135.041C39.9178 134.509 39.5259 133.944 39.5585 133.893C39.6157 133.809 40.522 133.733 40.9547 133.353C41.5998 132.788 42.4897 131.016 42.8327 130.662C48.8175 124.435 55.3821 119.87 60.9832 113.136C63.4572 110.166 66.2496 107.719 68.6092 105.432C69.1644 104.892 69.491 101.644 72.1283 102.319L71.818 101.593C73.2959 101.315 72.6182 100.015 73.0754 99.1375C73.304 98.6988 78.8888 93.6444 79.8931 92.3281C83.5265 87.5607 86.5475 77.9161 85.7963 71.7479C85.7147 71.0476 85.1268 71.191 85.0451 70.862C84.5716 68.9381 84.9472 68.9128 83.8776 67.2843C82.114 64.601 75.6147 57.6059 72.4304 56.2727C70.5443 55.488 67.2865 54.3742 65.3188 53.7835C59.1379 51.9103 54.0594 53.311 47.9929 52.6782C47.3642 52.6107 47.0539 52.0284 46.5558 51.9862C46.2864 51.9609 46.4579 52.6191 45.8945 52.9144C41.5834 55.2095 36.2436 56.4668 32.3571 59.7998C31.4753 60.5592 31.2303 61.7827 30.618 62.3987C30.0056 63.0147 30.0546 61.749 29.0911 64.2804C27.9644 67.2421 26.6009 71.3176 27.0173 75.3847C27.1969 77.182 28.7482 79.5699 29.4912 81.1647C31.0834 84.5821 25.4741 82.3713 24.6331 82.4473C24.38 82.4726 21.8571 83.8564 21.7754 84.0083C21.5468 84.4302 22.1265 85.3499 22.0367 86.0503C21.8979 87.1725 21.114 91.4421 20.8038 92.3534C20.5017 93.2478 20.0118 93.2647 19.4239 93.7626C22.0285 99.4666 25.221 93.366 27.6051 91.5349C29.0503 90.4211 32.5204 89.5773 32.7245 87.316C32.8143 86.2612 31.6386 85.1812 31.9652 83.9492C33.0838 84.7002 33.7206 83.3839 34.8556 83.2742C39.7137 82.8354 45.9843 84.1855 50.622 82.2448C56.5987 79.7471 60.8771 74.9544 63.1632 68.7018C63.8573 66.7949 63.2857 63.2678 66.4374 64.1538C68.1683 66.4573 66.6741 69.7819 65.6944 72.1698C65.0412 73.7562 63.2122 77.1567 62.2896 78.5742C62.0773 78.9033 57.6356 83.8733 57.211 84.1939C56.4925 84.734 53.7654 85.6284 52.7122 86.0672C47.0376 88.4298 43.4695 89.6448 37.3459 91.4084C34.9617 92.0919 33.8513 94.0663 31.2059 93.5263L31.4916 94.2351C31.1405 94.7667 29.3932 95.6105 29.2789 95.7708C29.0013 96.1843 29.1075 97.2137 28.8625 97.4415C28.6339 97.6525 27.0418 97.7875 25.9068 98.9182C24.2167 100.606 21.955 106.749 19.8077 106.521C16.7948 106.2 15.0557 100.91 16.1498 98.2178C17.1296 95.813 19.4484 93.2732 18.3543 90.4971L19.0973 90.1089C18.9993 88.742 18.5176 85.0799 18.8115 83.8564C19.3341 81.6963 22.298 78.5574 23.1471 76.4479C24.4617 73.1655 24.0289 68.4234 25.0414 65.2845C25.2618 64.5926 27.7031 60.9052 28.291 60.1036C30.6751 56.8296 34.6351 52.8132 38.3175 51.2353C39.1013 50.8978 40.473 51.1425 41.2487 50.0033L41.6161 50.8049C45.4291 48.898 50.6873 50.8218 54.8105 49.5899C55.1371 49.4971 55.0637 48.8389 55.3331 48.7967C55.5127 48.763 58.8032 48.7461 58.991 48.7883C59.3747 48.8811 59.3502 49.7755 59.8728 49.9696C60.7628 50.2987 62.1345 49.4717 63.2367 49.573C64.3226 49.6742 65.0738 49.7249 66.1026 49.8093C69.0583 50.054 79.6155 54.9395 81.9588 57.0321C82.3099 57.3443 85.2901 60.7617 85.5595 61.2258C86.7434 63.2425 86.4903 64.0694 86.7026 66.0101C86.8251 67.1493 88.9398 71.7648 89.5358 72.617C89.8788 73.1064 90.6708 73.1318 90.7034 73.1824C90.8259 73.368 90.1074 73.7309 90.1155 74.4059C90.1319 75.486 91.0137 75.6041 91.0708 75.8572C91.2096 76.5069 91.2096 79.0721 91.1198 79.7978C91.03 80.5234 90.3687 80.3125 90.3442 80.6162C89.8543 85.9153 88.2213 88.1682 85.3227 92.4716C85.0043 92.9441 84.89 93.8469 84.6777 94.1001C84.3021 94.5473 83.7469 94.2435 83.5346 94.3785C83.4367 94.446 83.7796 96.1505 83.0856 96.7074L82.3834 96.3446C82.3426 96.9437 81.3791 99.1629 81.1178 99.4329C80.9382 99.6185 80.3667 99.5004 80.236 99.6607C75.0758 106.031 70.0136 111.204 63.9144 116.03C63.3592 116.469 63.2694 117.794 62.9346 118.19C62.2896 118.95 59.734 119.372 59.1216 119.87C58.7624 120.156 58.8767 120.815 58.6562 121.051C55.2759 124.654 50.671 127.363 47.6908 131.084C46.711 132.307 46.8498 132.805 46.6865 133.016C46.5558 133.185 45.7802 133.109 45.4046 133.455C44.9065 133.919 42.3754 137.674 42.2774 137.935C42.2121 138.096 42.5959 138.804 42.4326 139.471C41.8202 142.045 39.6402 143.125 40.9384 146.567C41.3466 147.656 43.1511 149.892 44.0411 150.896C44.3023 151.191 44.2778 151.892 44.5636 152.145C44.6943 152.263 47.3968 153.36 47.7071 153.419C51.3078 154.043 52.9408 152.533 55.8312 151.622C61.9957 149.681 65.8413 149.85 72.7162 150.221C76.8149 150.449 81.1097 150.449 85.2329 150.651C86.7271 150.727 87.7477 149.816 88.6132 151.833C89.2092 151.52 89.0051 150.693 89.2746 150.347C89.5685 149.968 90.3931 150.086 90.6218 149.765C91.1688 148.997 90.8341 146.095 91.2668 145.057C91.4709 144.584 92.4752 143.884 92.8998 143.184C95.684 138.593 97.6599 136.298 102.82 134.552C103.906 134.18 107.025 134.13 107.744 133.674C108.258 133.353 108.225 132.375 108.593 131.97C109.809 130.636 115.206 127.464 116.945 126.671C117.166 126.569 117.166 125.953 117.476 125.886C119.795 125.371 122.367 125.793 124.604 125.911C125.421 125.953 126.286 125.616 126.898 125.666C129.805 125.92 131.128 127.514 134.337 125.835C134.916 125.531 138.917 123.228 139.089 123C139.301 122.713 139.725 122.013 140.215 121.355C142.967 117.701 143.334 112.495 143.53 107.888C142.461 106.107 141.767 103.728 140.673 101.77C140.403 101.281 139.701 101.087 139.293 100.429C137.611 97.7706 137.243 94.6232 141.244 95.1042L142.795 97.5259C143.987 96.3699 143.832 95.3827 143.13 93.982C141.971 91.6531 139.333 90.2608 137.537 88.877C134.704 86.6916 133.732 86.6156 130.524 84.9111C129.038 84.118 127.788 82.751 126.319 81.9579L126.539 81.1647C128.09 81.2153 130.638 80.1268 131.871 80.0593C132.312 80.034 135.659 81.3335 135.782 81.1647L134.443 77.9836C130.458 73.638 124.882 73.174 120.187 70.7354C119.656 70.4569 118.644 69.0309 117.778 68.7862L120.905 66.8371C121.542 66.6683 123.412 68.4403 123.6 66.9974C123.616 66.8624 122.979 64.736 122.791 64.4997C122.375 63.9597 121.248 63.8416 120.75 63.4619C117.786 61.1667 111.246 56.0955 107.384 55.8761C106.421 55.8255 105.825 56.3149 105.196 56.3149C104.633 56.3149 104.282 55.6652 103.735 55.6061C102.159 55.4205 97.7171 59.1501 95.9943 58.2303C94.2633 57.3106 95.3982 52.1888 96.0269 50.6531C97.9457 45.9447 104.731 45.7337 108.862 45.6072C108.617 43.0505 110.511 40.8228 111.067 38.5446C111.279 37.6839 110.969 36.6376 111.205 35.8951C111.401 35.2622 112.389 35.22 112.61 34.5787C112.961 33.5071 112.349 30.6973 112.716 30.0982C112.863 29.8619 113.794 29.9294 114.096 29.5497C114.316 29.2713 114.292 28.4275 114.618 27.9128C116.227 25.3307 119.419 20.3692 121.942 18.8504C123.796 17.7281 130.662 15.6524 132.581 15.8549C133.242 15.9224 133.732 16.5806 134.23 16.6565C137.929 17.2219 141.922 17.3147 146.021 18.2682C146.992 18.496 148.895 19.6942 150.005 19.863C150.683 19.9642 151.638 19.4664 152.585 19.6689C152.781 19.7111 155.092 22.2171 155.516 22.639C156.48 23.601 157.402 24.0819 158.317 25.6767C161.648 31.4736 163.608 36.8907 165.404 43.388C165.6 44.0883 166.335 46.8307 166.58 47.1175C167.813 48.5689 168.066 46.0881 168.392 45.5059C168.523 45.2696 168.98 45.2443 169.127 44.9152C169.772 43.5061 168.98 41.5822 171.422 42.021C172.042 43.7761 171.895 46.1809 172.271 47.7166C172.45 48.4507 173.495 49.2524 173.569 49.8093C173.667 50.5687 172.72 50.729 172.589 51.1087C172.156 52.4081 171.985 53.3363 171.471 54.7286C170.156 58.2725 168.18 61.1667 171.985 63.9091L173.724 62.6096L175.014 59.5888C175.365 59.8589 175.602 60.1542 175.79 60.5761C176.753 62.7193 176.982 65.1326 176.721 67.7399C176.271 72.3217 171.642 77.5279 171.813 82.1013C171.83 82.4304 172.075 83.8902 172.736 83.5442C173.397 81.6288 175.512 81.0297 175.586 79.1565L178.256 80.6331C178.133 81.6203 177.994 82.6667 177.717 83.6117C176.647 87.2822 171.911 92.0665 169.56 95.7792C169.241 96.2771 169.241 97.1377 168.931 97.5175C168.319 98.26 166.882 97.6693 167.217 99.7198C167.682 102.572 171.348 98.8085 172.728 99.5257C173.553 100.639 172.222 100.783 171.911 101.281C169.748 104.715 164.751 108.824 163.355 112.419C163.167 112.891 163.461 113.516 163.265 113.887C162.922 114.52 161.975 114.68 161.754 115.077C161.583 115.389 162.089 116.351 161.583 117.212C161.33 117.634 159.158 119.389 158.594 120.14C157.223 121.954 154.928 126.291 153.051 127.506C150.356 129.253 150.234 129.523 148.299 132.358C148.021 132.763 147.294 132.923 147.18 133.294C146.715 134.4 149.719 135.733 150.405 135.851C151.475 136.037 152.25 135.505 153.026 135.547C155.084 135.665 156.937 136.762 159.044 136.619C159.86 134.99 161.469 134.763 162.579 134.147C164.971 132.813 165.747 132.062 167.788 130.248C173.136 125.481 179.023 121.684 182.55 115.254C185.081 110.638 187.368 105.913 187.939 100.437C188.298 96.9859 187.098 94.7836 186.584 91.7121C186.461 91.0034 186.584 90.2439 186.567 89.5352C186.967 89.1386 189.147 90.3958 189.401 90.7418C189.654 91.0793 189.425 92.3534 190.16 91.9231C192.675 90.4633 190.609 84.118 189.744 81.9916C188.6 79.1733 185.628 75.1738 185.89 72.153C186.094 69.7735 187.515 69.2419 189.507 70.2544C190.119 70.5666 192.569 73.4524 191.858 69.3937C191.728 68.6259 190.511 64.39 190.144 63.985C189.727 63.5378 189.025 63.6644 188.903 63.5209C188.788 63.3859 188.584 61.614 187.629 60.247C186.527 58.6775 184.591 57.4034 183.734 56.3824C181.595 53.8257 183.252 52.2816 186.004 52.366C186.518 52.3828 187.49 54.1717 188.462 53.8004L187.694 49.1089C186.151 48.4592 186.861 47.2104 186.486 46.4931C186.38 46.2906 185.351 45.9615 184.967 45.5987C183.424 44.139 181.913 41.9788 180.387 40.5444C179.652 39.8525 177.121 39.4559 178.794 37.6164C179.431 36.9161 179.856 37.4055 180.493 37.6248C180.542 37.3042 180.485 37.0258 180.411 36.7135C179.995 34.891 176.435 30.2501 175.251 28.5794C174.883 28.0562 174.589 26.7146 174.345 26.5374C174.042 26.318 172.132 25.702 171.258 25.1789C169.152 23.9132 168.392 23.8963 166.555 22.9597C165.943 22.6475 165.869 21.9387 165.608 21.7699C164.808 21.2552 163.453 21.7615 163.134 19.7701C162.767 17.5003 164.539 18.1669 164.881 17.9391C167.037 16.4878 168.547 14.6989 171.119 13.5514C172.45 12.9523 174.083 14.3783 174.614 12.5219L176.337 13.2729V12.0663C176.925 12.5894 178.198 12.2857 178.558 12.5304C178.762 12.6738 178.745 13.4332 178.999 13.7707C179.709 14.7411 179.709 15.1546 180.117 15.779C180.493 16.3528 181.685 16.5721 181.619 17.821C182.82 19.6267 185.171 13.8129 185.612 13.2476C186.216 12.4713 187.212 12.1085 187.71 11.4672C188.453 10.5221 190.478 7.08789 191.221 6.59005C191.695 6.26941 192.683 6.46348 193.173 6.11752C193.532 5.86438 193.246 5.10497 193.622 4.84339C194.095 4.51431 197.394 2.71703 197.753 2.55671C198.015 2.43857 199.288 2.92798 199.599 2.86891C199.86 2.81828 199.778 2.22763 200.121 2.11793C203.15 1.13069 205.665 0.902866 208.743 1.07163C210.058 1.14757 213.846 1.12225 214.753 1.67072C215.251 1.96605 214.9 2.75922 214.998 2.89422C215.063 2.9786 215.618 2.53983 215.953 2.55671C216.565 2.59046 219.015 4.54806 219.872 5.14716C226.755 9.94835 232.43 17.2219 234.683 26.2842C235.238 28.5203 236.12 36.7136 235.736 38.9834C235.704 39.1859 235.051 40.9157 234.846 41.6666C234.03 44.6452 232.617 47.3623 232.454 50.6024L233.377 51.2268C234.21 50.459 235.916 48.3664 236.7 47.7841C236.822 47.6913 237.198 47.8601 237.541 47.6407C238.504 47.0247 239.043 45.7337 240.399 46.4341L238.994 48.7376C238.161 51.0749 238.072 53.1844 236.781 55.2095C235.002 57.9941 231.948 61.1077 229.923 63.5631C229.286 64.3394 226.469 67.2589 226.42 67.858C226.379 68.3812 226.624 68.474 226.943 68.7862C227.457 67.4277 229.319 68.9128 229.4 68.7947C229.507 68.6512 229.147 67.8665 229.645 67.5712C230.241 67.2252 234.014 66.4489 234.332 66.7949C234.748 68.6512 233.401 68.6006 232.642 69.6047C231.883 70.6088 231.907 72.1952 231.295 72.9799C229.531 75.2328 225.849 78.1861 223.709 80.1606C222.003 81.7385 220.517 84.1855 218.802 85.8309C218.108 88.6239 221.823 86.2022 222.199 88.2526C222.771 91.4084 220.925 91.0962 219.815 92.3366C219.317 92.8935 218.925 94.0241 217.978 94.8933C216.671 96.0999 214.867 96.0408 214.238 96.5471C213.879 96.834 214.255 97.4668 213.895 97.7368C211.609 99.4582 209.135 100.04 206.906 102.395C206.678 102.631 206.784 103.281 206.433 103.576C205.755 104.15 204.759 103.357 205.167 105.534C205.926 104.968 206.833 105.306 207.543 105.12C207.861 105.036 208.204 104.572 209.797 104.226C210.572 104.057 212.646 102.69 212.36 104.327C209.886 104.749 206.922 108.993 205.167 109.702C204.783 109.854 204.228 109.44 204.081 109.558C203.885 109.702 203.608 111.356 203.167 111.82C202.758 112.259 200.987 112.756 200.717 113.237C197.982 118.022 194.193 122.198 190.511 126.46C190.315 126.687 190.478 127.303 190.16 127.54C189.392 128.113 187.866 127.683 187.417 127.97C187.294 128.046 186.674 129.776 185.841 130.552C184.298 131.995 179.717 135.016 178.166 135.657C176.998 136.138 175.659 136.349 174.777 136.737C173.895 137.125 171.585 139.277 170.899 139.572C169.405 140.214 167.061 138.442 166.898 141.319C166.817 142.804 168.939 143.116 170.091 143.057C172.932 142.897 176.508 140.905 179.317 139.994C182.085 139.091 185.931 138.517 188.952 137.075C189.27 136.923 190.895 135.1 191.238 134.957C191.736 134.746 192.732 134.518 193.32 134.324C197.917 132.78 201.819 128.805 205.943 126.122C206.392 125.827 207.069 126.029 207.355 125.835C207.69 125.607 207.747 124.359 207.821 124.308C207.886 124.266 208.572 124.89 209.315 124.536C210.319 124.055 211.185 122.409 211.96 121.701C217.986 116.275 231.752 105.12 232.822 96.5218C232.936 95.6105 232.389 94.2013 232.413 92.9525C232.43 92.1172 232.658 87.6197 232.903 87.2569C234.136 85.4596 236.512 89.0626 237.745 88.3623C237.688 85.7212 238.725 83.2404 238.896 80.5909C239.182 76.2538 238.014 73.2668 237.818 69.7228C237.794 69.2756 238.431 68.55 238.545 67.799C238.749 66.4742 238.186 64.9301 239.729 64.2804C241.991 63.3184 242.701 66.0439 243.779 66.2295C245.779 66.5755 244.432 59.2429 244.914 57.8591C243.126 56.8549 244.203 56.6102 244.097 55.3192C244.024 54.4417 243.068 50.0286 242.807 49.3367C242.579 48.7292 241.762 48.7208 241.591 48.1807C241.068 46.51 241.778 45.1599 243.542 45.624C243.713 45.6662 245.175 48.012 246.073 48.0288C246.824 47.4382 246.547 41.3038 246.89 40.2912C247.086 39.709 247.812 39.7428 247.927 39.5993C248.074 39.4053 247.404 35.9204 247.567 34.6294C247.657 33.8868 248.278 34.1062 248.351 33.7856C249.56 28.0478 248.996 18.6901 246.816 13.2138C245.485 9.85554 243.86 8.08357 242.53 3.98272C242.129 2.75078 239.811 -0.312199 242.864 0.0928225C243.64 0.194078 244.955 0.447217 245.779 0.5991C248.123 1.02944 253.111 3.17268 255.046 4.67463L254.908 4.61557ZM207.453 16.665C203.934 12.6569 203.428 16.7493 201.934 19.9642C197.982 19.6942 197.076 18.4538 196.308 23.0609C196.21 23.66 196.643 24.4363 196.488 24.8413C195.998 26.0902 194.798 25.2126 194.291 25.3561C191.899 26.0395 190.764 27.1871 190.691 29.9379C190.658 31.2289 191.728 31.2626 191.793 32.6127C191.858 33.8615 190.291 35.7432 190.242 37.4477C190.217 38.283 191.001 39.979 191.156 40.9832C192.144 47.5732 193.948 53.4207 195.5 59.8082C196.169 62.5759 195.745 66.3055 196.7 69.2587C196.822 69.6385 197.402 69.6047 197.443 69.7566C197.729 70.9379 196.684 70.6848 196.651 70.997C196.586 71.8661 197.459 72.482 196.292 73.5452L197.802 74.1443L197.427 75.14L196.676 74.3468L196.455 75.9332L197.761 76.9288C197.263 77.9414 196.48 80.0425 196.471 81.0972C196.471 81.6963 197.051 82.1435 197.084 82.9198C197.5 91.6615 193.042 103.196 188.641 110.402C185.285 115.895 181.081 121.287 176.965 126.046C174.671 128.704 173.177 129.945 170.442 132.24C169.887 132.704 169.797 133.683 168.629 133.446L169.193 135.033C169.936 133.159 170.376 134.223 171.601 133.986C173.806 133.556 173.504 132.265 174.589 131.43C180.917 126.578 184.02 124.975 189.196 118.646C192.585 114.503 196.104 109.398 199.803 105.593C204.669 100.597 204.465 96.3446 208.253 90.7333C210.017 88.126 215.006 83.1223 215.781 80.3378C216.663 77.1735 218.386 75.3003 219.594 72.3555C221.146 68.5753 223.309 65.7907 224.159 61.7405C224.55 59.8757 224.844 57.4794 224.526 55.5133L226.616 52.5432C226.69 51.5644 225.171 50.054 225.22 48.2482C225.269 46.6535 226.853 44.0714 226.853 43.3964C226.853 42.367 225.743 42.2067 225.457 41.7173C224.11 39.4137 226.371 36.7304 226.608 34.2412C225.808 31.9461 223.22 30.4779 223.612 27.8284C223.807 26.4783 224.542 26.0902 223.701 24.1157C222.722 21.7952 217.635 23.1538 216.933 22.4618C215.087 20.6561 217.814 18.842 215.512 17.9307C215.365 17.8716 212.556 17.5847 212.401 17.6016C211.291 17.7366 212.164 19.1288 209.78 18.7913C208.262 18.5719 208.4 17.7619 207.437 16.665H207.453ZM137.905 29.2628C137.798 29.0688 136.606 28.7903 136.272 28.8156C134.083 29.0013 133.463 32.0389 132.418 33.6253C130.328 34.1147 130.801 30.4948 128.123 32.6211C125.829 34.4353 127.094 36.511 126.874 37.1101C126.858 37.1608 126.466 37.1692 126.376 37.3295C125.135 39.574 125.478 38.1986 123.935 38.9834C123.257 39.3293 122.783 41.8776 122.84 42.6032C122.881 43.177 123.428 43.5905 123.543 44.198C124.196 47.8601 122.285 46.1894 120.889 48.5604C121.06 49.7586 122.914 50.6193 123.355 51.5812C123.624 52.1803 123.51 52.9313 123.779 53.5304C124.204 54.5092 125.404 55.1927 125.029 56.4668C124.824 57.1587 123.837 57.3359 123.926 58.5172C123.943 58.7029 125.445 61.6899 125.567 61.8249C125.968 62.2468 128.393 63.2762 129.152 63.8331C130.05 64.4997 136.868 71.4779 137.129 72.018C137.268 72.3133 136.819 72.8955 136.982 73.1402C137.211 73.4862 138.117 73.4862 138.525 73.9165C138.86 74.2625 140.787 76.7432 141.048 77.2664C141.963 79.0636 142.15 79.2071 143.261 80.8187C143.792 81.595 146.323 84.928 146.78 85.9996C147.082 86.7169 149.605 94.4882 149.695 94.9608C150.176 97.3571 150.299 111.187 149.654 113.204C149.597 113.389 148.021 115.532 147.858 116.106C147.474 117.49 147.613 119.549 147.139 120.916C147.025 121.253 143.873 126.316 143.498 126.856C142.804 127.852 139.725 129.624 140.411 130.999C140.534 131.252 141.995 133.05 142.322 133.05C144.045 133.033 143.579 131.413 144.428 130.831C144.918 130.493 146.837 130.004 147.368 129.674C147.956 129.312 148.535 129.092 148.576 129.016C148.699 128.797 148.413 127.995 148.666 127.514C148.797 127.261 150.372 126.544 150.74 126.139C153.295 123.295 158.096 113.575 159.101 109.558C159.46 108.132 159.199 106.563 159.501 105.221C159.852 103.652 161.158 102.504 161.313 101.914C161.509 101.154 161.322 100.285 161.469 99.762C161.526 99.5679 163.567 98.0406 163.722 97.5681C164.506 95.197 164.971 91.9147 165.739 89.3917C165.927 88.7842 166.621 88.5057 166.768 87.6872C167.494 83.8058 166.523 79.5784 166.425 76.0766C166.171 67.2421 164.351 63.175 163.281 55.758C162.375 49.4633 157.729 40.7806 154.145 36.5364C152.773 34.9163 151.785 34.1231 149.907 33.1865C149.572 34.545 148.225 33.9122 147.09 33.9543C146.894 32.6718 146.339 29.7607 144.959 29.5835C142.159 29.2122 142.159 30.7901 141.007 32.2077C140.305 33.0684 138.231 31.4567 138.052 31.1107C137.774 30.5707 138.158 29.6763 137.921 29.2544L137.905 29.2628ZM299.096 112.157C298.516 111.524 298.443 109.449 297.291 109.449C296.508 109.449 295.871 110.807 295.169 111.238C292.784 112.689 292.017 110.892 290.482 111.077C287.216 111.474 281.354 115.963 278.455 117.904C269.678 123.785 262.248 129.826 254.205 136.661C253.748 137.049 252.793 138.526 252.687 138.585C252.409 138.737 252.589 138.239 251.348 139.024C247.167 141.665 241.484 143.53 236.626 145.394C231.368 147.403 225.179 150.002 219.202 150.626C212.14 151.36 204.155 152.086 196.912 151.368C190.993 150.778 184.967 147.757 179.415 147.048C178.541 146.939 174.557 146.491 174.287 147.69L174.696 150.618C175.226 150.55 175.667 150.272 176.231 150.373C178.966 150.879 182.673 153.022 185.179 153.664C187.033 154.145 191.27 153.79 193.279 154.372C200.219 156.381 208.588 158.043 216.214 157.03C216.941 156.938 216.573 156.262 217.3 156.17C220.092 155.798 227.735 155.866 230.617 156.17C231.499 156.262 230.821 157.199 231.719 157.005L231.531 156.203C232.593 156.49 234.642 155.579 235.524 155.891C235.728 155.967 235.687 156.6 235.916 156.617C236.349 156.642 238.488 156.203 239.631 156.153C244.775 155.933 250.066 156.322 255.308 156.077C257.104 155.992 260.043 156.06 261.684 155.832C262.419 155.731 262.199 155.014 262.452 154.98C263.203 154.879 263.93 155.68 264.705 155.782C268.919 156.33 271.425 154.305 275.385 153.503C280.088 152.541 282.276 152.128 286.734 150.693C287.673 150.39 288.816 150.837 289.616 150.626C289.959 150.533 289.968 149.799 290.515 149.504C291.339 149.065 293.087 148.93 294.115 148.491C297.234 147.141 301.521 144.087 304.664 143.201C305.775 142.888 306.681 143.665 307.669 142.416C308.249 141.682 308.224 140.644 308.804 140.011C309.816 138.914 311.988 138.872 311.482 136.248C309.833 136.45 308.306 136.324 308.82 134.13C308.951 133.556 310.96 132.864 311.351 132.518C311.972 131.961 314.348 128.654 313.719 127.894C312.748 127.869 310.486 126.274 310.486 125.261C310.486 123.7 314.274 120.258 312.944 119.119C312.739 118.941 312.005 119.211 311.588 118.958C311.343 118.806 311.049 117.76 310.159 117.667C309.318 117.583 306.926 118.427 306.338 117.499C306.224 115.237 305.244 113.761 305.799 111.482C303.905 110.672 303.293 112.529 302.868 112.68C301.97 112.993 299.79 112.959 299.08 112.174L299.096 112.157ZM192.389 168.329C191.964 168.109 191.466 168.168 191.05 167.949C189.67 167.24 189.05 165.958 186.837 166.574C187.27 167.865 186.69 171.35 186.902 172.286C187.253 173.856 190.576 175.088 191.826 175.805C196.839 178.691 206.367 182.96 212.05 184.504C219.398 186.496 219.635 187.086 225.293 192.149C225.898 192.689 226.967 192.166 226.624 193.735L227.367 193.339C227.522 193.525 227.751 195.533 227.914 195.955C228.249 196.815 228.404 196.014 228.902 198.233C228.96 198.486 230.331 199.077 230.037 200.123C231.932 199.085 231.107 195.465 234.005 196.107L234.25 197.254C235.916 197.313 236.643 197.887 236.479 199.726C237.778 198.849 238.047 200.317 238.994 200.866C241.386 202.258 242.097 203.405 243.869 204.553C244.538 204.983 245.714 204.604 246.465 205.287C246.808 205.599 246.612 206.148 246.971 206.519C248.286 207.877 253.952 210.51 255.781 211.523C260.631 214.214 265.277 216.012 270.462 218.4C275.818 220.863 283.779 222.171 289.674 222.914C290.809 223.057 291.968 223.741 293.136 223.716C294.932 223.673 297.667 221.91 298.81 221.682C299.627 221.522 300.688 221.876 301.39 221.682C301.799 221.572 301.75 220.703 302.272 220.526C302.697 220.383 303.178 220.897 303.75 220.526C304.321 220.155 304.632 218.973 305.285 218.526C305.938 218.079 307.849 217.919 308.036 217.615C308.339 217.125 307.685 215.961 309.22 215.48L309.237 214.678C307.653 214.257 309.016 213.683 309.049 213.101C309.09 212.333 308.584 211.388 308.894 210.544C310.323 209.464 313.213 211.236 313.703 209.017C313.866 208.291 313.14 205.144 312.519 204.62C311.523 203.777 309.645 204.46 310.47 201.811C310.698 201.068 313.989 200.57 312.821 197.735C312.323 196.571 311.106 196.756 310.372 196.275C310.102 196.098 310.053 195.575 309.669 195.322C309.041 194.9 307.857 195.356 307.751 193.828L309.171 190.166C308.216 189.896 307.432 189.196 307.302 188.124C306.314 188.715 304.028 189.162 302.991 188.825C302.525 188.673 301.521 186.918 301.064 186.521C299.594 185.238 297.667 184.597 295.961 185.711C295.854 184.099 293.993 184.395 292.752 184.555C286.873 185.306 281.272 186.158 275.336 187.339C269.392 188.529 263.668 189.069 257.463 189.339C255.773 189.415 256.369 188.588 255.61 188.479C249.298 187.609 242.325 188.285 236.398 187.112C233.793 186.597 233.164 185.424 229.801 185.272C228.331 185.213 218.362 181.711 216.279 180.859C213.095 179.551 209.527 176.387 206.286 174.978C203.926 173.957 200.374 173.349 198.104 172.126C196.578 171.307 194.185 169.215 192.364 168.295L192.389 168.329ZM187.547 212.957C185.555 211.607 187.629 215.851 186.069 215.927C187.408 220.973 187.686 226.39 188.805 231.394C188.984 232.196 189.809 232.753 189.874 233.495C189.988 234.761 188.731 238.364 189.09 241.081C189.646 245.283 190.078 249.654 190.593 253.873C190.911 256.48 191.123 259.138 191.466 261.737C192.275 267.897 192.324 275.12 193.646 281.068C193.973 282.553 193.41 284.908 193.679 286.561C193.85 287.641 194.985 289.346 195.149 290.603C196.21 298.56 197.28 304.939 199.607 312.66C201.738 319.748 205.314 325.908 208.49 332.776C209.388 334.725 210.474 338.1 211.576 339.78C211.772 340.066 212.597 340.353 212.997 340.868C217.472 346.555 222.762 352.437 229.817 353.491C230.413 353.584 233.075 353.609 233.548 353.474C234.577 353.179 234.446 349.196 237.745 351.93C238.806 352.816 238.61 354.048 240.75 353.39C242.611 352.808 241.95 349.795 242.97 348.344L246.49 349.104L246.906 348.251C250.654 349.753 248.98 344.42 248.245 342.159C248.972 340.429 252.042 340.775 252.205 338.902C252.458 336.067 249.739 335.923 250.156 334.177C250.58 332.396 252.915 333.223 253.307 332.709C253.487 332.472 254.434 330.262 254.507 329.924C254.859 328.135 254.091 328.338 253.364 327.469C253.119 327.173 253.275 326.405 252.907 326.287C251.046 325.688 249.519 328.177 248.384 324.321C248.229 323.798 248.653 323.106 248.425 322.718C248.09 322.144 246.955 322.136 246.767 321.832C246.53 321.444 246.849 320.499 246.334 320.094C245.959 319.799 244.946 319.934 244.383 319.739C243.575 319.453 243.632 318.339 242.219 318.651C240.709 316.297 243.689 316.862 242.701 314.736C242.007 313.242 238.512 311.141 237.598 309.335C234.446 307.715 230.241 302.737 227.351 301.336C226.967 301.151 226.575 301.395 226.232 301.556C226.232 298.4 224.216 297.995 222.664 296.316C221.913 295.497 221.244 293.717 220.795 293.27C220.599 293.076 218.41 291.962 218.231 291.709C215.389 287.743 212.899 284.199 209.772 280.36C206.522 276.368 202.505 265.99 200.178 260.935C200.023 260.598 198.7 259.214 198.602 258.902C196.822 253.054 196.112 245.232 194.871 238.954C194.169 235.411 193.891 231.934 193.246 228.753C193.181 228.441 192.52 228.5 192.283 227.715C190.78 222.695 191.434 218.796 187.996 214.231C187.743 213.902 187.645 213.033 187.523 212.949L187.547 212.957ZM87.0537 281.482C87.2007 281.33 88.6867 277.777 88.7193 277.389C88.7683 276.799 88.4254 272.858 88.3029 272.2C88.1478 271.356 87.3721 271.044 87.315 270.622C87.2415 270.048 87.7477 269.28 87.4783 268.293C86.9394 266.302 81.2893 263.686 79.6073 264.623C77.4681 265.821 76.4638 270.158 76.9537 272.521C76.9782 272.622 77.3538 273.668 77.5334 274.318C78.5622 278.014 79.2154 278.756 81.4771 281.49C81.9425 282.056 81.9017 283.22 83.2734 283.498C85.0043 283.844 85.3717 282.477 86.1637 281.71C86.3352 281.541 86.8741 281.667 87.0455 281.49L87.0537 281.482ZM150.838 275.6L145.792 274.377C144.665 274.58 141.718 281.946 140.926 283.321C137.521 289.245 132.932 294.417 130.409 300.67C126.858 309.47 124.326 318.634 123.134 328.118L124.727 335.291C124.775 336.118 123.657 336.134 123.551 336.573C123.33 337.493 123.722 339.003 123.534 340.041C124.971 341.197 126.719 341.552 127.935 343.087C127.69 344.159 127.168 346.302 127.323 347.281C127.478 348.26 128.784 348.142 128.523 349.407C131.062 349.812 132.769 347.897 134.557 350.555C133.7 353.702 135.61 355.196 138.46 354.647C138.713 354.597 138.737 354.09 138.819 354.04C139.031 353.93 139.358 354.166 139.636 353.871C140.044 353.424 140.966 351.508 141.252 351.441C143.473 350.96 144.984 354.791 147.441 353.668L149.303 347.652C149.932 347.289 152.855 348.395 154.267 347.281C155.337 346.429 154.169 342.235 154.316 341.957C154.357 341.872 155.533 340.682 155.622 340.674C157.149 340.531 159.444 342.513 159.778 338.7C159.958 336.666 158.203 335.746 158.154 334.582C158.105 333.476 159.468 329.831 159.738 328.346C161.077 320.853 160.546 311.023 159.648 303.657C159.501 302.467 159.762 301.243 159.223 300.121L159.966 299.733C159.125 296.468 159.452 292.713 159.566 289.371C159.672 286.334 161.207 280.891 158.627 278.756C158.448 278.613 154.43 278.022 154.243 278.157C153.459 278.756 154.243 281.043 154.275 282.157C154.381 286.519 153.802 291.16 153.867 295.337C153.998 304.036 155.99 310.424 154.243 319.301C153.704 322.026 152.356 325.106 149.744 326.076C148.682 326.473 146.217 327.35 144.943 327.469C142.893 327.654 140.877 326.87 139.105 326.161C138.762 326.026 138.337 326.363 138.068 326.228C137.937 326.161 136.117 324.6 135.863 324.338C134.884 323.3 132.981 320.178 132.744 318.828C132.63 318.162 133.079 317.579 133.038 316.946C132.981 316.187 132.287 315.605 132.304 314.93C132.312 314.432 133.455 311.58 133.659 310.745C135.145 304.762 136.909 300.003 139.921 294.206C141.195 291.768 142.771 288.435 144.249 286.005C144.861 285 147.4 282.536 147.605 281.988C147.743 281.625 147.36 281.085 147.49 280.866C147.662 280.57 150.315 278.908 150.626 278.393C150.789 278.132 150.675 276.132 150.846 275.592L150.838 275.6Z" fill="black"/>
<path d="M61.3666 61.5971L60.9666 64.2888C59.5949 64.6179 58.1415 64.6685 56.778 64.8626C56.435 64.9132 56.0758 65.4785 55.9125 65.4785C55.4308 65.4954 55.1858 64.1538 54.6796 63.9597C54.2632 63.7994 49.1683 63.6222 48.907 63.7403C47.9027 64.1875 48.8417 64.2635 49.005 64.4407C49.552 65.0313 50.9074 66.2886 51.1034 67.0311C51.1768 67.2843 51.5769 70.2882 51.5688 70.516C51.5688 70.7945 50.9319 70.7438 50.8013 71.0223C50.1726 72.3386 50.3522 73.2077 48.8009 74.0431C48.3191 74.3047 47.7313 74.2034 47.3067 74.3806C46.9393 74.5325 47.1107 75.1822 46.4657 75.1822C44.9634 75.1822 41.926 73.2921 41.1667 71.9251C40.6278 70.9717 40.9462 69.7819 39.8603 69.3769L39.8195 67.9593C39.8603 70.0857 37.7619 69.5625 37.0598 71.267C36.4637 72.7099 37.2639 72.2964 36.0391 74.2371C35.4676 75.1484 35.141 76.7432 33.7611 76.7348C32.7813 74.1021 32.9038 72.6424 34.202 70.2207C35.3206 68.1449 39.0112 64.1116 40.9707 62.9725C41.085 62.905 42.8895 62.1202 43.1589 62.0105C48.3681 59.9095 56.1248 59.6226 61.3748 61.6055L61.3666 61.5971Z" fill="black"/>
<path d="M78.4641 18.0235L79.9746 17.6269C80.1788 19.7026 80.7911 22.9006 80.1379 24.8835C80.0726 25.0776 78.4233 28.1237 78.2437 28.3853C76.0555 31.6339 72.814 33.3215 69.6297 35.2791C66.9271 36.9414 63.8735 38.359 61.0729 40.2406C60.3462 40.73 59.7012 41.8945 59.146 42.1476C58.8357 42.291 58.2397 41.9535 57.9866 42.156C57.7335 42.3585 56.9823 44.9406 56.7374 45.4553C56.5741 45.7928 55.4881 46.4256 55.7249 47.5816L53.8878 46.7125C53.7572 43.5399 56.223 41.7004 57.3497 39.3124L62.4854 36.3423C62.2895 33.4228 63.3509 34.4691 64.7389 33.7265C65.1717 33.4987 65.0737 33.0599 65.5064 32.8237C65.7514 32.6886 66.3964 32.9502 66.6495 32.7393C66.8618 32.5621 69.3521 28.5119 69.5644 28.014C70.4135 25.9636 70.8136 21.8121 71.7771 20.1583C71.8832 19.9811 74.4225 17.3316 74.6021 17.2556C74.9859 17.0953 77.8599 16.395 78.2355 16.5215C79.2316 16.8506 78.3172 17.8885 78.4723 18.0319L78.4641 18.0235Z" fill="black"/>
<path d="M66.2328 13.3404C66.6982 13.6695 68.1434 16.724 68.2087 17.475C68.274 18.226 67.531 21.6433 67.2534 22.3943C66.6165 24.141 60.7542 30.2416 59.113 31.3301C57.8719 32.1655 56.2308 35.5491 55.0796 37.4898C54.5407 38.3927 54.4509 38.6965 53.9936 39.5656C53.7242 40.0803 52.4831 40.0212 53.0628 41.9788L51.5278 41.7932C50.3031 40.9663 53.7405 34.7728 53.6344 33.1696C56.933 31.617 59.0395 24.5882 59.0885 21.0274C59.0967 20.3439 58.5823 19.6942 58.566 18.7744C58.5496 17.8294 59.0232 15.433 59.5376 14.6736C60.6235 13.0788 64.6815 12.2688 66.2083 13.3404H66.2328Z" fill="black"/>
<path d="M151.173 171.839C150.977 173.375 152.014 172.936 152.74 173.577C153.41 174.159 154.602 178.429 154.643 179.551C154.749 182.479 154.039 182.513 153.091 184.741C152.748 185.551 152.708 187.238 152.169 187.77C151.679 188.251 150.96 187.998 150.568 188.276C149.442 189.086 148.601 191.702 148.192 191.947C147.556 192.335 146.796 192.006 146.176 192.149C145.849 192.225 145.882 192.816 145.645 192.934C144.714 193.415 143.734 193.44 143.065 194.52C142.575 193.339 140.909 193.524 140.42 192.925C140.175 192.63 140.158 191.938 139.848 191.533C139.285 190.799 138.199 190.394 138.476 189.331C138.86 187.829 139.897 188.428 140.501 188.031C140.746 187.871 140.828 187.12 141.367 186.749C142.036 186.285 143.269 186.327 143.849 185.77C144.494 185.146 144.257 184.31 144.584 183.711C144.665 183.559 147.188 182.251 147.327 182.066C147.588 181.737 147.49 180.505 147.735 179.889C147.948 179.349 148.421 179.374 148.527 179.037C149.172 177.028 149.646 173.873 149.695 171.755L151.165 171.822L151.173 171.839Z" fill="black"/>
<path d="M95.2837 221.437C94.8591 221.994 94.3938 223.226 93.9855 223.471C93.4711 223.783 92.7118 223.623 92.1321 223.91C89.9602 224.99 90.4338 224.576 88.5477 225.023C85.8206 225.665 78.1946 227.04 75.9248 225.766C74.4796 224.956 73.4018 223.446 71.3524 223.184L71.2871 220.737L72.1934 220.087L78.2844 222.484C79.7623 220.425 83.7222 222.306 86.0656 221.505C86.9637 221.201 88.9233 219.387 89.9357 218.796C90.4583 218.492 91.2993 218.602 91.7238 218.29C92.8098 217.48 93.5201 213.455 94.01 212.426C94.6795 211.008 97.129 210.055 98.1333 211.573C97.6352 213.033 98.5742 215.067 98.419 216.231C98.2149 217.868 96.2798 220.146 95.2837 221.437Z" fill="black"/>
<path d="M41.4934 44.9743C41.3382 45.1177 41.3301 45.5987 41.0933 45.5987L39.8277 45.1515C40.3421 41.1097 40.3339 34.6209 35.6555 33.389C34.6104 33.1105 33.7286 33.3721 32.8794 33.1865C32.6671 33.1443 29.7604 30.7395 29.491 30.3007C28.9521 29.4147 28.5194 27.2124 28.6255 26.2083C28.6582 25.913 29.94 24.1832 30.0544 24.1241C30.185 24.065 32.5283 23.4659 32.8059 23.4238C34.0878 23.2297 37.1415 23.9469 38.1131 24.7991C38.2601 24.9257 40.1625 27.7187 40.3176 28.0056C42.1547 31.4989 44.0081 40.1394 42.4976 43.8352C42.2609 44.4174 41.8934 44.5946 41.4852 44.9743H41.4934Z" fill="black"/>
<path d="M114.675 233.132C114.577 233.461 111.671 238.355 111.303 238.727C110.193 239.849 107.645 240.288 106.69 242.051L106.323 241.25L105.376 241.672L105.743 242.448C104.282 242.338 101.636 243.848 100.583 243.933C99.8154 243.992 98.9989 243.486 97.9946 243.663C97.4884 243.747 97.0066 244.363 96.827 244.363C96.5494 244.363 96.2228 243.604 95.8717 243.477C93.8958 242.76 90.9156 242.709 93.4549 239.731C94.7858 240.026 96.4106 240.541 97.7823 240.305C101.848 239.621 106.143 235.444 108.389 231.883C108.846 231.158 109.548 228.854 110.013 228.196C110.446 227.572 112.716 226.762 113.5 226.863C115.182 227.074 115.092 231.715 114.667 233.141L114.675 233.132Z" fill="black"/>
<path d="M138.068 182.682C137.741 182.901 137.676 183.72 136.826 183.998C135.063 184.58 132.964 181.956 131.699 180.944C131.258 180.589 130.156 181.011 130.384 179.779C131.201 179.855 131.389 178.682 131.789 178.564C132.409 178.378 133.12 178.615 134.059 178.252C137.284 177.011 137.716 174.615 138.737 171.687C139.153 170.506 140.027 168.759 140.239 167.207C140.419 165.873 140.239 164.127 139.847 162.836L140.786 161.798C141.399 163.097 143.024 162.718 143.571 163.654C143.856 164.144 145.375 168.708 145.457 169.291C145.563 170.067 145.22 170.565 145.212 171.181C145.212 171.704 145.547 172.236 145.506 172.759C145.375 174.353 141.48 180.977 140.19 181.939C139.545 182.42 138.647 182.294 138.059 182.69L138.068 182.682Z" fill="black"/>
<path d="M159.681 195.06C158.08 197.431 157.149 199.676 154.52 201.009C151.777 202.393 147.082 203.253 144.388 201.422L144.429 198.165L148.046 197.448C148.446 197.372 149.034 197.811 149.45 197.684C150.021 197.516 150.087 196.554 150.462 196.301C150.585 196.216 152.12 195.963 152.912 195.33C155.247 193.457 157.974 187.998 159.093 185.027C159.468 184.023 158.962 183.247 159.738 182.564C160.905 183.171 162.261 184.985 162.097 186.42C161.918 188.065 161.959 188.816 161.852 190.335C161.648 193.465 160.954 193.162 159.672 195.06H159.681Z" fill="black"/>
<path d="M50.5898 15.4499C51.1531 16.1418 51.5369 16.6143 51.8227 17.5341C52.1656 18.6394 52.9167 23.0694 52.6228 24.1072C52.4677 24.6388 51.7737 25.0692 51.5124 25.7695C50.5571 28.4106 50.6959 28.4697 49.3977 30.9251C48.7118 32.2246 48.671 34.6378 46.6216 34.3931L46.6053 26.6302C45.3397 23.8035 42.9556 21.9893 42.8168 18.6057C42.678 15.2221 44.115 13.3657 47.2585 13.3657C48.916 13.3657 49.6508 14.2939 50.5816 15.4499H50.5898Z" fill="black"/>
<path d="M92.1082 199.726C91.7898 200.705 92.5409 202.815 92.3368 203.523C92.0347 204.544 91.7163 205.625 91.3897 206.721C91.1529 207.523 89.7404 208.519 90.2139 210.114L89.4628 209.708C89.4709 210.223 89.5526 210.713 89.3566 211.202C89.2668 211.43 86.1723 214.518 85.96 214.619C85.3803 214.881 84.7271 214.408 84.0739 214.577C83.3473 214.771 82.6369 215.877 81.9837 216.02C81.6898 216.079 76.4643 215.809 76.1132 215.666C74.5129 215.016 74.6517 215.261 72.9942 214.881C72.0226 214.662 70.953 213.885 69.916 213.725L70.3896 211.683C72.2757 211.219 73.182 212.898 74.8639 212.94C78.3585 213.033 81.5428 210.932 84.1066 208.637C86.9806 206.072 87.7563 203.793 88.2952 199.895L92.1082 199.718V199.726Z" fill="black"/>
<path d="M133.291 161.106C133.626 161.511 133.765 162.245 134.157 162.81C134.418 163.19 135.21 163.232 135.316 163.663C135.389 163.966 135.553 167.949 135.512 168.388C135.496 168.548 134.614 171.265 134.532 171.451C134.287 171.974 133.601 172.058 133.201 172.556C129.805 176.725 127.322 181.239 124.285 173.223C125.044 172.446 127.739 170.261 128.09 169.459C128.441 168.658 128.155 167.696 128.4 167.097C128.662 166.472 129.454 166.008 129.568 165.502C129.78 164.557 128.662 161.891 129.413 160.566C129.96 159.747 132.679 160.363 133.299 161.106H133.291Z" fill="black"/>
<path d="M96.5416 233.529C96.0109 233.807 93.5287 235.157 93.3491 235.2C92.7694 235.351 92.0999 234.778 91.0385 235.107C89.977 235.436 89.3157 236.685 88.1073 236.685C87.1683 236.685 84.4167 236.102 83.4614 235.773C82.9307 235.588 79.6076 234.027 79.5668 233.807C79.4443 233.174 79.9669 231.445 80.5792 231.301C81.8448 231.706 82.4898 232.457 83.9432 232.499C87.4786 232.618 95.8639 230.39 97.9949 227.302C99.0155 225.817 98.8278 223.42 101.375 223.682C104.527 224.002 102.314 228.82 101.163 230.246C100.012 231.672 98.3052 231.985 97.0233 232.744C96.7702 232.888 96.6804 233.461 96.5416 233.537V233.529Z" fill="black"/>
<path d="M114.39 167.704C113.549 168.211 109.638 166.321 108.503 165.941C108.233 165.848 107.801 166.101 107.531 166.017C105.359 165.3 103.359 164.616 103.465 161.621C103.473 161.359 104.086 161.376 104.224 161.106C104.486 160.583 104.82 159.317 105.082 159.098C105.376 158.844 109.548 157.739 110.283 157.604C111.311 157.418 115.075 156.954 115.598 157.587C116.488 158.659 115.361 167.122 114.381 167.713L114.39 167.704Z" fill="black"/>
<path d="M80.8971 202.697C80.0806 203.245 74.4386 205.827 73.7528 205.743C73.5405 205.717 73.5813 204.992 73.2874 204.924C72.2913 204.688 67.7924 204.907 67.3515 204.561L65.5879 201.532C68.6661 199.65 73.0343 203.279 76.3574 200.899C77.0922 200.376 77.1575 198.984 77.6883 198.41C78.0802 197.988 79.8111 197.203 80.2439 196.41C80.6276 195.718 80.8726 191.769 81.338 191.727C85.8695 192.2 85.0203 198.756 82.6525 201.532C82.0075 202.283 81.5584 202.258 80.9052 202.697H80.8971Z" fill="black"/>
<path d="M121.787 238.338C121.926 238.558 122.538 238.566 122.726 239.123C122.873 239.545 123.257 242.557 123.175 242.962C123.126 243.232 122.596 243.275 122.465 243.578C121.24 246.321 120.179 248.363 118.023 250.43L112.21 249.62C112.063 248.042 112.169 245.544 114.08 246.447C114.21 246.321 113.557 245.755 113.875 245.258C114.823 243.756 117.297 242.819 117.786 240.549C117.901 240.034 117.525 239.486 117.599 239.106C117.623 238.988 118.66 237.064 118.742 236.972C120.318 235.107 121.191 237.368 121.795 238.33L121.787 238.338Z" fill="black"/>
<path d="M123.828 169.67C123.371 170.075 122.146 169.873 121.967 171.29C119.624 171.282 116.823 171.096 116.717 168.042C119.877 165.291 120.963 162.456 119.395 158.212C123.322 156.853 126.784 159.081 125.976 163.705C125.747 165.004 125.053 165.283 124.784 166.076C124.498 166.903 124.449 169.105 123.828 169.662V169.67Z" fill="black"/>
<path d="M132.54 248.557C132.769 248.81 134.418 251.569 134.402 251.831C134.173 252.708 132.924 253.577 132.72 254.312C132.548 254.928 132.753 256.261 132.622 256.404C132.532 256.514 130.319 256.818 129.911 256.733C129.103 256.564 124.335 254.151 124.008 253.544C123.828 253.215 123.804 251.915 123.983 251.687C127.037 251.46 126.449 247.392 129.397 247.291C130.107 247.266 132.026 248 132.524 248.548L132.54 248.557Z" fill="black"/>
<path d="M45.8212 173.02C46.703 174.463 45.1843 175.746 44.7597 176.471C44.5393 176.843 44.6209 177.56 44.3923 177.897C44.2943 178.041 42.098 179.298 41.5183 179.754C40.9304 180.226 40.7263 181.087 40.2772 181.34C39.2484 181.914 33.0431 182.935 31.6632 182.977C29.5649 183.045 28.4871 181.939 29.2056 179.745C30.9284 179.863 35.3456 180.623 36.7745 179.939C36.9949 179.83 40.1955 177.062 40.5466 176.64C41.1835 175.864 42.841 172.548 43.2247 172.337L45.8293 173.02H45.8212Z" fill="black"/>
<path d="M33.1572 163.595C33.6063 164.118 33.8757 164.937 33.9819 165.021C34.6759 165.544 35.5169 164.928 36.1129 165.08C37.7051 165.477 39.5748 167.012 41.8528 166.582C42.7836 166.405 43.2654 165.51 43.9676 165.257C44.882 164.928 48.7603 164.262 48.1398 166.388C46.5232 167.392 44.7759 168.919 42.9143 169.308C41.9916 169.502 40.571 168.776 39.6075 169.088C39.3789 169.164 39.583 170.151 37.7459 169.763C35.1821 168.751 28.8135 166.43 32.7898 162.996C33.0429 162.886 32.9286 163.342 33.1491 163.604L33.1572 163.595Z" fill="black"/>
<path d="M152.61 51.3112C152.708 51.3787 154.324 52.7119 154.414 52.7963C155.818 54.2476 158.513 58.9898 158.766 60.9895C159.656 68.1449 160.383 75.0303 159.95 82.5401C159.713 86.5819 158.505 91.3493 156.333 94.6992C154.12 93.2816 154.479 90.3705 153.818 88.1429C151.516 80.3125 147.972 75.9163 143.759 69.4191C142.575 67.588 143.4 68.1956 141.579 66.3392C141.334 66.0945 138.64 60.7533 138.542 60.4073C138.337 59.7239 138.787 58.9222 138.713 58.6185C138.64 58.3147 138.052 58.5425 137.937 57.7831C137.603 55.5471 138.623 55.5977 138.689 55.3024C138.729 55.1083 138.378 54.6526 138.542 54.3573C138.705 54.062 139.366 53.9017 139.636 53.5304C139.979 53.0494 140.877 51.4715 141.114 51.3028C141.71 50.8724 142.681 50.9906 143.359 50.7459C143.661 50.6362 143.653 50.0624 143.914 49.9949C145.327 49.6489 151.426 50.4927 152.626 51.3197L152.61 51.3112Z" fill="black"/>
</g>
<defs>
<clipPath id="clip0_19_2363">
<rect width="328" height="371" fill="white"/>
</clipPath>
</defs>
</svg>
